<svg width="150" height="151" viewBox="0 0 150 151" fill="none" xmlns="http://www.w3.org/2000/svg">
<path d="M79.5294 21.4779C78.6966 21.4138 78.0042 21.2293 77.4523 20.9245C76.901 20.6113 76.4956 20.2163 76.2361 19.7393C75.9773 19.254 75.8709 18.7127 75.9169 18.1155L77.9232 18.2699C77.905 18.5054 77.9513 18.729 78.0619 18.9406C78.181 19.1529 78.3703 19.3324 78.6297 19.4793C78.8898 19.6178 79.2344 19.7036 79.6634 19.7366C80.0504 19.7664 80.3781 19.7408 80.6467 19.66C80.9152 19.5791 81.1236 19.4555 81.2718 19.2892C81.4206 19.1145 81.5041 18.9094 81.5222 18.6738C81.5449 18.3794 81.4365 18.1384 81.1971 17.9507C80.9583 17.7546 80.5591 17.6097 79.9994 17.5158L79.3102 17.3993C78.3991 17.253 77.6893 16.9107 77.1807 16.3723C76.6721 15.8339 76.4493 15.1567 76.5121 14.3407C76.5574 13.7519 76.7354 13.2536 77.046 12.846C77.365 12.439 77.7856 12.1414 78.3078 11.9531C78.8307 11.7564 79.437 11.6846 80.1268 11.7377C80.8502 11.7934 81.4588 11.9671 81.9525 12.259C82.4553 12.5431 82.828 12.9229 83.0706 13.3986C83.3139 13.8658 83.4122 14.4022 83.3656 15.0079L81.3467 14.8525C81.3642 14.6254 81.3254 14.4151 81.2303 14.2216C81.1358 14.0197 80.9838 13.8514 80.7741 13.7168C80.5729 13.5829 80.3124 13.5036 79.9928 13.479C79.6899 13.4557 79.4295 13.4864 79.2114 13.5712C79.0017 13.6566 78.8396 13.7837 78.7251 13.9526C78.6112 14.1131 78.5465 14.2942 78.531 14.4961C78.5109 14.7569 78.5859 14.9912 78.7561 15.1989C78.9263 15.4066 79.2204 15.5435 79.6384 15.6095L80.3401 15.727C81.0086 15.8377 81.5903 16.0305 82.0853 16.3055C82.581 16.5722 82.9562 16.9184 83.2112 17.3442C83.4752 17.7622 83.5851 18.2572 83.5411 18.8292C83.4958 19.4181 83.3004 19.9234 82.9548 20.3453C82.6183 20.7594 82.1588 21.0668 81.5765 21.2674C80.9941 21.4679 80.3117 21.5381 79.5294 21.4779Z" fill="white"/>
<path d="M88.8521 23.0399C88.041 22.8404 87.3789 22.5299 86.8657 22.1083C86.3545 21.6785 85.971 21.1889 85.7151 20.6394C85.4613 20.0817 85.3097 19.5145 85.2604 18.9376C85.2214 18.3546 85.2643 17.8091 85.3892 17.3011L85.4557 17.0308C85.5927 16.4736 85.8178 15.9469 86.131 15.4505C86.4462 14.9459 86.8426 14.5177 87.3201 14.166C87.8057 13.8162 88.3634 13.5798 88.9932 13.4566C89.6332 13.3273 90.3424 13.3583 91.1207 13.5497C91.9318 13.7492 92.6114 14.077 93.1595 14.5333C93.7076 14.9895 94.0995 15.5334 94.3352 16.1647C94.5811 16.79 94.6482 17.4711 94.5365 18.2082L92.5087 17.7096C92.54 17.335 92.4845 16.9955 92.3421 16.6912C92.1998 16.3868 91.9819 16.1247 91.6884 15.9048C91.4031 15.687 91.0598 15.5287 90.6583 15.43C90.2569 15.3313 89.8833 15.3133 89.5378 15.376C89.1922 15.4387 88.8817 15.5709 88.6062 15.7724C88.3389 15.9761 88.1046 16.2399 87.9033 16.564C87.7121 16.8819 87.5642 17.2539 87.4594 17.6799C87.3567 18.0977 87.3152 18.4959 87.3351 18.8744C87.3652 19.2467 87.4545 19.5901 87.6031 19.9047C87.7618 20.213 87.9838 20.4762 88.2691 20.694C88.5564 20.9037 88.9048 21.0589 89.3145 21.1596C89.9371 21.3127 90.4988 21.2901 90.9993 21.0917C91.5081 20.8954 91.873 20.542 92.0941 20.0316L94.1095 20.5272C93.8746 21.1645 93.5053 21.7123 93.0017 22.1706C92.5082 22.6227 91.9058 22.935 91.1943 23.1076C90.4931 23.274 89.7124 23.2514 88.8521 23.0399Z" fill="white"/>
<path d="M94.068 24.3314L97.7539 15.7773L99.66 16.5987L95.9741 25.1527L94.068 24.3314ZM99.2167 26.5499L98.302 21.8288L100.394 22.7303L101.425 27.5015L99.2167 26.5499ZM96.6346 22.2127L97.2806 20.7134L99.3726 21.6149C99.6516 21.7351 99.9151 21.7843 100.163 21.7627C100.423 21.7366 100.65 21.6462 100.845 21.4915C101.052 21.3324 101.213 21.1172 101.33 20.846C101.447 20.5748 101.491 20.3135 101.461 20.0619C101.443 19.806 101.352 19.5787 101.19 19.3801C101.039 19.1771 100.823 19.0154 100.544 18.8953L98.4525 17.9938L99.1486 16.3783L101.09 17.2146C101.795 17.5185 102.36 17.8907 102.786 18.3313C103.215 18.7642 103.478 19.25 103.577 19.7886C103.676 20.3272 103.588 20.9141 103.314 21.5495L103.234 21.7355C102.964 22.3631 102.595 22.8243 102.128 23.1192C101.672 23.4096 101.14 23.5476 100.53 23.5331C99.9322 23.5142 99.2806 23.3529 98.5755 23.0491L96.6346 22.2127Z" fill="white"/>
<path d="M105.449 30.4657C104.748 30.0106 104.215 29.4927 103.847 28.912C103.492 28.3289 103.273 27.7289 103.191 27.112C103.113 26.4881 103.141 25.8876 103.275 25.3103C103.415 24.7376 103.626 24.2355 103.906 23.804L104.058 23.5705C104.371 23.0894 104.763 22.6706 105.237 22.314C105.721 21.9549 106.261 21.6969 106.856 21.5401C107.451 21.3833 108.08 21.3595 108.744 21.4687C109.412 21.5708 110.086 21.8425 110.765 22.2837C111.444 22.725 111.966 23.2302 112.331 23.7992C112.7 24.3612 112.934 24.9458 113.032 25.553C113.131 26.1603 113.115 26.7584 112.983 27.3473C112.857 27.9292 112.637 28.4607 112.325 28.9417L112.173 29.1752C111.893 29.6068 111.516 30.0009 111.043 30.3575C110.57 30.7141 110.032 30.9837 109.431 31.1663C108.834 31.3419 108.193 31.3834 107.508 31.2908C106.836 31.1958 106.149 30.9208 105.449 30.4657ZM106.504 28.842C106.872 29.0811 107.242 29.2311 107.615 29.2923C107.995 29.358 108.361 29.3443 108.713 29.2512C109.072 29.1627 109.402 29.0044 109.701 28.7762C110 28.548 110.26 28.2641 110.48 27.9245C110.715 27.5637 110.872 27.198 110.952 26.8273C111.043 26.4541 111.054 26.0889 110.985 25.7317C110.927 25.372 110.792 25.0378 110.58 24.729C110.368 24.4203 110.078 24.1464 109.71 23.9074C109.342 23.6684 108.974 23.5148 108.606 23.4466C108.238 23.3784 107.874 23.3885 107.514 23.477C107.167 23.563 106.841 23.7237 106.537 23.9589C106.238 24.1871 105.971 24.4816 105.737 24.8424C105.516 25.182 105.362 25.5349 105.275 25.9009C105.189 26.267 105.174 26.6299 105.232 26.9896C105.297 27.3539 105.434 27.694 105.641 28.0098C105.848 28.3256 106.136 28.603 106.504 28.842Z" fill="white"/>
<path d="M113.259 36.7689C112.652 36.1943 112.221 35.5881 111.966 34.9504C111.722 34.3124 111.615 33.6826 111.647 33.0611C111.684 32.4335 111.82 31.848 112.056 31.3046C112.298 30.7669 112.597 30.3114 112.951 29.9379L113.142 29.7358C113.537 29.3194 113.999 28.9788 114.529 28.714C115.071 28.4489 115.649 28.2932 116.262 28.247C116.876 28.2007 117.499 28.2915 118.132 28.5193C118.77 28.741 119.383 29.1304 119.971 29.6876C120.559 30.2448 120.981 30.8363 121.236 31.4621C121.497 32.0818 121.621 32.6991 121.608 33.3142C121.594 33.9292 121.47 34.5144 121.234 35.0698C121.004 35.619 120.692 36.1018 120.297 36.5182L120.105 36.7202C119.751 37.0937 119.309 37.4129 118.779 37.6777C118.249 37.9425 117.672 38.1101 117.047 38.1805C116.428 38.2448 115.791 38.1694 115.134 37.9542C114.49 37.7386 113.865 37.3435 113.259 36.7689ZM114.591 35.3637C114.909 35.6655 115.246 35.8803 115.601 36.0081C115.963 36.1416 116.326 36.1946 116.689 36.167C117.058 36.1452 117.411 36.0492 117.747 35.8791C118.082 35.709 118.389 35.477 118.668 35.1831C118.964 34.8708 119.185 34.5397 119.331 34.1896C119.488 33.8393 119.565 33.4821 119.562 33.1182C119.57 32.7539 119.498 32.4008 119.345 32.0587C119.193 31.7166 118.958 31.3947 118.639 31.0928C118.321 30.791 117.987 30.5732 117.637 30.4393C117.287 30.3054 116.928 30.2494 116.558 30.2712C116.201 30.2927 115.851 30.3915 115.51 30.5677C115.174 30.7378 114.858 30.979 114.562 31.2913C114.284 31.5852 114.068 31.9043 113.917 32.2485C113.765 32.5927 113.685 32.947 113.676 33.3113C113.674 33.6813 113.747 34.0405 113.893 34.3886C114.04 34.7368 114.272 35.0618 114.591 35.3637Z" fill="white"/>
<path d="M117.287 40.6604L124.621 35.043L125.883 36.6907L118.549 42.3081L117.287 40.6604ZM118.395 42.1072L119.842 40.9991L122.196 44.0735L120.749 45.1816L118.395 42.1072Z" fill="white"/>
<path d="M124.374 51.5897L126.133 50.7795L126.853 52.3426C127.033 52.7334 127.253 53.0594 127.513 53.3207C127.78 53.5783 128.072 53.7689 128.389 53.8922C128.714 54.0121 129.056 54.0588 129.415 54.0325C129.782 54.0027 130.154 53.9013 130.529 53.7283C130.92 53.5483 131.242 53.3301 131.496 53.074C131.749 52.8178 131.932 52.5292 132.044 52.2081C132.156 51.8871 132.194 51.5447 132.156 51.1811C132.126 50.814 132.022 50.435 131.841 50.0442L131.121 48.481L132.88 47.6708L133.552 49.1305C133.902 49.8891 134.096 50.6031 134.135 51.2726C134.174 51.942 134.091 52.5565 133.884 53.1162C133.677 53.6759 133.367 54.1624 132.954 54.5758C132.552 54.9933 132.079 55.3274 131.535 55.5781L131.282 55.6946C130.776 55.9276 130.23 56.0631 129.644 56.101C129.069 56.1431 128.493 56.0643 127.918 55.8648C127.351 55.6617 126.818 55.3314 126.319 54.8738C125.82 54.4162 125.396 53.8081 125.047 53.0495L124.374 51.5897ZM123.612 49.9346L132.117 46.0156L132.986 47.9006L124.48 51.8196L123.612 49.9346Z" fill="white"/>
<path d="M128.345 63.0143C128.136 62.2056 128.093 61.4631 128.214 60.7869C128.346 60.1167 128.591 59.5266 128.947 59.0164C129.311 58.5041 129.738 58.0804 130.226 57.7452C130.717 57.4181 131.212 57.1903 131.71 57.0617L131.98 56.9922C132.535 56.8488 133.108 56.8056 133.697 56.8626C134.297 56.9256 134.87 57.1003 135.414 57.3867C135.959 57.6732 136.438 58.0809 136.854 58.6098C137.277 59.1366 137.59 59.7921 137.793 60.5764C137.995 61.3606 138.038 62.0857 137.923 62.7517C137.815 63.4155 137.592 64.0044 137.254 64.5186C136.917 65.0327 136.5 65.4625 136.006 65.808C135.519 66.1514 134.998 66.3947 134.443 66.5381L134.173 66.6076C133.675 66.7362 133.131 66.772 132.541 66.7151C131.951 66.6582 131.373 66.4937 130.806 66.2217C130.247 65.9477 129.747 65.5453 129.305 65.0145C128.874 64.4898 128.553 63.8231 128.345 63.0143ZM130.22 62.5305C130.329 62.9553 130.501 63.3162 130.734 63.6132C130.97 63.9184 131.249 64.1557 131.571 64.3252C131.896 64.5028 132.246 64.6086 132.621 64.6426C132.995 64.6766 133.379 64.643 133.771 64.5418C134.187 64.4343 134.55 64.2709 134.86 64.0517C135.179 63.8385 135.434 63.5767 135.624 63.2663C135.825 62.9619 135.951 62.6243 136.003 62.2536C136.056 61.8828 136.027 61.485 135.918 61.0602C135.808 60.6354 135.641 60.2734 135.415 59.9743C135.19 59.6752 134.915 59.4368 134.59 59.2592C134.276 59.0877 133.927 58.9859 133.544 58.954C133.17 58.92 132.774 58.9568 132.357 59.0643C131.965 59.1655 131.613 59.3216 131.302 59.5327C130.99 59.7438 130.735 60.0015 130.534 60.3059C130.336 60.6184 130.207 60.9611 130.146 61.334C130.085 61.7069 130.11 62.1057 130.22 62.5305Z" fill="white"/>
<path d="M129.954 70.0572L139.086 67.3848L139.178 69.5216L131.415 71.6412L131.687 71.1861L131.736 72.3367L131.424 71.8561L138.981 72.9121L139.055 74.6317L130.089 73.2055L129.954 70.0572ZM130.19 75.5573L138.995 73.2282L139.073 75.0363L131.643 76.9515L131.914 76.4586L131.961 77.5586L131.652 77.1538L139.558 78.3722L139.645 80.3952L130.328 78.7688L130.19 75.5573Z" fill="white"/>
<path d="M130.027 81.571L139.141 83.0869L138.582 86.4451L130.558 88.6384L130.487 89.0629L130.304 88.7758L137.982 90.0529L137.662 91.9754L128.549 90.4595L129.112 87.0764L137.136 84.8831L137.206 84.4586L137.389 84.7457L129.712 83.4686L130.027 81.571Z" fill="white"/>
<path d="M129.306 101.171L131.35 99.9484L132.679 100.512L133.221 102.831L131.689 103.006L131.71 101.338L131.43 101.219L130.256 102.399L129.306 101.171ZM134.918 101.585L132.838 100.428L132.663 98.9928L134.398 97.3643L135.303 98.6005L133.858 99.417L133.894 99.7209L135.497 100.153L134.918 101.585ZM132.429 96.5293L132.465 98.9088L131.311 99.7807L129.034 99.0898L129.648 97.6733L131.074 98.5253L131.318 98.3399L130.894 96.7446L132.429 96.5293Z" fill="white"/>
<path d="M119.527 108.281C120.015 107.603 120.532 107.107 121.079 106.794C121.634 106.486 122.182 106.345 122.724 106.371C123.273 106.402 123.791 106.592 124.277 106.942L123.103 108.576C122.911 108.438 122.696 108.361 122.458 108.346C122.215 108.337 121.963 108.405 121.702 108.551C121.449 108.701 121.197 108.951 120.945 109.3C120.719 109.615 120.57 109.909 120.5 110.18C120.43 110.452 120.427 110.694 120.492 110.907C120.564 111.125 120.696 111.303 120.888 111.441C121.127 111.613 121.39 111.646 121.674 111.539C121.966 111.437 122.297 111.171 122.668 110.741L123.126 110.213C123.724 109.511 124.386 109.082 125.11 108.927C125.834 108.773 126.529 108.934 127.193 109.412C127.673 109.756 128.006 110.167 128.193 110.645C128.375 111.129 128.411 111.643 128.3 112.187C128.196 112.736 127.943 113.291 127.539 113.853C127.115 114.442 126.651 114.872 126.145 115.142C125.641 115.424 125.123 115.545 124.59 115.505C124.065 115.47 123.555 115.275 123.062 114.921L124.244 113.276C124.429 113.409 124.629 113.486 124.843 113.505C125.065 113.529 125.288 113.487 125.512 113.377C125.731 113.275 125.934 113.094 126.121 112.833C126.298 112.587 126.407 112.348 126.448 112.118C126.484 111.894 126.46 111.69 126.375 111.504C126.297 111.323 126.176 111.174 126.011 111.056C125.799 110.903 125.56 110.846 125.294 110.883C125.028 110.921 124.758 111.101 124.485 111.423L124.02 111.962C123.578 112.476 123.111 112.872 122.618 113.152C122.133 113.437 121.642 113.578 121.146 113.575C120.652 113.583 120.172 113.42 119.706 113.085C119.226 112.74 118.896 112.311 118.715 111.796C118.536 111.293 118.512 110.741 118.644 110.139C118.775 109.538 119.069 108.918 119.527 108.281Z" fill="white"/>
<path d="M113.337 115.45C113.929 114.86 114.538 114.455 115.165 114.235C115.797 114.021 116.415 113.948 117.017 114.014C117.626 114.087 118.189 114.252 118.708 114.509C119.226 114.778 119.67 115.098 120.04 115.469L120.236 115.666C120.641 116.072 120.975 116.538 121.236 117.063C121.504 117.595 121.664 118.156 121.717 118.746C121.764 119.343 121.677 119.942 121.455 120.545C121.233 121.159 120.839 121.749 120.271 122.315C119.68 122.904 119.047 123.315 118.372 123.547C117.698 123.778 117.029 123.831 116.367 123.705C115.705 123.591 115.088 123.294 114.516 122.816L115.995 121.342C116.299 121.563 116.618 121.692 116.952 121.728C117.286 121.764 117.623 121.714 117.963 121.577C118.298 121.447 118.611 121.235 118.904 120.944C119.197 120.652 119.406 120.342 119.532 120.014C119.658 119.686 119.706 119.352 119.676 119.012C119.641 118.678 119.537 118.34 119.365 118C119.192 117.672 118.951 117.352 118.641 117.041C118.338 116.737 118.019 116.495 117.685 116.315C117.351 116.148 117.011 116.046 116.665 116.009C116.319 115.985 115.979 116.038 115.645 116.169C115.317 116.306 115.003 116.523 114.704 116.821C114.25 117.274 113.978 117.765 113.888 118.296C113.791 118.833 113.904 119.328 114.226 119.782L112.756 121.247C112.333 120.716 112.056 120.116 111.926 119.448C111.796 118.791 111.842 118.114 112.064 117.416C112.285 116.731 112.71 116.075 113.337 115.45Z" fill="white"/>
<path d="M109.518 119.248L114.93 126.829L113.24 128.035L107.829 120.454L109.518 119.248ZM104.955 122.506L109.468 124.166L107.614 125.49L102.998 123.903L104.955 122.506ZM110.002 122.541L110.951 123.87L109.097 125.193C108.85 125.37 108.671 125.57 108.561 125.793C108.449 126.028 108.409 126.27 108.44 126.517C108.47 126.776 108.57 127.025 108.742 127.266C108.913 127.506 109.114 127.679 109.345 127.784C109.573 127.901 109.815 127.941 110.069 127.905C110.321 127.88 110.57 127.78 110.818 127.603L112.672 126.28L113.694 127.711L111.974 128.939C111.349 129.385 110.738 129.677 110.14 129.813C109.548 129.956 108.996 129.93 108.484 129.736C107.972 129.541 107.515 129.163 107.113 128.6L106.995 128.435C106.598 127.879 106.394 127.325 106.384 126.772C106.371 126.232 106.529 125.705 106.856 125.191C107.182 124.689 107.657 124.215 108.282 123.769L110.002 122.541Z" fill="white"/>
<path d="M98.3933 125.809C99.1449 125.445 99.8642 125.256 100.551 125.242C101.234 125.239 101.861 125.362 102.431 125.61C103.006 125.867 103.505 126.201 103.93 126.614C104.348 127.03 104.669 127.47 104.893 127.933L105.014 128.184C105.264 128.7 105.42 129.253 105.48 129.842C105.537 130.443 105.479 131.039 105.305 131.629C105.132 132.219 104.827 132.77 104.39 133.282C103.958 133.801 103.377 134.237 102.648 134.59C101.919 134.943 101.217 135.129 100.541 135.147C99.869 135.172 99.2477 135.07 98.677 134.84C98.1063 134.611 97.6028 134.287 97.1665 133.871C96.7339 133.462 96.3925 132.999 96.1423 132.483L96.0209 132.232C95.7965 131.769 95.654 131.243 95.5934 130.653C95.5328 130.064 95.5799 129.464 95.7347 128.855C95.8931 128.253 96.1889 127.683 96.622 127.145C97.0512 126.619 97.6416 126.173 98.3933 125.809ZM99.2376 127.552C98.8427 127.743 98.5228 127.982 98.2777 128.27C98.025 128.561 97.8475 128.881 97.745 129.231C97.6349 129.584 97.6002 129.948 97.6409 130.322C97.6815 130.696 97.7901 131.065 97.9667 131.43C98.1543 131.817 98.3861 132.141 98.6621 132.401C98.9342 132.672 99.2411 132.87 99.5829 132.995C99.9208 133.132 100.277 133.189 100.651 133.167C101.024 133.145 101.409 133.039 101.804 132.847C102.198 132.656 102.52 132.421 102.769 132.141C103.018 131.861 103.197 131.544 103.307 131.191C103.413 130.849 103.444 130.487 103.4 130.105C103.359 129.731 103.245 129.35 103.058 128.963C102.881 128.599 102.658 128.285 102.39 128.021C102.122 127.757 101.818 127.557 101.481 127.421C101.135 127.288 100.774 127.229 100.396 127.243C100.019 127.258 99.6324 127.36 99.2376 127.552Z" fill="white"/>
<path d="M88.9634 129.225C89.7691 129.005 90.5109 128.951 91.1888 129.063C91.8608 129.185 92.4543 129.421 92.9696 129.77C93.487 130.127 93.9168 130.547 94.259 131.031C94.593 131.517 94.8279 132.008 94.9636 132.505L95.037 132.773C95.1883 133.327 95.2397 133.899 95.1912 134.489C95.1368 135.09 94.9703 135.665 94.6917 136.213C94.4131 136.762 94.0123 137.247 93.4894 137.67C92.9687 138.101 92.3177 138.423 91.5365 138.637C90.7552 138.851 90.0308 138.904 89.3633 138.798C88.698 138.7 88.1059 138.486 87.587 138.156C87.068 137.825 86.6323 137.415 86.2798 136.925C85.9295 136.444 85.6787 135.926 85.5274 135.373L85.454 135.104C85.3183 134.608 85.2747 134.065 85.3231 133.474C85.3716 132.883 85.5278 132.303 85.7916 131.732C86.0576 131.17 86.4528 130.664 86.9772 130.214C87.4957 129.775 88.1577 129.445 88.9634 129.225ZM89.474 131.093C89.0508 131.209 88.6924 131.385 88.3988 131.623C88.097 131.863 87.8638 132.145 87.6989 132.47C87.526 132.797 87.4252 133.149 87.3966 133.524C87.3679 133.899 87.407 134.282 87.5138 134.673C87.6273 135.088 87.7958 135.448 88.0195 135.754C88.2372 136.071 88.5027 136.322 88.8158 136.508C89.123 136.704 89.4623 136.825 89.8338 136.872C90.2053 136.919 90.6027 136.885 91.0259 136.769C91.449 136.654 91.8086 136.481 92.1044 136.251C92.4003 136.022 92.6347 135.743 92.8076 135.416C92.9747 135.1 93.0714 134.749 93.0978 134.366C93.1264 133.991 93.084 133.596 92.9705 133.181C92.8637 132.79 92.7026 132.441 92.4871 132.132C92.2716 131.824 92.0102 131.572 91.703 131.376C91.3876 131.182 91.0431 131.057 90.6694 131.002C90.2957 130.947 89.8972 130.977 89.474 131.093Z" fill="white"/>
<path d="M83.5589 130.646L84.5469 139.831L82.4833 140.053L81.4953 130.868L83.5589 130.646ZM81.747 130.84L81.9419 132.652L78.0915 133.067L77.8966 131.255L81.747 130.84Z" fill="white"/>
<path d="M70.436 131.019L70.2154 132.942L68.5055 132.746C68.078 132.697 67.6852 132.716 67.3272 132.802C66.9681 132.897 66.6536 133.048 66.3836 133.254C66.1127 133.47 65.8951 133.738 65.7309 134.059C65.5658 134.388 65.4597 134.758 65.4126 135.169C65.3636 135.596 65.3827 135.985 65.47 136.334C65.5573 136.684 65.709 136.99 65.9252 137.253C66.1413 137.515 66.4145 137.725 66.7447 137.882C67.074 138.047 67.4523 138.154 67.8798 138.203L69.5898 138.399L69.3692 140.323L67.7724 140.14C66.9426 140.044 66.2315 139.84 65.6391 139.526C65.0467 139.211 64.565 138.821 64.1939 138.354C63.8229 137.886 63.568 137.369 63.4293 136.801C63.2813 136.24 63.2414 135.663 63.3096 135.068L63.3413 134.791C63.4048 134.238 63.5725 133.701 63.8445 133.18C64.1072 132.667 64.4731 132.216 64.9421 131.828C65.4103 131.449 65.9694 131.165 66.6194 130.976C67.2695 130.787 68.0094 130.74 68.8392 130.836L70.436 131.019ZM72.2465 131.226L71.1797 140.53L69.1177 140.294L70.1846 130.99L72.2465 131.226Z" fill="white"/>
<path d="M58.6151 128.486C59.4148 128.727 60.0721 129.075 60.5871 129.53C61.0915 129.99 61.4694 130.505 61.7207 131.075C61.9696 131.652 62.1106 132.236 62.1437 132.828C62.1688 133.417 62.107 133.958 61.9585 134.451L61.8781 134.717C61.7125 135.267 61.4523 135.779 61.0977 136.253C60.7326 136.734 60.2864 137.132 59.759 137.449C59.2317 137.766 58.6342 137.965 57.9666 138.045C57.2966 138.134 56.5738 138.062 55.7984 137.828C55.0229 137.594 54.3805 137.255 53.8712 136.811C53.3595 136.374 52.9715 135.878 52.7072 135.323C52.4429 134.767 52.2914 134.188 52.2526 133.586C52.2114 132.992 52.2736 132.421 52.4392 131.871L52.5196 131.605C52.6682 131.112 52.9198 130.628 53.2744 130.154C53.629 129.679 54.0696 129.27 54.5961 128.926C55.1203 128.591 55.7238 128.372 56.4068 128.27C57.0793 128.173 57.8154 128.245 58.6151 128.486ZM58.0561 130.34C57.6361 130.213 57.2386 130.173 56.8635 130.218C56.4804 130.261 56.1328 130.377 55.8206 130.565C55.5003 130.75 55.2284 130.994 55.005 131.297C54.7815 131.6 54.6113 131.945 54.4944 132.332C54.3702 132.744 54.3216 133.14 54.3485 133.518C54.365 133.902 54.4566 134.255 54.6234 134.579C54.7798 134.908 55.0028 135.191 55.2926 135.428C55.5824 135.665 55.9373 135.847 56.3573 135.974C56.7774 136.101 57.1737 136.145 57.5463 136.108C57.9189 136.07 58.2653 135.959 58.5856 135.773C58.8953 135.594 59.1632 135.348 59.389 135.038C59.6125 134.735 59.7863 134.378 59.9106 133.966C60.0275 133.578 60.0765 133.196 60.0576 132.82C60.0387 132.444 59.9511 132.092 59.7948 131.763C59.6304 131.431 59.4046 131.143 59.1172 130.898C58.8299 130.652 58.4762 130.466 58.0561 130.34Z" fill="white"/>
<path d="M51.7599 126.21L49.2969 135.4L47.4236 134.368L49.6471 126.635L49.8946 127.104L48.886 126.548L49.4587 126.531L44.629 132.438L43.1215 131.608L48.9999 124.689L51.7599 126.21ZM46.9382 123.553L44.3519 132.286L42.7668 131.412L44.9917 124.07L45.2725 124.557L44.3081 124.026L44.8144 123.972L39.6646 130.093L37.8911 129.116L44.1228 122.002L46.9382 123.553Z" fill="white"/>
<path d="M41.9534 120.326L35.9219 127.324L33.3432 125.102L35.6397 117.107L35.3138 116.826L35.6542 116.818L30.5729 122.714L29.0966 121.441L35.1281 114.444L37.726 116.683L35.4295 124.678L35.7554 124.959L35.415 124.966L40.4963 119.071L41.9534 120.326Z" fill="white"/>
<path d="M25.5629 109.535L25.5508 111.917L24.3814 112.762L22.1162 112.025L22.7589 110.624L24.176 111.505L24.4222 111.327L24.0206 109.713L25.5629 109.535ZM22.3041 114.122L24.3706 112.942L25.6891 113.535L26.1843 115.862L24.6579 115.997L24.7078 114.337L24.429 114.211L23.2289 115.359L22.3041 114.122ZM27.9179 114.61L25.8635 113.409L25.7144 111.971L27.4844 110.379L28.3784 111.638L26.9115 112.417L26.944 112.722L28.528 113.185L27.9179 114.61Z" fill="white"/>
<path d="M24.536 97.4917C24.8639 98.2598 25.0203 98.9591 25.0051 99.5894C24.9821 100.223 24.819 100.765 24.516 101.216C24.2052 101.669 23.7743 102.014 23.2234 102.249L22.4333 100.399C22.6505 100.306 22.8274 100.161 22.964 99.9655C23.0972 99.7619 23.169 99.5111 23.1793 99.2131C23.1819 98.9184 23.0988 98.5732 22.9298 98.1775C22.7774 97.8205 22.6033 97.5417 22.4075 97.3409C22.2117 97.1401 22.0058 97.0124 21.7898 96.9579C21.5661 96.9066 21.3456 96.9274 21.1284 97.0201C20.8568 97.1361 20.6931 97.3436 20.6373 97.6426C20.5738 97.945 20.6297 98.366 20.8051 98.9058L21.0202 99.5708C21.3115 100.446 21.336 101.234 21.0935 101.934C20.8511 102.634 20.3535 103.144 19.6009 103.466C19.0577 103.698 18.5336 103.77 18.0286 103.683C17.5202 103.588 17.0619 103.353 16.6536 102.976C16.2376 102.604 15.8937 102.099 15.622 101.463C15.3371 100.796 15.21 100.176 15.2407 99.6029C15.2603 99.0257 15.4249 98.5197 15.7346 98.0847C16.0365 97.6531 16.4668 97.318 17.0255 97.0794L17.8206 98.9416C17.6111 99.0311 17.4425 99.1627 17.3149 99.3365C17.1795 99.5135 17.1006 99.7261 17.0781 99.9742C17.0523 100.215 17.1023 100.482 17.2282 100.777C17.3475 101.056 17.4951 101.273 17.671 101.427C17.8436 101.574 18.0313 101.659 18.234 101.682C18.4289 101.709 18.6195 101.683 18.8057 101.603C19.0463 101.501 19.2193 101.326 19.3249 101.079C19.4305 100.832 19.416 100.508 19.2813 100.107L19.0612 99.4302C18.8505 98.7863 18.7527 98.1813 18.7679 97.6152C18.7753 97.0524 18.9089 96.5596 19.1687 96.1368C19.4174 95.7095 19.8056 95.3832 20.3332 95.1579C20.8764 94.926 21.4149 94.8658 21.9487 94.9773C22.4714 95.0844 22.9563 95.3498 23.4033 95.7736C23.8503 96.1974 24.2278 96.7701 24.536 97.4917Z" fill="white"/>
<path d="M21.6199 88.491C21.8168 89.3027 21.8466 90.0334 21.7091 90.6832C21.5634 91.3349 21.3057 91.901 20.9361 92.3814C20.5583 92.8638 20.1248 93.2598 19.6356 93.5695C19.1363 93.873 18.6324 94.0864 18.1241 94.2098L17.8535 94.2754C17.296 94.4107 16.7248 94.4538 16.1399 94.4048C15.5468 94.3577 14.9841 94.2034 14.4518 93.9419C13.9175 93.6722 13.4506 93.2863 13.0509 92.7842C12.6411 92.276 12.3417 91.6324 12.1526 90.8535C11.9557 90.0418 11.9333 89.2875 12.0854 88.5908C12.2376 87.8941 12.5394 87.2956 12.991 86.7953C13.4325 86.2888 14.006 85.9152 14.7115 85.6746L15.204 87.7038C14.8572 87.8487 14.5815 88.0545 14.3771 88.3212C14.1727 88.5878 14.0406 88.9021 13.9808 89.2638C13.919 89.6174 13.9368 89.9951 14.0343 90.3968C14.1318 90.7986 14.288 91.1383 14.503 91.4161C14.718 91.6938 14.9785 91.9084 15.2844 92.0599C15.5883 92.2032 15.9304 92.2895 16.3108 92.3187C16.6811 92.3417 17.0794 92.3015 17.5057 92.1981C17.9238 92.0966 18.2963 91.9498 18.623 91.7576C18.9395 91.5593 19.203 91.3217 19.4137 91.0449C19.6141 90.7618 19.7452 90.4435 19.807 90.0899C19.8606 89.7383 19.8377 89.3575 19.7382 88.9476C19.587 88.3245 19.308 87.8365 18.9011 87.4838C18.4923 87.1229 18.0105 86.962 17.4557 87.0011L16.9662 84.9842C17.6401 84.8988 18.2964 84.9739 18.9353 85.2096C19.5639 85.439 20.1189 85.8296 20.6 86.3813C21.071 86.9269 21.4109 87.6301 21.6199 88.491Z" fill="white"/>
<path d="M20.3634 83.2793L11.0742 83.9639L10.9217 81.894L20.2109 81.2094L20.3634 83.2793ZM19.9514 77.6881L16.1874 80.6811L16.0199 78.4093L19.7746 75.2901L19.9514 77.6881ZM17.2984 81.9824L15.6703 82.1024L15.5029 79.8306C15.4806 79.5277 15.4024 79.2712 15.2685 79.0611C15.1256 78.8432 14.9404 78.6834 14.7129 78.5818C14.4764 78.4723 14.2109 78.4284 13.9165 78.4501C13.622 78.4718 13.37 78.5538 13.1605 78.6962C12.942 78.8307 12.7822 79.0159 12.6812 79.2518C12.5711 79.4798 12.5272 79.7453 12.5495 80.0482L12.717 82.32L10.9626 82.4493L10.8073 80.3416C10.7509 79.5759 10.8197 78.9025 11.0137 78.3214C11.1993 77.7409 11.5082 77.2825 11.9402 76.9461C12.3723 76.6097 12.9333 76.4161 13.6232 76.3652L13.8252 76.3503C14.5067 76.3001 15.0861 76.4139 15.5634 76.6918C16.0317 76.9618 16.4002 77.3703 16.6689 77.9173C16.9286 78.4565 17.0867 79.109 17.1431 79.8747L17.2984 81.9824Z" fill="white"/>
<path d="M20.5357 70.2561C20.4565 71.0875 20.2445 71.8004 19.8997 72.3948C19.5473 72.9799 19.1168 73.4516 18.608 73.8099C18.0909 74.1675 17.5456 74.4206 16.972 74.5694C16.3993 74.7098 15.8568 74.7555 15.3444 74.7067L15.0673 74.6803C14.4961 74.6259 13.943 74.4715 13.4079 74.2171C12.8652 73.9536 12.3866 73.5944 11.9723 73.1396C11.558 72.6849 11.2456 72.1381 11.0353 71.4994C10.8165 70.8599 10.7455 70.137 10.8224 69.3307C10.8992 68.5244 11.1054 67.8279 11.4409 67.2412C11.7681 66.6537 12.1781 66.1757 12.6708 65.8074C13.1636 65.439 13.7013 65.1767 14.284 65.0203C14.8584 64.8632 15.4311 64.8118 16.0022 64.8662L16.2794 64.8926C16.7917 64.9414 17.3155 65.093 17.8506 65.3474C18.3857 65.6018 18.8734 65.9534 19.3138 66.4021C19.7457 66.8501 20.079 67.3988 20.3138 68.0483C20.5409 68.6887 20.6149 69.4246 20.5357 70.2561ZM18.6081 70.0724C18.6498 69.6357 18.6114 69.2379 18.493 68.8792C18.3754 68.512 18.1939 68.1938 17.9483 67.9247C17.7035 67.6471 17.4108 67.4285 17.07 67.2689C16.7293 67.1093 16.3573 67.0103 15.9542 66.9719C15.5258 66.9311 15.1289 66.9611 14.7633 67.0619C14.3902 67.1535 14.0614 67.3128 13.777 67.54C13.4851 67.758 13.2513 68.0323 13.0757 68.3631C12.9001 68.6938 12.7915 69.0776 12.7499 69.5143C12.7083 69.9511 12.7425 70.3484 12.8525 70.7064C12.9624 71.0643 13.1398 71.3821 13.3846 71.6597C13.6217 71.928 13.9149 72.1424 14.264 72.3028C14.6048 72.4624 14.9893 72.5626 15.4177 72.6034C15.8208 72.6418 16.2048 72.6148 16.5695 72.5224C16.9343 72.4301 17.2627 72.2749 17.5546 72.0569C17.8474 71.8306 18.0858 71.5524 18.2698 71.2225C18.4537 70.8925 18.5665 70.5092 18.6081 70.0724Z" fill="white"/>
<path d="M22.5083 60.4313C22.2786 61.2344 21.9401 61.8966 21.4926 62.418C21.0393 62.929 20.5299 63.3142 19.9643 63.5736C19.3905 63.8307 18.8082 63.9801 18.2171 64.0216C17.6284 64.0551 17.0866 64.001 16.5918 63.8595L16.3241 63.783C15.7725 63.6252 15.2569 63.3724 14.7772 63.0246C14.2917 62.6664 13.8868 62.2259 13.5624 61.7031C13.2381 61.1804 13.0308 60.5858 12.9406 59.9194C12.8422 59.2507 12.9044 58.527 13.1271 57.7483C13.3499 56.9695 13.6797 56.3224 14.1168 55.8068C14.5457 55.2889 15.036 54.8938 15.5878 54.6216C16.1395 54.3494 16.7161 54.1897 17.3176 54.1423C17.9109 54.0926 18.4834 54.1467 19.035 54.3044L19.3027 54.381C19.7975 54.5225 20.2848 54.7672 20.7644 55.115C21.2441 55.4628 21.6595 55.8975 22.0105 56.4191C22.3534 56.9384 22.581 57.5387 22.6932 58.2202C22.7996 58.8912 22.738 59.6283 22.5083 60.4313ZM20.6467 59.8989C20.7673 59.4771 20.8022 59.079 20.7513 58.7047C20.7027 58.3222 20.5823 57.9763 20.39 57.6668C20.2 57.3492 19.9521 57.0808 19.6462 56.8617C19.3403 56.6426 18.9927 56.4774 18.6033 56.366C18.1896 56.2477 17.7939 56.2047 17.4161 56.2371C17.0325 56.259 16.6801 56.3556 16.3591 56.5271C16.0322 56.6881 15.7523 56.9151 15.5193 57.2083C15.2863 57.5014 15.1094 57.8589 14.9888 58.2807C14.8681 58.7025 14.8292 59.0994 14.872 59.4714C14.9148 59.8435 15.0312 60.1883 15.2211 60.5059C15.4053 60.813 15.6544 61.0773 15.9684 61.2988C16.2743 61.5179 16.6341 61.6866 17.0478 61.8049C17.4371 61.9163 17.8196 61.9598 18.1951 61.9356C18.5706 61.9114 18.9217 61.8187 19.2486 61.6577C19.5778 61.4886 19.8629 61.2587 20.104 60.9678C20.3452 60.677 20.5261 60.3207 20.6467 59.8989Z" fill="white"/>
<path d="M24.1012 55.0682L15.7383 51.1426L16.6202 49.2638L24.9831 53.1894L24.1012 55.0682ZM24.8756 53.4185L23.2259 52.6442L24.8714 49.1386L26.5211 49.913L24.8756 53.4185Z" fill="white"/>
<path d="M30.5442 43.7518L29.0153 42.5637L30.0714 41.2047C30.3354 40.8649 30.5236 40.5197 30.6359 40.1689C30.7416 39.8129 30.7762 39.4658 30.7398 39.1277C30.6967 38.7844 30.5808 38.4592 30.392 38.1522C30.1965 37.84 29.9355 37.5571 29.6091 37.3034C29.2694 37.0394 28.9274 36.8538 28.5833 36.7466C28.2392 36.6395 27.8988 36.61 27.5621 36.6583C27.2254 36.7065 26.9043 36.8309 26.5988 37.0316C26.2866 37.2271 25.9985 37.4947 25.7345 37.8345L24.6784 39.1935L23.1495 38.0054L24.1357 36.7363C24.6482 36.0768 25.1926 35.5756 25.7689 35.2327C26.3452 34.8899 26.9293 34.6813 27.5213 34.6071C28.1132 34.5328 28.6878 34.584 29.2451 34.7606C29.8009 34.9254 30.3153 35.1916 30.7883 35.5592L31.0081 35.73C31.4478 36.0717 31.8194 36.4941 32.123 36.9971C32.4251 37.4883 32.62 38.0351 32.7075 38.6374C32.7885 39.2345 32.7406 39.8598 32.564 40.5133C32.3875 41.1667 32.0429 41.8232 31.5304 42.4827L30.5442 43.7518ZM29.4259 45.1908L22.0312 39.4443L23.3048 37.8055L30.6995 43.552L29.4259 45.1908Z" fill="white"/>
<path d="M38.8518 34.958C38.2311 35.517 37.5929 35.8988 36.937 36.1034C36.2817 36.2961 35.6455 36.3525 35.0284 36.2724C34.4057 36.1861 33.8327 36.0037 33.3096 35.7255C32.7928 35.4416 32.3622 35.1084 32.0178 34.7259L31.8315 34.5191C31.4475 34.0927 31.1445 33.6049 30.9223 33.0557C30.7008 32.4945 30.5912 31.9063 30.5935 31.2911C30.5958 30.6759 30.7354 30.0619 31.0124 29.4491C31.2838 28.8301 31.7204 28.2495 32.3222 27.7075C32.9241 27.1655 33.547 26.7919 34.191 26.5866C34.8293 26.3751 35.4545 26.3002 36.0666 26.3621C36.6787 26.424 37.2522 26.5944 37.7873 26.8733C38.3166 27.1459 38.7733 27.4954 39.1572 27.9217L39.3435 28.1286C39.6879 28.511 39.9712 28.9769 40.1934 29.5262C40.4155 30.0755 40.5371 30.6643 40.558 31.2926C40.5732 31.9147 40.4477 32.5444 40.1814 33.1816C39.9157 33.8069 39.4725 34.3991 38.8518 34.958ZM37.5561 33.5192C37.8821 33.2256 38.1228 32.9067 38.2782 32.5623C38.4399 32.2123 38.5213 31.8552 38.5224 31.4908C38.5298 31.1208 38.462 30.7618 38.3189 30.4138C38.1758 30.0658 37.9688 29.7413 37.6978 29.4404C37.4098 29.1207 37.0971 28.8743 36.7597 28.7013C36.4229 28.5165 36.0729 28.4115 35.7098 28.3866C35.3473 28.3497 34.9896 28.3937 34.6365 28.5186C34.2835 28.6435 33.944 28.8527 33.618 29.1463C33.292 29.4399 33.0484 29.7558 32.8874 30.0938C32.7263 30.4319 32.6421 30.7859 32.6347 31.1559C32.6279 31.514 32.6989 31.8702 32.8476 32.2244C32.9907 32.5724 33.2062 32.9063 33.4942 33.2261C33.7652 33.527 34.0663 33.7668 34.3974 33.9454C34.7286 34.124 35.0754 34.2318 35.4379 34.2686C35.8067 34.2999 36.1704 34.2562 36.529 34.1375C36.8877 34.0189 37.2301 33.8128 37.5561 33.5192Z" fill="white"/>
<path d="M44.3459 30.2701L37.75 23.4121L39.6016 22.3417L45.0735 28.2415L44.5443 28.2112L45.5414 27.6348L45.2598 28.1338L42.698 20.9463L44.188 20.0849L47.074 28.6929L44.3459 30.2701ZM49.1119 27.5148L42.9719 20.788L44.5386 19.8822L49.6751 25.5812L49.1131 25.5699L50.0663 25.0189L49.8504 25.4799L47.271 17.9079L49.024 16.8945L51.8948 25.906L49.1119 27.5148Z" fill="white"/>
<path d="M54.4513 24.9131L51.5898 16.1289L54.8267 15.0745L60.4759 21.1803L60.8851 21.047L60.7149 21.342L58.3043 13.9417L60.1574 13.338L63.0188 22.1222L59.7578 23.1844L54.1087 17.0786L53.6995 17.2119L53.8696 16.9169L56.2803 24.3173L54.4513 24.9131Z" fill="white"/>
<path d="M72.0504 16.4743L70.0004 15.2614L69.8615 13.8254L71.6408 12.2418L72.5258 13.5039L71.05 14.2825L71.0793 14.5848L72.6758 15.0533L72.0504 16.4743ZM69.7359 11.3455L69.7119 13.7254L68.5344 14.5641L66.2751 13.8164L66.9293 12.4308L68.3369 13.3117L68.5868 13.135L68.2016 11.5194L69.7359 11.3455ZM66.4811 15.9452L68.5551 14.7782L69.8716 15.3755L70.3515 17.7067L68.8135 17.8428L68.8818 16.1833L68.6026 16.0578L67.4027 17.1911L66.4811 15.9452Z" fill="white"/>
</svg>
