<svg width="181" height="181" viewBox="0 0 181 181" fill="none" xmlns="http://www.w3.org/2000/svg">
<path d="M180.129 90.6641C180.129 140.37 139.835 180.664 90.1289 180.664C40.4233 180.664 0.128906 140.37 0.128906 90.6641C0.128906 40.9584 40.4233 0.664062 90.1289 0.664062C139.835 0.664062 180.129 40.9584 180.129 90.6641ZM35.1086 90.6641C35.1086 121.051 59.742 145.684 90.1289 145.684C120.516 145.684 145.149 121.051 145.149 90.6641C145.149 60.2772 120.516 35.6438 90.1289 35.6438C59.742 35.6438 35.1086 60.2772 35.1086 90.6641Z" fill="#3D493A"/>
<circle cx="90.1289" cy="90.6641" r="30" fill="#AEA17E"/>
<path d="M81.8041 105.543C83.5183 105.826 85.1923 105.694 86.8398 105.161C89.0773 104.436 91.0735 103.271 92.9612 101.896C94.1618 101.021 95.3378 100.109 96.5732 99.2864C98.6463 97.9059 101.231 97.8874 103.087 99.1854C103.372 99.3849 103.632 99.6327 103.859 99.8965C103.95 100.002 103.996 100.279 103.927 100.357C103.814 100.483 103.575 100.59 103.415 100.562C102.352 100.374 101.276 100.298 100.299 100.791C99.2436 101.325 98.2405 101.971 97.2482 102.62C96.4035 103.172 95.6066 103.798 94.745 104.422C95.1155 104.624 95.4298 104.794 95.7618 104.975C96.299 104.567 96.8381 104.112 97.422 103.724C98.7382 102.85 100.159 102.418 101.73 102.926C102.892 103.301 103.568 104.255 103.471 105.387C103.403 106.191 102.978 106.826 102.349 107.312C101.183 108.213 99.8286 108.603 98.3835 108.758C95.7946 109.035 93.4596 108.334 91.3057 106.943C91.0524 106.779 90.8852 106.796 90.6383 106.922C88.2057 108.169 85.6535 108.936 82.8853 108.816C81.2504 108.745 79.7088 108.386 78.3879 107.356C77.4024 106.588 76.9889 105.458 77.3272 104.395C77.6669 103.327 78.4955 102.785 79.5313 102.59C80.3643 102.434 81.2202 102.388 82.0682 102.325C84.48 102.144 86.3653 100.989 87.9858 99.2594C89.6076 97.5289 89.8581 95.5188 89.3909 93.3104C89.276 92.7672 89.215 92.2095 89.1745 91.6552C89.1596 91.4505 89.242 91.2177 89.3446 91.0337C89.4004 90.9337 89.6078 90.8372 89.7192 90.8622C90.4921 91.0354 91.2232 90.9215 91.8901 90.5271C93.6856 89.4652 95.0524 88.0228 95.6236 85.9696C96.0898 84.2939 95.7422 82.7618 94.5836 81.444C94.2148 81.0246 93.8231 80.6229 93.4176 80.2387C92.2762 79.157 91.0717 78.1313 90.3901 76.5539C89.7198 78.2142 88.4093 79.2315 87.2412 80.3723C86.8321 80.7719 86.4175 81.1745 86.066 81.6232C84.6831 83.3889 84.7056 85.2746 85.6817 87.2037C86.194 88.2163 86.9379 89.0521 87.8353 89.7418C88.1408 89.9766 88.2448 90.1875 88.1102 90.5853C87.8182 91.449 87.9969 92.3292 88.1404 93.2002C88.3771 94.6367 88.5071 96.0912 87.8804 97.4485C86.8394 99.7027 84.9617 100.925 82.583 101.409C81.147 101.7 79.7543 101.528 78.4083 100.896C77.8871 100.651 77.2897 100.57 76.7307 100.402C76.5734 100.355 76.3092 100.273 76.3031 100.191C76.2886 99.9945 76.3416 99.7409 76.4662 99.5947C77.4684 98.4196 79.0748 98.0395 80.5126 98.6255C80.9885 98.8195 81.4381 99.0788 81.9164 99.2656C84.1476 100.137 86.4415 98.655 86.7118 96.2753C86.9349 94.3113 86.1164 92.7284 85.1391 91.1633C84.4694 90.0906 83.7315 89.0504 83.1668 87.9242C81.8355 85.2691 82.3398 82.5139 84.4807 80.4641C85.4151 79.5696 86.4081 78.7356 87.3865 77.8878C88.7435 76.7119 89.4601 75.2102 89.6992 73.4534C89.7265 73.2524 89.753 73.0227 89.8658 72.8697C89.9906 72.7004 90.2146 72.5034 90.3948 72.5039C90.577 72.5045 90.821 72.6951 90.9246 72.8697C91.053 73.0861 91.0869 73.3685 91.1236 73.6278C91.4194 75.7215 92.5657 77.2618 94.1775 78.5602C95.1811 79.3687 96.1804 80.2295 96.9887 81.2237C98.6313 83.2441 98.7743 85.5323 97.6386 87.8383C97.0708 88.9912 96.2904 90.0392 95.6102 91.1371C95.3553 91.5486 95.0451 91.9429 94.8832 92.3897C94.7408 92.7826 94.6324 93.28 94.7483 93.6579C95.1991 95.1274 94.7767 96.4043 94.0355 97.6341C91.7194 101.477 88.2757 103.815 84.0401 105.083C83.675 105.193 83.2945 105.252 82.9199 105.328C82.5487 105.404 82.1761 105.472 81.8041 105.543Z" fill="white"/>
<path d="M93.1681 85.1066C93.1563 86.7111 91.9602 87.911 90.3816 87.9022C88.8275 87.8935 87.6434 86.6516 87.6564 85.044C87.6697 83.3871 88.8572 82.2202 90.5155 82.2345C92.0368 82.2476 93.1801 83.4855 93.1681 85.1066Z" fill="white"/>
<path d="M93.8785 10.8061C94.6184 10.8695 95.3527 10.9295 96.0813 10.9859C96.8158 11.0429 97.4882 11.0945 98.0984 11.1409C98.7091 11.1813 99.2313 11.2111 99.665 11.2304C100.099 11.2496 100.394 11.251 100.55 11.2346L100.014 12.3783C99.8231 12.3083 99.5992 12.2414 99.3423 12.1777C99.1204 12.1229 98.8479 12.0667 98.5249 12.0092C98.2083 11.9463 97.8398 11.8969 97.4195 11.8609C97.2775 11.8487 97.1053 11.8399 96.903 11.8345C96.7072 11.8237 96.517 11.8163 96.3325 11.8124C96.1184 11.806 95.9013 11.7994 95.6812 11.7924L95.2659 16.6405C95.8761 16.6868 96.4281 16.7163 96.922 16.7288C97.4158 16.7413 97.8357 16.7474 98.1816 16.7472C98.5871 16.7462 98.9459 16.7352 99.2577 16.7142L98.8722 17.9781C98.4683 17.8899 98.0553 17.8038 97.6331 17.7199C97.2697 17.647 96.8731 17.5773 96.4435 17.5107C96.0145 17.4381 95.6016 17.3849 95.205 17.3509L94.728 22.9182C95.4265 22.978 96.0713 23.0035 96.6624 22.9945C97.2535 22.9855 97.7714 22.9613 98.216 22.9219C98.7322 22.8826 99.2053 22.8248 99.6352 22.7483L99.2545 24.1647C99.1839 24.1527 99.0779 24.1376 98.9363 24.1195C98.7948 24.1015 98.6354 24.0818 98.4584 24.0607C98.2872 24.0401 98.1042 24.0184 97.9094 23.9958C97.7199 23.9795 97.5396 23.9611 97.3685 23.9405C97.1968 23.9258 97.0432 23.9096 96.9075 23.8921C96.7773 23.8809 96.6826 23.8728 96.6234 23.8677L92.7875 23.5391L92.7906 23.5035C92.8367 23.3823 92.8825 23.2312 92.9278 23.0502C92.979 22.8697 93.0282 22.6444 93.0752 22.3741C93.1222 22.1038 93.1676 21.7827 93.2114 21.4108C93.2557 21.033 93.2994 20.5925 93.3425 20.0893L93.8377 14.3089C93.8808 13.8057 93.9125 13.3672 93.9326 12.9932C93.9532 12.6134 93.9633 12.2863 93.963 12.0119C93.9631 11.7317 93.9533 11.4983 93.9335 11.3117C93.9196 11.1257 93.9003 10.969 93.8754 10.8416L93.8785 10.8061Z" fill="white"/>
<path d="M108.192 21.8718L105.454 23.9624C105.355 24.0413 105.251 24.1223 105.144 24.2055C105.043 24.2901 104.948 24.3734 104.86 24.4552C104.778 24.5384 104.705 24.6181 104.643 24.6943C104.587 24.7719 104.551 24.8394 104.536 24.897L103.085 24.5284L103.094 24.4939C103.207 24.4367 103.364 24.3479 103.566 24.2276C103.774 24.1088 104 23.9548 104.245 23.7655L107.841 21.0102L106.089 16.7218C105.989 16.488 105.885 16.2837 105.776 16.1089C105.667 15.9341 105.582 15.8207 105.522 15.7686L105.531 15.7341L107.897 16.3352C107.873 16.4331 107.868 16.5974 107.883 16.828C107.905 17.0543 107.985 17.3414 108.124 17.6891L109.083 20.066L111.298 18.3669C111.391 18.2923 111.485 18.2119 111.58 18.1258C111.681 18.0412 111.77 17.9565 111.847 17.8718C111.931 17.7828 112.001 17.6995 112.058 17.6219C112.114 17.5443 112.15 17.4767 112.164 17.4191L113.615 17.7877L113.607 17.8222C113.51 17.8651 113.386 17.9316 113.234 18.0218C113.082 18.1121 112.877 18.2561 112.619 18.454L109.43 20.9082L111.336 25.5668C111.466 25.8757 111.593 26.1348 111.718 26.3442C111.842 26.5536 111.936 26.6909 111.999 26.7559L111.991 26.7905L109.633 26.1915C109.657 26.0936 109.66 25.9286 109.639 25.6966C109.619 25.4587 109.545 25.1731 109.415 24.8398L108.192 21.8718Z" fill="white"/>
<path d="M116.657 22.2816C116.86 21.8194 117.029 21.4134 117.164 21.0636C117.306 20.7109 117.421 20.4046 117.51 20.1449C117.604 19.8876 117.671 19.6675 117.713 19.4845C117.76 19.304 117.792 19.1495 117.81 19.0209L117.824 18.9883L119.708 19.8178L119.694 19.8504C119.631 19.92 119.566 20.0016 119.498 20.0954C119.431 20.1891 119.361 20.2977 119.287 20.421C119.689 20.3773 120.111 20.378 120.552 20.4229C121.001 20.4647 121.462 20.5898 121.935 20.7981C122.539 21.0638 123.042 21.4089 123.446 21.8333C123.858 22.2548 124.157 22.7336 124.343 23.2698C124.534 23.8085 124.609 24.39 124.568 25.0145C124.526 25.639 124.359 26.2857 124.064 26.9545C123.818 27.5146 123.483 28.0098 123.059 28.4402C122.642 28.873 122.158 29.2053 121.608 29.4371C121.063 29.6712 120.467 29.7882 119.818 29.7881C119.171 29.7825 118.494 29.6241 117.787 29.3129C117.363 29.1262 116.991 28.9236 116.672 28.7052C116.353 28.4867 116.069 28.2612 115.821 28.0286L115.297 29.2194C115.093 29.6816 114.921 30.0864 114.782 30.4338C114.639 30.7865 114.524 31.0928 114.435 31.3525C114.347 31.6122 114.279 31.8323 114.232 32.0129C114.185 32.1934 114.153 32.3479 114.135 32.4765L114.121 32.5091L112.237 31.6796L112.251 31.647C112.334 31.5472 112.426 31.419 112.528 31.2624C112.635 31.1082 112.751 30.9096 112.878 30.6667C113.009 30.4261 113.157 30.1342 113.322 29.791C113.489 29.4556 113.674 29.0568 113.877 28.5946L116.657 22.2816ZM121.38 21.2841C121.195 21.2027 120.994 21.1434 120.777 21.1062C120.568 21.0659 120.348 21.0473 120.12 21.0506C119.899 21.0507 119.673 21.0778 119.442 21.1317C119.218 21.1825 119.002 21.2596 118.794 21.3629C118.693 21.5647 118.581 21.7949 118.461 22.0535C118.341 22.3122 118.212 22.5964 118.076 22.9064L116.194 27.1803C116.267 27.3098 116.356 27.4398 116.461 27.5703C116.566 27.7008 116.689 27.8331 116.831 27.9671C116.982 28.0981 117.155 28.2266 117.353 28.3526C117.556 28.481 117.788 28.6026 118.049 28.7175C118.473 28.9042 118.89 28.9969 119.3 28.9954C119.709 28.994 120.095 28.9007 120.455 28.7154C120.821 28.5325 121.158 28.262 121.465 27.9038C121.777 27.548 122.049 27.1091 122.278 26.5871C122.537 25.9998 122.727 25.4345 122.85 24.8912C122.975 24.3424 123.008 23.838 122.951 23.3779C122.902 22.9148 122.751 22.5045 122.5 22.147C122.248 21.7896 121.875 21.502 121.38 21.2841Z" fill="white"/>
<path d="M129.795 24.1926C130.053 23.7587 130.27 23.3764 130.447 23.0456C130.631 22.7129 130.783 22.423 130.902 22.176C131.027 21.9321 131.121 21.7218 131.184 21.5454C131.253 21.3719 131.304 21.2225 131.337 21.097L131.355 21.0664L133.124 22.1196L133.106 22.1503C133.012 22.2392 132.904 22.3552 132.785 22.4983C132.665 22.6413 132.525 22.8242 132.365 23.0469C132.204 23.2695 132.022 23.5412 131.817 23.8618C131.616 24.1773 131.385 24.552 131.127 24.9859L127.876 30.4455C127.618 30.8794 127.396 31.2627 127.212 31.5955C127.031 31.9232 126.88 32.2105 126.761 32.4575C126.642 32.7045 126.548 32.9147 126.479 33.0881C126.41 33.2616 126.359 33.411 126.326 33.5365L126.308 33.5671L124.539 32.5138L124.557 32.4832C124.652 32.3943 124.759 32.2782 124.879 32.1352C125.003 31.9952 125.143 31.8123 125.299 31.5866C125.459 31.364 125.64 31.0949 125.842 30.7794C126.051 30.4618 126.285 30.086 126.544 29.6521L129.795 24.1926Z" fill="white"/>
<path d="M131.037 30.9767C131.447 30.445 131.925 30.0295 132.471 29.7301C133.02 29.426 133.596 29.2393 134.197 29.17C134.802 29.1043 135.413 29.1587 136.029 29.3332C136.644 29.5077 137.223 29.8036 137.764 30.2207C138.296 30.6306 138.726 31.1045 139.054 31.6424C139.39 32.1792 139.607 32.7441 139.705 33.3372C139.803 33.9303 139.771 34.536 139.61 35.1541C139.453 35.776 139.151 36.3762 138.705 36.955C138.332 37.4397 137.888 37.8402 137.374 38.1567C136.86 38.4731 136.306 38.6761 135.712 38.7657C135.117 38.8553 134.501 38.8187 133.861 38.6557C133.23 38.4917 132.604 38.1703 131.983 37.6915C131.456 37.2853 131.026 36.8155 130.695 36.2823C130.363 35.7491 130.148 35.186 130.05 34.5929C129.952 33.9998 129.98 33.3947 130.133 32.7776C130.29 32.1558 130.591 31.5555 131.037 30.9767ZM132.542 37.3014C132.876 37.5589 133.233 37.7288 133.612 37.8111C133.996 37.897 134.385 37.8932 134.78 37.7998C135.174 37.7063 135.566 37.5244 135.954 37.2538C136.343 36.9832 136.711 36.6221 137.06 36.1704C137.451 35.6622 137.76 35.1499 137.985 34.6336C138.215 34.1125 138.342 33.611 138.369 33.1288C138.404 32.6457 138.328 32.1895 138.141 31.7604C137.954 31.3313 137.644 30.9499 137.211 30.6162C136.877 30.3587 136.521 30.1888 136.142 30.1066C135.766 30.0196 135.38 30.0187 134.985 30.1038C134.594 30.1925 134.204 30.3721 133.815 30.6427C133.43 30.9085 133.064 31.2673 132.716 31.719C132.324 32.2272 132.013 32.7419 131.784 33.2629C131.56 33.7876 131.431 34.2956 131.397 34.7872C131.367 35.274 131.441 35.7325 131.62 36.1627C131.806 36.5917 132.114 36.9713 132.542 37.3014Z" fill="white"/>
<path d="M141.612 38.3099C141.971 37.9554 142.278 37.6404 142.532 37.365C142.795 37.0896 143.015 36.8475 143.193 36.6388C143.375 36.4342 143.519 36.2546 143.625 36.0999C143.736 35.9495 143.823 35.8178 143.887 35.7048L143.912 35.6798L145.357 37.146L145.332 37.171C145.201 37.2331 145.053 37.3202 144.889 37.4325C144.728 37.549 144.532 37.7093 144.299 37.9134C144.585 37.9407 144.874 37.9764 145.168 38.0206C145.462 38.0647 145.745 38.1277 146.017 38.2095C146.29 38.2913 146.545 38.394 146.784 38.5175C147.027 38.6453 147.24 38.8023 147.423 38.9885C147.536 39.1027 147.628 39.2084 147.698 39.3056C147.773 39.3986 147.834 39.4893 147.879 39.5779C147.929 39.6623 147.968 39.7445 147.997 39.8245C148.03 39.9004 148.061 39.9741 148.09 40.0457L146.571 40.9296L146.49 40.7966C146.626 40.5624 146.681 40.3212 146.653 40.0731C146.63 39.8209 146.499 39.5742 146.261 39.333C146.132 39.2018 145.973 39.0872 145.785 38.9892C145.597 38.8912 145.387 38.8099 145.157 38.7452C144.93 38.6763 144.689 38.6221 144.433 38.5824C144.181 38.5386 143.927 38.5052 143.671 38.4824C143.54 38.5948 143.403 38.722 143.259 38.8638C143.115 39.0056 142.963 39.1557 142.802 39.3142L141.164 40.9282C140.805 41.2827 140.494 41.5976 140.231 41.873C139.973 42.1442 139.755 42.3842 139.577 42.5929C139.399 42.8017 139.255 42.9813 139.144 43.1317C139.034 43.2822 138.947 43.4139 138.883 43.5269L138.858 43.5519L137.413 42.0857L137.438 42.0607C137.552 41.9985 137.685 41.9133 137.837 41.8052C137.993 41.7013 138.175 41.5598 138.382 41.3806C138.593 41.2057 138.836 40.9911 139.111 40.7368C139.395 40.4826 139.716 40.1783 140.076 39.8238L141.612 38.3099Z" fill="white"/>
<path d="M144.707 50.5829C144.311 50.0557 144.023 49.4993 143.843 48.9137C143.663 48.3281 143.604 47.7447 143.665 47.1636C143.731 46.5789 143.924 46.0101 144.244 45.4573C144.573 44.9056 145.041 44.4013 145.649 43.9444C146.185 43.541 146.75 43.2582 147.341 43.096C147.937 42.9302 148.524 42.8797 149.1 42.9444C149.676 43.0092 150.219 43.1815 150.726 43.4614C151.237 43.7461 151.679 44.1354 152.05 44.6293C152.418 45.1185 152.673 45.6363 152.816 46.1827C152.964 46.7256 152.991 47.2704 152.896 47.8171C152.81 48.3649 152.596 48.9052 152.253 49.4379C151.918 49.9718 151.455 50.4725 150.862 50.9401C150.468 50.3963 150.072 49.8543 149.674 49.314C149.275 48.7738 148.858 48.214 148.422 47.6346C148.112 47.2214 147.806 46.8195 147.505 46.4288C147.207 46.043 146.936 45.6969 146.691 45.3906C146.219 45.7903 145.829 46.2018 145.523 46.6252C145.221 47.0532 145.009 47.4836 144.888 47.9163C144.776 48.3501 144.761 48.7808 144.845 49.2085C144.932 49.641 145.126 50.0566 145.426 50.4556C145.633 50.731 145.858 50.9667 146.102 51.1625C146.354 51.3595 146.612 51.5149 146.876 51.6287C147.14 51.7425 147.407 51.8206 147.676 51.8631C147.951 51.902 148.219 51.9083 148.482 51.8819L148.503 51.9995L146.839 52.4254C146.513 52.2689 146.169 52.0482 145.807 51.7634C145.449 51.4751 145.082 51.0815 144.707 50.5829ZM148.341 46.3692C148.698 46.8441 149.055 47.319 149.412 47.7939C149.777 48.27 150.113 48.6975 150.42 49.0762C150.801 48.7229 151.111 48.3637 151.349 47.9987C151.588 47.6337 151.751 47.2728 151.84 46.9163C151.929 46.5597 151.94 46.2092 151.875 45.8647C151.809 45.5201 151.662 45.1959 151.433 44.8919C151.226 44.6165 150.974 44.4088 150.675 44.2689C150.385 44.1302 150.062 44.061 149.706 44.0614C149.349 44.0617 148.965 44.1346 148.554 44.28C148.148 44.4218 147.726 44.6421 147.29 44.9408C147.441 45.1616 147.605 45.3908 147.784 45.6283C147.962 45.8657 148.148 46.1127 148.341 46.3692Z" fill="white"/>
<path d="M151.539 60.4129C151.651 60.4414 151.807 60.4629 152.009 60.4775C152.216 60.4899 152.461 60.4693 152.746 60.4155C153.158 60.3333 153.621 60.2393 154.133 60.1335C154.652 60.0311 155.194 59.9206 155.758 59.8019C156.324 59.6887 156.9 59.5687 157.486 59.4417C158.08 59.3183 158.661 59.1934 159.229 59.0671C159.804 58.9443 160.355 58.8241 160.881 58.7065C161.415 58.5924 161.902 58.4864 162.34 58.3884C162.779 58.2904 163.158 58.2018 163.477 58.1225C163.804 58.0467 164.048 57.9885 164.21 57.9478L164.601 59.0101L156.698 67.8876L168.454 69.4909L168.746 70.2855L159.313 75.3104C159.015 75.4642 158.763 75.6044 158.556 75.7311C158.35 75.8577 158.174 75.973 158.028 76.0771C157.889 76.1791 157.773 76.2691 157.681 76.3471C157.597 76.4286 157.529 76.5011 157.477 76.5648L157.443 76.5771L156.668 74.4692L156.702 74.4569C156.773 74.4622 156.883 74.4504 157.03 74.4215C157.18 74.3981 157.353 74.3506 157.548 74.2788C157.62 74.2522 157.692 74.2227 157.762 74.1905C157.838 74.1562 157.919 74.1171 158.004 74.0732L165.627 70.065L154.528 68.5432L154.382 67.9414L161.857 59.5535C160.464 59.8442 159.18 60.1231 158.006 60.3901C157.504 60.5051 157.002 60.62 156.5 60.735C156.003 60.8479 155.539 60.9551 155.108 61.0566C154.679 61.1637 154.301 61.2618 153.972 61.3507C153.65 61.4376 153.413 61.5088 153.263 61.5641C153.073 61.6338 152.908 61.7009 152.767 61.7654C152.626 61.8298 152.508 61.8861 152.411 61.9341C152.3 61.9939 152.203 62.0486 152.12 62.0981L151.505 60.4252L151.539 60.4129Z" fill="white"/>
<path d="M161.468 76.0108C162.133 75.919 162.765 75.9577 163.364 76.1268C163.969 76.2952 164.51 76.5653 164.987 76.9373C165.465 77.3151 165.863 77.782 166.179 78.338C166.496 78.8941 166.701 79.5105 166.794 80.1873C166.886 80.8524 166.861 81.4917 166.717 82.1052C166.581 82.7238 166.34 83.2789 165.994 83.7705C165.648 84.2621 165.201 84.6717 164.652 84.9993C164.104 85.3329 163.469 85.5496 162.745 85.6496C162.138 85.7333 161.541 85.7078 160.953 85.5731C160.364 85.4385 159.827 85.1948 159.34 84.8421C158.854 84.4895 158.44 84.0309 158.098 83.4663C157.763 82.9069 157.542 82.2387 157.434 81.4618C157.343 80.8027 157.366 80.1667 157.504 79.554C157.641 78.9413 157.883 78.3891 158.229 77.8975C158.575 77.4059 159.018 76.9938 159.56 76.6611C160.108 76.3275 160.744 76.1108 161.468 76.0108ZM158.107 81.5759C158.164 81.9937 158.3 82.3649 158.512 82.6894C158.726 83.0198 159.006 83.2899 159.353 83.4999C159.7 83.7099 160.107 83.8547 160.574 83.9342C161.04 84.0137 161.556 84.0144 162.121 83.9364C162.757 83.8486 163.336 83.6997 163.859 83.4895C164.387 83.2786 164.83 83.0105 165.187 82.6853C165.551 82.3652 165.816 81.9867 165.984 81.5497C166.152 81.1128 166.198 80.6235 166.123 80.0821C166.066 79.6642 165.93 79.2931 165.718 78.9686C165.511 78.6433 165.236 78.3723 164.895 78.1556C164.554 77.9448 164.15 77.7996 163.683 77.7201C163.222 77.6398 162.709 77.6387 162.144 77.7167C161.508 77.8045 160.926 77.9538 160.398 78.1648C159.87 78.3816 159.422 78.6534 159.053 78.9802C158.69 79.3062 158.421 79.6852 158.247 80.1171C158.08 80.554 158.033 81.0403 158.107 81.5759Z" fill="white"/>
<path d="M163.869 88.7146C164.374 88.7142 164.813 88.7049 165.188 88.6868C165.568 88.6746 165.895 88.6565 166.168 88.6325C166.441 88.6145 166.67 88.5875 166.854 88.5517C167.038 88.5219 167.193 88.4891 167.317 88.4533L167.353 88.4533L167.355 90.5119L167.319 90.5119C167.182 90.4645 167.016 90.4231 166.82 90.3876C166.624 90.358 166.371 90.3345 166.062 90.3169C166.247 90.5366 166.428 90.7652 166.607 91.0027C166.785 91.2402 166.943 91.4836 167.079 91.7331C167.216 91.9825 167.326 92.2349 167.41 92.4903C167.493 92.7516 167.535 93.013 167.535 93.2744C167.535 93.4348 167.527 93.5745 167.509 93.6933C167.497 93.8121 167.476 93.9191 167.447 94.0142C167.423 94.1093 167.393 94.1954 167.358 94.2727C167.328 94.35 167.299 94.4243 167.269 94.4956L165.566 94.0603L165.602 93.9088C165.863 93.8373 166.071 93.7034 166.225 93.5072C166.386 93.311 166.466 93.0436 166.465 92.705C166.465 92.5208 166.432 92.3277 166.367 92.1258C166.301 91.9238 166.209 91.7189 166.09 91.5111C165.977 91.3032 165.843 91.0954 165.689 90.8876C165.54 90.6798 165.382 90.4779 165.216 90.282C165.043 90.2703 164.856 90.2645 164.654 90.2646C164.452 90.2648 164.238 90.265 164.013 90.2652L161.713 90.2671C161.208 90.2675 160.766 90.2738 160.385 90.286C160.011 90.2982 159.687 90.3163 159.414 90.3403C159.141 90.3643 158.912 90.3912 158.728 90.4211C158.544 90.451 158.389 90.4838 158.265 90.5195L158.229 90.5195L158.227 88.4609L158.263 88.4609C158.388 88.4964 158.542 88.529 158.726 88.5585C158.911 88.594 159.139 88.6206 159.413 88.6382C159.686 88.6617 160.01 88.6792 160.384 88.6908C160.764 88.7083 161.207 88.7169 161.712 88.7164L163.869 88.7146Z" fill="white"/>
<path d="M157.469 99.6988C157.556 99.0451 157.741 98.4465 158.024 97.9029C158.306 97.3594 158.673 96.902 159.125 96.5309C159.582 96.1605 160.119 95.8907 160.735 95.7215C161.356 95.559 162.043 95.5282 162.797 95.6291C163.463 95.7183 164.063 95.9126 164.598 96.2121C165.139 96.5124 165.593 96.8878 165.958 97.3383C166.323 97.7889 166.588 98.292 166.754 98.8476C166.918 99.4092 166.96 99.9961 166.878 100.609C166.796 101.215 166.615 101.763 166.334 102.253C166.058 102.744 165.695 103.151 165.244 103.474C164.798 103.804 164.266 104.038 163.648 104.177C163.035 104.323 162.354 104.354 161.603 104.272C161.704 103.608 161.802 102.944 161.897 102.279C161.992 101.615 162.088 100.923 162.184 100.205C162.253 99.6923 162.317 99.1914 162.377 98.7018C162.435 98.2182 162.485 97.7812 162.525 97.391C161.908 97.3443 161.342 97.3644 160.827 97.4512C160.311 97.5439 159.858 97.7021 159.468 97.9256C159.084 98.1558 158.771 98.4527 158.531 98.8161C158.29 99.1854 158.136 99.6173 158.07 100.112C158.024 100.454 158.019 100.78 158.055 101.09C158.097 101.407 158.172 101.699 158.28 101.965C158.388 102.232 158.523 102.475 158.686 102.694C158.854 102.914 159.041 103.107 159.247 103.273L159.179 103.372L157.695 102.507C157.572 102.167 157.482 101.769 157.423 101.311C157.371 100.855 157.386 100.317 157.469 99.6988ZM163.014 99.2458C162.935 99.8346 162.856 100.424 162.777 101.012C162.704 101.608 162.643 102.148 162.596 102.634C163.116 102.649 163.588 102.611 164.014 102.518C164.44 102.425 164.81 102.283 165.123 102.091C165.437 101.899 165.691 101.657 165.886 101.366C166.081 101.074 166.204 100.74 166.254 100.363C166.3 100.022 166.265 99.6963 166.151 99.3873C166.042 99.0849 165.86 98.8088 165.606 98.5589C165.351 98.3091 165.027 98.0918 164.632 97.907C164.243 97.723 163.788 97.5842 163.267 97.4904C163.22 97.7538 163.176 98.0327 163.137 98.3272C163.098 98.6216 163.057 98.9278 163.014 99.2458Z" fill="white"/>
<path d="M163.405 117.787L161.58 119.394L161.13 118.829L163.03 117.347L160.757 116.554L161.02 115.872L163.256 116.813L162.829 114.431L163.542 114.315L163.819 116.715L165.646 115.128L166.096 115.693L164.178 117.169L166.465 117.976L166.202 118.658L163.97 117.71L164.397 120.091L163.683 120.207L163.405 117.787Z" fill="white"/>
<path d="M159.215 132.677C158.792 133.287 158.374 133.894 157.963 134.498C157.548 135.107 157.168 135.664 156.825 136.17C156.486 136.68 156.2 137.118 155.967 137.485C155.735 137.851 155.587 138.106 155.523 138.25L154.798 137.216C154.954 137.085 155.123 136.925 155.306 136.733C155.464 136.568 155.649 136.36 155.859 136.108C156.071 135.865 156.298 135.57 156.538 135.223C156.619 135.106 156.712 134.961 156.818 134.788C156.925 134.624 157.026 134.463 157.121 134.304C157.233 134.122 157.347 133.937 157.462 133.749L153.464 130.977C153.12 131.483 152.82 131.947 152.563 132.369C152.306 132.791 152.092 133.153 151.92 133.453C151.719 133.805 151.55 134.122 151.413 134.403L150.509 133.439C150.786 133.133 151.067 132.817 151.349 132.493C151.594 132.214 151.851 131.905 152.123 131.565C152.399 131.229 152.651 130.898 152.878 130.57L148.286 127.386C147.887 127.962 147.544 128.509 147.257 129.026C146.971 129.543 146.734 130.005 146.547 130.41C146.324 130.877 146.139 131.316 145.992 131.727L144.952 130.692C144.998 130.637 145.064 130.553 145.15 130.439C145.236 130.325 145.332 130.197 145.439 130.054C145.542 129.915 145.652 129.767 145.768 129.61C145.877 129.453 145.982 129.306 146.085 129.168C146.184 129.026 146.274 128.901 146.357 128.792C146.431 128.685 146.485 128.607 146.519 128.558L148.713 125.394L148.742 125.415C148.825 125.515 148.933 125.63 149.067 125.759C149.198 125.893 149.369 126.048 149.581 126.223C149.792 126.399 150.048 126.598 150.348 126.821C150.654 127.047 151.014 127.304 151.429 127.592L156.197 130.898C156.612 131.186 156.976 131.432 157.291 131.635C157.61 131.842 157.889 132.014 158.127 132.15C158.37 132.289 158.577 132.397 158.749 132.473C158.917 132.553 159.063 132.614 159.186 132.656L159.215 132.677Z" fill="white"/>
<path d="M142.478 139.609L142.025 136.194C142.006 136.069 141.987 135.939 141.968 135.804C141.945 135.675 141.92 135.551 141.893 135.434C141.861 135.321 141.828 135.219 141.793 135.127C141.754 135.039 141.713 134.975 141.67 134.933L142.711 133.857L142.737 133.882C142.731 134.008 142.729 134.189 142.733 134.424C142.733 134.664 142.754 134.937 142.797 135.243L143.4 139.733L147.992 140.344C148.245 140.373 148.474 140.384 148.68 140.377C148.886 140.369 149.026 140.352 149.101 140.326L149.127 140.35L147.429 142.105C147.356 142.035 147.216 141.949 147.009 141.847C146.801 141.754 146.512 141.681 146.142 141.629L143.602 141.28L143.976 144.047C143.994 144.164 144.017 144.285 144.045 144.411C144.068 144.541 144.097 144.66 144.133 144.769C144.168 144.886 144.206 144.988 144.245 145.076C144.284 145.163 144.325 145.228 144.368 145.269L143.327 146.345L143.301 146.32C143.312 146.215 143.316 146.074 143.313 145.898C143.31 145.721 143.287 145.472 143.244 145.149L142.699 141.162L137.709 140.501C137.377 140.46 137.089 140.442 136.845 140.446C136.601 140.45 136.436 140.463 136.348 140.485L136.322 140.46L138.014 138.712C138.087 138.782 138.229 138.866 138.44 138.963C138.656 139.065 138.941 139.142 139.295 139.195L142.478 139.609Z" fill="white"/>
<path d="M137.921 146.753C138.221 147.159 138.49 147.506 138.728 147.797C138.963 148.095 139.172 148.347 139.354 148.552C139.531 148.761 139.689 148.929 139.827 149.056C139.961 149.186 140.079 149.291 140.182 149.37L140.203 149.398L138.549 150.624L138.528 150.596C138.499 150.506 138.46 150.409 138.412 150.304C138.364 150.2 138.305 150.085 138.234 149.959C138.073 150.33 137.863 150.696 137.606 151.057C137.347 151.427 137.01 151.765 136.595 152.073C136.065 152.465 135.515 152.732 134.947 152.873C134.377 153.021 133.813 153.044 133.255 152.94C132.692 152.839 132.15 152.616 131.628 152.271C131.106 151.926 130.627 151.459 130.192 150.872C129.828 150.381 129.563 149.844 129.399 149.264C129.23 148.686 129.181 148.101 129.252 147.509C129.319 146.92 129.513 146.344 129.834 145.78C130.159 145.221 130.632 144.711 131.253 144.251C131.625 143.976 131.985 143.753 132.333 143.584C132.681 143.415 133.018 143.28 133.343 143.18L132.568 142.134C132.267 141.729 132.001 141.379 131.768 141.085C131.532 140.787 131.323 140.535 131.142 140.33C130.96 140.124 130.802 139.956 130.668 139.826C130.535 139.696 130.417 139.591 130.314 139.512L130.293 139.483L131.947 138.258L131.968 138.286C132.013 138.408 132.079 138.551 132.165 138.717C132.246 138.886 132.361 139.086 132.509 139.316C132.653 139.55 132.833 139.823 133.05 140.135C133.258 140.447 133.513 140.805 133.814 141.211L137.921 146.753ZM136.447 151.35C136.609 151.23 136.761 151.085 136.901 150.914C137.039 150.752 137.164 150.571 137.274 150.371C137.384 150.179 137.472 149.969 137.54 149.741C137.607 149.522 137.647 149.297 137.66 149.065C137.535 148.876 137.39 148.666 137.225 148.433C137.06 148.201 136.877 147.948 136.675 147.676L133.894 143.924C133.746 143.923 133.589 143.936 133.424 143.963C133.258 143.989 133.082 144.031 132.895 144.088C132.707 144.153 132.509 144.241 132.302 144.35C132.09 144.463 131.869 144.604 131.64 144.774C131.268 145.05 130.981 145.366 130.779 145.723C130.578 146.079 130.468 146.46 130.45 146.865C130.428 147.274 130.496 147.7 130.655 148.144C130.809 148.592 131.056 149.045 131.396 149.503C131.778 150.019 132.174 150.464 132.586 150.84C133.001 151.22 133.422 151.499 133.85 151.677C134.277 151.864 134.708 151.937 135.143 151.895C135.578 151.854 136.013 151.672 136.447 151.35Z" fill="white"/>
<path d="M129.778 157.203C130.027 157.642 130.252 158.02 130.452 158.337C130.65 158.661 130.827 158.937 130.983 159.163C131.133 159.392 131.269 159.577 131.391 159.72C131.508 159.865 131.612 159.984 131.705 160.074L131.723 160.105L129.932 161.122L129.915 161.091C129.884 160.965 129.836 160.814 129.771 160.639C129.706 160.464 129.616 160.252 129.502 160.003C129.388 159.754 129.242 159.461 129.065 159.124C128.89 158.793 128.678 158.407 128.429 157.968L125.292 152.442C125.043 152.003 124.819 151.621 124.621 151.296C124.426 150.977 124.251 150.704 124.095 150.478C123.94 150.252 123.804 150.066 123.687 149.921C123.57 149.775 123.465 149.657 123.373 149.566L123.355 149.535L125.146 148.519L125.163 148.55C125.194 148.676 125.242 148.826 125.307 149.001C125.367 149.179 125.456 149.391 125.576 149.638C125.69 149.887 125.834 150.177 126.009 150.509C126.181 150.848 126.392 151.238 126.641 151.677L129.778 157.203Z" fill="white"/>
<path d="M123.241 154.943C123.5 155.563 123.624 156.184 123.614 156.806C123.606 157.434 123.483 158.026 123.245 158.583C123.002 159.141 122.652 159.645 122.195 160.093C121.739 160.541 121.195 160.897 120.565 161.16C119.945 161.419 119.32 161.557 118.691 161.576C118.058 161.602 117.459 161.51 116.896 161.302C116.332 161.093 115.822 160.765 115.365 160.318C114.903 159.874 114.531 159.315 114.249 158.64C114.013 158.076 113.885 157.492 113.865 156.888C113.845 156.285 113.943 155.703 114.16 155.143C114.376 154.582 114.714 154.065 115.172 153.59C115.628 153.123 116.217 152.738 116.941 152.436C117.555 152.18 118.176 152.04 118.803 152.016C119.431 151.992 120.026 152.085 120.59 152.294C121.154 152.502 121.665 152.826 122.126 153.265C122.588 153.709 122.96 154.269 123.241 154.943ZM117.002 153.116C116.613 153.278 116.289 153.504 116.03 153.792C115.765 154.083 115.575 154.423 115.461 154.812C115.346 155.201 115.31 155.631 115.353 156.103C115.395 156.575 115.526 157.074 115.746 157.6C115.993 158.192 116.285 158.714 116.622 159.166C116.961 159.623 117.333 159.982 117.739 160.244C118.141 160.514 118.575 160.674 119.04 160.725C119.506 160.775 119.99 160.695 120.495 160.484C120.884 160.322 121.208 160.096 121.468 159.808C121.729 159.524 121.921 159.19 122.043 158.804C122.16 158.421 122.197 157.993 122.155 157.522C122.115 157.055 121.985 156.559 121.765 156.033C121.518 155.441 121.225 154.916 120.886 154.459C120.541 154.004 120.164 153.64 119.754 153.367C119.346 153.1 118.911 152.937 118.449 152.879C117.983 152.828 117.501 152.907 117.002 153.116Z" fill="white"/>
<path d="M111.639 160.486C111.768 160.974 111.889 161.397 112.002 161.754C112.11 162.119 112.211 162.43 112.304 162.688C112.391 162.948 112.475 163.162 112.557 163.331C112.632 163.502 112.703 163.643 112.77 163.754L112.779 163.789L110.788 164.314L110.779 164.28C110.79 164.135 110.788 163.964 110.772 163.765C110.751 163.568 110.71 163.318 110.648 163.015C110.482 163.249 110.308 163.483 110.123 163.716C109.939 163.949 109.744 164.163 109.537 164.359C109.331 164.555 109.115 164.725 108.889 164.871C108.658 165.018 108.415 165.125 108.163 165.192C108.008 165.233 107.87 165.26 107.751 165.273C107.633 165.292 107.524 165.299 107.425 165.294C107.327 165.296 107.236 165.289 107.152 165.274C107.07 165.265 106.99 165.256 106.914 165.245L106.902 163.488L107.057 163.484C107.193 163.718 107.375 163.885 107.604 163.984C107.835 164.089 108.114 164.099 108.441 164.012C108.619 163.965 108.798 163.884 108.976 163.77C109.155 163.655 109.329 163.513 109.5 163.345C109.672 163.183 109.839 163.001 110.001 162.798C110.164 162.602 110.319 162.398 110.466 162.187C110.434 162.017 110.392 161.835 110.34 161.64C110.289 161.444 110.234 161.238 110.176 161.019L109.589 158.796C109.46 158.308 109.342 157.882 109.233 157.517C109.126 157.158 109.026 156.85 108.933 156.591C108.841 156.333 108.756 156.119 108.681 155.948C108.605 155.778 108.534 155.637 108.468 155.525L108.459 155.491L110.449 154.965L110.458 155C110.455 155.129 110.463 155.287 110.482 155.473C110.494 155.66 110.527 155.888 110.579 156.157C110.626 156.427 110.691 156.745 110.775 157.11C110.855 157.482 110.96 157.912 111.089 158.4L111.639 160.486Z" fill="white"/>
<path d="M99.4665 157.069C100.121 156.988 100.747 157.015 101.344 157.15C101.942 157.286 102.478 157.524 102.951 157.867C103.425 158.215 103.823 158.666 104.143 159.218C104.458 159.778 104.662 160.435 104.756 161.19C104.839 161.856 104.803 162.486 104.649 163.08C104.496 163.68 104.248 164.213 103.905 164.681C103.562 165.149 103.143 165.533 102.648 165.834C102.146 166.136 101.589 166.325 100.976 166.401C100.369 166.476 99.7924 166.44 99.2472 166.292C98.7027 166.151 98.2169 165.903 97.7898 165.549C97.3575 165.201 96.9956 164.746 96.7042 164.184C96.4077 163.628 96.204 162.977 96.0933 162.23C96.761 162.159 97.4284 162.085 98.0953 162.008C98.7623 161.931 99.4554 161.848 100.175 161.759C100.688 161.695 101.188 161.63 101.677 161.563C102.16 161.497 102.595 161.434 102.983 161.374C102.871 160.765 102.708 160.223 102.493 159.747C102.272 159.271 102.005 158.873 101.689 158.553C101.369 158.24 101.003 158.013 100.59 157.873C100.172 157.733 99.7147 157.694 99.2194 157.756C98.8775 157.798 98.5609 157.876 98.2697 157.99C97.9734 158.111 97.7102 158.257 97.4802 158.43C97.2501 158.602 97.0495 158.794 96.8784 159.007C96.708 159.226 96.5689 159.456 96.4611 159.697L96.3484 159.657L96.8073 158.001C97.1052 157.797 97.4679 157.608 97.8954 157.435C98.3237 157.268 98.8474 157.146 99.4665 157.069ZM101.313 162.318C100.723 162.391 100.134 162.464 99.5441 162.538C98.9493 162.618 98.4113 162.696 97.93 162.774C98.0468 163.28 98.2042 163.728 98.4021 164.116C98.6001 164.505 98.8316 164.826 99.0967 165.081C99.3618 165.335 99.6601 165.52 99.9916 165.634C100.323 165.749 100.678 165.782 101.055 165.736C101.397 165.693 101.703 165.577 101.973 165.388C102.237 165.206 102.458 164.96 102.635 164.65C102.812 164.341 102.94 163.972 103.019 163.543C103.098 163.12 103.117 162.645 103.075 162.117C102.808 162.138 102.527 162.167 102.233 162.204C101.938 162.24 101.631 162.278 101.313 162.318Z" fill="white"/>
<path d="M87.4314 158.098C87.3512 158.181 87.2547 158.306 87.142 158.474C87.0283 158.648 86.9243 158.871 86.8299 159.144C86.6962 159.544 86.5482 159.992 86.3859 160.488C86.2168 160.99 86.0438 161.515 85.8667 162.064C85.6839 162.611 85.5019 163.171 85.3209 163.743C85.1331 164.32 84.9531 164.886 84.781 165.441C84.602 166.002 84.4328 166.539 84.2734 167.055C84.1072 167.575 83.9577 168.05 83.8249 168.479C83.6921 168.909 83.5809 169.282 83.4913 169.598C83.3949 169.919 83.324 170.16 83.2787 170.321L82.1627 170.133L78.3813 158.865L71.1522 168.273L70.3174 168.131L70.6399 157.449C70.6543 157.114 70.6579 156.825 70.6506 156.583C70.6433 156.341 70.6306 156.131 70.6124 155.953C70.5933 155.781 70.5726 155.636 70.5504 155.517C70.5213 155.404 70.4922 155.309 70.4631 155.232L70.469 155.196L72.6834 155.571L72.6775 155.606C72.6373 155.665 72.5932 155.766 72.545 155.909C72.4909 156.05 72.4466 156.223 72.412 156.429C72.3991 156.505 72.3892 156.581 72.3822 156.658C72.3742 156.741 72.3681 156.831 72.364 156.927L72.0578 165.533L78.8902 156.655L79.4846 156.828L83.0535 167.481C83.4931 166.128 83.8885 164.875 84.2397 163.723C84.3893 163.23 84.5388 162.737 84.6884 162.244C84.837 161.757 84.9742 161.301 85.1002 160.877C85.2203 160.451 85.3232 160.074 85.4089 159.745C85.4936 159.422 85.5493 159.181 85.576 159.023C85.6097 158.824 85.6335 158.647 85.6475 158.493C85.6615 158.338 85.6716 158.208 85.6777 158.1C85.6809 157.974 85.6816 157.863 85.6799 157.766L87.4374 158.063L87.4314 158.098Z" fill="white"/>
<path d="M68.9562 158.971C68.7055 159.594 68.3579 160.123 67.9135 160.559C67.4668 161 66.9636 161.336 66.4037 161.565C65.8384 161.792 65.2357 161.905 64.5959 161.904C63.956 161.902 63.3191 161.774 62.6853 161.519C62.0625 161.268 61.5204 160.929 61.0591 160.499C60.59 160.074 60.2281 159.589 59.9733 159.044C59.7185 158.5 59.5852 157.908 59.5733 157.269C59.5559 156.628 59.6837 155.969 59.9566 155.291C60.185 154.723 60.5039 154.217 60.913 153.774C61.3222 153.33 61.8007 152.985 62.3484 152.737C62.8962 152.49 63.4999 152.359 64.1597 152.343C64.8118 152.33 65.5016 152.47 66.2291 152.762C66.8464 153.011 67.3868 153.347 67.8504 153.77C68.3139 154.194 68.6731 154.678 68.9279 155.222C69.1826 155.767 69.3198 156.357 69.3394 156.992C69.3568 157.633 69.2291 158.293 68.9562 158.971ZM65.796 153.289C65.4047 153.132 65.0154 153.065 64.6281 153.088C64.2353 153.109 63.8616 153.218 63.507 153.415C63.1525 153.612 62.8247 153.893 62.5239 154.259C62.223 154.624 61.9661 155.072 61.7531 155.601C61.5135 156.196 61.3551 156.773 61.2777 157.331C61.1982 157.894 61.2109 158.412 61.3158 158.883C61.4129 159.358 61.6095 159.776 61.9055 160.139C62.2015 160.501 62.603 160.785 63.1101 160.989C63.5014 161.146 63.8907 161.213 64.278 161.19C64.6631 161.172 65.0345 161.068 65.3924 160.879C65.7448 160.688 66.0714 160.41 66.3722 160.044C66.6709 159.684 66.9267 159.239 67.1397 158.71C67.3793 158.115 67.5388 157.536 67.6184 156.972C67.6924 156.406 67.6792 155.882 67.5787 155.4C67.4761 154.923 67.2806 154.502 66.9923 154.136C66.6963 153.773 66.2976 153.491 65.796 153.289Z" fill="white"/>
<path d="M56.7719 154.756C56.5209 155.194 56.3101 155.58 56.1396 155.913C55.9609 156.249 55.814 156.542 55.6988 156.791C55.5784 157.037 55.4879 157.249 55.4273 157.426C55.3616 157.601 55.3132 157.751 55.2821 157.877L55.2644 157.908L53.478 156.885L53.4957 156.854C53.6048 156.759 53.7236 156.635 53.852 156.483C53.9752 156.327 54.1213 156.12 54.2903 155.861C54.008 155.911 53.7195 155.955 53.4247 155.992C53.1299 156.028 52.8403 156.044 52.5558 156.038C52.2714 156.033 51.9976 156.003 51.7346 155.948C51.4664 155.89 51.2189 155.796 50.9921 155.666C50.8529 155.587 50.7361 155.51 50.6419 155.435C50.5447 155.366 50.4622 155.294 50.3945 155.221C50.3238 155.154 50.2638 155.085 50.2145 155.016C50.1623 154.951 50.1126 154.889 50.0655 154.828L51.2904 153.568L51.4041 153.674C51.3361 153.936 51.3487 154.183 51.4421 154.414C51.5325 154.651 51.7246 154.854 52.0185 155.022C52.1783 155.113 52.3621 155.181 52.5699 155.225C52.7776 155.268 53.0013 155.29 53.2408 155.291C53.4773 155.296 53.7242 155.283 53.9814 155.253C54.2357 155.227 54.4892 155.191 54.742 155.144C54.838 155 54.9361 154.841 55.0365 154.666C55.1369 154.49 55.2432 154.305 55.3554 154.109L56.4981 152.114C56.7491 151.675 56.9639 151.288 57.1426 150.952C57.3183 150.622 57.4637 150.332 57.5789 150.083C57.6942 149.834 57.7846 149.622 57.8504 149.448C57.9161 149.273 57.9646 149.123 57.9956 148.997L58.0134 148.966L59.7997 149.989L59.782 150.02C59.6891 150.11 59.584 150.228 59.4667 150.373C59.3442 150.515 59.2073 150.701 59.056 150.929C58.8996 151.154 58.7232 151.426 58.5268 151.745C58.3224 152.066 58.0947 152.446 57.8437 152.884L56.7719 154.756Z" fill="white"/>
<path d="M50.4894 143.775C51.0128 144.176 51.4399 144.635 51.7707 145.15C52.1015 145.666 52.3155 146.212 52.4128 146.788C52.5064 147.369 52.4733 147.969 52.3134 148.587C52.1452 149.207 51.8298 149.819 51.367 150.422C50.9585 150.955 50.4912 151.379 49.965 151.694C49.4351 152.014 48.884 152.22 48.3114 152.313C47.7388 152.405 47.1704 152.385 46.6062 152.252C46.0373 152.115 45.5076 151.859 45.0173 151.483C44.5317 151.111 44.1465 150.68 43.8617 150.193C43.5733 149.709 43.4012 149.192 43.3453 148.64C43.281 148.089 43.3424 147.511 43.5295 146.906C43.7082 146.302 44.0201 145.695 44.465 145.085C44.9906 145.503 45.5179 145.919 46.0471 146.332C46.5762 146.745 47.1284 147.172 47.7036 147.613C48.1138 147.928 48.5164 148.233 48.9113 148.528C49.3016 148.82 49.6559 149.08 49.9743 149.309C50.322 148.797 50.5863 148.296 50.7674 147.806C50.9438 147.313 51.032 146.841 51.032 146.392C51.0237 145.944 50.9218 145.525 50.7263 145.136C50.5261 144.743 50.228 144.394 49.8319 144.091C49.5585 143.881 49.278 143.714 48.9906 143.591C48.6948 143.469 48.4045 143.389 48.1197 143.35C47.8349 143.312 47.5569 143.308 47.2856 143.34C47.0107 143.376 46.7504 143.442 46.5046 143.538L46.4522 143.431L47.9408 142.573C48.2966 142.636 48.6875 142.756 49.1134 142.933C49.5357 143.115 49.9944 143.395 50.4894 143.775ZM48.1223 148.81C47.6508 148.449 47.1793 148.087 46.7078 147.726C46.228 147.365 45.7894 147.044 45.3919 146.762C45.1198 147.204 44.918 147.634 44.7864 148.049C44.6549 148.465 44.5943 148.856 44.6046 149.224C44.615 149.591 44.6981 149.932 44.854 150.246C45.0099 150.56 45.2387 150.833 45.5405 151.064C45.8139 151.274 46.1131 151.406 46.4382 151.461C46.7549 151.516 47.0848 151.496 47.4281 151.4C47.7713 151.304 48.1214 151.13 48.4781 150.88C48.8313 150.634 49.1782 150.309 49.5188 149.903C49.3139 149.731 49.0935 149.555 48.8578 149.374C48.622 149.193 48.3769 149.005 48.1223 148.81Z" fill="white"/>
<path d="M31.8382 139.936L31.3469 137.555L32.0614 137.444L32.4066 139.83L34.2216 138.248L34.6831 138.815L32.7585 140.29L35.0385 141.1L34.7856 141.777L32.5642 140.828L33.0373 143.201L32.3229 143.311L31.9915 140.915L30.157 142.501L29.6956 141.934L31.6257 140.466L29.3457 139.656L29.5987 138.979L31.8382 139.936Z" fill="white"/>
<path d="M20.9763 128.927C20.6556 128.257 20.3347 127.594 20.0138 126.937C19.6903 126.275 19.3937 125.67 19.1241 125.12C18.8491 124.573 18.6099 124.108 18.4066 123.725C18.2032 123.341 18.0547 123.086 17.9612 122.96L19.2189 122.842C19.2553 123.042 19.3112 123.269 19.3866 123.522C19.452 123.741 19.5418 124.005 19.6561 124.312C19.7625 124.617 19.9068 124.96 20.0889 125.34C20.1505 125.469 20.2303 125.621 20.3282 125.799C20.4183 125.973 20.5084 126.14 20.5987 126.301C20.7017 126.489 20.8061 126.68 20.9118 126.873L25.3005 124.771C25.0309 124.222 24.7762 123.731 24.5365 123.299C24.2967 122.868 24.089 122.503 23.9134 122.205C23.7068 121.856 23.5154 121.552 23.3391 121.294L24.6239 120.985C24.7527 121.378 24.888 121.778 25.0299 122.184C25.1514 122.534 25.2925 122.911 25.453 123.315C25.6081 123.722 25.7716 124.105 25.9435 124.464L30.9834 122.051C30.6806 121.418 30.3755 120.85 30.0679 120.345C29.7603 119.84 29.4767 119.406 29.2172 119.043C28.9215 118.618 28.6317 118.239 28.3477 117.908L29.7615 117.517C29.7869 117.584 29.8277 117.683 29.884 117.814C29.9402 117.946 30.0041 118.093 30.0757 118.256C30.1447 118.414 30.2189 118.583 30.2982 118.762C30.3803 118.934 30.4559 119.098 30.525 119.256C30.5994 119.412 30.6634 119.552 30.717 119.678C30.7735 119.796 30.8145 119.882 30.8402 119.935L32.5028 123.408L32.4706 123.423C32.3427 123.445 32.1893 123.482 32.0103 123.535C31.8288 123.582 31.6097 123.654 31.3529 123.751C31.0961 123.848 30.7964 123.971 30.4537 124.122C30.1056 124.276 29.7038 124.461 29.2483 124.68L24.0156 127.185C23.5601 127.403 23.1661 127.598 22.8336 127.771C22.4958 127.946 22.2088 128.103 21.9725 128.242C21.7309 128.384 21.5348 128.511 21.3841 128.623C21.2308 128.729 21.1056 128.825 21.0084 128.911L20.9763 128.927Z" fill="white"/>
<path d="M23.2507 110.958L26.4399 112.26C26.5584 112.306 26.6806 112.354 26.8065 112.405C26.9307 112.449 27.0505 112.488 27.1657 112.523C27.2792 112.552 27.3846 112.574 27.4818 112.589C27.5773 112.598 27.6536 112.595 27.7106 112.578L28.1277 114.016L28.0935 114.026C27.9871 113.958 27.8309 113.867 27.6248 113.754C27.417 113.635 27.1697 113.518 26.8828 113.403L22.6856 111.698L19.8751 115.38C19.7242 115.585 19.6009 115.778 19.5053 115.961C19.4098 116.143 19.3548 116.273 19.3404 116.352L19.3062 116.362L18.6259 114.017C18.7229 113.988 18.867 113.909 19.0583 113.78C19.2422 113.646 19.449 113.431 19.6788 113.136L21.2424 111.105L18.6553 110.055C18.5441 110.013 18.4272 109.973 18.3047 109.934C18.1804 109.89 18.0624 109.856 17.9505 109.833C17.8312 109.805 17.7238 109.787 17.6283 109.778C17.5328 109.768 17.4565 109.772 17.3994 109.788L16.9823 108.35L17.0166 108.341C17.1025 108.402 17.2228 108.476 17.3774 108.561C17.532 108.646 17.7601 108.75 18.0617 108.873L21.7928 110.379L24.8444 106.376C25.0449 106.108 25.2039 105.867 25.3214 105.653C25.4389 105.44 25.5097 105.289 25.5338 105.202L25.568 105.192L26.2458 107.529C26.1488 107.557 26.0055 107.638 25.8159 107.774C25.6206 107.911 25.4121 108.12 25.1904 108.401L23.2507 110.958Z" fill="white"/>
<path d="M19.3173 103.458C18.8158 103.517 18.3802 103.577 18.0105 103.638C17.6342 103.695 17.3118 103.75 17.0431 103.806C16.7738 103.855 16.5497 103.909 16.3709 103.966C16.1915 104.017 16.0419 104.067 15.9221 104.117L15.8867 104.121L15.6467 102.077L15.6821 102.072C15.7741 102.091 15.8775 102.106 15.9924 102.117C16.1073 102.127 16.2365 102.133 16.3802 102.134C16.1387 101.809 15.9256 101.446 15.7407 101.043C15.5492 100.634 15.4233 100.174 15.363 99.6602C15.2861 99.0052 15.3283 98.3961 15.4894 97.8328C15.644 97.2643 15.9053 96.764 16.2734 96.332C16.6407 95.894 17.104 95.5346 17.6632 95.2535C18.2224 94.9725 18.8649 94.7894 19.5907 94.7042C20.1985 94.6329 20.7951 94.6705 21.3806 94.8171C21.9655 94.9578 22.4971 95.2065 22.9757 95.5631C23.4536 95.9137 23.8569 96.3689 24.1858 96.9285C24.5088 97.4887 24.7154 98.1524 24.8054 98.9195C24.8595 99.3798 24.8732 99.8029 24.8468 100.189C24.8203 100.575 24.7697 100.934 24.695 101.265L25.9873 101.114C26.4888 101.055 26.9248 100.998 27.2951 100.942C27.6714 100.886 27.9939 100.83 28.2625 100.775C28.5312 100.719 28.7552 100.666 28.9347 100.615C29.1142 100.564 29.2638 100.514 29.3835 100.464L29.4189 100.46L29.659 102.504L29.6236 102.508C29.4955 102.488 29.3383 102.473 29.1519 102.465C28.9648 102.451 28.7345 102.451 28.461 102.465C28.1868 102.474 27.8602 102.494 27.4811 102.527C27.1073 102.553 26.6696 102.595 26.1681 102.654L19.3173 103.458ZM16.0632 99.892C16.0868 100.093 16.1376 100.296 16.2156 100.502C16.2871 100.703 16.3821 100.901 16.5008 101.097C16.6128 101.287 16.7508 101.468 16.9145 101.641C17.0717 101.808 17.2475 101.954 17.4418 102.081C17.6674 102.067 17.9222 102.046 18.2061 102.018C18.4901 101.991 18.8002 101.958 19.1365 101.918L23.7745 101.374C23.8491 101.245 23.9162 101.103 23.9756 100.946C24.035 100.79 24.0864 100.616 24.1298 100.426C24.1666 100.23 24.1893 100.015 24.1976 99.7805C24.2053 99.5403 24.1926 99.2786 24.1593 98.9954C24.1053 98.5351 23.9738 98.1288 23.765 97.7765C23.5561 97.4241 23.2804 97.1394 22.9379 96.9224C22.5947 96.6995 22.1909 96.5465 21.7265 96.4635C21.2614 96.3745 20.7456 96.3633 20.1791 96.4298C19.5419 96.5046 18.958 96.6269 18.4276 96.7969C17.8913 96.9675 17.4394 97.1941 17.0717 97.4765C16.6975 97.7537 16.4201 98.0914 16.2395 98.4895C16.0589 98.8875 16.0002 99.3551 16.0632 99.892Z" fill="white"/>
<path d="M14.3021 91.1172C13.7971 91.1148 13.3574 91.1217 12.983 91.1378C12.6028 91.1479 12.2759 91.1642 12.0025 91.1867C11.7291 91.2032 11.5003 91.2289 11.3159 91.2637C11.1316 91.2925 10.977 91.3245 10.8521 91.3595L10.8164 91.3594L10.826 89.3008L10.8617 89.3009C10.9863 89.3372 11.1406 89.3706 11.3246 89.4011C11.5087 89.4317 11.7373 89.4595 12.0104 89.4845C12.2836 89.5096 12.6103 89.5289 12.9905 89.5426C13.3647 89.5562 13.8043 89.5642 14.3093 89.5666L20.6634 89.5962C21.1684 89.5986 21.6111 89.5947 21.9913 89.5846C22.3657 89.5745 22.6896 89.5581 22.963 89.5357C23.2364 89.5132 23.4652 89.4875 23.6496 89.4587C23.8339 89.4298 23.9885 89.3978 24.1134 89.3628L24.1491 89.363L24.1395 91.4216L24.1038 91.4214C23.9792 91.3852 23.8249 91.3518 23.6409 91.3212C23.4569 91.2847 23.2282 91.2569 22.955 91.2378C22.6819 91.2128 22.3581 91.1934 21.9839 91.1798C21.6038 91.1602 21.1612 91.1492 20.6562 91.1469L14.3021 91.1172Z" fill="white"/>
<path d="M19.5168 86.5445C18.8506 86.4613 18.25 86.2605 17.715 85.9421C17.1741 85.623 16.7213 85.2222 16.3565 84.7395C15.9924 84.2509 15.7294 83.6971 15.5672 83.0781C15.4051 82.4591 15.3664 81.8106 15.4512 81.1326C15.5344 80.4665 15.7245 79.8556 16.0215 79.2999C16.3133 78.7377 16.6899 78.2638 17.1512 77.8784C17.6125 77.493 18.1505 77.213 18.765 77.0383C19.3804 76.8577 20.0506 76.8128 20.7757 76.9034C21.383 76.9793 21.9533 77.1584 22.4869 77.4406C23.0204 77.7229 23.4765 78.0972 23.8553 78.5637C24.2341 79.0301 24.5156 79.5803 24.6998 80.214C24.8789 80.8411 24.9198 81.5438 24.8226 82.322C24.74 82.9822 24.5532 83.5906 24.2621 84.1469C23.9711 84.7033 23.5949 85.1742 23.1336 85.5596C22.6723 85.945 22.1369 86.2284 21.5275 86.4097C20.9121 86.5902 20.2419 86.6352 19.5168 86.5445ZM24.2024 82.0379C24.2548 81.6193 24.2201 81.2258 24.0985 80.8573C23.9777 80.483 23.7769 80.1495 23.4961 79.857C23.2153 79.5644 22.8598 79.3194 22.4294 79.1219C21.999 78.9244 21.5009 78.7903 20.9349 78.7196C20.2982 78.64 19.7002 78.6341 19.1409 78.7019C18.5757 78.769 18.0786 78.9134 17.6497 79.1352C17.2157 79.3504 16.8612 79.6474 16.5864 80.0262C16.3115 80.4049 16.1402 80.8655 16.0724 81.4079C16.0201 81.8264 16.0547 82.22 16.1763 82.5884C16.292 82.9561 16.4869 83.2889 16.761 83.5866C17.0359 83.8784 17.3885 84.123 17.8189 84.3205C18.2434 84.5173 18.7386 84.651 19.3045 84.7218C19.9412 84.8014 20.5422 84.8076 21.1074 84.7406C21.6734 84.6676 22.1767 84.5209 22.6173 84.3006C23.0521 84.0795 23.4095 83.7829 23.6896 83.4108C23.9644 83.032 24.1354 82.5744 24.2024 82.0379Z" fill="white"/>
<path d="M20.4724 73.7202C19.9845 73.5897 19.5575 73.4847 19.1913 73.4052C18.8209 73.3184 18.5006 73.2512 18.2305 73.2036C17.9618 73.1502 17.734 73.1169 17.5468 73.1037C17.3612 73.0849 17.2035 73.0765 17.0738 73.0787L17.0394 73.0695L17.5713 71.0808L17.6057 71.09C17.7255 71.1712 17.8754 71.2544 18.0556 71.3395C18.2373 71.4188 18.4751 71.507 18.769 71.6041C18.6478 71.3441 18.5319 71.0763 18.4211 70.8007C18.3103 70.5251 18.2212 70.2491 18.1537 69.9727C18.0861 69.6963 18.0452 69.424 18.0308 69.1557C18.018 68.8817 18.0454 68.6184 18.113 68.3659C18.1544 68.2109 18.1991 68.0783 18.247 67.9681C18.2892 67.8564 18.3369 67.7585 18.3902 67.6743C18.4377 67.5886 18.4886 67.5131 18.543 67.4477C18.5917 67.3807 18.6396 67.3167 18.6867 67.2555L20.2182 68.1171L20.1446 68.2543C19.8737 68.2556 19.6383 68.331 19.4384 68.4805C19.2328 68.6285 19.0862 68.866 18.9987 69.1932C18.9511 69.3711 18.9328 69.5661 18.9437 69.7781C18.9546 69.9901 18.9906 70.2119 19.0517 70.4435C19.107 70.6736 19.1824 70.909 19.2779 71.1498C19.3677 71.389 19.4676 71.6249 19.5776 71.8573C19.741 71.9133 19.9203 71.9673 20.1154 72.0195C20.3106 72.0717 20.5172 72.127 20.7353 72.1853L22.9564 72.7794C23.4443 72.9099 23.8734 73.0186 24.2438 73.1053C24.6085 73.1906 24.9259 73.257 25.196 73.3047C25.4662 73.3523 25.6941 73.3856 25.8797 73.4045C26.0653 73.4234 26.2229 73.4317 26.3527 73.4295L26.3871 73.4387L25.8552 75.4275L25.8208 75.4183C25.7094 75.3516 25.5687 75.2801 25.3984 75.2038C25.2297 75.1218 25.0156 75.0369 24.7562 74.949C24.4984 74.8554 24.1902 74.7546 23.8316 74.6464C23.4689 74.5309 23.0436 74.4079 22.5558 74.2774L20.4724 73.7202Z" fill="white"/>
<path d="M29.4781 64.8512C29.2235 65.4596 28.8891 65.9895 28.4748 66.4408C28.0605 66.8922 27.5872 67.2383 27.0548 67.4793C26.517 67.7179 25.9287 67.8388 25.2897 67.8419C24.6476 67.8373 23.9758 67.6882 23.2743 67.3946C22.655 67.1354 22.1258 66.7916 21.6868 66.3632C21.2424 65.9324 20.9024 65.452 20.6669 64.922C20.4315 64.392 20.3062 63.8372 20.2911 63.2576C20.2783 62.6726 20.3911 62.0951 20.6297 61.5252C20.8659 60.9606 21.1836 60.4785 21.5827 60.0788C21.9764 59.6768 22.4329 59.3783 22.9524 59.1835C23.4687 58.981 24.0433 58.893 24.6762 58.9195C25.306 58.9383 25.9723 59.0851 26.6752 59.36C26.4051 59.9747 26.1377 60.5906 25.8731 61.2076C25.6084 61.8246 25.3362 62.4675 25.0564 63.1361C24.8568 63.6129 24.6646 64.0799 24.4797 64.5371C24.2972 64.9888 24.1357 65.3978 23.9952 65.7642C24.579 65.9698 25.1309 66.0977 25.6509 66.1479C26.1732 66.1925 26.6515 66.1576 27.0859 66.0431C27.517 65.9208 27.896 65.7155 28.2227 65.4272C28.5518 65.1334 28.8126 64.7563 29.0053 64.2959C29.1383 63.978 29.2277 63.6644 29.2734 63.3551C29.3159 63.038 29.3196 62.7368 29.2844 62.4516C29.2492 62.1664 29.1817 61.8966 29.082 61.6424C28.9768 61.3858 28.8465 61.1509 28.691 60.9377L28.7816 60.8597L29.9904 62.0804C30.02 62.4406 30.0036 62.8492 29.9412 63.3061C29.8733 63.7607 29.7189 64.2758 29.4781 64.8512ZM24.0057 63.8461C24.2351 63.298 24.4644 62.7499 24.6938 62.2019C24.92 61.646 25.1189 61.1399 25.2905 60.6836C24.793 60.5334 24.3265 60.4477 23.891 60.4265C23.4555 60.4052 23.0615 60.4465 22.709 60.5501C22.3565 60.6538 22.0482 60.821 21.7841 61.0519C21.5201 61.2827 21.3147 61.5735 21.1679 61.9243C21.0348 62.2422 20.9834 62.5652 21.0135 62.8934C21.0404 63.2138 21.1441 63.5277 21.3247 63.8351C21.5052 64.1425 21.762 64.4367 22.0952 64.7179C22.4229 64.9967 22.8261 65.2491 23.3047 65.4752C23.4188 65.2331 23.5333 64.9751 23.6479 64.7011C23.7626 64.427 23.8819 64.142 24.0057 63.8461Z" fill="white"/>
<path d="M34.5328 53.9755C34.5009 53.8646 34.4403 53.7185 34.3509 53.5373C34.2569 53.3523 34.1149 53.1508 33.9249 52.9329C33.6453 52.6182 33.3304 52.2669 32.9803 51.8788C32.6294 51.4824 32.2601 51.0709 31.8725 50.6444C31.4887 50.2132 31.0938 49.7767 30.6878 49.335C30.2811 48.885 29.8797 48.4471 29.4837 48.0213C29.0869 47.5871 28.7047 47.1727 28.3371 46.7779C27.9686 46.3748 27.6312 46.0087 27.3249 45.6797C27.0185 45.3507 26.7505 45.0687 26.5208 44.8336C26.2903 44.5901 26.1165 44.4086 25.9993 44.2891L26.7184 43.4151L38.3731 45.7447L33.8128 34.7918L34.3507 34.138L43.4552 39.7357C43.7385 39.915 43.9871 40.0618 44.2008 40.176C44.4145 40.2903 44.603 40.3838 44.7662 40.4566C44.9249 40.5256 45.061 40.5799 45.1746 40.6195C45.2874 40.6507 45.3845 40.6729 45.466 40.6861L45.4935 40.7087L44.0667 42.443L44.0392 42.4204C44.0076 42.3559 43.942 42.2673 43.8424 42.1546C43.7466 42.0373 43.6184 41.9126 43.4578 41.7805C43.3981 41.7314 43.3366 41.6847 43.2732 41.6402C43.2052 41.5919 43.1307 41.5422 43.0497 41.491L35.7376 36.9409L40.0362 47.286L39.5905 47.7156L28.5744 45.5075C29.5297 46.5627 30.4193 47.5293 31.2434 48.4073C31.5964 48.7823 31.9495 49.1574 32.3025 49.5325C32.651 49.9038 32.978 50.2498 33.2836 50.5704C33.5929 50.8864 33.8689 51.1635 34.1115 51.4016C34.3496 51.6359 34.5305 51.804 34.6544 51.9059C34.8104 52.0343 34.9518 52.1429 35.0787 52.2319C35.2055 52.3209 35.314 52.3947 35.4041 52.4535C35.5118 52.519 35.608 52.5751 35.6927 52.6217L34.5604 53.9981L34.5328 53.9755Z" fill="white"/>
<path d="M42.9596 37.5175C42.5429 36.9911 42.2554 36.4269 42.097 35.8248C41.935 35.2181 41.8931 34.6147 41.9713 34.0148C42.0542 33.4112 42.2548 32.8318 42.5732 32.2767C42.8915 31.7216 43.3185 31.2321 43.8542 30.808C44.3806 30.3913 44.9445 30.0889 45.5458 29.9009C46.148 29.7045 46.7487 29.6305 47.3479 29.6791C47.9471 29.7276 48.527 29.905 49.0877 30.2113C49.6531 30.5139 50.1626 30.9517 50.6162 31.5247C50.996 32.0045 51.2772 32.5321 51.4598 33.1074C51.6424 33.6826 51.7053 34.2694 51.6484 34.8676C51.5915 35.4658 51.4066 36.0554 51.0937 36.6365C50.7818 37.2093 50.3184 37.739 49.7035 38.2258C49.1818 38.6388 48.6221 38.9416 48.0245 39.1344C47.4269 39.3271 46.8285 39.3992 46.2293 39.3506C45.6302 39.3021 45.0497 39.1288 44.4881 38.8309C43.9227 38.5283 43.4132 38.0905 42.9596 37.5175ZM49.4604 37.5885C49.7912 37.3267 50.0423 37.0217 50.2139 36.6737C50.3902 36.3221 50.4807 35.9435 50.4856 35.538C50.4905 35.1326 50.4087 34.7086 50.2402 34.266C50.0717 33.8235 49.8105 33.3786 49.4565 32.9314C49.0582 32.4283 48.6359 32.0049 48.1895 31.6612C47.7394 31.3128 47.2837 31.0673 46.8224 30.9248C46.362 30.774 45.901 30.7373 45.4395 30.8147C44.9779 30.8922 44.5329 31.1005 44.1043 31.4398C43.7735 31.7016 43.5224 32.0065 43.3508 32.3545C43.1755 32.6978 43.0813 33.0718 43.0681 33.4762C43.0595 33.877 43.1395 34.2987 43.3079 34.7412C43.4727 35.1791 43.7321 35.6217 44.0861 36.0688C44.4843 36.5719 44.9085 36.9977 45.3586 37.3461C45.8133 37.6908 46.2751 37.9391 46.7438 38.0909C47.2088 38.238 47.6717 38.277 48.1322 38.208C48.5938 38.1305 49.0365 37.924 49.4604 37.5885Z" fill="white"/>
<path d="M52.6352 29.0346C52.3785 28.5997 52.1474 28.2256 51.9418 27.9123C51.7382 27.5909 51.5568 27.3186 51.3974 27.0953C51.2431 26.869 51.1038 26.6856 50.9795 26.5452C50.8603 26.4016 50.7536 26.2852 50.6595 26.1959L50.6414 26.1652L52.4142 25.1187L52.4323 25.1494C52.4609 25.2913 52.5096 25.4557 52.5786 25.6426C52.6527 25.8266 52.7605 26.0561 52.9022 26.3312C52.9979 26.0609 53.1028 25.7885 53.2168 25.5142C53.3309 25.2399 53.4606 24.9805 53.606 24.736C53.7515 24.4915 53.913 24.2685 54.0908 24.067C54.2736 23.8625 54.4776 23.6938 54.7027 23.5609C54.8408 23.4793 54.9656 23.416 55.077 23.371C55.1854 23.3208 55.288 23.2844 55.385 23.2616C55.4789 23.2338 55.5682 23.2156 55.6529 23.207C55.7345 23.1933 55.8135 23.1811 55.89 23.1705L56.3792 24.8583L56.2306 24.9046C56.0364 24.7157 55.8155 24.6046 55.5682 24.5713C55.3178 24.5328 55.0468 24.5996 54.7552 24.7718C54.5965 24.8654 54.4469 24.9917 54.3061 25.1506C54.1654 25.3096 54.0357 25.4931 53.917 25.7011C53.7953 25.9041 53.6842 26.1249 53.5837 26.3636C53.4801 26.5972 53.3862 26.8355 53.3019 27.0784C53.3793 27.2328 53.4693 27.397 53.572 27.571C53.6746 27.7449 53.7834 27.9291 53.8981 28.1235L55.0669 30.1036C55.3236 30.5384 55.5537 30.9166 55.7573 31.238C55.9578 31.5543 56.1377 31.8241 56.2971 32.0473C56.4565 32.2706 56.5958 32.454 56.715 32.5975C56.8342 32.741 56.9409 32.8574 57.035 32.9468L57.0531 32.9775L55.2803 34.0239L55.2622 33.9932C55.2294 33.8677 55.1791 33.718 55.111 33.5443C55.0481 33.3676 54.9548 33.157 54.8313 32.9126C54.7128 32.6652 54.5636 32.3773 54.3835 32.0489C54.2056 31.7124 53.9883 31.3267 53.7316 30.8918L52.6352 29.0346Z" fill="white"/>
<path d="M65.3141 28.9983C64.7062 29.254 64.0963 29.3978 63.4845 29.4295C62.8726 29.4613 62.2924 29.3766 61.7437 29.1756C61.1928 28.969 60.6883 28.643 60.2302 28.1976C59.7753 27.7444 59.4005 27.1673 59.1056 26.4663C58.8453 25.8474 58.7087 25.2314 58.6956 24.6181C58.6803 23.9994 58.7743 23.4184 58.9777 22.8752C59.1811 22.3321 59.4804 21.8484 59.8757 21.4244C60.2764 20.998 60.7616 20.665 61.3311 20.4255C61.8952 20.1882 62.4597 20.0668 63.0245 20.0612C63.5871 20.0502 64.1219 20.1572 64.6291 20.3822C65.1394 20.5994 65.611 20.9392 66.044 21.4016C66.4801 21.8562 66.8527 22.4278 67.1617 23.1165C66.5382 23.3658 65.9159 23.6179 65.2948 23.8727C64.6736 24.1275 64.029 24.3954 63.3609 24.6765C62.8844 24.8769 62.4201 25.0754 61.9678 25.2721C61.521 25.4664 61.1192 25.6451 60.7624 25.8081C61.0348 26.3638 61.339 26.8418 61.6749 27.2419C62.0162 27.6397 62.382 27.95 62.7721 28.1726C63.1654 28.3874 63.5796 28.5065 64.0148 28.5297C64.4554 28.5506 64.9058 28.4643 65.3658 28.2708C65.6834 28.1372 65.9669 27.9761 66.2163 27.7874C66.4688 27.5909 66.6824 27.3786 66.8572 27.1504C67.0319 26.9223 67.1728 26.6825 67.2798 26.4313C67.3845 26.1745 67.456 25.9156 67.4945 25.6545L67.6138 25.6624L67.6209 27.3803C67.3897 27.658 67.0917 27.938 66.7271 28.2203C66.3601 28.4971 65.8891 28.7565 65.3141 28.9983ZM62.1138 24.4469C62.6615 24.2165 63.2091 23.9862 63.7568 23.7558C64.3076 23.5177 64.8041 23.296 65.2462 23.0907C64.9965 22.6349 64.7238 22.2469 64.4279 21.9266C64.1321 21.6064 63.822 21.3597 63.4979 21.1867C63.1737 21.0136 62.8366 20.917 62.4865 20.8967C62.1363 20.8763 61.786 20.9399 61.4355 21.0873C61.1179 21.2209 60.8548 21.4154 60.6463 21.6706C60.4411 21.9181 60.2951 22.2148 60.2085 22.5605C60.122 22.9063 60.099 23.2963 60.1398 23.7303C60.1783 24.1588 60.289 24.6214 60.4722 25.1181C60.7232 25.0254 60.9856 24.9214 61.2595 24.8062C61.5333 24.6911 61.8181 24.5713 62.1138 24.4469Z" fill="white"/>
<path d="M77.9054 14.72L80.2153 15.4793L79.9556 16.154L77.7149 15.2659L78.1832 17.6275L77.4621 17.7457L77.1404 15.342L75.3033 16.9164L74.8418 16.3599L76.7709 14.9059L74.4772 14.1349L74.7369 13.4602L76.9804 14.3658L76.518 11.9853L77.2392 11.8671L77.5521 14.2722L79.3892 12.6978L79.8506 13.2543L77.9054 14.72Z" fill="white"/>
</svg>
