<svg width="26" height="26" viewBox="0 0 26 26" fill="none" xmlns="http://www.w3.org/2000/svg">
<path d="M18.7525 3.50852C17.6718 2.62369 16.4083 1.98972 15.0529 1.65233C13.6976 1.31494 12.2843 1.28254 10.915 1.55748C9.15425 1.91846 7.53443 2.77795 6.24843 4.03357C4.96243 5.28919 4.06447 6.88801 3.66151 8.63958C3.25855 10.3912 3.36758 12.2216 3.97561 13.913C4.58364 15.6043 5.66504 17.0853 7.091 18.1794C8.71905 19.3709 10.1052 20.8617 11.1754 22.5721L11.9045 23.7846C11.9971 23.9386 12.128 24.066 12.2845 24.1545C12.4409 24.2429 12.6175 24.2894 12.7972 24.2894C12.977 24.2894 13.1536 24.2429 13.31 24.1545C13.4665 24.066 13.5973 23.9386 13.69 23.7846L14.3889 22.62C15.3208 20.9818 16.5914 19.5613 18.116 18.4533C19.3114 17.6308 20.2994 16.5418 21.0019 15.2722C21.7044 14.0026 22.1022 12.5871 22.1641 11.1373C22.2259 9.68763 21.95 8.24338 21.3581 6.91855C20.7662 5.59373 19.8746 4.42456 18.7535 3.50331L18.7525 3.50852ZM12.7962 14.9158C11.9721 14.9158 11.1665 14.6714 10.4813 14.2136C9.79613 13.7558 9.26207 13.105 8.94671 12.3437C8.63134 11.5823 8.54883 10.7445 8.7096 9.93627C8.87037 9.12802 9.26721 8.38559 9.84993 7.80287C10.4326 7.22015 11.1751 6.82331 11.9833 6.66254C12.7916 6.50177 13.6294 6.58428 14.3907 6.89965C15.1521 7.21501 15.8028 7.74906 16.2607 8.43427C16.7185 9.11947 16.9629 9.92506 16.9629 10.7491C16.9629 11.8542 16.5239 12.914 15.7425 13.6954C14.9611 14.4768 13.9013 14.9158 12.7962 14.9158Z" fill="white"/>
</svg>
