<svg width="51" height="51" viewBox="0 0 51 51" fill="none" xmlns="http://www.w3.org/2000/svg">
<g clip-path="url(#clip0_167_536)">
<path d="M47.1096 1.72104H4.2498C2.28125 1.72104 0.679688 3.3225 0.679688 5.29116V21.8071C0.679688 22.2117 1.00762 22.5395 1.41211 22.5395C1.8166 22.5395 2.14453 22.2117 2.14453 21.8071V5.29116C2.14453 4.13032 3.08896 3.18588 4.2498 3.18588H47.1096C48.2704 3.18588 49.2148 4.13032 49.2148 5.29116V39.1789H36.8166L39.6933 38.1075C39.9576 38.009 40.2088 37.8835 40.4437 37.7348L40.7661 37.8939C41.1117 38.0643 41.4802 38.1457 41.844 38.1457C42.6479 38.1457 43.4296 37.7483 43.8934 37.0344C44.9483 35.4108 45.0233 33.3487 44.0892 31.6527C43.894 31.2985 43.4484 31.1696 43.0942 31.3646C42.7399 31.5598 42.611 32.0052 42.8062 32.3595C43.4792 33.5812 43.4251 35.0667 42.6651 36.2364C42.43 36.5985 41.9901 36.7568 41.587 36.6457C41.7695 36.3872 41.9236 36.1071 42.0423 35.8083C42.4642 34.7461 42.4163 33.549 41.9107 32.5238C41.4312 31.5514 40.6014 30.825 39.5741 30.4787C39.26 30.3727 38.9391 30.3066 38.6171 30.2791C38.5903 30.2503 38.5615 30.2228 38.5294 30.1979C36.5229 28.6428 33.0355 25.9759 32.2229 25.5853C31.4431 25.2105 30.9574 24.3519 30.7797 23.0332C30.7062 22.4882 30.703 21.9695 30.7186 21.5855C31.8545 21.6766 32.6093 22.2035 34.5811 24.0386C35.3098 24.7167 36.3345 25.5991 37.4194 26.5333C38.2499 27.2483 39.1087 27.9877 39.8588 28.6572C40.1989 28.9609 40.5281 29.2852 40.8372 29.621C41.111 29.9188 41.5744 29.9379 41.8722 29.6641C42.1698 29.3902 42.1892 28.9269 41.9152 28.6291C41.5739 28.2581 41.2103 27.8998 40.8344 27.5643C40.0745 26.8861 39.2106 26.1423 38.3753 25.4232C37.3014 24.4985 36.287 23.6251 35.579 22.9663C33.2695 20.8166 32.2554 20.0598 30.0741 20.1083C29.7874 20.0727 29.5285 19.905 29.3812 19.6522L28.8709 18.7763C30.0518 17.8805 30.816 16.4628 30.8155 14.8699L30.8146 11.7104C30.8142 10.4017 30.3041 9.17143 29.3785 8.24633C28.4532 7.32153 27.2234 6.81235 25.9154 6.81235C25.9148 6.81235 25.9143 6.81235 25.9137 6.81235L25.4419 6.81245C24.1332 6.81284 22.9029 7.32289 21.9778 8.24848C21.0526 9.17416 20.5435 10.4046 20.5438 11.7132L20.5447 14.8728C20.5452 16.4646 21.309 17.8807 22.4887 18.7758L22.0622 19.508C21.8766 19.8266 21.5613 20.0426 21.1974 20.1006C21.188 20.1021 21.179 20.1046 21.1698 20.1065C19.0678 20.0881 18.0486 20.855 15.7805 22.9663C15.0725 23.6251 14.0581 24.4985 12.9842 25.4232C12.1488 26.1423 11.2851 26.886 10.5251 27.5644C9.21582 28.7332 8.12061 30.1086 7.27012 31.6526C6.33584 33.3485 6.41084 35.4107 7.46582 37.0343C7.92969 37.7483 8.71113 38.1456 9.51514 38.1456C9.879 38.1456 10.2476 38.0642 10.5932 37.8937L10.9156 37.7346C11.1506 37.8833 11.4018 38.0088 11.6662 38.1073L14.5429 39.1787H2.14453V25.3227C2.14453 24.9181 1.8166 24.5903 1.41211 24.5903C1.00762 24.5903 0.679688 24.9181 0.679688 25.3227V46.4465C0.679688 48.1621 2.07539 49.5578 3.79092 49.5578H47.5684C49.2839 49.5578 50.6796 48.1621 50.6796 46.4465V5.29116C50.6797 3.3225 49.0781 1.72104 47.1096 1.72104ZM30.9183 33.458L29.8187 34.0055L25.6797 36.0664L21.7637 34.1165L20.4412 33.458L21.2554 31.8551H30.1041L30.9183 33.458ZM19.2171 27.2516L20.0348 31.0235L19.1298 32.8053L14.8831 30.6909C14.8224 30.6606 14.7611 30.632 14.6995 30.6049C16.3261 29.3552 18.238 27.9167 19.2171 27.2516ZM32.2296 32.8051L31.3245 31.0234L32.142 27.2525C32.9926 27.831 34.6297 29.0452 36.6594 30.605C36.5979 30.632 36.5368 30.6606 36.4763 30.6907L32.2296 32.8051ZM22.0087 11.7129C22.0084 10.7955 22.3654 9.93286 23.014 9.28403C23.6625 8.6352 24.5249 8.27758 25.4423 8.27729L25.9142 8.27719H25.9153C26.8322 8.27719 27.6945 8.63412 28.343 9.28237C28.9919 9.9309 29.3494 10.7933 29.3497 11.7107L29.3507 14.8702C29.3513 16.764 27.8109 18.3052 25.9172 18.3059L25.4454 18.306C25.445 18.306 25.4447 18.306 25.4443 18.306C23.5509 18.306 22.0103 16.7659 22.0097 14.8725L22.0087 11.7129ZM25.4441 19.7708H25.4457L25.9176 19.7707C26.5025 19.7705 27.0638 19.667 27.5843 19.4779L28.1153 20.3896C28.3808 20.8452 28.787 21.1933 29.26 21.3925C29.1967 22.5779 29.2724 25.0648 30.8264 26.4066L29.9628 30.3903H21.3963L20.5327 26.4066C22.1062 25.0481 22.1642 22.5156 22.0969 21.3487C22.6077 21.1223 23.0393 20.7407 23.3278 20.2454L23.775 19.4778C24.2963 19.6671 24.8583 19.7708 25.4441 19.7708ZM8.69424 36.2364C7.93428 35.0666 7.88018 33.5812 8.55322 32.3594C9.32363 30.961 10.3152 29.7153 11.5006 28.6573C12.2508 27.9877 13.1096 27.2483 13.9399 26.5333C15.0249 25.5992 16.0497 24.7167 16.7784 24.0386C18.7525 22.2011 19.5064 21.6752 20.6449 21.5852C20.6968 22.8534 20.4878 24.936 19.1364 25.5853C18.2242 26.0237 13.7881 29.4532 12.7221 30.2814C12.4068 30.3099 12.0927 30.3749 11.7852 30.4788C10.7578 30.8253 9.92803 31.5516 9.44863 32.5239C8.94307 33.549 8.89512 34.7461 9.31699 35.8083C9.43564 36.1072 9.58975 36.3873 9.77227 36.6458C9.36924 36.757 8.92959 36.5986 8.69424 36.2364ZM11.4738 36.3409C11.4604 36.3287 11.4463 36.3173 11.432 36.3063C11.1015 36.0341 10.8427 35.6813 10.6784 35.2675C10.4053 34.5797 10.4352 33.8355 10.7624 33.1717C11.0684 32.5512 11.5979 32.0877 12.2534 31.8667C12.9088 31.6456 13.611 31.6937 14.2302 32.002L28.4577 39.086H18.4907L12.1775 36.7347C11.9188 36.6384 11.6826 36.5054 11.4738 36.3409ZM31.8984 39.1627L27.3229 36.8845L37.1291 32.0019C37.7485 31.6935 38.4503 31.6456 39.106 31.8665C39.7614 32.0877 40.291 32.5512 40.597 33.1716C40.9243 33.8354 40.9541 34.5797 40.6809 35.2675C40.4077 35.9553 39.8754 36.4763 39.1819 36.7345C39.1819 36.7345 32.6772 39.1611 32.6455 39.1786H31.9274C31.9178 39.1735 31.9084 39.1677 31.8984 39.1627ZM49.2148 46.4464C49.2148 47.3542 48.4763 48.0928 47.5685 48.0928H3.79092C2.88311 48.0928 2.14453 47.3542 2.14453 46.4464V40.6436H49.2148V46.4464Z" fill="#AEA17E"/>
<path d="M8.68369 45.0042H10.8923C11.1922 45.8266 11.982 46.4154 12.9067 46.4154C13.8315 46.4154 14.6214 45.8266 14.9213 45.0042H46.3879C46.7925 45.0042 47.1203 44.6764 47.1203 44.2718C47.1203 43.8672 46.7925 43.5394 46.3879 43.5394H14.9214C14.6215 42.7171 13.8316 42.1284 12.9068 42.1284C11.982 42.1284 11.1923 42.7171 10.8924 43.5394H8.68369C8.27919 43.5394 7.95126 43.8672 7.95126 44.2718C7.95126 44.6764 8.27919 45.0042 8.68369 45.0042ZM12.9068 43.5931C13.281 43.5931 13.5855 43.8975 13.5855 44.2717C13.5855 44.6459 13.281 44.9504 12.9068 44.9504C12.5326 44.9504 12.2282 44.6459 12.2282 44.2717C12.2282 43.8975 12.5326 43.5931 12.9068 43.5931Z" fill="#AEA17E"/>
</g>
<defs>
<clipPath id="clip0_167_536">
<rect width="50" height="50" fill="white" transform="translate(0.679688 0.639404)"/>
</clipPath>
</defs>
</svg>
