<svg width="81" height="81" viewBox="0 0 81 81" fill="none" xmlns="http://www.w3.org/2000/svg">
<path d="M67.6469 67.0355C68.9925 66.7124 70.1341 65.7655 70.7004 64.5027L71.181 63.4311C71.8816 61.8686 71.6175 60.0158 70.5082 58.7111C70.0722 58.1986 69.516 57.7849 68.8994 57.5146L67.1522 56.7489C64.9532 55.7852 62.6563 55.1477 60.2978 54.8367L57.9794 41.248C57.9704 41.1889 57.9628 41.1296 57.9569 41.0702L57.6938 38.4389C57.3738 35.238 56.7538 32.0489 55.851 28.9602L55.5135 27.8055C55.2507 26.9058 54.7541 26.088 54.0775 25.4396C53.19 24.5896 52.0125 24.1489 50.811 24.1939L45.8147 21.8961C45.9325 21.723 46.0485 21.5458 46.1616 21.3602C47.4891 19.1774 48.2619 16.4446 48.2291 14.0489C48.1966 11.6821 47.3769 9.4633 45.9213 7.80142C45.7113 7.56174 45.491 7.33986 45.2625 7.13205C45.3125 6.90455 45.3582 6.65705 45.3547 6.39705C45.3172 3.67799 43.076 1.48955 40.355 1.53361C37.636 1.57143 35.4544 3.81424 35.4916 6.53299C35.4957 6.8133 35.5532 7.04674 35.6135 7.2558C35.3879 7.47268 35.17 7.70361 34.9641 7.95268C33.555 9.65392 32.7966 11.8942 32.8291 14.2614C32.8622 16.6567 33.71 19.3677 35.0972 21.513C35.1772 21.6364 35.2588 21.7552 35.3407 21.873L30.0107 24.1939C28.8069 24.1474 27.6266 24.5877 26.7375 25.4392C26.061 26.0877 25.5644 26.9055 25.3016 27.8049L24.9638 28.9599C24.061 32.0486 23.441 35.2377 23.121 38.4386L22.8582 41.0689C22.8519 41.1286 22.8444 41.1883 22.8366 41.2396L20.7004 53.953C18.6835 54.1305 16.7041 54.7214 14.92 55.7158C13.8075 56.3355 13.001 57.4021 12.7075 58.6417C12.3088 60.3258 12.9172 62.1208 14.2579 63.2155C15.5482 64.2686 16.99 65.0905 18.5294 65.6589L18.26 73.7042C18.2597 73.7177 18.2597 73.7311 18.26 73.7446C18.2629 73.8367 18.2338 73.9027 18.2204 73.9183L16.4744 75.9339C16.0935 76.3739 15.9469 77.0364 16.0916 77.6627C16.2166 78.2042 16.5391 78.6217 16.9757 78.808L18.7535 79.5661C18.9082 79.6317 19.0732 79.6649 19.2316 79.6649C19.2844 79.6649 19.3363 79.6611 19.3872 79.6539L23.5716 79.1558C23.9913 79.0946 24.361 78.8164 24.586 78.3936C24.8572 77.8833 24.8904 77.2517 24.6813 76.7102L25.736 76.5474C26.2054 76.4758 26.5791 76.0845 26.666 75.5745C26.7832 74.8858 26.3991 74.2308 25.8097 74.1142L23.1444 73.5867C23.1382 73.5692 23.1319 73.5458 23.1291 73.5164L24.27 68.8402C26.0019 69.7739 27.8769 70.6096 29.2485 70.7502C32.2357 71.058 39.3247 69.3849 40.5482 69.0883C41.6744 69.4367 47.8775 71.3164 50.6185 71.3164C51.9241 71.3164 54.5594 70.6524 57.1363 69.8964L58.1838 73.5267C58.1807 73.5514 58.1754 73.5717 58.1697 73.5867L55.5047 74.1142C54.9153 74.2308 54.531 74.8858 54.6482 75.5745C54.735 76.0849 55.1088 76.4758 55.5775 76.5474L56.6325 76.7102C56.4235 77.2514 56.4566 77.8833 56.7278 78.3936C56.9529 78.8167 57.3225 79.0946 57.7588 79.158L61.9116 79.6517C61.9682 79.6599 62.025 79.6639 62.0816 79.6639C62.2447 79.6639 62.4075 79.6308 62.5613 79.5658L64.3382 78.808C64.7747 78.6217 65.0972 78.2042 65.2222 77.6627C65.3669 77.0364 65.2204 76.3739 64.8391 75.9339L63.0935 73.9186C63.0797 73.9027 63.0504 73.8367 63.0535 73.7446C63.0541 73.7221 63.0535 73.6989 63.0519 73.6761L62.6175 68.1586C63.2357 67.9502 63.6547 67.8046 63.7904 67.7574C65.0863 67.5792 66.3744 67.3411 67.6469 67.0355ZM23.8035 65.3871C22.8713 62.7358 23.0878 59.8224 24.4191 57.3324L24.5144 57.1542C29.565 56.5727 44.355 58.348 44.5129 58.3674C44.6897 58.3889 44.8685 58.3333 45.0025 58.2149C45.1363 58.0961 45.2129 57.9258 45.2129 57.7471V56.6583C45.2129 56.3124 45.3666 55.9877 45.6347 55.7686C45.8554 55.588 46.1319 55.4958 46.4185 55.5102L50.1319 55.6914C50.2988 55.6971 50.46 55.6411 50.5829 55.5292L54.8685 51.6333C55.0232 51.4927 55.2207 51.4211 55.4316 51.4311L56.741 51.4933C56.8716 51.4995 57 51.5389 57.1116 51.6067C57.3253 51.7377 57.4607 51.9555 57.4828 52.2049C57.505 52.4542 57.41 52.6927 57.2225 52.8586L54.4103 55.3514C54.13 55.6002 53.8182 55.8136 53.4844 55.9858L47.196 59.2283C47.1847 59.2339 47.1741 59.2399 47.1635 59.2464L44.64 60.7449C41.8232 62.4174 38.7657 63.5911 35.5532 64.2339L32.8572 64.773C29.8744 65.3696 26.8354 65.5752 23.8035 65.3871ZM24.8344 54.1799C24.7544 53.5586 25.0925 52.9421 25.6829 52.6914C25.9619 52.5724 26.2772 52.5467 26.5729 52.6186L27.1041 52.7477C28.1763 53.008 29.1035 53.6567 29.7157 54.5749L29.9175 54.878C30.0116 55.0189 30.1588 55.1158 30.3257 55.1461L31.9475 55.4411C32.4854 55.5389 32.9929 55.7508 33.44 56.0527C32.0216 55.9542 30.6057 55.8749 29.2847 55.8308L26.0269 54.4736C26.0047 54.4646 25.9822 54.4564 25.9594 54.4502C25.5879 54.343 25.2119 54.2558 24.8344 54.1799ZM29.9216 45.7277L30.1669 46.3511C30.7907 47.9352 30.98 49.6614 30.7147 51.343L30.3907 53.398C29.9869 52.9139 29.5075 52.5055 28.9729 52.1839L29.9216 45.7277ZM31.8663 52.0655H49.8591L50.2535 54.1395L49.9338 54.4302L46.4794 54.2614C45.8841 54.233 45.3038 54.4242 44.8432 54.8014C44.2838 55.2589 43.9629 55.9358 43.9629 56.6583V57.0442C42.5163 56.8767 39.085 56.4958 35.3772 56.198C34.5988 55.1636 33.45 54.4436 32.1713 54.2111L31.546 54.0974L31.8663 52.0655ZM50.9854 51.2958C50.7282 49.9427 50.7725 48.5408 51.11 47.2071L51.9075 52.6361L51.3385 53.1533L50.9854 51.2958ZM45.2779 61.8196L47.7854 60.3305L49.0769 59.6646L50.0113 59.5461C53.0225 59.1633 56.115 59.3317 59.0757 60.0255C58.1991 62.213 58.2272 64.6999 59.1685 66.8696C58.9203 66.8745 58.6722 66.8808 58.4244 66.8811L53.9757 66.8852C53.9635 66.8852 53.9516 66.8852 53.9397 66.8852C51.0907 66.8852 48.2375 66.5661 45.4597 65.937L39.2863 64.5386C41.3716 63.8546 43.3779 62.9477 45.2779 61.8196ZM68.3972 58.6596C68.841 58.8539 69.2419 59.1521 69.5557 59.5211C70.3544 60.4605 70.5447 61.7942 70.0404 62.9196L69.5597 63.9911C69.1507 64.903 68.3266 65.5864 67.3547 65.8205C65.1128 66.3586 62.8216 66.6921 60.5191 66.8202L60.4191 66.6102C59.4832 64.6436 59.4454 62.338 60.2941 60.3442C60.631 60.4411 60.9666 60.5424 61.2991 60.6533L63.0432 61.2346L63.4385 60.0486L61.6944 59.4674C58.6116 58.4402 55.3257 57.9833 52.0735 58.1199L54.0569 57.0971C54.4832 56.8774 54.8813 56.6049 55.2394 56.287L55.7657 55.8205L57.6588 55.8749C60.7716 55.9642 63.7966 56.6436 66.6497 57.8939L68.3972 58.6596ZM57.695 54.6255L57.1322 54.6092L58.0516 53.7945C58.3666 53.5152 58.5791 53.1571 58.6757 52.7639L59.0057 54.6986C58.5707 54.6636 58.1338 54.638 57.695 54.6255ZM53.2116 26.3421C53.7304 26.8392 54.111 27.4664 54.3125 28.1561L54.6504 29.3111C55.5316 32.3255 56.1366 35.4386 56.4491 38.5633L56.7122 41.1942C56.7203 41.2761 56.731 41.3571 56.7447 41.4483L58.4013 51.1586C58.2394 50.9127 58.0247 50.7008 57.7628 50.5405C57.4725 50.3636 57.1397 50.2611 56.8 50.2449L55.491 50.1827C54.9507 50.1577 54.4294 50.3436 54.0272 50.7089L53.0216 51.623L51.5141 41.3608C51.1625 38.9686 50.5454 36.6111 49.6791 34.3539L47.9472 29.8405C47.6635 29.1011 47.6604 28.2852 47.9385 27.5433C48.3219 26.5208 49.1866 25.7655 50.2516 25.523C51.3166 25.2792 52.4232 25.5864 53.2116 26.3421ZM40.371 2.78299C42.351 2.74986 43.98 4.29799 44.0929 6.25111C42.9682 5.56424 41.7072 5.2083 40.405 5.22455C39.0994 5.24268 37.8504 5.63299 36.7466 6.35049C36.8066 4.39611 38.3969 2.81049 40.371 2.78299ZM35.9257 8.74955C37.1216 7.3058 38.7185 6.49799 40.4222 6.47455C40.4479 6.47424 40.4732 6.47393 40.4988 6.47393C42.1741 6.47393 43.7629 7.2358 44.9797 8.62486C46.1644 9.97736 46.8544 11.768 46.9575 13.6971C45.4429 12.5617 42.56 10.637 40.4219 10.637C38.2997 10.637 35.5579 12.5177 34.0944 13.6542C34.186 11.8058 34.8222 10.0814 35.9257 8.74955ZM34.1435 15.2196C35.4344 14.1249 38.476 11.887 40.4216 11.887C42.3716 11.887 45.5575 14.1442 46.9175 15.2474C46.7338 17.1033 46.0879 19.0727 45.0922 20.7102C43.8385 22.7717 42.2241 23.9664 40.6632 23.9877C39.1044 24.0174 37.456 22.8599 36.1457 20.8333C35.0672 19.1652 34.351 17.1289 34.1435 15.2196ZM42.8354 24.6861C42.5394 25.6367 41.6516 26.3286 40.6047 26.3286C39.5557 26.3286 38.6663 25.6333 38.3725 24.6796C39.101 25.0471 39.8554 25.2383 40.6172 25.2383C40.6382 25.2383 40.6594 25.2383 40.6804 25.238C41.4157 25.2277 42.1394 25.0383 42.8354 24.6861ZM37.0194 23.7661V23.993C37.0194 25.9699 38.6279 27.5786 40.605 27.5786C42.5822 27.5786 44.1907 25.9702 44.1907 23.993V23.7602C44.4797 23.508 44.7613 23.2258 45.0335 22.9127L48.9075 24.6942C47.9319 25.1983 47.1647 26.0477 46.7688 27.1036C46.3835 28.1317 46.3875 29.2624 46.781 30.2874L48.5129 34.8008C49.346 36.9721 49.94 39.2399 50.2779 41.5414L50.6904 44.3495L50.075 46.2786C49.6091 47.7402 49.4654 49.2942 49.6482 50.8146H32.0382C32.1869 49.1452 31.946 47.4577 31.3297 45.8927L30.2863 43.2417L30.536 41.5414C30.8741 39.2399 31.4682 36.9721 32.3013 34.8008L34.0332 30.2874C34.4266 29.2624 34.4307 28.1317 34.0454 27.1036C33.6544 26.0611 32.9007 25.2217 31.9429 24.7155L36.1357 22.8886C36.4222 23.2127 36.7166 23.5071 37.0194 23.7661ZM24.0707 41.4386C24.0832 41.3577 24.0935 41.2767 24.1019 41.1949L24.365 38.5636C24.6775 35.4389 25.2825 32.3258 26.1638 29.3114L26.5016 28.1561C26.7032 27.4667 27.0838 26.8396 27.6025 26.3424C28.391 25.5867 29.4988 25.2799 30.5622 25.523C31.6272 25.7652 32.4919 26.5205 32.8754 27.5433C33.1535 28.2852 33.1504 29.1008 32.8666 29.8405L31.1347 34.3539C30.2688 36.6111 29.6513 38.9686 29.2997 41.3608L27.7888 51.6474C27.6604 51.6061 27.5313 51.5655 27.3991 51.5333L26.8682 51.4042C26.3138 51.2692 25.7191 51.3183 25.1938 51.5411C24.1975 51.9646 23.5766 52.943 23.5691 53.9839C23.04 53.9258 22.5091 53.8967 21.9779 53.897L24.0707 41.4386ZM13.9241 58.9302C14.1369 58.0311 14.7219 57.2574 15.5288 56.808C17.5038 55.7074 19.7397 55.1424 21.9819 55.1424C23.1929 55.1424 24.4057 55.3071 25.58 55.6414L25.9844 55.8099C24.9354 55.8424 24.0563 55.923 23.4363 56.0658L17.8619 57.3521L18.1429 58.5702L22.9707 57.4561C21.8657 59.923 21.685 62.6917 22.4554 65.2774L22.3663 65.2686C19.6744 65.0021 17.1438 63.9574 15.0485 62.2471C14.076 61.4539 13.6347 60.1517 13.9241 58.9302ZM21.8957 73.2977C21.8857 73.3386 21.8797 73.3805 21.8782 73.4224C21.8529 74.1061 22.2494 74.6845 22.82 74.7967L25.4357 75.3146V75.3292L23.6991 75.5964C23.5038 75.6274 23.3179 75.762 23.2263 75.9377C23.1291 76.1239 23.1257 76.3477 23.2166 76.5349L23.4932 77.1099C23.5844 77.2996 23.5897 77.5524 23.5066 77.7539C23.4575 77.873 23.4004 77.9152 23.4069 77.9167L19.2425 78.4161L17.4657 77.6583C17.4244 77.6405 17.3485 77.5524 17.3091 77.3814C17.255 77.1483 17.3004 76.8896 17.4191 76.7524L19.1654 74.7364C19.3916 74.4749 19.5166 74.1086 19.51 73.7283L19.7663 66.0767C20.1997 66.3755 21.5282 67.2733 23.1379 68.2064L21.8957 73.2977ZM40.7554 67.8439C40.646 67.8099 40.5288 67.8061 40.4175 67.8336C40.3375 67.8533 32.3663 69.8142 29.3754 69.507C27.6488 69.3299 24.8522 67.803 22.8266 66.5652C23.876 66.6564 24.9266 66.7049 25.9769 66.7049C28.3663 66.7046 30.7513 66.4686 33.1019 65.9983L35.7975 65.4592C36.1188 65.3949 36.4369 65.3211 36.755 65.2467L45.1828 67.1558C48.0516 67.8058 50.9972 68.1352 53.9391 68.1352H53.9763L58.425 68.1311C58.5038 68.1311 58.5825 68.128 58.6613 68.1274C55.6685 69.0608 52.1016 70.0661 50.6175 70.0661C47.8525 70.0664 40.826 67.8661 40.7554 67.8439ZM61.8032 73.7446C61.8003 74.1189 61.925 74.4789 62.1482 74.7371L63.8938 76.7527C64.0125 76.8895 64.0578 77.1486 64.0038 77.3817C63.9644 77.5527 63.8885 77.6408 63.8472 77.6586L62.0738 78.413L57.9241 77.9199C57.9125 77.9155 57.8554 77.8736 57.8063 77.7546C57.7232 77.553 57.7285 77.3005 57.8197 77.1105L58.0954 76.537C58.1869 76.3483 58.1835 76.1242 58.0863 75.938C57.9944 75.7621 57.8075 75.6271 57.6113 75.5967L55.8763 75.3296C55.8763 75.3246 55.8763 75.3199 55.8763 75.3155L58.4919 74.7974C59.0635 74.6852 59.46 74.1067 59.4347 73.423C59.4328 73.3724 59.4247 73.3217 59.4107 73.273L58.3328 69.5386C59.4478 69.1983 60.5069 68.8583 61.395 68.5664L61.8032 73.7446Z" fill="#3D493A"/>
</svg>
