<svg width="40" height="41" viewBox="0 0 40 41" fill="none" xmlns="http://www.w3.org/2000/svg">
<g clip-path="url(#clip0_220_131)">
<path d="M39.9266 25.7382C39.808 25.4604 39.5602 25.2598 39.2638 25.2017L37.5116 24.858C37.3145 24.8193 37.1137 24.8146 36.9153 24.8441L36.3232 24.9319C35.8761 24.9984 35.4123 24.9603 34.9822 24.8221C33.7118 24.4135 31.2114 23.504 28.6774 21.9864C28.0519 20.9427 27.0004 18.6145 26.8358 17.9014L26.8083 17.7805C26.6017 16.8708 26.1718 14.9779 24.9567 14.431C24.2085 14.0945 23.5218 14.0107 22.97 13.9434C22.6337 13.9024 22.3433 13.867 22.1022 13.7865C21.779 13.6787 21.3596 13.4091 21.4095 12.3281C21.5924 12.1351 21.7626 11.9018 21.9163 11.6306C22.3623 10.8433 22.6182 9.8155 22.6182 8.81087C22.6182 6.85654 21.564 5.54352 19.9949 5.54352C18.4259 5.54352 17.3716 6.85654 17.3716 8.81087C17.3716 10.0772 17.844 11.439 18.5872 12.2512C18.5873 12.2538 18.5867 12.2562 18.5869 12.2588C18.6585 13.3982 18.2278 13.6764 17.8977 13.7866C17.6566 13.8671 17.3662 13.9025 17.0299 13.9435C16.4781 14.0108 15.7914 14.0946 15.0431 14.4312C13.8281 14.9781 13.3982 16.8709 13.1916 17.7806L13.164 17.9015C12.9995 18.6147 11.948 20.9428 11.3225 21.9865C8.78859 23.5042 6.28807 24.4137 5.01775 24.8221C4.58764 24.9604 4.12401 24.9983 3.67675 24.932L3.08473 24.8442C2.88601 24.8148 2.68529 24.8195 2.48839 24.858L0.736159 25.2018C0.439718 25.26 0.191962 25.4604 0.0733677 25.7383C-0.0453127 26.016 -0.0188046 26.3337 0.144143 26.588L0.541766 27.2085C0.919204 27.7977 1.56207 28.1617 2.26133 28.1823C2.26133 28.1823 2.56964 28.1911 2.59061 28.1911C3.09599 28.1911 3.58284 28.0115 3.96756 27.6816L4.23195 27.455C4.37471 27.3326 4.52995 27.2296 4.69576 27.1461C4.74782 28.0842 5.50105 28.6108 6.65424 29.4169C6.90451 29.5919 7.18813 29.7902 7.48977 30.0095C8.7347 30.915 10.5273 31.4139 12.4252 31.9421C13.5323 32.2503 14.6772 32.5688 15.8107 32.9885C18.0227 33.8076 18.3029 34.6691 18.3209 35.0019C18.3351 35.2582 18.5001 35.484 18.7423 35.5776C18.8188 35.6068 18.8981 35.6217 18.978 35.6217C19.3079 35.6217 19.5889 35.3746 19.6316 35.047L19.9902 32.285C20.0369 31.9232 19.9117 31.5717 19.6466 31.3208C19.3818 31.0703 19.0244 30.9644 18.6664 31.0312L18.323 31.0949L18.2337 31.0808L19.985 30.6166L21.7602 31.0817L21.6771 31.0948L21.3338 31.0311C20.9753 30.9644 20.6183 31.0701 20.3535 31.3207C20.0884 31.5716 19.9632 31.9231 20.01 32.2852L20.3686 35.0469C20.4112 35.3745 20.6922 35.6216 21.0222 35.6216C21.1021 35.6216 21.1813 35.6068 21.2589 35.5771C21.5 35.484 21.6651 35.2581 21.6794 35.0013C21.6972 34.6689 21.9775 33.8074 24.1895 32.9883C25.3229 32.5686 26.4678 32.2501 27.5749 31.942C29.4729 31.4137 31.2655 30.9149 32.5104 30.0095C32.812 29.79 33.0956 29.5917 33.3459 29.4167C34.4989 28.6107 35.2521 28.0842 35.3043 27.1458C35.4701 27.2294 35.6255 27.3324 35.7682 27.4549L36.0325 27.6813C36.4173 28.0113 36.9041 28.191 37.4096 28.191C37.4305 28.191 37.7388 28.1821 37.7388 28.1821C38.4381 28.1615 39.081 27.7975 39.4584 27.2083L39.856 26.5879C40.0188 26.3336 40.0453 26.0159 39.9266 25.7382ZM24.6397 25.4323C24.4299 25.0865 23.8504 23.9592 24.0033 22.2882C24.012 22.2701 24.0187 22.2514 24.0229 22.2323C24.3978 21.6154 24.6178 21.0421 24.651 20.1073C25.0989 21.2121 25.6732 22.2917 26.4415 23.4923C26.6114 23.7578 26.8498 23.976 27.1312 24.1232C27.6415 24.3905 28.3764 24.7093 29.3239 25.0746C29.25 25.0807 29.1756 25.0872 29.1005 25.0938C26.4901 25.3267 25.0746 25.4096 24.6397 25.4323ZM23.4351 22.1421C23.2632 22.275 22.9063 22.4559 22.3241 22.3265C22.1844 22.2953 22.0452 22.3837 22.014 22.5238C21.9829 22.6639 22.0713 22.8028 22.2113 22.8339C22.3921 22.8741 22.5581 22.8911 22.7099 22.8911C23.0174 22.8911 23.2654 22.8205 23.4585 22.7297C23.4332 24.1521 23.882 25.1514 24.1328 25.5958C21.5788 26.854 19.4447 26.7819 18.0877 26.4904C16.9788 26.2521 16.1978 25.8342 15.852 25.6223C16.0997 25.1912 16.569 24.1777 16.5415 22.7223C16.7368 22.8169 16.9905 22.8912 17.3067 22.8912C17.4584 22.8912 17.6246 22.8742 17.8053 22.834C17.9453 22.8029 18.0337 22.664 18.0026 22.5239C17.9714 22.3838 17.8327 22.2953 17.6925 22.3266C17.0535 22.4685 16.6845 22.2349 16.5349 22.1026C16.4942 22.0666 16.4007 21.9301 16.3722 21.8821C16.0463 21.3343 15.8377 20.7952 15.8682 19.6358C16.4825 19.2081 16.8774 18.186 17.0427 16.5922C17.1361 15.6914 17.131 14.854 17.1208 14.4559C17.1849 14.4481 17.2483 14.4402 17.3108 14.4321C17.4368 17.3855 18.5631 19.5773 19.9844 19.5773C21.4073 19.5773 22.5334 17.3839 22.6581 14.4281C22.7208 14.4364 22.7846 14.4443 22.8488 14.4522C22.8386 14.8488 22.8332 15.6886 22.9269 16.5922C23.0949 18.2122 23.5004 19.2408 24.1321 19.6557C24.1611 20.8621 23.9288 21.3925 23.575 21.9689C23.561 21.9919 23.4698 22.1152 23.4351 22.1421ZM15.9948 22.2618C16.0951 23.3085 15.9026 24.1375 15.7213 24.6521C15.5895 25.0263 15.4446 25.2927 15.36 25.4323C14.925 25.4096 13.5095 25.3266 10.8996 25.0938C10.8246 25.0872 10.7501 25.0807 10.6762 25.0746C11.6236 24.7094 12.3584 24.3906 12.8689 24.1232C13.1501 23.976 13.3886 23.7577 13.5585 23.4923C14.3268 22.2917 14.9011 21.2121 15.349 20.1073C15.3828 21.057 15.6089 21.6335 15.9948 22.2618ZM19.9949 6.0632C21.2727 6.0632 22.0984 7.14163 22.0984 8.81078C22.0984 10.7234 21.1188 12.4652 20.0431 12.4652C18.9371 12.4652 17.8914 10.6892 17.8914 8.81078C17.8914 7.14163 18.7171 6.0632 19.9949 6.0632ZM18.0622 14.2795C18.7096 14.0635 19.0591 13.5311 19.1073 12.6966C19.3957 12.8803 19.7102 12.985 20.0431 12.985C20.3384 12.985 20.6253 12.9013 20.8955 12.7426C20.9537 13.5507 21.3023 14.0675 21.9377 14.2795C22.0035 14.3015 22.0716 14.3202 22.1413 14.3371C22.0937 15.6191 21.8432 16.805 21.4288 17.6955C21.0262 18.561 20.4998 19.0575 19.9846 19.0575C19.4702 19.0575 18.9442 18.5616 18.5415 17.6972C18.1274 16.8081 17.8765 15.6245 17.8281 14.3446C17.9084 14.326 17.9868 14.3047 18.0622 14.2795ZM4.74669 26.5569C4.43457 26.6732 4.14818 26.8422 3.89375 27.0602L3.62936 27.2868C3.32703 27.5458 2.94128 27.6825 2.54305 27.6705L2.27667 27.6626C1.74919 27.647 1.26416 27.3724 0.979411 26.9281L0.581788 26.3075C0.547743 26.2544 0.527905 26.1962 0.521668 26.1367C0.749673 26.2476 1.08458 26.3672 1.47241 26.3672C1.7407 26.3672 2.03411 26.3099 2.3341 26.153C2.46127 26.0866 2.51056 25.9295 2.44403 25.8024C2.3775 25.6752 2.22036 25.6259 2.09336 25.6924C1.60738 25.9462 1.13699 25.8379 0.838987 25.7112L2.58853 25.3679C2.72722 25.3407 2.86851 25.3374 3.0085 25.3582L3.60052 25.4461C4.12609 25.524 4.67115 25.4794 5.17689 25.3168C6.47787 24.8985 9.04812 23.9631 11.6456 22.3987C11.6814 22.3771 11.7114 22.3472 11.7332 22.3116C12.3868 21.243 13.4912 18.7954 13.6705 18.0182L13.6986 17.8955C13.8719 17.1324 14.2777 15.3454 15.2565 14.905C15.7369 14.6888 16.1869 14.5885 16.6023 14.5247C16.6107 14.9304 16.6112 15.7187 16.5253 16.5444C16.4186 17.5682 16.2094 18.3449 15.9202 18.8166C15.9377 18.6315 15.9593 18.4345 15.9856 18.2234C16.0025 18.0884 15.9124 17.9633 15.7792 17.9364C15.6459 17.9087 15.5144 17.9897 15.4777 18.1207C14.9821 19.8824 14.2773 21.405 13.1209 23.2121C12.9998 23.4016 12.8292 23.5574 12.6279 23.6629C11.9535 24.016 10.8638 24.466 9.38849 25.0004C6.56788 24.9118 5.0077 25.4364 4.74669 26.5569ZM18.374 31.6141L18.7612 31.5422C18.9544 31.5065 19.1466 31.5633 19.2894 31.6984C19.4324 31.8338 19.5 32.0232 19.4748 32.2182L19.1161 34.9798C19.1057 35.0591 19.0372 35.1018 18.978 35.1018C18.9614 35.1018 18.945 35.0986 18.9287 35.0924C18.8776 35.0726 18.8428 35.0258 18.8399 34.9735C18.8375 34.9296 18.8323 34.882 18.824 34.8319C18.7238 33.9166 18.733 32.848 18.9263 32.6271C19.0208 32.5191 19.0098 32.3548 18.9018 32.2604C18.7938 32.1658 18.6295 32.177 18.5351 32.2848C18.4495 32.3827 18.2282 32.7401 18.2352 33.7934C17.8185 33.375 17.1272 32.9218 15.9911 32.5011C14.8374 32.0738 13.6819 31.7523 12.5645 31.4414C11.1924 31.0596 9.87733 30.693 8.81224 30.1829C8.88977 29.9394 9.04041 29.507 9.26418 29.0436C9.67713 28.1884 10.1538 27.6084 10.6475 27.3572C12.0293 27.7432 12.9731 28.7542 13.4454 29.2609C13.5206 29.3416 13.5848 29.4104 13.638 29.4635C14.0216 29.8472 15.4673 30.6049 16.6125 31.173C16.9623 31.3466 17.3354 31.4655 17.7215 31.5264L18.2859 31.6155C18.3152 31.6198 18.3449 31.6196 18.374 31.6141ZM27.4354 31.4412C26.318 31.7522 25.1625 32.0737 24.0088 32.5009C22.8605 32.9261 22.1672 33.3845 21.752 33.8064C21.7496 33.342 21.7094 32.8095 21.5806 32.3306C21.5434 32.192 21.4008 32.1104 21.2622 32.1471C21.1236 32.1844 21.0414 32.327 21.0787 32.4656C21.3104 33.327 21.2208 34.4297 21.1791 34.8123C21.1688 34.8697 21.1628 34.9235 21.1602 34.973C21.1573 35.0257 21.1223 35.0726 21.0723 35.092C21.055 35.0986 21.0386 35.1018 21.022 35.1018C20.9628 35.1018 20.8942 35.0591 20.8839 34.9799L20.5252 32.2185C20.5 32.0232 20.5676 31.8338 20.7106 31.6984C20.8534 31.5633 21.0459 31.5065 21.2388 31.5422L21.626 31.6141C21.6551 31.6196 21.6847 31.6199 21.714 31.6153L22.2784 31.5262C22.6644 31.4653 23.0375 31.3465 23.3874 31.1729C24.5326 30.6047 25.9784 29.8469 26.3619 29.4634C26.415 29.4102 26.4793 29.3415 26.5545 29.2607C27.0199 28.7615 27.9429 27.7725 29.2919 27.3745C30.3155 27.9239 30.9329 29.6737 31.1047 30.2213C30.0545 30.7111 28.7724 31.0691 27.4354 31.4412ZM33.0479 28.9909C32.7958 29.1671 32.5101 29.3668 32.2044 29.5891C32.0104 29.7303 31.7991 29.8605 31.5753 29.9834C31.3864 29.3967 30.8662 28.0037 29.9843 27.2317C30.2867 27.1958 30.6062 27.1908 30.9432 27.2276C31.0859 27.2426 31.2141 27.14 31.2296 26.9973C31.2451 26.8545 31.142 26.7263 30.9992 26.7108C28.4766 26.4374 26.8632 28.1673 26.1742 28.9062C26.1039 28.9817 26.0439 29.0462 25.9943 29.0958C25.7414 29.3487 24.6805 29.9511 23.1563 30.7072C23.0607 30.7546 22.9625 30.7956 22.8631 30.8335L20.0504 30.0966C20.0069 30.0852 19.9614 30.0853 19.918 30.0969L17.1374 30.8339C17.0378 30.7959 16.9393 30.7549 16.8435 30.7073C15.3194 29.9512 14.2585 29.3487 14.0055 29.0959C13.9559 29.0462 13.8959 28.9818 13.8256 28.9063C13.1367 28.1675 11.5236 26.4372 9.00057 26.7109C8.85789 26.7264 8.7548 26.8546 8.77022 26.9974C8.78573 27.1401 8.91489 27.2426 9.05661 27.2277C9.3625 27.1944 9.65383 27.1958 9.9313 27.2231C9.06484 27.9742 8.54516 29.326 8.34418 29.9387C8.15031 29.8288 7.96605 29.7133 7.79548 29.5892C7.48986 29.367 7.20407 29.1673 6.95198 28.9911C5.64269 28.0757 5.10074 27.6968 5.23155 26.7917L5.23302 26.7819C5.23571 26.7634 5.23848 26.7444 5.24177 26.7254C5.44353 25.565 7.93989 25.4727 9.41525 25.5215C9.41933 25.5218 9.4234 25.5219 9.42747 25.5219C9.86685 25.5362 10.3465 25.5664 10.8534 25.6118C13.6418 25.8605 15.0748 25.9389 15.4083 25.9554C15.6542 26.1239 16.5508 26.6873 17.9512 26.993C18.4662 27.1055 19.0859 27.1886 19.7929 27.1886C21.1184 27.1886 22.7503 26.8953 24.5709 25.9565C24.8606 25.9424 26.2942 25.8663 29.1466 25.6119C29.6532 25.5665 30.1328 25.5362 30.5723 25.522C30.5764 25.5219 30.5806 25.5219 30.5846 25.5216C32.0594 25.4728 34.5563 25.565 34.758 26.725C34.7614 26.7447 34.7642 26.7636 34.7669 26.782L34.7682 26.791C34.8992 27.6967 34.3572 28.0755 33.0479 28.9909ZM39.4182 26.3075L39.0206 26.928C38.7357 27.3724 38.2508 27.647 37.7233 27.6625L37.4569 27.6704C37.0592 27.6828 36.673 27.546 36.3706 27.2866L36.1062 27.0602C35.8517 26.842 35.5652 26.6731 35.2533 26.5568C34.9927 25.4364 33.4331 24.9114 30.6117 25.0004C29.1363 24.4659 28.0466 24.016 27.3723 23.6629C27.171 23.5574 27.0004 23.4016 26.8792 23.2121C25.7229 21.4051 25.0181 19.8824 24.5225 18.1207C24.4857 17.9897 24.3541 17.9087 24.2209 17.9364C24.0876 17.9633 23.9976 18.0884 24.0145 18.2234C24.0434 18.4548 24.0667 18.6694 24.0849 18.8699C23.7778 18.4048 23.5556 17.6087 23.4448 16.5444C23.3585 15.7155 23.3593 14.9244 23.3678 14.5201C23.7915 14.5838 24.2516 14.6836 24.7435 14.9049C25.7224 15.3455 26.1282 17.1324 26.3015 17.8956L26.3295 18.0183C26.5088 18.7954 27.6132 21.2431 28.2668 22.3117C28.2886 22.3473 28.3186 22.3772 28.3544 22.3987C30.952 23.9632 33.5222 24.8986 34.8232 25.3169C35.3287 25.4794 35.874 25.5243 36.3995 25.4461L36.9916 25.3582C37.1314 25.3375 37.2728 25.3406 37.4115 25.368L39.1426 25.7076C38.8451 25.8358 38.3702 25.9488 37.8795 25.6923C37.7523 25.6257 37.5953 25.6751 37.5288 25.8023C37.4623 25.9294 37.5116 26.0865 37.6388 26.1529C37.9389 26.3099 38.2322 26.3671 38.5005 26.3671C38.9048 26.3671 39.2516 26.2372 39.4797 26.1225C39.4753 26.1869 39.4549 26.2501 39.4182 26.3075Z" fill="white"/>
</g>
<defs>
<clipPath id="clip0_220_131">
<rect width="40" height="40" fill="white" transform="translate(0 0.58252)"/>
</clipPath>
</defs>
</svg>
