<svg width="40" height="40" viewBox="0 0 40 40" fill="none" xmlns="http://www.w3.org/2000/svg">
<g clip-path="url(#clip0_220_137)">
<path d="M38.5358 12.375C38.1375 12.0222 37.6828 11.7554 37.2104 11.5622C37.1952 11.3578 37.1669 11.1622 37.1252 10.9786C36.907 10.0197 36.1234 9.32673 35.1284 9.21298C33.6033 9.04096 31.8965 10.1068 30.0517 12.3819C29.5863 11.6781 28.7725 10.5524 27.6184 9.33604C24.474 6.0223 21.3389 4.72789 19.2624 4.22553C15.9578 3.42602 12.8211 3.41763 10.1921 4.20152C7.9419 4.87245 6.16697 6.11399 5.32242 7.60822C4.36802 9.29674 4.9368 11.4539 5.58187 12.9659C6.06918 14.1082 6.74287 15.1992 7.58432 16.209L9.18368 18.1282C8.17539 18.2916 6.17604 18.6638 5.12363 19.1899C4.55301 19.4755 4.16843 19.3601 3.76143 19.2379C3.32376 19.1066 2.77888 18.9434 2.17827 19.4687C1.52607 20.0393 1.47391 20.7922 1.5872 21.3414C1.29546 21.3931 1.09127 21.5281 0.958099 21.6557C0.38208 22.208 0.426204 23.2353 0.448725 23.5043L0.118029 25.2682C-0.122812 26.5529 0.00645634 27.8734 0.491815 29.0872L0.838712 29.9545C1.0352 30.4454 1.48574 30.7599 2.01488 30.7752C2.02821 30.7756 2.04131 30.7758 2.05452 30.7758C2.56573 30.7758 3.01467 30.4911 3.23253 30.0257C3.52128 29.4087 3.7396 28.8802 3.88128 28.4551C4.01353 28.0582 4.09937 27.6234 4.18233 27.2028C4.42179 25.9891 4.61874 25.2434 5.33448 25.1241C6.04367 25.0065 8.8562 25.4919 11.3377 25.9207C12.3801 26.1009 13.3936 26.276 14.2462 26.4063C14.1679 27.8096 13.9391 33.3328 15.0542 35.1277C15.1233 35.2389 15.231 35.321 15.3548 35.3638C16.562 35.7811 18.0744 36.1116 19.1415 36.3172C19.3621 36.3596 19.5838 36.3807 19.8048 36.3807C20.3022 36.3807 20.7942 36.2737 21.2547 36.0627L22.5571 35.4658C22.7852 35.3612 22.9277 35.1392 22.9275 34.8878C22.9273 34.6374 22.7687 34.4137 22.5434 34.3045L21.6667 33.8795C20.1836 33.1604 18.5525 32.8954 16.927 33.1076C16.9473 32.9133 16.9742 32.6607 17.0068 32.3647C17.1767 32.3714 17.3555 32.375 17.5435 32.375C19.315 32.375 21.7808 32.0913 23.0263 31.7867C23.3211 31.7147 23.5247 31.4617 23.5331 31.1572C23.5415 30.8529 23.352 30.5892 23.0618 30.5012C21.6887 30.0846 19.3327 29.8745 18.4521 29.8075L18.6641 25.886C18.9208 25.7162 19.1539 25.5214 19.3528 25.3037C20.0131 24.5807 20.3108 23.6353 20.2141 22.5699C20.2043 22.4627 20.1824 22.3432 20.1512 22.2142L23.1762 19.6635C23.4351 19.5024 25.4759 18.213 27.0821 16.6382C27.4272 16.9987 28.4789 17.9366 30.3656 18.3008C30.485 19.155 30.5697 19.8593 30.6213 20.3147C30.6734 20.7749 31.0628 21.1118 31.5235 21.1061C33.4273 21.0685 39.6635 20.628 39.9782 16.5375C40.114 14.7707 39.6152 13.3315 38.5358 12.375ZM35.0504 9.89792C35.75 9.9779 36.3005 10.4621 36.4529 11.1314C36.4673 11.1945 36.4791 11.2602 36.4897 11.3271C35.6894 11.1245 34.8936 11.1093 34.2812 11.2317C32.7431 11.5393 31.5698 12.5981 31.2159 12.9485H30.4804C31.7132 11.4025 33.4483 9.71741 35.0504 9.89792ZM19.1003 4.89566C22.9242 5.82076 25.8213 8.33637 27.6496 10.4039C27.5895 10.3789 27.5281 10.354 27.4646 10.3293C26.4327 9.92837 25.0905 10.8243 23.3609 13.0686C22.257 14.5011 21.3811 15.9918 21.2092 16.2891L20.9972 16.4745C19.2731 15.4737 18.9519 13.1586 18.9488 13.1349C18.9268 12.9624 18.78 12.8337 18.6069 12.8337C18.6044 12.8337 18.6019 12.8337 18.5992 12.8339L14.7514 12.9184C14.3231 12.3021 13.9392 11.7602 13.6335 11.3326C14.113 10.1829 14.1949 8.61145 13.8754 6.65565C13.7141 5.66908 13.4888 4.83005 13.3466 4.35112C15.0643 4.2361 17.0017 4.38801 19.1003 4.89566ZM16.543 13.5686L18.9476 15.2543H18.9477C19.0842 15.5072 19.2467 15.7629 19.44 16.0086L17.8929 17.6897C17.039 16.2941 16.0736 14.8412 15.2204 13.5975L16.543 13.5686ZM17.7074 13.5429L18.3194 13.5295C18.3494 13.6722 18.394 13.8571 18.4581 14.0692L17.7074 13.5429ZM18.2638 18.3048L19.9076 16.5185C20.0732 16.6731 20.2549 16.8181 20.4544 16.9493L18.4817 18.6748C18.4104 18.5524 18.3376 18.429 18.2638 18.3048ZM2.63226 19.9875C2.93412 19.7236 3.1244 19.7664 3.56334 19.8982C4.0079 20.0316 4.61678 20.2142 5.43203 19.8066C6.55718 19.2441 9.00546 18.8497 9.6988 18.7463L11.0017 20.3098C9.97974 20.2581 8.07048 20.3575 5.07572 21.2329C3.718 21.5462 3.57494 21.563 2.30812 21.3706C2.21378 21.081 2.09773 20.4552 2.63226 19.9875ZM5.22118 24.4438C3.98308 24.6502 3.7296 25.9353 3.50588 27.0692C3.42706 27.4687 3.34559 27.8816 3.22724 28.237C3.09395 28.6368 2.88563 29.1402 2.60825 29.7333C2.5015 29.9612 2.28755 30.0943 2.03476 30.0858C1.78093 30.0786 1.57318 29.9337 1.47896 29.6982L1.13206 28.8309C0.695311 27.739 0.578912 26.5507 0.795738 25.395L1.1354 23.5833C1.14172 23.5499 1.14287 23.5156 1.13919 23.4818C1.11196 23.2368 1.10805 22.467 1.43541 22.1531C1.56801 22.0259 1.75519 21.983 2.00821 22.0219C3.56046 22.2609 3.71145 22.2551 5.2406 21.9022C5.24704 21.9007 5.25347 21.899 5.25991 21.8971C7.56754 21.2217 9.19954 21.0255 10.2479 20.9954C10.1004 21.7835 9.89793 23.4913 10.4921 25.0754C7.75553 24.6082 5.91004 24.3283 5.22118 24.4438ZM21.3661 34.4994L21.9821 34.798C22.0551 34.8334 22.0539 34.9377 21.9803 34.9714L20.9676 35.4355C20.4363 35.679 19.8428 35.7497 19.2689 35.6391C18.2346 35.4399 16.7771 35.1218 15.6155 34.7239C14.7524 33.2668 14.8126 28.6248 14.9306 26.505C15.4707 26.5781 15.9085 26.6222 16.1938 26.6222C16.4889 26.6222 16.7842 26.5915 17.0729 26.5339C16.5845 29.5735 16.1995 33.4416 16.1954 33.4826C16.1848 33.5898 16.2248 33.6956 16.3038 33.769C16.3827 33.8424 16.4914 33.8745 16.5973 33.8562L16.6892 33.8403C18.2787 33.5651 19.9145 33.7956 21.3661 34.4994ZM18.0682 30.471C18.0989 30.4728 21.0403 30.661 22.6852 31.1098C22.7102 31.1166 22.7091 31.1527 22.6839 31.1583C21.3107 31.4629 18.6942 31.7326 17.0837 31.6775C17.2529 30.1917 17.5131 28.0805 17.806 26.3227C17.8554 26.3039 17.9048 26.2853 17.9533 26.265L17.7456 30.1082C17.7354 30.2972 17.8793 30.4591 18.0682 30.471ZM18.8437 24.8383C18.1067 25.6453 16.9917 25.9328 16.1938 25.9328C15.4585 25.9328 13.5139 25.5967 11.4551 25.2411C11.4032 25.2321 11.3522 25.2232 11.3007 25.2144C10.5336 23.6255 10.8118 21.696 10.9508 21.0004C11.3128 21.0176 11.5437 21.0543 11.6533 21.076L13.1125 22.5419C13.1798 22.6096 13.2683 22.6435 13.3568 22.6435C13.4447 22.6435 13.5327 22.6101 13.5999 22.5431C13.7348 22.4088 13.7354 22.1906 13.6011 22.0557L12.0826 20.53L8.11392 15.7675C7.31544 14.8094 6.6768 13.7759 6.21592 12.6955C5.63186 11.3262 5.10674 9.39108 5.92256 7.94764C6.9073 6.20534 9.31306 4.79293 12.6448 4.41512C12.9273 5.34218 13.7824 8.48414 13.1436 10.6526C13.0177 10.479 12.9359 10.3677 12.9095 10.3316C12.7967 10.1782 12.581 10.1451 12.4276 10.2579C12.2742 10.3705 12.2412 10.5863 12.3539 10.7397C14.2876 13.3708 19.346 20.6365 19.5274 22.6318C19.6075 23.5116 19.3775 24.2539 18.8437 24.8383ZM22.7922 19.0899C22.7777 19.0988 22.7639 19.1088 22.751 19.1197L19.9212 21.5058C19.6753 20.8758 19.2926 20.1132 18.8302 19.2858L21.7064 16.77C21.7353 16.7446 21.7599 16.7147 21.779 16.6811C21.7883 16.6646 22.732 15.0129 23.9107 13.4845C25.3423 11.6279 26.5462 10.7128 27.2146 10.9718C28.116 11.3224 28.5822 11.6659 28.7264 12.0854C28.8968 12.5814 28.6613 13.3247 27.9627 14.4956C26.6511 16.694 22.8307 19.0662 22.7922 19.0899ZM39.2907 16.4842C39.1772 17.9602 38.0805 19.0503 36.0311 19.7245C34.3353 20.2823 32.4705 20.3975 31.5099 20.4164C31.4049 20.4196 31.3182 20.3411 31.3063 20.2367C31.2493 19.7336 31.1522 18.9292 31.0131 17.9556C30.9917 17.8059 30.8753 17.6877 30.726 17.6639C28.843 17.3641 27.8245 16.4174 27.5633 16.1423C27.9517 15.7196 28.2955 15.2835 28.5549 14.8487C29.0797 13.9693 29.369 13.288 29.4468 12.7239C29.7464 13.171 29.9038 13.4477 29.9113 13.4612C29.9722 13.5703 30.0874 13.638 30.2123 13.638H31.3614C31.458 13.638 31.5501 13.5974 31.6154 13.5262C31.6274 13.5132 32.8218 12.2266 34.4164 11.9076C35.2536 11.7402 36.9198 11.8639 38.0786 12.8909C39.0032 13.7105 39.4111 14.9193 39.2907 16.4842Z" fill="white"/>
</g>
<defs>
<clipPath id="clip0_220_137">
<rect width="40" height="40" fill="white"/>
</clipPath>
</defs>
</svg>
