<svg width="80" height="80" viewBox="0 0 80 80" fill="none" xmlns="http://www.w3.org/2000/svg">
<g clip-path="url(#clip0_270_1255)">
<path d="M73.9281 77.5648C73.3156 77.2067 72.5833 76.8307 71.8086 76.433C70.4228 75.7215 68.1036 74.5306 67.9644 73.9735C67.5897 72.4742 68.8665 68.7434 69.5525 66.7392C69.7404 66.1905 69.9024 65.7165 70.0055 65.3727C71.7939 59.4112 70.9548 56.6774 70.2954 55.5785C68.8427 53.1573 61.4874 53.8379 58.9378 54.1533C60.4194 48.5436 59.8366 44.8274 59.6521 43.9284C59.8965 43.4531 60.415 42.1803 59.9741 40.5954C59.459 38.7446 57.8419 37.1352 55.1668 35.8103C55.1337 35.7939 54.8883 35.6878 54.8247 35.6581C53.8406 35.2009 53.49 34.4087 53.3673 33.8445C54.2565 34.0463 55.675 34.1884 56.292 33.2632C56.6962 32.6568 56.7663 31.0516 56.7783 30.5741C56.8139 29.1387 56.651 27.6159 56.3193 26.2861C55.6768 23.7102 54.4241 21.8569 52.6962 20.9264C52.2364 20.6792 51.7684 20.4951 51.3047 20.3755C51.1552 19.622 50.9466 18.8795 50.6719 18.1532C49.6693 15.502 48.2017 11.7353 46.8562 8.71534L46.8753 8.65017C47.6337 6.08 48.3503 3.65246 46.6943 0.746002C46.4667 0.346418 46.0731 0.0802557 45.6146 0.0155919C45.1502 -0.0499249 44.6931 0.099706 44.3591 0.425584C42.1868 2.54328 41.3166 5.96346 42.2434 8.74298L43.2671 11.8141C43.2707 11.8253 43.2751 11.8368 43.2796 11.8479C43.3074 11.9149 45.1859 16.5234 45.9393 22.1379C45.2905 22.8277 44.7651 23.6489 44.4795 24.4324C44.4732 24.4464 44.445 24.5308 44.4357 24.559C44.0635 24.3529 43.5474 24.1142 42.9876 23.9977C42.809 23.9605 42.627 23.9417 42.4461 23.9417C41.5072 23.9417 40.6512 24.4326 40.1563 25.2551C38.0884 28.6918 43.0646 35.3978 43.2773 35.6815C43.3763 35.8134 43.5295 35.8862 43.687 35.8862H43.6943C43.9119 35.8862 44.1132 35.7501 44.1765 35.5419C44.2069 35.4418 44.2094 35.3447 44.1884 35.2561C44.1173 34.6426 43.5164 29.4004 43.5164 27.3554C43.5164 26.3636 43.8887 25.9937 44.2905 25.8823C44.4705 27.4513 45.5687 29.6227 45.9257 30.2953C45.5274 31.5106 43.8994 37.2653 47.0347 41.8976C47.1287 42.2439 47.2392 42.6183 47.3558 43.0127C48.1072 45.5559 49.1367 49.0391 47.8828 52.2429C47.1681 54.0699 46.0001 55.1961 45.0622 55.9735C44.7769 56.2103 44.4964 56.428 44.2253 56.6384C43.3405 57.3249 42.5765 57.918 42.254 58.7228C41.7362 60.0174 41.6766 61.215 41.6874 61.8135C40.3293 62.3545 35.3588 64.3847 32.2227 66.326C30.3451 67.4879 28.3956 67.163 26.5593 66.7305C26.3283 66.6763 26.099 66.6199 25.8719 66.5642C24.5772 66.2463 23.3548 65.9457 22.1953 66.0823C19.8967 66.3528 14.3721 67.9806 12.1038 68.668C11.5638 68.8317 10.9905 68.7371 10.5309 68.4084C10.0132 68.0381 9.35037 67.9214 8.75713 68.0961C7.49593 68.4677 6.54201 69.5457 6.32669 70.8419L5.44153 76.1515C5.39786 76.4139 5.39154 76.6826 5.44068 76.944C5.46593 77.0779 5.5062 77.2229 5.56984 77.3661C5.90101 78.1108 6.71911 79.2502 8.70253 79.25C8.9042 79.25 9.1185 79.2383 9.34491 79.213C10.6128 79.0721 11.3406 78.6861 11.5697 78.0329C11.8685 77.1813 11.3169 76.4594 11.0154 76.2949C10.5225 76.0261 9.88405 75.8324 9.88405 75.8324L12.7182 73.878C13.4634 73.3641 14.3714 73.1025 15.2757 73.1437L32.8109 73.9264C32.8204 73.927 32.8301 73.9271 32.8397 73.927C32.9835 73.9252 36.4133 73.8713 40.7799 72.6349C44.7387 71.5138 50.2015 69.1674 53.9832 64.3455C55.7645 64.879 59.638 63.5444 63.4917 62.1092C63.6974 62.0326 63.9005 61.957 64.0926 61.886C63.4396 63.3762 63.0769 65.6263 63.0117 68.6052C62.9542 71.2275 63.1547 73.5907 63.1981 74.0631L62.4809 77.1711C62.4112 77.4736 62.4127 77.7924 62.513 78.0863C62.7215 78.6965 63.2544 79.1077 63.8773 79.1732L73.1616 79.9927C73.2109 79.998 73.2597 80.0004 73.308 80.0004C73.8799 80.0004 74.3683 79.6426 74.5412 79.0774C74.7171 78.4978 74.4509 77.8706 73.9281 77.5648ZM42.492 27.3551C42.492 28.743 42.7486 31.4551 42.9482 33.3545C41.5408 31.0443 39.9403 27.5984 41.0327 25.7827C41.3408 25.2706 41.8689 24.9651 42.4454 24.9651C42.5561 24.9651 42.6684 24.9767 42.7783 24.9995C42.9921 25.0441 43.2011 25.113 43.3941 25.1916C42.7457 25.6791 42.492 26.562 42.492 27.3551ZM45.2876 25.4718C45.2876 25.3124 45.4246 24.8274 45.4287 24.8154C45.5737 24.4063 45.8098 23.971 46.1011 23.5563C46.2532 25.1621 46.2986 26.8231 46.1727 28.463C45.7264 27.4567 45.2876 26.2559 45.2876 25.4718ZM46.9623 30.426C46.9654 30.4175 46.9663 30.4086 46.9688 30.3999C46.9761 30.3765 46.9837 30.3533 46.9876 30.3284C46.9881 30.3253 46.9884 30.3223 46.9889 30.3194L46.9891 30.3187C48.3105 21.8692 44.6523 12.5112 44.2543 11.5276C44.2389 11.4896 44.2251 11.4522 44.2122 11.4131L43.214 8.41898C42.407 5.9981 43.1716 3.01248 45.0733 1.15838C45.1789 1.0555 45.3244 1.00807 45.4713 1.02906C45.5549 1.04083 45.7095 1.08553 45.8045 1.25256C47.2445 3.78042 46.6184 5.90272 45.8932 8.36029L45.8204 8.60717C45.7859 8.72421 45.7939 8.84842 45.8439 8.95984C47.2 11.9849 48.6972 15.826 49.7142 18.5152C50.3153 20.1045 50.5944 21.7735 50.5444 23.4756L50.3027 31.7126C50.2569 33.2659 50.411 34.8216 50.7608 36.3362C50.8154 36.5728 51.0261 36.733 51.259 36.733C51.3649 36.733 51.4758 36.7002 51.5741 36.626C51.7369 36.503 51.7998 36.2879 51.7541 36.0889C51.427 34.665 51.283 33.2028 51.326 31.7428L51.5678 23.5058C51.5876 22.8325 51.5584 22.1642 51.4832 21.5031C51.7256 21.5911 51.9691 21.6981 52.2112 21.8283C54.0643 22.8262 54.9279 24.9381 55.326 26.534C56.055 29.4576 55.6899 32.3212 55.4403 32.6955C55.1275 33.1647 53.7795 32.9564 52.9672 32.6681C52.8169 32.6143 52.6503 32.6339 52.5164 32.7208C52.3827 32.8076 52.2968 32.9518 52.2847 33.111C52.2187 33.9704 52.5927 35.7491 54.4063 36.5878C54.5667 37.322 54.9252 39.722 53.1614 41.108C51.2876 42.58 48.4737 41.5335 47.8516 41.2735C44.7496 36.6213 46.9396 30.4876 46.9623 30.426ZM48.8354 52.6157C50.2168 49.0852 49.1302 45.4075 48.3366 42.7223C48.3158 42.6522 48.2957 42.5836 48.2754 42.5149C48.9019 42.709 49.7642 42.9058 50.6949 42.9058C51.7248 42.9058 52.8356 42.6647 53.7933 41.9121C54.8917 41.0491 55.5048 39.7591 55.5669 38.1814C55.5816 37.8091 55.5635 37.4631 55.5322 37.1628C57.4351 38.2476 58.5945 39.4849 58.9821 40.8498C59.3993 42.3188 58.7654 43.4304 58.6885 43.5575C58.5991 43.6715 57.7091 44.7438 56.1821 44.4749C55.9045 44.4261 55.6382 44.6116 55.5891 44.89C55.5399 45.1685 55.7257 45.434 56.0042 45.4831C56.2393 45.5245 56.4631 45.5431 56.6761 45.5431C57.5805 45.5431 58.2828 45.2077 58.7637 44.866C58.9569 46.4056 59.1213 49.8656 57.747 54.6212C57.285 56.2188 56.674 57.7779 55.9231 59.2851C49.4197 61.1123 46.7211 57.6244 46.036 56.4875C47.004 55.6438 48.1162 54.4538 48.8354 52.6157ZM12.1359 73.0351L8.485 75.5529C8.29152 75.6864 8.20928 75.9385 8.30158 76.1678C8.3584 76.3091 8.48295 76.4125 8.6261 76.4645L10.0941 76.9984C10.3132 77.0781 10.4959 77.2434 10.5776 77.4616C10.6111 77.5509 10.624 77.6338 10.6024 77.6947C10.5426 77.8621 10.1477 78.0936 9.23076 78.1956C7.49337 78.3884 6.8063 77.6106 6.54048 77.0639C6.53126 77.0452 6.52086 76.9905 6.51028 76.9194C6.45926 76.5742 6.46626 76.2229 6.52359 75.8788L7.33538 71.0098C7.48689 70.0978 8.15809 69.3394 9.04547 69.0779C9.33859 68.9917 9.67112 69.0524 9.93439 69.2408C10.644 69.7482 11.5651 69.9002 12.3998 69.6475C14.642 68.9681 20.097 67.3597 22.314 67.0989C23.2891 66.9842 24.4247 67.263 25.627 67.5582C25.7129 67.5792 25.8004 67.6 25.8869 67.6211L25.3834 72.5702L15.3202 72.121C14.193 72.0691 13.0635 72.3953 12.1359 73.0351ZM32.8394 72.9031L26.4076 72.6159L26.892 67.8549C28.7123 68.2434 30.7616 68.4336 32.7607 67.1963C36.2618 65.0289 42.341 62.6552 42.4019 62.6314C42.6174 62.5477 42.7498 62.3289 42.7254 62.0989C42.7239 62.0848 42.5811 60.6591 43.2036 59.1029C43.4225 58.5563 44.085 58.042 44.8521 57.4467C44.9803 57.3473 45.1108 57.2456 45.2432 57.1415C45.6092 57.7097 46.309 58.6086 47.4496 59.3797C49.0357 60.4515 50.7927 60.8205 52.461 60.8205C53.4517 60.8205 54.4094 60.6888 55.2833 60.4981C54.9424 61.1072 54.5783 61.7069 54.1905 62.2958C54.0991 62.4375 53.5864 63.1776 53.4111 63.4113C46.5788 72.5016 33.3306 72.8923 32.8394 72.9031ZM63.133 61.1498C61.0467 61.9268 56.4734 63.6294 54.6457 63.4492C54.6812 63.3982 54.9538 63.0007 55.0477 62.8555C56.6223 60.4632 57.8274 57.8979 58.6346 55.2258C59.3928 55.1274 61.3878 54.8931 63.4809 54.8544C66.7419 54.7935 68.9045 55.2497 69.4175 56.105C70.41 57.7593 70.0461 60.7398 69.5822 62.9024C67.3514 63.2626 65.6903 62.7038 64.9847 62.3929C65.1743 61.9401 65.3908 61.5738 65.6334 61.2988C65.7769 61.1363 65.8023 60.9012 65.6973 60.7118C65.5923 60.5223 65.3784 60.4196 65.1656 60.4552C64.8756 60.5035 64.3013 60.7147 63.133 61.1498ZM73.5584 78.7865C73.5374 78.8499 73.4646 78.9941 73.259 78.9735L63.9747 78.154C63.8063 78.1362 63.6592 78.0506 63.561 77.9127C63.4627 77.7749 63.4296 77.608 63.4675 77.443L64.2129 74.2127C64.2255 74.1583 64.2291 74.1023 64.2236 74.0467C64.2211 74.0215 63.9711 71.4762 64.0344 68.6179C64.0825 66.4463 64.2946 64.6805 64.656 63.3687C65.3198 63.6538 66.5222 64.0464 68.1221 64.0464C68.5029 64.0464 68.9084 64.0206 69.3317 63.9692C69.2147 64.4284 69.1053 64.8109 69.0251 65.0786C68.9275 65.4036 68.7683 65.8689 68.5839 66.4077C67.7632 68.8056 66.5232 72.4291 66.9714 74.2218C67.2064 75.1615 68.7789 76.0281 71.3409 77.3436C72.1136 77.7402 72.8435 78.1151 73.4361 78.4631C73.6091 78.5647 73.5792 78.723 73.5584 78.7865Z" fill="#3D493A"/>
</g>
<defs>
<clipPath id="clip0_270_1255">
<rect width="80" height="80" fill="white"/>
</clipPath>
</defs>
</svg>
