<svg width="50" height="51" viewBox="0 0 50 51" fill="none" xmlns="http://www.w3.org/2000/svg">
<path d="M9.08205 10.7744L10.5371 13.7822L13.8379 14.2315C14.4922 14.3193 14.7266 15.1299 14.2774 15.5596L11.8653 17.874L12.461 21.1553C12.5781 21.7998 11.8946 22.2881 11.3281 21.9756L8.38869 20.3936L5.44924 21.9756C4.88283 22.2783 4.16994 21.8096 4.32619 21.1065L4.91213 17.8643L2.50002 15.5498C2.03127 15.1006 2.28518 14.2998 2.94924 14.2119L6.24026 13.7627L7.69533 10.7549C7.96877 10.1787 8.80862 10.1885 9.08205 10.7744ZM9.31643 14.8369L8.38869 12.9033L7.45119 14.8369C7.34377 15.0615 7.11916 15.2373 6.85549 15.2764L4.73635 15.5596L6.28908 17.044C6.46487 17.2197 6.56252 17.4736 6.51369 17.7373L6.13283 19.8467L8.00783 18.8408C8.23244 18.7236 8.51565 18.7041 8.75002 18.8408L10.6348 19.8565L10.2637 17.7861C10.2051 17.5322 10.2735 17.249 10.4785 17.044L12.0313 15.5596L9.93166 15.2764C9.67776 15.2471 9.43362 15.0811 9.31643 14.8369ZM25.7031 3.69434L27.1582 6.70216L30.4688 7.15137C31.1231 7.23927 31.3574 8.04981 30.9082 8.48926L28.4961 10.8037L29.0918 14.085C29.209 14.7295 28.5254 15.2178 27.959 14.9053L25 13.3232L22.0606 14.9053C21.4942 15.208 20.7813 14.7393 20.9375 14.0361L21.5235 10.794L19.1016 8.4795C18.6328 8.03028 18.8867 7.2295 19.5508 7.14161L22.8418 6.69239L24.2969 3.69434C24.5899 3.09864 25.4199 3.10841 25.7031 3.69434ZM25.9375 7.75684L25 5.82325L24.0723 7.75684C23.9649 7.98145 23.7403 8.15723 23.4766 8.1963L21.3477 8.4795L22.9004 9.96387C23.086 10.1397 23.1739 10.3936 23.125 10.6572L22.7442 12.7666L24.6289 11.7607C24.8535 11.6436 25.127 11.624 25.3711 11.7607L27.2559 12.7764L26.8848 10.7061C26.8262 10.4522 26.8946 10.169 27.0996 9.96387L28.6524 8.4795L26.5528 8.18653C26.2891 8.167 26.0547 8.00098 25.9375 7.75684ZM42.3145 10.7744L43.7696 13.7822L47.0703 14.2315C47.7246 14.3193 47.9688 15.1299 47.5098 15.5596L45.0977 17.874L45.6934 21.1553C45.8106 21.7998 45.127 22.2881 44.5606 21.9756L41.6211 20.3936L38.6817 21.9756C38.1153 22.2783 37.4024 21.8096 37.5489 21.1065L38.1348 17.8643L35.7227 15.5498C35.2539 15.1006 35.5078 14.2998 36.1719 14.2119L39.4629 13.7627L40.918 10.7549C41.2012 10.1787 42.041 10.1885 42.3145 10.7744ZM42.5489 14.8369L41.6211 12.9033L40.6836 14.8369C40.5762 15.0615 40.3614 15.2373 40.0879 15.2764L37.9688 15.5596L39.5117 17.044C39.6875 17.2197 39.7852 17.4736 39.7364 17.7373L39.3555 19.8467L41.2403 18.8408C41.4649 18.7236 41.7481 18.7041 41.9824 18.8408L43.877 19.8565L43.5059 17.7861C43.4473 17.5322 43.5157 17.249 43.7207 17.044L45.2637 15.5596L43.1641 15.2764C42.9102 15.2471 42.666 15.0811 42.5489 14.8369ZM21.377 30.7158C21.1621 30.3447 21.2891 29.8662 21.6602 29.6514C22.0313 29.4365 22.5098 29.5635 22.7246 29.9346L23.75 31.7119L27.3926 28.0693C27.6953 27.7666 28.1934 27.7666 28.4961 28.0693C28.7989 28.3721 28.7989 28.8701 28.4961 29.1729L24.1309 33.5381C23.7696 33.8994 23.1641 33.8213 22.9102 33.3818L21.377 30.7158ZM25 22.4639C29.2481 22.4639 32.6953 25.9111 32.6953 30.1592C32.6953 34.4072 29.2481 37.8545 25 37.8545C20.752 37.8545 17.3047 34.4072 17.3047 30.1592C17.3047 25.9111 20.752 22.4639 25 22.4639ZM29.336 25.8232C26.9434 23.4307 23.0567 23.4307 20.6641 25.8232C18.2715 28.2158 18.2715 32.1025 20.6641 34.4951C23.0567 36.8877 26.9434 36.8877 29.336 34.4951C31.7285 32.0928 31.7285 28.2158 29.336 25.8232ZM25 17.6299C31.9141 17.6299 37.5196 23.2354 37.5196 30.1494C37.5196 32.7666 36.7188 35.1982 35.3418 37.21L39.0821 43.6846C39.4434 44.29 38.9453 44.9736 38.3008 44.876L34.4727 44.2705L32.4219 46.79C32.0606 47.2588 31.3867 47.1807 31.1231 46.7119L28.5059 42.1807C26.2207 42.8447 23.7696 42.8447 21.4942 42.1807L18.877 46.7119C18.6133 47.1807 17.9395 47.2588 17.5781 46.79L15.5274 44.2705L11.6992 44.876C11.0449 44.9834 10.586 44.2705 10.8985 43.7139L14.6582 37.21C11.2598 32.2393 11.8946 25.5498 16.1524 21.292C18.4082 19.0361 21.543 17.6299 25 17.6299ZM34.3067 38.5283C33.1153 39.8564 31.6504 40.9209 29.9903 41.6436L31.9043 44.9541L33.5449 42.9424C33.7305 42.708 34.0137 42.6201 34.2871 42.6689L36.9239 43.0889L34.3067 38.5283ZM20 41.6436C18.3496 40.9209 16.8848 39.8564 15.6934 38.5381L13.0664 43.0889L15.7031 42.6689C15.9668 42.6201 16.2598 42.7178 16.4453 42.9424L18.086 44.9541L20 41.6436ZM32.7539 22.4053C28.4766 18.1279 21.5332 18.1279 17.2559 22.4053C12.9785 26.6826 12.9785 33.626 17.2559 37.9033C21.543 42.1807 28.4766 42.1807 32.7539 37.9033C37.0313 33.626 37.0313 26.6826 32.7539 22.4053Z" fill="#AEA17E"/>
</svg>
