<svg width="60" height="61" viewBox="0 0 60 61" fill="none" xmlns="http://www.w3.org/2000/svg">
<path d="M50.3944 50.1877C51.4036 49.9453 52.2598 49.2352 52.6844 48.2881L53.0449 47.4844C53.5704 46.3125 53.3723 44.9229 52.5403 43.9444C52.2133 43.56 51.7962 43.2497 51.3337 43.047L50.0233 42.4728C48.3741 41.75 46.6514 41.2718 44.8826 41.0386L43.1437 30.8471C43.1369 30.8028 43.1313 30.7582 43.1269 30.7137L42.9295 28.7403C42.6895 26.3396 42.2245 23.9478 41.5474 21.6312L41.2943 20.7652C41.0972 20.0904 40.7248 19.4771 40.2173 18.9907C39.5517 18.3532 38.6686 18.0228 37.7674 18.0565L34.0202 16.3332C34.1086 16.2033 34.1955 16.0704 34.2804 15.9312C35.276 14.2941 35.8556 12.2445 35.831 10.4478C35.8066 8.67261 35.1919 7.00855 34.1001 5.76214C33.9426 5.58238 33.7774 5.41597 33.6061 5.26011C33.6436 5.08949 33.6778 4.90386 33.6752 4.70886C33.6471 2.66956 31.9662 1.02823 29.9255 1.06128C27.8862 1.08964 26.25 2.77175 26.2779 4.81081C26.2809 5.02105 26.3241 5.19613 26.3693 5.35292C26.2001 5.51558 26.0367 5.68878 25.8823 5.87558C24.8255 7.15152 24.2566 8.83175 24.281 10.6071C24.3059 12.4036 24.9417 14.4368 25.9821 16.0458C26.0421 16.1384 26.1033 16.2275 26.1647 16.3158L22.1672 18.0565C21.2644 18.0216 20.3791 18.3518 19.7123 18.9905C19.2049 19.4768 18.8325 20.0902 18.6354 20.7647L18.382 21.631C17.7049 23.9475 17.2399 26.3393 16.9999 28.74L16.8028 30.7128C16.7981 30.7575 16.7925 30.8023 16.7866 30.8407L15.1844 40.3758C13.6718 40.5089 12.1873 40.9521 10.8492 41.6979C10.0148 42.1627 9.40991 42.9626 9.18983 43.8924C8.89077 45.1554 9.3471 46.5017 10.3526 47.3227C11.3203 48.1125 12.4017 48.7289 13.5562 49.1553L13.3542 55.1893C13.354 55.1993 13.354 55.2094 13.3542 55.2195C13.3563 55.2886 13.3345 55.3381 13.3244 55.3498L12.015 56.8615C11.7293 57.1915 11.6194 57.6884 11.7279 58.1581C11.8216 58.5643 12.0635 58.8774 12.3909 59.0171L13.7243 59.5857C13.8403 59.6349 13.9641 59.6597 14.0829 59.6597C14.1225 59.6597 14.1614 59.6569 14.1996 59.6515L17.3379 59.2779C17.6526 59.232 17.9299 59.0234 18.0987 58.7063C18.3021 58.3236 18.3269 57.8499 18.1701 57.4437L18.9612 57.3216C19.3132 57.2679 19.5935 56.9745 19.6587 56.592C19.7466 56.0754 19.4585 55.5842 19.0165 55.4968L17.0175 55.1011C17.0128 55.088 17.0081 55.0704 17.006 55.0484L17.8617 51.5412C19.1606 52.2415 20.5669 52.8682 21.5955 52.9737C23.8359 53.2046 29.1527 51.9497 30.0703 51.7273C30.915 51.9886 35.5673 53.3984 37.623 53.3984C38.6023 53.3984 40.5787 52.9003 42.5114 52.3334L43.297 55.0561C43.2947 55.0746 43.2907 55.0899 43.2865 55.1011L41.2877 55.4968C40.8457 55.5842 40.5574 56.0754 40.6453 56.592C40.7105 56.9747 40.9908 57.2679 41.3423 57.3216L42.1336 57.4437C41.9768 57.8496 42.0016 58.3236 42.2051 58.7063C42.3738 59.0236 42.6511 59.232 42.9783 59.2796L46.0929 59.6499C46.1353 59.656 46.178 59.659 46.2204 59.659C46.3427 59.659 46.4648 59.6342 46.5801 59.5854L47.9128 59.0171C48.2402 58.8774 48.4821 58.5643 48.5758 58.1581C48.6844 57.6884 48.5744 57.1915 48.2885 56.8615L46.9793 55.35C46.969 55.3381 46.9469 55.2886 46.9493 55.2195C46.9498 55.2026 46.9493 55.1853 46.9481 55.1682L46.6223 51.03C47.0859 50.8737 47.4002 50.7645 47.5019 50.7291C48.4739 50.5955 49.44 50.4169 50.3944 50.1877ZM17.5118 48.9514C16.8126 46.9629 16.9751 44.7778 17.9735 42.9103L18.045 42.7768C21.833 42.3406 32.9255 43.6721 33.0438 43.6866C33.1765 43.7028 33.3105 43.661 33.4111 43.5722C33.5114 43.4832 33.5688 43.3554 33.5688 43.2214V42.4048C33.5688 42.1453 33.6841 41.9018 33.8852 41.7375C34.0507 41.6021 34.2581 41.5329 34.473 41.5437L37.2581 41.6796C37.3833 41.6839 37.5042 41.6419 37.5963 41.558L40.8105 38.636C40.9266 38.5306 41.0747 38.4769 41.2329 38.4844L42.2149 38.531C42.3129 38.5357 42.4092 38.5653 42.4929 38.6161C42.6532 38.7143 42.7547 38.8777 42.7713 39.0647C42.788 39.2518 42.7167 39.4306 42.5761 39.555L40.4669 41.4246C40.2567 41.6112 40.0228 41.7713 39.7725 41.9004L35.0562 44.3323C35.0477 44.3365 35.0398 44.341 35.0318 44.3459L33.1392 45.4697C31.0266 46.7241 28.7334 47.6044 26.3241 48.0865L24.3021 48.4908C22.065 48.9382 19.7857 49.0925 17.5118 48.9514ZM18.285 40.546C18.225 40.08 18.4786 39.6176 18.9213 39.4296C19.1306 39.3403 19.3671 39.3211 19.5888 39.375L19.9873 39.4718C20.7914 39.6671 21.4868 40.1536 21.9459 40.8422L22.0973 41.0696C22.1679 41.1753 22.2783 41.2479 22.4034 41.2707L23.6198 41.4919C24.0232 41.5653 24.4038 41.7242 24.7392 41.9506C23.6754 41.8768 22.6134 41.8172 21.6227 41.7842L19.1794 40.7663C19.1627 40.7595 19.1458 40.7534 19.1287 40.7487C18.8501 40.6683 18.5681 40.6029 18.285 40.546ZM22.1004 34.2068L22.2844 34.6744C22.7522 35.8625 22.8942 37.1571 22.6952 38.4183L22.4522 39.9596C22.1494 39.5965 21.7898 39.2902 21.3888 39.049L22.1004 34.2068ZM23.5589 38.9602H37.0535L37.3493 40.5157L37.1095 40.7337L34.5187 40.6071C34.0723 40.5858 33.637 40.7293 33.2916 41.0121C32.872 41.3553 32.6313 41.8629 32.6313 42.4048V42.6943C31.5464 42.5686 28.973 42.2829 26.1921 42.0596C25.6083 41.2838 24.7467 40.7438 23.7876 40.5694L23.3187 40.4841L23.5589 38.9602ZM37.8982 38.3829C37.7053 37.3681 37.7386 36.3167 37.9917 35.3164L38.5898 39.3882L38.163 39.7761L37.8982 38.3829ZM33.6176 46.2757L35.4982 45.1589L36.4669 44.6595L37.1676 44.5707C39.4261 44.2836 41.7455 44.4099 43.9659 44.9302C43.3085 46.5708 43.3296 48.436 44.0355 50.0632C43.8494 50.067 43.6633 50.0717 43.4775 50.0719L40.1409 50.075C40.1318 50.075 40.1229 50.075 40.114 50.075C37.9772 50.075 35.8373 49.8357 33.754 49.3639L29.1239 48.315C30.6879 47.802 32.1926 47.1218 33.6176 46.2757ZM50.9571 43.9057C51.2899 44.0515 51.5906 44.2751 51.8259 44.5519C52.425 45.2564 52.5677 46.2568 52.1894 47.1007L51.829 47.9044C51.5222 48.5883 50.9041 49.1009 50.1752 49.2764C48.4938 49.68 46.7754 49.9301 45.0485 50.0262L44.9735 49.8687C44.2715 48.3938 44.2432 46.6646 44.8798 45.1693C45.1324 45.2419 45.3841 45.3178 45.6335 45.4011L46.9416 45.837L47.238 44.9475L45.93 44.5116C43.6179 43.7412 41.1534 43.3986 38.7143 43.501L40.2019 42.7339C40.5216 42.5691 40.8201 42.3647 41.0887 42.1264L41.4834 41.7764L42.9033 41.8172C45.2379 41.8843 47.5066 42.3938 49.6465 43.3315L50.9571 43.9057ZM42.9305 40.8802L42.5084 40.868L43.1979 40.257C43.4341 40.0475 43.5935 39.7789 43.6659 39.484L43.9134 40.935C43.5872 40.9088 43.2595 40.8896 42.9305 40.8802ZM39.5679 19.6676C39.9569 20.0405 40.2424 20.5109 40.3936 21.0282L40.6469 21.8944C41.3079 24.1552 41.7616 26.49 41.996 28.8335L42.1933 30.8068C42.1994 30.8682 42.2074 30.9289 42.2177 30.9973L43.4601 38.28C43.3387 38.0956 43.1777 37.9367 42.9813 37.8164C42.7636 37.6838 42.514 37.6069 42.2592 37.5947L41.2774 37.5481C40.8722 37.5293 40.4812 37.6688 40.1796 37.9428L39.4254 38.6283L38.2948 30.9317C38.0311 29.1375 37.5682 27.3694 36.9185 25.6765L35.6196 22.2914C35.4068 21.7369 35.4044 21.125 35.613 20.5685C35.9006 19.8017 36.5491 19.2352 37.3479 19.0533C38.1466 18.8705 38.9766 19.1009 39.5679 19.6676ZM29.9374 1.99831C31.4224 1.97347 32.6442 3.13456 32.7288 4.59941C31.8853 4.08425 30.9396 3.8173 29.963 3.82948C28.9837 3.84308 28.0469 4.13581 27.2191 4.67394C27.2641 3.20816 28.4569 2.01894 29.9374 1.99831ZM26.6034 6.47323C27.5004 5.39042 28.698 4.78456 29.9759 4.76698C29.9951 4.76675 30.0141 4.76652 30.0333 4.76652C31.2898 4.76652 32.4813 5.33792 33.394 6.37972C34.2825 7.39409 34.8 8.73706 34.8773 10.1839C33.7413 9.33238 31.5792 7.88886 29.9756 7.88886C28.384 7.88886 26.3276 9.29933 25.23 10.1518C25.2987 8.76542 25.7759 7.47214 26.6034 6.47323ZM25.2668 11.3257C26.235 10.5047 28.5162 8.82636 29.9754 8.82636C31.4379 8.82636 33.8273 10.5193 34.8473 11.3466C34.7095 12.7385 34.2251 14.2156 33.4784 15.4437C32.538 16.9899 31.3273 17.8859 30.1566 17.9018C28.9875 17.9241 27.7512 17.056 26.7684 15.536C25.9596 14.285 25.4224 12.7578 25.2668 11.3257ZM31.7857 18.4257C31.5637 19.1386 30.8979 19.6575 30.1127 19.6575C29.3259 19.6575 28.6589 19.136 28.4386 18.4207C28.9849 18.6964 29.5507 18.8398 30.1221 18.8398C30.1378 18.8398 30.1537 18.8398 30.1694 18.8396C30.7209 18.8318 31.2637 18.6898 31.7857 18.4257ZM27.4237 17.7357V17.9058C27.4237 19.3885 28.6301 20.595 30.113 20.595C31.5958 20.595 32.8022 19.3887 32.8022 17.9058V17.7312C33.019 17.5421 33.2301 17.3304 33.4343 17.0956L36.3398 18.4318C35.6081 18.8098 35.0327 19.4468 34.7358 20.2388C34.4468 21.0099 34.4498 21.8578 34.7449 22.6266L36.0438 26.0117C36.6687 27.6401 37.1142 29.341 37.3676 31.0671L37.6769 33.1732L37.2155 34.62C36.866 35.7162 36.7582 36.8818 36.8953 38.022H23.6878C23.7994 36.77 23.6187 35.5043 23.1565 34.3306L22.3739 32.3424L22.5612 31.0671C22.8148 29.341 23.2603 27.6401 23.8851 26.0117L25.1841 22.6266C25.4791 21.8578 25.4822 21.0099 25.1932 20.2388C24.9 19.4569 24.3347 18.8274 23.6163 18.4477L26.7609 17.0775C26.9759 17.3206 27.1966 17.5414 27.4237 17.7357ZM17.7122 30.99C17.7216 30.9293 17.7293 30.8686 17.7356 30.8072L17.933 28.8338C18.1673 26.4903 18.6211 24.1554 19.282 21.8946L19.5354 21.0282C19.6866 20.5111 19.972 20.0407 20.3611 19.6678C20.9524 19.1011 21.7833 18.871 22.5808 19.0533C23.3796 19.235 24.0281 19.8014 24.3157 20.5685C24.5243 21.125 24.5219 21.7367 24.3091 22.2914L23.0102 25.6765C22.3608 27.3694 21.8976 29.1375 21.634 30.9317L20.5008 38.6466C20.4044 38.6157 20.3076 38.5852 20.2085 38.5611L19.8103 38.4643C19.3945 38.363 18.9485 38.3998 18.5545 38.5669C17.8073 38.8845 17.3416 39.6183 17.336 40.399C16.9392 40.3554 16.541 40.3336 16.1426 40.3339L17.7122 30.99ZM10.1023 44.1087C10.2619 43.4344 10.7006 42.8541 11.3058 42.5171C12.787 41.6916 14.464 41.2678 16.1456 41.2678C17.0538 41.2678 17.9634 41.3914 18.8442 41.6421L19.1475 41.7685C18.3607 41.7928 17.7014 41.8533 17.2364 41.9604L13.0556 42.9251L13.2663 43.8387L16.8872 43.0032C16.0584 44.8533 15.923 46.9299 16.5007 48.8691L16.4339 48.8625C14.415 48.6626 12.517 47.8791 10.9455 46.5964C10.2162 46.0015 9.88522 45.0249 10.1023 44.1087ZM16.0809 54.8843C16.0734 54.915 16.069 54.9464 16.0678 54.9778C16.0488 55.4907 16.3462 55.9245 16.7742 56.0086L18.7359 56.397V56.408L17.4335 56.6084C17.287 56.6316 17.1476 56.7326 17.0789 56.8643C17.006 57.004 17.0034 57.1718 17.0716 57.3122L17.2791 57.7435C17.3475 57.8857 17.3515 58.0753 17.2891 58.2265C17.2523 58.3158 17.2094 58.3475 17.2144 58.3486L14.0911 58.7232L12.7584 58.1548C12.7275 58.1414 12.6705 58.0754 12.641 57.9471C12.6005 57.7723 12.6344 57.5782 12.7235 57.4753L14.0332 55.9634C14.2029 55.7672 14.2966 55.4925 14.2917 55.2073L14.4839 49.4686C14.809 49.6927 15.8053 50.3661 17.0126 51.0659L16.0809 54.8843ZM30.2257 50.794C30.1437 50.7685 30.0558 50.7657 29.9723 50.7863C29.9123 50.8011 23.9339 52.2718 21.6907 52.0414C20.3958 51.9085 18.2984 50.7633 16.7791 49.835C17.5662 49.9034 18.3541 49.9397 19.1419 49.9397C20.9339 49.9395 22.7226 49.7625 24.4856 49.4098L26.5073 49.0055C26.7483 48.9572 26.9869 48.9019 27.2255 48.8461L33.5463 50.2779C35.6979 50.7654 37.9071 51.0125 40.1135 51.0125H40.1414L43.478 51.0094C43.537 51.0094 43.5961 51.0071 43.6551 51.0066C41.4105 51.7067 38.7354 52.4607 37.6223 52.4607C35.5486 52.4609 30.2787 50.8107 30.2257 50.794ZM46.0116 55.2195C46.0094 55.5003 46.103 55.7703 46.2703 55.9639L47.5795 57.4756C47.6686 57.5782 47.7026 57.7725 47.662 57.9474C47.6325 58.0756 47.5755 58.1417 47.5446 58.155L46.2145 58.7208L43.1023 58.351C43.0936 58.3477 43.0507 58.3163 43.0139 58.227C42.9516 58.0758 42.9555 57.8864 43.024 57.7439L43.2307 57.3139C43.2994 57.1723 43.2968 57.0043 43.2239 56.8646C43.155 56.7326 43.0148 56.6314 42.8676 56.6086L41.5664 56.4082C41.5664 56.4045 41.5664 56.401 41.5664 56.3977L43.5281 56.0091C43.9568 55.925 44.2542 55.4911 44.2352 54.9783C44.2338 54.9403 44.2277 54.9024 44.2172 54.8658L43.4088 52.065C44.2451 51.8098 45.0394 51.5548 45.7055 51.3359L46.0116 55.2195Z" fill="#1E1E1E"/>
</svg>
