<svg width="81" height="81" viewBox="0 0 81 81" fill="none" xmlns="http://www.w3.org/2000/svg">
<path d="M67.3471 67.273C68.6927 66.9499 69.8343 66.003 70.4005 64.7402L70.8812 63.6687C71.5818 62.1062 71.3177 60.2533 70.2084 58.9487C69.7724 58.4362 69.2162 58.0224 68.5996 57.7521L66.8524 56.9865C64.6534 56.0227 62.3565 55.3852 59.998 55.0743L57.6796 41.4855C57.6705 41.4265 57.663 41.3671 57.6571 41.3077L57.394 38.6765C57.074 35.4755 56.454 32.2865 55.5512 29.1977L55.2137 28.043C54.9509 27.1434 54.4543 26.3255 53.7777 25.6771C52.8902 24.8271 51.7127 24.3865 50.5112 24.4315L45.5149 22.1337C45.6327 21.9605 45.7487 21.7833 45.8618 21.5977C47.1893 19.4149 47.9621 16.6821 47.9293 14.2865C47.8968 11.9196 47.0771 9.70085 45.6215 8.03897C45.4115 7.79929 45.1912 7.57741 44.9627 7.3696C45.0127 7.1421 45.0584 6.8946 45.0549 6.6346C45.0174 3.91554 42.7762 1.7271 40.0552 1.77116C37.3362 1.80897 35.1546 4.05179 35.1918 6.77054C35.1959 7.05085 35.2534 7.28429 35.3137 7.49335C35.088 7.71022 34.8702 7.94116 34.6643 8.19022C33.2552 9.89147 32.4968 12.1318 32.5293 14.499C32.5624 16.8943 33.4102 19.6052 34.7974 21.7505C34.8774 21.874 34.959 21.9927 35.0409 22.1105L29.7109 24.4315C28.5071 24.3849 27.3268 24.8252 26.4377 25.6768C25.7612 26.3252 25.2646 27.143 25.0018 28.0424L24.664 29.1974C23.7612 32.2862 23.1412 35.4752 22.8212 38.6762L22.5584 41.3065C22.5521 41.3662 22.5446 41.4258 22.5368 41.4771L20.4005 54.1905C18.3837 54.368 16.4043 54.959 14.6202 55.9534C13.5077 56.573 12.7012 57.6396 12.4077 58.8793C12.009 60.5634 12.6174 62.3583 13.958 63.453C15.2484 64.5062 16.6902 65.328 18.2296 65.8965L17.9602 73.9418C17.9599 73.9552 17.9599 73.9687 17.9602 73.9821C17.963 74.0743 17.934 74.1402 17.9205 74.1559L16.1746 76.1715C15.7937 76.6115 15.6471 77.274 15.7918 77.9002C15.9168 78.4418 16.2393 78.8593 16.6759 79.0455L18.4537 79.8037C18.6084 79.8693 18.7734 79.9024 18.9318 79.9024C18.9846 79.9024 19.0365 79.8987 19.0874 79.8915L23.2718 79.3933C23.6915 79.3321 24.0612 79.054 24.2862 78.6312C24.5574 78.1208 24.5905 77.4893 24.3815 76.9477L25.4362 76.7849C25.9055 76.7133 26.2793 76.3221 26.3662 75.8121C26.4834 75.1234 26.0993 74.4684 25.5099 74.3518L22.8446 73.8243C22.8384 73.8068 22.8321 73.7833 22.8293 73.754L23.9702 69.0777C25.7021 70.0115 27.5771 70.8471 28.9487 70.9877C31.9359 71.2955 39.0249 69.6224 40.2484 69.3259C41.3746 69.6743 47.5777 71.554 50.3187 71.554C51.6243 71.554 54.2596 70.8899 56.8365 70.134L57.884 73.7643C57.8809 73.789 57.8755 73.8093 57.8699 73.8243L55.2049 74.3518C54.6155 74.4684 54.2312 75.1234 54.3484 75.8121C54.4352 76.3224 54.809 76.7133 55.2777 76.7849L56.3327 76.9477C56.1237 77.489 56.1568 78.1208 56.428 78.6312C56.653 79.0543 57.0227 79.3321 57.459 79.3955L61.6118 79.8893C61.6684 79.8974 61.7252 79.9015 61.7818 79.9015C61.9449 79.9015 62.1077 79.8683 62.2615 79.8034L64.0384 79.0455C64.4749 78.8593 64.7974 78.4418 64.9224 77.9002C65.0671 77.274 64.9205 76.6115 64.5393 76.1715L62.7937 74.1562C62.7799 74.1402 62.7505 74.0743 62.7537 73.9821C62.7543 73.9596 62.7537 73.9365 62.7521 73.9137L62.3177 68.3962C62.9359 68.1877 63.3549 68.0421 63.4905 67.9949C64.7865 67.8168 66.0746 67.5787 67.3471 67.273ZM23.5037 65.6246C22.5715 62.9734 22.788 60.0599 24.1193 57.5699L24.2146 57.3918C29.2652 56.8102 44.0552 58.5855 44.213 58.6049C44.3899 58.6265 44.5687 58.5709 44.7027 58.4524C44.8365 58.3337 44.913 58.1634 44.913 57.9846V56.8959C44.913 56.5499 45.0668 56.2252 45.3349 56.0062C45.5555 55.8255 45.8321 55.7333 46.1187 55.7477L49.8321 55.929C49.999 55.9346 50.1602 55.8787 50.283 55.7668L54.5687 51.8708C54.7234 51.7302 54.9209 51.6587 55.1318 51.6687L56.4412 51.7309C56.5718 51.7371 56.7002 51.7765 56.8118 51.8443C57.0255 51.9752 57.1609 52.193 57.183 52.4424C57.2052 52.6918 57.1102 52.9302 56.9227 53.0962L54.1105 55.589C53.8302 55.8377 53.5184 56.0512 53.1846 56.2234L46.8962 59.4659C46.8849 59.4715 46.8743 59.4774 46.8637 59.484L44.3402 60.9824C41.5234 62.6549 38.4659 63.8287 35.2534 64.4715L32.5574 65.0105C29.5746 65.6071 26.5355 65.8127 23.5037 65.6246ZM24.5346 54.4174C24.4546 53.7962 24.7927 53.1796 25.383 52.929C25.6621 52.8099 25.9774 52.7843 26.273 52.8562L26.8043 52.9852C27.8765 53.2455 28.8037 53.8943 29.4159 54.8124L29.6177 55.1155C29.7118 55.2565 29.859 55.3534 30.0259 55.3837L31.6477 55.6787C32.1855 55.7765 32.693 55.9883 33.1402 56.2902C31.7218 56.1918 30.3059 56.1124 28.9849 56.0684L25.7271 54.7112C25.7049 54.7021 25.6824 54.694 25.6596 54.6877C25.288 54.5805 24.9121 54.4934 24.5346 54.4174ZM29.6218 45.9652L29.8671 46.5887C30.4909 48.1727 30.6802 49.899 30.4149 51.5805L30.0909 53.6355C29.6871 53.1515 29.2077 52.743 28.673 52.4215L29.6218 45.9652ZM31.5665 52.303H49.5593L49.9537 54.3771L49.634 54.6677L46.1796 54.499C45.5843 54.4705 45.004 54.6618 44.5434 55.039C43.984 55.4965 43.663 56.1733 43.663 56.8959V57.2818C42.2165 57.1143 38.7852 56.7334 35.0774 56.4355C34.299 55.4012 33.1502 54.6812 31.8715 54.4487L31.2462 54.3349L31.5665 52.303ZM50.6856 51.5333C50.4284 50.1802 50.4727 48.7783 50.8102 47.4446L51.6077 52.8737L51.0387 53.3908L50.6856 51.5333ZM44.978 62.0571L47.4855 60.568L48.7771 59.9021L49.7115 59.7837C52.7227 59.4008 55.8152 59.5693 58.7759 60.263C57.8993 62.4505 57.9274 64.9374 58.8687 67.1071C58.6205 67.1121 58.3724 67.1183 58.1246 67.1187L53.6759 67.1227C53.6637 67.1227 53.6518 67.1227 53.6399 67.1227C50.7909 67.1227 47.9377 66.8037 45.1599 66.1746L38.9865 64.7762C41.0718 64.0921 43.078 63.1852 44.978 62.0571ZM68.0974 58.8971C68.5412 59.0915 68.9421 59.3896 69.2559 59.7587C70.0546 60.698 70.2449 62.0318 69.7405 63.1571L69.2599 64.2287C68.8509 65.1405 68.0268 65.824 67.0549 66.058C64.813 66.5962 62.5218 66.9296 60.2193 67.0577L60.1193 66.8477C59.1834 64.8812 59.1455 62.5755 59.9943 60.5818C60.3312 60.6787 60.6668 60.7799 60.9993 60.8908L62.7434 61.4721L63.1387 60.2862L61.3946 59.7049C58.3118 58.6777 55.0259 58.2208 51.7737 58.3574L53.7571 57.3346C54.1834 57.1149 54.5815 56.8424 54.9396 56.5246L55.4659 56.058L57.359 56.1124C60.4718 56.2018 63.4968 56.8812 66.3499 58.1315L68.0974 58.8971ZM57.3952 54.863L56.8324 54.8468L57.7518 54.0321C58.0668 53.7527 58.2793 53.3946 58.3759 53.0015L58.7059 54.9362C58.2709 54.9012 57.834 54.8755 57.3952 54.863ZM52.9118 26.5796C53.4305 27.0768 53.8112 27.704 54.0127 28.3937L54.3505 29.5487C55.2318 32.563 55.8368 35.6762 56.1493 38.8008L56.4124 41.4318C56.4205 41.5137 56.4312 41.5946 56.4449 41.6859L58.1015 51.3962C57.9396 51.1502 57.7249 50.9384 57.463 50.778C57.1727 50.6012 56.8399 50.4987 56.5002 50.4824L55.1912 50.4202C54.6509 50.3952 54.1296 50.5812 53.7274 50.9465L52.7218 51.8605L51.2143 41.5984C50.8627 39.2062 50.2455 36.8487 49.3793 34.5915L47.6474 30.078C47.3637 29.3387 47.3605 28.5227 47.6387 27.7808C48.0221 26.7584 48.8868 26.003 49.9518 25.7605C51.0168 25.5168 52.1234 25.824 52.9118 26.5796ZM40.0712 3.02054C42.0512 2.98741 43.6802 4.53554 43.793 6.48866C42.6684 5.80179 41.4074 5.44585 40.1052 5.4621C38.7996 5.48022 37.5505 5.87054 36.4468 6.58804C36.5068 4.63366 38.0971 3.04804 40.0712 3.02054ZM35.6259 8.9871C36.8218 7.54335 38.4187 6.73554 40.1224 6.7121C40.148 6.71179 40.1734 6.71147 40.199 6.71147C41.8743 6.71147 43.463 7.47335 44.6799 8.86241C45.8646 10.2149 46.5546 12.0055 46.6577 13.9346C45.143 12.7993 42.2602 10.8746 40.1221 10.8746C37.9999 10.8746 35.258 12.7552 33.7946 13.8918C33.8862 12.0433 34.5224 10.319 35.6259 8.9871ZM33.8437 15.4571C35.1346 14.3624 38.1762 12.1246 40.1218 12.1246C42.0718 12.1246 45.2577 14.3818 46.6177 15.4849C46.434 17.3408 45.788 19.3102 44.7924 20.9477C43.5387 23.0093 41.9243 24.204 40.3634 24.2252C38.8046 24.2549 37.1562 23.0974 35.8459 21.0708C34.7674 19.4027 34.0512 17.3665 33.8437 15.4571ZM42.5355 24.9237C42.2396 25.8743 41.3518 26.5662 40.3049 26.5662C39.2559 26.5662 38.3665 25.8709 38.0727 24.9171C38.8012 25.2846 39.5555 25.4758 40.3174 25.4758C40.3384 25.4758 40.3596 25.4758 40.3806 25.4755C41.1159 25.4652 41.8396 25.2759 42.5355 24.9237ZM36.7196 24.0037V24.2305C36.7196 26.2074 38.328 27.8162 40.3052 27.8162C42.2824 27.8162 43.8909 26.2077 43.8909 24.2305V23.9977C44.1799 23.7455 44.4615 23.4633 44.7337 23.1502L48.6077 24.9318C47.6321 25.4359 46.8649 26.2852 46.469 27.3412C46.0837 28.3693 46.0877 29.4999 46.4812 30.5249L48.213 35.0384C49.0462 37.2096 49.6402 39.4774 49.978 41.779L50.3905 44.5871L49.7752 46.5162C49.3093 47.9777 49.1655 49.5318 49.3484 51.0521H31.7384C31.8871 49.3827 31.6462 47.6952 31.0299 46.1302L29.9865 43.4793L30.2362 41.779C30.5743 39.4774 31.1684 37.2096 32.0015 35.0384L33.7334 30.5249C34.1268 29.4999 34.1309 28.3693 33.7455 27.3412C33.3546 26.2987 32.6009 25.4593 31.643 24.953L35.8359 23.1262C36.1224 23.4502 36.4168 23.7446 36.7196 24.0037ZM23.7709 41.6762C23.7834 41.5952 23.7937 41.5143 23.8021 41.4324L24.0652 38.8012C24.3777 35.6765 24.9827 32.5634 25.864 29.549L26.2018 28.3937C26.4034 27.7043 26.784 27.0771 27.3027 26.5799C28.0912 25.8243 29.199 25.5174 30.2624 25.7605C31.3274 26.0027 32.1921 26.758 32.5755 27.7808C32.8537 28.5227 32.8505 29.3384 32.5668 30.078L30.8349 34.5915C29.969 36.8487 29.3515 39.2062 28.9999 41.5984L27.489 51.8849C27.3605 51.8437 27.2315 51.803 27.0993 51.7709L26.5684 51.6418C26.014 51.5068 25.4193 51.5559 24.894 51.7787C23.8977 52.2021 23.2768 53.1805 23.2693 54.2215C22.7402 54.1633 22.2093 54.1343 21.678 54.1346L23.7709 41.6762ZM13.6243 59.1677C13.8371 58.2687 14.4221 57.4949 15.229 57.0455C17.204 55.9449 19.4399 55.3799 21.6821 55.3799C22.893 55.3799 24.1059 55.5446 25.2802 55.879L25.6846 56.0474C24.6355 56.0799 23.7565 56.1605 23.1365 56.3034L17.5621 57.5896L17.843 58.8077L22.6709 57.6937C21.5659 60.1605 21.3852 62.9293 22.1555 65.5149L22.0665 65.5062C19.3746 65.2396 16.844 64.1949 14.7487 62.4846C13.7762 61.6915 13.3349 60.3893 13.6243 59.1677ZM21.5959 73.5352C21.5859 73.5762 21.5799 73.618 21.5784 73.6599C21.553 74.3437 21.9496 74.9221 22.5202 75.0343L25.1359 75.5521V75.5668L23.3993 75.834C23.204 75.8649 23.018 75.9996 22.9265 76.1752C22.8293 76.3615 22.8259 76.5852 22.9168 76.7724L23.1934 77.3474C23.2846 77.5371 23.2899 77.7899 23.2068 77.9915C23.1577 78.1105 23.1005 78.1527 23.1071 78.1543L18.9427 78.6537L17.1659 77.8959C17.1246 77.878 17.0487 77.7899 17.0093 77.619C16.9552 77.3858 17.0005 77.1271 17.1193 76.9899L18.8655 74.974C19.0918 74.7124 19.2168 74.3462 19.2102 73.9659L19.4665 66.3143C19.8999 66.613 21.2284 67.5108 22.838 68.444L21.5959 73.5352ZM40.4555 68.0815C40.3462 68.0474 40.229 68.0437 40.1177 68.0712C40.0377 68.0909 32.0665 70.0518 29.0755 69.7446C27.349 69.5674 24.5524 68.0405 22.5268 66.8027C23.5762 66.894 24.6268 66.9424 25.6771 66.9424C28.0665 66.9421 30.4515 66.7062 32.8021 66.2358L35.4977 65.6968C35.819 65.6324 36.1371 65.5587 36.4552 65.4843L44.883 67.3934C47.7518 68.0434 50.6974 68.3727 53.6393 68.3727H53.6765L58.1252 68.3687C58.204 68.3687 58.2827 68.3655 58.3615 68.3649C55.3687 69.2983 51.8018 70.3037 50.3177 70.3037C47.5527 70.304 40.5262 68.1037 40.4555 68.0815ZM61.5034 73.9821C61.5005 74.3565 61.6252 74.7165 61.8484 74.9746L63.594 76.9902C63.7127 77.1271 63.758 77.3862 63.704 77.6193C63.6646 77.7902 63.5887 77.8783 63.5474 77.8962L61.774 78.6505L57.6243 78.1574C57.6127 78.153 57.5555 78.1112 57.5065 77.9921C57.4234 77.7905 57.4287 77.538 57.5199 77.348L57.7955 76.7746C57.8871 76.5858 57.8837 76.3618 57.7865 76.1755C57.6946 75.9996 57.5077 75.8646 57.3115 75.8343L55.5765 75.5671C55.5765 75.5621 55.5765 75.5574 55.5765 75.553L58.1921 75.0349C58.7637 74.9227 59.1602 74.3443 59.1349 73.6605C59.133 73.6099 59.1249 73.5593 59.1109 73.5105L58.033 69.7762C59.148 69.4359 60.2071 69.0958 61.0952 68.804L61.5034 73.9821Z" fill="#3D493A"/>
</svg>
