<svg width="19" height="25" viewBox="0 0 19 25" fill="none" xmlns="http://www.w3.org/2000/svg">
<path d="M4.11135 22.3463C5.244 22.5334 6.35003 22.4463 7.43856 22.0938C8.9169 21.6151 10.2359 20.8449 11.4831 19.9362C12.2764 19.3583 13.0534 18.7558 13.8696 18.2123C15.2393 17.3002 16.9473 17.288 18.1733 18.1456C18.3617 18.2774 18.5336 18.4411 18.6837 18.6154C18.7435 18.6849 18.7741 18.8685 18.7282 18.9197C18.6538 19.0026 18.4958 19.0737 18.3898 19.0551C17.6875 18.9312 16.9767 18.8804 16.3316 19.2066C15.634 19.5593 14.9713 19.9862 14.3156 20.4149C13.7575 20.7797 13.231 21.193 12.6617 21.6057C12.9065 21.7387 13.1141 21.8515 13.3335 21.9707C13.6885 21.7012 14.0447 21.4004 14.4304 21.1442C15.3 20.5667 16.239 20.2816 17.2771 20.6168C18.0447 20.8646 18.491 21.4952 18.4274 22.2434C18.3823 22.7747 18.1015 23.194 17.6857 23.5152C16.9152 24.1105 16.0205 24.3678 15.0657 24.4702C13.3552 24.6537 11.8124 24.1903 10.3893 23.2711C10.2219 23.163 10.1114 23.174 9.94832 23.2576C8.34105 24.0811 6.65475 24.5877 4.82577 24.5085C3.74554 24.4617 2.72696 24.2245 1.85421 23.5444C1.2031 23.0369 0.929866 22.2903 1.15341 21.5877C1.37783 20.8822 1.92531 20.5237 2.60971 20.3951C3.16008 20.2918 3.72556 20.2618 4.28587 20.2199C5.87942 20.1005 7.12505 19.337 8.19574 18.1945C9.26727 17.0511 9.4328 15.723 9.12416 14.2639C9.04823 13.905 9.00788 13.5365 8.98115 13.1702C8.97127 13.035 9.02577 12.8812 9.09356 12.7596C9.13041 12.6935 9.26742 12.6298 9.34103 12.6463C9.85169 12.7607 10.3347 12.6855 10.7754 12.4249C11.9617 11.7233 12.8648 10.7703 13.2422 9.41366C13.5502 8.30647 13.3206 7.2942 12.555 6.42351C12.3114 6.14639 12.0526 5.88098 11.7847 5.62711C11.0305 4.91243 10.2347 4.23471 9.78431 3.19253C9.34146 4.2895 8.47553 4.96168 7.70381 5.71539C7.43345 5.97943 7.15951 6.24541 6.9273 6.54191C6.01361 7.70856 6.02846 8.95443 6.67338 10.229C7.01189 10.8981 7.5034 11.4503 8.0963 11.906C8.29813 12.0612 8.36684 12.2005 8.27796 12.4634C8.08499 13.034 8.20306 13.6156 8.29788 14.191C8.45427 15.1402 8.54021 16.1012 8.12608 16.998C7.4383 18.4874 6.19767 19.2952 4.62598 19.6146C3.67722 19.8074 2.75701 19.6935 1.8677 19.2756C1.52332 19.1138 1.12862 19.0604 0.759291 18.9495C0.655373 18.9182 0.480775 18.8639 0.476771 18.8099C0.467149 18.6802 0.502194 18.5126 0.58454 18.4161C1.24666 17.6396 2.30807 17.3885 3.25804 17.7757C3.57247 17.9038 3.86958 18.0752 4.18559 18.1986C5.65976 18.7746 7.1754 17.7951 7.35402 16.2228C7.50143 14.9252 6.96058 13.8794 6.31489 12.8452C5.87237 12.1365 5.38485 11.4492 5.01176 10.7051C4.13215 8.9508 4.46529 7.13044 5.87987 5.77609C6.49722 5.18502 7.15334 4.63398 7.79975 4.07386C8.69637 3.29692 9.16982 2.30473 9.32779 1.14394C9.34586 1.01117 9.36335 0.859387 9.43788 0.758278C9.52035 0.646413 9.66834 0.516245 9.78743 0.516602C9.90783 0.51697 10.069 0.64291 10.1375 0.758278C10.2223 0.901254 10.2447 1.08787 10.2689 1.25918C10.4644 2.64255 11.2218 3.66023 12.2867 4.51811C12.9498 5.0523 13.6101 5.62106 14.1442 6.27796C15.2295 7.61288 15.3239 9.12472 14.5735 10.6484C14.1984 11.4101 13.6828 12.1025 13.2333 12.8279C13.0649 13.0998 12.8599 13.3604 12.753 13.6555C12.6589 13.9151 12.5873 14.2438 12.6639 14.4935C12.9617 15.4644 12.6826 16.3081 12.1929 17.1207C10.6626 19.6599 8.38726 21.2045 5.58877 22.0426C5.34753 22.1148 5.09608 22.1537 4.84859 22.2041C4.60336 22.2541 4.35714 22.2991 4.11135 22.3463Z" fill="#AEA17E"/>
<path d="M11.619 8.84475C11.6111 9.90487 10.8209 10.6977 9.77785 10.6919C8.75101 10.6861 7.96866 9.8656 7.97724 8.80337C7.98609 7.70866 8.77069 6.93767 9.86631 6.94711C10.8715 6.95576 11.6269 7.77366 11.619 8.84475Z" fill="#AEA17E"/>
</svg>
