<svg width="80" height="80" viewBox="0 0 80 80" fill="none" xmlns="http://www.w3.org/2000/svg">
<g clip-path="url(#clip0_99_377)">
<path d="M74.6092 43.2421C72.8333 39.2725 67.2118 39.0165 64.8762 39.0906C63.9457 39.1201 63.1748 39.8091 63.0435 40.7287L62.9014 41.7239L61.6827 41.5089C61.5785 39.9471 61.1407 34.3878 60.0605 31.9137C59.7046 31.0991 59.4577 30.2397 59.3264 29.3599C59.0163 27.2802 58.563 24.8276 58.4554 24.2519C58.6444 23.609 59.3728 20.7447 58.6845 16.8436C58.0269 13.1173 58.5534 10.8563 58.6531 10.4812L59.7364 8.748C60.0371 8.26686 60.2038 7.73777 60.2475 7.20475C60.2796 6.81544 60.3586 6.43108 60.5194 6.07522C60.7218 5.6272 61.0084 5.18447 61.3289 5.11091C61.4824 5.07558 61.6215 4.98359 61.6725 4.83459C61.8307 4.37394 61.4493 4.02508 61.0724 4.11929C60.5123 4.25941 60.1016 4.71921 59.8128 5.20888C59.601 4.83425 59.3175 4.49307 58.9632 4.20958L58.7413 4.03207L59.3073 1.08844C59.3542 0.844205 59.2319 0.588534 59.0008 0.49654C58.6908 0.373483 58.365 0.565152 58.3056 0.874415L57.725 3.894L57.3563 4.07833L56.8972 0.448068C56.8615 0.167308 56.6029 -0.0322112 56.3249 0.0043133C56.0442 0.039643 55.8455 0.295826 55.881 0.576587L56.3852 4.56373L56.0754 4.7187L54.5113 1.0398C54.4144 0.811948 54.1715 0.66841 53.9295 0.720637C53.6037 0.790784 53.4378 1.13213 53.5613 1.42296L55.1575 5.17782L54.5548 5.47923L52.5504 2.91808C52.3557 2.6694 51.9773 2.64926 51.7582 2.90033C51.5953 3.08705 51.6032 3.36917 51.7559 3.56425L53.9423 6.35786L54.7697 9.43172C54.6339 10.6708 53.4465 21.7133 54.0199 24.148C53.7588 29.4272 53.8648 33.0301 54.3348 34.8708C52.7808 36.1587 46.2506 39.1 43.6897 40.199C42.8271 40.4109 32.4937 43.0373 28.6174 48.0391C25.0173 52.6844 22.3466 56.7391 21.9752 57.3074C21.6147 57.6007 19.6499 59.1664 18.0234 59.817C16.0342 60.6127 10.3787 65.9798 8.24985 69.9063C6.16573 71.9005 4.71875 74.9593 4.71875 76.4841C4.71875 77.6592 6.17273 78.8132 7.83016 78.9536C8.27869 78.9915 8.7163 78.8398 9.02983 78.537C9.34677 78.2308 9.5154 77.7929 9.49253 77.3355L9.35497 74.5837C9.32578 74.001 9.52871 73.4306 9.91922 72.9971L9.96086 72.9508C10.8694 71.9413 11.9134 71.0567 13.0636 70.3216C15.3849 68.8382 18.3031 66.8461 19.2816 65.6268C21.2278 64.8909 27.951 60.4499 32.0053 56.7758C34.4078 54.5983 36.7855 54.9919 38.3571 55.7051C39.7268 56.3267 41.2581 56.8241 42.9085 57.1837C45.8132 57.8166 50.0453 58.5972 53.922 58.7787C54.2236 59.5848 55.0389 61.7059 55.7776 63.1066C55.8003 63.3309 55.8264 63.542 55.8554 63.738C55.9329 64.2606 55.9278 64.7705 55.8399 65.2541C55.3244 68.0927 55.732 74.5895 55.9312 77.251C56.0052 78.2445 56.7393 79.0782 57.7159 79.2788L60.3392 79.8169C60.9343 79.9389 61.5402 80.0004 62.1478 80.0004C62.3653 80.0004 62.5832 79.9925 62.8007 79.9767C63.5986 79.919 64.7552 79.7913 65.7358 79.5111C65.8805 79.4698 65.9995 79.3668 66.0616 79.23C66.1235 79.0929 66.1222 78.9355 66.0578 78.7997C65.5004 77.6231 64.0282 76.8455 62.5339 76.3415C62.5982 76.3534 62.6631 76.3657 62.7298 76.379C63.8199 76.597 65.08 76.6676 66.2555 76.6676C66.9993 76.6676 67.7093 76.6393 68.3205 76.6022C68.8019 76.5731 69.2237 76.2295 69.3013 75.7533C69.3793 75.2752 69.1165 74.8187 68.6651 74.6453C65.5595 73.4524 63.3135 72.1652 62.3407 71.0208C60.8888 69.3127 60.644 63.2471 60.6768 59.9582C60.6824 59.3864 60.7737 58.8198 60.9487 58.2755C61.7037 55.933 62.6291 49.7254 62.8903 47.9116C63.7056 48.0618 64.3069 48.4912 64.9865 48.9764C65.8875 49.6199 66.8993 50.3388 68.5531 50.4741C68.2737 51.3362 68.0211 52.5248 68.0211 54.0097C68.0211 57.5186 69.9885 60.8151 70.0724 60.9537C70.1661 61.1089 70.3332 61.201 70.5104 61.201C70.5377 61.201 70.5652 61.1988 70.5925 61.1946C70.7988 61.1609 70.9641 61.0055 71.01 60.8017C71.0552 60.6011 72.1142 55.8657 71.9755 53.7036C71.9036 52.5891 71.5017 51.3181 71.104 50.2983C72.7055 49.9616 73.9775 49.2125 74.6639 48.1535C75.5052 46.8556 75.4866 45.2035 74.6092 43.2421ZM54.5523 35.9758C54.5926 36.3687 54.6006 36.8078 54.5082 37.1313C54.4306 37.4031 54.5881 37.6866 54.8598 37.7643C54.9068 37.7778 54.9542 37.7841 55.0008 37.7841C55.2235 37.7841 55.4285 37.6375 55.4929 37.4125C55.7038 36.674 55.5722 35.7172 55.4775 35.2221C55.4461 35.0582 55.3118 34.5679 55.2688 34.3687C54.9728 32.9965 54.7467 30.1245 55.0467 24.1221C55.0496 24.0673 55.0433 24.0123 55.0288 23.9594C54.535 22.1818 55.4169 12.8817 55.7984 9.44827C55.8055 9.38478 55.8006 9.32044 55.7839 9.25865L55.0129 6.3949L58.1162 4.84329L58.3235 5.00919C59.2895 5.782 59.5235 7.15594 58.8678 8.20508L57.746 10.0001C57.7231 10.0366 57.705 10.076 57.692 10.1173C57.6596 10.2197 56.909 12.6749 57.676 17.0216C58.3959 21.1015 57.4524 24.0318 57.4432 24.0601C57.4155 24.1429 57.4096 24.2315 57.4258 24.3171C57.4311 24.3453 57.9641 27.1691 58.3134 29.5108C58.4578 30.4797 58.7297 31.4261 59.1218 32.3233C59.8804 34.0608 60.3127 37.6061 60.5228 39.8813C58.2786 40.3273 56.5212 40.103 55.2944 39.2128C54.1375 38.3731 53.7501 37.1282 53.6286 36.5561C53.9768 36.352 54.2881 36.157 54.5523 35.9758ZM43.973 41.1839C44.0008 41.1773 44.0281 41.1682 44.0546 41.1568C44.7757 40.8477 49.5551 38.7853 52.7001 37.0787C52.9135 37.8679 53.4332 39.1206 54.6793 40.0314C55.6784 40.7617 56.9387 41.1278 58.4444 41.1278C59.1177 41.1278 59.841 41.0532 60.6111 40.9066C60.6254 41.0897 60.6377 41.2537 60.6478 41.3947C59.748 41.3747 58.068 41.4903 56.9941 42.4988C56.2838 43.1656 55.9614 44.089 56.036 45.2434C56.2425 48.4438 56.441 50.4465 57.4553 51.2705C57.7649 51.5219 58.1332 51.6484 58.5539 51.6484C58.6598 51.6484 58.7691 51.6403 58.8815 51.6243C59.8691 51.4833 60.8128 50.815 61.5128 50.178C61.4622 50.4995 61.4085 50.8371 61.352 51.1848C59.7217 51.4238 56.9064 52.676 55.901 53.1407L55.1495 52.3893C55.0056 52.2454 54.7902 52.2003 54.6009 52.2746C54.5752 52.2846 51.9882 53.264 49.8611 51.2486C49.6556 51.0537 49.3313 51.0629 49.1373 51.2683C49.0144 51.398 48.9731 51.5751 49.0108 51.7369C46.0639 52.008 43.7173 52.8033 42.1036 53.3514C41.9174 53.4147 41.7395 53.4751 41.5704 53.5314C41.1632 53.6673 40.7175 53.6606 40.3156 53.5128C35.0317 51.5676 34.2769 46.2786 34.1703 44.9425C38.6105 42.5022 43.8974 41.2022 43.973 41.1839ZM12.5125 69.4585C11.2846 70.2432 10.1701 71.1878 9.19999 72.2654L9.15835 72.3116C8.58283 72.951 8.28961 73.7764 8.33262 74.6356L8.47019 77.3863C8.47838 77.5509 8.42462 77.698 8.31863 77.8002C8.21622 77.899 8.0732 77.9463 7.91686 77.933C6.67656 77.8279 5.74314 76.9815 5.74314 76.484C5.74314 75.3372 7.01689 72.4724 9.0131 70.5938C9.05373 70.5556 9.08786 70.511 9.11397 70.4619C10.3951 68.06 13.1281 65.0687 15.3755 63.0344C15.6848 63.8781 16.3216 65.1791 17.4788 65.9552C16.4141 66.8483 14.7031 68.0588 12.5125 69.4585ZM55.6847 60.4514C55.1725 59.2234 54.7721 58.1245 54.7655 58.1065C54.6945 57.9108 54.5118 57.7776 54.3036 57.7696C50.4105 57.6228 46.0769 56.8258 43.1268 56.183C41.5468 55.8388 40.0847 55.3641 38.7807 54.7724C37.2653 54.0848 34.2807 53.3319 31.3179 56.0166C27.3871 59.5789 20.3604 64.2295 18.8175 64.7043C18.7102 64.7373 18.6168 64.8047 18.5515 64.8962C18.4794 64.9969 18.3827 65.1105 18.2634 65.2358C17.0092 64.5437 16.4124 62.9602 16.2118 62.3022C17.1476 61.513 17.9367 60.9548 18.4043 60.7679C20.3425 59.9925 22.5944 58.1257 22.6893 58.0465C22.7289 58.0135 22.7634 57.9746 22.7914 57.9313C22.819 57.8886 25.5906 53.6169 29.4272 48.6663C30.3511 47.4742 31.6999 46.4163 33.2085 45.4983C33.485 47.5003 34.6983 52.5364 39.9614 54.4739C40.285 54.593 40.6269 54.6526 40.9691 54.6526C41.2818 54.6526 41.5946 54.6027 41.8938 54.5031C42.0647 54.4462 42.2444 54.3851 42.4325 54.3211C44.272 53.6965 46.7818 52.8462 50.0494 52.6912C51.9404 53.8975 53.8858 53.5459 54.6456 53.3341L56.5652 55.2537C55.9772 56.691 55.7265 58.6506 55.6847 60.4514ZM61.5605 71.6837C62.9352 73.3009 65.937 74.69 68.2438 75.5806C66.7288 75.6721 64.598 75.7079 62.9307 75.3744C62.2439 75.2372 60.1987 74.8924 59.13 75.3983C59.2733 73.9158 59.637 70.1463 59.9792 66.5638C60.2467 68.7003 60.7227 70.6981 61.5605 71.6837ZM59.9743 57.9613C59.7726 58.5872 59.6389 59.2485 59.577 59.927C59.2103 63.9378 58.0593 75.8334 58.0477 75.953C58.0207 76.2326 58.2238 76.4816 58.5031 76.5115C59.8951 76.6603 63.4067 77.323 64.7447 78.6959C64.0304 78.8383 63.2864 78.9146 62.7271 78.955C61.9961 79.0083 61.2619 78.9603 60.5454 78.8133L57.9223 78.2752C57.3918 78.1663 56.9933 77.7137 56.9527 77.1742C56.7565 74.5521 56.3534 68.1591 56.848 65.4367C56.9557 64.8429 56.9627 64.2208 56.8689 63.5874C56.8386 63.3843 56.8117 63.1638 56.7886 62.9295C56.7878 62.9131 56.7862 62.8969 56.784 62.8807C56.5756 60.6958 56.6995 57.3288 57.6374 55.3594C57.7306 55.1636 57.6905 54.9304 57.537 54.7772L56.6739 53.9141C57.9083 53.3589 59.9176 52.5244 61.174 52.2556C60.8048 54.434 60.3607 56.7625 59.9743 57.9613ZM70.9538 53.7688C71.0386 55.0892 70.6123 57.581 70.3052 59.156C69.7528 57.9326 69.0453 55.9809 69.0453 54.0093C69.0453 52.462 69.3416 51.2758 69.6321 50.4849C69.7782 50.4777 69.9228 50.468 70.0653 50.4548C70.4602 51.4333 70.885 52.7018 70.9538 53.7688ZM73.8051 47.596C72.9074 48.9811 70.7934 49.4745 69.1146 49.4745C67.4464 49.4745 66.5408 48.8276 65.582 48.143C64.7269 47.5324 63.8428 46.9009 62.4779 46.8358C62.218 46.8229 61.9831 47.0144 61.9464 47.2767C61.9439 47.295 61.8838 47.7242 61.7828 48.4059C61.2735 49.0449 59.9415 50.4384 58.7364 50.6107C58.3788 50.6615 58.2022 50.5583 58.1006 50.4758C57.3606 49.8745 57.1996 47.3793 57.0576 45.1776C57.003 44.3324 57.2107 43.701 57.6927 43.2474C58.7917 42.2128 60.955 42.4309 61.1219 42.4497L63.2443 42.8241C63.3813 42.8482 63.5214 42.8159 63.6337 42.7345C63.746 42.6531 63.8204 42.5297 63.8401 42.3923L64.0572 40.8735C64.1179 40.4471 64.4762 40.1278 64.9087 40.1141C67.0392 40.0462 72.152 40.2568 73.6744 43.6603C74.4009 45.2844 74.445 46.6085 73.8051 47.596Z" fill="#3D493A"/>
</g>
<defs>
<clipPath id="clip0_99_377">
<rect width="80" height="80" fill="white"/>
</clipPath>
</defs>
</svg>
