<svg width="60" height="61" viewBox="0 0 60 61" fill="none" xmlns="http://www.w3.org/2000/svg">
<g clip-path="url(#clip0_250_287)">
<path d="M57.3756 34.1377C56.416 30.5753 54.2233 24.5733 50.3206 24.4026C44.9874 24.1686 42.3039 26.5825 41.882 31.9867C38.4565 30.5101 35.1657 29.2623 34.3783 28.9667C33.7705 27.9642 30.4704 22.875 23.0798 17.4293L23.7355 16.7602L24.0204 16.6169C25.6828 15.781 26.3932 13.79 25.638 12.0846L24.7586 10.0942C24.4313 9.35301 24.1733 8.5698 23.9923 7.76772L22.7535 2.2272C22.524 1.19377 21.6286 0.472131 20.5703 0.472131C20.2192 0.473021 19.897 0.663619 19.7082 0.955122C19.3036 0.559689 18.7524 0.322998 18.1474 0.322998C17.6718 0.324244 17.2476 0.671805 17.139 1.14981L14.7985 11.4444C14.6766 11.4104 14.5515 11.3914 14.4239 11.3914C13.7191 11.3914 13.1274 11.9004 13.0174 12.6019L12.7488 14.3128C12.6295 15.0731 12.8595 15.8325 13.3585 16.3911C11.9614 18.6528 9.50252 22.6548 7.23372 26.4577C2.19678 34.8999 2.19678 35.4726 2.19678 35.7803C2.19678 36.6109 4.14761 41.7816 7.87073 47.0664C11.2651 51.8845 16.9972 57.9862 25.0286 59.6928C26.9961 60.1109 28.9395 60.3228 30.805 60.323C30.8054 60.323 30.8056 60.323 30.8059 60.323C37.148 60.323 41.6686 57.8805 44.3439 55.8316C47.5624 53.3666 49.4873 50.4665 50.158 48.7321C50.7691 47.1516 51.2288 45.0607 51.2662 42.935C51.6284 42.3165 53.1614 39.6437 53.8744 37.5301C54.3939 37.4341 55.0282 37.274 55.7657 37.0524C57.0081 36.6789 57.7153 35.3986 57.3756 34.1377ZM20.5972 1.53973C21.1397 1.54952 21.5985 1.92484 21.7175 2.46033L22.9566 8.00281C23.1532 8.87376 23.4329 9.72318 23.7882 10.5276L24.668 12.5184C25.1918 13.7012 24.6988 15.0818 23.5455 15.6618L23.1819 15.8447C23.1297 15.8709 23.0821 15.9056 23.0412 15.9474L22.2386 16.7666C22.1182 16.6155 21.9937 16.4655 21.8629 16.3179C23.3326 15.4116 23.9286 13.5467 23.2151 11.9358L22.3357 9.94545C22.0084 9.20424 21.7504 8.4212 21.5692 7.61894L20.4013 2.39538L20.5972 1.53973ZM18.1745 1.39095C18.717 1.40074 19.1758 1.77606 19.2945 2.31156L20.5339 7.85403C20.7304 8.72498 21.0102 9.5744 21.3655 10.3788L22.2453 12.3695C22.769 13.5522 22.2761 14.9329 21.1229 15.5128L21.0971 15.5258C19.4262 13.9163 17.3662 12.6939 15.7848 11.8965L18.1745 1.39095ZM3.25951 35.7962C3.45822 34.8446 7.72315 27.5381 14.1838 17.0786C14.8976 17.6393 15.4969 18.3181 15.9639 19.1007L16.6237 20.2068C16.8796 20.6357 17.2827 20.9487 17.7438 21.1048C15.6279 29.39 12.7638 34.1055 9.65487 34.3984C9.36291 34.4258 9.14845 34.6862 9.17588 34.9798C9.20171 35.2566 9.43298 35.4639 9.70371 35.4639C9.72034 35.4639 9.73697 35.4632 9.75378 35.4616C9.97585 35.4406 10.1937 35.4032 10.4076 35.3504C11.4043 36.3133 16.7226 41.4381 19.4796 43.846C19.337 44.4905 18.9463 46.0945 18.258 47.795C17.5008 49.6655 16.2274 52.0225 14.3972 52.9003C7.01325 46.3243 3.35418 36.7465 3.25951 35.7962ZM30.4754 48.1882C29.7255 47.1174 26.7861 43.3964 22.0151 43.0594C21.2073 42.13 17.1487 37.4663 14.767 34.8421C17.8211 32.6234 20.0411 24.6906 20.7593 21.8255L30.0203 32.7251C30.0459 32.7553 30.0748 32.7825 30.1065 32.8062L38.3838 39.0169C37.6872 41.7759 35.8367 47.418 32.2578 48.0092L30.4754 48.1882ZM13.7172 34.2294C13.5608 34.2993 13.4475 34.4408 13.4128 34.6093C13.3782 34.7779 13.4267 34.953 13.5426 35.0793C15.476 37.1859 19.0521 41.2779 20.605 43.0604C20.4818 43.0691 20.359 43.077 20.2338 43.0903C17.7542 40.9313 13.0687 36.4361 11.5048 34.9291C15.0892 33.0525 17.4186 26.7222 18.8118 21.2171H19.8174C18.9143 24.9593 16.4653 33.0009 13.7172 34.2294ZM15.2646 53.6442C18.6416 51.6322 20.1501 45.7382 20.5036 44.1407C25.8458 43.6637 29.0819 48.024 29.6634 48.8828C29.5977 49.4383 29.37 51.1739 28.8916 53.0808C28.1827 55.906 27.2398 57.8821 26.1565 58.8246C25.8545 58.7703 25.5517 58.7128 25.2481 58.6482C21.4097 57.8326 18.0853 55.9713 15.2646 53.6442ZM49.1685 48.3452C47.792 51.905 41.4922 59.2558 30.805 59.2554C29.7082 59.2554 28.5819 59.178 27.4388 59.0262C29.6579 56.3567 30.4901 50.8415 30.6904 49.24L32.3795 49.0702C32.3899 49.0692 32.4004 49.0677 32.4107 49.0661C36.3273 48.4354 38.3613 43.2435 39.3025 39.7064L43.1967 42.6283L43.0021 45.9559C42.9848 46.2502 43.2082 46.5029 43.5007 46.5202C43.5114 46.5209 43.522 46.5211 43.5324 46.5211C43.8113 46.5211 44.0452 46.3022 44.0618 46.0185L44.2733 42.4036C44.2839 42.2242 44.2039 42.0516 44.0608 41.9442L30.7888 31.986L20.8906 20.3363C20.7897 20.2176 20.6423 20.1493 20.487 20.1493H18.3981C18.0462 20.1493 17.7151 19.9607 17.5341 19.6572L16.8743 18.5512C16.3114 17.6078 15.5824 16.7945 14.707 16.1339L14.3592 15.8716L14.359 15.8714C13.9286 15.547 13.7135 15.0137 13.7974 14.4794L14.066 12.7685C14.0975 12.5676 14.2739 12.4592 14.4237 12.4592C14.4751 12.4592 14.8128 12.6058 14.9427 12.669C16.5704 13.4606 18.8766 14.7761 20.6222 16.5518C20.961 16.8906 21.2715 17.245 21.5449 17.605C21.5777 17.6479 21.6164 17.6856 21.6603 17.7167C26.0786 20.8599 29.0777 23.9412 30.8158 25.9726C32.6996 28.1744 33.5489 29.6516 33.5571 29.666C33.619 29.7751 33.7172 29.8588 33.8344 29.9022C33.9143 29.9319 41.8918 32.8963 46.6691 35.4032C48.0525 36.1291 49.7774 37.7431 50.1392 41.31C50.4075 43.9524 49.8136 46.6766 49.1685 48.3452ZM55.4616 36.0293C54.6097 36.2854 53.914 36.453 53.3938 36.5278C53.1901 36.5569 53.0215 36.702 52.9611 36.8999C52.5758 38.1652 51.7883 39.7614 51.1657 40.9286C50.8387 38.265 49.6917 35.7851 47.1602 34.4566C45.8989 33.7948 44.4196 33.1023 42.9204 32.4398C42.9189 32.3949 42.9188 32.3528 42.9212 32.3154C43.2392 27.3054 45.4379 25.2581 50.2742 25.4695C51.3897 25.5183 54.2148 26.4878 56.3507 34.4171C56.5388 35.1146 56.1483 35.8229 55.4616 36.0293Z" fill="#3D493A"/>
</g>
<defs>
<clipPath id="clip0_250_287">
<rect width="59.6571" height="60" fill="white" transform="translate(0 0.322998)"/>
</clipPath>
</defs>
</svg>
