<svg width="26" height="26" viewBox="0 0 26 26" fill="none" xmlns="http://www.w3.org/2000/svg">
<g clip-path="url(#clip0_270_148)">
<path d="M13.2961 25.3325C20.1979 25.3325 25.7961 19.7343 25.7961 12.8325C25.7961 5.93072 20.1979 0.33252 13.2961 0.33252C6.39434 0.33252 0.796143 5.93072 0.796143 12.8325C0.796143 19.7343 6.39434 25.3325 13.2961 25.3325ZM12.4033 5.68967C12.4033 5.19858 12.8051 4.79679 13.2961 4.79679C13.7872 4.79679 14.189 5.19858 14.189 5.68967V12.404L18.3185 15.7075C18.7024 16.0156 18.7649 16.578 18.4569 16.962C18.2827 17.1807 18.0238 17.2968 17.7604 17.2968C17.564 17.2968 17.3675 17.2343 17.2024 17.1004L12.7381 13.529C12.5283 13.3593 12.4033 13.1049 12.4033 12.8325V5.68967H12.4033Z" fill="white"/>
</g>
<defs>
<clipPath id="clip0_270_148">
<rect width="25" height="25" fill="white" transform="translate(0.796143 0.33252)"/>
</clipPath>
</defs>
</svg>
