<svg width="80" height="80" viewBox="0 0 80 80" fill="none" xmlns="http://www.w3.org/2000/svg">
<path d="M77.98 67.5956L72.505 66.2509C72.4778 66.2443 72.45 66.2393 72.4222 66.2365L67.5865 65.7221L64.1081 58.8709C64.0972 58.849 64.0847 58.8274 64.0709 58.8071L57.5412 49.0128L55.5837 37.3784C54.9953 33.4809 53.104 29.8324 50.2584 27.1053L50.1516 27.0028C49.5987 26.4728 48.9094 26.1318 48.1672 26.0065C46.7206 25.6962 45.0841 25.6324 43.4944 25.5734C43.2034 25.5624 42.9159 25.5512 42.6306 25.539V24.5221C43.1703 24.4962 43.7094 24.3928 44.2184 24.1656C46.2565 23.2565 47.345 20.5265 47.6484 19.6509L49.1397 18.9281C49.4259 18.7893 49.5625 18.4581 49.4569 18.1581L48.6078 15.7456C48.6369 15.1056 48.7447 12.2374 48.4428 10.4918C48.1525 8.81245 46.8156 7.04839 45.2644 6.29745C42.859 5.13245 39.835 5.02495 37.5606 6.02307C34.755 7.25432 33.2578 9.77682 32.8334 12.4665C31.0247 12.7324 29.6294 14.2912 29.6294 16.1718C29.6294 18.2396 31.3115 19.9218 33.3794 19.9218C33.7031 19.9218 34.02 19.8762 34.329 19.7949C34.8381 20.6165 35.455 21.3434 36.1506 21.9553V25.6199H35.0447C35.0169 25.6199 34.9909 25.6281 34.9637 25.6318L34.9628 25.6253L32.8762 25.9003C32.8637 25.9018 32.8515 25.904 32.8397 25.9062C31.6547 26.1346 30.259 26.8331 28.6912 27.9824C26.4165 29.6496 24.4515 31.7703 22.8509 34.2856L19.2522 39.9409L13.0228 43.2481C13.0012 43.2596 12.9806 43.2721 12.9603 43.2862L8.39436 46.4437C5.9028 48.1668 3.72467 50.2746 1.92092 52.7087C0.885299 54.1065 0.552174 55.9393 1.02936 57.6115C1.20124 58.2131 1.46967 58.7781 1.82749 59.2909L3.99311 62.3928C4.12405 62.5803 4.28686 62.7393 4.47124 62.8656L4.69936 63.1678C5.95842 65.5121 8.22717 67.1874 10.1553 68.2706L7.60311 68.5228C6.80374 68.6412 6.13061 69.1528 5.80249 69.8912C5.39811 70.8012 5.61374 71.8706 6.33874 72.5531L7.02624 73.2C7.28842 73.4468 7.60936 73.6324 7.95405 73.7371L10.1072 74.3896C10.4984 74.5081 10.8981 74.5671 11.2975 74.5671C11.7594 74.5671 12.2203 74.4881 12.6656 74.3303L19.6131 71.8681C20.1809 71.6668 20.6665 71.2724 20.9803 70.7574L21.3915 70.0821C21.6537 69.6521 21.7815 69.1674 21.7734 68.6762L25.619 70.9718C28.8165 72.8806 32.3144 74.0568 36.0147 74.4681L36.175 74.4859C36.5469 74.5271 36.9209 74.5478 37.295 74.5478C38.5481 74.5478 39.8006 74.3175 40.9709 73.8674C44.2881 72.5915 46.6678 69.7462 47.3372 66.2559C47.7031 64.349 47.8397 62.3981 47.7437 60.4568L47.1444 48.3584L48.1016 39.3203C48.2272 39.5209 48.3281 39.7374 48.3934 39.964L51.9431 52.2831C51.9647 52.3578 52 52.4274 52.0469 52.4893L65.9147 70.6496C66.0331 70.8046 66.2169 70.8953 66.4116 70.8953H77.5797C78.5025 70.8953 79.2531 70.1443 79.2531 69.2215C79.2547 68.4484 78.7306 67.7799 77.98 67.5956ZM37.4012 22.8881C37.829 23.1581 38.285 23.4103 38.7509 23.6268C39.3937 23.9256 40.3453 24.294 41.3816 24.4531V27.0968C41.3816 28.194 40.489 29.0868 39.3915 29.0868C38.294 29.0868 37.4012 28.194 37.4012 27.0968V22.8881ZM38.0637 7.16776C38.9481 6.77964 39.9675 6.58776 41.0122 6.58776C42.2756 6.58776 43.5765 6.86839 44.7206 7.42245C45.1887 7.64901 45.6428 8.01495 46.035 8.45182C43.5694 9.33526 36.8447 11.8243 33.9665 13.6853C34.0844 11.0099 35.3478 8.35964 38.0637 7.16776ZM33.3797 18.6718C32.0012 18.6718 30.8797 17.5503 30.8797 16.1718C30.8797 15.0259 31.6569 14.0593 32.7109 13.7659C32.6781 14.7968 32.794 15.8262 33.0472 16.7921C33.2165 17.4378 33.4465 18.0559 33.7194 18.6462C33.6075 18.6612 33.4944 18.6718 33.3797 18.6718ZM34.2565 16.4749C34.1469 16.0565 34.0669 15.6246 34.0162 15.1862C35.7775 13.6234 43.3569 10.7296 46.7822 9.51214C46.9928 9.90557 47.1441 10.3134 47.2119 10.7046C47.5219 12.4981 47.3559 15.7721 47.3544 15.8049C47.35 15.8865 47.3615 15.9678 47.3887 16.0449L48.0931 18.0462L46.8653 18.6412C46.7072 18.7178 46.5887 18.8571 46.5387 19.0256C46.2778 19.9031 45.2612 22.3315 43.71 23.0234C42.6412 23.4996 41.0262 23.3062 39.2775 22.4934C38.5034 22.1334 37.7556 21.6718 37.1719 21.1934C35.7937 20.0634 34.7584 18.3878 34.2565 16.4749ZM36.1512 26.8699V27.0968C36.1512 28.8834 37.6047 30.3368 39.3915 30.3368C41.1781 30.3368 42.6316 28.8834 42.6316 27.0968V26.7899C42.9012 26.8015 43.1737 26.8118 43.4484 26.8221C43.9769 26.8418 44.5103 26.8628 45.0381 26.8921C44.7875 27.1124 44.5616 27.3649 44.3725 27.6515C42.7619 30.0934 42.9741 33.344 44.8891 35.5556L46.9872 37.9793L45.8972 48.274C45.8937 48.3062 45.8928 48.3384 45.8947 48.3709L46.155 53.6246C44.68 53.7253 42.7137 53.7009 40.8228 53.1849C37.8656 52.3787 34.4134 50.884 33.3331 50.4028C33.21 48.0834 32.5128 45.8309 31.2869 43.8478C30.2534 42.1759 29.9278 40.1221 30.3934 38.2128C30.5806 37.4453 30.8878 36.7168 31.3059 36.0478C31.3206 36.0237 31.334 35.999 31.3456 35.9734L35.4487 26.8699H36.1512ZM8.2978 52.0303L13.7359 50.5743C14.0528 50.4896 14.3665 50.3924 14.6794 50.2928C14.4319 51.2137 14.4884 52.1937 14.8515 53.0803L15.2603 54.0784L12.5531 53.1512C11.195 52.6862 9.75592 52.5699 8.34905 52.8003L8.2978 52.0303ZM16.8312 54.6168L16.2106 53.1009C17.0794 53.4631 18.355 53.9699 19.9331 54.5268C20.2356 55.0065 20.609 55.5309 21.0612 56.0656L16.8312 54.6168ZM23.8747 57.0293C21.0262 54.8515 20.0194 51.9406 20.0094 51.9112L19.4169 52.1093L18.8237 52.3065C18.8344 52.3387 18.9056 52.5471 19.05 52.8759C17.4631 52.2824 16.3084 51.789 15.78 51.5559C15.7644 51.1803 15.8153 50.8018 15.9362 50.4399C15.9928 50.2703 16.2315 49.9556 16.3897 49.7471C16.4237 49.7024 16.4503 49.6656 16.4809 49.624C17.3819 49.2446 18.26 48.8081 19.1037 48.3087C19.5031 48.3259 19.8928 48.4087 20.2637 48.5637L27.7428 51.6868C28.4406 51.9781 29.7059 52.6571 30.0765 52.8581C30.1906 52.9203 30.3028 52.9856 30.4128 53.0543L32.1094 54.114V58.9881L25.884 57.7178L23.8747 57.0293ZM32.109 52.6399L31.0744 51.9937C30.9428 51.9115 30.809 51.8334 30.6722 51.7593C30.1797 51.4924 28.9553 50.8387 28.224 50.5334L20.7453 47.4106C20.6897 47.3874 20.6325 47.3706 20.5762 47.3493C21.1112 46.9709 21.6337 46.5743 22.1325 46.1481L28.9422 39.7215C28.8984 41.3943 29.3375 43.0703 30.2247 44.5053C31.4578 46.5 32.1097 48.794 32.1097 51.1393V52.6399H32.109ZM2.85374 58.5746C2.5753 58.1759 2.36624 57.7362 2.2328 57.2678C1.86124 55.9662 2.1203 54.5399 2.92655 53.4524C4.64842 51.1287 6.7278 49.1165 9.10655 47.4712L13.6425 44.3343L19.985 40.9671C20.0803 40.9165 20.1609 40.8418 20.2194 40.7506L23.9069 34.9562C25.4237 32.5724 27.2825 30.5653 29.4315 28.9903C30.8409 27.9571 32.0619 27.3337 33.06 27.1365L34.015 27.0106L30.2234 35.4218C29.7806 36.1384 29.4515 36.914 29.2334 37.7271L21.2969 45.2181C19.0253 47.159 16.299 48.5937 13.4125 49.3665L7.47811 50.9553C7.18967 51.0324 6.99624 51.3028 7.01592 51.6006L7.36624 56.8534L5.61405 56.2509C5.38967 56.174 5.14186 56.2303 4.97311 56.3962C4.80405 56.5621 4.74342 56.8093 4.81655 57.0343L6.13905 61.1203C6.19905 61.3062 6.17124 61.5059 6.06186 61.6678C5.95249 61.8299 5.77811 61.9309 5.58311 61.9453C5.36217 61.9596 5.14592 61.8584 5.01936 61.6765L2.85374 58.5746ZM20.3253 69.4312L19.914 70.1065C19.7494 70.3765 19.4947 70.5834 19.1969 70.689L12.2494 73.1515C11.6725 73.3559 11.0575 73.3703 10.4712 73.1928L8.31811 72.5403C8.15686 72.4915 8.00686 72.4046 7.88436 72.2893L7.19686 71.6421C6.85811 71.3231 6.75749 70.8234 6.94624 70.3981C7.09967 70.0531 7.41436 69.814 7.75749 69.7625L13.2222 69.2228C13.8031 69.1656 14.3747 69.0324 14.9215 68.8271L18.6625 67.4221C19.0581 67.2737 19.4925 67.3128 19.8544 67.529C20.1728 67.719 20.3972 68.0221 20.4862 68.3818C20.5753 68.7421 20.5181 69.1146 20.3253 69.4312ZM14.4822 67.6568C14.0372 67.824 13.5719 67.9321 13.0994 67.979L12.4812 68.0399C11.3825 67.5512 9.84155 66.7506 8.43749 65.6187C9.55249 65.8168 10.8556 66.0106 11.6847 66.0106C13.0831 66.0106 15.1447 65.3962 15.8859 65.1599L17.9112 66.369L14.4822 67.6568ZM46.1112 66.0196C45.5237 69.0831 43.435 71.5803 40.5237 72.6999C39.1903 73.2128 37.7353 73.4015 36.3147 73.2428L36.1544 73.2249C32.6325 72.8337 29.304 71.7143 26.2609 69.8981L20.4959 66.4568C20.4956 66.4565 20.4953 66.4565 20.495 66.4562C20.4947 66.4559 20.4944 66.4559 20.494 66.4556L13.6369 62.3621L12.9962 63.4356L14.4212 64.2862C13.5656 64.5165 12.474 64.7609 11.6844 64.7609C10.3725 64.7609 7.56905 64.1887 6.7928 64.0249C6.54874 63.7331 6.32092 63.4271 6.1153 63.1062C6.5128 62.9787 6.85874 62.7228 7.09842 62.3665C7.42374 61.884 7.50749 61.2893 7.32811 60.7359L6.39092 57.8403L7.37936 58.1799C7.6828 58.2846 8.01592 58.2303 8.27061 58.0353C8.5253 57.8403 8.66467 57.5331 8.64311 57.2134L8.43249 54.0518C9.67342 53.8278 10.9475 53.9231 12.1484 54.3343L25.5165 58.9134C25.5419 58.9221 25.5678 58.929 25.594 58.9343L31.9115 60.2234C33.2234 60.4909 34.4803 60.9596 35.6478 61.6162L37.3256 62.5599L37.9384 61.4706L36.2606 60.5268C35.3397 60.009 34.3675 59.5996 33.359 59.3003V51.7812C34.8165 52.4162 37.8087 53.6587 40.4944 54.3912C41.9715 54.794 43.4791 54.9218 44.7969 54.9218C45.3041 54.9218 45.779 54.9018 46.2175 54.8724L46.4972 60.5184C46.5878 62.3593 46.4581 64.2103 46.1112 66.0196ZM77.5812 69.6446H66.7222L53.1131 51.8234L49.5959 39.6175C49.4456 39.094 49.1772 38.5996 48.8206 38.1874L45.8341 34.7374C44.2844 32.9471 44.1125 30.3165 45.4162 28.3396C45.8869 27.6259 46.6781 27.1999 47.5328 27.1999C47.665 27.1999 47.795 27.2128 47.9234 27.2328C48.0475 27.2596 48.1719 27.2862 48.2912 27.3171C48.6603 27.4328 49.0012 27.6309 49.2872 27.9049L49.3941 28.0075C52.0415 30.5446 53.8009 33.9387 54.3497 37.5749L56.3309 49.3515C56.3456 49.4384 56.3784 49.5212 56.4275 49.5943L63.0106 59.4693L66.6256 66.5903C66.7215 66.779 66.9062 66.9065 67.1165 66.9287L72.2478 67.4746L77.6819 68.8093C77.8716 68.8559 78.0044 69.0253 78.0044 69.2209C78.0047 69.4546 77.8147 69.6446 77.5812 69.6446Z" fill="#3D493A"/>
</svg>
