<svg width="50" height="51" viewBox="0 0 50 51" fill="none" xmlns="http://www.w3.org/2000/svg">
<g clip-path="url(#clip0_167_527)">
<path d="M18.1431 8.96597C19.5608 8.96597 20.7144 7.81246 20.7144 6.39468C20.7144 4.97691 19.5608 3.82339 18.1431 3.82339C16.7253 3.82339 15.5718 4.97691 15.5718 6.39468C15.5718 7.81246 16.7253 8.96597 18.1431 8.96597ZM18.1431 5.28834C18.7531 5.28834 19.2495 5.78472 19.2495 6.39478C19.2495 7.00484 18.7531 7.50123 18.1431 7.50123C17.533 7.50123 17.0366 7.00484 17.0366 6.39478C17.0366 5.78472 17.533 5.28834 18.1431 5.28834Z" fill="#AEA17E"/>
<path d="M36.56 34.1165C37.9778 34.1165 39.1312 32.9629 39.1312 31.5452C39.1312 30.1274 37.9777 28.9739 36.56 28.9739C35.1422 28.9739 33.9888 30.1274 33.9888 31.5452C33.9888 32.9629 35.1423 34.1165 36.56 34.1165ZM36.56 30.4388C37.17 30.4388 37.6664 30.9351 37.6664 31.5453C37.6664 32.1553 37.17 32.6517 36.56 32.6517C35.9499 32.6517 35.4536 32.1553 35.4536 31.5453C35.4536 30.9351 35.9499 30.4388 36.56 30.4388Z" fill="#AEA17E"/>
<path d="M43.3566 11.254C41.6774 9.25552 39.6962 7.55268 37.4679 6.19272C37.1227 5.98198 36.672 6.09106 36.4612 6.43638C36.2505 6.78169 36.3595 7.23237 36.7049 7.44311C38.6538 8.63247 40.4014 10.1012 41.9062 11.8134C41.3929 12.5358 41.1958 13.7275 39.998 13.8235C38.9799 13.905 38.0801 14.4899 37.5947 15.3947L36.73 17.0064C36.1332 18.1185 34.9595 17.7562 34.3162 17.7562C32.9362 17.7562 31.6094 18.3394 30.6756 19.3568C29.6954 20.4269 29.485 21.5404 29.2995 22.5229C29.1568 23.2789 29.0326 23.9332 28.6007 24.5664C28.5258 24.6761 28.6041 24.5656 26.5381 27.3242C25.8395 28.2575 26.0269 29.5915 26.9868 30.2882L28.696 31.5275C29.2132 31.9015 29.8567 32.0157 30.4525 31.8615C30.5726 31.8315 30.6897 31.8021 30.8051 31.7729C30.8066 31.7725 30.8082 31.7721 30.8096 31.7717C30.8111 31.8544 30.8142 31.9369 30.8192 32.0192C30.9897 34.8775 32.6578 37.5773 34.5851 39.6974C35.6553 40.8747 37.4882 40.849 38.5329 39.7001C38.5338 39.6992 38.5346 39.6982 38.5355 39.6972C39.8994 38.1974 41.1241 36.428 41.7907 34.497L45.0125 36.9749C41.4334 43.9167 34.5164 48.5122 26.7407 49.1078C26.6702 48.7495 25.5761 47.2958 26.8345 46.3979C27.6015 45.854 28.0594 44.9666 28.0594 44.0245C28.0594 43.2547 28.1097 42.6342 27.7062 41.8916C27.5969 41.6902 27.4565 41.4879 27.2716 41.2908L26.1336 40.0772C25.6734 39.5866 25.6146 38.8272 25.9936 38.2716L26.2993 37.8237C27.3879 36.2264 26.6504 34.0229 24.8016 33.4153L21.4979 32.3309C21.3654 32.2873 21.2538 32.1969 21.1836 32.0759L18.918 28.1788C18.1537 26.8608 16.243 26.8152 15.4305 28.1325L14.8886 29.0109C14.7839 29.1803 14.6035 29.2815 14.4059 29.2815C14.0276 29.2815 13.7624 28.9249 13.8547 28.5702L15.0283 24.0773C15.0685 23.9218 15.1742 23.7902 15.3177 23.7162L17.7076 22.486C18.3867 22.1378 18.7901 21.4567 18.8116 20.7427C18.8507 19.4757 17.7686 18.0237 16.151 17.74C14.9303 17.4865 14.2375 17.5401 13.4132 17.0391L9.94402 14.9336C9.23826 14.5048 8.72605 13.834 8.49695 13.0465L8.12664 11.775C9.42556 10.3043 10.9038 9.01489 12.5347 7.92886C12.5456 7.98413 12.6356 8.4977 12.8567 9.17397C13.6398 11.57 15.5571 14.0222 16.3673 14.7441C17.4767 15.7321 19.148 15.6142 20.1159 14.5498C22.1567 12.3063 23.8968 9.43091 23.8985 6.3977C23.8985 6.39673 23.8985 6.39565 23.8985 6.39468C23.8985 5.64526 23.7499 4.89497 23.471 4.21401C23.9816 4.17954 24.4931 4.16216 25.0007 4.16216C28.1553 4.16216 31.2069 4.80249 34.0707 6.06518C34.4409 6.22847 34.8732 6.06069 35.0363 5.69057C35.1995 5.32046 35.0318 4.88813 34.6617 4.72495C31.6106 3.37954 28.3601 2.69731 25.0007 2.69731C24.218 2.69731 23.4272 2.73843 22.6429 2.81518C21.5913 1.49643 19.9752 0.646044 18.1645 0.639403C14.9968 0.625048 12.5211 3.19897 12.3969 6.27739C10.2732 7.59214 8.37634 9.21968 6.75466 11.1209C6.75056 11.1258 6.74695 11.1311 6.74294 11.136C3.05857 15.4623 1.02966 20.9775 1.02966 26.6684C1.02966 32.8249 3.36023 38.6767 7.59216 43.1461C7.87029 43.4398 8.33386 43.4525 8.62761 43.1745C8.92136 42.8963 8.93396 42.4328 8.65584 42.139C4.68269 37.9428 2.4946 32.4486 2.4946 26.6685C2.4946 21.7836 4.0866 17.0366 7.00281 13.1547C7.12927 13.4823 7.39587 15.0987 9.18386 16.1859L12.653 18.2914C14.0409 19.1344 15.6294 18.9613 16.3967 19.348C16.8704 19.5871 17.2153 20.0259 17.3335 20.5573C17.3888 20.8026 17.2666 21.0661 17.0384 21.1831L14.647 22.4139C14.133 22.6789 13.7552 23.1512 13.6108 23.7083L12.4373 28.2006C12.1032 29.4874 13.0719 30.7461 14.4061 30.7461C15.1226 30.7461 15.7654 30.3787 16.1352 29.7804C16.8494 28.6228 16.6196 28.9953 16.6775 28.9014C16.9065 28.5301 17.4391 28.548 17.6515 28.9142C20.044 33.0241 19.9218 32.8329 20.0178 32.9681C20.2683 33.3211 20.6257 33.5859 21.0409 33.7224L24.3449 34.8069C25.2591 35.1068 25.633 36.2 25.0893 36.9982C24.8156 37.4038 24.7498 37.4841 24.6489 37.6628C24.0281 38.7642 24.1813 40.1364 25.0653 41.0791L26.2033 42.2926C26.748 42.8737 26.5496 43.5006 26.5945 44.0554C26.5843 44.5321 26.3343 44.9568 25.9856 45.2041C23.8503 46.728 25.1817 49.1493 25.1838 49.1737C25.1228 49.1742 25.0619 49.1744 25.0009 49.1744C19.808 49.1744 14.7411 47.3631 10.7337 44.0744C10.4209 43.8177 9.95945 43.8632 9.70291 44.1759C9.44627 44.4886 9.49177 44.9501 9.80447 45.2068C14.0728 48.7101 19.4696 50.6394 25.0005 50.6394C25.7037 50.6394 26.1636 50.6098 26.3031 50.604C26.3129 50.6007 40.1283 50.4763 46.5962 37.0811C46.5963 37.081 46.5963 37.0809 46.5964 37.0807C48.1718 33.8202 48.9706 30.3169 48.9706 26.6683C48.9705 21.0351 46.9768 15.5608 43.3566 11.254ZM18.1433 2.10425H18.1591C20.5218 2.11284 22.4336 4.04311 22.4336 6.39468C22.4336 9.37827 20.3024 12.1672 19.032 13.5642C18.5512 14.0928 17.727 14.0842 17.2518 13.5617C15.5866 11.7296 13.9679 9.19145 13.8618 6.70913L13.8605 6.6645C13.8605 6.66333 13.8602 6.66225 13.8602 6.66108C13.7804 4.21606 15.6812 2.10425 18.1433 2.10425ZM36.5545 27.2548C36.5565 27.2548 36.5585 27.2547 36.5604 27.2547H36.576C38.9329 27.2633 40.8505 29.1879 40.8505 31.5452C40.8505 34.1496 39.2126 36.7746 37.4489 38.7147C36.9692 39.2421 36.146 39.237 35.6687 38.7122C34.4764 37.4005 32.4509 34.7756 32.2811 31.932C32.1315 29.417 34.0758 27.2583 36.5545 27.2548ZM45.6548 35.6212L42.191 32.9573C42.2633 32.5474 42.3152 32.0221 42.3152 31.5453C42.3152 28.3834 39.7429 25.8016 36.5812 25.79C36.5811 25.79 36.5809 25.79 36.5807 25.79C36.5738 25.79 36.5671 25.79 36.5601 25.79C33.8978 25.79 31.6285 27.6283 30.9872 30.2138C30.101 30.4446 29.8588 30.5611 29.5549 30.3413L27.8464 29.1025C27.5577 28.8931 27.4965 28.4878 27.7101 28.2024L29.6808 25.5727C30.3434 24.6923 30.5447 23.821 30.7385 22.795C30.9094 21.8902 31.057 21.1088 31.755 20.3469C32.4116 19.6315 33.345 19.2212 34.3159 19.2212C34.951 19.2212 36.959 19.6775 38.0205 17.6992L38.8852 16.0875C39.1349 15.6221 39.6004 15.325 40.1147 15.2839C42.0563 15.1282 42.6308 13.4293 42.7683 13.2684L42.9023 13.0302C45.8778 16.9344 47.5054 21.7366 47.5054 26.6686C47.5056 29.7897 46.8835 32.7969 45.6548 35.6212Z" fill="#AEA17E"/>
</g>
<defs>
<clipPath id="clip0_167_527">
<rect width="50" height="50" fill="white" transform="translate(0 0.639404)"/>
</clipPath>
</defs>
</svg>
