<svg width="80" height="80" viewBox="0 0 80 80" fill="none" xmlns="http://www.w3.org/2000/svg">
<g clip-path="url(#clip0_220_167)">
<path d="M68.6439 0.679462C62.4951 -2.1453 54.8206 4.48508 50.793 8.68851C50.3742 9.12521 50.0657 9.64129 49.8823 10.2018L49.1789 10.2641C48.2365 8.19014 44.6973 0.918751 41.1867 0.397378C35.424 -0.45716 30.715 0.45812 29.9836 0.613428C28.8417 0.571322 18.6503 0.256105 14.4225 2.25808C14.3921 2.27257 14.3629 2.28891 14.335 2.30755C13.218 3.05233 12.9807 4.61576 13.6303 6.95412C14.0207 8.35948 14.6093 9.60793 14.7478 9.89277C14.904 10.4259 16.0126 14.0534 18.5152 18.5744C11.2942 24.2432 3.36616 32.2493 4.34011 44.181C4.49726 46.1059 5.3916 47.7059 6.99806 48.9364C10.0828 51.2992 15.4208 51.9713 20.5011 51.9713C26.4131 51.9713 31.9722 51.0606 33.2177 50.8425C33.517 51.3558 33.8216 51.8387 34.129 52.2964C33.6551 53.9932 32.1245 59.475 31.1814 62.8711C30.6409 64.8165 28.2499 69.042 24.4487 74.7688C23.8661 75.6463 23.803 76.731 24.28 77.67C24.7574 78.6098 25.6713 79.1993 26.7249 79.2467L43.4088 79.9982C43.4381 79.9993 43.4668 80 43.4958 80C44.3036 80 44.996 79.4904 45.2343 78.7095C45.2546 78.6434 45.2695 78.5774 45.2822 78.5111L46.3905 78.1736C47.0667 77.9677 47.5354 77.4035 47.6136 76.7013C47.6921 75.9988 47.3594 75.3452 46.7453 74.9952L36.359 69.0779C38.1003 66.5014 40.4189 63.2443 42.2547 61.2856C53.5765 49.7686 53.2181 44.6442 52.7024 43.1482C53.7491 41.5838 54.8036 40.0556 55.5797 39.1693C58.6757 35.6317 56.1188 25.1152 55.5861 23.0824C55.8875 22.6927 56.5706 21.8837 57.6362 21.034C60.6896 22.3231 65.4041 23.1655 71.1325 20.4063C74.01 19.0219 75.7759 15.7374 75.7407 11.8342C75.7066 8.0017 73.8241 3.05878 68.6439 0.679462ZM19.2121 19.7823C21.2206 23.1841 23.5348 26.1805 26.1069 28.6871C26.7127 29.2775 27.4363 29.6325 28.2179 29.7508C27.8291 30.4224 27.6432 31.2123 27.7177 32.0215C27.7669 32.555 27.8258 33.0852 27.8889 33.6109C27.6268 33.6137 26.9142 33.6284 26.9142 33.6284C25.4859 33.6673 24.0736 33.2529 22.833 32.4308C17.5594 28.9374 12.7854 28.4298 10.4714 28.4271C12.981 25.0365 16.155 22.1938 19.2121 19.7823ZM5.71625 44.0687C5.26206 38.506 6.88693 33.8203 9.48344 29.8449C10.0244 29.8032 11.3156 29.7549 13.0689 30.0223C15.2185 30.3499 18.5253 31.2334 22.0705 33.5819C23.3208 34.4102 24.7204 34.8895 26.1591 34.99C24.3161 39.3863 16.0963 48.346 14.3863 50.183C11.7746 49.7907 9.44018 49.068 7.83741 47.8403C6.53582 46.8433 5.84188 45.6096 5.71625 44.0687ZM16.0752 50.3896C17.1754 49.1907 19.0439 47.1165 20.955 44.8241C24.6723 40.3646 26.9106 37.0659 27.6294 34.9958C27.7771 34.9937 27.9236 34.9916 28.0704 34.9905C28.9201 40.9179 30.5721 45.8418 32.5104 49.5597C30.21 49.9304 22.6119 51.0173 16.0752 50.3896ZM46.0617 76.1946C46.2481 76.3007 46.2495 76.4772 46.2416 76.5481C46.2338 76.6189 46.1931 76.7906 45.9881 76.8529L45.0033 77.1527C44.8602 76.944 44.6709 76.7618 44.4396 76.6208C44.4166 76.6067 44.3934 76.5943 44.3692 76.5833L35.3637 72.43C35.1248 72.32 34.9534 72.1201 34.8807 71.8674C34.8082 71.6153 34.8471 71.3557 34.9905 71.1365C35.1725 70.8578 35.3747 70.5507 35.5887 70.2281L46.0617 76.1946ZM41.2589 60.3298C38.7965 62.9562 35.5507 67.7549 33.8352 70.3813C33.4742 70.9337 33.3718 71.6143 33.5543 72.2487C33.737 72.8837 34.1859 73.4067 34.7859 73.6835L43.7482 77.8167C43.9827 77.9778 43.9431 78.2109 43.9139 78.3061C43.8837 78.4046 43.7894 78.6342 43.471 78.6188L26.787 77.8674C26.2371 77.8427 25.7601 77.5351 25.511 77.0446C25.2625 76.555 25.2951 75.9896 25.5988 75.532C28.3433 71.3971 31.7704 65.9082 32.5115 63.2401C33.3072 60.376 34.5202 56.0288 35.1649 53.7194C36.1632 54.978 37.1747 55.9434 38.1422 56.5902C39.0361 57.1877 39.8828 57.4935 40.6292 57.4935C40.8496 57.4935 41.0613 57.4668 41.2628 57.4132C43.5529 56.803 46.8157 52.072 51.1751 45.455C51.2817 45.2933 51.3852 45.1363 51.4906 44.9767C51.2831 47.1468 49.5981 51.847 41.2589 60.3298ZM70.5341 19.1627C65.0341 21.8117 60.5794 20.8637 57.814 19.6047C57.5872 19.5014 57.3228 19.5361 57.1233 19.6859C55.249 21.0926 54.2995 22.4996 54.2599 22.5587C54.1485 22.7258 54.1152 22.9331 54.1688 23.1266C55.0806 26.4124 56.9252 35.5365 54.5411 38.2605C53.6603 39.2662 52.4829 40.9884 51.342 42.7002C50.917 43.3384 50.4752 44.0089 50.0229 44.6957C47.0028 49.2795 42.8668 55.5574 40.9078 56.0794C40.432 56.2062 39.7042 55.9738 38.9097 55.4428C33.8276 52.0451 30.3936 42.0525 29.3534 34.2052C29.2521 33.4505 29.1645 32.6731 29.0927 31.8945C28.9979 30.8664 29.5595 29.8877 30.4909 29.4551C32.3371 28.7195 39.473 25.1872 41.9259 23.9678C41.8903 24.8159 41.2769 25.5616 40.86 25.9732C40.4966 26.3319 40.0335 26.655 39.4833 26.9338L33.9012 29.762C33.6673 29.8808 33.5207 30.1217 33.523 30.3842C33.5239 30.4942 33.5517 33.0937 33.9335 34.7224C34.6736 37.864 36.1358 42.3153 38.9003 45.6823C39.7703 46.7368 40.7152 47.6176 41.7092 48.3C41.8284 48.3819 41.9646 48.4213 42.0992 48.4213C42.3419 48.4213 42.5801 48.2936 42.7078 48.0577C42.8806 47.7388 42.7522 47.3433 42.4542 47.1367C41.6885 46.6059 40.9515 45.9382 40.259 45.149C41.9517 41.9041 43.7238 39.2862 44.9451 37.6252C44.9589 37.6098 44.9718 37.5937 44.9842 37.5771C45.9297 36.2976 46.5592 35.5719 46.5654 35.5648C46.8155 35.2774 46.7853 34.8412 46.498 34.5911C46.2106 34.3407 45.7743 34.3709 45.5245 34.6582C45.501 34.6852 45.0114 35.2491 44.2374 36.2711C42.0592 35.1182 39.0183 34.3322 35.1821 33.9296C34.9965 32.8518 34.9336 31.4801 34.9132 30.7974L40.1076 28.1657C40.7854 27.8222 41.365 27.4152 41.83 26.9559C43.0621 25.7394 43.5464 24.3684 43.2011 23.0757C43.1774 22.9865 43.1445 22.8997 43.1063 22.8155C43.0373 22.6637 42.9445 22.4538 42.7876 22.2822C41.7637 21.1612 40.1897 20.7144 38.7303 21.2102L30.7558 23.9257C29.8494 22.6545 27.0737 18.6526 25.5059 15.2128L33.9031 9.42225L38.9284 8.52561C39.2569 8.46693 39.5188 8.19152 39.5236 7.8579C39.5303 7.40854 39.1311 7.08596 38.7119 7.16212L24.2022 9.75081L23.9744 7.58179C23.9353 7.20998 23.6222 6.90603 23.2488 6.92559C22.8507 6.94653 22.5562 7.29557 22.5974 7.68694L23.047 11.97C23.5108 16.3888 29.6764 24.7975 29.9387 25.1532C30.1173 25.3955 30.4323 25.4942 30.7169 25.3971L39.1743 22.5171C39.8835 22.2762 40.6421 22.379 41.247 22.7633C38.7443 24.0069 31.6763 27.5028 29.958 28.1813C28.8605 28.6146 27.835 28.4432 27.0707 27.6982C24.4183 25.1132 22.0415 21.9888 20.0066 18.4117C17.23 13.532 16.0696 9.49518 16.0584 9.45492C16.0466 9.4135 16.0307 9.37301 16.0117 9.33436C15.0439 7.39473 14.0881 4.2214 15.0655 3.48144C19.1843 1.57703 29.9083 1.99187 30.0167 1.99624C30.0765 1.99831 30.1387 1.99302 30.1983 1.97944C30.2466 1.96863 35.0959 0.88953 40.9842 1.7627C42.2255 1.947 43.8893 3.65953 45.669 6.58437C47.0955 8.92894 48.1058 11.2466 48.1159 11.2696C48.2342 11.5423 48.5126 11.7075 48.8101 11.6826L49.6945 11.6044C49.7603 13.0633 50.6264 14.3978 51.9949 15.0237L55.8993 16.8084C56.2863 16.9849 56.7524 16.7744 56.8587 16.3382C56.9379 16.0137 56.7531 15.6808 56.4494 15.5421L52.569 13.7681C51.5016 13.2799 50.9013 12.1285 51.1086 10.968C51.197 10.4742 51.4324 10.0163 51.7897 9.64382C55.5636 5.70499 62.698 -0.532858 68.0678 1.93389C72.6612 4.04354 74.3305 8.43771 74.3608 11.8467C74.3905 15.2091 72.9244 18.0125 70.5341 19.1627ZM39.3251 43.9613C37.3111 41.1453 36.1345 37.6885 35.5151 35.3545C38.8435 35.7387 41.4899 36.4237 43.4063 37.396C42.2651 38.9914 40.7799 41.2447 39.3251 43.9613ZM24.4199 11.8257L24.3465 11.127L30.6221 10.0074L24.9634 13.9094C24.6801 13.1457 24.4839 12.4359 24.4199 11.8257Z" fill="#3D493A"/>
</g>
<defs>
<clipPath id="clip0_220_167">
<rect width="80" height="80" fill="white"/>
</clipPath>
</defs>
</svg>
