<svg width="41" height="41" viewBox="0 0 41 41" fill="none" xmlns="http://www.w3.org/2000/svg">
<g clip-path="url(#clip0_167_441)">
<path d="M34.0964 33.688C34.7692 33.5265 35.34 33.053 35.6231 32.4216L35.8634 31.8858C36.2137 31.1046 36.0817 30.1782 35.527 29.5258C35.3091 29.2696 35.0309 29.0627 34.7227 28.9276L33.8491 28.5448C32.7495 28.0629 31.6011 27.7441 30.4219 27.5887L29.2627 20.7943C29.2581 20.7647 29.2544 20.7351 29.2514 20.7054L29.1198 19.3898C28.9598 17.7893 28.6498 16.1948 28.1984 14.6504L28.0297 14.073C27.8983 13.6232 27.65 13.2143 27.3117 12.8901C26.868 12.4651 26.2792 12.2448 25.6784 12.2673L23.1803 11.1183C23.2392 11.0318 23.2972 10.9432 23.3538 10.8504C24.0175 9.75897 24.4039 8.39256 24.3875 7.19475C24.3713 6.01131 23.9614 4.90194 23.2336 4.071C23.1286 3.95116 23.0184 3.84022 22.9042 3.73631C22.9292 3.62256 22.952 3.49881 22.9503 3.36881C22.9316 2.00928 21.8109 0.915063 20.4505 0.937095C19.0909 0.956001 18.0002 2.07741 18.0188 3.43678C18.0208 3.57694 18.0495 3.69366 18.0797 3.79819C17.9669 3.90663 17.858 4.02209 17.755 4.14663C17.0505 4.99725 16.6713 6.11741 16.6875 7.301C16.7041 8.49866 17.128 9.85413 17.8216 10.9268C17.8616 10.9885 17.9023 11.0479 17.9433 11.1068L15.2783 12.2673C14.6764 12.244 14.0863 12.4641 13.6417 12.8899C13.3034 13.2141 13.0552 13.623 12.9237 14.0727L12.7548 14.6502C12.3034 16.1946 11.9934 17.7891 11.8334 19.3896L11.702 20.7048C11.6989 20.7346 11.6952 20.7644 11.6912 20.7901L10.6231 27.1468C9.61469 27.2355 8.625 27.531 7.73297 28.0282C7.17672 28.338 6.77344 28.8713 6.62672 29.4912C6.42734 30.3332 6.73156 31.2307 7.40188 31.778C8.04703 32.3046 8.76797 32.7155 9.53766 32.9998L9.40297 37.0224C9.40281 37.0291 9.40281 37.0358 9.40297 37.0426C9.40438 37.0887 9.38984 37.1216 9.38313 37.1294L8.51016 38.1373C8.31969 38.3573 8.24641 38.6885 8.31875 39.0016C8.38125 39.2724 8.5425 39.4812 8.76078 39.5743L9.64969 39.9533C9.72703 39.9862 9.80953 40.0027 9.88875 40.0027C9.91516 40.0027 9.94109 40.0008 9.96656 39.9972L12.0587 39.7482C12.2686 39.7176 12.4534 39.5785 12.5659 39.3671C12.7016 39.1119 12.7181 38.7962 12.6136 38.5254L13.1409 38.444C13.3756 38.4082 13.5625 38.2126 13.6059 37.9576C13.6645 37.6132 13.4725 37.2857 13.1778 37.2274L11.8452 36.9637C11.842 36.9549 11.8389 36.9432 11.8375 36.9285L12.408 34.5904C13.2739 35.0573 14.2114 35.4751 14.8972 35.5454C16.3908 35.6993 19.9353 34.8627 20.547 34.7144C21.1102 34.8887 24.2117 35.8285 25.5822 35.8285C26.235 35.8285 27.5527 35.4965 28.8411 35.1185L29.3648 36.9337C29.3633 36.946 29.3606 36.9562 29.3578 36.9637L28.0253 37.2274C27.7306 37.2857 27.5384 37.6132 27.597 37.9576C27.6405 38.2127 27.8273 38.4082 28.0617 38.444L28.5892 38.5254C28.4847 38.796 28.5012 39.1119 28.6369 39.3671C28.7494 39.5787 28.9342 39.7176 29.1523 39.7493L31.2287 39.9962C31.257 40.0002 31.2855 40.0023 31.3137 40.0023C31.3953 40.0023 31.4767 39.9857 31.5536 39.9532L32.442 39.5743C32.6603 39.4812 32.8216 39.2724 32.8841 39.0016C32.9564 38.6885 32.8831 38.3573 32.6925 38.1373L31.8197 37.1296C31.8128 37.1216 31.7981 37.0887 31.7997 37.0426C31.8 37.0313 31.7997 37.0198 31.7989 37.0083L31.5817 34.2496C31.8908 34.1454 32.1003 34.0726 32.1681 34.049C32.8161 33.9599 33.4602 33.8408 34.0964 33.688ZM12.1747 32.8638C11.7086 31.5382 11.8169 30.0815 12.4825 28.8365L12.5302 28.7474C15.0555 28.4566 22.4505 29.3443 22.5294 29.354C22.6178 29.3648 22.7072 29.3369 22.7742 29.2777C22.8411 29.2183 22.8794 29.1332 22.8794 29.0438V28.4994C22.8794 28.3265 22.9562 28.1641 23.0903 28.0546C23.2006 27.9643 23.3389 27.9182 23.4822 27.9254L25.3389 28.016C25.4223 28.0188 25.503 27.9908 25.5644 27.9349L27.7072 25.9869C27.7845 25.9166 27.8833 25.8808 27.9888 25.8858L28.6434 25.9169C28.7087 25.9201 28.773 25.9398 28.8287 25.9737C28.9356 26.0391 29.0033 26.148 29.0144 26.2727C29.0255 26.3974 28.978 26.5166 28.8842 26.5996L27.4781 27.846C27.338 27.9704 27.182 28.0771 27.0152 28.1632L23.8709 29.7844C23.8653 29.7873 23.86 29.7902 23.8547 29.7935L22.593 30.5427C21.1845 31.379 19.6558 31.9658 18.0495 32.2873L16.7016 32.5568C15.2102 32.8551 13.6906 32.9579 12.1747 32.8638ZM12.6902 27.2602C12.6502 26.9496 12.8192 26.6413 13.1144 26.516C13.2539 26.4565 13.4116 26.4437 13.5594 26.4796L13.825 26.5441C14.3611 26.6743 14.8247 26.9987 15.1308 27.4577L15.2317 27.6093C15.2787 27.6798 15.3523 27.7282 15.4358 27.7433L16.2467 27.8908C16.5156 27.9398 16.7694 28.0457 16.993 28.1966C16.2838 28.1474 15.5758 28.1077 14.9153 28.0857L13.2864 27.4071C13.2753 27.4026 13.2641 27.3985 13.2527 27.3954C13.0669 27.3418 12.8789 27.2982 12.6902 27.2602ZM15.2337 23.0341L15.3564 23.3458C15.6683 24.1379 15.763 25.001 15.6303 25.8418L15.4683 26.8693C15.2664 26.6273 15.0267 26.423 14.7594 26.2623L15.2337 23.0341ZM16.2061 26.203H25.2025L25.3997 27.2401L25.2398 27.3854L23.5127 27.301C23.215 27.2868 22.9248 27.3824 22.6945 27.571C22.4148 27.7998 22.2544 28.1382 22.2544 28.4994V28.6924C21.5311 28.6087 19.8155 28.4182 17.9616 28.2693C17.5723 27.7521 16.998 27.3921 16.3586 27.2758L16.0459 27.219L16.2061 26.203ZM25.7656 25.8182C25.637 25.1416 25.6592 24.4407 25.828 23.7738L26.2267 26.4883L25.9422 26.7469L25.7656 25.8182ZM22.9119 31.0801L24.1656 30.3355L24.8114 30.0026L25.2786 29.9433C26.7842 29.7519 28.3305 29.8362 29.8108 30.183C29.3725 31.2768 29.3866 32.5202 29.8572 33.6051C29.7331 33.6076 29.6091 33.6107 29.4852 33.6108L27.2608 33.6129C27.2547 33.6129 27.2487 33.6129 27.2428 33.6129C25.8183 33.6129 24.3917 33.4533 23.0028 33.1388L19.9161 32.4396C20.9588 32.0976 21.9619 31.6441 22.9119 31.0801ZM34.4716 29.5001C34.6934 29.5973 34.8939 29.7463 35.0508 29.9308C35.4502 30.4005 35.5453 31.0674 35.2931 31.6301L35.0528 32.1658C34.8483 32.6218 34.4362 32.9635 33.9503 33.0805C32.8294 33.3496 31.6838 33.5163 30.5325 33.5804L30.4825 33.4754C30.0145 32.4921 29.9956 31.3393 30.42 30.3424C30.5884 30.3908 30.7563 30.4415 30.9225 30.4969L31.7945 30.7876L31.9922 30.1946L31.1202 29.904C29.5787 29.3904 27.9358 29.1619 26.3097 29.2302L27.3014 28.7188C27.5145 28.609 27.7136 28.4727 27.8927 28.3138L28.1558 28.0805L29.1023 28.1077C30.6587 28.1524 32.1712 28.4921 33.5978 29.1173L34.4716 29.5001ZM29.1205 27.483L28.8391 27.4749L29.2987 27.0676C29.4562 26.9279 29.5625 26.7488 29.6108 26.5523L29.7758 27.5196C29.5583 27.5021 29.3398 27.4893 29.1205 27.483ZM26.8787 13.3413C27.1381 13.5899 27.3284 13.9035 27.4292 14.2483L27.5981 14.8258C28.0387 16.333 28.3412 17.8896 28.4975 19.4519L28.6291 20.7674C28.6331 20.8083 28.6384 20.8488 28.6453 20.8944L29.4736 25.7496C29.3927 25.6266 29.2853 25.5207 29.1544 25.4405C29.0092 25.3521 28.8428 25.3008 28.673 25.2927L28.0184 25.2616C27.7483 25.2491 27.4877 25.3421 27.2866 25.5248L26.7837 25.9818L26.03 20.8507C25.8542 19.6546 25.5456 18.4758 25.1125 17.3473L24.2466 15.0905C24.1047 14.7208 24.1031 14.3129 24.2422 13.9419C24.4339 13.4307 24.8663 13.053 25.3988 12.9318C25.9312 12.8099 26.4845 12.9635 26.8787 13.3413ZM20.4584 1.56178C21.4484 1.54522 22.263 2.31928 22.3194 3.29584C21.757 2.95241 21.1266 2.77444 20.4755 2.78256C19.8227 2.79163 19.1981 2.98678 18.6463 3.34553C18.6763 2.36834 19.4714 1.57553 20.4584 1.56178ZM18.2358 4.54506C18.8338 3.82319 19.6322 3.41928 20.4841 3.40756C20.4969 3.40741 20.5095 3.40725 20.5223 3.40725C21.36 3.40725 22.1544 3.78819 22.7628 4.48272C23.3552 5.15897 23.7002 6.05428 23.7517 7.01881C22.9944 6.45116 21.553 5.48881 20.4839 5.48881C19.4228 5.48881 18.0519 6.42913 17.3202 6.99741C17.3659 6.07319 17.6841 5.211 18.2358 4.54506ZM17.3447 7.78006C17.9902 7.23272 19.5109 6.11381 20.4837 6.11381C21.4587 6.11381 23.0517 7.24241 23.7317 7.79397C23.6398 8.72194 23.3169 9.70663 22.8191 10.5254C22.1922 11.5562 21.385 12.1535 20.6045 12.1641C19.8252 12.179 19.0009 11.6002 18.3458 10.5869C17.8066 9.75288 17.4484 8.73475 17.3447 7.78006ZM21.6906 12.5133C21.5427 12.9887 21.0988 13.3346 20.5753 13.3346C20.0508 13.3346 19.6061 12.9869 19.4592 12.5101C19.8234 12.6938 20.2006 12.7894 20.5816 12.7894C20.592 12.7894 20.6027 12.7894 20.6131 12.7893C20.9808 12.7841 21.3427 12.6894 21.6906 12.5133ZM18.7827 12.0533V12.1668C18.7827 13.1552 19.5869 13.9596 20.5755 13.9596C21.5641 13.9596 22.3683 13.1554 22.3683 12.1668V12.0504C22.5128 11.9243 22.6536 11.7832 22.7897 11.6266L24.7267 12.5174C24.2389 12.7694 23.8553 13.1941 23.6573 13.7221C23.4647 14.2362 23.4667 14.8015 23.6634 15.314L24.5294 17.5707C24.9459 18.6563 25.243 19.7902 25.4119 20.941L25.6181 22.3451L25.3105 23.3096C25.0775 24.0404 25.0056 24.8174 25.097 25.5776H16.292C16.3664 24.7429 16.2459 23.8991 15.9378 23.1166L15.4161 21.7912L15.5409 20.941C15.71 19.7902 16.007 18.6563 16.4236 17.5707L17.2895 15.314C17.4863 14.8015 17.4883 14.2362 17.2956 13.7221C17.1002 13.2008 16.7233 12.7812 16.2444 12.528L18.3408 11.6146C18.4841 11.7766 18.6313 11.9238 18.7827 12.0533ZM12.3083 20.8896C12.3145 20.8491 12.3197 20.8087 12.3239 20.7677L12.4555 19.4521C12.6117 17.8898 12.9142 16.3332 13.3548 14.826L13.5237 14.2483C13.6245 13.9037 13.8148 13.5901 14.0742 13.3415C14.4684 12.9637 15.0223 12.8102 15.5541 12.9318C16.0866 13.0529 16.5189 13.4305 16.7106 13.9419C16.8497 14.3129 16.8481 14.7207 16.7063 15.0905L15.8403 17.3473C15.4073 18.4758 15.0986 19.6546 14.9228 20.8507L14.1673 25.994C14.1031 25.9733 14.0386 25.953 13.9725 25.9369L13.707 25.8724C13.4298 25.8049 13.1325 25.8294 12.8698 25.9408C12.3717 26.1526 12.0613 26.6418 12.0575 27.1623C11.793 27.1332 11.5275 27.1187 11.2619 27.1188L12.3083 20.8896ZM7.235 29.6354C7.34141 29.1858 7.63391 28.799 8.03734 28.5743C9.02484 28.024 10.1428 27.7415 11.2639 27.7415C11.8694 27.7415 12.4758 27.8238 13.063 27.991L13.2652 28.0752C12.7406 28.0915 12.3011 28.1318 11.9911 28.2032L9.20391 28.8463L9.34438 29.4554L11.7583 28.8983C11.2058 30.1318 11.1155 31.5162 11.5006 32.809L11.4561 32.8046C10.1102 32.6713 8.84484 32.149 7.79719 31.2938C7.31094 30.8973 7.09031 30.2462 7.235 29.6354ZM11.2208 36.8191C11.2158 36.8396 11.2128 36.8605 11.212 36.8815C11.1994 37.2233 11.3977 37.5126 11.683 37.5687L12.9908 37.8276V37.8349L12.1225 37.9685C12.0248 37.984 11.9319 38.0513 11.8861 38.1391C11.8375 38.2323 11.8358 38.3441 11.8812 38.4377L12.0195 38.7252C12.0652 38.8201 12.0678 38.9465 12.0262 39.0472C12.0017 39.1068 11.9731 39.1279 11.9764 39.1287L9.89422 39.3783L9.00578 38.9994C8.98516 38.9905 8.94719 38.9465 8.9275 38.861C8.90047 38.7444 8.92312 38.6151 8.9825 38.5465L9.85563 37.5385C9.96875 37.4077 10.0313 37.2246 10.028 37.0344L10.1561 33.2087C10.3728 33.358 11.037 33.8069 11.8419 34.2735L11.2208 36.8191ZM20.6506 34.0923C20.5959 34.0752 20.5373 34.0733 20.4817 34.0871C20.4417 34.0969 16.4561 35.0774 14.9606 34.9238C14.0973 34.8352 12.6991 34.0718 11.6863 33.4529C12.2109 33.4985 12.7362 33.5227 13.2614 33.5227C14.4561 33.5226 15.6486 33.4046 16.8239 33.1694L18.1717 32.8999C18.3323 32.8677 18.4914 32.8308 18.6505 32.7937L22.8644 33.7482C24.2987 34.0732 25.7716 34.2379 27.2425 34.2379H27.2611L29.4855 34.2358C29.5248 34.2358 29.5642 34.2343 29.6036 34.234C28.1072 34.7007 26.3238 35.2033 25.5817 35.2033C24.1992 35.2035 20.6859 34.1033 20.6506 34.0923ZM31.1745 37.0426C31.1731 37.2298 31.2355 37.4098 31.347 37.5388L32.2198 38.5466C32.2792 38.6151 32.3019 38.7446 32.2748 38.8612C32.2552 38.9466 32.2172 38.9907 32.1966 38.9996L31.3098 39.3768L29.235 39.1302C29.2292 39.128 29.2006 39.1071 29.1761 39.0476C29.1345 38.9468 29.1372 38.8205 29.1828 38.7255L29.3206 38.4388C29.3664 38.3444 29.3647 38.2324 29.3161 38.1393C29.2702 38.0513 29.1767 37.9838 29.0786 37.9687L28.2111 37.8351C28.2111 37.8326 28.2111 37.8302 28.2111 37.828L29.5189 37.569C29.8047 37.5129 30.003 37.2237 29.9903 36.8818C29.9894 36.8565 29.9853 36.8312 29.9783 36.8068L29.4394 34.9396C29.9969 34.7694 30.5264 34.5994 30.9705 34.4535L31.1745 37.0426Z" fill="white"/>
</g>
<defs>
<clipPath id="clip0_167_441">
<rect width="40" height="40" fill="white" transform="translate(0.5 0.360352)"/>
</clipPath>
</defs>
</svg>
