<svg width="81" height="81" viewBox="0 0 81 81" fill="none" xmlns="http://www.w3.org/2000/svg">
<path d="M67.6469 67.2713C68.9925 66.9482 70.1341 66.0013 70.7004 64.7385L71.181 63.667C71.8816 62.1045 71.6175 60.2516 70.5082 58.947C70.0722 58.4345 69.516 58.0207 68.8994 57.7504L67.1522 56.9848C64.9532 56.021 62.6563 55.3835 60.2978 55.0726L57.9794 41.4838C57.9704 41.4248 57.9628 41.3654 57.9569 41.306L57.6938 38.6748C57.3738 35.4738 56.7538 32.2848 55.851 29.196L55.5135 28.0413C55.2507 27.1416 54.7541 26.3238 54.0775 25.6754C53.19 24.8254 52.0125 24.3848 50.811 24.4298L45.8147 22.132C45.9325 21.9588 46.0485 21.7816 46.1616 21.596C47.4891 19.4132 48.2619 16.6804 48.2291 14.2848C48.1966 11.9179 47.3769 9.69914 45.9213 8.03726C45.7113 7.79758 45.491 7.5757 45.2625 7.36789C45.3125 7.14039 45.3582 6.89289 45.3547 6.63289C45.3172 3.91383 43.076 1.72539 40.355 1.76945C37.636 1.80727 35.4544 4.05008 35.4916 6.76883C35.4957 7.04914 35.5532 7.28258 35.6135 7.49164C35.3879 7.70852 35.17 7.93945 34.9641 8.18852C33.555 9.88976 32.7966 12.1301 32.8291 14.4973C32.8622 16.8926 33.71 19.6035 35.0972 21.7488C35.1772 21.8723 35.2588 21.991 35.3407 22.1088L30.0107 24.4298C28.8069 24.3832 27.6266 24.8235 26.7375 25.6751C26.061 26.3235 25.5644 27.1413 25.3016 28.0407L24.9638 29.1957C24.061 32.2845 23.441 35.4735 23.121 38.6745L22.8582 41.3048C22.8519 41.3645 22.8444 41.4241 22.8366 41.4754L20.7004 54.1888C18.6835 54.3663 16.7041 54.9573 14.92 55.9516C13.8075 56.5713 13.001 57.6379 12.7075 58.8776C12.3088 60.5616 12.9172 62.3566 14.2579 63.4513C15.5482 64.5045 16.99 65.3263 18.5294 65.8948L18.26 73.9401C18.2597 73.9535 18.2597 73.967 18.26 73.9804C18.2629 74.0726 18.2338 74.1385 18.2204 74.1541L16.4744 76.1698C16.0935 76.6098 15.9469 77.2723 16.0916 77.8985C16.2166 78.4401 16.5391 78.8576 16.9757 79.0438L18.7535 79.802C18.9082 79.8676 19.0732 79.9007 19.2316 79.9007C19.2844 79.9007 19.3363 79.8969 19.3872 79.8898L23.5716 79.3916C23.9913 79.3304 24.361 79.0523 24.586 78.6295C24.8572 78.1191 24.8904 77.4876 24.6813 76.946L25.736 76.7832C26.2054 76.7116 26.5791 76.3204 26.666 75.8104C26.7832 75.1216 26.3991 74.4666 25.8097 74.3501L23.1444 73.8226C23.1382 73.8051 23.1319 73.7816 23.1291 73.7523L24.27 69.076C26.0019 70.0098 27.8769 70.8454 29.2485 70.986C32.2357 71.2938 39.3247 69.6207 40.5482 69.3241C41.6744 69.6726 47.8775 71.5523 50.6185 71.5523C51.9241 71.5523 54.5594 70.8882 57.1363 70.1323L58.1838 73.7626C58.1807 73.7873 58.1754 73.8076 58.1697 73.8226L55.5047 74.3501C54.9153 74.4666 54.531 75.1216 54.6482 75.8104C54.735 76.3207 55.1088 76.7116 55.5775 76.7832L56.6325 76.946C56.4235 77.4873 56.4566 78.1191 56.7278 78.6295C56.9529 79.0526 57.3225 79.3304 57.7588 79.3938L61.9116 79.8876C61.9682 79.8957 62.025 79.8998 62.0816 79.8998C62.2447 79.8998 62.4075 79.8666 62.5613 79.8016L64.3382 79.0438C64.7747 78.8576 65.0972 78.4401 65.2222 77.8985C65.3669 77.2723 65.2204 76.6098 64.8391 76.1698L63.0935 74.1544C63.0797 74.1385 63.0504 74.0726 63.0535 73.9804C63.0541 73.9579 63.0535 73.9348 63.0519 73.912L62.6175 68.3945C63.2357 68.186 63.6547 68.0404 63.7904 67.9932C65.0863 67.8151 66.3744 67.577 67.6469 67.2713ZM23.8035 65.6229C22.8713 62.9716 23.0878 60.0582 24.4191 57.5682L24.5144 57.3901C29.565 56.8085 44.355 58.5838 44.5129 58.6032C44.6897 58.6248 44.8685 58.5691 45.0025 58.4507C45.1363 58.332 45.2129 58.1616 45.2129 57.9829V56.8941C45.2129 56.5482 45.3666 56.2235 45.6347 56.0045C45.8554 55.8238 46.1319 55.7316 46.4185 55.746L50.1319 55.9273C50.2988 55.9329 50.46 55.877 50.5829 55.7651L54.8685 51.8691C55.0232 51.7285 55.2207 51.657 55.4316 51.667L56.741 51.7291C56.8716 51.7354 57 51.7748 57.1116 51.8426C57.3253 51.9735 57.4607 52.1913 57.4828 52.4407C57.505 52.6901 57.41 52.9285 57.2225 53.0945L54.4103 55.5873C54.13 55.836 53.8182 56.0495 53.4844 56.2216L47.196 59.4641C47.1847 59.4698 47.1741 59.4757 47.1635 59.4823L44.64 60.9807C41.8232 62.6532 38.7657 63.827 35.5532 64.4698L32.8572 65.0088C29.8744 65.6054 26.8354 65.811 23.8035 65.6229ZM24.8344 54.4157C24.7544 53.7945 25.0925 53.1779 25.6829 52.9273C25.9619 52.8082 26.2772 52.7826 26.5729 52.8545L27.1041 52.9835C28.1763 53.2438 29.1035 53.8926 29.7157 54.8107L29.9175 55.1138C30.0116 55.2548 30.1588 55.3516 30.3257 55.382L31.9475 55.677C32.4854 55.7748 32.9929 55.9866 33.44 56.2885C32.0216 56.1901 30.6057 56.1107 29.2847 56.0666L26.0269 54.7095C26.0047 54.7004 25.9822 54.6923 25.9594 54.686C25.5879 54.5788 25.2119 54.4916 24.8344 54.4157ZM29.9216 45.9635L30.1669 46.587C30.7907 48.171 30.98 49.8973 30.7147 51.5788L30.3907 53.6338C29.9869 53.1498 29.5075 52.7413 28.9729 52.4198L29.9216 45.9635ZM31.8663 52.3013H49.8591L50.2535 54.3754L49.9338 54.666L46.4794 54.4973C45.8841 54.4688 45.3038 54.6601 44.8432 55.0373C44.2838 55.4948 43.9629 56.1716 43.9629 56.8941V57.2801C42.5163 57.1126 39.085 56.7316 35.3772 56.4338C34.5988 55.3995 33.45 54.6795 32.1713 54.447L31.546 54.3332L31.8663 52.3013ZM50.9854 51.5316C50.7282 50.1785 50.7725 48.7766 51.11 47.4429L51.9075 52.872L51.3385 53.3891L50.9854 51.5316ZM45.2779 62.0554L47.7854 60.5663L49.0769 59.9004L50.0113 59.782C53.0225 59.3991 56.115 59.5676 59.0757 60.2613C58.1991 62.4488 58.2272 64.9357 59.1685 67.1054C58.9203 67.1104 58.6722 67.1166 58.4244 67.117L53.9757 67.121C53.9635 67.121 53.9516 67.121 53.9397 67.121C51.0907 67.121 48.2375 66.802 45.4597 66.1729L39.2863 64.7745C41.3716 64.0904 43.3779 63.1835 45.2779 62.0554ZM68.3972 58.8954C68.841 59.0898 69.2419 59.3879 69.5557 59.757C70.3544 60.6963 70.5447 62.0301 70.0404 63.1554L69.5597 64.227C69.1507 65.1388 68.3266 65.8223 67.3547 66.0563C65.1128 66.5945 62.8216 66.9279 60.5191 67.056L60.4191 66.846C59.4832 64.8795 59.4454 62.5738 60.2941 60.5801C60.631 60.677 60.9666 60.7782 61.2991 60.8891L63.0432 61.4704L63.4385 60.2845L61.6944 59.7032C58.6116 58.676 55.3257 58.2191 52.0735 58.3557L54.0569 57.3329C54.4832 57.1132 54.8813 56.8407 55.2394 56.5229L55.7657 56.0563L57.6588 56.1107C60.7716 56.2001 63.7966 56.8795 66.6497 58.1298L68.3972 58.8954ZM57.695 54.8613L57.1322 54.8451L58.0516 54.0304C58.3666 53.751 58.5791 53.3929 58.6757 52.9998L59.0057 54.9345C58.5707 54.8995 58.1338 54.8738 57.695 54.8613ZM53.2116 26.5779C53.7304 27.0751 54.111 27.7023 54.3125 28.392L54.6504 29.547C55.5316 32.5613 56.1366 35.6745 56.4491 38.7991L56.7122 41.4301C56.7203 41.512 56.731 41.5929 56.7447 41.6841L58.4013 51.3945C58.2394 51.1485 58.0247 50.9366 57.7628 50.7763C57.4725 50.5995 57.1397 50.497 56.8 50.4807L55.491 50.4185C54.9507 50.3935 54.4294 50.5795 54.0272 50.9448L53.0216 51.8588L51.5141 41.5966C51.1625 39.2045 50.5454 36.847 49.6791 34.5898L47.9472 30.0763C47.6635 29.337 47.6604 28.521 47.9385 27.7791C48.3219 26.7566 49.1866 26.0013 50.2516 25.7588C51.3166 25.5151 52.4232 25.8223 53.2116 26.5779ZM40.371 3.01883C42.351 2.9857 43.98 4.53383 44.0929 6.48695C42.9682 5.80008 41.7072 5.44414 40.405 5.46039C39.0994 5.47852 37.8504 5.86883 36.7466 6.58633C36.8066 4.63195 38.3969 3.04633 40.371 3.01883ZM35.9257 8.98539C37.1216 7.54164 38.7185 6.73383 40.4222 6.71039C40.4479 6.71008 40.4732 6.70977 40.4988 6.70977C42.1741 6.70977 43.7629 7.47164 44.9797 8.8607C46.1644 10.2132 46.8544 12.0038 46.9575 13.9329C45.4429 12.7976 42.56 10.8729 40.4219 10.8729C38.2997 10.8729 35.5579 12.7535 34.0944 13.8901C34.186 12.0416 34.8222 10.3173 35.9257 8.98539ZM34.1435 15.4554C35.4344 14.3607 38.476 12.1229 40.4216 12.1229C42.3716 12.1229 45.5575 14.3801 46.9175 15.4832C46.7338 17.3391 46.0879 19.3085 45.0922 20.946C43.8385 23.0076 42.2241 24.2023 40.6632 24.2235C39.1044 24.2532 37.456 23.0957 36.1457 21.0691C35.0672 19.401 34.351 17.3648 34.1435 15.4554ZM42.8354 24.922C42.5394 25.8726 41.6516 26.5645 40.6047 26.5645C39.5557 26.5645 38.6663 25.8691 38.3725 24.9154C39.101 25.2829 39.8554 25.4741 40.6172 25.4741C40.6382 25.4741 40.6594 25.4741 40.6804 25.4738C41.4157 25.4635 42.1394 25.2741 42.8354 24.922ZM37.0194 24.002V24.2288C37.0194 26.2057 38.6279 27.8145 40.605 27.8145C42.5822 27.8145 44.1907 26.206 44.1907 24.2288V23.996C44.4797 23.7438 44.7613 23.4616 45.0335 23.1485L48.9075 24.9301C47.9319 25.4341 47.1647 26.2835 46.7688 27.3395C46.3835 28.3676 46.3875 29.4982 46.781 30.5232L48.5129 35.0366C49.346 37.2079 49.94 39.4757 50.2779 41.7773L50.6904 44.5854L50.075 46.5145C49.6091 47.976 49.4654 49.5301 49.6482 51.0504H32.0382C32.1869 49.381 31.946 47.6935 31.3297 46.1285L30.2863 43.4776L30.536 41.7773C30.8741 39.4757 31.4682 37.2079 32.3013 35.0366L34.0332 30.5232C34.4266 29.4982 34.4307 28.3676 34.0454 27.3395C33.6544 26.297 32.9007 25.4576 31.9429 24.9513L36.1357 23.1245C36.4222 23.4485 36.7166 23.7429 37.0194 24.002ZM24.0707 41.6745C24.0832 41.5935 24.0935 41.5126 24.1019 41.4307L24.365 38.7995C24.6775 35.6748 25.2825 32.5616 26.1638 29.5473L26.5016 28.392C26.7032 27.7026 27.0838 27.0754 27.6025 26.5782C28.391 25.8226 29.4988 25.5157 30.5622 25.7588C31.6272 26.001 32.4919 26.7563 32.8754 27.7791C33.1535 28.521 33.1504 29.3366 32.8666 30.0763L31.1347 34.5898C30.2688 36.847 29.6513 39.2045 29.2997 41.5966L27.7888 51.8832C27.6604 51.842 27.5313 51.8013 27.3991 51.7691L26.8682 51.6401C26.3138 51.5051 25.7191 51.5541 25.1938 51.777C24.1975 52.2004 23.5766 53.1788 23.5691 54.2198C23.04 54.1616 22.5091 54.1326 21.9779 54.1329L24.0707 41.6745ZM13.9241 59.166C14.1369 58.267 14.7219 57.4932 15.5288 57.0438C17.5038 55.9432 19.7397 55.3782 21.9819 55.3782C23.1929 55.3782 24.4057 55.5429 25.58 55.8773L25.9844 56.0457C24.9354 56.0782 24.0563 56.1588 23.4363 56.3016L17.8619 57.5879L18.1429 58.806L22.9707 57.692C21.8657 60.1588 21.685 62.9276 22.4554 65.5132L22.3663 65.5045C19.6744 65.2379 17.1438 64.1932 15.0485 62.4829C14.076 61.6898 13.6347 60.3876 13.9241 59.166ZM21.8957 73.5335C21.8857 73.5745 21.8797 73.6163 21.8782 73.6582C21.8529 74.342 22.2494 74.9204 22.82 75.0326L25.4357 75.5504V75.5651L23.6991 75.8323C23.5038 75.8632 23.3179 75.9979 23.2263 76.1735C23.1291 76.3598 23.1257 76.5835 23.2166 76.7707L23.4932 77.3457C23.5844 77.5354 23.5897 77.7882 23.5066 77.9898C23.4575 78.1088 23.4004 78.151 23.4069 78.1526L19.2425 78.652L17.4657 77.8941C17.4244 77.8763 17.3485 77.7882 17.3091 77.6173C17.255 77.3841 17.3004 77.1254 17.4191 76.9882L19.1654 74.9723C19.3916 74.7107 19.5166 74.3445 19.51 73.9641L19.7663 66.3126C20.1997 66.6113 21.5282 67.5091 23.1379 68.4423L21.8957 73.5335ZM40.7554 68.0798C40.646 68.0457 40.5288 68.042 40.4175 68.0695C40.3375 68.0891 32.3663 70.0501 29.3754 69.7429C27.6488 69.5657 24.8522 68.0388 22.8266 66.801C23.876 66.8923 24.9266 66.9407 25.9769 66.9407C28.3663 66.9404 30.7513 66.7045 33.1019 66.2341L35.7975 65.6951C36.1188 65.6307 36.4369 65.557 36.755 65.4826L45.1828 67.3916C48.0516 68.0416 50.9972 68.371 53.9391 68.371H53.9763L58.425 68.367C58.5038 68.367 58.5825 68.3638 58.6613 68.3632C55.6685 69.2966 52.1016 70.302 50.6175 70.302C47.8525 70.3023 40.826 68.102 40.7554 68.0798ZM61.8032 73.9804C61.8003 74.3548 61.925 74.7148 62.1482 74.9729L63.8938 76.9885C64.0125 77.1254 64.0578 77.3845 64.0038 77.6176C63.9644 77.7885 63.8885 77.8766 63.8472 77.8945L62.0738 78.6488L57.9241 78.1557C57.9125 78.1513 57.8554 78.1095 57.8063 77.9904C57.7232 77.7888 57.7285 77.5363 57.8197 77.3463L58.0954 76.7729C58.1869 76.5841 58.1835 76.3601 58.0863 76.1738C57.9944 75.9979 57.8075 75.8629 57.6113 75.8326L55.8763 75.5654C55.8763 75.5604 55.8763 75.5557 55.8763 75.5513L58.4919 75.0332C59.0635 74.921 59.46 74.3426 59.4347 73.6588C59.4328 73.6082 59.4247 73.5576 59.4107 73.5088L58.3328 69.7745C59.4478 69.4341 60.5069 69.0941 61.395 68.8023L61.8032 73.9804Z" fill="#3D493A"/>
</svg>
