<svg width="51" height="51" viewBox="0 0 51 51" fill="none" xmlns="http://www.w3.org/2000/svg">
<g clip-path="url(#clip0_167_521)">
<path d="M42.0539 31.7098H42.0514C43.2135 30.4136 43.8207 28.4891 43.8207 26.6307C43.8207 25.2535 43.2736 23.9328 42.2999 22.959C41.3261 21.9852 40.0054 21.4382 38.6282 21.4382C37.2511 21.4382 35.9304 21.9852 34.9566 22.959C33.9828 23.9328 33.4357 25.2535 33.4357 26.6307C33.4357 28.1165 33.8688 29.7068 34.594 30.8841C34.7731 31.1762 34.9769 31.4525 35.2032 31.7098H35.1997C33.9912 31.7072 32.8128 32.0871 31.8333 32.795C31.3924 32.7218 30.9462 32.6848 30.4992 32.6843H29.6274C30.1671 32.1983 30.6366 31.6395 31.0223 31.0241C32.0994 29.3319 32.7172 27.1062 32.7172 24.9175C32.7207 23.9676 32.5366 23.0264 32.1755 22.1479C31.8145 21.2693 31.2835 20.4707 30.6131 19.7978C29.9426 19.1249 29.146 18.591 28.2687 18.2267C27.3915 17.8624 26.451 17.6748 25.5011 17.6748C24.5513 17.6748 23.6107 17.8624 22.7335 18.2267C21.8563 18.591 21.0596 19.1249 20.3892 19.7978C19.7188 20.4707 19.1878 21.2693 18.8267 22.1479C18.4656 23.0264 18.2816 23.9676 18.2851 24.9175C18.2851 27.0208 18.8968 29.2697 19.9215 30.9331C20.3155 31.5841 20.8024 32.1741 21.3668 32.6845H20.5007C20.0537 32.685 19.6075 32.722 19.1666 32.7952C18.1871 32.0873 17.0087 31.7074 15.8002 31.71H15.7967C16.023 31.4527 16.2268 31.1764 16.4059 30.8843C17.1312 29.7068 17.5642 28.1167 17.5642 26.6309C17.5642 25.2541 17.0172 23.9337 16.0437 22.9602C15.0702 21.9867 13.7498 21.4397 12.373 21.4397C10.9963 21.4397 9.6759 21.9867 8.70238 22.9602C7.72885 23.9337 7.18193 25.2541 7.18193 26.6309C7.18193 28.4893 7.78936 30.4138 8.95039 31.71H8.946C5.90801 31.71 3.43652 34.0301 3.43652 36.8817V42.8778C3.43652 43.085 3.51883 43.2837 3.66535 43.4303C3.81186 43.5768 4.01057 43.6591 4.21777 43.6591H12.8213V48.6162C12.8213 48.8234 12.9036 49.0221 13.0501 49.1686C13.1966 49.3152 13.3953 49.3975 13.6025 49.3975H37.3984C37.6056 49.3975 37.8044 49.3152 37.9509 49.1686C38.0974 49.0221 38.1797 48.8234 38.1797 48.6162V43.6589H46.7849C46.9921 43.6589 47.1908 43.5766 47.3373 43.4301C47.4838 43.2836 47.5661 43.0848 47.5661 42.8776V36.8815C47.5661 34.0299 45.0934 31.7098 42.0539 31.7098ZM34.9982 26.6307C34.9982 25.6679 35.3807 24.7446 36.0614 24.0639C36.7422 23.3831 37.6655 23.0007 38.6282 23.0007C39.591 23.0007 40.5143 23.3831 41.195 24.0639C41.8758 24.7446 42.2582 25.6679 42.2582 26.6307C42.2582 28.5944 41.2719 31.7098 38.6268 31.7098C35.9834 31.7098 34.9982 28.5944 34.9982 26.6307ZM25.4997 19.2621C26.999 19.2638 28.4364 19.8602 29.4965 20.9203C30.5566 21.9804 31.153 23.4178 31.1547 24.9171C31.1547 24.9578 31.153 24.9986 31.1524 25.0394C28.9754 24.7911 27.0964 24.3069 24.5588 22.3174C24.4339 22.2195 24.2822 22.162 24.1238 22.1524C23.9654 22.1429 23.8079 22.1818 23.6722 22.264L19.859 24.5732C19.9477 23.1367 20.5803 21.7879 21.6282 20.8013C22.6761 19.8146 24.0604 19.2643 25.4997 19.2621ZM21.2517 30.1135C20.5994 29.0545 20.1427 27.712 19.95 26.3439L24.026 23.8762C26.6751 25.8419 28.7486 26.341 31.0141 26.5961C30.7984 27.9119 30.342 29.1821 29.704 30.1846C28.9781 31.3249 27.6595 32.6846 25.4995 32.6846C23.7321 32.6843 22.3026 31.8193 21.2517 30.1135ZM8.74395 26.6307C8.74395 26.1541 8.8378 25.6823 9.02016 25.2421C9.20251 24.8018 9.46979 24.4018 9.80674 24.0648C10.1437 23.7279 10.5437 23.4606 10.9839 23.2783C11.4242 23.0959 11.896 23.0021 12.3726 23.0021C12.8491 23.0021 13.3209 23.0959 13.7612 23.2783C14.2014 23.4606 14.6014 23.7279 14.9384 24.0648C15.2753 24.4018 15.5426 24.8018 15.725 25.2421C15.9073 25.6823 16.0012 26.1541 16.0012 26.6307C16.0012 28.5944 15.016 31.7098 12.3726 31.7098C9.7291 31.7098 8.74395 28.5944 8.74395 26.6307ZM4.99854 42.0964V36.8815C4.99854 34.8914 6.76914 33.2723 8.94551 33.2723H15.7997C16.2205 33.2722 16.639 33.3347 17.0414 33.4578C14.54 34.6441 12.8205 37.0727 12.8205 39.8716V42.0967L4.99854 42.0964ZM36.6164 47.835H32.6562V43.0187C32.6562 42.8116 32.5739 42.6128 32.4274 42.4663C32.2809 42.3198 32.0822 42.2375 31.875 42.2375C31.6678 42.2375 31.4691 42.3198 31.3226 42.4663C31.1761 42.6128 31.0938 42.8116 31.0938 43.0187V47.835H19.9084V43.0187C19.9084 42.8116 19.8261 42.6128 19.6796 42.4663C19.5331 42.3198 19.3343 42.2375 19.1271 42.2375C18.9199 42.2375 18.7212 42.3198 18.5747 42.4663C18.4282 42.6128 18.3459 42.8116 18.3459 43.0187V47.835H14.383V39.8713C14.383 36.7699 17.1271 34.2468 20.5002 34.2468H30.4997C33.8728 34.2468 36.6169 36.7699 36.6169 39.8713L36.6164 47.835ZM46.0036 42.0964H38.1789V39.8713C38.1789 37.0724 36.4594 34.6438 33.958 33.4575C34.3604 33.3344 34.7789 33.2719 35.1997 33.272H42.0539C44.2316 33.272 46.0036 34.8911 46.0036 36.8813V42.0964ZM21.1586 10.2625L20.5491 14.491C20.5288 14.6318 20.5474 14.7755 20.6027 14.9065C20.6581 15.0375 20.7482 15.1509 20.8633 15.2345C20.9784 15.3181 21.1141 15.3687 21.2558 15.3808C21.3975 15.393 21.5399 15.3662 21.6675 15.3033L25.4997 13.4165L29.3347 15.3035C29.4623 15.3663 29.6046 15.3931 29.7463 15.381C29.8881 15.3688 30.0238 15.3182 30.1389 15.2346C30.2539 15.151 30.344 15.0376 30.3993 14.9066C30.4547 14.7755 30.4732 14.6319 30.4529 14.4911L29.8434 10.2626L32.8226 7.19971C32.9217 7.09777 32.9912 6.97069 33.0234 6.83219C33.0557 6.69368 33.0495 6.54899 33.0056 6.41373C32.9617 6.27846 32.8817 6.15775 32.7743 6.0646C32.6668 5.97146 32.5359 5.90941 32.3958 5.88516L28.1845 5.15615L26.1906 1.37686C26.1243 1.25107 26.0249 1.14576 25.9032 1.0723C25.7814 0.998832 25.6419 0.959991 25.4997 0.959961C25.3575 0.959992 25.2179 0.998854 25.0962 1.07236C24.9744 1.14586 24.875 1.25121 24.8087 1.37705L22.8176 5.15635L18.6065 5.88525C18.4664 5.90951 18.3356 5.97155 18.2281 6.0647C18.1206 6.15785 18.0406 6.27856 17.9967 6.41383C17.9528 6.54909 17.9466 6.69378 17.9789 6.83228C18.0112 6.97079 18.0806 7.09787 18.1798 7.19981L21.1586 10.2625ZM23.4627 6.63018C23.5805 6.60977 23.6921 6.56259 23.7888 6.49225C23.8856 6.42192 23.9649 6.33032 24.0206 6.22451L25.4997 3.41641L26.9814 6.2249C27.0372 6.33062 27.1165 6.42212 27.2132 6.49238C27.3099 6.56265 27.4214 6.60979 27.5392 6.63018L30.6693 7.17197L28.4554 9.44863C28.372 9.5344 28.3094 9.63817 28.2724 9.75195C28.2354 9.86573 28.2251 9.98648 28.2422 10.1049L28.6951 13.2474L25.8446 11.8447C25.7373 11.7919 25.6192 11.7644 25.4996 11.7644C25.38 11.7644 25.2619 11.7919 25.1546 11.8447L22.3071 13.2468L22.76 10.1048C22.777 9.98639 22.7667 9.86566 22.7297 9.7519C22.6928 9.63814 22.6302 9.53438 22.5468 9.44863L20.3324 7.17197L23.4627 6.63018ZM6.65859 11.5802L6.23994 14.4914C6.2197 14.6322 6.23827 14.7758 6.29367 14.9069C6.34906 15.0379 6.43917 15.1513 6.55428 15.2348C6.66938 15.3184 6.80512 15.3689 6.94684 15.381C7.08857 15.3931 7.2309 15.3663 7.3585 15.3034L9.99727 14.0035L12.6334 15.3032C12.761 15.3661 12.9033 15.393 13.0451 15.3809C13.1868 15.3689 13.3225 15.3183 13.4377 15.2348C13.5528 15.1513 13.6429 15.0379 13.6984 14.9069C13.7538 14.7759 13.7724 14.6322 13.7521 14.4914L13.3335 11.5805L15.3852 9.47246C15.4843 9.37054 15.5538 9.24347 15.5861 9.10496C15.6184 8.96646 15.6123 8.82176 15.5684 8.68648C15.5245 8.55121 15.4445 8.43048 15.337 8.33731C15.2296 8.24415 15.0987 8.18208 14.9586 8.15781L12.0596 7.65586L10.6885 5.05576C10.6222 4.93002 10.5228 4.82476 10.4011 4.75131C10.2794 4.67786 10.1399 4.63902 9.99775 4.63896C9.85563 4.63896 9.7162 4.67772 9.59447 4.75108C9.47274 4.82443 9.37332 4.92961 9.30693 5.05527L7.93291 7.65586L5.03623 8.15791C4.89615 8.18219 4.76535 8.24423 4.65792 8.33735C4.55049 8.43047 4.47051 8.55114 4.42659 8.68635C4.38268 8.82157 4.37649 8.96621 4.4087 9.10468C4.44091 9.24315 4.51029 9.37021 4.60938 9.47217L6.65859 11.5802ZM8.57783 9.12988C8.6955 9.1095 8.80694 9.06242 8.90357 8.99225C9.0002 8.92208 9.07946 8.83069 9.13525 8.7251L9.99678 7.09424L10.8562 8.7251C10.9119 8.83086 10.9912 8.92241 11.0879 8.99271C11.1846 9.06301 11.2962 9.11017 11.414 9.13057L13.2314 9.44522L11.9452 10.7668C11.8618 10.8525 11.7992 10.9563 11.7622 11.07C11.7252 11.1837 11.7148 11.3045 11.7318 11.4229L11.9941 13.2468L10.3425 12.4325C10.2351 12.3796 10.1169 12.3521 9.99717 12.3521C9.87742 12.3521 9.75927 12.3796 9.65186 12.4325L7.99707 13.2477L8.25947 11.423C8.27649 11.3047 8.26613 11.1841 8.22919 11.0704C8.19225 10.9567 8.12971 10.853 8.04639 10.7673L6.76172 9.44463L8.57783 9.12988ZM37.666 11.5802L37.2478 14.4914C37.2275 14.6322 37.2461 14.7758 37.3015 14.9069C37.3569 15.0379 37.447 15.1513 37.5621 15.2348C37.6772 15.3184 37.8129 15.3689 37.9547 15.381C38.0964 15.3931 38.2387 15.3663 38.3663 15.3034L41.0052 14.0035L43.6441 15.3034C43.7718 15.3663 43.9142 15.3931 44.056 15.381C44.1977 15.3689 44.3335 15.3183 44.4486 15.2346C44.5638 15.151 44.6538 15.0375 44.7092 14.9064C44.7645 14.7753 44.783 14.6316 44.7626 14.4907L44.3416 11.5806L46.393 9.47285C46.4922 9.37093 46.5616 9.24386 46.5939 9.10535C46.6262 8.96685 46.6201 8.82215 46.5762 8.68688C46.5323 8.5516 46.4523 8.43087 46.3448 8.3377C46.2374 8.24454 46.1065 8.18247 45.9664 8.1582L43.0673 7.65625L41.6958 5.05576C41.6295 4.93001 41.5301 4.82473 41.4084 4.75129C41.2866 4.67784 41.1472 4.639 41.005 4.63896C40.8629 4.63897 40.7235 4.67774 40.6017 4.7511C40.48 4.82446 40.3806 4.92962 40.3143 5.05527L38.9405 7.65586L36.0438 8.15791C35.9038 8.18217 35.7729 8.2442 35.6655 8.33732C35.5581 8.43043 35.4781 8.5511 35.4341 8.68632C35.3902 8.82154 35.384 8.96618 35.4162 9.10466C35.4484 9.24314 35.5178 9.37021 35.6169 9.47217L37.666 11.5802ZM39.5852 9.12988C39.7028 9.10949 39.8143 9.06239 39.9109 8.9922C40.0075 8.92202 40.0868 8.83061 40.1426 8.725L41.0041 7.09414L41.8635 8.725C41.9192 8.83076 41.9985 8.92232 42.0952 8.99261C42.1919 9.06291 42.3035 9.11007 42.4213 9.13047L44.2389 9.44512L42.9525 10.7667C42.869 10.8525 42.8064 10.9564 42.7694 11.0702C42.7324 11.1841 42.7221 11.3049 42.7393 11.4234L43.0029 13.2467L41.3496 12.4322C41.2422 12.3794 41.1241 12.3519 41.0043 12.3519C40.8846 12.3519 40.7665 12.3794 40.6591 12.4322L39.0044 13.2473L39.2668 11.4229C39.2838 11.3045 39.2735 11.1838 39.2365 11.0701C39.1996 10.9564 39.137 10.8527 39.0537 10.767L37.769 9.44463L39.5852 9.12988Z" fill="#AEA17E"/>
</g>
<defs>
<clipPath id="clip0_167_521">
<rect width="50" height="50" fill="white" transform="translate(0.5 0.178711)"/>
</clipPath>
</defs>
</svg>
