<svg width="382" height="138" viewBox="0 0 382 138" fill="none" xmlns="http://www.w3.org/2000/svg">
<path fill-rule="evenodd" clip-rule="evenodd" d="M181.526 118.234C181.09 118.357 180.623 118.174 180.116 117.893C179.455 117.526 178.753 116.97 178.018 116.406C177.232 115.803 176.411 115.193 175.57 114.762C174.649 114.29 173.7 114.033 172.744 114.168C170.526 114.482 168.429 115.453 166.368 116.534C164.39 117.57 162.446 118.708 160.444 119.403C155.453 121.135 145.824 122.96 140.674 122.474C140.361 122.444 140.083 122.675 140.053 122.988C140.024 123.302 140.254 123.58 140.568 123.609C145.842 124.107 155.707 122.254 160.818 120.481C162.871 119.768 164.869 118.607 166.897 117.544C168.841 116.524 170.813 115.594 172.904 115.297C173.79 115.172 174.658 115.525 175.503 116.029C176.449 116.593 177.362 117.355 178.224 117.998C178.982 118.562 179.707 119.036 180.38 119.258C180.922 119.438 181.438 119.465 181.925 119.304C182.106 119.244 182.311 119.102 182.501 118.847C182.76 118.5 183.044 117.875 183.33 117.09C183.854 115.654 184.423 113.653 185.02 112.02C185.39 111.012 185.756 110.148 186.143 109.7C187.465 108.172 191 105.547 193.145 103.913C194.141 103.155 194.851 102.582 194.99 102.398C197.799 98.6846 199.809 94.5758 197.737 89.6465C196.945 87.7624 195.747 85.4392 194.612 83.7504C194.436 83.4895 194.081 83.4198 193.82 83.5956C193.559 83.7711 193.489 84.126 193.665 84.3869C194.763 86.0198 195.92 88.2669 196.686 90.0885C198.577 94.5891 196.645 98.3195 194.08 101.71C193.959 101.87 193.321 102.345 192.454 103.006C190.253 104.682 186.636 107.386 185.28 108.954C184.832 109.473 184.377 110.459 183.949 111.628C183.352 113.261 182.783 115.263 182.258 116.699C182.05 117.269 181.854 117.745 181.662 118.054C181.62 118.121 181.551 118.204 181.526 118.234Z" fill="#3D493A" fill-opacity="0.1"/>
<path fill-rule="evenodd" clip-rule="evenodd" d="M174.703 88.5181C174.622 88.5679 174.387 88.7081 174.195 88.7952C173.695 89.0233 173.108 89.2304 172.923 89.3118C171.209 90.067 169.899 91.4616 168.247 92.3554C161.181 96.1762 154.587 100.888 147.296 104.312C137.41 108.955 128.429 115.084 117.855 118.31C108.273 121.233 96.3077 123.679 86.46 125.306C81.8933 126.061 77.4433 127.913 72.8122 128.569C66.2055 129.505 59.5032 130.057 53.0034 131.573C52.6967 131.645 52.5059 131.952 52.5776 132.258C52.6489 132.565 52.956 132.755 53.2623 132.684C59.7297 131.175 66.3988 130.629 72.9723 129.698C77.6119 129.042 82.0708 127.188 86.646 126.432C96.5398 124.797 108.56 122.338 118.188 119.401C128.815 116.159 137.845 110.011 147.781 105.344C155.092 101.911 161.705 97.1899 168.789 93.3586C170.415 92.4794 171.697 91.0986 173.383 90.3559C173.675 90.2271 174.902 89.7931 175.382 89.4382C175.691 89.2105 175.797 88.937 175.797 88.7454C175.797 88.431 175.541 88.1753 175.226 88.1753C174.993 88.1753 174.791 88.3163 174.703 88.5181Z" fill="#3D493A" fill-opacity="0.1"/>
<path fill-rule="evenodd" clip-rule="evenodd" d="M46.3682 122.592C56.1762 120.298 66.6049 115.787 76.0267 112.132C84.4684 108.857 93.4215 106.774 101.881 103.548C113.528 99.1065 124.669 92.9604 135.502 86.8233C142.804 82.6865 150.679 79.3305 158.056 75.3412C159.629 74.4907 161.412 73.9814 162.7 72.7051C162.923 72.4835 162.925 72.1221 162.703 71.8984C162.482 71.6752 162.12 71.6736 161.897 71.8952C160.687 73.0945 158.992 73.5386 157.514 74.338C150.13 78.3309 142.248 81.6902 134.939 85.831C124.156 91.9398 113.068 98.0611 101.475 102.482C93.0131 105.708 84.058 107.793 75.6138 111.068C66.2402 114.705 55.8666 119.199 46.1085 121.481C45.8018 121.553 45.6114 121.86 45.6831 122.166C45.7548 122.473 46.0615 122.663 46.3682 122.592Z" fill="#3D493A" fill-opacity="0.1"/>
<path fill-rule="evenodd" clip-rule="evenodd" d="M44.6851 119.339C47.6733 118.834 50.4175 117.023 53.3031 116.136C64.3837 112.727 75.8043 108.939 86.4197 104.262C93.2047 101.272 100.192 98.0205 107.226 95.6961C107.525 95.5972 107.687 95.2743 107.589 94.9757C107.49 94.6767 107.167 94.5142 106.868 94.6131C99.7997 96.9489 92.7777 100.214 85.9599 103.218C75.3845 107.878 64.0065 111.649 52.9676 115.045C50.1282 115.919 47.435 117.718 44.4947 118.215C44.1843 118.267 43.9753 118.561 44.0275 118.872C44.0798 119.183 44.3744 119.392 44.6851 119.339Z" fill="#3D493A" fill-opacity="0.1"/>
<path fill-rule="evenodd" clip-rule="evenodd" d="M110.017 98.0712C109.2 96.5015 107.964 95.0093 107.605 93.2282C106.774 89.1108 108.679 79.3896 110.83 75.7337C111.73 74.205 113.114 73.0045 114.105 71.5305C114.281 71.2691 114.211 70.9146 113.95 70.7388C113.689 70.5633 113.334 70.6326 113.159 70.8939C112.155 72.3866 110.758 73.6065 109.847 75.1551C107.597 78.9787 105.618 89.1477 106.486 93.4538C106.867 95.3391 108.14 96.9363 109.006 98.5983C109.151 98.8775 109.496 98.986 109.775 98.8406C110.054 98.6951 110.163 98.3503 110.017 98.0712Z" fill="#3D493A" fill-opacity="0.1"/>
<path fill-rule="evenodd" clip-rule="evenodd" d="M119.656 120.339C122.164 123.717 126.405 125.976 130.91 126.795C135.416 127.613 140.176 126.987 143.709 124.652C143.972 124.478 144.044 124.124 143.871 123.862C143.697 123.599 143.343 123.527 143.08 123.7C139.778 125.883 135.325 126.437 131.114 125.672C126.9 124.907 122.918 122.819 120.571 119.659C120.384 119.406 120.026 119.353 119.773 119.541C119.521 119.729 119.468 120.086 119.656 120.339Z" fill="#3D493A" fill-opacity="0.1"/>
<path fill-rule="evenodd" clip-rule="evenodd" d="M139.163 123.19C144.449 118.604 145.719 115.401 148.191 109.274C148.309 108.982 148.168 108.65 147.876 108.532C147.584 108.414 147.251 108.556 147.133 108.847C144.741 114.777 143.531 117.89 138.415 122.328C138.177 122.535 138.152 122.895 138.358 123.133C138.564 123.371 138.925 123.396 139.163 123.19Z" fill="#3D493A" fill-opacity="0.1"/>
<path fill-rule="evenodd" clip-rule="evenodd" d="M144.598 112.735C146.405 110.969 147.011 108.179 147.607 105.815C147.684 105.509 147.499 105.199 147.194 105.122C146.888 105.045 146.578 105.23 146.501 105.535C145.953 107.708 145.46 110.297 143.8 111.919C143.575 112.139 143.571 112.5 143.791 112.725C144.011 112.95 144.373 112.955 144.598 112.735Z" fill="#3D493A" fill-opacity="0.1"/>
<path fill-rule="evenodd" clip-rule="evenodd" d="M117.023 68.2213C115.332 68.5941 113.462 69.0957 111.611 69.2549C109.857 69.406 108.117 69.2505 106.586 68.3161C102.164 65.6181 100.192 60.2087 100.5 54.9763C100.807 49.7504 103.392 44.6708 108.195 42.6319C108.485 42.5092 108.62 42.1741 108.498 41.8844C108.374 41.5943 108.039 41.459 107.75 41.5822C102.55 43.7891 99.6941 49.2516 99.361 54.9094C99.0284 60.5604 101.216 66.3762 105.992 69.2902C107.736 70.3537 109.711 70.5636 111.709 70.3914C113.61 70.2277 115.531 69.718 117.269 69.3351C117.576 69.2675 117.771 68.9628 117.703 68.6553C117.635 68.3481 117.331 68.1537 117.023 68.2213Z" fill="#3D493A" fill-opacity="0.1"/>
<path fill-rule="evenodd" clip-rule="evenodd" d="M108.747 50.1118C108.72 47.218 109.568 44.6699 110.984 42.1741C112.272 39.9043 114.701 37.8254 117.222 37.1062C123.167 35.4114 130.61 35.3721 135.058 40.3334C137.23 42.7559 137.953 46.8996 137.306 50.679C136.668 54.4118 134.688 57.8226 131.3 58.8011C130.998 58.8882 130.824 59.2046 130.911 59.5073C130.998 59.8095 131.315 59.9842 131.617 59.8971C135.41 58.8015 137.716 55.0504 138.431 50.8711C139.138 46.7383 138.283 42.2211 135.908 39.5717C131.164 34.2809 123.249 34.2015 116.91 36.0094C114.117 36.806 111.418 39.0972 109.992 41.6113C108.474 44.2862 107.578 47.0207 107.606 50.1223C107.609 50.4371 107.867 50.6904 108.182 50.6875C108.497 50.6847 108.75 50.4266 108.747 50.1118Z" fill="#3D493A" fill-opacity="0.1"/>
<path fill-rule="evenodd" clip-rule="evenodd" d="M128.419 60.6903C128.557 60.2519 129.062 59.6936 129.638 59.0579C130.648 57.9449 131.887 56.6593 132.384 55.513C132.509 55.2241 132.376 54.8878 132.087 54.7626C131.798 54.6379 131.463 54.7703 131.337 55.0592C130.882 56.1111 129.719 57.2702 128.793 58.2917C128.079 59.0789 127.501 59.8054 127.331 60.3487C127.237 60.649 127.404 60.9695 127.704 61.0635C128.005 61.1579 128.325 60.9905 128.419 60.6903Z" fill="#3D493A" fill-opacity="0.1"/>
<path fill-rule="evenodd" clip-rule="evenodd" d="M139.088 52.8554C139.278 52.6042 139.752 52.3676 140.27 52.1289C141.2 51.6998 142.288 51.3307 142.692 51.1484C149.789 47.9314 161.377 49.4495 167.474 54.6304C168.193 55.2418 168.568 56.1138 169.241 56.7811C169.464 57.0027 169.826 57.0011 170.047 56.7774C170.269 56.5542 170.267 56.1928 170.044 55.9712C169.35 55.2828 168.954 54.3914 168.213 53.7614C161.818 48.3272 149.665 46.7353 142.22 50.1091C141.745 50.3247 140.326 50.7992 139.319 51.3243C138.801 51.5949 138.385 51.8931 138.178 52.1674C137.988 52.4182 138.038 52.7764 138.289 52.9664C138.54 53.156 138.898 53.1066 139.088 52.8554Z" fill="#3D493A" fill-opacity="0.1"/>
<path fill-rule="evenodd" clip-rule="evenodd" d="M161.97 69.616C162.131 72.6816 164.618 77.4298 167.887 81.5917C171.162 85.7605 175.215 89.3264 178.386 90.1124C178.691 90.1882 179.001 90.0014 179.077 89.6959C179.152 89.3904 178.966 89.0809 178.66 89.0051C175.662 88.262 171.88 84.8286 168.784 80.8871C165.682 76.9383 163.262 72.4644 163.108 69.5565C163.092 69.2421 162.824 69.0002 162.509 69.0168C162.195 69.0334 161.953 69.302 161.97 69.616Z" fill="#3D493A" fill-opacity="0.1"/>
<path fill-rule="evenodd" clip-rule="evenodd" d="M178.709 89.9352C182.036 89.6054 187.309 86.2299 190.286 84.5991C193.598 82.7843 197.001 81.2272 200.222 79.2314C202.752 77.6638 205.094 75.7481 207.677 74.2547C210.46 72.6449 213.209 71.0076 215.793 69.0859C216.046 68.8983 216.098 68.5405 215.91 68.2881C215.722 68.0353 215.365 67.983 215.112 68.1706C212.563 70.066 209.851 71.6794 207.106 73.2673C204.513 74.7664 202.161 76.6881 199.621 78.2618C196.418 80.2467 193.032 81.7937 189.738 83.5987C186.867 85.1716 181.806 88.4822 178.596 88.8003C178.283 88.8315 178.054 89.1106 178.085 89.4242C178.116 89.7374 178.395 89.9664 178.709 89.9352Z" fill="#3D493A" fill-opacity="0.1"/>
<path fill-rule="evenodd" clip-rule="evenodd" d="M162.985 68.8128C164.751 66.7817 166.756 64.9281 168.727 63.1084C171.495 60.5518 173.619 57.4806 176.349 54.8912C179.714 51.7005 183.431 48.9526 186.91 45.8871C187.146 45.6788 187.169 45.3182 186.961 45.082C186.753 44.8458 186.392 44.8231 186.156 45.0309C182.666 48.1058 178.94 50.863 175.565 54.0634C172.838 56.6496 170.717 59.7172 167.953 62.2705C165.952 64.1181 163.917 66.0022 162.124 68.0645C161.918 68.3023 161.943 68.6625 162.181 68.8692C162.418 69.0758 162.779 69.0507 162.985 68.8128Z" fill="#3D493A" fill-opacity="0.1"/>
<path fill-rule="evenodd" clip-rule="evenodd" d="M199.234 80.3416C203.342 82.1977 207.841 84.8196 211.318 87.6914C211.56 87.892 211.92 87.858 212.12 87.6153C212.321 87.3726 212.287 87.0128 212.044 86.8122C208.493 83.8788 203.9 81.1982 199.704 79.302C199.417 79.1723 199.079 79.3003 198.949 79.5872C198.819 79.8741 198.947 80.212 199.234 80.3416Z" fill="#3D493A" fill-opacity="0.1"/>
<path fill-rule="evenodd" clip-rule="evenodd" d="M51.4717 131.958C49.1712 132.191 47.0505 133.182 44.9254 134.158C42.923 135.077 40.9162 135.984 38.7165 136.105C32.9056 136.425 27.5946 133.473 22.2176 131.832C21.9161 131.741 21.5973 131.911 21.5053 132.212C21.4137 132.513 21.5835 132.832 21.8845 132.924C27.3863 134.602 32.8338 137.571 38.7793 137.244C41.1224 137.115 43.2678 136.174 45.401 135.195C47.4115 134.272 49.4106 133.314 51.5868 133.093C51.9 133.061 52.1285 132.781 52.0969 132.468C52.0649 132.155 51.7849 131.926 51.4717 131.958Z" fill="#3D493A" fill-opacity="0.1"/>
<path fill-rule="evenodd" clip-rule="evenodd" d="M3.45304 133.486C3.46034 133.471 3.46924 133.454 3.47775 133.44C3.73989 133.024 4.29014 132.771 4.90032 132.565C6.00522 132.193 7.32649 132.035 8.09307 131.86C10.4556 131.319 12.834 130.598 15.2395 130.29C17.32 130.024 19.5829 129.96 21.6136 129.457C21.9191 129.381 22.1055 129.071 22.0301 128.766C21.9543 128.46 21.6448 128.273 21.3393 128.349C19.3499 128.842 17.1328 128.898 15.0948 129.158C12.6528 129.471 10.2372 130.199 7.8386 130.748C7.04528 130.929 5.67946 131.099 4.53648 131.484C3.64794 131.783 2.89473 132.226 2.51265 132.832C2.29872 133.171 2.26224 133.471 2.3137 133.726C2.38663 134.085 2.66216 134.405 3.13418 134.616C4.25367 135.118 6.76207 135.048 7.15995 135.033C9.81908 134.927 12.3559 134.207 14.9806 133.892C16.9363 133.657 18.9889 133.873 20.8794 133.252C21.1785 133.154 21.3417 132.831 21.2437 132.532C21.1452 132.233 20.8227 132.07 20.5237 132.168C18.7041 132.766 16.7264 132.533 14.8444 132.759C12.2501 133.071 9.74333 133.789 7.11499 133.893C6.8107 133.905 5.12315 133.974 4.01906 133.71C3.89183 133.68 3.77314 133.645 3.6678 133.604C3.59487 133.575 3.50247 133.518 3.45304 133.486Z" fill="#3D493A" fill-opacity="0.1"/>
<path fill-rule="evenodd" clip-rule="evenodd" d="M1.63542 132.234C1.66216 132.168 1.73955 131.986 1.82423 131.87C2.46642 130.991 4.00646 129.968 4.37598 129.803C6.85198 128.694 16.8512 125.809 19.7563 125.809C20.0711 125.809 20.3267 125.553 20.3267 125.238C20.3267 124.924 20.0711 124.668 19.7563 124.668C16.7641 124.668 6.46017 127.62 3.91002 128.761C3.47447 128.956 1.65971 130.161 0.902848 131.198C0.543867 131.69 0.419481 132.176 0.524015 132.552C0.632195 132.944 0.985116 133.34 1.84327 133.482C2.15403 133.533 2.44777 133.322 2.49922 133.012C2.55027 132.701 2.34 132.408 2.02923 132.356C1.89269 132.334 1.78085 132.305 1.69212 132.265C1.67429 132.258 1.65243 132.245 1.63542 132.234Z" fill="#3D493A" fill-opacity="0.1"/>
<path fill-rule="evenodd" clip-rule="evenodd" d="M1.76417 130.533C2.34722 129.318 3.68994 128.323 5.25714 127.494C7.74529 126.177 10.8145 125.309 12.6912 124.844C23.3776 122.196 33.2885 120.719 44.2435 122.892C44.5522 122.953 44.8525 122.752 44.9136 122.443C44.9748 122.134 44.7739 121.834 44.4651 121.773C33.3387 119.566 23.2706 121.047 12.4165 123.737C10.4741 124.219 7.2988 125.122 4.72394 126.485C2.91567 127.442 1.40842 128.637 0.735841 130.039C0.599704 130.323 0.719648 130.664 1.00327 130.8C1.28729 130.936 1.62804 130.816 1.76417 130.533Z" fill="#3D493A" fill-opacity="0.1"/>
<path fill-rule="evenodd" clip-rule="evenodd" d="M3.24944 128.069C4.56462 126.355 6.92434 125.136 8.72533 123.945C16.7485 118.643 25.7607 119.005 35.012 119.616C37.8628 119.804 40.7354 119.428 43.5891 119.428C43.9039 119.428 44.1595 119.172 44.1595 118.858C44.1595 118.543 43.9039 118.287 43.5891 118.287C40.7606 118.287 37.913 118.665 35.0869 118.478C25.5841 117.85 16.3381 117.547 8.0965 122.994C6.19706 124.249 3.73199 125.566 2.34428 127.374C2.15264 127.624 2.20005 127.982 2.44963 128.174C2.69962 128.366 3.05779 128.318 3.24944 128.069Z" fill="#3D493A" fill-opacity="0.1"/>
<path fill-rule="evenodd" clip-rule="evenodd" d="M179.483 49.907C179.954 49.612 180.794 48.666 181.77 47.4116C183.906 44.6661 186.809 40.4102 188.055 39.0379C191.553 35.1843 195.832 32.3072 200.258 29.6744C207.274 25.5007 216.319 24.6807 224.052 22.6629C236.987 19.2883 250.076 16.8321 263.094 13.7958C266.785 12.9344 270.365 12.0304 273.831 10.5268C280.13 7.79478 285.865 3.71632 292.605 2.0458C292.91 1.97004 293.097 1.66049 293.022 1.35499C292.946 1.04949 292.636 0.863114 292.331 0.938881C285.529 2.62439 279.734 6.7235 273.378 9.48028C269.974 10.9563 266.459 11.8392 262.834 12.6848C249.807 15.7236 236.708 18.1821 223.764 21.5592C215.932 23.6025 206.781 24.4671 199.675 28.6939C195.151 31.3846 190.785 34.3331 187.21 38.2709C185.954 39.655 183.023 43.9429 180.87 46.711C180.008 47.8192 179.293 48.6797 178.877 48.9403C178.61 49.1072 178.529 49.4597 178.696 49.7263C178.863 49.9933 179.216 50.0739 179.483 49.907Z" fill="#3D493A" fill-opacity="0.1"/>
<path fill-rule="evenodd" clip-rule="evenodd" d="M301.48 37.6272C303.196 33.851 304.042 30.3122 304.289 26.1536C304.537 21.9746 303.525 15.1734 301.107 9.62504C299.461 5.84966 297.156 2.66137 294.195 1.19384C293.913 1.05405 293.57 1.16953 293.43 1.45153C293.291 1.73353 293.406 2.0759 293.688 2.21568C296.437 3.57867 298.533 6.57532 300.061 10.0809C302.403 15.4538 303.39 22.0387 303.151 26.0863C302.912 30.0983 302.097 33.5123 300.441 37.1552C300.311 37.4416 300.438 37.7804 300.724 37.9104C301.011 38.0409 301.35 37.9136 301.48 37.6272Z" fill="#3D493A" fill-opacity="0.1"/>
<path fill-rule="evenodd" clip-rule="evenodd" d="M207.691 99.2537C209.362 91.3374 214.047 86.1829 219.968 82.2503C225.986 78.2533 233.273 75.5098 240.036 72.4622C245.835 69.8488 251.681 66.9664 257.262 63.9232C260.497 62.1591 267.5 56.9538 270.979 56.0916C275.398 54.9965 279.357 52.0877 283.422 49.9383C290.416 46.2403 303.511 39.4667 308.954 34.0706C309.178 33.849 309.179 33.4876 308.958 33.2639C308.736 33.0407 308.375 33.039 308.151 33.2607C302.769 38.5968 289.805 45.2732 282.889 48.9298C278.905 51.0367 275.036 53.911 270.705 54.9843C267.162 55.8623 260.01 61.1255 256.716 62.9216C251.16 65.9515 245.34 68.8205 239.567 71.4225C232.748 74.4953 225.405 77.2699 219.337 81.2997C213.172 85.3944 208.314 90.7763 206.575 99.0179C206.51 99.3262 206.707 99.6289 207.015 99.6937C207.323 99.7589 207.626 99.5616 207.691 99.2537Z" fill="#3D493A" fill-opacity="0.1"/>
<path fill-rule="evenodd" clip-rule="evenodd" d="M206.782 100.599C206.751 101.607 206.294 102.471 206.03 103.385C205.642 104.731 206.032 107.138 206.838 109.687C208.017 113.412 210.045 117.447 211.436 118.826C215.862 123.215 224.004 125.467 233.135 126.498C246.644 128.023 262.318 126.924 270.997 126.494C277.8 126.156 284.406 124.333 291.235 124.333C291.55 124.333 291.806 124.077 291.806 123.762C291.806 123.447 291.55 123.192 291.235 123.192C284.387 123.192 277.763 125.016 270.941 125.355C262.304 125.782 246.706 126.882 233.263 125.364C224.427 124.367 216.522 122.263 212.239 118.016C210.922 116.711 209.042 112.87 207.926 109.343C207.202 107.057 206.778 104.908 207.127 103.701C207.415 102.697 207.887 101.742 207.922 100.634C207.932 100.319 207.684 100.056 207.37 100.046C207.055 100.036 206.791 100.284 206.782 100.599Z" fill="#3D493A" fill-opacity="0.1"/>
<path fill-rule="evenodd" clip-rule="evenodd" d="M227.658 107.035C230.276 105.336 233.348 104.706 236.264 103.7C250.776 98.6962 267.13 97.7655 282.284 100.417C287.165 101.271 295.383 102.75 302.803 103.192C307.826 103.492 312.487 103.307 315.546 102.17C315.841 102.06 315.992 101.732 315.882 101.437C315.772 101.142 315.444 100.991 315.149 101.101C312.202 102.196 307.709 102.342 302.87 102.053C295.497 101.613 287.331 100.142 282.481 99.2934C267.14 96.6092 250.583 97.556 235.892 102.622C232.888 103.658 229.734 104.328 227.037 106.078C226.773 106.249 226.698 106.602 226.869 106.866C227.041 107.131 227.394 107.206 227.658 107.035Z" fill="#3D493A" fill-opacity="0.1"/>
<path fill-rule="evenodd" clip-rule="evenodd" d="M293.523 124.046C305.52 123.225 317.428 121.309 329.406 120.567C339.762 119.925 350.288 120.059 360.668 120.059C363.264 120.059 371.393 120.588 376.629 119.347C378.048 119.01 379.262 118.541 380.127 117.915C380.767 117.451 381.226 116.898 381.468 116.257C381.794 115.395 381.649 114.556 381.121 113.754C380.665 113.061 379.903 112.389 378.927 111.761C374.689 109.035 366.288 107.037 364.012 106.473C357.389 104.831 350.873 102.652 344.609 99.892C342.24 98.8486 340.153 97.4245 337.999 96.1705C335.764 94.8695 333.46 93.7496 330.734 93.3638C327.038 92.8404 323.74 95.4711 321.191 97.7097C320.239 98.5456 319.396 99.3158 318.677 99.7963C318.302 100.047 317.983 100.225 317.699 100.225C317.384 100.225 317.128 100.481 317.128 100.795C317.128 101.11 317.384 101.366 317.699 101.366C318.158 101.366 318.705 101.15 319.311 100.744C320.063 100.242 320.948 99.441 321.943 98.5666C323.132 97.5229 324.486 96.3706 325.977 95.5429C327.394 94.7556 328.935 94.2609 330.574 94.4931C333.146 94.8573 335.316 95.9282 337.425 97.1562C339.615 98.4313 341.741 99.8749 344.148 100.936C350.474 103.722 357.052 105.923 363.738 107.58C365.96 108.131 374.172 110.059 378.31 112.721C379.13 113.248 379.785 113.798 380.168 114.381C380.479 114.854 380.594 115.345 380.402 115.853C380.187 116.42 379.711 116.868 379.071 117.242C378.346 117.666 377.417 117.988 376.366 118.237C371.217 119.458 363.221 118.918 360.668 118.918C350.265 118.918 339.715 118.785 329.336 119.428C317.355 120.17 305.445 122.086 293.445 122.908C293.131 122.93 292.894 123.202 292.915 123.516C292.937 123.83 293.209 124.068 293.523 124.046Z" fill="#3D493A" fill-opacity="0.1"/>
<path fill-rule="evenodd" clip-rule="evenodd" d="M289.7 101.016C293.755 99.7909 297.543 97.9449 301.645 96.7639C314.277 93.1283 335.955 88.3708 345.957 79.8711C351.263 75.3623 359.13 65.5305 361.616 58.9594C363.508 53.9551 364.078 45.9016 363.007 38.7531C362.286 33.943 360.817 29.5456 358.546 26.7313C358.349 26.4866 357.989 26.4481 357.744 26.6458C357.499 26.8436 357.461 27.2029 357.659 27.4477C359.824 30.1311 361.191 34.336 361.878 38.9221C362.919 45.8675 362.388 53.6938 360.549 58.5559C358.118 64.9835 350.408 74.5913 345.218 79.002C335.317 87.4162 313.835 92.0687 301.33 95.6679C297.222 96.8502 293.429 98.6973 289.37 99.9238C289.069 100.015 288.898 100.333 288.989 100.635C289.08 100.936 289.399 101.107 289.7 101.016Z" fill="#3D493A" fill-opacity="0.1"/>
<path fill-rule="evenodd" clip-rule="evenodd" d="M299.213 5.50887C308.179 6.83783 320.955 8.40787 332.365 11.6209C339.905 13.7436 346.848 16.5789 351.664 20.5577C353.4 21.992 354.557 23.902 356.154 25.4858C356.378 25.7074 356.739 25.7058 356.961 25.4826C357.183 25.2589 357.181 24.8975 356.958 24.6759C355.336 23.0678 354.153 21.1347 352.39 19.6781C347.468 15.6114 340.381 12.6925 332.674 10.5229C321.215 7.29608 308.384 5.7151 299.381 4.38088C299.069 4.33469 298.779 4.54983 298.733 4.86141C298.687 5.17258 298.902 5.46309 299.213 5.50887Z" fill="#3D493A" fill-opacity="0.1"/>
<path fill-rule="evenodd" clip-rule="evenodd" d="M292.257 122.417C292.817 121.695 293.153 120.214 293.283 118.39C293.564 114.434 293.002 108.799 292.733 106.662C292.674 106.196 292.454 105.657 292.173 105.104C291.815 104.398 291.354 103.662 291.146 103.043C291.046 102.745 290.722 102.584 290.424 102.684C290.125 102.785 289.965 103.109 290.065 103.407C290.253 103.966 290.624 104.619 290.969 105.263C291.262 105.811 291.544 106.348 291.601 106.805C291.865 108.901 292.421 114.429 292.145 118.309C292.036 119.845 291.827 121.11 291.355 121.718C291.162 121.967 291.208 122.325 291.456 122.518C291.705 122.712 292.063 122.666 292.257 122.417Z" fill="#3D493A" fill-opacity="0.1"/>
<path fill-rule="evenodd" clip-rule="evenodd" d="M153.128 114.053C153.288 114.908 153.798 115.912 154.491 116.59C154.642 116.737 154.8 116.869 154.966 116.982C155.125 117.136 155.304 117.26 155.509 117.341C155.959 117.519 156.254 117.536 156.415 117.505C156.637 117.461 156.776 117.347 156.867 117.209C156.874 117.199 156.881 117.188 156.888 117.177C157.087 117.23 157.309 117.173 157.458 117.011C157.67 116.778 157.654 116.417 157.421 116.205C156.542 115.402 156.136 114.372 155.951 113.274C155.752 112.09 155.806 110.826 155.855 109.645C155.873 109.229 156.05 108.503 156.132 107.854C156.203 107.295 156.193 106.781 156.063 106.459C156.033 106.385 155.845 106.096 155.655 106.011C155.431 105.912 155.186 105.906 154.946 106.144C154.67 106.418 154.473 106.773 154.32 107.16C154.141 107.616 154.027 108.121 153.84 108.519C153.003 110.296 152.587 111.563 152.789 112.879C152.847 113.26 152.958 113.647 153.128 114.053Z" fill="#3D493A" fill-opacity="0.1"/>
<path fill-rule="evenodd" clip-rule="evenodd" d="M156.627 116.319C156.259 116.584 155.96 116.318 155.704 116.007C155.285 115.499 154.982 114.781 154.822 114.386C154.704 114.093 154.372 113.952 154.08 114.07C153.788 114.188 153.647 114.52 153.764 114.812C153.996 115.387 154.505 116.513 155.177 117.101C155.536 117.416 155.942 117.593 156.372 117.579C156.664 117.57 156.975 117.474 157.293 117.244C157.549 117.06 157.607 116.704 157.423 116.448C157.239 116.193 156.882 116.135 156.627 116.319Z" fill="#3D493A" fill-opacity="0.1"/>
<path fill-rule="evenodd" clip-rule="evenodd" d="M167.848 112.598C169.123 109.675 167.702 106.925 165.447 105.009C165.207 104.805 164.847 104.834 164.643 105.074C164.44 105.314 164.469 105.674 164.709 105.878C166.58 107.468 167.86 109.717 166.802 112.143C166.676 112.431 166.808 112.767 167.097 112.893C167.386 113.019 167.722 112.887 167.848 112.598Z" fill="#3D493A" fill-opacity="0.1"/>
<path fill-rule="evenodd" clip-rule="evenodd" d="M189.01 103.237C189.432 101.955 189.436 100.893 189.109 99.9536C188.786 99.029 188.134 98.2146 187.183 97.429C186.941 97.2284 186.581 97.2629 186.381 97.5056C186.18 97.7479 186.214 98.1077 186.457 98.3082C187.224 98.9423 187.772 99.5829 188.031 100.329C188.286 101.06 188.255 101.884 187.927 102.881C187.828 103.18 187.991 103.502 188.29 103.601C188.589 103.699 188.912 103.536 189.01 103.237Z" fill="#3D493A" fill-opacity="0.1"/>
</svg>
