<svg width="481" height="235" viewBox="0 0 481 235" fill="none" xmlns="http://www.w3.org/2000/svg">
<path d="M5.35221 185.702L0.480469 180.83L5.3522 175.958L10.2239 180.83L5.35221 185.702Z" fill="#3D493A"/>
<path d="M5.389 185.649L0.559257 190.479L5.389 195.309L10.2188 190.479L5.389 185.649ZM0.919269 190.479L5.389 186.009L9.85874 190.479L5.389 194.949L0.919269 190.479Z" fill="#3D493A"/>
<path d="M5.389 166.691L0.559257 171.521L5.389 176.351L10.2188 171.521L5.389 166.691ZM0.919269 171.52L5.389 167.051L9.85874 171.52L5.389 175.99L0.919269 171.52Z" fill="#3D493A"/>
<path d="M5.35611 205.097L0.484375 200.226L5.3561 195.354L10.2278 200.226L5.35611 205.097Z" fill="#3D493A"/>
<path d="M5.389 205.046L0.559257 209.875L5.389 214.705L10.2188 209.875L5.389 205.046ZM0.919269 209.875L5.389 205.406L9.85874 209.875L5.389 214.345L0.919269 209.875Z" fill="#3D493A"/>
<path d="M19.0944 205.052L14.2227 200.181L19.0944 195.309L23.9661 200.181L19.0944 205.052Z" fill="#1E1E1E"/>
<path d="M19.1312 205L14.3014 209.829L19.1312 214.659L23.9609 209.829L19.1312 205ZM14.6615 209.829L19.1312 205.36L23.6009 209.829L19.1312 214.299L14.6615 209.829Z" fill="#1E1E1E"/>
<path d="M19.1312 186.042L14.3014 190.871L19.1312 195.701L23.9609 190.871L19.1312 186.042ZM14.6615 190.871L19.1312 186.401L23.6009 190.871L19.1312 195.341L14.6615 190.871Z" fill="#1E1E1E"/>
<path d="M19.0983 224.448L14.2266 219.576L19.0983 214.704L23.97 219.576L19.0983 224.448Z" fill="#1E1E1E"/>
<path d="M19.1312 224.396L14.3014 229.226L19.1312 234.056L23.9609 229.226L19.1312 224.396ZM14.6615 229.226L19.1312 224.756L23.6009 229.226L19.1312 233.696L14.6615 229.226Z" fill="#1E1E1E"/>
<path d="M462.352 19.7018L457.48 14.8301L462.352 9.95835L467.224 14.8301L462.352 19.7018Z" fill="#3D493A"/>
<path d="M462.389 19.6491L457.559 24.4789L462.389 29.3086L467.219 24.4789L462.389 19.6491ZM457.919 24.4789L462.389 20.0091L466.859 24.4789L462.389 28.9486L457.919 24.4789Z" fill="#3D493A"/>
<path d="M462.389 0.69108L457.559 5.52083L462.389 10.3506L467.219 5.52083L462.389 0.69108ZM457.919 5.52039L462.389 1.05066L466.859 5.52039L462.389 9.99014L457.919 5.52039Z" fill="#3D493A"/>
<path d="M462.356 39.0973L457.484 34.2256L462.356 29.3539L467.228 34.2256L462.356 39.0973Z" fill="#3D493A"/>
<path d="M462.389 39.0456L457.559 43.8753L462.389 48.7051L467.219 43.8753L462.389 39.0456ZM457.919 43.8753L462.389 39.4056L466.859 43.8753L462.389 48.3451L457.919 43.8753Z" fill="#3D493A"/>
<path d="M476.094 39.0524L471.223 34.1807L476.094 29.3089L480.966 34.1807L476.094 39.0524Z" fill="#1E1E1E"/>
<path d="M476.131 38.9997L471.301 43.8295L476.131 48.6592L480.961 43.8295L476.131 38.9997ZM471.661 43.8295L476.131 39.3597L480.601 43.8295L476.131 48.2992L471.661 43.8295Z" fill="#1E1E1E"/>
<path d="M476.131 20.0417L471.301 24.8714L476.131 29.7012L480.961 24.8714L476.131 20.0417ZM471.661 24.871L476.131 20.4012L480.601 24.871L476.131 29.3407L471.661 24.871Z" fill="#1E1E1E"/>
<path d="M476.098 58.4479L471.227 53.5762L476.098 48.7044L480.97 53.5762L476.098 58.4479Z" fill="#1E1E1E"/>
<path d="M476.131 58.3962L471.301 63.2259L476.131 68.0557L480.961 63.2259L476.131 58.3962ZM471.661 63.2259L476.131 58.7562L480.601 63.2259L476.131 67.6957L471.661 63.2259Z" fill="#1E1E1E"/>
</svg>
