<?xml version="1.0" encoding="UTF-8"?>
<!DOCTYPE svg PUBLIC "-//W3C//DTD SVG 1.1//EN" "http://www.w3.org/Graphics/SVG/1.1/DTD/svg11.dtd">
<!-- Creator: CorelDRAW 2021 (64-Bit) -->
<svg xmlns="http://www.w3.org/2000/svg" xml:space="preserve" width="0.999992in" height="0.499992in" version="1.1" style="shape-rendering:geometricPrecision; text-rendering:geometricPrecision; image-rendering:optimizeQuality; fill-rule:evenodd; clip-rule:evenodd"
viewBox="0 0 999.99 499.99"
 xmlns:xlink="http://www.w3.org/1999/xlink"
 xmlns:xodm="http://www.corel.com/coreldraw/odm/2003">
 <defs>
  <style type="text/css">
   <![CDATA[
    .fil0 {fill:#201E1E;fill-rule:nonzero}
   ]]>
  </style>
 </defs>
 <g id="Layer_x0020_1">
  <metadata id="CorelCorpID_0Corel-Layer"/>
  <path class="fil0" d="M136.93 223.45l-11.13 35.93 21.89 0 -10.77 -35.93zm-13.35 -21.39l27.63 0 32.52 95.87 -24.5 0 -6.11 -20.31 -33.05 0 -6.42 20.31 -22.65 0 32.58 -95.87zm148.22 16.85l0 24.59 8.04 0c4.96,0 8.67,-1.02 11.15,-3.02 2.48,-2 3.72,-5 3.72,-9 0,-4.33 -1.38,-7.51 -4.15,-9.53 -2.75,-2.03 -7.12,-3.04 -13.09,-3.04l-5.67 0zm-22.41 -16.85l34.13 0c11.39,0 19.83,2.06 25.34,6.17 5.52,4.13 8.26,10.39 8.26,18.79 0,6.21 -1.44,11.33 -4.35,15.33 -2.91,4 -7.12,6.67 -12.61,8.03 4.52,1.84 8.16,7.07 10.9,15.7l0 0.07 10.28 31.77 -23.89 0 -7.56 -26.25c-1.21,-4.21 -2.87,-7.14 -4.95,-8.77 -2.1,-1.61 -5.37,-2.42 -9.8,-2.42l-3.32 0 0 37.43 -22.41 0 0 -95.87zm130.32 0l25.98 0 17.15 40.48 17.13 -40.48 24.66 0 -31.2 59.98 0 35.89 -22.91 0 0 -35.61 -30.81 -60.25zm178.7 21.39l-11.13 35.93 21.9 0 -10.77 -35.93zm-13.35 -21.39l27.63 0 32.52 95.87 -24.5 0 -6.11 -20.31 -33.06 0 -6.42 20.31 -22.66 0 32.58 -95.87zm125.81 0l28.59 0 24.9 57.49c0.85,1.93 1.82,4.6 2.95,8.06 1.13,3.43 2.37,7.64 3.76,12.64 -0.74,-4.72 -1.28,-9.05 -1.61,-13.01 -0.35,-3.96 -0.52,-7.57 -0.52,-10.87l0 -54.31 20.67 0 0 95.87 -28.48 0 -25.84 -59.58c-1.21,-2.74 -2.33,-5.71 -3.34,-8.93 -0.99,-3.2 -1.92,-6.7 -2.77,-10.48 0.81,5.71 1.4,10.96 1.78,15.74 0.39,4.79 0.57,9 0.57,12.64l0 50.6 -20.68 0 0 -95.87zm191.33 21.39l-11.13 35.93 21.9 0 -10.78 -35.93zm-13.35 -21.39l27.63 0 32.52 95.87 -24.5 0 -6.11 -20.31 -33.06 0 -6.42 20.31 -22.66 0 32.58 -95.87z"/>
 </g>
</svg>
