<?xml version="1.0" encoding="UTF-8"?>
<!DOCTYPE svg PUBLIC "-//W3C//DTD SVG 1.1//EN" "http://www.w3.org/Graphics/SVG/1.1/DTD/svg11.dtd">
<!-- Creator: CorelDRAW 2021 (64-Bit) -->
<svg xmlns="http://www.w3.org/2000/svg" xml:space="preserve" width="0.999992in" height="0.499992in" version="1.1" style="shape-rendering:geometricPrecision; text-rendering:geometricPrecision; image-rendering:optimizeQuality; fill-rule:evenodd; clip-rule:evenodd"
viewBox="0 0 999.99 499.99"
 xmlns:xlink="http://www.w3.org/1999/xlink"
 xmlns:xodm="http://www.corel.com/coreldraw/odm/2003">
 <defs>
  <style type="text/css">
   <![CDATA[
    .fil0 {fill:#00A859}
    .fil1 {fill:#201E1E}
    .fil2 {fill:#201E1E;fill-rule:nonzero}
   ]]>
  </style>
 </defs>
 <g id="Layer_x0020_1">
  <metadata id="CorelCorpID_0Corel-Layer"/>
  <g id="_2638150453312">
   <path class="fil0" d="M260.16 278.72c-8.17,13.73 0.33,4.57 -15.37,26.15 4.25,-9.81 15.37,-47.08 8.17,-58.2 -6.21,10.46 -6.54,28.77 -17.98,37.93 -5.23,4.25 -4.91,5.89 -8.83,10.14 -65.72,73.24 -172.96,-6.21 -118.69,-95.8 30.73,-50.68 124.89,-32.04 134.7,32.7 0.65,-20.27 -18.96,-45.12 -40.54,-56.56 -32.04,-16.67 -43.48,-15.04 -77.81,-3.93 14.71,-14.06 57.22,-17 77.16,-8.17 17.33,7.52 32.04,18.31 42.18,34.33 2.94,4.58 6.21,11.77 9.48,16.02 -7.85,-45.12 -68.33,-77.49 -116.39,-63.43 -42.5,12.75 -79.78,52.64 -73.89,109.86 7.52,73.89 93.51,125.55 164.79,76.18 6.87,-4.91 18.96,-16.68 23.21,-22.89 2.94,-4.57 5.56,-9.15 7.52,-15.37l2.29 -18.96z"/>
   <path class="fil1" d="M335.14 297.05c23.2,0 42.01,18.64 42.01,41.63 0,22.99 -18.81,41.63 -42.01,41.63 -23.2,0 -42.01,-18.64 -42.01,-41.63 0,-22.99 18.81,-41.63 42.01,-41.63zm0 13.78c15.52,0 28.1,12.47 28.1,27.85 0,15.38 -12.58,27.85 -28.1,27.85 -15.52,0 -28.1,-12.47 -28.1,-27.85 0,-15.38 12.58,-27.85 28.1,-27.85z"/>
   <path class="fil1" d="M437.97 208.48c23.2,0 42.01,18.64 42.01,41.63 0,22.99 -18.81,41.63 -42.01,41.63 -23.2,0 -42.01,-18.64 -42.01,-41.63 0,-22.99 18.81,-41.63 42.01,-41.63zm0 13.78c15.52,0 28.1,12.46 28.1,27.85 0,15.38 -12.58,27.85 -28.1,27.85 -15.52,0 -28.1,-12.47 -28.1,-27.85 0,-15.38 12.58,-27.85 28.1,-27.85z"/>
   <path class="fil1" d="M443.78 202.46l13.97 0 0 -17.14 -0.02 0 0 -1.5 38.09 0 0 1.5 -0.02 0 0 17.14 13.97 0 0 -49.24c0,-17.51 -14.33,-31.84 -31.84,-31.84l-0.47 0 -1.39 0 -0.47 0c-17.51,0 -31.84,14.33 -31.84,31.84l0 49.24zm13.96 -30.08l0 -17.75c0,-10.91 8.27,-19.84 18.37,-19.84l0.27 0 0.8 0 0.28 0c10.11,0 18.37,8.93 18.37,19.84l0 17.75 -38.09 0z"/>
   <polygon class="fil1" points="421.4,123.33 370.06,123.33 369.74,202.13 421.4,202.46 421.4,189.7 384.12,189.7 384.12,171.07 417.8,171.07 417.8,158.32 384.78,158.32 383.8,136.41 421.4,136.08 "/>
   <path class="fil1" d="M400.04 300.95l29.43 0c28.15,0 37.78,35.53 14.15,53.39 8.51,16.13 18.54,13.8 18.54,13.8l0 11.93c-25.17,2.08 -23.5,-10.53 -30.59,-18.46 -7.08,-7.93 -17.48,-3.44 -17.48,-3.44l0 21.91 -14.06 0 0 -25.5 0 -5.18 0 -48.44zm13.91 13.06l13.52 0c7.94,0 14.43,6.49 14.43,14.43l0 2.8c0,7.14 -5.84,12.98 -12.98,12.98l-14.96 0 0 -30.21z"/>
   <path class="fil1" d="M343.48 125.71c-33.43,-21.8 -69.56,21.43 -35.48,36.25 11.58,5.04 27.25,9.41 24.5,20.49 -3.14,12.65 -27.12,4.16 -34.6,1.13l-4.78 11.78c0,0 20.08,9.7 34.16,6.43 14.08,-3.27 19.2,-14.28 19.78,-16.92 6.33,-28.94 -40.59,-28.76 -37.52,-43.17 1.42,-6.66 7.2,-13.35 30.34,-3.88l3.59 -12.1z"/>
   <path class="fil1" d="M547.76 215c-33.43,-21.8 -69.56,21.43 -35.48,36.25 11.58,5.04 27.25,9.41 24.5,20.49 -3.13,12.65 -27.12,4.16 -34.6,1.13l-4.77 11.77c0,0 20.08,9.7 34.16,6.43 14.08,-3.27 19.2,-14.28 19.78,-16.92 6.33,-28.94 -40.59,-28.76 -37.52,-43.17 1.42,-6.66 7.2,-13.35 30.34,-3.89l3.6 -12.09z"/>
   <g>
    <path class="fil1" d="M376.78 291.18l-2.61 -79.12 -8.75 0.05 -30.61 56.71 0.15 22.93 0 0 27.76 -43.39 0.33 43.16 13.73 -0.33zm-41.97 -22.36l0.15 22.92 -27.77 -43.39 -0.33 43.16 -13.73 -0.33 2.62 -79.12 8.74 0.05 30.31 56.71zm0.15 22.92l0 0 0 -0z"/>
   </g>
   <path class="fil1" d="M617.01 215c-33.43,-21.8 -69.56,21.43 -35.48,36.25 11.58,5.04 27.25,9.41 24.5,20.49 -3.14,12.65 -27.12,4.16 -34.6,1.13l-4.78 11.77c0,0 20.08,9.7 34.16,6.43 14.08,-3.27 19.2,-14.28 19.78,-16.92 6.33,-28.94 -40.59,-28.76 -37.52,-43.17 1.42,-6.66 7.2,-13.35 30.34,-3.89l3.59 -12.09z"/>
   <path class="fil1" d="M555.32 306.24c-19.39,-14.41 -48.27,-12.11 -63.82,6.81 -14.96,18.2 -11,44.39 8.85,58.5 17.61,12.53 41.81,11.32 57.5,-1.84l0 -4.3 0.02 0 0 -29.09 -0.02 0 -6.77 0 -4.89 0 -2.11 0 -21.81 0 0 12.17 21.81 0 0 14.63c-10.62,4.63 -23.88,3.86 -34.06,-2.93 -14.17,-9.46 -17,-27 -6.31,-39.2 10.45,-11.93 29.96,-14.31 44.06,-5.56l7.56 -9.21z"/>
   <path class="fil1" d="M585.58 380.3l13.97 0 0 -17.14 -0.02 0 0 -1.5 38.1 0 0 1.5 -0.02 0 0 17.14 13.97 0 0 -49.24c0,-17.51 -14.33,-31.84 -31.83,-31.84l-0.48 0 -1.38 0 -0.48 0c-17.51,0 -31.83,14.33 -31.83,31.84l0 49.24zm13.95 -30.08l0 -17.75c0,-10.91 8.27,-19.84 18.38,-19.84l0.27 0 0.8 0 0.27 0c10.11,0 18.38,8.93 18.38,19.84l0 17.75 -38.1 0z"/>
   <polygon class="fil1" points="678.5,380.3 680.46,300.53 731.8,350.22 731.8,300.85 744.88,301.18 746.19,380.3 692.56,332.57 692.56,380.3 "/>
   <polygon class="fil1" points="771.61,301.18 784.36,301.18 784.36,380.3 771.61,380.3 "/>
   <path class="fil2" d="M868.21 359.6l0 16.42c-3.81,1.46 -7.48,2.53 -11.07,3.24 -3.58,0.68 -7.15,1.04 -10.67,1.04 -12.26,0 -22.33,-3.93 -30.2,-11.81 -7.87,-7.89 -11.79,-17.94 -11.79,-30.14 0,-11.93 3.95,-21.9 11.82,-29.9 7.87,-8.03 17.74,-12.05 29.56,-12.05 3.65,0 7.23,0.42 10.76,1.22 3.53,0.8 7,2.06 10.43,3.75l0 17.17c-3.47,-2.26 -6.93,-3.93 -10.31,-5 -3.39,-1.07 -6.87,-1.61 -10.4,-1.61 -7.7,0 -14.01,2.47 -18.88,7.41 -4.86,4.94 -7.28,11.28 -7.28,19.01 0,7.92 2.48,14.34 7.42,19.31 4.93,4.97 11.43,7.47 19.44,7.47 3.7,0 7.31,-0.45 10.81,-1.37 3.51,-0.89 6.96,-2.29 10.37,-4.17z"/>
   <path class="fil1" d="M934.08 303.56c-33.43,-21.8 -69.56,21.44 -35.48,36.25 11.58,5.03 27.25,9.41 24.5,20.48 -3.13,12.65 -27.12,4.17 -34.6,1.13l-4.77 11.78c0,0 20.08,9.7 34.16,6.43 14.08,-3.27 19.2,-14.28 19.78,-16.92 6.33,-28.94 -40.59,-28.76 -37.52,-43.17 1.42,-6.65 7.2,-13.35 30.34,-3.88l3.6 -12.1z"/>
  </g>
 </g>
</svg>
