<?xml version="1.0" encoding="UTF-8"?>
<!DOCTYPE svg PUBLIC "-//W3C//DTD SVG 1.1//EN" "http://www.w3.org/Graphics/SVG/1.1/DTD/svg11.dtd">
<!-- Creator: CorelDRAW 2021 (64-Bit) -->
<svg xmlns="http://www.w3.org/2000/svg" xml:space="preserve" width="0.999992in" height="0.499992in" version="1.1" style="shape-rendering:geometricPrecision; text-rendering:geometricPrecision; image-rendering:optimizeQuality; fill-rule:evenodd; clip-rule:evenodd"
viewBox="0 0 999.99 499.99"
 xmlns:xlink="http://www.w3.org/1999/xlink"
 xmlns:xodm="http://www.corel.com/coreldraw/odm/2003">
 <defs>
  <style type="text/css">
   <![CDATA[
    .fil0 {fill:#9F7055;fill-rule:nonzero}
   ]]>
  </style>
 </defs>
 <g id="Layer_x0020_1">
  <metadata id="CorelCorpID_0Corel-Layer"/>
  <g id="_2638160747088">
   <path class="fil0" d="M81.31 166.8c-6.97,0 -13.31,1.11 -18.83,3.29 -5.6,2.21 -10,5.11 -13.1,8.64 -3.06,3.46 -5.39,7.07 -6.94,10.71 -1.6,3.7 -2.39,7.38 -2.39,10.94 0,2.82 0.42,5.56 1.26,8.11 0.82,2.52 1.86,4.76 3.13,6.65 1.25,1.92 3.04,3.85 5.33,5.72 2.2,1.83 4.2,3.33 5.92,4.44 1.78,1.17 4.22,2.47 7.28,3.89 3.03,1.41 5.4,2.47 7.11,3.2 1.71,0.74 4.22,1.72 7.5,2.94 10.43,4.06 17.92,7.74 22.28,10.9 4.1,2.98 6.09,6.85 6.09,11.78 0,3.87 -1.15,7.11 -3.53,9.89 -2.41,2.81 -5.43,4.88 -8.99,6.1 -6.92,2.4 -15.72,2.42 -22.18,0.71 -3.03,-0.78 -5.58,-1.81 -7.58,-3.06 -2.04,-1.25 -3.87,-2.76 -5.44,-4.47 -1.6,-1.72 -2.83,-3.39 -3.69,-4.94 -0.86,-1.57 -1.61,-3.29 -2.26,-5.15 -0.41,-1.03 -1.17,-1.87 -2.29,-2.5 -1.15,-0.65 -2.47,-0.83 -3.64,-0.53l-6.97 1.18c-1.32,0.33 -2.36,1.01 -3.11,2.07 -0.85,1.17 -1.06,2.47 -0.64,3.72 4.07,12.93 12.65,21.94 25.51,26.79l4.04 1.21c5.1,1.49 10.6,2.24 16.35,2.24 7.08,0 13.79,-1.18 19.92,-3.54 6.19,-2.36 11.43,-6.15 15.6,-11.28 4.21,-5.18 6.35,-11.37 6.35,-18.43 0,-2.96 -0.47,-5.82 -1.36,-8.53 -0.89,-2.68 -2,-5.06 -3.32,-7.08 -1.35,-2.03 -3.24,-4.07 -5.63,-6.04 -2.29,-1.91 -4.35,-3.49 -6.09,-4.7 -1.78,-1.22 -4.24,-2.54 -7.5,-4.06 -3.15,-1.46 -5.6,-2.56 -7.31,-3.28 -1.72,-0.74 -4.22,-1.72 -7.5,-2.94 -10.15,-3.94 -17.37,-7.42 -21.5,-10.35 -3.83,-2.71 -5.68,-6.18 -5.68,-10.67 0,-0.51 0.06,-1.22 0.18,-2.14 0.07,-0.56 0.39,-1.76 1.53,-4.39 0.93,-2.06 2.13,-3.89 3.61,-5.46 1.49,-1.56 3.86,-3.03 7.08,-4.37 3.27,-1.36 7.11,-2.06 11.43,-2.06 13.21,0 22.29,4.71 27.76,14.36 1.29,2.36 3.65,3.17 6.53,2.26l6.48 -2.35c1.31,-0.47 2.29,-1.33 2.86,-2.47 0.64,-1.26 0.64,-2.58 -0.03,-3.89 -8.51,-15.32 -23.18,-23.08 -43.61,-23.08z"/>
   <path class="fil0" d="M311.73 167.98l-7.06 0c-0.92,0 -1.78,0.21 -2.56,0.61 -0.74,0.41 -1.35,0.92 -1.82,1.57 -0.54,0.75 -0.81,1.58 -0.81,2.47l0 110.64c0,1.39 0.54,2.57 1.56,3.43 0.94,0.82 2.18,1.24 3.63,1.24l7.06 0c1.28,0 2.44,-0.39 3.49,-1.18 1.11,-0.89 1.7,-2.08 1.7,-3.49l0 -110.64c0,-0.87 -0.29,-2.17 -1.65,-3.35 -1.04,-0.86 -2.22,-1.31 -3.54,-1.31z"/>
   <path class="fil0" d="M436.9 272.59l-59.41 0c-0.53,0 -0.93,-0.14 -1.28,-0.44 -0.35,-0.31 -0.4,-0.53 -0.4,-0.75l0 -98.76c0,-0.89 -0.29,-2.18 -1.67,-3.35 -1.01,-0.87 -2.19,-1.3 -3.51,-1.3l-7.07 0c-0.92,0 -1.78,0.19 -2.54,0.59 -0.75,0.39 -1.38,0.93 -1.83,1.58 -0.54,0.74 -0.81,1.57 -0.81,2.47l0 110.63c0,1.39 0.54,2.57 1.56,3.44 0.96,0.82 2.18,1.24 3.63,1.24l73.35 0c1.44,0 2.67,-0.42 3.63,-1.24 1.03,-0.86 1.56,-2.06 1.56,-3.44l0 -6.01c0,-1.36 -0.53,-2.56 -1.56,-3.43 -0.96,-0.8 -2.18,-1.22 -3.63,-1.22z"/>
   <path class="fil0" d="M535.62 172.15l-0.01 -0.04c-0.83,-1.82 -2.68,-3.97 -6.81,-3.97l-6.47 0c-3.96,0 -5.76,2.15 -6.61,4.02l-47.1 109.5c-0.59,1.56 -0.37,3.11 0.64,4.39 0.65,0.86 1.94,1.89 4.23,1.89l7.46 0c2.37,0 4.11,-1.08 4.86,-3l8.76 -20.18c3.8,-9.01 4.97,-11.78 5.33,-12.75l0.02 0 25.74 -59.71 25.72 59.63c0.02,0.04 0.06,0.15 6.29,15.22 0.24,0.52 7.82,17.74 7.82,17.72 0.77,1.98 2.43,3.07 4.7,3.07l7.64 0c1.67,0 3.08,-0.63 4.11,-1.83 1.11,-1.29 1.38,-2.87 0.75,-4.48l-47.07 -109.46z"/>
   <path class="fil0" d="M675.7 167.98l-7.07 0c-0.76,0 -1.44,0.13 -2.03,0.37 -0.54,0.24 -1.04,0.56 -1.47,0.92 -0.48,0.41 -0.87,0.86 -1.17,1.36 -0.35,0.6 -0.51,1.28 -0.51,2l0 74.71c0,7.36 -2.42,13.94 -7.15,19.57 -4.76,5.62 -10.79,8.36 -18.46,8.36 -3.44,0 -6.82,-0.58 -10.01,-1.75 -3.18,-1.14 -6,-2.83 -8.36,-5.02 -2.39,-2.18 -4.28,-4.71 -5.61,-7.48 -1.13,-2.41 -3.25,-3.39 -6.02,-2.75l-6.8 1.65c-1.5,0.32 -2.65,1.1 -3.33,2.28 -0.74,1.24 -0.81,2.62 -0.19,4.04 3.26,7.29 8.62,13.25 15.94,17.7 7.29,4.43 15.5,6.67 24.39,6.67 12.06,0 22.35,-4.21 30.6,-12.52 8.25,-8.3 12.44,-18.65 12.44,-30.75l0 -74.71c0,-1.24 -0.53,-2.37 -1.52,-3.29 -0.96,-0.9 -2.19,-1.36 -3.67,-1.36z"/>
   <path class="fil0" d="M950.68 297.09c-1.78,-1.06 -3.85,-1.36 -5.88,-0.85 -2.01,0.51 -3.75,1.85 -4.79,3.64 -3.09,5.39 -7.58,9.89 -13,12.97 -5.3,3.07 -11.4,4.69 -17.59,4.69 -6.29,0 -12.24,-1.57 -17.65,-4.68 -5.39,-3.12 -9.86,-7.61 -12.94,-13.01 -1.07,-1.79 -2.81,-3.1 -4.81,-3.61 -1.97,-0.5 -4.11,-0.21 -5.82,0.82 -1.8,1.01 -3.11,2.68 -3.65,4.68 -0.56,2.03 -0.29,4.15 0.76,5.98 4.47,7.74 10.94,14.19 18.67,18.67 7.86,4.5 16.43,6.79 25.44,6.79 8.91,0 17.69,-2.36 25.36,-6.79 7.76,-4.44 14.25,-10.9 18.76,-18.68 1.06,-1.83 1.31,-3.96 0.75,-5.97 -0.56,-1.99 -1.83,-3.65 -3.61,-4.65z"/>
   <path class="fil0" d="M962.93 170.36l-0.02 -0.01c-1.01,-0.83 -2.19,-1.26 -3.5,-1.26l-7.04 0c-1.46,0 -2.7,0.44 -3.63,1.32 -1.26,1.14 -1.53,2.4 -1.53,3.25l0.19 62.31c-0.69,9.53 -3.98,15.74 -12.12,22.89 -7.44,6.58 -15.53,7.89 -26.14,7.89 -10.61,0 -17.57,-2.39 -25.59,-8.85 -7.81,-6.25 -11.71,-13.22 -12.31,-21.8l0 -62.43c0,-0.87 -0.29,-2.14 -1.67,-3.3 -1.03,-0.83 -2.2,-1.26 -3.52,-1.26l-7.01 0c-1.46,0 -2.7,0.44 -3.65,1.32 -1.25,1.14 -1.53,2.4 -1.53,3.25l0.21 62.43c0,13.35 5.47,24.89 16.28,34.3 10.75,9.37 23.85,14.11 38.97,14.11 15.13,0 28.22,-4.74 38.99,-14.11 10.79,-9.42 16.28,-20.96 16.28,-34.3l0 -62.43c0,-0.87 -0.29,-2.14 -1.67,-3.29z"/>
   <path class="fil0" d="M769.16 273.74c-24.74,0 -44.8,-20.37 -44.8,-45.51 0,-25.14 20.07,-45.52 44.8,-45.52 24.75,0 44.81,20.37 44.81,45.52 0,25.14 -20.06,45.51 -44.81,45.51zm31.25 -98.11c-9.49,-5.42 -20,-8.17 -31.21,-8.17 -11.24,0 -21.72,2.75 -31.22,8.17 -9.49,5.4 -17.13,12.86 -22.67,22.14 -5.56,9.29 -8.37,19.58 -8.37,30.6 0,11.03 2.82,21.32 8.37,30.6 5.54,9.29 13.18,16.74 22.67,22.15 9.5,5.41 19.98,8.15 31.22,8.15 11.21,0 21.72,-2.75 31.21,-8.15 9.5,-5.41 17.11,-12.87 22.67,-22.15 5.56,-9.31 8.38,-19.6 8.38,-30.6 0,-11 -2.82,-21.28 -8.38,-30.58 -5.56,-9.28 -13.17,-16.74 -22.67,-22.15z"/>
   <path class="fil0" d="M260.22 170.16c-0.46,-0.65 -1.08,-1.18 -1.82,-1.57l-0.02 -0.02c-0.76,-0.4 -1.62,-0.59 -2.54,-0.59l-7.06 0c-1.5,0 -2.74,0.46 -3.68,1.35 -0.99,0.92 -1.52,2.06 -1.52,3.3l0 45.44c-0.01,0.15 -0.13,1.18 -1.03,1.79 -0.56,0.36 -1.13,0.39 -1.36,0.38 -22.5,-0.02 -44.53,-0.03 -67.01,-0.04 -0.28,-0.04 -0.9,-0.22 -1.26,-0.78 -0.28,-0.4 -0.31,-0.89 -0.33,-1.4 -0.03,-0.35 0,-0.61 0,-0.65l0 -44.9c0,-0.87 -0.29,-2.18 -1.67,-3.35 -1,-0.85 -2.22,-1.32 -3.53,-1.32l-7.07 0c-1.47,0 -2.71,0.47 -3.69,1.37 -0.96,0.93 -1.49,2.07 -1.49,3.29l0 110.79c0,1.37 0.54,2.57 1.57,3.44 0.96,0.81 2.18,1.22 3.61,1.22l7.07 0c1.28,0 2.47,-0.4 3.46,-1.17 1.13,-0.87 1.74,-2.08 1.74,-3.5l0 -32.74 0 -10.94c-0.04,-0.28 -0.07,-0.69 0,-1.22 0.04,-0.4 0.15,-1.26 0.74,-2 0.61,-0.76 1.33,-0.9 1.36,-0.9 0,0 -0.72,0 -0.72,0l66.04 0c0.1,0 0.64,-0.14 1.31,0 0.24,0.04 1.51,0.29 1.98,1.23 0,0 0.22,0.44 0.25,1.67l0 6.06c0,0.03 0.04,0.04 0.04,0.08l0 38.76c0,1.39 0.54,2.58 1.56,3.44 0.96,0.81 2.18,1.22 3.64,1.22l7.06 0c1.28,0 2.44,-0.39 3.47,-1.18 1.12,-0.88 1.71,-2.07 1.71,-3.49l0 -110.63c0,-0.9 -0.26,-1.74 -0.81,-2.47z"/>
  </g>
 </g>
</svg>
