<?xml version="1.0" encoding="UTF-8"?>
<!DOCTYPE svg PUBLIC "-//W3C//DTD SVG 1.1//EN" "http://www.w3.org/Graphics/SVG/1.1/DTD/svg11.dtd">
<!-- Creator: CorelDRAW 2021 (64-Bit) -->
<svg xmlns="http://www.w3.org/2000/svg" xml:space="preserve" width="0.999992in" height="0.499992in" version="1.1" style="shape-rendering:geometricPrecision; text-rendering:geometricPrecision; image-rendering:optimizeQuality; fill-rule:evenodd; clip-rule:evenodd"
viewBox="0 0 999.99 499.99"
 xmlns:xlink="http://www.w3.org/1999/xlink"
 xmlns:xodm="http://www.corel.com/coreldraw/odm/2003">
 <defs>
  <style type="text/css">
   <![CDATA[
    .fil1 {fill:#201E1E}
    .fil0 {fill:#201E1E;fill-rule:nonzero}
   ]]>
  </style>
 </defs>
 <g id="Layer_x0020_1">
  <metadata id="CorelCorpID_0Corel-Layer"/>
  <g id="_1653630978400">
   <path class="fil0" d="M345.4 297.78l-7.65 21.01 -7.45 -21.01 15.09 0zm27.03 -0.61c-0.11,0 -0.21,0 -0.31,0.2l-20.9 58.64 -13.06 -36.31 7.96 -22.13c0,-0.2 0,-0.2 0,-0.31 -0.2,-0.1 -0.2,-0.1 -0.3,-0.1l-26.52 0 -0.2 0c0,0.1 0,0.1 0,0.1l0 0 0 0c0,0 0,0.1 -0.2,0.1l0 0 0 0c0,0.2 0,0.2 0,0.2l0 0 13.26 37.02 -7.65 21.42 -20.9 -58.64c0,-0.1 -0.11,-0.2 -0.21,-0.2l-10.7 0c0,0 -0.1,0 -0.31,0.1 0,0.1 0,0.1 0,0.31l26.52 74.24c0,0.2 0.2,0.2 0.2,0.2l0 0c0,0.11 0,0.11 0,0.11l0.2 0c0.11,0 0.11,-0.11 0.31,-0.31l12.95 -36.31 13.06 36.31 0 0.2c0,0 0,0 0.1,0 0,0.11 0,0.11 0,0.11l0 0 0.1 0 0 0 0 0c0.1,0 0.1,0 0.1,0 0.2,-0.11 0.2,-0.11 0.2,-0.31l5.3 -14.79 0 0 21.21 -59.46c0.1,-0.2 0,-0.31 -0.2,-0.41zm17.85 74.34l0 -36.61 15.7 0c0.1,0 0.3,-0.1 0.3,-0.31 0,-0.1 -0.2,-0.2 -0.3,-0.2l-15.7 0 0 -36.61 26.31 0c0.1,0 0.2,-0.1 0.2,-0.41 0,-0.1 -0.1,-0.2 -0.2,-0.2l-26.52 0 -5.41 0 -5.31 0c0,0 -0.1,0 -0.1,0.1 -0.2,0 -0.2,0.1 -0.2,0.1l0 74.45c0,0 0,0.2 0.2,0.2 0,0.11 0.1,0.11 0.1,0.11l5.31 0 5.41 0 26.52 0c0.1,0 0.2,-0.11 0.2,-0.31 0,-0.2 -0.1,-0.31 -0.2,-0.31l-26.31 0zm44.16 0l0 -74.14c0,0 0,-0.1 -0.1,-0.1 0,-0.1 -0.11,-0.1 -0.11,-0.1l-10.71 0c0,0 -0.1,0 -0.1,0.1 -0.2,0 -0.2,0.1 -0.2,0.1l0 74.45c0,0 0,0 0,0.2l0.2 0.11c0.1,0 0.1,0 0.1,0l0 0 0 0 10.71 0 26.52 0c0.1,0 0.2,-0.11 0.2,-0.31 0,-0.2 -0.1,-0.31 -0.2,-0.31l-26.31 0zm44.16 0l0 -74.14c0,0 0,-0.1 -0.1,-0.1 0,-0.1 -0.1,-0.1 -0.1,-0.1l-10.71 0c0,0 -0.1,0 -0.1,0.1 -0.21,0 -0.21,0.1 -0.21,0.1l0 74.45c0,0 0,0 0,0.2l0.21 0.11c0.1,0 0.1,0 0.1,0l0 0 0 0 10.71 0 26.52 0c0.1,0 0.2,-0.11 0.2,-0.31 0,-0.2 -0.1,-0.31 -0.2,-0.31l-26.31 0zm44.06 -74.24c0,-0.1 -0.1,-0.1 -0.1,-0.1l-10.71 0c0,0 -0.1,0 -0.1,0.1 -0.2,0 -0.2,0.1 -0.2,0.1l0 74.45c0,0 0,0.2 0.2,0.2 0,0.11 0.1,0.11 0.1,0.11l10.71 0c0,0 0.1,0 0.1,-0.11 0.1,0 0.1,-0.2 0.1,-0.2l0 -74.45c0,0 0,-0.1 -0.1,-0.1zm60.07 -0.1c-0.1,0 -0.31,0 -0.31,0.1l-21.11 58.74 -20.91 -58.74c-0.11,0 -0.11,-0.1 -0.2,-0.1l-10.71 0c0,0 -0.1,0 -0.31,0.1 0,0.1 0,0.1 0,0.31l26.52 74.24 0.2 0c0,0.2 0,0.2 0,0.2l0 0.11 0.2 0 0 0 0 0 0 0c0,0 0.1,0 0.1,-0.11 0,0 0.2,0 0.2,-0.2l5.2 -14.79c0.11,0 0,0 0.11,0l21.21 -59.46c0.11,-0.2 0,-0.31 -0.2,-0.41zm17.64 0.1c0,-0.1 -0.1,-0.1 -0.1,-0.1l-10.7 0c0,0 -0.1,0 -0.1,0.1 -0.2,0 -0.2,0.1 -0.2,0.1l0 74.45c0,0 0,0.2 0.2,0.2 0,0.11 0.1,0.11 0.1,0.11l10.7 0c0,0 0.1,0 0.1,-0.11 0.1,0 0.1,-0.2 0.1,-0.2l0 -74.45c0,0 0,-0.1 -0.1,-0.1zm49.67 0.1c0,-0.1 -0.1,-0.2 -0.31,-0.2 -0.2,0 -0.31,0.1 -0.31,0.2l0 72.92 -31.31 -73.02c-0.1,0 -0.1,-0.1 -0.2,-0.1l-5.41 0 0 0 -5.3 0c0,0 0,0 -0.1,0l0 0 0 0.1 0 0c-0.2,0 -0.2,0 -0.2,0l0 0 0 0.1 0 0 0 0 0 74.45c0,0.2 0.2,0.31 0.31,0.31 0.2,0 0.41,-0.11 0.41,-0.31l0 -72.92 31.21 73.12c0.11,0 0.11,0.11 0.2,0.11l10.71 0 0 0c0,0 0,0 0.2,0l0 0c0,-0.11 0,-0.11 0,-0.11l0 0 0.1 0 0 0 0 -0.2 0 0 0 0 0 -74.45zm60.07 37.12l0 0c0,0 0,0 0,-0.1 -0.2,0 -0.2,0 -0.31,0l-10.6 0 0 0 -15.91 0c-0.2,0 -0.41,0.1 -0.41,0.2 0,0.21 0.21,0.31 0.41,0.31l15.6 0 0 21c0,0 0,0.11 0,0.31 0,0.61 -0.21,2.76 -1.02,5.2 -2.14,5.61 -7.34,9.69 -13.56,10.09l0 0 -1.02 0c-0.41,0 -0.72,0 -1.02,0l0 0 0 0 0 0c-0.1,0 -0.1,0 -0.1,0 -6.33,0 -11.52,-4.49 -13.57,-10.09 -0.41,-1.12 -0.61,-2.15 -0.71,-3.06 -0.21,-1.12 -0.31,-2.04 -0.31,-2.34 0,-0.11 0,-0.11 0,-0.11l0 -42.52c0,0 0,-0.2 0,-0.31 0,-0.61 0.2,-2.75 1.02,-5.2 2.04,-5.61 7.44,-9.69 13.67,-10.09l0 0c0.3,0 0.61,0 1.02,0 7.75,0 11.63,3.87 13.66,7.75 0.92,2.04 1.43,3.98 1.63,5.41 0.31,1.43 0.31,2.45 0.31,2.45l0 0c0,3.16 2.55,5.61 5.61,5.61 3.16,0 5.61,-2.44 5.61,-5.61 0,-3.06 -2.45,-5.61 -5.61,-5.61 -2.35,0 -4.39,1.53 -5.1,3.57 -0.3,-1.53 -0.81,-3.87 -1.94,-6.02 -2.14,-4.07 -6.12,-8.15 -14.17,-8.15 -3.06,0 -5.51,0.71 -7.55,1.53 -11.22,4.59 -19.37,18.87 -19.37,35.89 0,17.14 8.16,31.42 19.37,36 2.04,0.82 4.49,1.53 7.55,1.53l0 0c2.96,0 5.3,-0.61 7.44,-1.53 2.85,-1.32 5.71,-3.06 8.16,-5.51l0 6.73 0.1 0.2c0,0.11 0.1,0.11 0.2,0.11l10.6 0c0.11,0 0.11,0 0.31,-0.11l0 -0.2 0 -37.23 0 0 0 -0.1zm-397.82 97.99c-0.04,0.23 -0.04,1.04 -0.39,1.98 -0.77,2.17 -2.78,3.75 -5.22,3.87l-0.31 0 0 0c-2.79,0 -4.65,0 -5.96,0l0 -15.86 5.96 0 0 0c0.04,0 0.07,0 0.12,0 0.3,0 1.08,0.04 1.93,0.35 2.13,0.77 3.75,2.86 3.83,5.22 0.04,0.16 0.04,0.24 0.04,0.35 0,2.44 0,3.56 0,4.06l0 0 0 0.04zm-5.92 -10.25l0 0 0 0 -8.09 0c-0.04,0 -0.04,0.04 -0.11,0.04l0 0c0,0.04 0,0.04 0,0.04l0 0 0 16.17 0 0 0 0 0 12.07c0,0 0,0.08 0.07,0.08 0,0.04 0.04,0.04 0.04,0.04l2.02 0c0.08,0 0.08,0 0.11,-0.04l0 -0.08 0 -12c1.31,0 3.17,0 5.96,0l0 0 0 0 0.46 0c0.12,-0.04 0.19,-0.04 0.31,-0.04 0.04,0 0.08,0 0.11,0 0.12,0 0.19,-0.04 0.31,-0.04 0.07,0 0.19,-0.04 0.27,-0.04 0,0 0.08,0 0.11,0 3.72,-0.77 6.58,-4.06 6.58,-8.05 0,-4.48 -3.64,-8.16 -8.13,-8.16l-0.04 0zm26.81 0c-0.08,0 -0.11,0.04 -0.11,0.08l0 20.2c0,3.94 -2.01,5.96 -3.99,6.96 -0.96,0.46 -1.97,0.74 -2.71,0.85 -0.77,0.11 -1.24,0.11 -1.24,0.11l0 0c-3.29,0 -5.96,-2.67 -5.96,-5.92l0 -22.21 0 -0.04c-0.04,-0.04 -0.04,-0.04 -0.11,-0.04l-2.01 0c0,0 -0.04,0 -0.04,0.04 -0.08,0 -0.08,0.04 -0.08,0.04l0 20.2c0,4.48 3.67,8.16 8.2,8.16l0 0c0.04,0 2.01,0 4.06,-1.01 2.05,-1.04 4.1,-3.09 4.1,-7.15l0 -20.2c0,-0.04 -0.04,-0.08 -0.11,-0.08zm14.7 14.55c-0.08,0.11 -0.19,0.15 -0.27,0.23 -0.04,0.08 -0.04,0.08 -0.11,0.12 -0.08,0.04 -0.2,0.15 -0.31,0.19 0,0.04 -0.07,0.04 -0.11,0.08 -0.08,0.07 -0.19,0.11 -0.23,0.15 -0.04,0.04 -0.11,0.04 -0.15,0.11 -0.08,0.04 -0.23,0.07 -0.35,0.11 -0.61,0.31 -1.35,0.5 -2.13,0.54 -0.08,0 -0.19,0 -0.27,0l-0.04 0 0 0c-2.78,0 -4.64,0 -5.96,0l0 -15.86 5.96 0c0.04,0 0.08,0 0.12,0 0.31,0 1.08,0.04 1.93,0.35 2.13,0.77 3.75,2.86 3.83,5.22 0.04,0.08 0.04,0.2 0.04,0.27l0 0.08 0 4.06c0,0 0,0.04 0,0.08 -0.04,0.31 -0.08,1.09 -0.39,1.94 -0.31,0.93 -0.85,1.7 -1.55,2.32zm-4.1 -14.4l4.1 14.4zm-4.1 -14.35l0 -0.04 0 0 0 0.04zm4.49 14.85c2.28,-1.47 3.79,-3.98 3.79,-6.89 0,-4.44 -3.6,-8.08 -8.05,-8.16 -0.04,0 -0.08,0 -0.12,0l0 0 -8.09 0c-0.04,0 -0.04,0.04 -0.11,0.04 0,0.04 0,0.04 0,0.04l0 28.24c0,0 0,0.08 0.07,0.08 0,0.04 0.04,0.04 0.04,0.04l2.01 0c0.08,0 0.08,0 0.12,-0.04l0 -0.08 0 -12c1.31,0 3.17,0 5.96,0l0 0 0.39 0c0.19,0 0.39,-0.04 0.51,-0.04 0.08,0 0.08,0 0.08,0 0.07,-0.04 0.19,-0.04 0.27,-0.04 0.11,0 0.15,-0.04 0.23,-0.04 0.08,0 0.12,0 0.12,0 0.27,-0.11 0.54,-0.15 0.81,-0.27l3.52 12.38c0,0.08 0.07,0.11 0.11,0.11l2.01 0c0,0 0.08,0 0.08,-0.04 0.04,-0.08 0.04,-0.08 0.04,-0.12l-3.79 -13.23zm8.44 13.15l0 -13.89 5.96 0c0.04,0 0.07,-0.04 0.07,-0.11 0,-0.04 -0.04,-0.08 -0.07,-0.08l-5.96 0 0 -13.89 9.94 0c0.12,0 0.15,-0.04 0.15,-0.15 0,-0.04 -0.04,-0.08 -0.15,-0.08l-10.06 0 0 0 0 0 -2.01 0c0,0 -0.04,0 -0.04,0.04 -0.07,0 -0.07,0.04 -0.07,0.04l0 28.24c0,0 0,0.08 0.07,0.08 0,0.04 0.04,0.04 0.04,0.04l2.01 0 0 0 10.06 0c0.12,0 0.15,-0.04 0.15,-0.11 0,-0.08 -0.04,-0.12 -0.15,-0.12l-9.94 0zm40.97 -28.13c0,-0.04 -0.04,-0.08 -0.11,-0.08 -0.08,0 -0.12,0.04 -0.12,0.08l0 27.78 -13.89 -27.81 0 0c0,0 0,0 -0.04,-0.04l0 0 -0.07 0 0 0 -2.01 0 0 0c0,0 0,0 -0.04,0l0 0c0,0.04 0,0.04 0,0.04 0,0 0,0 -0.07,0l0 0 0 0 0 0.04 0 0 0 0 0 28.24c0,0.08 0.07,0.11 0.11,0.11 0.07,0 0.15,-0.04 0.15,-0.11l0 -27.74 13.85 27.82 0 0c0,0 0,0 0.08,0 0,0.04 0,0.04 0,0.04l0.04 0 0 0 0 0 2.01 0 0 0c0,0 0,0 0.08,0l0 0c0,-0.04 0,-0.04 0,-0.04l0 0c0.04,0 0.04,0 0.04,0l0 0c0,-0.08 0,-0.08 0,-0.08l0 0 0 0 0 -28.24zm11.61 3.21l6.04 16.87 -12.07 0 6.04 -16.87zm1.12 -3.21c-0.08,-0.04 -0.08,-0.08 -0.11,-0.08 -0.08,0 -0.08,0.04 -0.16,0.08 -0.69,2.05 1.16,-3.29 -10.06,28.2 0,0.04 0,0.12 0.12,0.15 0.04,0 0.08,0 0.16,-0.11l2.78 -7.97 12.23 0 2.86 7.97c0,0.08 0.04,0.11 0.12,0.11l2.01 0c0.04,0 0.04,0 0.11,-0.04 0,-0.08 0,-0.08 0,-0.12l-10.06 -28.2zm20.66 -0.08l-2.05 0 -6.04 0c-0.04,0 -0.12,0.04 -0.12,0.08 0,0.12 0.08,0.15 0.12,0.15l5.96 0 0 28.09c0,0 0,0.08 0.04,0.08 0,0.04 0.04,0.04 0.04,0.04l2.05 0c0.04,0 0.04,0 0.08,-0.04l0 -0.08 0 -28.09 5.96 0c0.04,0 0.08,-0.04 0.08,-0.15 0,-0.04 -0.04,-0.08 -0.08,-0.08l-6.04 0zm24.8 0c-0.08,0 -0.12,0.04 -0.12,0.08l0 20.2c0,3.94 -2.01,5.96 -3.98,6.96 -0.97,0.46 -1.97,0.74 -2.71,0.85 -0.77,0.11 -1.24,0.11 -1.24,0.11l0 0c-3.29,0 -5.96,-2.67 -5.96,-5.92l0 -22.21 0 -0.04c-0.04,-0.04 -0.04,-0.04 -0.11,-0.04l-2.01 0c0,0 -0.04,0 -0.04,0.04 -0.08,0 -0.08,0.04 -0.08,0.04l0 20.2c0,4.48 3.68,8.16 8.2,8.16l0 0c0.04,0 2.01,0 4.07,-1.01 2.05,-1.04 4.1,-3.09 4.1,-7.15l0 -20.2c0,-0.04 -0.04,-0.08 -0.11,-0.08zm14.7 14.55c-0.08,0.11 -0.2,0.15 -0.28,0.23 -0.04,0.08 -0.04,0.08 -0.11,0.12 -0.08,0.04 -0.19,0.15 -0.31,0.19 0,0.04 -0.07,0.04 -0.11,0.08 -0.08,0.07 -0.19,0.11 -0.23,0.15 -0.04,0.04 -0.11,0.04 -0.15,0.11 -0.08,0.04 -0.24,0.07 -0.35,0.11 -0.62,0.31 -1.36,0.5 -2.13,0.54 -0.08,0 -0.19,0 -0.27,0l-0.04 0 0 0c-2.79,0 -4.64,0 -5.96,0l0 -15.86 5.96 0c0.04,0 0.07,0 0.12,0 0.31,0 1.08,0.04 1.93,0.35 2.13,0.77 3.75,2.86 3.83,5.22 0.04,0.08 0.04,0.2 0.04,0.27l0 0.08 0 4.06c0,0 0,0.04 0,0.08 -0.04,0.31 -0.07,1.09 -0.39,1.94 -0.31,0.93 -0.85,1.7 -1.54,2.32zm-4.11 -14.4l4.11 14.4zm-4.11 -14.35l0 -0.04 0 0 0 0.04zm4.49 14.85c2.28,-1.47 3.79,-3.98 3.79,-6.89 0,-4.44 -3.6,-8.08 -8.05,-8.16 -0.04,0 -0.08,0 -0.12,0l0 0 -8.09 0c-0.04,0 -0.04,0.04 -0.11,0.04 0,0.04 0,0.04 0,0.04l0 28.24c0,0 0,0.08 0.07,0.08 0,0.04 0.04,0.04 0.04,0.04l2.02 0c0.07,0 0.07,0 0.11,-0.04l0 -0.08 0 -12c1.31,0 3.17,0 5.96,0l0 0 0.39 0c0.19,0 0.39,-0.04 0.5,-0.04 0.08,0 0.08,0 0.08,0 0.07,-0.04 0.19,-0.04 0.27,-0.04 0.11,0 0.15,-0.04 0.23,-0.04 0.08,0 0.12,0 0.12,0 0.27,-0.11 0.54,-0.15 0.81,-0.27l3.52 12.38c0,0.08 0.08,0.11 0.12,0.11l2.02 0c0,0 0.07,0 0.07,-0.04 0.04,-0.08 0.04,-0.08 0.04,-0.12l-3.79 -13.23zm8.43 13.15l0 -13.89 5.96 0c0.04,0 0.07,-0.04 0.07,-0.11 0,-0.04 -0.04,-0.08 -0.07,-0.08l-5.96 0 0 -13.89 9.94 0c0.12,0 0.16,-0.04 0.16,-0.15 0,-0.04 -0.04,-0.08 -0.16,-0.08l-10.06 0 0 0 0 0 -2.01 0c0,0 -0.04,0 -0.04,0.04 -0.07,0 -0.07,0.04 -0.07,0.04l0 28.24c0,0 0,0.08 0.07,0.08 0,0.04 0.04,0.04 0.04,0.04l2.01 0 0 0 10.06 0c0.12,0 0.16,-0.04 0.16,-0.11 0,-0.08 -0.04,-0.12 -0.16,-0.12l-9.94 0zm38.73 -17.95c-0.04,0.23 -0.04,1.04 -0.39,1.98 -0.78,2.17 -2.79,3.75 -5.22,3.87l-0.31 0 0 0c-2.78,0 -4.64,0 -5.96,0l0 -15.86 5.96 0 0 0c0.04,0 0.08,0 0.12,0 0.31,0 1.08,0.04 1.93,0.35 2.13,0.77 3.76,2.86 3.83,5.22 0.04,0.16 0.04,0.24 0.04,0.35 0,2.44 0,3.56 0,4.06l0 0 0 0.04zm-5.92 -10.25l0 0 0 0 -8.08 0c-0.04,0 -0.04,0.04 -0.12,0.04l0 0c0,0.04 0,0.04 0,0.04l0 0 0 16.17 0 0 0 0 0 12.07c0,0 0,0.08 0.08,0.08 0,0.04 0.04,0.04 0.04,0.04l2.01 0c0.08,0 0.08,0 0.12,-0.04l0 -0.08 0 -12c1.31,0 3.17,0 5.96,0l0 0 0 0 0.47 0c0.11,-0.04 0.19,-0.04 0.31,-0.04 0.04,0 0.08,0 0.12,0 0.11,0 0.19,-0.04 0.31,-0.04 0.07,0 0.19,-0.04 0.27,-0.04 0,0 0.07,0 0.11,0 3.71,-0.77 6.58,-4.06 6.58,-8.05 0,-4.48 -3.64,-8.16 -8.13,-8.16l-0.04 0zm26.81 0c-0.08,0 -0.12,0.04 -0.12,0.08l0 20.2c0,3.94 -2.01,5.96 -3.98,6.96 -0.97,0.46 -1.97,0.74 -2.71,0.85 -0.78,0.11 -1.24,0.11 -1.24,0.11l0 0c-3.29,0 -5.96,-2.67 -5.96,-5.92l0 -22.21 0 -0.04c-0.04,-0.04 -0.04,-0.04 -0.11,-0.04l-2.01 0c0,0 -0.04,0 -0.04,0.04 -0.08,0 -0.08,0.04 -0.08,0.04l0 20.2c0,4.48 3.68,8.16 8.2,8.16l0 0c0.04,0 2.02,0 4.07,-1.01 2.05,-1.04 4.1,-3.09 4.1,-7.15l0 -20.2c0,-0.04 -0.04,-0.08 -0.11,-0.08zm14.7 14.55c-0.08,0.11 -0.19,0.15 -0.27,0.23 -0.04,0.08 -0.04,0.08 -0.11,0.12 -0.08,0.04 -0.19,0.15 -0.31,0.19 0,0.04 -0.07,0.04 -0.11,0.08 -0.07,0.07 -0.19,0.11 -0.23,0.15 -0.04,0.04 -0.12,0.04 -0.16,0.11 -0.08,0.04 -0.23,0.07 -0.35,0.11 -0.62,0.31 -1.36,0.5 -2.13,0.54 -0.07,0 -0.19,0 -0.27,0l-0.04 0 0 0c-2.78,0 -4.64,0 -5.96,0l0 -15.86 5.96 0c0.04,0 0.08,0 0.12,0 0.31,0 1.08,0.04 1.93,0.35 2.13,0.77 3.76,2.86 3.83,5.22 0.04,0.08 0.04,0.2 0.04,0.27l0 0.08 0 4.06c0,0 0,0.04 0,0.08 -0.04,0.31 -0.07,1.09 -0.38,1.94 -0.31,0.93 -0.85,1.7 -1.55,2.32zm-4.1 -14.4l4.1 14.4zm-4.1 -14.35l0 -0.04 0 0 0 0.04zm4.48 14.85c2.28,-1.47 3.8,-3.98 3.8,-6.89 0,-4.44 -3.6,-8.08 -8.05,-8.16 -0.04,0 -0.08,0 -0.12,0l0 0 -8.08 0c-0.04,0 -0.04,0.04 -0.12,0.04 0,0.04 0,0.04 0,0.04l0 28.24c0,0 0,0.08 0.08,0.08 0,0.04 0.04,0.04 0.04,0.04l2.01 0c0.07,0 0.07,0 0.11,-0.04l0 -0.08 0 -12c1.31,0 3.17,0 5.96,0l0 0 0.39 0c0.19,0 0.39,-0.04 0.5,-0.04 0.08,0 0.08,0 0.08,0 0.07,-0.04 0.19,-0.04 0.27,-0.04 0.12,0 0.16,-0.04 0.24,-0.04 0.07,0 0.11,0 0.11,0 0.27,-0.11 0.54,-0.15 0.81,-0.27l3.52 12.38c0,0.08 0.08,0.11 0.12,0.11l2.01 0c0,0 0.07,0 0.07,-0.04 0.04,-0.08 0.04,-0.08 0.04,-0.12l-3.8 -13.23zm8.44 13.15l0 -13.89 5.96 0c0.04,0 0.07,-0.04 0.07,-0.11 0,-0.04 -0.04,-0.08 -0.07,-0.08l-5.96 0 0 -13.89 9.94 0c0.12,0 0.16,-0.04 0.16,-0.15 0,-0.04 -0.04,-0.08 -0.16,-0.08l-10.06 0 0 0 0 0 -2.01 0c0,0 -0.04,0 -0.04,0.04 -0.07,0 -0.07,0.04 -0.07,0.04l0 28.24c0,0 0,0.08 0.07,0.08 0,0.04 0.04,0.04 0.04,0.04l2.01 0 0 0 10.06 0c0.12,0 0.16,-0.04 0.16,-0.11 0,-0.08 -0.04,-0.12 -0.16,-0.12l-9.94 0zm42.75 -9.02c0,0.04 0,0.04 0,0.04l0 0c0,4.03 -2.36,7.43 -5.57,8.59 0,0 0,0 -0.04,0l0 0c-0.77,0.23 -1.55,0.39 -2.32,0.39 -0.81,0 -1.59,-0.15 -2.36,-0.39l0 0 0 0 0 0 -0.04 0c-3.21,-1.16 -5.57,-4.56 -5.57,-8.59l0 0c0,0 0,0 0,-0.04l0 -10.02 0 0 0 0c0,-3.99 2.36,-7.43 5.61,-8.55l0 0c0.77,-0.27 1.55,-0.39 2.36,-0.39l0 0c0.78,0 1.55,0.12 2.32,0.39l0 0 0 0c3.25,1.12 5.61,4.56 5.61,8.55l0 0 0 0 0 10.02zm2.24 -5.65c0,-0.11 0,-0.15 0,-0.19 0,-0.15 0,-0.35 -0.07,-0.5 0,-0.07 0,-0.11 0,-0.23 0,-0.15 -0.04,-0.27 -0.04,-0.43 0,-0.12 0,-0.15 0,-0.23 -0.04,-0.15 -0.04,-0.31 -0.08,-0.46 0,-0.08 0,-0.11 0,-0.23 -0.08,-0.16 -0.08,-0.27 -0.12,-0.43 0,-0.04 0,-0.15 0,-0.19 -0.04,-0.19 -0.07,-0.43 -0.15,-0.62 0,-0.07 -0.04,-0.11 -0.04,-0.15 -0.04,-0.15 -0.04,-0.35 -0.08,-0.43 -0.07,-0.11 -0.07,-0.19 -0.11,-0.31 0,-0.08 -0.04,-0.23 -0.04,-0.35 -0.04,-0.07 -0.11,-0.19 -0.11,-0.27 -0.04,-0.11 -0.08,-0.19 -0.08,-0.31 -0.04,-0.07 -0.12,-0.19 -0.12,-0.27 -0.04,-0.12 -0.07,-0.16 -0.07,-0.24 -0.04,-0.11 -0.12,-0.27 -0.16,-0.35 0,-0.04 -0.04,-0.11 -0.04,-0.15 -0.23,-0.62 -0.54,-1.24 -0.89,-1.78l0 -0.04c-0.08,-0.15 -0.19,-0.31 -0.27,-0.46l0 0c-1.86,-2.98 -4.61,-4.91 -7.7,-4.91 -3.09,0 -5.84,1.93 -7.74,4.91l0 0c-0.08,0.15 -0.2,0.31 -0.23,0.46l-0.04 0.04c-0.31,0.54 -0.58,1.16 -0.89,1.78 0,0.04 0,0.11 -0.04,0.15 -0.04,0.08 -0.12,0.23 -0.16,0.35 0,0.08 -0.04,0.12 -0.04,0.24 -0.04,0.07 -0.11,0.19 -0.15,0.27 0,0.12 -0.04,0.2 -0.04,0.31 -0.04,0.08 -0.11,0.2 -0.11,0.27 -0.04,0.12 -0.04,0.27 -0.08,0.35 -0.04,0.11 -0.04,0.19 -0.12,0.31 0,0.08 -0.04,0.23 -0.07,0.39 0,0.07 0,0.11 -0.04,0.19 -0.08,0.19 -0.08,0.43 -0.12,0.62 0,0.04 -0.04,0.16 -0.04,0.19 0,0.16 -0.04,0.27 -0.04,0.43 -0.07,0.12 -0.07,0.15 -0.07,0.23 -0.04,0.15 -0.04,0.31 -0.04,0.46 0,0.08 -0.04,0.11 -0.04,0.23 0,0.15 0,0.27 -0.04,0.43 0,0.11 0,0.15 0,0.23 0,0.16 0,0.35 -0.07,0.5l0 0.85 0 0.89c0.07,0.15 0.07,0.35 0.07,0.46 0,0.12 0,0.16 0,0.27 0.04,0.12 0.04,0.27 0.04,0.43 0,0.08 0.04,0.16 0.04,0.23 0,0.16 0,0.31 0.04,0.43 0,0.07 0,0.15 0.07,0.27 0,0.11 0.04,0.27 0.04,0.43 0,0.04 0,0.15 0.04,0.19 0.04,0.19 0.04,0.38 0.12,0.62 0.04,0.04 0.04,0.11 0.04,0.19 0.04,0.15 0.07,0.23 0.07,0.39 0.08,0.12 0.08,0.19 0.12,0.31 0,0.07 0.04,0.19 0.08,0.27 0,0.11 0.07,0.23 0.11,0.35 0,0.08 0.04,0.16 0.04,0.23 0.04,0.16 0.11,0.23 0.15,0.35 0,0.04 0.04,0.15 0.04,0.23 0.04,0.11 0.12,0.19 0.16,0.35 0,0.04 0.04,0.07 0.04,0.07 0.23,0.5 0.39,0.93 0.62,1.36 0,0 0,0 0,0.07 0.11,0.12 0.15,0.23 0.27,0.39 0,0.04 0,0.04 0,0.04 0.07,0.15 0.19,0.27 0.27,0.42l0 0c1.86,3.06 4.61,4.99 7.74,4.99l0 0c0.12,0 1.55,0 2.94,0.66 1.35,0.66 2.71,1.98 2.98,4.49 -0.27,-0.23 -0.54,-0.43 -0.89,-0.43 -0.62,0 -1.13,0.5 -1.13,1.16 0,0.58 0.51,1.08 1.13,1.08 0.62,0 1.12,-0.5 1.12,-1.08l0 0c0,-3.09 -1.55,-4.65 -3.1,-5.41 -0.69,-0.35 -1.35,-0.47 -1.93,-0.58 2.67,-0.43 4.99,-2.2 6.62,-4.88l0 0c0.04,-0.15 0.15,-0.27 0.23,-0.42 0,0 0,0 0,-0.04 0.12,-0.16 0.19,-0.27 0.27,-0.39 0,-0.07 0,-0.07 0.04,-0.07 0.19,-0.43 0.39,-0.85 0.58,-1.28 0,-0.08 0.04,-0.11 0.04,-0.15 0.04,-0.15 0.12,-0.23 0.16,-0.35 0,-0.08 0.04,-0.19 0.07,-0.23 0,-0.12 0.08,-0.19 0.12,-0.35 0,-0.07 0.04,-0.19 0.08,-0.23 0,-0.11 0.07,-0.19 0.11,-0.35 0,-0.08 0.04,-0.2 0.04,-0.27 0.04,-0.12 0.04,-0.19 0.11,-0.31 0.04,-0.15 0.04,-0.23 0.08,-0.39 0,-0.08 0.04,-0.15 0.04,-0.19 0.08,-0.24 0.12,-0.43 0.15,-0.62 0,-0.04 0,-0.15 0,-0.19 0.04,-0.16 0.04,-0.31 0.12,-0.43 0,-0.12 0,-0.2 0,-0.27 0.04,-0.12 0.04,-0.27 0.08,-0.43 0,-0.07 0,-0.15 0,-0.23 0,-0.15 0.04,-0.31 0.04,-0.43 0,-0.11 0,-0.15 0,-0.27 0.07,-0.11 0.07,-0.31 0.07,-0.46l0 -0.89c0,-0.23 0,-0.46 0,-0.66zm18.65 -13.54c-0.08,0 -0.12,0.04 -0.12,0.08l0 20.2c0,3.94 -2.01,5.96 -3.98,6.96 -0.97,0.46 -1.98,0.74 -2.71,0.85 -0.77,0.11 -1.24,0.11 -1.24,0.11l0 0c-3.29,0 -5.96,-2.67 -5.96,-5.92l0 -22.21 0 -0.04c-0.04,-0.04 -0.04,-0.04 -0.11,-0.04l-2.01 0c0,0 -0.04,0 -0.04,0.04 -0.08,0 -0.08,0.04 -0.08,0.04l0 20.2c0,4.48 3.68,8.16 8.2,8.16l0 0c0.04,0 2.01,0 4.07,-1.01 2.05,-1.04 4.1,-3.09 4.1,-7.15l0 -20.2c0,-0.04 -0.04,-0.08 -0.11,-0.08z"/>
   <path class="fil0" d="M637.89 425.52l6.04 16.87 -12.07 0 6.03 -16.87zm1.13 -3.21c-0.08,-0.04 -0.08,-0.08 -0.12,-0.08 -0.07,0 -0.07,0.04 -0.15,0.08 -0.7,2.05 1.16,-3.29 -10.06,28.2 0,0.04 0,0.12 0.11,0.15 0.04,0 0.08,0 0.15,-0.11l2.79 -7.97 12.23 0 2.86 7.97c0,0.08 0.04,0.11 0.12,0.11l2.01 0c0.04,0 0.04,0 0.12,-0.04 0,-0.08 0,-0.08 0,-0.12l-10.06 -28.2zm14.7 28.13l0 -28.13 0 -0.04c-0.04,-0.04 -0.04,-0.04 -0.12,-0.04l-2.01 0c0,0 -0.04,0 -0.04,0.04 -0.08,0 -0.08,0.04 -0.08,0.04l0 28.24c0,0 0,0.08 0.08,0.08 0,0.04 0.04,0.04 0.04,0.04l2.01 0 0 0 10.06 0c0.12,0 0.16,-0.04 0.16,-0.11 0,-0.08 -0.04,-0.12 -0.16,-0.12l-9.94 0zm14.74 -28.17c-0.04,-0.04 -0.04,-0.04 -0.12,-0.04l-2.01 0c0,0 -0.04,0 -0.04,0.04 -0.07,0 -0.07,0.04 -0.07,0.04l0 28.24c0,0 0,0.08 0.07,0.08 0,0.04 0.04,0.04 0.04,0.04l2.01 0c0.08,0 0.08,0 0.12,-0.04l0 -0.08 0 -28.24 0 -0.04zm10.6 -0.04l-2.05 0 -6.04 0c-0.04,0 -0.12,0.04 -0.12,0.08 0,0.12 0.08,0.15 0.12,0.15l5.96 0 0 28.09c0,0 0,0.08 0.04,0.08 0,0.04 0.04,0.04 0.04,0.04l2.05 0c0.04,0 0.04,0 0.08,-0.04l0 -0.08 0 -28.09 5.96 0c0.04,0 0.07,-0.04 0.07,-0.15 0,-0.04 -0.04,-0.08 -0.07,-0.08l-6.04 0zm20.7 0c-0.04,0 -0.15,0 -0.15,0.08l-4.91 13.07 -4.65 -13.07c-0.04,-0.04 -0.04,-0.08 -0.12,-0.08l-2.01 0c-0.04,0 -0.11,0 -0.11,0.04 0,0.04 0,0.04 0,0.11l4.76 13.27 0 14.9c0,0 0,0.08 0.04,0.08 0,0.04 0.04,0.04 0.04,0.04l2.06 0c0,0 0.04,0 0.04,-0.04 0.04,0 0.04,-0.08 0.04,-0.08l0 -14.78 5.03 -13.39c0.08,-0.07 0,-0.11 -0.04,-0.15z"/>
   <polygon class="fil1" points="299.1,154.69 332.67,173.48 311.19,212.42 351.91,177.96 355.49,254.94 424.42,62.95 465.13,113.52 475.87,99.64 601.18,251.35 530.48,151.56 612.81,192.73 585.07,131.42 658.02,195.41 595.81,109.49 696.06,200.79 678.15,150.22 762.29,216.44 668.31,113.52 657.56,145.3 594.91,91.59 532.26,138.13 479.9,73.23 465.13,85.32 427.09,42.36 319.24,153.8 297.76,135.9 203.33,224.95 "/>
   <path class="fil1" d="M872.61 317.81c8.9,0 16.1,7.22 16.1,16.12 0,8.89 -7.2,16.11 -16.1,16.11 -8.91,0 -16.11,-7.22 -16.11,-16.11 0,-8.89 7.2,-16.12 16.11,-16.12z"/>
   <path class="fil1" d="M129.72 317.81c8.9,0 16.1,7.22 16.1,16.12 0,8.89 -7.2,16.11 -16.1,16.11 -8.91,0 -16.11,-7.22 -16.11,-16.11 0,-8.89 7.2,-16.12 16.11,-16.12z"/>
   <polygon class="fil1" points="111.29,417.59 274.19,417.59 274.19,422.95 111.29,422.95 "/>
   <polygon class="fil1" points="111.29,445.33 274.19,445.33 274.19,450.7 111.29,450.7 "/>
   <polygon class="fil1" points="716.95,417.59 879.85,417.59 879.85,422.95 716.95,422.95 "/>
   <polygon class="fil1" points="716.95,445.33 879.85,445.33 879.85,450.7 716.95,450.7 "/>
  </g>
 </g>
</svg>
