<?xml version="1.0" encoding="UTF-8"?>
<!DOCTYPE svg PUBLIC "-//W3C//DTD SVG 1.1//EN" "http://www.w3.org/Graphics/SVG/1.1/DTD/svg11.dtd">
<!-- Creator: CorelDRAW 2021 (64-Bit) -->
<svg xmlns="http://www.w3.org/2000/svg" xml:space="preserve" width="0.999992in" height="0.499992in" version="1.1" style="shape-rendering:geometricPrecision; text-rendering:geometricPrecision; image-rendering:optimizeQuality; fill-rule:evenodd; clip-rule:evenodd"
viewBox="0 0 999.99 499.99"
 xmlns:xlink="http://www.w3.org/1999/xlink"
 xmlns:xodm="http://www.corel.com/coreldraw/odm/2003">
 <defs>
  <style type="text/css">
   <![CDATA[
    .fil2 {fill:#FEFEFE;fill-rule:nonzero}
    .fil1 {fill:#B93840;fill-rule:nonzero}
    .fil3 {fill:#303B5D;fill-rule:nonzero}
    .fil0 {fill:black;fill-rule:nonzero}
   ]]>
  </style>
 </defs>
 <g id="Layer_x0020_1">
  <metadata id="CorelCorpID_0Corel-Layer"/>
  <path class="fil0" d="M68.29 383.2l33.69 0c9.82,0 17.08,-2.17 21.78,-6.53 4.7,-4.35 7.06,-9.82 7.06,-16.41 0,-4.84 -1.17,-9.24 -3.51,-13.2 -2.34,-3.96 -5.63,-7.09 -9.89,-9.42 -4.25,-2.32 -9.22,-3.48 -14.94,-3.48l-34.19 0 0 49.04zm0 -59.35l32.38 0c5.02,0 9.41,-1.04 13.18,-3.11 3.78,-2.07 6.72,-4.93 8.82,-8.57 2.11,-3.65 3.17,-7.81 3.17,-12.5 0,-6.75 -2.19,-12.26 -6.59,-16.5 -4.39,-4.25 -10.94,-6.37 -19.64,-6.37l-31.32 0 0 47.05zm-11.62 69.79l0 -127.28 42.94 0c8.29,0 15.2,1.45 20.73,4.35 5.53,2.9 9.67,6.85 12.45,11.87 2.78,5.02 4.17,10.71 4.17,17.09 0,5.3 -0.9,9.85 -2.68,13.61 -1.78,3.77 -4.2,6.81 -7.28,9.14 -3.06,2.32 -6.48,4 -10.25,5.04l0 0.99c4.11,0.29 8.08,1.73 11.93,4.31 3.86,2.6 7.03,6.21 9.51,10.85 2.48,4.63 3.73,10.19 3.73,16.65 0,6.43 -1.43,12.15 -4.29,17.2 -2.85,5.03 -7.24,8.98 -13.14,11.87 -5.91,2.88 -13.41,4.31 -22.53,4.31l-45.3 0z"/>
  <path class="fil0" d="M164.67 298.19l11.13 0 0 95.46 -11.13 0 0 -95.46zm5.66 -16.41c-2.28,0 -4.23,-0.78 -5.85,-2.33 -1.61,-1.56 -2.43,-3.43 -2.43,-5.63 0,-2.19 0.82,-4.07 2.46,-5.62 1.63,-1.56 3.57,-2.33 5.81,-2.33 2.27,0 4.22,0.77 5.84,2.33 1.62,1.56 2.43,3.43 2.43,5.62 0,2.19 -0.82,4.07 -2.46,5.63 -1.63,1.56 -3.57,2.33 -5.8,2.33z"/>
  <path class="fil0" d="M238.39 385.5c6.63,0 12.25,-1.78 16.84,-5.35 4.6,-3.56 8.09,-8.3 10.47,-14.23 2.39,-5.92 3.58,-12.44 3.58,-19.57 0,-7.13 -1.19,-13.68 -3.58,-19.64 -2.38,-5.97 -5.87,-10.75 -10.47,-14.35 -4.59,-3.6 -10.21,-5.41 -16.84,-5.41 -6.59,0 -12.19,1.81 -16.81,5.41 -4.61,3.6 -8.12,8.38 -10.5,14.35 -2.38,5.96 -3.57,12.51 -3.57,19.64 0,7.13 1.2,13.65 3.57,19.57 2.38,5.94 5.87,10.67 10.48,14.23 4.59,3.57 10.21,5.35 16.84,5.35zm0 10.13c-8.25,0 -15.53,-2.09 -21.84,-6.28 -6.32,-4.19 -11.27,-9.98 -14.83,-17.37 -3.56,-7.39 -5.34,-15.94 -5.34,-25.63 0,-9.78 1.78,-18.39 5.34,-25.83 3.56,-7.43 8.5,-13.24 14.83,-17.4 6.31,-4.16 13.59,-6.24 21.84,-6.24 8.25,0 15.51,2.09 21.82,6.27 6.3,4.19 11.23,10 14.82,17.41 3.59,7.41 5.37,16.02 5.37,25.8 0,9.69 -1.78,18.24 -5.34,25.63 -3.57,7.4 -8.5,13.19 -14.83,17.37 -6.32,4.19 -13.59,6.28 -21.84,6.28z"/>
  <polygon class="fil0" points="303.86,393.65 303.86,266.36 315.49,266.36 315.49,383.2 376.15,383.2 376.15,393.65 "/>
  <path class="fil0" d="M424.51 385.69c5.88,0 10.98,-1.31 15.29,-3.91 4.31,-2.61 7.64,-6.08 9.98,-10.41 2.34,-4.33 3.51,-9.1 3.51,-14.33l0 -13.79c-0.82,0.79 -2.2,1.49 -4.13,2.12 -1.93,0.62 -4.15,1.17 -6.66,1.64 -2.5,0.48 -5,0.89 -7.49,1.22 -2.48,0.33 -4.72,0.62 -6.7,0.87 -5.39,0.67 -9.98,1.7 -13.8,3.11 -3.82,1.41 -6.73,3.35 -8.76,5.81 -2.03,2.46 -3.05,5.63 -3.05,9.48 0,5.8 2.07,10.28 6.22,13.45 4.15,3.17 9.35,4.76 15.6,4.76zm-1.49 10.13c-5.76,0 -11.02,-1.13 -15.79,-3.39 -4.76,-2.26 -8.56,-5.53 -11.38,-9.82 -2.81,-4.28 -4.22,-9.5 -4.22,-15.63 0,-4.72 0.9,-8.7 2.68,-11.94 1.78,-3.23 4.31,-5.88 7.57,-7.96 3.28,-2.07 7.16,-3.7 11.63,-4.91 4.47,-1.19 9.4,-2.13 14.79,-2.8 5.34,-0.66 9.87,-1.24 13.58,-1.74 3.7,-0.5 6.54,-1.29 8.48,-2.36 1.95,-1.07 2.93,-2.81 2.93,-5.22l0 -2.23c0,-6.5 -1.93,-11.64 -5.81,-15.39 -3.87,-3.75 -9.44,-5.63 -16.69,-5.63 -6.88,0 -12.48,1.52 -16.81,4.54 -4.32,3.02 -7.36,6.59 -9.11,10.69l-10.5 -3.79c2.15,-5.22 5.13,-9.4 8.95,-12.52 3.81,-3.13 8.07,-5.39 12.8,-6.78 4.73,-1.38 9.51,-2.08 14.36,-2.08 3.65,0 7.45,0.47 11.41,1.43 3.96,0.95 7.64,2.6 11.03,4.94 3.4,2.34 6.15,5.59 8.26,9.75 2.12,4.16 3.17,9.44 3.17,15.82l0 64.81 -11.06 0 0 -15.1 -0.68 0c-1.33,2.82 -3.3,5.56 -5.91,8.2 -2.61,2.65 -5.88,4.82 -9.82,6.52 -3.94,1.7 -8.56,2.55 -13.86,2.55z"/>
  <path class="fil0" d="M502.36 345.98c0,7.7 1.15,14.53 3.45,20.48 2.3,5.95 5.61,10.61 9.94,13.98 4.33,3.38 9.58,5.06 15.75,5.06 6.35,0 11.71,-1.74 16.1,-5.25 4.39,-3.49 7.73,-8.23 10.01,-14.2 2.28,-5.97 3.41,-12.66 3.41,-20.07 0,-7.33 -1.13,-13.94 -3.39,-19.82 -2.25,-5.89 -5.58,-10.56 -9.98,-14.02 -4.39,-3.46 -9.78,-5.19 -16.16,-5.19 -6.21,0 -11.48,1.66 -15.81,5 -4.33,3.34 -7.64,7.94 -9.92,13.8 -2.28,5.86 -3.41,12.6 -3.41,20.23zm-10.94 47.67l0 -127.29 11.13 0 0 50.04 0.99 0c1.25,-2.85 3.04,-5.8 5.37,-8.83 2.35,-3.02 5.43,-5.56 9.26,-7.62 3.83,-2.05 8.67,-3.07 14.52,-3.07 7.83,0 14.71,2.06 20.63,6.19 5.93,4.12 10.54,9.88 13.86,17.28 3.31,7.4 4.98,16 4.98,25.83 0,9.85 -1.65,18.5 -4.94,25.91 -3.29,7.43 -7.89,13.2 -13.8,17.34 -5.91,4.15 -12.75,6.22 -20.54,6.22 -5.8,0 -10.64,-1.04 -14.51,-3.11 -3.88,-2.07 -6.99,-4.63 -9.35,-7.68 -2.36,-3.04 -4.19,-6.02 -5.47,-8.92l-1.37 0 0 17.72 -10.75 0z"/>
  <path class="fil0" d="M655.52 319.13l-10.13 2.87c-1,-2.87 -2.4,-5.46 -4.22,-7.78 -1.82,-2.32 -4.2,-4.16 -7.12,-5.53 -2.91,-1.37 -6.54,-2.06 -10.84,-2.06 -6.46,0 -11.76,1.54 -15.91,4.6 -4.15,3.07 -6.22,7.03 -6.22,11.88 0,4.1 1.42,7.42 4.26,9.96 2.84,2.56 7.22,4.57 13.15,6.06l14.41 3.54c8,1.94 14,5.03 18,9.26 4,4.22 5.99,9.53 5.99,15.91 0,5.38 -1.48,10.17 -4.47,14.35 -2.98,4.19 -7.14,7.47 -12.46,9.85 -5.32,2.38 -11.49,3.57 -18.49,3.57 -9.32,0 -17.01,-2.09 -23.06,-6.3 -6.06,-4.2 -9.92,-10.29 -11.63,-18.24l10.63 -2.61c1.37,5.68 4.05,9.97 8.05,12.87 4,2.9 9.27,4.35 15.81,4.35 7.33,0 13.2,-1.65 17.59,-4.94 4.39,-3.29 6.59,-7.42 6.59,-12.39 0,-3.85 -1.28,-7.09 -3.85,-9.72 -2.57,-2.63 -6.46,-4.57 -11.68,-5.81l-15.6 -3.73c-8.29,-1.99 -14.42,-5.14 -18.4,-9.44 -3.97,-4.31 -5.96,-9.66 -5.96,-16.03 0,-5.26 1.43,-9.9 4.28,-13.9 2.87,-4 6.8,-7.14 11.81,-9.42 5.01,-2.28 10.73,-3.41 17.16,-3.41 8.74,0 15.74,1.98 20.98,5.93 5.24,3.96 9.02,9.39 11.34,16.31z"/>
  <polygon class="fil0" points="136.34,191.49 135.22,191.49 80.28,111.44 56.66,111.44 56.66,238.72 83.57,238.72 83.57,158.61 84.51,158.61 139.89,238.72 163.13,238.72 163.13,111.44 136.34,111.44 "/>
  <path class="fil0" d="M341.16 141.89c-5.35,0 -10.07,1.52 -14.17,4.57 -4.1,3.04 -7.02,7.54 -8.76,13.46l-0.99 0 0 -16.66 -25.67 0 0 95.46 26.48 0 0 -54.01c0,-3.89 0.87,-7.33 2.64,-10.31 1.76,-2.98 4.16,-5.31 7.2,-6.99 3.04,-1.69 6.52,-2.52 10.41,-2.52 1.82,0 3.83,0.15 6.02,0.43 2.2,0.3 3.92,0.63 5.16,1l0 -23.5c-1.16,-0.28 -2.5,-0.52 -4.03,-0.68 -1.54,-0.16 -2.97,-0.25 -4.3,-0.25z"/>
  <polygon class="fil0" points="457.39,207.03 456.58,207.03 440.92,143.26 414.63,143.26 399.22,207.4 398.35,207.4 383.56,143.26 356.77,143.26 382.75,238.72 410.72,238.72 427.13,178.69 428.31,178.69 444.72,238.72 472.74,238.72 498.66,143.26 471.93,143.26 "/>
  <path class="fil0" d="M527.73 181.36c0.17,-3.42 1.03,-6.57 2.64,-9.42 1.74,-3.08 4.15,-5.55 7.24,-7.39 3.09,-1.84 6.64,-2.76 10.65,-2.76 3.85,0 7.24,0.83 10.17,2.51 2.92,1.69 5.21,3.99 6.86,6.93 1.66,2.94 2.49,6.32 2.49,10.13l-40.05 0zm52.01 -27.28c-4.07,-4.02 -8.84,-7.04 -14.29,-9.05 -5.44,-2.01 -11.32,-3.01 -17.62,-3.01 -9.36,0 -17.51,2.07 -24.45,6.21 -6.94,4.15 -12.31,9.93 -16.13,17.34 -3.81,7.42 -5.71,16.04 -5.71,25.86 0,10.07 1.9,18.77 5.71,26.13 3.82,7.35 9.26,13.03 16.31,17.03 7.07,4 15.5,5.99 25.32,5.99 7.88,0 14.83,-1.21 20.86,-3.64 6.03,-2.41 10.96,-5.81 14.79,-10.19 3.83,-4.37 6.37,-9.49 7.61,-15.38l-24.48 -1.61c-0.91,2.4 -2.24,4.43 -3.98,6.09 -1.74,1.66 -3.83,2.89 -6.28,3.73 -2.44,0.82 -5.13,1.24 -8.07,1.24 -4.44,0 -8.26,-0.93 -11.5,-2.8 -3.24,-1.87 -5.73,-4.52 -7.49,-7.95 -1.76,-3.44 -2.64,-7.53 -2.64,-12.25l0 -0.06 65.01 0 0 -7.28c0,-8.12 -1.13,-15.21 -3.41,-21.29 -2.28,-6.07 -5.46,-11.11 -9.55,-15.13z"/>
  <path class="fil0" d="M667.7 205.07c-1.6,4 -3.88,7.07 -6.84,9.2 -2.96,2.13 -6.58,3.2 -10.84,3.2 -4.35,0 -8.01,-1.09 -10.98,-3.27 -2.96,-2.17 -5.21,-5.26 -6.77,-9.25 -1.56,-4 -2.33,-8.76 -2.33,-14.27 0,-5.43 0.77,-10.22 2.3,-14.35 1.53,-4.15 3.79,-7.39 6.78,-9.73 2.98,-2.33 6.65,-3.52 11,-3.52 4.26,0 7.89,1.15 10.87,3.43 2.98,2.28 5.26,5.48 6.84,9.6 1.57,4.13 2.35,8.98 2.35,14.57 0,5.59 -0.8,10.39 -2.39,14.39zm2.14 -45.78l-0.99 0c-1.2,-2.56 -2.91,-5.19 -5.13,-7.86 -2.21,-2.67 -5.13,-4.91 -8.73,-6.7 -3.6,-1.81 -8.07,-2.71 -13.43,-2.71 -7,0 -13.43,1.81 -19.3,5.41 -5.86,3.61 -10.55,9.04 -14.07,16.29 -3.52,7.25 -5.28,16.28 -5.28,27.1 0,10.56 1.73,19.29 5.2,26.19 3.46,6.9 8.12,12.02 13.98,15.34 5.86,3.35 12.38,5 19.54,5 5.06,0 9.41,-0.74 13.06,-2.24 3.64,-1.48 6.63,-3.41 8.95,-5.78 2.31,-2.36 4.06,-4.87 5.22,-7.52l1.12 0 0 17.47c0,6.54 -1.87,11.21 -5.62,14.01 -3.75,2.8 -8.51,4.2 -14.27,4.2 -3.85,0 -7.11,-0.51 -9.78,-1.52 -2.67,-1.02 -4.81,-2.36 -6.43,-4.01 -1.62,-1.66 -2.8,-3.44 -3.54,-5.35l-24.48 3.3c1.07,5.01 3.41,9.53 7.02,13.55 3.6,4.02 8.46,7.2 14.57,9.54 6.11,2.34 13.46,3.51 22.03,3.51 9.12,0 17.19,-1.38 24.21,-4.13 7.02,-2.76 12.52,-6.87 16.5,-12.34 3.98,-5.47 5.97,-12.26 5.97,-20.38l0 -96.4 -26.29 0 0 16.03z"/>
  <path class="fil0" d="M727.22 104.17c-3.9,0 -7.25,1.31 -10.07,3.94 -2.82,2.63 -4.22,5.79 -4.22,9.48 0,3.69 1.4,6.83 4.2,9.44 2.79,2.61 6.15,3.92 10.09,3.92 3.94,0 7.3,-1.31 10.09,-3.94 2.8,-2.63 4.2,-5.79 4.2,-9.48 0,-3.69 -1.4,-6.83 -4.2,-9.45 -2.8,-2.61 -6.16,-3.91 -10.09,-3.91z"/>
  <polygon class="fil0" points="713.93,238.72 740.4,238.72 740.4,143.27 713.93,143.27 "/>
  <path class="fil0" d="M811.93 204.6c0,3.35 -0.85,6.36 -2.54,9.01 -1.7,2.65 -4.04,4.76 -7.03,6.3 -2.98,1.56 -6.43,2.33 -10.32,2.33 -4.06,0 -7.41,-0.94 -10.04,-2.82 -2.63,-1.89 -3.94,-4.64 -3.94,-8.24 0,-2.48 0.63,-4.57 1.93,-6.24 1.28,-1.68 3.08,-3.02 5.4,-4.01 2.32,-1 5.03,-1.72 8.15,-2.17 1.45,-0.21 3.06,-0.45 4.85,-0.71 1.78,-0.28 3.56,-0.59 5.34,-0.94 1.78,-0.35 3.39,-0.75 4.81,-1.18 1.43,-0.44 2.56,-0.92 3.39,-1.46l0 10.13zm14.02 -54.94c-3.79,-2.61 -8.13,-4.54 -13,-5.78 -4.87,-1.25 -9.95,-1.87 -15.25,-1.87 -7.62,0 -14.33,1.15 -20.11,3.45 -5.78,2.3 -10.49,5.57 -14.14,9.82 -3.65,4.25 -6.09,9.27 -7.33,15.07l24.49 1.98c0.91,-3.15 2.78,-5.77 5.59,-7.86 2.82,-2.09 6.61,-3.14 11.38,-3.14 4.51,0 8.01,1.07 10.46,3.23 2.47,2.16 3.7,5.2 3.7,9.13l0 0.38c0,2.03 -0.76,3.56 -2.3,4.59 -1.53,1.04 -4,1.81 -7.39,2.33 -3.4,0.52 -7.87,1.07 -13.43,1.65 -4.72,0.46 -9.23,1.24 -13.52,2.37 -4.29,1.11 -8.11,2.78 -11.46,4.97 -3.35,2.19 -6.01,5.09 -7.96,8.7 -1.95,3.6 -2.92,8.06 -2.92,13.35 0,6.3 1.37,11.55 4.14,15.75 2.75,4.2 6.51,7.38 11.28,9.51 4.76,2.13 10.2,3.2 16.28,3.2 4.72,0 8.89,-0.63 12.49,-1.89 3.6,-1.26 6.69,-3.02 9.26,-5.28 2.57,-2.26 4.62,-4.89 6.16,-7.87l0.74 0 0 13.24 25.11 0 0 -64.39c0,-5.68 -1.1,-10.56 -3.3,-14.64 -2.19,-4.08 -5.19,-7.43 -8.98,-10.04z"/>
  <path class="fil0" d="M939.22 158.77c-2.74,-5.37 -6.57,-9.5 -11.5,-12.4 -4.93,-2.9 -10.71,-4.35 -17.33,-4.35 -7.09,0 -13.12,1.63 -18.09,4.89 -4.97,3.25 -8.51,7.65 -10.63,13.2l-1.12 0 0 -16.84 -25.23 0 0 95.46 26.47 0 0 -55.19c0.05,-4.1 0.83,-7.61 2.33,-10.54 1.52,-2.93 3.63,-5.15 6.35,-6.68 2.71,-1.53 5.85,-2.3 9.41,-2.3 5.31,0 9.47,1.65 12.5,4.94 3.03,3.3 4.52,7.86 4.47,13.71l0 56.05 26.48 0 0 -60.78c0,-7.41 -1.37,-13.8 -4.1,-19.17z"/>
  <path class="fil0" d="M259.82 198.3l-23.16 0 0 23.16 -18.44 0 0 -23.16 -23.16 0 0 -18.44 23.16 0 0 -23.16 18.44 0 0 23.16 23.16 0 0 18.44zm-32.38 -58.91c-27.44,0 -49.69,22.25 -49.69,49.69 0,27.44 22.25,49.69 49.69,49.69 27.44,0 49.69,-22.25 49.69,-49.69 0,-27.44 -22.24,-49.69 -49.69,-49.69z"/>
  <polygon class="fil1" points="943.32,393.55 713.87,393.55 713.87,266.43 943.32,266.43 "/>
  <polygon class="fil2" points="817.01,314.11 817.01,266.43 786.18,266.43 786.18,314.11 713.87,314.11 713.87,345.87 786.18,345.87 786.18,393.55 817.01,393.55 817.01,345.87 943.32,345.87 943.32,314.11 "/>
  <polygon class="fil3" points="809.29,321.98 809.29,266.43 793.9,266.43 793.9,321.98 713.87,321.98 713.87,338 793.9,338 793.9,393.55 809.29,393.55 809.29,338 943.32,338 943.32,321.98 "/>
 </g>
</svg>
