<?xml version="1.0" encoding="UTF-8"?>
<!DOCTYPE svg PUBLIC "-//W3C//DTD SVG 1.1//EN" "http://www.w3.org/Graphics/SVG/1.1/DTD/svg11.dtd">
<!-- Creator: CorelDRAW 2021 (64-Bit) -->
<svg xmlns="http://www.w3.org/2000/svg" xml:space="preserve" width="0.999992in" height="0.499992in" version="1.1" style="shape-rendering:geometricPrecision; text-rendering:geometricPrecision; image-rendering:optimizeQuality; fill-rule:evenodd; clip-rule:evenodd"
viewBox="0 0 999.99 499.99"
 xmlns:xlink="http://www.w3.org/1999/xlink"
 xmlns:xodm="http://www.corel.com/coreldraw/odm/2003">
 <defs>
  <style type="text/css">
   <![CDATA[
    .fil0 {fill:#363435}
    .fil1 {fill:#5A4A3D}
    .fil3 {fill:#CEAC86}
    .fil2 {fill:#FEFDFD}
   ]]>
  </style>
 </defs>
 <g id="Layer_x0020_1">
  <metadata id="CorelCorpID_0Corel-Layer"/>
  <polygon class="fil0" points="-0,500 1000,500 1000,-0 -0,-0 "/>
  <path class="fil1" d="M-0 10.01l-0 489.98 999.33 -0c2.15,-163.49 -1.72,-328.6 0.13,-492.1l-0.06 -7.43c-320.34,-1 -646.49,-0.07 -967.49,-0.07l-31.73 0.08 -0.18 9.54z"/>
  <g id="_1654708996608">
   <path class="fil2" d="M312.67 352.5l90.08 -24.07c13,-3.8 13.54,-12.66 26.23,-31.62l22.22 -35.65c3.57,2.63 11.5,16.44 15.59,22.55 5.3,7.92 9.87,15.52 14.93,23.16 23.32,-2.09 3.73,-10.04 42.93,-0.33l43.82 10.97c-5.02,-7.45 -9.06,-15.97 -13.94,-24.07l-86.55 -149.5c-2.92,-5.39 -11.15,-21.26 -15.17,-24.36 -1.58,5.9 -66.24,110.56 -69.6,116.22 -20.93,35.25 -52.05,83.29 -70.54,116.71z"/>
   <path class="fil0" d="M466.43 98.23c2.61,7.69 128.95,226.99 129.2,227.18 2.12,1.62 86.37,25.52 92.94,26.88 -13.56,-26.15 -30.41,-52.26 -44.92,-79.51 -13.63,-25.6 -30.8,-54.37 -45.23,-79.54 -30.73,-53.6 -60.91,-107.37 -90.99,-160.12 -3.62,2.75 -36.52,56.95 -41.01,65.11z"/>
   <path class="fil3" d="M623.34 465.28c27.37,-0.34 65.67,8.06 65.59,-38.11 -0.08,-48.29 -36.61,-38.95 -65.67,-39.69l0.07 77.81z"/>
   <path class="fil3" d="M241.05 465.26l16.87 0c0.86,-4.63 4.15,-14.42 6.03,-18.3l29.05 0.02 5.22 14.42c2.88,4.96 0.26,3.88 17.54,3.79l-21.8 -57.41c-2.67,-6.81 -5.64,-13.63 -7.17,-20.22l-16.8 -0c-1.15,5.16 -4.77,13.31 -6.94,18.93l-21.99 58.77z"/>
   <polygon class="fil3" points="700.98,398.24 700.97,465.26 758.94,465.24 758.87,451.57 716.17,451.55 716.22,431.74 754.26,431.74 754.28,418.02 716.25,418.02 716.22,401.28 757.35,401.29 757.35,387.48 700.97,387.58 "/>
   <path class="fil3" d="M608.15 387.48l-15.3 0.06c0.04,13.15 -0.05,26.4 0.01,39.64 0.07,15.58 0.52,25.96 -15.2,26.02 -15.15,0.06 -16.9,-9.1 -16.79,-24.48 0.09,-13.72 0.02,-27.46 0.03,-41.18l-15.3 0.03c0.19,15.74 -1.47,39.87 0.4,54.47 2.12,16.6 10.54,24.66 30.11,24.84 19.71,0.19 29.3,-6.88 31.66,-23.31 1.98,-13.75 0.24,-40.77 0.38,-56.09z"/>
   <polygon class="fil3" points="379.65,401.3 402.53,401.28 402.5,465.26 417.81,465.22 417.74,401.27 440.58,401.28 440.57,387.5 379.63,387.55 "/>
   <polygon class="fil3" points="475.61,401.28 498.47,401.26 498.44,465.27 513.78,465.26 513.67,401.26 536.54,401.29 536.52,387.55 475.59,387.55 "/>
   <polygon class="fil3" points="314.19,399.76 337.04,401.26 337.03,465.31 352.23,465.24 352.25,401.26 375.11,401.3 375.08,387.57 314.11,387.56 "/>
   <path class="fil1" d="M638.57 402.8l0.01 48.81c24.48,-0.48 34.85,2.25 35.13,-24.44 0.27,-26.04 -10.26,-25.91 -35.15,-25.91l0.01 1.53z"/>
   <polygon class="fil3" points="449.72,448.49 449.71,457.63 449.66,465.27 465.05,465.26 464.93,457.63 464.95,393.67 464.97,387.47 449.73,387.56 "/>
   <polygon class="fil1" points="268.37,433.33 288.35,433.24 277.71,405.83 "/>
  </g>
 </g>
</svg>
