<?xml version="1.0" encoding="UTF-8"?>
<!DOCTYPE svg PUBLIC "-//W3C//DTD SVG 1.1//EN" "http://www.w3.org/Graphics/SVG/1.1/DTD/svg11.dtd">
<!-- Creator: CorelDRAW 2021 (64-Bit) -->
<svg xmlns="http://www.w3.org/2000/svg" xml:space="preserve" width="0.999992in" height="0.499992in" version="1.1" style="shape-rendering:geometricPrecision; text-rendering:geometricPrecision; image-rendering:optimizeQuality; fill-rule:evenodd; clip-rule:evenodd"
viewBox="0 0 999.99 499.99"
 xmlns:xlink="http://www.w3.org/1999/xlink"
 xmlns:xodm="http://www.corel.com/coreldraw/odm/2003">
 <defs>
  <style type="text/css">
   <![CDATA[
    .fil1 {fill:#BF803D;fill-rule:nonzero}
    .fil0 {fill:#201E1E;fill-rule:nonzero}
    .fil3 {fill:url(#id0)}
    .fil6 {fill:url(#id1)}
    .fil9 {fill:url(#id2)}
    .fil7 {fill:url(#id3)}
    .fil2 {fill:url(#id4)}
    .fil5 {fill:url(#id5)}
    .fil4 {fill:url(#id6)}
    .fil8 {fill:url(#id7)}
   ]]>
  </style>
  <linearGradient id="id0" gradientUnits="userSpaceOnUse" x1="646.98" y1="284.82" x2="514.64" y2="284.82">
   <stop offset="0" style="stop-opacity:1; stop-color:#5AB252"/>
   <stop offset="0.478431" style="stop-opacity:1; stop-color:#78BF60"/>
   <stop offset="0.639216" style="stop-opacity:1; stop-color:#97CC6E"/>
   <stop offset="0.823529" style="stop-opacity:1; stop-color:#9ACD71"/>
   <stop offset="1" style="stop-opacity:1; stop-color:#9DCE74"/>
  </linearGradient>
  <linearGradient id="id1" gradientUnits="userSpaceOnUse" x1="500.11" y1="139.3" x2="365.79" y2="139.3">
   <stop offset="0" style="stop-opacity:1; stop-color:#88BC69"/>
   <stop offset="0.568627" style="stop-opacity:1; stop-color:#569152"/>
   <stop offset="0.768627" style="stop-opacity:1; stop-color:#23653A"/>
   <stop offset="0.894118" style="stop-opacity:1; stop-color:#23643A"/>
   <stop offset="1" style="stop-opacity:1; stop-color:#23633A"/>
  </linearGradient>
  <linearGradient id="id2" gradientUnits="userSpaceOnUse" x1="574.5" y1="161.59" x2="440.37" y2="161.59">
   <stop offset="0" style="stop-opacity:1; stop-color:#2D8141"/>
   <stop offset="0.32549" style="stop-opacity:1; stop-color:#66A75A"/>
   <stop offset="0.4" style="stop-opacity:1; stop-color:#9FCE74"/>
   <stop offset="0.454902" style="stop-opacity:1; stop-color:#6FA55E"/>
   <stop offset="0.580392" style="stop-opacity:1; stop-color:#3F7B48"/>
   <stop offset="1" style="stop-opacity:1; stop-color:#215E39"/>
  </linearGradient>
  <linearGradient id="id3" gradientUnits="userSpaceOnUse" x1="605.65" y1="152.94" x2="409.31" y2="152.94">
   <stop offset="0" style="stop-opacity:1; stop-color:#94C670"/>
   <stop offset="0.137255" style="stop-opacity:1; stop-color:#5F9559"/>
   <stop offset="0.368627" style="stop-opacity:1; stop-color:#296442"/>
   <stop offset="1" style="stop-opacity:1; stop-color:#23643A"/>
  </linearGradient>
  <linearGradient id="id4" gradientUnits="userSpaceOnUse" x1="605.65" y1="258.34" x2="409.31" y2="258.34">
   <stop offset="0" style="stop-opacity:1; stop-color:#4EA74F"/>
   <stop offset="0.478431" style="stop-opacity:1; stop-color:#255C3F"/>
   <stop offset="1" style="stop-opacity:1; stop-color:#53AC54"/>
  </linearGradient>
  <linearGradient id="id5" gradientUnits="userSpaceOnUse" x1="647.29" y1="139.31" x2="514.28" y2="139.31">
   <stop offset="0" style="stop-opacity:1; stop-color:#205A39"/>
   <stop offset="0.0901961" style="stop-opacity:1; stop-color:#23633A"/>
   <stop offset="0.188235" style="stop-opacity:1; stop-color:#266D3B"/>
   <stop offset="0.45098" style="stop-opacity:1; stop-color:#619D58"/>
   <stop offset="1" style="stop-opacity:1; stop-color:#9DCE75"/>
  </linearGradient>
  <linearGradient id="id6" gradientUnits="userSpaceOnUse" x1="498.75" y1="285.09" x2="366.92" y2="285.09">
   <stop offset="0" style="stop-opacity:1; stop-color:#A3CC72"/>
   <stop offset="0.321569" style="stop-opacity:1; stop-color:#86BF65"/>
   <stop offset="0.501961" style="stop-opacity:1; stop-color:#69B157"/>
   <stop offset="0.729412" style="stop-opacity:1; stop-color:#498B4B"/>
   <stop offset="1" style="stop-opacity:1; stop-color:#28653E"/>
  </linearGradient>
  <linearGradient id="id7" gradientUnits="userSpaceOnUse" x1="574.18" y1="199.58" x2="440.37" y2="199.58">
   <stop offset="0" style="stop-opacity:1; stop-color:#215E3B"/>
   <stop offset="0.360784" style="stop-opacity:1; stop-color:#2A7440"/>
   <stop offset="0.45098" style="stop-opacity:1; stop-color:#338B45"/>
   <stop offset="0.572549" style="stop-opacity:1; stop-color:#68AC5C"/>
   <stop offset="1" style="stop-opacity:1; stop-color:#9DCE74"/>
  </linearGradient>
 </defs>
 <g id="Layer_x0020_1">
  <metadata id="CorelCorpID_0Corel-Layer"/>
  <g id="_2636239372960">
   <path class="fil0" d="M280.26 368.42c-0.36,0 -0.75,-0.46 -1.15,-1.39 -2.31,-5.24 -5.41,-9.26 -9.27,-12.1 -3.87,-2.82 -8,-4.22 -12.36,-4.22 -3.59,0 -7.07,1.11 -10.44,3.29 -3.35,2.21 -6.09,5.59 -8.22,10.17 -2.13,4.57 -3.18,9.45 -3.18,14.62 0.01,7.38 2.19,13.75 6.56,19.12 4.36,5.38 9.81,8.06 16.35,8.05 2.32,-0 4.29,-0.37 5.92,-1.1 1.65,-0.73 3.18,-1.77 4.63,-3.14 1.44,-1.37 2.32,-2.39 2.61,-3.06 0.31,-0.67 0.45,-2.44 0.45,-5.29 -0.01,-4.76 -0.64,-7.91 -1.89,-9.43 -1.26,-1.52 -3.27,-2.27 -6.03,-2.27l-1.33 0.05c-0.84,0 -1.25,-0.28 -1.26,-0.85 0,-0.69 0.46,-1.03 1.38,-1.03l2.3 0.09 9.75 -0.1 11.96 -0.28c0.66,0 0.98,0.3 0.98,0.89 0,0.59 -0.37,0.92 -1.11,0.98 -1.79,0.19 -3.24,0.57 -4.36,1.18 -1.12,0.61 -1.81,1.31 -2.07,2.1 -0.25,0.79 -0.38,2.09 -0.38,3.96 0,6.79 -0.15,10.52 -0.46,11.19 -0.32,0.67 -2.98,2.19 -8,4.58 -5.02,2.38 -10.06,3.57 -15.15,3.58 -8.41,0.01 -15.59,-2.72 -21.57,-8.17 -5.97,-5.45 -8.96,-12.35 -8.97,-20.7 -0,-5.75 1.4,-10.95 4.22,-15.6 2.83,-4.67 6.69,-8.28 11.6,-10.85 4.89,-2.57 9.88,-3.85 14.97,-3.86 4.76,-0 9.89,1.37 15.41,4.15 1.54,0.78 2.63,1.19 3.26,1.19 0.9,0 1.59,-0.39 2.07,-1.16 0.43,-0.65 0.83,-0.98 1.17,-0.98 0.66,0 1.05,0.83 1.17,2.51 0.17,2.64 0.59,6.66 1.24,12.06 0.06,0.3 0.09,0.56 0.09,0.79 0,0.7 -0.3,1.04 -0.89,1.04zm45.57 9.45c4,1.74 6.78,3.56 8.35,5.46 1.57,1.9 2.71,4.84 3.44,8.8 0.95,5.21 2.27,8.73 4,10.53 1.72,1.8 3.97,2.75 6.75,2.86 0.78,0.06 1.16,0.34 1.16,0.85 0,0.51 -0.44,0.76 -1.34,0.76 -8.02,0.01 -12.89,-0.26 -14.59,-0.79 -1.72,-0.53 -2.99,-3.51 -3.83,-8.89 -0.77,-5.24 -1.58,-9.07 -2.44,-11.5 -0.85,-2.42 -2.2,-4.28 -4.06,-5.57 -1.85,-1.29 -4.75,-1.93 -8.68,-1.92 -1.5,0 -3.19,0.17 -5.08,0.48 -0.15,1.83 -0.22,3.73 -0.22,5.71 0.01,7.44 0.12,12.27 0.31,14.45 0.21,2.18 0.83,3.78 1.84,4.78 1.02,1.01 2.72,1.53 5.1,1.59 1.05,0.03 1.56,0.28 1.56,0.75 0,0.57 -0.63,0.85 -1.9,0.85l-21.27 0.02c-1.23,0 -1.85,-0.28 -1.85,-0.85 0,-0.5 0.48,-0.76 1.45,-0.76 2.2,0 3.71,-0.33 4.54,-1 0.85,-0.67 1.51,-1.71 2,-3.12 0.48,-1.4 0.73,-3.96 0.72,-7.64l-0.09 -8.87 0.03 -13.52c-0.01,-6.91 -0.16,-11.47 -0.47,-13.7 -0.29,-2.23 -0.84,-3.73 -1.6,-4.5 -0.78,-0.76 -2.57,-1.36 -5.39,-1.79 -0.6,-0.09 -0.89,-0.34 -0.89,-0.75 0,-0.48 0.6,-0.72 1.8,-0.72l25.48 -0.56c7.03,-0.01 12.14,1.35 15.31,4.07 3.18,2.73 4.77,6.06 4.78,9.99 0,2.5 -0.64,4.77 -1.92,6.83 -1.28,2.05 -2.79,3.56 -4.54,4.47 -1.76,0.94 -4.59,2 -8.46,3.19zm-16.26 -1.1c5.5,-0.12 9.63,-0.51 12.36,-1.18 2.75,-0.67 5.09,-2.15 7.02,-4.41 1.93,-2.26 2.89,-4.95 2.89,-8.06 -0,-3.28 -1.07,-6.13 -3.22,-8.56 -2.15,-2.44 -5.59,-3.65 -10.31,-3.65 -2.57,0 -5.43,0.35 -8.54,1.05 -0.33,7.98 -0.5,14.33 -0.49,19.06 0,1.63 0.11,3.55 0.3,5.74zm89.39 -26.24c0.84,3.25 1.65,7.81 2.47,13.69 -0.13,0.22 -0.3,0.34 -0.45,0.34 -0.19,0 -0.41,-0.12 -0.63,-0.35 -1.99,-3.22 -3.89,-5.67 -5.7,-7.36 -1.81,-1.67 -3.63,-2.87 -5.46,-3.59 -1.82,-0.71 -4.95,-1.06 -9.41,-1.06 -4.2,0 -7.51,0.26 -9.95,0.75 -0.24,0.28 -0.35,0.82 -0.35,1.61 0,0.21 -0.03,0.57 -0.09,1.09 -0.28,2.33 -0.42,8.63 -0.41,18.89 0,0.43 0.03,1.04 0.09,1.83 2.19,0.08 3.68,0.13 4.48,0.13 3.63,-0 6.24,-0.56 7.88,-1.64 1.61,-1.08 3.04,-3.44 4.24,-7.03 0.19,-0.61 0.46,-0.93 0.79,-0.93 0.52,0 0.76,0.42 0.77,1.26l-0.15 1.74c-0.19,2.28 -0.29,4.65 -0.29,7.07 0,3.93 0.07,7.48 0.19,10.65 0,0.98 -0.26,1.47 -0.78,1.47 -0.38,0 -0.65,-0.34 -0.78,-1.04 -0.61,-3.41 -1.87,-5.88 -3.8,-7.39 -1.91,-1.5 -6.08,-2.25 -12.51,-2.24 -0.09,2.12 -0.13,5.54 -0.12,10.28 0,6.14 0.23,10.03 0.65,11.68 0.43,1.66 1.46,2.97 3.11,3.95 1.63,0.96 4.4,1.45 8.31,1.45 11.15,-0.01 18.35,-3.91 21.57,-11.69 0.4,-0.96 0.8,-1.44 1.22,-1.44 0.46,0 0.68,0.31 0.68,0.95 0,0.35 -0.07,0.73 -0.22,1.14 -0.16,0.55 -0.59,2.6 -1.24,6.19 -0.13,0.76 -0.69,3.01 -1.63,6.79l-18.06 -0.03c-2.59,0 -6.39,-0.11 -11.41,-0.33 -5.01,-0.22 -9.46,-0.31 -13.32,-0.33 -3.87,-0.01 -5.89,-0.1 -6.06,-0.23 -0.17,-0.15 -0.26,-0.31 -0.26,-0.5 0,-0.57 0.47,-0.86 1.43,-0.86 3.2,-0 5.31,-0.87 6.31,-2.58 1.02,-1.7 1.51,-5.87 1.5,-12.48l-0.05 -8.91 0.13 -8.35c-0,-1.68 -0.11,-4.86 -0.29,-9.55 -0.2,-4.68 -0.37,-7.35 -0.52,-8.02 -0.16,-0.67 -0.62,-1.33 -1.34,-1.98 -0.74,-0.65 -2.35,-1.3 -4.87,-1.96 -0.75,-0.21 -1.11,-0.54 -1.11,-0.98 -0,-0.54 0.49,-0.81 1.51,-0.81l8.79 0.49c3.1,0.14 10.73,0.21 22.88,0.2 8,-0.01 12.07,0 12.24,0.04zm57.88 -0.06c0.85,3.26 1.66,7.81 2.47,13.69 -0.13,0.22 -0.3,0.34 -0.46,0.34 -0.19,0 -0.41,-0.12 -0.63,-0.35 -1.99,-3.22 -3.89,-5.67 -5.7,-7.36 -1.81,-1.67 -3.63,-2.88 -5.45,-3.59 -1.82,-0.71 -4.96,-1.06 -9.41,-1.06 -4.2,0 -7.51,0.26 -9.95,0.75 -0.23,0.28 -0.35,0.82 -0.35,1.61 0,0.21 -0.03,0.56 -0.08,1.09 -0.28,2.33 -0.42,8.63 -0.41,18.89 0,0.43 0.03,1.04 0.09,1.83 2.19,0.08 3.67,0.13 4.48,0.13 3.63,-0 6.24,-0.56 7.88,-1.64 1.61,-1.09 3.04,-3.44 4.24,-7.03 0.19,-0.61 0.45,-0.93 0.79,-0.93 0.51,-0 0.76,0.41 0.76,1.26l-0.14 1.74c-0.2,2.29 -0.3,4.65 -0.29,7.07 0,3.93 0.07,7.48 0.19,10.65 0.01,0.98 -0.26,1.47 -0.78,1.48 -0.38,0 -0.65,-0.34 -0.78,-1.04 -0.61,-3.42 -1.87,-5.89 -3.8,-7.39 -1.91,-1.5 -6.09,-2.25 -12.51,-2.24 -0.08,2.12 -0.12,5.54 -0.12,10.28 0.01,6.13 0.23,10.03 0.66,11.68 0.43,1.66 1.46,2.97 3.1,3.94 1.64,0.97 4.4,1.46 8.31,1.45 11.15,-0.01 18.35,-3.92 21.58,-11.69 0.39,-0.96 0.79,-1.44 1.22,-1.44 0.46,0 0.67,0.31 0.67,0.95 0,0.35 -0.07,0.73 -0.21,1.14 -0.17,0.55 -0.59,2.6 -1.25,6.18 -0.13,0.76 -0.69,3.02 -1.62,6.79l-18.07 -0.03c-2.58,0 -6.39,-0.11 -11.41,-0.33 -5.01,-0.22 -9.45,-0.32 -13.31,-0.33 -3.87,-0.01 -5.9,-0.09 -6.06,-0.23 -0.17,-0.15 -0.26,-0.31 -0.26,-0.49 0,-0.58 0.47,-0.86 1.43,-0.86 3.2,-0 5.3,-0.87 6.32,-2.58 1.01,-1.71 1.5,-5.87 1.5,-12.48l-0.06 -8.91 0.13 -8.35c-0,-1.68 -0.11,-4.86 -0.29,-9.56 -0.2,-4.68 -0.37,-7.35 -0.52,-8.02 -0.17,-0.67 -0.61,-1.33 -1.34,-1.98 -0.74,-0.65 -2.35,-1.3 -4.87,-1.97 -0.75,-0.2 -1.12,-0.53 -1.12,-0.97 0,-0.54 0.5,-0.81 1.51,-0.81l8.79 0.49c3.1,0.14 10.73,0.21 22.88,0.2 8,-0 12.07,0 12.24,0.03zm24.38 -0.24c1.72,2.34 4.72,5.99 8.98,10.92l13.82 16.15 13.29 15.48c0.29,-5.24 0.43,-12.07 0.42,-20.44 -0.01,-6.3 -0.14,-10.5 -0.39,-12.64 -0.27,-2.12 -1.22,-3.92 -2.89,-5.38 -1.66,-1.44 -3.74,-2.17 -6.2,-2.16 -1.17,0 -1.74,-0.25 -1.74,-0.74 0,-0.28 0.12,-0.5 0.37,-0.63 0.24,-0.13 2.17,-0.26 5.79,-0.41 3.61,-0.13 6.65,-0.2 9.12,-0.2l5.81 0.04 0.94 0c0.9,0 1.33,0.25 1.33,0.76 0,0.44 -0.38,0.71 -1.15,0.8 -2.89,0.31 -4.98,1.09 -6.25,2.29 -1.28,1.2 -2.04,2.94 -2.27,5.2 -0.25,2.28 -0.36,9.9 -0.35,22.86l-0.4 23c0,1.16 -0.28,1.74 -0.85,1.74 -0.15,0 -0.33,-0.06 -0.57,-0.18 -0.25,-0.12 -1.53,-1.59 -3.86,-4.39 -2.33,-2.8 -5.21,-6.16 -8.61,-10.07 -3.41,-3.91 -6.09,-7.08 -8.05,-9.52 -4.3,-5.25 -6.99,-8.48 -8.13,-9.69 -4.17,-4.47 -6.62,-7.33 -7.37,-8.61 -0.49,-0.88 -0.94,-1.31 -1.34,-1.31 -0.3,0 -0.44,0.57 -0.44,1.7l0.1 6.76c0.01,8.57 0.25,15.42 0.71,20.55 0.46,5.1 0.95,8.1 1.44,8.99 0.5,0.88 1.37,1.77 2.62,2.68 1.25,0.9 2.57,1.35 3.97,1.35 1.9,-0 2.84,0.34 2.84,1.04 0,0.52 -0.53,0.79 -1.59,0.79l-20.68 -0.02c-0.97,0 -1.45,-0.25 -1.46,-0.74 0,-0.58 0.47,-0.86 1.41,-0.87 3.53,0 5.88,-0.79 7.05,-2.38 1.18,-1.59 1.76,-4.96 1.76,-10.12l-0.34 -15.32c-0.09,-9.01 -0.37,-14.31 -0.86,-15.92 -0.48,-1.61 -1.57,-3.55 -3.26,-5.85 -1.7,-2.3 -3.63,-3.6 -5.77,-3.88 -0.97,-0.12 -1.46,-0.4 -1.46,-0.83 -0,-0.57 0.63,-0.87 1.88,-0.87l12.61 0.08zm69.89 27.6l-0.12 10.77c0.01,7.51 0.13,11.72 0.37,12.61 0.22,0.89 0.72,1.8 1.48,2.75 0.76,0.95 2.35,1.48 4.78,1.63 1.29,0.06 1.93,0.37 1.93,0.93 0,0.62 -0.45,0.94 -1.38,0.94 -0.33,0 -1.23,-0.08 -2.7,-0.21 -2.98,-0.28 -5.61,-0.41 -7.91,-0.41 -1.93,0 -4.66,0.11 -8.13,0.33l-2.4 0.12c-0.92,0 -1.38,-0.3 -1.38,-0.89 0,-0.59 0.68,-0.89 2.02,-0.89 1.84,-0 3.16,-0.52 3.97,-1.56 0.81,-1.06 1.32,-3.72 1.57,-7.98 0.24,-4.28 0.36,-9.92 0.35,-16.93 -0.01,-6.61 -0.13,-11.82 -0.36,-15.63 -0.24,-3.82 -0.57,-6.31 -0.98,-7.5 -0.41,-1.19 -1.03,-2.04 -1.87,-2.54 -0.82,-0.51 -2.39,-0.83 -4.72,-0.98 -0.91,-0.06 -1.37,-0.33 -1.37,-0.84 0,-0.44 0.39,-0.7 1.2,-0.76 7.17,-0.6 20.72,-0.91 40.63,-0.93 3.42,-0 5.27,0.04 5.57,0.14 0.31,0.1 0.51,0.3 0.65,0.57 0.14,0.28 0.52,2.28 1.17,6.02 0.65,3.76 0.97,5.72 0.97,5.89 0,0.61 -0.25,0.92 -0.76,0.92 -0.36,0 -0.72,-0.28 -1.06,-0.85 -4.06,-7.08 -10.65,-10.63 -19.75,-10.62 -3.13,0 -5.67,0.14 -7.61,0.42 -1.94,0.27 -3.07,0.61 -3.38,1 -0.32,0.39 -0.53,2.2 -0.63,5.43 -0.1,3.24 -0.14,8.88 -0.13,16.95 2.26,0.12 3.84,0.18 4.7,0.18 4.13,-0 7.01,-0.9 8.62,-2.7 1.63,-1.78 2.48,-3.64 2.57,-5.56 0.06,-1.28 0.38,-1.92 0.97,-1.92 0.63,0 0.94,0.43 0.94,1.31 0,0.28 -0.02,0.65 -0.1,1.09 -0.22,1.67 -0.33,5.98 -0.32,12.92l0 5.06c0,1.22 -0.35,1.83 -1.06,1.83 -0.6,0 -0.91,-0.44 -0.94,-1.35 -0.09,-2.6 -0.91,-4.74 -2.46,-6.4 -1.56,-1.66 -4.62,-2.49 -9.17,-2.49 -0.75,0 -2.02,0.05 -3.8,0.14zm39.46 0.13c-0,-3.93 1.17,-8.24 3.52,-12.91 2.34,-4.7 5.78,-8.57 10.3,-11.61 4.51,-3.05 9.61,-4.58 15.3,-4.59 7.95,-0.01 14.52,2.85 19.71,8.59 5.19,5.75 7.78,12.31 7.79,19.67 0.01,7.85 -2.85,14.88 -8.59,21.1 -5.72,6.23 -12.63,9.35 -20.7,9.36 -7.71,0.01 -14.2,-2.72 -19.44,-8.16 -5.25,-5.45 -7.87,-12.6 -7.88,-21.46zm9.52 -1.44c0.01,4.76 0.73,9.61 2.17,14.6 1.45,4.99 3.72,8.61 6.79,10.85 3.09,2.25 6.38,3.39 9.9,3.38 5.67,-0.01 10.21,-2.81 13.61,-8.38 3.41,-5.57 5.11,-12.02 5.1,-19.34 -0.01,-7.1 -1.75,-13.33 -5.24,-18.7 -3.49,-5.36 -8.05,-8.04 -13.67,-8.04 -4.23,0 -7.76,1.43 -10.57,4.3 -2.82,2.87 -4.87,6.31 -6.17,10.29 -1.29,3.98 -1.93,7.67 -1.93,11.04zm86.75 1c4,1.74 6.78,3.56 8.35,5.46 1.56,1.9 2.71,4.84 3.43,8.8 0.95,5.22 2.28,8.74 4,10.53 1.72,1.8 3.97,2.75 6.75,2.86 0.78,0.06 1.16,0.34 1.16,0.84 0,0.51 -0.44,0.76 -1.34,0.76 -8.02,0.01 -12.89,-0.26 -14.59,-0.79 -1.72,-0.53 -2.99,-3.5 -3.83,-8.89 -0.77,-5.24 -1.58,-9.07 -2.44,-11.49 -0.85,-2.42 -2.2,-4.28 -4.06,-5.56 -1.85,-1.3 -4.75,-1.93 -8.68,-1.93 -1.5,0 -3.19,0.17 -5.08,0.48 -0.15,1.83 -0.22,3.73 -0.22,5.71 0.01,7.44 0.12,12.27 0.31,14.45 0.21,2.18 0.83,3.79 1.84,4.78 1.02,1.01 2.72,1.53 5.1,1.58 1.04,0.03 1.56,0.28 1.56,0.76 0,0.57 -0.63,0.85 -1.9,0.85l-21.27 0.02c-1.23,0 -1.85,-0.28 -1.85,-0.85 0,-0.5 0.48,-0.76 1.45,-0.76 2.19,-0 3.71,-0.33 4.54,-1 0.85,-0.67 1.51,-1.71 2,-3.12 0.48,-1.4 0.73,-3.95 0.72,-7.64l-0.09 -8.87 0.03 -13.52c-0.01,-6.91 -0.16,-11.47 -0.47,-13.71 -0.29,-2.23 -0.84,-3.73 -1.6,-4.5 -0.78,-0.76 -2.57,-1.37 -5.39,-1.79 -0.6,-0.09 -0.89,-0.34 -0.89,-0.76 0,-0.48 0.6,-0.72 1.81,-0.72l25.48 -0.56c7.03,-0 12.15,1.35 15.31,4.07 3.18,2.73 4.77,6.06 4.78,9.99 0,2.5 -0.64,4.77 -1.92,6.83 -1.28,2.05 -2.79,3.56 -4.54,4.47 -1.76,0.94 -4.59,2 -8.46,3.19zm-16.26 -1.1c5.5,-0.12 9.63,-0.51 12.36,-1.18 2.75,-0.67 5.08,-2.14 7.02,-4.41 1.93,-2.26 2.89,-4.94 2.89,-8.05 -0,-3.28 -1.08,-6.13 -3.23,-8.56 -2.15,-2.44 -5.59,-3.65 -10.31,-3.65 -2.57,0 -5.42,0.35 -8.54,1.05 -0.33,7.98 -0.5,14.33 -0.49,19.06 0,1.63 0.11,3.55 0.3,5.74zm60.5 -26.7l8.86 -0.19c11.21,-0.01 19.69,2.74 25.44,8.25 5.75,5.52 8.62,12.47 8.63,20.86 0,5.95 -1.37,11.13 -4.11,15.53 -2.76,4.4 -6.2,7.73 -10.33,9.96 -4.12,2.24 -9.63,3.37 -16.53,3.37 -1.56,0 -3.51,-0.09 -5.89,-0.26 -4.25,-0.35 -6.63,-0.53 -7.16,-0.53 -9.41,0.01 -14.95,0.12 -16.61,0.31 -0.96,0 -1.43,-0.24 -1.43,-0.73 0,-0.33 0.17,-0.55 0.52,-0.67 0.35,-0.12 1.41,-0.28 3.2,-0.51 2.3,-0.33 3.91,-1.25 4.85,-2.8 0.94,-1.54 1.5,-6.33 1.74,-14.38l0.68 -23.07c-0,-2.67 -0.19,-5.26 -0.55,-7.74 -0.36,-2.48 -0.91,-4.08 -1.68,-4.79 -0.77,-0.71 -1.97,-1.19 -3.65,-1.45 -1.2,-0.17 -1.8,-0.49 -1.8,-0.98 -0,-0.59 0.3,-0.89 0.91,-0.89 0.57,0 2.32,0.11 5.26,0.35 2.94,0.24 6.16,0.35 9.66,0.35zm-1.5 42.04c0,3.85 0.25,6.6 0.77,8.23 0.5,1.65 1.57,3 3.22,4.07 1.65,1.05 4.29,1.59 7.94,1.58 5.22,-0 9.43,-1.26 12.68,-3.76 3.23,-2.5 5.76,-5.83 7.57,-9.99 1.82,-4.15 2.73,-8.56 2.72,-13.24 -0.01,-6.92 -2.09,-13.17 -6.25,-18.77 -4.15,-5.6 -10.62,-8.4 -19.38,-8.39 -3.89,0 -6.18,0.15 -6.82,0.39 -0.65,0.27 -0.97,1.04 -0.97,2.32 0,1.13 -0.09,3.15 -0.29,6.05 -0.29,4.23 -0.48,7.55 -0.56,9.93l-0.39 11.98c-0.17,5.59 -0.25,8.79 -0.25,9.61z"/>
   <path class="fil1" d="M250.43 455.33c0,0.92 -0.05,2.31 -0.16,4.15 -0.05,0.9 -0.08,1.81 -0.08,2.73 0,0.7 0.03,2.2 0.11,4.51 0.07,2.3 0.21,3.74 0.42,4.31 0.2,0.58 0.66,1.13 1.34,1.66 0.69,0.54 1.44,0.82 2.23,0.86 0.89,0.06 1.35,0.28 1.35,0.66 0,0.29 -0.15,0.46 -0.41,0.52 -0.27,0.05 -1.32,0.09 -3.13,0.09l-8.11 -0.06c-2.28,0 -3.5,-0.03 -3.64,-0.1 -0.15,-0.07 -0.22,-0.21 -0.22,-0.42 0,-0.33 0.37,-0.57 1.11,-0.74 1.32,-0.31 2.23,-0.8 2.75,-1.44 0.53,-0.66 0.85,-2.07 0.96,-4.24 0.12,-2.17 0.18,-4.65 0.17,-7.49l-0.07 -8.21 0.05 -8.87c-0,-3.14 -0.22,-5.15 -0.63,-6.02 -0.41,-0.87 -1.23,-1.43 -2.43,-1.65 -1.31,-0.25 -1.96,-0.56 -1.96,-0.91 -0,-0.36 0.29,-0.54 0.88,-0.54l5.83 0.02 9.38 -0.04c6.17,-0 10.33,1 12.46,3.01 2.14,2.02 3.2,4.53 3.21,7.55 0,3.59 -1.38,6.3 -4.17,8.11 -2.78,1.81 -6.96,2.71 -12.54,2.72 -1.36,0 -2.93,-0.06 -4.71,-0.18zm-0 -1.23c2.88,0.1 4.52,0.15 4.91,0.15 2,0 3.88,-0.36 5.65,-1.07 1.76,-0.72 3.04,-2.02 3.86,-3.88 0.81,-1.88 1.21,-3.72 1.2,-5.54 0,-2.31 -0.74,-4.28 -2.25,-5.89 -1.5,-1.6 -4.21,-2.41 -8.1,-2.41 -2.03,0 -3.79,0.22 -5.3,0.68 -0.04,0.74 -0.06,1.21 -0.06,1.39l0.13 7.07 -0.11 7.54c0,0.37 0.02,1.03 0.06,1.96zm58.69 20.8c-0.97,0.03 -1.52,0.06 -1.65,0.06 -0.74,0 -2.06,-0.03 -3.97,-0.09 -1.91,-0.06 -5.87,-0.09 -11.9,-0.08l-7.51 0.01c-0.28,0 -1.28,0.05 -3.02,0.16 -1.73,0.11 -2.79,0.16 -3.16,0.16 -1.5,0 -2.24,-0.19 -2.24,-0.61 0,-0.33 0.29,-0.5 0.88,-0.53 1.91,-0.13 3.24,-0.55 3.98,-1.28 0.76,-0.73 1.26,-1.78 1.54,-3.15 0.27,-1.35 0.4,-5.06 0.4,-11.07l0.02 -11.03c-0,-3.57 -0.16,-6.07 -0.46,-7.48 -0.31,-1.42 -0.94,-2.5 -1.89,-3.24 -0.94,-0.76 -2.02,-1.18 -3.22,-1.28 -0.62,-0.06 -0.94,-0.29 -0.94,-0.69 0,-0.4 0.28,-0.6 0.85,-0.6 0.14,0 0.39,0.01 0.77,0.03 3.11,0.21 6.76,0.31 10.93,0.3l5.19 -0.07c0.53,-0 0.8,0.21 0.8,0.63 0,0.38 -0.28,0.57 -0.85,0.57 -1.39,0 -2.54,0.29 -3.48,0.86 -0.93,0.57 -1.55,1.24 -1.85,1.98 -0.31,0.76 -0.45,2.22 -0.45,4.39l-0.23 14.56 0.07 8.13c0,2.52 0.11,4.16 0.31,4.92 0.2,0.76 0.64,1.44 1.29,2.05 0.65,0.59 1.83,0.9 3.55,0.9 0.14,0 1.9,-0.06 5.3,-0.19 2.69,-0.39 5.12,-1.77 7.27,-4.14 2.14,-2.37 3.57,-4.49 4.28,-6.36 0.21,-0.54 0.46,-0.8 0.76,-0.8 0.32,0 0.48,0.24 0.48,0.74 0,0.57 -0.28,2.64 -0.83,6.18 -0.55,3.54 -0.9,5.57 -1.03,6.09zm21.79 -41.29l1.43 0c2.19,4.7 5.22,12.74 9.09,24.12 2.49,7.28 4.19,11.76 5.12,13.41 0.92,1.66 2.41,2.57 4.44,2.76 0.65,0.06 0.98,0.31 0.98,0.72 0,0.3 -0.17,0.45 -0.5,0.45l-0.41 -0.03c-1.8,-0.21 -4.11,-0.31 -6.89,-0.31 -4.28,0 -7.02,0.07 -8.24,0.2 -0.61,0 -0.91,-0.19 -0.91,-0.57 0,-0.28 0.22,-0.44 0.67,-0.5 1.67,-0.16 2.83,-0.46 3.46,-0.89 0.65,-0.42 0.96,-1.09 0.96,-2.01 0,-0.87 -0.6,-3.08 -1.8,-6.62l-1.74 -5.31c-1.03,0 -5.61,0.07 -13.74,0.2 -2.05,5.7 -3.07,9.29 -3.07,10.78 0,1.25 0.5,2.19 1.51,2.8 1.02,0.59 2.02,0.93 3,0.99 0.72,0.07 1.09,0.29 1.09,0.69 0,0.17 -0.12,0.31 -0.35,0.46 -3.15,-0.13 -5.04,-0.19 -5.69,-0.19 -3.3,0 -5.52,0.05 -6.66,0.13 -0.63,0 -0.94,-0.19 -0.94,-0.57 -0,-0.33 0.27,-0.55 0.82,-0.63 2.26,-0.31 3.98,-1.91 5.19,-4.8 1.2,-2.88 3.06,-8.09 5.6,-15.61 2.31,-6.85 4.86,-13.4 7.61,-19.67zm-1.17 6.73c-1.83,3.89 -3.96,9.56 -6.41,17 2.04,-0.11 3.49,-0.16 4.38,-0.16l8.3 0.15c-0.73,-2.14 -1.76,-4.96 -3.08,-8.5 -1.62,-4.2 -2.67,-7.04 -3.19,-8.49zm34.01 -5.75c1.18,1.66 3.24,4.25 6.15,7.73l9.46 11.43 9.1 10.96c0.2,-3.71 0.29,-8.54 0.28,-14.47 -0,-4.46 -0.1,-7.43 -0.27,-8.94 -0.18,-1.5 -0.84,-2.78 -1.98,-3.81 -1.14,-1.02 -2.56,-1.53 -4.24,-1.53 -0.8,0 -1.19,-0.18 -1.19,-0.53 0,-0.2 0.08,-0.35 0.25,-0.44 0.16,-0.09 1.49,-0.19 3.96,-0.29 2.48,-0.09 4.56,-0.14 6.25,-0.14l3.98 0.03 0.65 0c0.61,0 0.91,0.18 0.91,0.53 0,0.32 -0.26,0.51 -0.79,0.57 -1.98,0.22 -3.41,0.77 -4.28,1.63 -0.87,0.85 -1.39,2.07 -1.56,3.68 -0.17,1.61 -0.25,7 -0.24,16.18l-0.27 16.27c0,0.82 -0.19,1.23 -0.58,1.23 -0.1,0 -0.23,-0.04 -0.39,-0.13 -0.17,-0.08 -1.05,-1.12 -2.64,-3.11 -1.6,-1.99 -3.57,-4.36 -5.89,-7.14 -2.34,-2.76 -4.17,-5.01 -5.51,-6.73 -2.94,-3.72 -4.79,-6 -5.56,-6.86 -2.85,-3.16 -4.53,-5.19 -5.05,-6.09 -0.33,-0.62 -0.65,-0.93 -0.91,-0.93 -0.2,0 -0.3,0.4 -0.3,1.2l0.07 4.79c0,6.06 0.17,10.91 0.49,14.54 0.31,3.62 0.65,5.74 0.99,6.37 0.35,0.62 0.94,1.25 1.8,1.89 0.85,0.64 1.76,0.95 2.71,0.95 1.3,0 1.94,0.24 1.94,0.74 0,0.37 -0.36,0.56 -1.09,0.56l-14.16 -0.02c-0.67,0 -1,-0.18 -1,-0.52 0,-0.41 0.32,-0.61 0.97,-0.61 2.41,0 4.02,-0.56 4.83,-1.69 0.8,-1.12 1.2,-3.51 1.2,-7.16l-0.23 -10.84c-0.06,-6.38 -0.25,-10.14 -0.59,-11.27 -0.33,-1.14 -1.08,-2.51 -2.24,-4.14 -1.16,-1.63 -2.47,-2.55 -3.95,-2.75 -0.66,-0.08 -0.99,-0.28 -0.99,-0.59 0,-0.4 0.43,-0.61 1.29,-0.61l8.63 0.06zm52.99 1.4c-1.54,-0.04 -2.62,-0.06 -3.25,-0.06 -4.26,0 -7.33,0.93 -9.24,2.78 -1.91,1.85 -3.02,3.48 -3.33,4.93 -0.09,0.51 -0.35,0.76 -0.77,0.76 -0.19,0 -0.37,-0.09 -0.54,-0.28 0.09,-2.44 0.47,-5.73 1.13,-9.87 0.95,-0.04 1.54,-0.07 1.8,-0.07 1.53,0 3.58,0.08 6.16,0.24 2.77,0.17 7.02,0.25 12.73,0.24 5.86,-0 9.67,-0.08 11.45,-0.22 1.61,-0.16 3.82,-0.23 6.63,-0.23 0.23,1.47 0.39,3.01 0.47,4.61 0.12,1.82 0.24,3.1 0.35,3.84 0.02,0.17 0.03,0.33 0.03,0.52 0,0.5 -0.2,0.73 -0.61,0.73 -0.25,0 -0.46,-0.08 -0.63,-0.26 -0.17,-0.18 -0.55,-0.76 -1.15,-1.74 -1.03,-1.67 -2.09,-2.93 -3.21,-3.79 -1.1,-0.85 -2.34,-1.4 -3.7,-1.65 -1.37,-0.24 -4.12,-0.41 -8.28,-0.48 -0.2,3.1 -0.29,6.66 -0.29,10.64 0.02,13.21 0.29,20.99 0.83,23.35 0.55,2.36 2.47,3.54 5.78,3.54 0.8,0 1.21,0.18 1.21,0.52 0,0.41 -0.39,0.61 -1.15,0.61l-18.07 0.02c-0.48,0 -0.7,-0.2 -0.7,-0.59 0,-0.39 0.46,-0.58 1.38,-0.58 1.55,0 2.81,-0.46 3.75,-1.38 0.96,-0.92 1.5,-2.15 1.65,-3.71 0.15,-1.57 0.22,-6.07 0.21,-13.54 -0.01,-6.37 -0.22,-12.66 -0.63,-18.87zm48.37 0.49c0.53,-0.56 0.89,-1.15 1.07,-1.74 0.16,-0.5 0.38,-0.75 0.67,-0.75 0.16,0 0.34,0.11 0.54,0.31 0.13,0.74 0.33,2.24 0.58,4.49l0.7 5.81c0,0.37 -0.21,0.56 -0.65,0.56 -0.24,0 -0.44,-0.21 -0.63,-0.62 -1.04,-2.68 -2.59,-4.92 -4.65,-6.69 -2.05,-1.76 -4.3,-2.65 -6.73,-2.64 -2.38,0 -4.18,0.75 -5.4,2.24 -1.22,1.49 -1.82,3.08 -1.82,4.76 0,2.05 0.67,3.61 1.99,4.7 1.32,1.08 4.04,2.31 8.15,3.68 3.04,0.99 5.31,1.94 6.82,2.87 1.5,0.91 2.77,2.2 3.8,3.87 1.03,1.66 1.54,3.44 1.54,5.35 0,3.25 -1.28,6.15 -3.85,8.72 -2.56,2.57 -5.7,3.85 -9.42,3.86 -3.36,0 -6.74,-1.09 -10.12,-3.28 -0.67,0.58 -1.09,1.26 -1.29,2.05 -0.16,0.66 -0.43,0.99 -0.78,0.99 -0.33,0 -0.56,-0.42 -0.69,-1.26 -0.15,-0.85 -0.44,-4.85 -0.89,-12 0.08,-0.24 0.28,-0.37 0.63,-0.37 0.29,0 0.52,0.23 0.7,0.68 3.03,7.96 7.26,11.93 12.67,11.92 2.69,0 4.79,-0.85 6.31,-2.55 1.51,-1.7 2.28,-3.64 2.28,-5.84 -0,-1.51 -0.41,-2.91 -1.23,-4.19 -0.82,-1.27 -1.9,-2.3 -3.25,-3.07 -1.35,-0.78 -3.48,-1.65 -6.39,-2.61 -3.74,-1.25 -6.28,-2.44 -7.61,-3.54 -1.34,-1.11 -2.31,-2.38 -2.93,-3.79 -0.63,-1.41 -0.94,-2.76 -0.94,-4.07 -0,-2.73 1.18,-5.15 3.56,-7.27 2.37,-2.12 5.28,-3.18 8.72,-3.19 1.3,0 2.67,0.2 4.1,0.64 1.42,0.43 2.92,1.09 4.47,1.97z"/>
   <path class="fil0" d="M509.48 454.05l-0.08 7.62c0,5.32 0.09,8.3 0.25,8.93 0.15,0.63 0.49,1.28 1.02,1.95 0.52,0.67 1.61,1.05 3.28,1.15 0.88,0.04 1.33,0.26 1.33,0.67 0,0.44 -0.31,0.66 -0.95,0.66 -0.23,0 -0.85,-0.05 -1.85,-0.15 -2.04,-0.19 -3.84,-0.29 -5.41,-0.28 -1.33,0 -3.19,0.07 -5.56,0.23l-1.64 0.09c-0.63,0 -0.94,-0.21 -0.94,-0.63 0,-0.42 0.46,-0.64 1.39,-0.64 1.26,0 2.17,-0.37 2.71,-1.1 0.56,-0.75 0.91,-2.63 1.07,-5.65 0.17,-3.03 0.24,-7.02 0.24,-11.98 -0.01,-4.68 -0.09,-8.37 -0.24,-11.06 -0.16,-2.7 -0.39,-4.47 -0.67,-5.31 -0.28,-0.84 -0.7,-1.44 -1.28,-1.8 -0.56,-0.36 -1.64,-0.59 -3.22,-0.69 -0.63,-0.04 -0.94,-0.24 -0.94,-0.6 0,-0.31 0.28,-0.49 0.83,-0.53 4.91,-0.43 14.18,-0.65 27.81,-0.66 2.34,0 3.61,0.03 3.81,0.1 0.21,0.07 0.35,0.21 0.44,0.4 0.09,0.2 0.35,1.62 0.8,4.27 0.44,2.66 0.67,4.05 0.67,4.17 0,0.43 -0.17,0.65 -0.52,0.65 -0.25,0 -0.5,-0.2 -0.72,-0.61 -2.78,-5.01 -7.29,-7.52 -13.52,-7.51 -2.14,0 -3.88,0.09 -5.21,0.3 -1.33,0.19 -2.1,0.43 -2.32,0.71 -0.22,0.27 -0.36,1.55 -0.43,3.85 -0.07,2.29 -0.09,6.29 -0.09,12 1.55,0.08 2.63,0.12 3.22,0.12 2.83,0 4.8,-0.63 5.91,-1.9 1.11,-1.26 1.7,-2.57 1.76,-3.93 0.04,-0.91 0.26,-1.36 0.67,-1.36 0.43,0 0.65,0.31 0.65,0.93 0,0.2 -0.02,0.46 -0.07,0.77 -0.15,1.19 -0.23,4.24 -0.22,9.15l0 3.57c0,0.86 -0.24,1.29 -0.72,1.29 -0.41,0 -0.62,-0.31 -0.65,-0.95 -0.06,-1.84 -0.62,-3.35 -1.69,-4.53 -1.06,-1.18 -3.16,-1.76 -6.28,-1.76 -0.51,0 -1.38,0.04 -2.59,0.1zm27.02 0.09c-0,-2.77 0.8,-5.82 2.41,-9.14 1.6,-3.32 3.96,-6.06 7.06,-8.22 3.08,-2.16 6.57,-3.24 10.47,-3.25 5.44,-0 9.94,2.02 13.5,6.09 3.56,4.06 5.33,8.71 5.33,13.93 0.01,5.55 -1.94,10.52 -5.88,14.93 -3.92,4.41 -8.65,6.62 -14.17,6.63 -5.28,0.01 -9.72,-1.92 -13.31,-5.78 -3.59,-3.86 -5.39,-8.93 -5.4,-15.19zm6.52 -1.01c0,3.36 0.5,6.8 1.49,10.33 0.99,3.53 2.55,6.09 4.65,7.68 2.11,1.59 4.37,2.4 6.77,2.39 3.89,-0 6.99,-1.98 9.32,-5.93 2.33,-3.94 3.49,-8.51 3.48,-13.69 -0,-5.03 -1.2,-9.44 -3.58,-13.23 -2.39,-3.8 -5.51,-5.7 -9.35,-5.69 -2.9,0 -5.31,1.02 -7.24,3.05 -1.93,2.02 -3.34,4.46 -4.22,7.28 -0.89,2.81 -1.33,5.43 -1.32,7.81zm59.4 0.71c2.74,1.22 4.64,2.52 5.72,3.86 1.07,1.34 1.85,3.43 2.35,6.23 0.65,3.69 1.56,6.18 2.74,7.45 1.18,1.27 2.72,1.94 4.62,2.02 0.54,0.04 0.8,0.24 0.8,0.6 0,0.36 -0.3,0.54 -0.92,0.54 -5.49,0 -8.83,-0.19 -10,-0.56 -1.17,-0.37 -2.04,-2.48 -2.63,-6.29 -0.52,-3.72 -1.08,-6.43 -1.66,-8.14 -0.59,-1.72 -1.51,-3.03 -2.78,-3.94 -1.27,-0.92 -3.25,-1.37 -5.94,-1.37 -1.03,0 -2.19,0.12 -3.48,0.34 -0.1,1.29 -0.15,2.64 -0.15,4.04 0.01,5.27 0.08,8.69 0.21,10.23 0.14,1.55 0.56,2.68 1.26,3.39 0.69,0.72 1.86,1.08 3.49,1.12 0.71,0.02 1.06,0.2 1.06,0.54 0,0.4 -0.43,0.6 -1.3,0.6l-14.56 0.01c-0.84,0 -1.27,-0.19 -1.27,-0.59 0,-0.35 0.33,-0.54 0.99,-0.54 1.51,-0 2.54,-0.23 3.11,-0.71 0.58,-0.47 1.03,-1.21 1.37,-2.21 0.33,-0.99 0.5,-2.8 0.49,-5.4l-0.07 -6.28 0.02 -9.57c-0,-4.89 -0.11,-8.12 -0.32,-9.7 -0.2,-1.58 -0.57,-2.64 -1.1,-3.18 -0.53,-0.54 -1.76,-0.97 -3.69,-1.27 -0.41,-0.06 -0.61,-0.24 -0.62,-0.53 0,-0.34 0.41,-0.51 1.24,-0.51l17.45 -0.39c4.81,-0 8.31,0.96 10.48,2.88 2.18,1.93 3.27,4.28 3.27,7.07 0,1.77 -0.44,3.38 -1.31,4.84 -0.87,1.45 -1.91,2.52 -3.1,3.17 -1.21,0.67 -3.14,1.41 -5.8,2.26zm-11.13 -0.78c3.76,-0.09 6.59,-0.36 8.46,-0.83 1.88,-0.47 3.48,-1.52 4.81,-3.12 1.31,-1.59 1.98,-3.5 1.98,-5.7 -0,-2.33 -0.74,-4.34 -2.21,-6.07 -1.47,-1.72 -3.82,-2.58 -7.06,-2.58 -1.76,0 -3.71,0.25 -5.84,0.74 -0.22,5.65 -0.34,10.15 -0.33,13.49 0,1.15 0.07,2.51 0.2,4.06zm77.36 21.52c-0.97,0.03 -1.52,0.06 -1.65,0.06 -0.74,0 -2.06,-0.03 -3.97,-0.09 -1.91,-0.06 -5.88,-0.09 -11.91,-0.09l-7.5 0.01c-0.28,0 -1.28,0.05 -3.02,0.17 -1.73,0.1 -2.79,0.15 -3.16,0.15 -1.5,0 -2.24,-0.19 -2.24,-0.61 0,-0.33 0.29,-0.5 0.89,-0.52 1.91,-0.13 3.24,-0.55 3.98,-1.29 0.76,-0.72 1.26,-1.78 1.54,-3.15 0.27,-1.35 0.41,-5.06 0.4,-11.07l0.02 -11.03c-0,-3.57 -0.16,-6.07 -0.46,-7.48 -0.3,-1.41 -0.94,-2.5 -1.89,-3.24 -0.94,-0.76 -2.02,-1.18 -3.22,-1.28 -0.62,-0.06 -0.94,-0.3 -0.94,-0.69 0,-0.4 0.28,-0.6 0.86,-0.6 0.13,0 0.39,0.01 0.76,0.03 3.12,0.2 6.76,0.31 10.94,0.3l5.18 -0.07c0.54,0 0.8,0.21 0.8,0.63 0,0.38 -0.28,0.57 -0.86,0.57 -1.39,0 -2.54,0.29 -3.48,0.87 -0.93,0.57 -1.55,1.23 -1.85,1.98 -0.31,0.76 -0.45,2.22 -0.45,4.39l-0.23 14.56 0.07 8.13c0,2.52 0.11,4.16 0.31,4.92 0.2,0.76 0.64,1.44 1.29,2.05 0.65,0.6 1.83,0.9 3.54,0.9 0.14,0 1.91,-0.06 5.3,-0.19 2.69,-0.39 5.12,-1.77 7.27,-4.14 2.14,-2.37 3.57,-4.49 4.28,-6.36 0.21,-0.54 0.47,-0.8 0.77,-0.8 0.32,0 0.48,0.24 0.48,0.74 0,0.57 -0.28,2.64 -0.83,6.18 -0.56,3.54 -0.91,5.57 -1.03,6.09zm6.48 -40.76l5.36 0.12 8.23 -0.13c0.99,-0 1.48,0.2 1.48,0.61 0,0.3 -0.26,0.5 -0.8,0.58 -2.17,0.29 -3.53,1.12 -4.07,2.46 -0.54,1.36 -0.8,6.37 -0.79,15.03 0.01,3.18 0.09,6.76 0.24,10.74 0.17,3.98 0.35,6.36 0.54,7.14 0.19,0.78 0.56,1.41 1.12,1.9 0.55,0.49 1.57,0.84 3.06,1.05 0.5,0.06 0.74,0.26 0.74,0.6 0,0.38 -0.22,0.57 -0.67,0.57l-7.34 -0.06 -6.23 0.07c-0.69,0 -1.03,-0.21 -1.04,-0.62 0,-0.43 0.27,-0.64 0.82,-0.64 1.85,-0.05 2.92,-0.68 3.23,-1.92 0.31,-1.23 0.46,-5.15 0.46,-11.78 -0,-6.4 -0.06,-11.57 -0.17,-15.54 -0.11,-3.97 -0.44,-6.39 -0.96,-7.27 -0.54,-0.89 -1.54,-1.44 -3.02,-1.66 -0.55,-0.1 -0.82,-0.34 -0.82,-0.7 0,-0.37 0.21,-0.56 0.63,-0.56zm31.85 20.06l-0.08 7.62c0.01,5.33 0.09,8.3 0.25,8.93 0.16,0.63 0.5,1.27 1.02,1.94 0.52,0.67 1.61,1.05 3.27,1.15 0.89,0.04 1.33,0.26 1.33,0.66 0,0.44 -0.31,0.66 -0.94,0.66 -0.23,0 -0.85,-0.05 -1.85,-0.14 -2.04,-0.2 -3.84,-0.29 -5.41,-0.29 -1.33,0 -3.19,0.07 -5.57,0.24l-1.64 0.09c-0.63,0 -0.94,-0.21 -0.95,-0.63 0,-0.42 0.46,-0.63 1.39,-0.64 1.26,0 2.16,-0.37 2.72,-1.1 0.55,-0.74 0.9,-2.63 1.07,-5.65 0.17,-3.02 0.24,-7.02 0.24,-11.98 -0,-4.68 -0.09,-8.37 -0.24,-11.06 -0.17,-2.7 -0.39,-4.47 -0.67,-5.31 -0.29,-0.85 -0.71,-1.44 -1.28,-1.8 -0.56,-0.36 -1.64,-0.59 -3.23,-0.69 -0.63,-0.04 -0.94,-0.24 -0.94,-0.6 0,-0.31 0.27,-0.5 0.83,-0.54 4.91,-0.43 14.18,-0.65 27.81,-0.66 2.35,0 3.61,0.03 3.82,0.11 0.21,0.07 0.35,0.2 0.44,0.39 0.09,0.2 0.35,1.62 0.8,4.27 0.44,2.66 0.67,4.05 0.67,4.17 0,0.43 -0.17,0.65 -0.52,0.65 -0.26,0 -0.5,-0.2 -0.72,-0.61 -2.78,-5.01 -7.3,-7.52 -13.53,-7.52 -2.15,0 -3.89,0.1 -5.21,0.3 -1.33,0.19 -2.1,0.43 -2.31,0.7 -0.22,0.27 -0.36,1.56 -0.43,3.85 -0.07,2.3 -0.09,6.29 -0.09,12 1.55,0.09 2.63,0.13 3.22,0.13 2.83,-0 4.8,-0.64 5.91,-1.91 1.11,-1.26 1.69,-2.57 1.76,-3.93 0.04,-0.9 0.26,-1.36 0.66,-1.36 0.43,0 0.65,0.31 0.65,0.93 0,0.2 -0.02,0.46 -0.07,0.76 -0.15,1.19 -0.22,4.24 -0.22,9.15l0 3.57c0,0.86 -0.24,1.29 -0.72,1.29 -0.41,0 -0.62,-0.31 -0.65,-0.96 -0.06,-1.84 -0.62,-3.35 -1.68,-4.53 -1.07,-1.17 -3.17,-1.76 -6.28,-1.76 -0.52,0 -1.38,0.03 -2.6,0.1zm58.11 -19.48c0.58,2.31 1.14,5.53 1.69,9.7 -0.09,0.16 -0.2,0.24 -0.31,0.24 -0.13,0 -0.28,-0.08 -0.43,-0.25 -1.36,-2.28 -2.66,-4.02 -3.9,-5.21 -1.24,-1.19 -2.49,-2.04 -3.74,-2.54 -1.25,-0.5 -3.39,-0.75 -6.44,-0.75 -2.87,0 -5.14,0.18 -6.81,0.53 -0.16,0.2 -0.24,0.58 -0.24,1.13 0,0.15 -0.02,0.4 -0.06,0.77 -0.19,1.65 -0.29,6.11 -0.28,13.37 0,0.3 0.02,0.74 0.06,1.29 1.5,0.06 2.52,0.09 3.07,0.09 2.48,-0.01 4.28,-0.4 5.39,-1.17 1.11,-0.77 2.08,-2.43 2.9,-4.98 0.13,-0.43 0.31,-0.65 0.54,-0.65 0.35,0 0.52,0.3 0.53,0.89l-0.1 1.23c-0.13,1.62 -0.2,3.3 -0.2,5 0,2.79 0.05,5.3 0.13,7.54 0,0.69 -0.19,1.04 -0.54,1.04 -0.26,0 -0.44,-0.24 -0.53,-0.74 -0.42,-2.42 -1.28,-4.17 -2.6,-5.23 -1.31,-1.06 -4.17,-1.6 -8.57,-1.59 -0.06,1.51 -0.09,3.93 -0.08,7.28 0,4.34 0.15,7.09 0.45,8.26 0.29,1.17 1,2.1 2.13,2.79 1.11,0.68 3.01,1.02 5.69,1.02 7.64,-0.01 12.57,-2.76 14.78,-8.27 0.27,-0.68 0.54,-1.02 0.83,-1.02 0.31,0 0.46,0.22 0.46,0.67 0,0.26 -0.05,0.52 -0.15,0.81 -0.11,0.39 -0.4,1.84 -0.85,4.37 -0.09,0.54 -0.47,2.13 -1.11,4.81l-12.37 -0.02c-1.77,0 -4.37,-0.08 -7.81,-0.23 -3.43,-0.16 -6.47,-0.22 -9.11,-0.24 -2.65,-0 -4.04,-0.07 -4.15,-0.16 -0.12,-0.11 -0.18,-0.22 -0.18,-0.35 0,-0.41 0.33,-0.61 0.98,-0.61 2.2,0 3.64,-0.61 4.33,-1.82 0.69,-1.21 1.03,-4.15 1.03,-8.83l-0.04 -6.3 0.08 -5.91c0,-1.19 -0.07,-3.44 -0.2,-6.76 -0.13,-3.31 -0.26,-5.2 -0.36,-5.68 -0.11,-0.47 -0.42,-0.93 -0.91,-1.4 -0.5,-0.46 -1.61,-0.92 -3.33,-1.39 -0.51,-0.15 -0.77,-0.38 -0.77,-0.7 0,-0.38 0.35,-0.56 1.04,-0.56l6.02 0.34c2.12,0.1 7.35,0.15 15.67,0.15 5.48,-0 8.26,0 8.38,0.02z"/>
   <g>
    <polygon class="fil2" points="605.65,235.1 506.78,290.51 409.31,235.18 426.42,226.27 506.72,270.5 587.29,226.17 "/>
    <g>
     <polygon class="fil3" points="646.98,253.89 514.64,327.9 521.78,300.93 623.72,241.74 "/>
     <polygon class="fil4" points="491.04,300.91 498.75,327.89 366.92,253.85 389.2,242.29 "/>
     <polygon class="fil5" points="646.98,253.89 647.29,99.02 514.28,24.73 520.55,54.49 623.87,112.21 623.72,241.74 "/>
     <polygon class="fil6" points="389.2,242.29 366.92,253.85 365.79,99.01 500.11,24.75 493.15,54.48 389.82,112.38 "/>
     <polygon class="fil7" points="605.65,235.1 605.5,124.87 507.24,70.7 409.32,125.65 409.31,235.18 426.42,226.27 426.51,135.33 506.43,90.62 588.23,135.1 587.29,226.17 "/>
     <polygon class="fil8" points="574.18,217.07 507.11,254.72 440.49,218.1 440.37,144.44 "/>
     <polygon class="fil9" points="574.18,217.07 574.5,144.22 506.97,106.12 440.37,144.44 "/>
    </g>
   </g>
  </g>
 </g>
</svg>
