<?xml version="1.0" encoding="UTF-8"?>
<!DOCTYPE svg PUBLIC "-//W3C//DTD SVG 1.1//EN" "http://www.w3.org/Graphics/SVG/1.1/DTD/svg11.dtd">
<!-- Creator: CorelDRAW 2021 (64-Bit) -->
<svg xmlns="http://www.w3.org/2000/svg" xml:space="preserve" width="0.999992in" height="0.499992in" version="1.1" style="shape-rendering:geometricPrecision; text-rendering:geometricPrecision; image-rendering:optimizeQuality; fill-rule:evenodd; clip-rule:evenodd"
viewBox="0 0 999.99 499.99"
 xmlns:xlink="http://www.w3.org/1999/xlink"
 xmlns:xodm="http://www.corel.com/coreldraw/odm/2003">
 <defs>
  <style type="text/css">
   <![CDATA[
    .fil2 {fill:#201E1E}
    .fil0 {fill:#201E1E;fill-rule:nonzero}
    .fil1 {fill:url(#id0)}
   ]]>
  </style>
  <linearGradient id="id0" gradientUnits="userSpaceOnUse" x1="657.08" y1="310.37" x2="657.08" y2="183.32">
   <stop offset="0" style="stop-opacity:1; stop-color:#CAD040"/>
   <stop offset="0.478431" style="stop-opacity:1; stop-color:#D5C94B"/>
   <stop offset="1" style="stop-opacity:1; stop-color:#E0C156"/>
  </linearGradient>
 </defs>
 <g id="Layer_x0020_1">
  <metadata id="CorelCorpID_0Corel-Layer"/>
  <g id="_1654450091440">
   <polygon class="fil0" points="39.01,192.85 64.43,192.85 64.43,306.04 39.01,306.04 "/>
   <path class="fil0" d="M84.8 306.04l0 -83.93 23.43 0 0 11.64c4.44,-7.96 14.4,-13.94 26.5,-13.94 9.04,0 16.85,3.06 23.13,9.04 6.28,5.98 9.5,14.7 9.5,25.89l0 51.31 -24.04 0 0 -45.03c0,-12.25 -6.44,-19.15 -16.39,-19.15 -10.87,0 -18.07,7.96 -18.07,19.76l0 44.41 -24.04 0z"/>
   <path class="fil0" d="M253.87 222.11l24.05 0 0 83.93 -24.05 0 0 -83.93zm-2.15 -22.97c0,-8.12 6.28,-14.24 14.4,-14.24 7.96,0 14.24,6.13 14.24,14.24 0,8.11 -6.28,14.24 -14.24,14.24 -8.12,0 -14.4,-6.13 -14.4,-14.24zm-60.65 22.36c0,-23.89 12.56,-36.14 32.93,-36.14 8.42,0 16.08,1.99 23.28,5.97l-6.28 18.53c-5.06,-2.45 -9.34,-3.68 -12.86,-3.68 -8.12,0 -13.17,4.9 -13.17,13.63l0 2.3 26.04 0 0 19.91 -26.04 0 0 64.02 -23.89 0 0 -64.02 -12.41 0 0 -19.91 12.41 0 0 -0.61z"/>
   <path class="fil0" d="M296.43 306.04l0 -83.93 23.43 0 0 11.64c4.44,-7.96 14.4,-13.94 26.5,-13.94 9.04,0 16.85,3.06 23.13,9.04 6.28,5.98 9.5,14.7 9.5,25.89l0 51.31 -24.04 0 0 -45.03c0,-12.25 -6.43,-19.15 -16.39,-19.15 -10.87,0 -18.07,7.96 -18.07,19.76l0 44.41 -24.04 0z"/>
   <path class="fil0" d="M420.78 306.04l-24.04 0 0 -83.93 24.04 0 0 83.93zm-26.19 -106.75c0,-8.12 6.28,-14.24 14.4,-14.24 7.96,0 14.24,6.13 14.24,14.24 0,8.11 -6.28,14.24 -14.24,14.24 -8.12,0 -14.4,-6.13 -14.4,-14.24z"/>
   <path class="fil0" d="M489.69 284.13c9.95,0 15.31,-6.13 15.31,-13.32 0,-7.35 -5.21,-13.33 -14.86,-13.33l-23.59 0 0 26.65 23.13 0zm-23.13 -69.53l0 22.21 20.37 0c8.58,0 13.17,-5.21 13.17,-11.33 0,-5.97 -4.59,-10.87 -12.1,-10.87l-21.44 0zm64.63 58.35c0,9.35 -3.37,17.31 -9.96,23.59 -6.58,6.28 -15.31,9.5 -26.19,9.5l-53.45 0 0 -113.18 50.85 0c10.41,0 18.53,2.76 24.2,8.42 5.67,5.52 8.58,12.1 8.58,19.61 0,10.26 -6.28,19.6 -15.62,23.13 14.09,3.52 21.59,14.85 21.59,28.94z"/>
   <path class="fil1" d="M664.2 199.65c1.14,0.88 2.14,2.01 2.93,3.38l0 0 14.06 24.35c13.18,-15.63 37.16,-16.71 51.65,-2.22l0 0c15.3,15.3 12.82,40.23 -3.48,52.63l0 0c-16.31,12.22 -39.94,8.34 -50.72,-8.98l0 0c-2.47,11.59 -7.68,21.57 -15.52,30.47l0 0c25.54,23.2 66.17,23.81 92.1,-2.12l0 0c27.65,-27.65 25.09,-72.54 -3.07,-97.33l0 0c-12.52,-11.02 -28.29,-16.52 -44.07,-16.52l0 0c-15.69,0 -31.39,5.44 -43.88,16.33zm-102.2 0.19c-28.15,24.78 -30.72,69.67 -3.07,97.33l0 0c26.1,26.1 68.57,25.89 94.46,0l0 0c17.33,-17.33 17.56,-33.16 19.37,-47.19l0 0 6.29 0c2.52,0 3.93,-2.85 2.51,-4.85l0 0 -21.84 -37.83c-1.19,-2.07 -4.16,-2.02 -5.31,0.01l0 0 -21.98 38.07c-1.18,2.06 0.34,4.59 2.65,4.58l0 0 6.38 0c-0.87,6.81 -2.12,13.21 -5.89,19.15l0 0c-10.86,17.47 -34.62,20.79 -50.78,8.68l0 0c-16.3,-12.4 -18.78,-37.33 -3.48,-52.63l0 0c14.49,-14.49 38.47,-13.41 51.65,2.22l0 0 14.06 -24.35c0.79,-1.37 1.79,-2.5 2.93,-3.38l0 0c-12.5,-10.89 -28.19,-16.33 -43.88,-16.33l0 0c-15.78,0 -31.56,5.51 -44.08,16.52l0 0z"/>
   <path class="fil2" d="M853.11 224.45c0.09,-0.12 0.43,-0.55 0.54,-0.69l11.29 -17.22c-4.27,-6.56 -16.72,-11.37 -24.23,-13.58 -14.38,-4.25 -32.35,-1.8 -44.22,8.33 -12.07,10.3 -13.21,30.06 -5.65,40.94 8.16,11.75 21.89,16.2 35.43,20.94 4.48,1.57 8.72,3.62 11.02,7.58 4.21,7.24 -4.65,15.83 -21.15,12.44 -13.59,-2.79 -19.5,-11.81 -23.11,-14.12l-13.6 18.01c1.32,4.8 10.93,10.94 15.46,13.68 5.67,3.43 14.37,5.98 21.59,6.88 20.03,2.48 43.32,-4.91 49.16,-25.43 1.43,-5.02 1.54,-10.97 0.47,-16.75 -1.66,-8.92 -9.69,-17.13 -17.48,-20.94 -11.67,-5.72 -37.06,-11.12 -34.95,-21.63 0.53,-2.61 2.46,-4.08 4.18,-5.17 2.31,-1.46 3.63,-1.8 7.06,-2.29 11.93,-1.72 25.5,9.22 27.62,9.7l0.57 -0.67z"/>
   <polygon class="fil2" points="871.65,217.7 903.34,217.66 903.41,306.3 929.37,306.28 929.38,217.69 960.98,217.69 960.91,192.91 871.74,192.92 "/>
  </g>
 </g>
</svg>
