<?xml version="1.0" encoding="UTF-8"?>
<!DOCTYPE svg PUBLIC "-//W3C//DTD SVG 1.1//EN" "http://www.w3.org/Graphics/SVG/1.1/DTD/svg11.dtd">
<!-- Creator: CorelDRAW 2021 (64-Bit) -->
<svg xmlns="http://www.w3.org/2000/svg" xml:space="preserve" width="4in" height="3.02778in" version="1.1" style="shape-rendering:geometricPrecision; text-rendering:geometricPrecision; image-rendering:optimizeQuality; fill-rule:evenodd; clip-rule:evenodd"
viewBox="0 0 4000 3027.78"
 xmlns:xlink="http://www.w3.org/1999/xlink"
 xmlns:xodm="http://www.corel.com/coreldraw/odm/2003">
 <defs>
  <style type="text/css">
   <![CDATA[
    .str1 {stroke:#4B4A46;stroke-width:3;stroke-miterlimit:2.61313}
    .str0 {stroke:#71BA2E;stroke-width:6.67;stroke-linecap:round;stroke-linejoin:round;stroke-miterlimit:2.61313}
    .fil3 {fill:#373435}
    .fil1 {fill:#6DC231}
    .fil2 {fill:#71BA2E}
    .fil0 {fill:#D4E4BD}
   ]]>
  </style>
 </defs>
 <g id="Layer_x0020_1">
  <metadata id="CorelCorpID_0Corel-Layer"/>
  <g id="_2796942759840">
   <g>
    <path class="fil0" d="M790.83 2090.82c166.41,12.2 265.96,19.86 444.92,0.82 111.69,-11.89 275.35,-46.77 359.65,-78.04l33.81 -12.02c96.39,-32.87 212.42,-95.72 276.09,-136.26 20.15,-12.83 77.2,-51.86 85.31,-64.58 8.23,2.68 2.26,0.2 8.31,3.47 2.99,1.61 2.9,1.69 5.6,3.63 4.37,3.12 6.24,4.8 11.02,8.15 9.11,6.4 11.94,10.02 22.14,16.8l94.31 60.94c16.97,10.36 34.25,19.65 52.13,28.42 7.79,3.82 17.5,9.19 26.01,13.34 141.61,69.13 318.06,128.12 548.67,155.93 162.16,19.55 281.97,10.28 441.41,-0.59 -6.78,9.85 -104.61,27.19 -137.02,32.65 -306.63,51.66 -599.88,30.77 -853.86,-47.78 -32.72,-10.12 -43.31,-16.25 -57.51,-21.07l-42.87 -15.74c-6.83,-2.46 -8.86,-4.09 -14.74,-6.99l-49.56 -24.08c-13.74,-7.24 -34.07,-18.59 -47.6,-26.89l-69.69 38.16c-8.93,4.55 -15.47,7.09 -25,11.93l-114.71 44.03c-276.3,88.69 -607.26,100.37 -926.41,35.81l-70.42 -20.02z"/>
    <path class="fil0" d="M1673.2 2150.87c92.17,-15 269.74,-68.86 323.83,-103.95 107.1,38.7 174.24,82.87 324.28,104.07 -13.31,43.78 -64.5,97.99 -117.2,129.63 -27.22,16.34 -166.32,85.34 -207.06,94.04 -117.95,-34.67 -228.39,-98.03 -278.7,-153.16 -22.31,-24.45 -35.37,-45.53 -45.16,-70.63z"/>
    <path class="fil0" d="M2035.46 1751.25c14.67,3.05 22.28,7.68 35.89,13.62 39.05,17.03 120.32,46.57 168.03,64.45 13.52,5.07 20.81,6.14 34.99,11.72 8.85,3.48 25.28,8.87 37.22,12.54 11.82,3.63 24.71,7.31 36.61,11.07 86.44,27.3 183.64,51.77 284.56,71.24 187.1,36.1 413.85,59.17 629.12,64.53 30.76,0.76 248.09,1.65 252.48,2.51 -92.9,21.5 -352.35,41.72 -474.99,42.69 -160.74,1.27 -340.76,-20.63 -459.02,-48.78 -93.52,-22.26 -210.86,-56.72 -280.24,-89.67l-66.2 -30.28c-61.54,-31.37 -169.5,-93.09 -198.46,-125.64z"/>
    <path class="fil0" d="M485.63 2002.04c317.43,5.94 628.74,-17.92 881.78,-67.48 59.38,-11.63 115.12,-24.72 166.78,-37.76 58.2,-14.68 103.78,-29.87 154.09,-44.54l69.98 -23.3c12.35,-4.19 20.6,-8.44 32.5,-12.54 40.1,-13.84 157.42,-63.63 171.3,-66.74 -26.98,29.6 -155.3,101.95 -213.3,131.91l-85.34 37.21c-13.23,4.61 -27.11,8.74 -38.1,14.08 -9.17,4.46 -6.11,4.11 -16.89,7.81l-102.22 32.58c-146.96,43.42 -341.32,72.81 -546.85,72.37 -168.38,-0.37 -302.92,-16.49 -453.74,-38.06 -11.05,-1.58 -5.38,-0.04 -13.05,-2.11 -8.81,-2.37 -4.64,-0.18 -6.93,-3.43z"/>
   </g>
   <g>
    <g>
     <path class="fil1" d="M790.83 883.63c166.41,-30.97 265.96,-50.43 444.92,-2.09 111.69,30.17 275.35,118.73 359.65,198.11l33.81 30.5c96.39,83.46 212.42,243 276.09,345.94 20.15,32.58 77.2,131.65 85.31,163.94 8.23,-6.8 2.26,-0.52 8.31,-8.8 2.99,-4.09 2.9,-4.3 5.6,-9.22 4.37,-7.93 6.24,-12.18 11.02,-20.69 9.11,-16.24 11.94,-25.43 22.14,-42.65l94.31 -154.7c16.97,-26.3 34.25,-49.89 52.13,-72.13 7.79,-9.7 17.5,-23.34 26.01,-33.88 141.61,-175.5 318.06,-325.26 548.67,-395.85 162.16,-49.63 281.97,-26.1 441.41,1.51 -6.78,-25.02 -104.61,-69.04 -137.02,-82.91 -306.63,-131.15 -599.88,-78.11 -853.86,121.31 -32.72,25.7 -43.31,41.26 -57.51,53.5l-42.87 39.96c-6.83,6.24 -8.86,10.39 -14.74,17.76l-49.56 61.13c-13.74,18.39 -34.07,47.2 -47.6,68.28l-69.69 -96.87c-8.93,-11.55 -15.47,-18.01 -25,-30.3l-114.71 -111.78c-276.3,-225.14 -607.26,-254.81 -926.41,-90.9l-70.42 50.83z"/>
     <path class="fil1" d="M1673.2 731.17c92.17,38.09 269.74,174.81 323.83,263.89 107.1,-98.25 174.24,-210.38 324.28,-264.19 -13.31,-111.15 -64.5,-248.78 -117.2,-329.09 -27.22,-41.48 -166.32,-216.67 -207.06,-238.75 -117.95,88 -228.39,248.87 -278.7,388.82 -22.31,62.07 -35.37,115.58 -45.16,179.31z"/>
     <path class="fil1" d="M2035.46 1745.7c14.67,-7.74 22.28,-19.49 35.89,-34.57 39.05,-43.24 120.32,-118.22 168.03,-163.62 13.52,-12.87 20.81,-15.59 34.99,-29.75 8.85,-8.83 25.28,-22.52 37.22,-31.83 11.82,-9.22 24.71,-18.56 36.61,-28.09 86.44,-69.31 183.64,-131.43 284.56,-180.87 187.1,-91.66 413.85,-150.21 629.12,-163.83 30.76,-1.94 248.09,-4.2 252.48,-6.37 -92.9,-54.59 -352.35,-105.92 -474.99,-108.37 -160.74,-3.21 -340.76,52.39 -459.02,123.83 -93.52,56.49 -210.86,143.99 -280.24,227.63l-66.2 76.87c-61.54,79.65 -169.5,236.34 -198.46,318.97z"/>
     <path class="fil1" d="M485.63 1109.01c317.43,-15.08 628.74,45.5 881.78,171.32 59.38,29.52 115.12,62.76 166.78,95.85 58.2,37.27 103.78,75.85 154.09,113.08l69.98 59.15c12.35,10.65 20.6,21.43 32.5,31.85 40.1,35.13 157.42,161.54 171.3,169.43 -26.98,-75.15 -155.3,-258.83 -213.3,-334.9l-85.34 -94.46c-13.23,-11.71 -27.11,-22.2 -38.1,-35.75 -9.17,-11.31 -6.11,-10.43 -16.89,-19.83l-102.22 -82.7c-146.96,-110.24 -341.32,-184.85 -546.85,-183.72 -168.38,0.93 -302.92,41.87 -453.74,96.63 -11.05,4.01 -5.38,0.11 -13.05,5.36 -8.81,6.02 -4.64,0.45 -6.93,8.71z"/>
    </g>
    <path class="fil2" d="M1637.74 1958.54l845.77 6.63 6.22 346.07 -182.54 3.12 1.26 -189.97c20.1,-0.88 51.4,0.37 66.39,-1.66l61.32 -2.95 4.61 -96.35c-158.8,-1.62 -237.5,-17.21 -245.41,66.28l-0.64 283.78 372.66 -3.2 5.91 -404.38c101.42,-3.91 347.61,-11.02 448.54,-39.74l-1384.09 32.37zm1402.57 -10.2l0.19 -0.1 -0.19 -9.3 0 9.4zm-35.56 -11.35c-114.28,-22.38 -348.04,-48.26 -446.4,-49.73 -17.33,-22.93 -178.06,-208.16 -267.44,-167.52 -98.18,44.65 95.78,96.97 119.05,105.98 23.44,9.07 76.26,33.65 78.79,63.01l516 48.26zm-1005.02 -48.26c-73.11,-1.2 -146.12,-1.72 -218.36,0l218.36 0zm-502.44 43c-157.53,-4.47 -339.28,-18.49 -456.27,-7.34l456.27 7.34zm-537.75 -6.11c-0.04,1.27 -0.04,2.63 0,4.07l0 -4.07z"/>
    <path class="fil2" d="M1527.1 2358.24c4.64,-75.22 21.11,-239.5 -14.48,-298.21 -48.3,-79.68 -148.39,-26.31 -183.62,14.34 -74.98,-62.6 -170.21,-93.73 -236.65,7.13 -0.03,-16.61 -0.41,-27.81 -0.22,-36.38 0.39,-16.93 0,-18.17 0.13,-23.25l-65.89 0c-2.63,0.02 -5.34,0.03 -8.13,0l-4.86 0 1.2 355.5 77.1 -0.06c1.58,-24.02 -0.56,-33.57 0.38,-88.96 0.52,-30.56 -2.2,-68.86 0.34,-99 9.32,-110.71 187.87,-176.56 154.45,201.41 -73.54,43.59 -83.76,-3.38 -115.7,68.21 252.79,-45.89 186.08,-203.07 195.14,-285.33 11.35,-103.06 159.43,-157.43 115.22,212.04 -60.78,24.13 -72.55,13.94 -102.54,74.41 144.13,-31.11 118.03,-68.24 188.11,-101.86z"/>
    <path class="fil2" d="M2708.37 2258.19l0 -28.58c-0.65,-9.85 -0.69,-21.2 0,-34.4l0 -99.71 100.84 0 100.13 -0.48 0 0.48 1.64 0 0 163.05c0,1.97 -0.1,3.91 -0.28,5.84l1.16 144.84 82.61 -0.09 1 -387.33 -385.34 -0.06c0.23,29.63 0.11,56.76 -0.08,81.63l-0.63 0 0 163.77c0,56.02 45.83,101.86 101.86,101.86 51.47,0 103.22,0 154.83,0l0 -61.61 -87.87 -6c-30.37,-2.08 -56.98,-17.63 -69.89,-43.19z"/>
    <path class="fil2" d="M1876.72 2233.31c186.5,-98.57 71.23,-297.98 -167.19,-132.04 -5.59,-15.52 -7.75,-56.33 -28.3,-82.19l-75.33 0.24 2.51 324.88c7.1,29.95 6.33,23.21 16.25,37.4l56.57 1.44c43.63,-70.15 1.48,-165.26 28.3,-247.28 99.93,-40.37 178.09,-13.11 167.19,97.56z"/>
    <polygon class="fil2" points="1605.9,2019.32 1700.28,2019.32 1700.28,2382.78 1605.9,2382.78 "/>
    <polygon class="fil2" points="2040.09,2020.56 2124.51,2020.56 2124.51,2409.08 2040.09,2409.08 "/>
    <polygon class="fil2" points="2718.95,2313.42 2809.77,2336.49 2866.52,2335.94 2865.58,2370.24 2707.28,2367.24 "/>
    <path class="fil2 str0" d="M2082.3 1758.94c29.69,0 53.76,24.07 53.76,53.76 0,29.69 -24.07,53.76 -53.76,53.76 -29.69,0 -53.76,-24.07 -53.76,-53.76 0,-29.69 24.07,-53.76 53.76,-53.76z"/>
    <rect class="fil2" x="959.54" y="1888.73" width="2080.76" height="69.81"/>
   </g>
   <g>
    <path class="fil3" d="M1674.33 2628.48c4.49,-22.9 5.35,-31.19 17.07,-51.81 11.91,-20.95 14.11,-21.94 41.1,-22.39 -16.79,67.74 -14.69,110.1 18.7,159.03 21.04,-0.3 21.33,1.71 35.26,-9.5 -21.58,-11.75 -25.68,6.71 -40.88,-29.33 -22.77,-54 17.43,-159.09 34.95,-218.32l-65.07 18.06 43.74 5.33 -28.82 58.31c-2.28,0.37 -4.7,0.54 -7.22,0.92 -44.67,6.84 -59.61,29.33 -65.38,103.05 43.06,-4.13 44.08,-0.24 61.64,-28.31l-45.1 14.96z"/>
    <path class="fil3" d="M1057.38 2651.02c6.02,-53.33 20.97,-73.01 68.97,-85.19 -9.65,55.08 -15,74.09 -68.97,85.19zm-14.28 -69.11c-1.33,-1.67 19.67,-43.65 17.73,-45.48 -21.81,42.9 -21.04,19.75 -41.8,49.5l28.48 21.03c-9.14,39.21 -12.44,69.98 -23.7,96.44 -6.15,14.44 -12.89,27.26 -20.99,42.16l-17.83 32.37c-0.58,-1.3 -2.27,4.18 -3.45,6.23 36.92,-21.02 60.79,-87.32 71.09,-128.47l77.8 -12.13c13.13,-31.47 22.75,-50.98 20.44,-97.39 -25.74,1.22 -47.78,7.36 -62.57,22.79 -3.28,3.42 -35.21,25.48 -45.19,12.96z"/>
    <path class="fil3" d="M2115.03 2555.24l-9.26 13.64 -8.88 75.83c28.94,-2.47 82.75,-52.82 109.82,-66.66 -7.31,46.59 -18.51,71.96 -34.37,110.81 -7.73,18.95 -11.83,31.35 -20.89,49.52 -10.94,21.96 -16.91,25.81 -26.25,45.36 45.1,-20.71 99.62,-203.28 106.98,-246.01 -38.24,12.61 -8.23,-8.37 -33.67,28.47 -16.87,24.44 -55.92,54.78 -84.2,66.96l25.33 -102.64 -43.4 11.82 -27.65 13.72 45.22 0.41 1.22 -1.22z"/>
    <path class="fil3" d="M1970.77 2542.28l-32.14 4.94c1.48,-13.86 3.5,-42.26 6.24,-54.59 3.92,-17.65 8.93,-17.39 12.78,-38 -40.3,12.1 -40.9,-2.13 -61.62,13.41l44.65 -1.03 -46.61 191.49c11.19,-4.05 15.24,-26.26 19.2,-28.58 38.56,-22.55 2.75,63.19 28.54,-71.31l28.96 -1.82c24.48,-2.09 12.76,-3.62 13.83,28.23 -1.46,1.72 -3.52,2.16 -4.08,5.4 -28.51,41.44 -15.98,35.66 -66.36,39.5 2.78,0.13 -11.17,8.61 -9.68,11.16 1.39,2.39 53.29,-7.3 55.09,-7.73 26.8,-6.45 22,-12.31 32.17,-39.11 10.65,-35.08 13.25,-19.88 43.52,-50.45l-64.49 -1.5z"/>
    <path class="fil3" d="M1519.73 2584.77c10.49,-27.1 11.11,-33.07 46.83,-32.12 -8.67,28.25 -14.79,30.34 -46.83,32.12zm-30.58 56.27c36.66,-1.23 88.67,3.28 117.67,-15.82 -12.82,-9.78 16.04,-14.59 -40.52,-2.07 -24.14,5.35 -33.93,5.3 -58.29,5.87 20.66,-69.47 91.09,5.18 72.17,-80.17 -0.37,-1.67 -1.73,-4.19 -2.61,-6.28 -63.15,-25.2 -85.43,39.35 -88.42,98.47z"/>
    <path class="fil3" d="M2439.32 2530.91c30.87,-83.76 14.88,-43.13 2.2,-55.56l-22.89 66.71c-33.57,0.75 -44.81,-5.94 -55.33,16.72l46.59 -1.44c-8.14,29.26 -27.07,63.56 -32.09,93.25l47.11 -1.61c-15.97,-20.5 -15.69,-17.44 -10.72,-40.8 3.64,-17.12 8.54,-33.45 12.11,-52.09l54.7 -9.48c-10.22,-16.79 -2.91,-9.28 -20.57,-12.26 -2,-0.34 -9.65,-0.3 -11.18,-0.48 -1.02,-0.11 -4.36,0.6 -5.1,-1.24 -0.72,-1.8 -3.27,-1.02 -4.82,-1.73z"/>
    <path class="fil3" d="M3414.99 2499.56c7.26,4.47 15.5,-7.78 26.48,-4.5l-40.62 146.41c41.85,1.31 52.41,-4.89 74.86,-23.16 -23.5,4.12 -27.78,9.11 -55.44,14.89 17.88,-64.64 32.78,-109.51 52.98,-168.4 -23.96,10.49 -41.67,22.53 -58.26,34.76z"/>
    <path class="fil3 str1" d="M560.08 2556.16l-2.61 77.59 40.1 1.2c-9.13,-22.56 2.81,-4.74 -20.9,-17.59 1,-31.72 0.58,-60.62 12.52,-89.8 18.36,-44.86 32.25,-21.98 56.02,-42.3 -14.13,-12.38 28.92,-13.35 -53.47,-1.88 -36.31,5.06 -29.81,0.65 -52.25,22.98 28.54,4.36 19.2,2.37 45.37,-7.16 -8.75,17.96 -19.81,32.68 -24.79,56.96zm-35.79 82.68l50.69 -4.57c-11.25,-23.94 3.97,-5.56 -30.81,-0.54 -27.72,-3.91 -16.67,3.36 -19.87,5.11z"/>
    <path class="fil3" d="M3122.49 2634.09c-4.06,-51.71 13.13,-82.15 61.82,-85.87 -0.58,42.22 -13.15,67.67 -46.15,79.72 58.03,14.65 92.07,-79.48 52,-92.99 -18.63,-6.28 -58.41,8.93 -68.89,18.37 -9.15,8.25 -13.28,19.11 -16.03,32.77 -9.56,47.36 5.71,40.02 17.26,48z"/>
    <path class="fil3" d="M2764.75 2583.71c11.63,-24.89 16.51,-31.67 54.39,-27.57 -4.01,34.42 -15.91,32.54 -54.39,27.57zm-28.43 59.85c36.31,-2.28 88.96,-1.26 117.8,-18.34 -20.31,-12.69 -33.51,8.89 -99.05,6.69 3.64,-40.99 -3.73,-26.23 20.57,-32.74 22.21,-5.95 94.54,-7.42 51.62,-55.67 -73.58,-12.67 -85.66,29.41 -90.94,100.06z"/>
    <g>
     <path class="fil3" d="M724.61 2591.38l-28.82 38.73c-0.56,-1.08 -1.84,1.28 -2.44,4.11 0.14,-2.51 0.3,-5 0.47,-7.46 1.35,-19.3 3.68,-37.19 7.41,-51.4l-30.2 -8.12 54.31 -30.6 -15.69 65.29c1.28,-1.16 13.76,-9.48 14.97,-10.54zm-31.26 42.84c-0.23,1.09 -0.36,2.26 -0.31,3.32l22.86 -17.25 0.65 -2.99 21.59 -26.77c19.88,-10.23 21.16,-16.15 41.28,-26 -3.79,27.58 -15.69,49.19 -6.26,68.08 7.54,6.87 69.09,1.34 75.29,-27.24l-54.52 23.35 8.71 -90.09c-35.26,6.64 -61.06,22.6 -78.04,52.74l-31.26 42.84zm-0.17 3.22l22.73 -17.15 -23 22.97 0.27 -5.82z"/>
    </g>
    <path class="fil3" d="M1406.5 2568.43c36.2,-13.61 49.95,-1.58 64.78,-31.72l-67.88 26.85c-1.67,-2.19 -5.09,-31.81 -6.79,-34.83 -5.91,19.02 -23.59,11.28 -48.28,29.7l39.06 -0.48 -21.72 84.27c34.15,-14.57 30.3,-39.73 40.81,-73.79z"/>
    <path class="fil3" d="M901.13 2554.48c9.46,34.48 24.83,40.24 43.31,62.88l-48.81 28.28c30.43,-1.35 52.27,-9 71.3,-28.28 -5.69,-33.72 -10.81,-36.35 -34.24,-58.78 -0.89,-0.85 -2.9,-2.66 -4.23,-4.1 31.61,-23.62 21.18,-1.14 34.83,-35.37 -39.18,9.13 -42.24,11.77 -62.16,35.37z"/>
    <path class="fil3" d="M2600.96 2586.54c9.42,-11.15 19.28,-16.6 21.36,-18.37l9.06 77.7c26.21,-0.82 27.06,1.32 48.23,-7.76 25.97,-11.14 24.69,-20.92 28.22,-27.72 -39.6,11.64 -17.51,18.27 -53.5,17.76 -5.34,-32.69 -3.51,-57.88 -19.09,-83.11l-29.07 17.66c-7.99,4.46 -14.99,6.99 -21.56,11.72 -16,11.52 -8.83,7.16 -16.88,16.71l0.67 -10.02c-0.69,-39.47 17.89,-77.87 25.81,-115.38l40.56 -6.2 0.29 -14.87 -9.13 -1.78c-0.15,0.15 -22.59,28.74 -22.59,-0.26 -27.69,13.3 -31.61,35.77 -45.17,89.26 -8.97,35.42 -22.6,88.69 -37.23,114.49 25.11,-0.28 27.69,0.02 43,-16.92 15.36,-22.34 5.44,-13.78 17.96,-26.38 19.22,-19.35 10.29,-8.51 19.06,-16.53z"/>
    <path class="fil3" d="M3022.56 2540.32l15.28 -8.06c-6,-13.93 19.1,-12.89 -15.24,-9.73 -34.5,9.2 -54.48,24.37 -31.73,61.18 12.79,12.74 44.07,23.31 -18.16,55.63 12.89,15.42 41.97,-4.52 62.74,-20.77 -1.77,-52.44 -72.38,-68 -12.9,-78.24z"/>
    <path class="fil3" d="M1229.48 2593.74l-8.67 55.89c40.95,1.83 56.72,-12.34 71.11,-40.97 -31.43,14.83 -10.72,16.62 -46.52,25.52l10.38 -50.81 -0.05 -0.11c6.07,-31.28 4.24,-20.32 15.69,-47.39 -35.84,11.14 -49.83,29.25 -70.43,45.72 39.28,-4.12 35.26,-9.05 34.65,0.57 -0.15,2.44 -8.72,7.28 -6.17,11.6z"/>
    <path class="fil3" d="M3281.47 2579.93l-14.04 58.37c19.6,3.26 20.86,4.02 41.84,0.4 10.41,-1.8 8.49,-1.36 18.84,-4.91 26.6,-9.14 4.98,-1.6 16.62,-8.57 -22.96,-7.43 -15.98,7.61 -58.23,7.72l14.58 -47.06c-2.35,-16.13 2.92,-15.48 -9.91,-10.77l25.9 -41.32c-24.94,3.79 -17.85,3.21 -35.1,14.17 -3.31,2.1 -16.41,10.07 -19,12.22 -19.22,16.03 -6.69,3.98 -17.43,20.37l35.94 -0.63z"/>
    <path class="fil3" d="M3303.49 2475.89c7.92,6.79 -12.01,17.4 35.2,5.4 -5.6,-6.27 11.33,-41.26 -35.2,-5.4z"/>
    <path class="fil3" d="M2455.02 2639.45c21.76,-4.38 25.63,-5.4 27.13,-26.2 -32.56,5.47 -22.54,-4.28 -27.13,26.2z"/>
    <polygon class="fil3" points="561,2607.13 554.69,2634.42 577.52,2634.35 578.98,2621.78 "/>
    <polygon class="fil3" points="699.76,2617.85 693.93,2625.26 693.18,2637.44 710.7,2616.32 727.63,2595.07 724.61,2591.38 713.5,2602.83 "/>
    <polygon class="fil3" points="1907.21,2626.79 1906.99,2627.52 1906.8,2628.19 1906.65,2628.7 1902.67,2642.24 1910.94,2640.56 1927.27,2637.33 1934.32,2637.86 1935.69,2632.72 1930.78,2627.67 1921.04,2618.96 1913.21,2619.62 "/>
   </g>
  </g>
 </g>
</svg>
