<?xml version="1.0" encoding="UTF-8"?>
<!DOCTYPE svg PUBLIC "-//W3C//DTD SVG 1.1//EN" "http://www.w3.org/Graphics/SVG/1.1/DTD/svg11.dtd">
<!-- Creator: CorelDRAW 2021 (64-Bit) -->
<svg xmlns="http://www.w3.org/2000/svg" xml:space="preserve" width="11.6929in" height="8.26772in" version="1.1" style="shape-rendering:geometricPrecision; text-rendering:geometricPrecision; image-rendering:optimizeQuality; fill-rule:evenodd; clip-rule:evenodd"
viewBox="0 0 11692.91 8267.72"
 xmlns:xlink="http://www.w3.org/1999/xlink"
 xmlns:xodm="http://www.corel.com/coreldraw/odm/2003">
 <defs>
  <style type="text/css">
   <![CDATA[
    .fil0 {fill:#373435;fill-rule:nonzero}
   ]]>
  </style>
 </defs>
 <g id="Layer_x0020_1">
  <metadata id="CorelCorpID_0Corel-Layer"/>
  <g id="_1654439906624">
   <path class="fil0" d="M8743.51 3880.06c-84.28,0 -160,-13.2 -235.74,-28.9 -111.79,-23.28 -217.19,-62.46 -313.76,-123.53 -9.8,-6.11 -19.39,-12.72 -28.91,-19.39 -13.27,-9.31 -16.67,-23.48 -9.1,-35.5 8.13,-12.51 22.58,-15.22 37.31,-6.39 65.66,40.23 136.24,68.65 210.03,89.49 81.35,23 163.96,36.75 248.52,39.46 65.65,2.22 131.1,0.97 195.09,-17.93 32.1,-9.52 63.02,-21.81 86.78,-47.04 5.63,-5.91 11.05,-12.78 15.22,-19.87 22.79,-39.19 5.83,-77.47 -38.98,-87.26 -39.26,-8.33 -70.59,7.16 -96.37,35.09 -11.26,12.23 -19.8,27.44 -28.62,41.89 -14.04,22.79 -34.11,34.53 -60.59,32.59 -27.44,-1.94 -46.55,-16.68 -55.86,-42.87 -5.91,-16.95 -4.93,-33.84 3.68,-49.26 40.92,-72.33 99.77,-121.38 184.05,-133.33 93.65,-13.27 176.47,41.41 201.2,116.65 18.2,55.86 3.96,105.61 -30.36,150.7 -33.83,44.61 -80.39,69.89 -133.33,84.83 -51.2,14.73 -103.45,21.05 -150.28,20.57z"/>
   <path class="fil0" d="M2721.93 4045.2l-299.8 0 0 275.48 300.98 0c58.36,0 105.67,-11.26 141.94,-34.04 39.67,-24.25 59.54,-57.39 59.54,-99.49 0,-94.63 -67.67,-141.94 -202.67,-141.94zm202.67 331.41c-59.82,33.07 -134.3,49.75 -223.3,49.75l-279.16 0 0 335.99 -116.44 0 0 -822.75 408.87 0c218.37,0 327.65,82.06 327.65,246.3 0,84.34 -39.19,147.78 -117.62,190.71z"/>
   <polygon class="fil0" points="3263.16,4762.42 3263.16,3939.6 3944.04,3939.6 3944.04,4045.2 3378.35,4045.2 3378.35,4281.78 3879.56,4281.78 3879.56,4387.38 3378.35,4387.38 3378.35,4656.74 3949.94,4656.74 3949.94,4762.42 "/>
   <path class="fil0" d="M4847.58 4762.42l-555.89 -638.29 0 638.29 -116.44 0 0 -822.82 104.42 0c70.31,84.07 163.69,191.69 280.41,322.79 140.62,157.85 232.82,261.79 276.45,312.02l0 -634.81 116.65 0 0 822.82 -105.61 0z"/>
   <path class="fil0" d="M5604.12 4110.72l-152.99 303.41 301.04 0 -148.06 -303.41zm316.67 651.7l-117.69 -242.61 -405.4 0 -120.06 242.61 -131.17 0 412.76 -822.75 90.94 0 398.03 822.75 -127.42 0z"/>
   <path class="fil0" d="M6915.08 4762.42l-555.89 -638.29 0 638.29 -116.44 0 0 -822.82 104.42 0c70.31,84.07 163.69,191.69 280.41,322.79 140.69,157.85 232.82,261.79 276.45,312.02l0 -634.81 116.65 0 0 822.82 -105.61 0z"/>
   <polygon class="fil0" points="7656.47,4045.2 7656.47,4762.35 7540.03,4762.35 7540.03,4045.2 7224.33,4045.2 7224.33,3939.6 7970.65,3939.6 7970.65,4045.2 "/>
   <polygon class="fil0" points="8175.68,3939.67 8292.12,3939.67 8292.12,4762.42 8175.68,4762.42 "/>
   <path class="fil0" d="M8943.19 4110.72l-152.92 303.41 300.97 0 -148.06 -303.41zm316.68 651.7l-117.63 -242.61 -405.4 0 -120.13 242.61 -131.1 0 412.76 -822.75 90.87 0 398.04 822.75 -127.42 0z"/>
  </g>
 </g>
</svg>
