<svg width="415" height="547" viewBox="0 0 415 547" fill="none" xmlns="http://www.w3.org/2000/svg">
<path d="M224.866 0.178711H222.246V6.73026H224.866V0.178711Z" fill="#3D493A"/>
<path d="M224.866 0.178711H222.246V6.73026H224.866V0.178711Z" fill="#3D493A"/>
<path d="M224.866 108.272H222.246V114.824H224.866V108.272Z" fill="#3D493A"/>
<path d="M172.785 56.1904H166.234V58.8106H172.785V56.1904Z" fill="#3D493A"/>
<path d="M172.785 56.1904H166.234V58.8106H172.785V56.1904Z" fill="#3D493A"/>
<path d="M280.879 56.1904H274.328V58.8106H280.879V56.1904Z" fill="#3D493A"/>
<path d="M183.954 16.0662L182.102 17.9189L186.734 22.5516L188.587 20.6988L183.954 16.0662Z" fill="#3D493A"/>
<path d="M183.954 16.0662L182.102 17.9189L186.734 22.5516L188.587 20.6988L183.954 16.0662Z" fill="#3D493A"/>
<path d="M260.388 92.5056L258.535 94.3584L263.168 98.991L265.021 97.1382L260.388 92.5056Z" fill="#3D493A"/>
<path d="M186.722 92.4732L182.09 97.1064L183.943 98.9589L188.575 94.3257L186.722 92.4732Z" fill="#3D493A"/>
<path d="M186.722 92.4732L182.09 97.1064L183.943 98.9589L188.575 94.3257L186.722 92.4732Z" fill="#3D493A"/>
<path d="M263.159 16.0406L258.527 20.6738L260.38 22.5263L265.012 17.8931L263.159 16.0406Z" fill="#3D493A"/>
<path d="M211.774 1.38137L209.223 1.97852L210.716 8.35776L213.267 7.76061L211.774 1.38137Z" fill="#3D493A"/>
<path d="M211.774 1.38137L209.223 1.97852L210.716 8.35776L213.267 7.76061L211.774 1.38137Z" fill="#3D493A"/>
<path d="M236.415 106.631L233.863 107.229L235.356 113.608L237.908 113.011L236.415 106.631Z" fill="#3D493A"/>
<path d="M173.804 67.7946L167.426 69.2891L168.023 71.8401L174.402 70.3457L173.804 67.7946Z" fill="#3D493A"/>
<path d="M173.804 67.7946L167.426 69.2891L168.023 71.8401L174.402 70.3457L173.804 67.7946Z" fill="#3D493A"/>
<path d="M279.054 43.1413L272.676 44.6357L273.273 47.1868L279.652 45.6924L279.054 43.1413Z" fill="#3D493A"/>
<path d="M175.546 26.1515L174.164 28.3779L179.731 31.8326L181.113 29.6062L175.546 26.1515Z" fill="#3D493A"/>
<path d="M175.546 26.1515L174.164 28.3779L179.731 31.8326L181.113 29.6062L175.546 26.1515Z" fill="#3D493A"/>
<path d="M267.389 83.1506L266.008 85.377L271.575 88.8316L272.956 86.6052L267.389 83.1506Z" fill="#3D493A"/>
<path d="M195.654 99.9328L192.199 105.499L194.425 106.881L197.881 101.315L195.654 99.9328Z" fill="#3D493A"/>
<path d="M195.654 99.9328L192.199 105.499L194.425 106.881L197.881 101.315L195.654 99.9328Z" fill="#3D493A"/>
<path d="M252.662 8.10569L249.207 13.6719L251.433 15.0538L254.888 9.48759L252.662 8.10569Z" fill="#3D493A"/>
<path d="M203.643 3.72542L201.207 4.69238L203.624 10.7821L206.06 9.8151L203.643 3.72542Z" fill="#3D493A"/>
<path d="M203.643 3.72542L201.207 4.69238L203.624 10.7821L206.06 9.8151L203.643 3.72542Z" fill="#3D493A"/>
<path d="M243.522 104.197L241.086 105.164L243.503 111.254L245.939 110.287L243.522 104.197Z" fill="#3D493A"/>
<path d="M175.894 75.0167L169.805 77.4336L170.771 79.8691L176.861 77.4522L175.894 75.0167Z" fill="#3D493A"/>
<path d="M175.894 75.0167L169.805 77.4336L170.771 79.8691L176.861 77.4522L175.894 75.0167Z" fill="#3D493A"/>
<path d="M276.371 35.1476L270.281 37.5645L271.248 40L277.338 37.5831L276.371 35.1476Z" fill="#3D493A"/>
<path d="M171.445 33.5553L170.406 35.9609L176.42 38.5576L177.459 36.1519L171.445 33.5553Z" fill="#3D493A"/>
<path d="M171.445 33.5553L170.406 35.9609L176.42 38.5576L177.459 36.1519L171.445 33.5553Z" fill="#3D493A"/>
<path d="M270.679 76.3961L269.641 78.8018L275.655 81.3984L276.693 78.9927L270.679 76.3961Z" fill="#3D493A"/>
<path d="M202.221 103.601L199.625 109.615L202.031 110.654L204.627 104.64L202.221 103.601Z" fill="#3D493A"/>
<path d="M202.221 103.601L199.625 109.615L202.031 110.654L204.627 104.64L202.221 103.601Z" fill="#3D493A"/>
<path d="M245.073 4.36294L242.477 10.3779L244.883 11.4167L247.479 5.40173L245.073 4.36294Z" fill="#3D493A"/>
<path d="M191.921 9.6933L189.77 11.1895L193.51 16.5683L195.662 15.0721L191.921 9.6933Z" fill="#3D493A"/>
<path d="M191.921 9.6933L189.77 11.1895L193.51 16.5683L195.662 15.0721L191.921 9.6933Z" fill="#3D493A"/>
<path d="M253.647 98.4345L251.496 99.9307L255.237 105.31L257.388 103.813L253.647 98.4345Z" fill="#3D493A"/>
<path d="M181.136 85.3941L175.758 89.1357L177.254 91.2867L182.632 87.5451L181.136 85.3941Z" fill="#3D493A"/>
<path d="M181.136 85.3941L175.758 89.1357L177.254 91.2867L182.632 87.5451L181.136 85.3941Z" fill="#3D493A"/>
<path d="M269.846 23.703L264.469 27.4434L265.965 29.5943L271.342 25.8539L269.846 23.703Z" fill="#3D493A"/>
<path d="M167.377 46.0693L166.914 48.6484L173.363 49.8061L173.826 47.227L167.377 46.0693Z" fill="#3D493A"/>
<path d="M167.377 46.0693L166.914 48.6484L173.363 49.8061L173.826 47.227L167.377 46.0693Z" fill="#3D493A"/>
<path d="M273.764 65.1631L273.301 67.7422L279.749 68.8998L280.212 66.3207L273.764 65.1631Z" fill="#3D493A"/>
<path d="M213.278 107.217L212.121 113.666L214.7 114.129L215.857 107.68L213.278 107.217Z" fill="#3D493A"/>
<path d="M213.278 107.217L212.121 113.666L214.7 114.129L215.857 107.68L213.278 107.217Z" fill="#3D493A"/>
<path d="M232.391 0.835472L231.234 7.28418L233.813 7.74691L234.97 1.2982L232.391 0.835472Z" fill="#3D493A"/>
<path d="M98.4325 210.983L100.59 208.825L92.3189 200.554L90.1615 202.712L98.4325 210.983Z" fill="#3D493A"/>
<path d="M100.564 202.719L98.4062 200.562L90.1353 208.832L92.2927 210.99L100.564 202.719Z" fill="#3D493A"/>
<path d="M76.6903 210.983L78.8477 208.825L70.5767 200.554L68.4193 202.712L76.6903 210.983Z" fill="#3D493A"/>
<path d="M78.8214 202.719L76.6641 200.562L68.3931 208.832L70.5505 210.99L78.8214 202.719Z" fill="#3D493A"/>
<path d="M54.9403 210.969L57.0977 208.812L48.8267 200.541L46.6694 202.698L54.9403 210.969Z" fill="#3D493A"/>
<path d="M57.0948 202.709L54.9375 200.552L46.6666 208.823L48.8239 210.98L57.0948 202.709Z" fill="#3D493A"/>
<path d="M33.2098 210.984L35.3672 208.826L27.0962 200.555L24.9389 202.713L33.2098 210.984Z" fill="#3D493A"/>
<path d="M35.341 202.719L33.1836 200.562L24.9127 208.832L27.07 210.99L35.341 202.719Z" fill="#3D493A"/>
<path d="M11.4676 210.984L13.625 208.826L5.35406 200.555L3.19668 202.713L11.4676 210.984Z" fill="#3D493A"/>
<path d="M13.6027 202.718L11.4453 200.561L3.17437 208.831L5.33175 210.989L13.6027 202.718Z" fill="#3D493A"/>
<path d="M98.4403 189.127L100.598 186.97L92.3267 178.699L90.1693 180.856L98.4403 189.127Z" fill="#3D493A"/>
<path d="M100.575 180.841L98.418 178.684L90.147 186.955L92.3044 189.112L100.575 180.841Z" fill="#3D493A"/>
<path d="M76.702 189.128L78.8594 186.971L70.5884 178.7L68.431 180.857L76.702 189.128Z" fill="#3D493A"/>
<path d="M78.8371 180.842L76.6797 178.685L68.4087 186.956L70.5661 189.113L78.8371 180.842Z" fill="#3D493A"/>
<path d="M54.9638 189.114L57.1211 186.957L48.8501 178.686L46.6928 180.843L54.9638 189.114Z" fill="#3D493A"/>
<path d="M57.1222 180.833L54.9648 178.676L46.6939 186.947L48.8512 189.104L57.1222 180.833Z" fill="#3D493A"/>
<path d="M33.2137 189.128L35.3711 186.971L27.1001 178.7L24.9428 180.857L33.2137 189.128Z" fill="#3D493A"/>
<path d="M35.3527 180.843L33.1953 178.686L24.9244 186.956L27.0817 189.114L35.3527 180.843Z" fill="#3D493A"/>
<path d="M11.4754 189.128L13.6328 186.971L5.36186 178.7L3.20448 180.857L11.4754 189.128Z" fill="#3D493A"/>
<path d="M13.6144 180.843L11.457 178.686L3.18608 186.956L5.34346 189.114L13.6144 180.843Z" fill="#3D493A"/>
<path d="M98.4286 168.772L100.586 166.614L92.315 158.343L90.1576 160.501L98.4286 168.772Z" fill="#3D493A"/>
<path d="M100.575 160.499L98.418 158.342L90.147 166.613L92.3044 168.77L100.575 160.499Z" fill="#3D493A"/>
<path d="M76.6903 168.773L78.8477 166.615L70.5767 158.344L68.4193 160.502L76.6903 168.773Z" fill="#3D493A"/>
<path d="M78.8371 160.5L76.6797 158.343L68.4087 166.614L70.5661 168.771L78.8371 160.5Z" fill="#3D493A"/>
<path d="M54.9559 168.76L57.1133 166.603L48.8423 158.332L46.685 160.489L54.9559 168.76Z" fill="#3D493A"/>
<path d="M57.1222 160.491L54.9648 158.334L46.6939 166.605L48.8512 168.762L57.1222 160.491Z" fill="#3D493A"/>
<path d="M33.2098 168.774L35.3672 166.616L27.0962 158.345L24.9389 160.503L33.2098 168.774Z" fill="#3D493A"/>
<path d="M35.3566 160.501L33.1992 158.344L24.9283 166.615L27.0857 168.772L35.3566 160.501Z" fill="#3D493A"/>
<path d="M11.4676 168.774L13.625 166.616L5.35405 158.345L3.19667 160.503L11.4676 168.774Z" fill="#3D493A"/>
<path d="M13.6144 160.501L11.457 158.344L3.18608 166.615L5.34346 168.772L13.6144 160.501Z" fill="#3D493A"/>
<path d="M378.236 478.379L364.457 481.478L363.849 478.774L374.925 476.284L372.13 463.857L384.556 461.062L381.575 447.807L393.173 445.199L390.378 432.772L402.805 429.977L400.128 418.074L402.831 417.466L406.116 432.072L393.69 434.867L396.485 447.294L384.887 449.903L387.868 463.158L375.441 465.952L378.236 478.379Z" fill="#3D493A"/>
<path d="M25.6305 543.065L11.8519 546.164L11.2438 543.461L22.319 540.97L19.5243 528.543L31.9508 525.749L28.9698 512.494L40.5679 509.885L37.773 497.458L50.1996 494.663L47.5226 482.76L50.226 482.152L53.511 496.759L41.0844 499.553L43.8794 511.981L32.2812 514.589L35.2623 527.844L22.8357 530.639L25.6305 543.065Z" fill="#3D493A"/>
</svg>
