<svg width="141" height="141" viewBox="0 0 141 141" fill="none" xmlns="http://www.w3.org/2000/svg">
<circle cx="70.4141" cy="70.3828" r="70" fill="#3D493A"/>
<circle cx="70.4154" cy="70.3841" r="23.3333" fill="#AEA17E"/>
<path d="M63.9405 81.955C65.2738 82.1753 66.5758 82.0727 67.8572 81.6577C69.5974 81.0942 71.1501 80.1876 72.6183 79.1179C73.5521 78.4376 74.4668 77.7284 75.4276 77.0886C77.04 76.0149 79.0506 76.0005 80.4937 77.0101C80.7156 77.1652 80.9179 77.358 81.0946 77.5632C81.165 77.6449 81.2009 77.861 81.1469 77.9213C81.0594 78.0189 80.8734 78.1027 80.7486 78.0807C79.9219 77.9349 79.0851 77.8751 78.3257 78.259C77.5046 78.6742 76.7244 79.1768 75.9526 79.6814C75.2956 80.1109 74.6758 80.5973 74.0057 81.0832C74.2938 81.2398 74.5383 81.3725 74.7965 81.5128C75.2144 81.1956 75.6337 80.8416 76.0878 80.54C77.1114 79.8601 78.2167 79.5245 79.4387 79.9191C80.3423 80.2108 80.8677 80.9531 80.7929 81.8339C80.7398 82.4593 80.4093 82.9529 79.9198 83.331C79.0127 84.0317 77.9596 84.3346 76.8356 84.4552C74.822 84.6712 73.0059 84.1257 71.3307 83.0436C71.1336 82.9164 71.0036 82.9294 70.8116 83.0278C68.9196 83.9972 66.9345 84.5935 64.7815 84.5003C63.5099 84.4452 62.3108 84.166 61.2835 83.3653C60.517 82.768 60.1954 81.8891 60.4585 81.062C60.7227 80.2315 61.3672 79.8095 62.1728 79.6582C62.8207 79.5365 63.4863 79.5012 64.1459 79.4518C66.0218 79.3114 67.4881 78.4125 68.7485 77.0676C70.0099 75.7217 70.2047 74.1583 69.8414 72.4406C69.752 72.0181 69.7045 71.5844 69.6731 71.1533C69.6614 70.994 69.7256 70.813 69.8054 70.6698C69.8488 70.5921 70.01 70.5171 70.0967 70.5365C70.6978 70.6712 71.2665 70.5826 71.7852 70.2758C73.1817 69.45 74.2448 68.3281 74.689 66.7311C75.0516 65.4278 74.7813 64.2362 73.8801 63.2112C73.5933 62.885 73.2886 62.5726 72.9733 62.2737C72.0855 61.4324 71.1487 60.6346 70.6185 59.4078C70.0972 60.6991 69.0779 61.4904 68.1694 62.3777C67.8512 62.6885 67.5287 63.0016 67.2553 63.3506C66.1798 64.724 66.1973 66.1905 66.9564 67.691C67.3549 68.4786 67.9335 69.1287 68.6314 69.6651C68.869 69.8477 68.9499 70.0117 68.8453 70.3211C68.6181 70.9928 68.7571 71.6775 68.8687 72.3549C69.0528 73.4722 69.154 74.6035 68.6665 75.6592C67.8569 77.4124 66.3964 78.3634 64.5463 78.7393C63.4294 78.9663 62.3462 78.8323 61.2993 78.3403C60.894 78.1498 60.4293 78.087 59.9946 77.9564C59.8722 77.9196 59.6667 77.8556 59.662 77.7921C59.6507 77.6394 59.6919 77.4422 59.7888 77.3285C60.5683 76.4144 61.8177 76.1188 62.936 76.5746C63.3061 76.7255 63.6559 76.9272 64.0279 77.0725C65.7632 77.7505 67.5474 76.5975 67.7576 74.7467C67.9312 73.2191 67.2945 71.988 66.5344 70.7706C66.0135 69.9363 65.4396 69.1273 65.0004 68.2514C63.965 66.1863 64.3571 64.0434 66.0223 62.4491C66.7491 61.7533 67.5214 61.1046 68.2823 60.4453C69.3378 59.5307 69.8952 58.3627 70.0811 56.9963C70.1024 56.84 70.123 56.6613 70.2107 56.5423C70.3078 56.4106 70.482 56.2574 70.6222 56.2578C70.7639 56.2582 70.9536 56.4065 71.0342 56.5423C71.1341 56.7106 71.1605 56.9303 71.189 57.1319C71.4191 58.7604 72.3106 59.9584 73.5642 60.9683C74.3449 61.5971 75.1221 62.2666 75.7508 63.0399C77.0284 64.6113 77.1395 66.391 76.2562 68.1846C75.8146 69.0813 75.2076 69.8964 74.6786 70.7503C74.4803 71.0703 74.239 71.3771 74.1131 71.7245C74.0024 72.0301 73.9181 72.417 74.0082 72.7109C74.3588 73.8539 74.0303 74.847 73.4538 75.8036C71.6524 78.7926 68.9739 80.6109 65.6797 81.5975C65.3957 81.6825 65.0997 81.7282 64.8083 81.7876C64.5197 81.8464 64.2298 81.8994 63.9405 81.955Z" fill="white"/>
<path d="M72.7792 66.0621C72.77 67.31 71.8397 68.2433 70.6119 68.2364C69.4031 68.2297 68.4822 67.2638 68.4923 66.0134C68.5027 64.7247 69.4263 63.8171 70.716 63.8282C71.8992 63.8384 72.7885 64.8012 72.7792 66.0621Z" fill="white"/>
<path d="M73.3304 8.27065C73.9059 8.31996 74.477 8.36657 75.0437 8.41049C75.615 8.4548 76.1379 8.49497 76.6126 8.53099C77.0876 8.56242 77.4937 8.58562 77.831 8.6006C78.1683 8.61559 78.3978 8.6167 78.5194 8.60393L78.1023 9.49345C77.954 9.439 77.7799 9.38698 77.58 9.33739C77.4075 9.29478 77.1955 9.25112 76.9443 9.2064C76.698 9.15747 76.4115 9.11901 76.0846 9.091C75.9741 9.08153 75.8402 9.0747 75.6828 9.07049C75.5305 9.06208 75.3826 9.05636 75.2391 9.05334C75.0725 9.04835 74.9037 9.04316 74.7325 9.03777L74.4095 12.8085C74.8841 12.8445 75.3135 12.8674 75.6976 12.8771C76.0817 12.8869 76.4082 12.8916 76.6772 12.8915C76.9927 12.8907 77.2717 12.8821 77.5143 12.8658L77.2144 13.8489C76.9002 13.7802 76.579 13.7133 76.2507 13.648C75.968 13.5914 75.6596 13.5371 75.3254 13.4853C74.9917 13.4289 74.6706 13.3874 74.3621 13.361L73.9911 17.6912C74.5344 17.7377 75.0359 17.7575 75.4957 17.7505C75.9554 17.7435 76.3582 17.7247 76.7041 17.694C77.1055 17.6635 77.4735 17.6185 77.8078 17.559L77.5117 18.6606C77.4569 18.6513 77.3744 18.6396 77.2643 18.6255C77.1542 18.6115 77.0303 18.5962 76.8925 18.5798C76.7594 18.5637 76.6171 18.5469 76.4655 18.5293C76.3182 18.5166 76.178 18.5023 76.0448 18.4863C75.9113 18.4748 75.7918 18.4623 75.6863 18.4486C75.585 18.4399 75.5114 18.4336 75.4653 18.4297L72.4819 18.174L72.4842 18.1464C72.5202 18.0521 72.5557 17.9346 72.591 17.7938C72.6308 17.6535 72.669 17.4782 72.7056 17.268C72.7422 17.0577 72.7775 16.808 72.8115 16.5187C72.846 16.2249 72.88 15.8823 72.9135 15.4909L73.2987 10.995C73.3322 10.6037 73.3568 10.2626 73.3725 9.97173C73.3885 9.67628 73.3964 9.42187 73.3961 9.2085C73.3962 8.99053 73.3886 8.809 73.3732 8.66391C73.3624 8.51921 73.3474 8.39733 73.328 8.29828L73.3304 8.27065Z" fill="white"/>
<path d="M84.4627 16.8756L82.3333 18.5016C82.2558 18.5629 82.1754 18.626 82.0922 18.6906C82.0135 18.7565 81.9399 18.8212 81.8713 18.8848C81.8071 18.9496 81.7509 19.0116 81.7025 19.0708C81.6585 19.1311 81.6309 19.1837 81.6195 19.2285L80.4908 18.9418L80.4977 18.9149C80.5853 18.8704 80.7077 18.8014 80.8649 18.7079C81.0267 18.6155 81.2025 18.4956 81.3925 18.3484L84.1896 16.2054L82.827 12.87C82.7492 12.6881 82.668 12.5292 82.5833 12.3933C82.4987 12.2574 82.4329 12.1691 82.386 12.1286L82.3928 12.1017L84.2336 12.5693C84.2142 12.6455 84.2104 12.7732 84.222 12.9526C84.2393 13.1286 84.3018 13.3519 84.4095 13.6224L85.1556 15.4711L86.8787 14.1495C86.9507 14.0915 87.0238 14.029 87.098 13.962C87.1767 13.8962 87.2459 13.8303 87.3055 13.7644C87.3708 13.6952 87.4254 13.6304 87.4693 13.57C87.5133 13.5097 87.5409 13.4571 87.5523 13.4123L88.6809 13.699L88.6741 13.7259C88.5989 13.7592 88.5023 13.811 88.3844 13.8811C88.2664 13.9513 88.1068 14.0633 87.9056 14.2172L85.4255 16.1261L86.908 19.7494C87.0091 19.9897 87.1081 20.1912 87.205 20.3541C87.3019 20.517 87.3749 20.6237 87.424 20.6743L87.4172 20.7012L85.5832 20.2353C85.6025 20.1592 85.6041 20.0309 85.588 19.8504C85.573 19.6654 85.515 19.4433 85.414 19.184L84.4627 16.8756Z" fill="white"/>
<path d="M91.049 17.1943C91.2073 16.8348 91.3387 16.519 91.4433 16.247C91.554 15.9726 91.6437 15.7344 91.7125 15.5324C91.7854 15.3323 91.8381 15.1611 91.8704 15.0188C91.907 14.8784 91.9321 14.7582 91.9459 14.6582L91.957 14.6328L93.4225 15.278L93.4113 15.3033C93.3622 15.3575 93.3115 15.421 93.2592 15.4939C93.2069 15.5668 93.1521 15.6512 93.0947 15.7471C93.4076 15.7132 93.7355 15.7137 94.0786 15.7486C94.4278 15.7812 94.7864 15.8784 95.1543 16.0404C95.6238 16.2471 96.0156 16.5155 96.3297 16.8456C96.6499 17.1734 96.8823 17.5458 97.0268 17.9629C97.1756 18.3818 97.234 18.8342 97.2019 19.3199C97.1698 19.8056 97.0393 20.3086 96.8103 20.8288C96.6185 21.2644 96.358 21.6496 96.0289 21.9843C95.704 22.3209 95.3277 22.5794 94.8999 22.7596C94.4764 22.9418 94.0123 23.0328 93.5074 23.0327C93.0044 23.0283 92.478 22.9051 91.9282 22.6631C91.5983 22.5179 91.3092 22.3603 91.0609 22.1904C90.8126 22.0205 90.5919 21.8451 90.3989 21.6642L89.9911 22.5904C89.8329 22.9499 89.6993 23.2647 89.5905 23.5348C89.4798 23.8092 89.3901 24.0474 89.3213 24.2494C89.2526 24.4514 89.2 24.6226 89.1634 24.763C89.1268 24.9035 89.1017 25.0237 89.0879 25.1236L89.0768 25.149L87.6113 24.5039L87.6225 24.4785C87.687 24.4009 87.7587 24.3011 87.8375 24.1793C87.9206 24.0594 88.0113 23.905 88.1097 23.716C88.2122 23.5289 88.3273 23.3019 88.4549 23.0349C88.5849 22.7741 88.7291 22.4639 88.8873 22.1044L91.049 17.1943ZM94.7228 16.4185C94.579 16.3552 94.4226 16.309 94.2536 16.2801C94.0907 16.2487 93.9203 16.2343 93.7425 16.2368C93.5708 16.2369 93.3949 16.258 93.2149 16.2999C93.041 16.3394 92.8732 16.3994 92.7116 16.4797C92.6324 16.6367 92.546 16.8158 92.4524 17.0169C92.3588 17.218 92.259 17.4391 92.1528 17.6802L90.6894 21.0044C90.746 21.1051 90.8151 21.2062 90.8966 21.3077C90.9782 21.4092 91.0742 21.5121 91.1849 21.6164C91.3016 21.7182 91.4368 21.8182 91.5906 21.9162C91.7486 22.016 91.9291 22.1106 92.1321 22.2C92.462 22.3452 92.7862 22.4173 93.1048 22.4162C93.4234 22.415 93.7229 22.3424 94.0035 22.1983C94.2882 22.0561 94.55 21.8457 94.7888 21.5671C95.0318 21.2904 95.2427 20.949 95.4214 20.543C95.6225 20.0862 95.7706 19.6466 95.8658 19.224C95.9628 18.7971 95.9891 18.4048 95.9447 18.0469C95.9064 17.6867 95.7894 17.3676 95.5937 17.0896C95.398 16.8116 95.1077 16.5879 94.7228 16.4185Z" fill="white"/>
<path d="M101.267 18.6854C101.468 18.3479 101.637 18.0505 101.774 17.7933C101.917 17.5345 102.035 17.309 102.128 17.1169C102.225 16.9272 102.298 16.7637 102.347 16.6264C102.401 16.4915 102.44 16.3753 102.466 16.2777L102.48 16.2539L103.856 17.0731L103.842 17.0969C103.769 17.1661 103.685 17.2563 103.592 17.3676C103.499 17.4789 103.39 17.6211 103.265 17.7943C103.141 17.9674 102.999 18.1787 102.84 18.4281C102.683 18.6735 102.504 18.9649 102.303 19.3024L99.7744 23.5487C99.5734 23.8862 99.4012 24.1844 99.2579 24.4432C99.1169 24.6981 98.9999 24.9215 98.9071 25.1136C98.8142 25.3057 98.741 25.4692 98.6876 25.6041C98.6342 25.739 98.5945 25.8553 98.5687 25.9528L98.5545 25.9767L97.1788 25.1575L97.193 25.1336C97.2664 25.0645 97.3497 24.9742 97.4429 24.863C97.54 24.7541 97.6489 24.6118 97.7696 24.4363C97.8942 24.2631 98.0349 24.0538 98.1918 23.8084C98.3551 23.5614 98.5371 23.2692 98.7381 22.9317L101.267 18.6854Z" fill="white"/>
<path d="M102.23 23.9572C102.549 23.5436 102.921 23.2204 103.345 22.9875C103.773 22.751 104.22 22.6058 104.688 22.5519C105.159 22.5008 105.634 22.5432 106.113 22.6789C106.591 22.8146 107.041 23.0447 107.462 23.3691C107.876 23.6879 108.21 24.0565 108.465 24.4749C108.727 24.8924 108.896 25.3318 108.972 25.7931C109.048 26.2544 109.023 26.7254 108.898 27.2063C108.776 27.6899 108.541 28.1568 108.194 28.6069C107.904 28.9839 107.559 29.2954 107.159 29.5416C106.759 29.7877 106.328 29.9456 105.866 30.0153C105.404 30.085 104.924 30.0564 104.427 29.9297C103.936 29.8021 103.449 29.5522 102.966 29.1798C102.556 28.8638 102.222 28.4985 101.964 28.0838C101.706 27.669 101.539 27.231 101.463 26.7697C101.387 26.3085 101.408 25.8378 101.527 25.3579C101.649 24.8742 101.883 24.4073 102.23 23.9572ZM103.401 28.8764C103.661 29.0767 103.938 29.2088 104.233 29.2728C104.532 29.3396 104.834 29.3366 105.141 29.264C105.448 29.1913 105.753 29.0498 106.055 28.8393C106.357 28.6289 106.644 28.348 106.914 27.9967C107.219 27.6014 107.459 27.203 107.635 26.8014C107.813 26.3961 107.912 26.006 107.933 25.631C107.96 25.2552 107.901 24.9004 107.756 24.5667C107.61 24.233 107.369 23.9363 107.033 23.6768C106.773 23.4765 106.495 23.3443 106.2 23.2804C105.908 23.2127 105.608 23.212 105.301 23.2782C104.997 23.3472 104.693 23.4869 104.391 23.6973C104.092 23.9041 103.807 24.1832 103.536 24.5345C103.231 24.9298 102.99 25.33 102.811 25.7353C102.637 26.1434 102.537 26.5385 102.51 26.9208C102.487 27.2995 102.544 27.6561 102.683 27.9907C102.829 28.3244 103.068 28.6196 103.401 28.8764Z" fill="white"/>
<path d="M110.456 29.6625C110.736 29.3867 110.974 29.1418 111.172 28.9275C111.376 28.7134 111.547 28.5251 111.686 28.3627C111.827 28.2036 111.94 28.0639 112.022 27.9436C112.108 27.8266 112.176 27.7242 112.225 27.6363L112.245 27.6168L113.369 28.7572L113.349 28.7767C113.248 28.825 113.133 28.8927 113.005 28.98C112.88 29.0706 112.727 29.1953 112.546 29.3541C112.768 29.3753 112.993 29.4031 113.222 29.4374C113.45 29.4718 113.671 29.5208 113.883 29.5844C114.094 29.648 114.293 29.7279 114.479 29.824C114.668 29.9234 114.833 30.0455 114.976 30.1903C115.064 30.2791 115.135 30.3613 115.19 30.4369C115.248 30.5092 115.295 30.5798 115.331 30.6487C115.369 30.7143 115.4 30.7782 115.422 30.8405C115.448 30.8995 115.472 30.9569 115.495 31.0126L114.313 31.7L114.25 31.5966C114.356 31.4144 114.398 31.2268 114.377 31.0339C114.359 30.8377 114.257 30.6458 114.072 30.4582C113.972 30.3562 113.848 30.2671 113.702 30.1908C113.555 30.1146 113.392 30.0514 113.213 30.001C113.037 29.9475 112.849 29.9053 112.65 29.8744C112.454 29.8403 112.257 29.8144 112.058 29.7966C111.956 29.8841 111.849 29.983 111.737 30.0933C111.625 30.2035 111.507 30.3203 111.381 30.4436L110.108 31.6989C109.828 31.9746 109.586 32.2196 109.382 32.4338C109.181 32.6447 109.011 32.8313 108.873 32.9937C108.735 33.1561 108.623 33.2958 108.537 33.4128C108.451 33.5298 108.383 33.6323 108.334 33.7201L108.314 33.7396L107.19 32.5992L107.21 32.5797C107.298 32.5314 107.402 32.4651 107.52 32.381C107.641 32.3002 107.783 32.1902 107.944 32.0508C108.108 31.9148 108.297 31.7479 108.511 31.5501C108.731 31.3524 108.981 31.1156 109.261 30.8399L110.456 29.6625Z" fill="white"/>
<path d="M112.866 39.2059C112.558 38.7959 112.333 38.3632 112.193 37.9077C112.053 37.4522 112.007 36.9985 112.055 36.5465C112.106 36.0917 112.256 35.6494 112.505 35.2194C112.761 34.7903 113.125 34.398 113.598 34.0427C114.015 33.7289 114.454 33.509 114.914 33.3828C115.378 33.2539 115.834 33.2146 116.282 33.2649C116.731 33.3153 117.152 33.4493 117.547 33.667C117.945 33.8884 118.288 34.1912 118.577 34.5754C118.863 34.9559 119.061 35.3586 119.173 35.7836C119.288 36.2058 119.308 36.6296 119.235 37.0548C119.168 37.4809 119.001 37.9011 118.734 38.3154C118.474 38.7307 118.114 39.1201 117.653 39.4838C117.347 39.0608 117.038 38.6393 116.728 38.2191C116.418 37.7989 116.094 37.3635 115.755 36.9128C115.514 36.5914 115.276 36.2788 115.042 35.975C114.81 35.6749 114.599 35.4057 114.409 35.1675C114.041 35.4784 113.738 35.7985 113.5 36.1277C113.265 36.4607 113.1 36.7954 113.006 37.1319C112.919 37.4693 112.908 37.8044 112.973 38.137C113.041 38.4733 113.191 38.7967 113.424 39.1069C113.585 39.3212 113.761 39.5045 113.95 39.6568C114.146 39.81 114.347 39.9308 114.552 40.0193C114.758 40.1078 114.965 40.1686 115.175 40.2017C115.388 40.232 115.597 40.2368 115.802 40.2163L115.818 40.3078L114.524 40.639C114.27 40.5173 114.003 40.3457 113.721 40.1242C113.442 39.8999 113.157 39.5938 112.866 39.2059ZM115.692 35.9286C115.969 36.298 116.247 36.6674 116.525 37.0368C116.809 37.4071 117.07 37.7395 117.309 38.0341C117.605 37.7593 117.846 37.4799 118.032 37.196C118.217 36.9121 118.344 36.6315 118.413 36.3542C118.482 36.0768 118.491 35.8042 118.44 35.5362C118.389 35.2683 118.275 35.0161 118.097 34.7797C117.936 34.5654 117.74 34.4039 117.507 34.2951C117.282 34.1872 117.03 34.1334 116.753 34.1337C116.476 34.1339 116.177 34.1906 115.858 34.3037C115.542 34.414 115.214 34.5853 114.874 34.8177C114.992 34.9894 115.12 35.1677 115.259 35.3524C115.397 35.5371 115.542 35.7291 115.692 35.9286Z" fill="white"/>
<path d="M118.177 46.8537C118.264 46.8759 118.386 46.8926 118.543 46.9039C118.704 46.9136 118.895 46.8975 119.116 46.8557C119.437 46.7918 119.797 46.7187 120.195 46.6364C120.599 46.5568 121.02 46.4708 121.459 46.3784C121.899 46.2904 122.347 46.1971 122.803 46.0983C123.265 46.0024 123.717 45.9052 124.158 45.807C124.606 45.7114 125.034 45.6179 125.444 45.5265C125.859 45.4378 126.237 45.3553 126.579 45.2791C126.92 45.2029 127.214 45.1339 127.463 45.0723C127.717 45.0133 127.907 44.9681 128.033 44.9364L128.337 45.7626L122.19 52.6674L131.333 53.9143L131.561 54.5324L124.224 58.4406C123.992 58.5603 123.796 58.6693 123.635 58.7678C123.475 58.8663 123.338 58.956 123.225 59.0369C123.116 59.1163 123.026 59.1863 122.955 59.2469C122.89 59.3103 122.836 59.3668 122.796 59.4163L122.77 59.4258L122.167 57.7864L122.193 57.7768C122.249 57.781 122.334 57.7718 122.449 57.7493C122.565 57.7311 122.699 57.6941 122.851 57.6383C122.907 57.6176 122.963 57.5947 123.018 57.5696C123.077 57.543 123.139 57.5125 123.206 57.4783L129.134 54.3609L120.502 53.1773L120.389 52.7092L126.203 46.1853C125.119 46.4114 124.121 46.6283 123.207 46.836C122.817 46.9254 122.426 47.0148 122.036 47.1042C121.65 47.192 121.289 47.2754 120.953 47.3544C120.62 47.4377 120.325 47.5139 120.07 47.5831C119.819 47.6507 119.635 47.7061 119.518 47.7491C119.371 47.8033 119.242 47.8555 119.133 47.9056C119.023 47.9557 118.931 47.9995 118.856 48.0369C118.77 48.0834 118.694 48.1259 118.63 48.1644L118.151 46.8632L118.177 46.8537Z" fill="white"/>
<path d="M125.902 58.985C126.419 58.9136 126.911 58.9436 127.377 59.0752C127.847 59.2062 128.268 59.4163 128.639 59.7055C129.011 59.9994 129.32 60.3626 129.567 60.795C129.813 61.2275 129.972 61.7069 130.045 62.2334C130.116 62.7506 130.096 63.2479 129.985 63.725C129.879 64.2062 129.691 64.6379 129.422 65.0203C129.153 65.4026 128.805 65.7212 128.379 65.9761C127.953 66.2355 127.458 66.404 126.895 66.4818C126.424 66.5469 125.959 66.5271 125.501 66.4223C125.044 66.3176 124.626 66.1281 124.247 65.8538C123.869 65.5795 123.547 65.2228 123.281 64.7837C123.02 64.3486 122.848 63.8289 122.765 63.2246C122.694 62.712 122.712 62.2173 122.819 61.7408C122.926 61.2642 123.114 60.8348 123.383 60.4524C123.652 60.0701 123.997 59.7495 124.418 59.4907C124.844 59.2313 125.339 59.0627 125.902 58.985ZM123.288 63.3134C123.333 63.6384 123.438 63.927 123.603 64.1794C123.77 64.4364 123.987 64.6465 124.257 64.8099C124.527 64.9732 124.843 65.0858 125.207 65.1476C125.57 65.2094 125.971 65.21 126.41 65.1493C126.905 65.081 127.355 64.9652 127.762 64.8017C128.173 64.6377 128.517 64.4292 128.795 64.1763C129.078 63.9273 129.284 63.6329 129.415 63.293C129.545 62.9532 129.581 62.5727 129.523 62.1515C129.478 61.8265 129.373 61.5378 129.207 61.2855C129.047 61.0324 128.833 60.8217 128.567 60.6531C128.302 60.4892 127.988 60.3763 127.625 60.3144C127.266 60.252 126.867 60.2511 126.428 60.3118C125.934 60.38 125.481 60.4962 125.07 60.6603C124.659 60.8289 124.311 61.0403 124.024 61.2945C123.742 61.5481 123.533 61.8428 123.397 62.1787C123.267 62.5186 123.23 62.8968 123.288 63.3134Z" fill="white"/>
<path d="M127.769 68.8675C128.161 68.8671 128.503 68.8599 128.794 68.8458C129.09 68.8363 129.344 68.8222 129.557 68.8036C129.769 68.7895 129.947 68.7686 130.09 68.7407C130.234 68.7175 130.354 68.692 130.451 68.6642L130.479 68.6642L130.48 70.2653L130.452 70.2654C130.346 70.2285 130.216 70.1962 130.064 70.1686C129.911 70.1457 129.715 70.1273 129.475 70.1137C129.618 70.2845 129.759 70.4623 129.898 70.6471C130.037 70.8318 130.159 71.0211 130.266 71.2151C130.372 71.4091 130.458 71.6054 130.523 71.8041C130.588 72.0073 130.62 72.2106 130.62 72.414C130.62 72.5387 130.614 72.6473 130.6 72.7398C130.591 72.8322 130.575 72.9154 130.551 72.9893C130.533 73.0633 130.51 73.1303 130.482 73.1904C130.459 73.2505 130.436 73.3083 130.413 73.3637L129.089 73.0252L129.117 72.9074C129.32 72.8517 129.482 72.7476 129.602 72.595C129.726 72.4424 129.788 72.2344 129.788 71.971C129.788 71.8278 129.763 71.6776 129.712 71.5206C129.661 71.3635 129.589 71.2041 129.496 71.0425C129.408 70.8808 129.304 70.7192 129.184 70.5575C129.068 70.3959 128.946 70.2389 128.816 70.0865C128.682 70.0774 128.537 70.0729 128.38 70.073C128.222 70.0731 128.056 70.0733 127.88 70.0734L126.092 70.0749C125.699 70.0753 125.355 70.0802 125.059 70.0897C124.768 70.0991 124.516 70.1132 124.304 70.1319C124.091 70.1505 123.913 70.1715 123.77 70.1947C123.627 70.2179 123.507 70.2434 123.41 70.2713L123.382 70.2713L123.381 68.6701L123.409 68.6701C123.506 68.6977 123.626 68.7231 123.769 68.746C123.912 68.7736 124.09 68.7943 124.303 68.808C124.515 68.8263 124.767 68.8399 125.058 68.8489C125.354 68.8625 125.698 68.8692 126.091 68.8689L127.769 68.8675Z" fill="white"/>
<path d="M122.787 77.4098C122.855 76.9014 122.999 76.4358 123.219 76.013C123.438 75.5903 123.724 75.2345 124.075 74.9459C124.43 74.6578 124.848 74.448 125.327 74.3164C125.81 74.19 126.345 74.166 126.931 74.2445C127.449 74.3139 127.916 74.465 128.332 74.698C128.753 74.9315 129.106 75.2235 129.39 75.5739C129.674 75.9243 129.88 76.3156 130.009 76.7478C130.137 77.1846 130.169 77.6411 130.105 78.1174C130.042 78.5892 129.901 79.0155 129.682 79.3965C129.467 79.778 129.185 80.0945 128.834 80.3459C128.488 80.6025 128.074 80.7849 127.593 80.893C127.116 81.0063 126.586 81.0308 126.003 80.9667C126.081 80.4503 126.157 79.9337 126.231 79.4168C126.305 78.8999 126.38 78.362 126.454 77.8032C126.508 77.4048 126.558 77.0152 126.604 76.6344C126.65 76.2582 126.688 75.9184 126.72 75.6149C126.24 75.5785 125.799 75.5942 125.399 75.6617C124.997 75.7338 124.645 75.8568 124.342 76.0307C124.043 76.2098 123.8 76.4406 123.613 76.7233C123.425 77.0105 123.306 77.3465 123.254 77.7312C123.219 77.9968 123.215 78.2504 123.243 78.492C123.275 78.7387 123.334 78.9657 123.418 79.1727C123.502 79.3798 123.607 79.5688 123.733 79.7395C123.864 79.9109 124.01 80.0609 124.17 80.1896L124.117 80.2665L122.963 79.5943C122.868 79.3298 122.797 79.0197 122.752 78.6639C122.711 78.3087 122.722 77.8907 122.787 77.4098ZM127.1 77.0575C127.039 77.5155 126.977 77.9735 126.916 78.4315C126.858 78.8947 126.811 79.315 126.775 79.6924C127.179 79.7046 127.547 79.6746 127.878 79.6024C128.209 79.5302 128.497 79.4196 128.741 79.2704C128.984 79.1212 129.182 78.9332 129.334 78.7064C129.485 78.4796 129.581 78.2197 129.62 77.9266C129.656 77.6609 129.629 77.4079 129.54 77.1675C129.455 76.9324 129.313 76.7176 129.116 76.5233C128.918 76.3289 128.665 76.1599 128.358 76.0162C128.056 75.8731 127.702 75.7651 127.297 75.6922C127.26 75.8971 127.226 76.114 127.196 76.343C127.165 76.572 127.133 76.8102 127.1 77.0575Z" fill="white"/>
<path d="M127.407 91.4765L125.987 92.7264L125.637 92.2864L127.116 91.1337L125.347 90.5174L125.552 89.9872L127.291 90.7184L126.959 88.8662L127.514 88.776L127.729 90.6425L129.15 89.408L129.5 89.848L128.009 90.9957L129.787 91.6235L129.582 92.1537L127.846 91.416L128.178 93.2683L127.623 93.3585L127.407 91.4765Z" fill="white"/>
<path d="M124.147 103.058C123.818 103.533 123.493 104.005 123.173 104.474C122.851 104.948 122.555 105.382 122.288 105.775C122.024 106.172 121.802 106.512 121.621 106.798C121.441 107.083 121.325 107.281 121.276 107.393L120.712 106.589C120.833 106.487 120.965 106.362 121.107 106.213C121.23 106.085 121.373 105.923 121.537 105.727C121.702 105.538 121.878 105.308 122.065 105.039C122.128 104.948 122.201 104.835 122.283 104.7C122.366 104.572 122.444 104.447 122.518 104.324C122.606 104.182 122.694 104.038 122.784 103.892L119.674 101.736C119.407 102.13 119.173 102.491 118.974 102.819C118.774 103.147 118.607 103.428 118.474 103.662C118.317 103.936 118.186 104.182 118.079 104.4L117.376 103.651C117.592 103.413 117.81 103.167 118.03 102.915C118.219 102.698 118.42 102.458 118.631 102.194C118.846 101.932 119.042 101.674 119.218 101.42L115.647 98.9433C115.336 99.3914 115.07 99.8165 114.847 100.219C114.624 100.621 114.44 100.98 114.295 101.295C114.121 101.658 113.977 102 113.862 102.32L113.054 101.515C113.09 101.472 113.141 101.406 113.208 101.317C113.275 101.229 113.35 101.129 113.432 101.018C113.513 100.91 113.598 100.795 113.689 100.673C113.773 100.551 113.855 100.437 113.935 100.329C114.012 100.219 114.082 100.121 114.146 100.037C114.204 99.9532 114.247 99.8925 114.273 99.8545L115.979 97.3939L116.002 97.4097C116.066 97.4877 116.15 97.5771 116.255 97.6777C116.357 97.7821 116.49 97.9025 116.654 98.0388C116.818 98.1751 117.017 98.33 117.251 98.5035C117.489 98.6796 117.769 98.8796 118.092 99.1034L121.8 101.675C122.123 101.899 122.406 102.09 122.651 102.248C122.899 102.409 123.116 102.542 123.301 102.648C123.49 102.757 123.651 102.841 123.785 102.899C123.916 102.962 124.029 103.01 124.124 103.042L124.147 103.058Z" fill="white"/>
<path d="M111.132 108.448L110.779 105.792C110.765 105.694 110.75 105.593 110.735 105.489C110.717 105.388 110.698 105.292 110.677 105.201C110.652 105.113 110.626 105.033 110.599 104.962C110.569 104.894 110.537 104.844 110.503 104.811L111.313 103.975L111.333 103.994C111.328 104.092 111.327 104.233 111.33 104.415C111.33 104.602 111.347 104.814 111.38 105.052L111.849 108.544L115.421 109.02C115.617 109.043 115.795 109.051 115.956 109.045C116.116 109.039 116.225 109.026 116.283 109.005L116.303 109.025L114.983 110.39C114.926 110.335 114.817 110.268 114.656 110.189C114.494 110.117 114.27 110.06 113.981 110.019L112.006 109.747L112.297 111.9C112.311 111.991 112.329 112.085 112.35 112.183C112.368 112.284 112.391 112.377 112.419 112.461C112.446 112.552 112.475 112.632 112.506 112.7C112.536 112.768 112.568 112.818 112.602 112.85L111.792 113.687L111.772 113.668C111.78 113.586 111.783 113.477 111.781 113.339C111.779 113.202 111.761 113.008 111.727 112.757L111.304 109.656L107.423 109.142C107.164 109.11 106.94 109.096 106.751 109.099C106.561 109.102 106.432 109.112 106.364 109.13L106.344 109.11L107.66 107.75C107.716 107.805 107.827 107.87 107.991 107.946C108.159 108.025 108.381 108.085 108.656 108.126L111.132 108.448Z" fill="white"/>
<path d="M107.584 114.009C107.818 114.324 108.027 114.595 108.212 114.82C108.395 115.053 108.558 115.249 108.699 115.408C108.837 115.571 108.959 115.701 109.067 115.8C109.171 115.901 109.263 115.983 109.343 116.044L109.359 116.066L108.073 117.02L108.056 116.997C108.034 116.928 108.004 116.853 107.966 116.771C107.929 116.689 107.883 116.6 107.828 116.503C107.702 116.791 107.539 117.076 107.339 117.357C107.138 117.644 106.876 117.907 106.553 118.146C106.141 118.452 105.713 118.659 105.271 118.769C104.828 118.884 104.389 118.902 103.955 118.821C103.517 118.742 103.096 118.569 102.69 118.3C102.284 118.032 101.911 117.669 101.573 117.213C101.289 116.83 101.084 116.413 100.956 115.962C100.825 115.513 100.787 115.058 100.842 114.597C100.894 114.139 101.044 113.69 101.295 113.252C101.548 112.817 101.915 112.421 102.398 112.063C102.688 111.849 102.968 111.676 103.238 111.544C103.509 111.412 103.771 111.308 104.023 111.23L103.421 110.417C103.187 110.101 102.98 109.829 102.799 109.601C102.615 109.369 102.453 109.173 102.311 109.013C102.17 108.853 102.047 108.723 101.944 108.621C101.84 108.52 101.748 108.438 101.668 108.377L101.651 108.355L102.938 107.401L102.954 107.424C102.99 107.518 103.041 107.63 103.107 107.759C103.17 107.89 103.26 108.046 103.375 108.225C103.487 108.406 103.627 108.619 103.796 108.862C103.958 109.104 104.156 109.383 104.39 109.698L107.584 114.009ZM106.438 117.584C106.564 117.491 106.682 117.378 106.791 117.245C106.899 117.119 106.996 116.979 107.082 116.823C107.166 116.674 107.235 116.51 107.288 116.333C107.34 116.163 107.371 115.987 107.381 115.807C107.284 115.66 107.171 115.497 107.043 115.316C106.915 115.135 106.772 114.938 106.615 114.727L104.453 111.809C104.337 111.808 104.215 111.818 104.086 111.839C103.958 111.859 103.821 111.892 103.676 111.936C103.529 111.987 103.375 112.055 103.214 112.14C103.049 112.228 102.877 112.338 102.699 112.47C102.41 112.684 102.186 112.93 102.03 113.208C101.873 113.485 101.787 113.781 101.774 114.096C101.756 114.414 101.809 114.746 101.933 115.091C102.053 115.439 102.245 115.792 102.509 116.148C102.806 116.549 103.115 116.895 103.435 117.187C103.758 117.483 104.085 117.7 104.418 117.839C104.75 117.984 105.085 118.041 105.424 118.008C105.762 117.976 106.1 117.835 106.438 117.584Z" fill="white"/>
<path d="M101.253 122.137C101.447 122.478 101.622 122.772 101.777 123.019C101.931 123.271 102.069 123.486 102.19 123.661C102.307 123.839 102.413 123.984 102.508 124.095C102.599 124.208 102.68 124.3 102.752 124.37L102.766 124.395L101.373 125.185L101.359 125.161C101.336 125.063 101.298 124.946 101.248 124.81C101.197 124.674 101.127 124.509 101.039 124.315C100.95 124.121 100.836 123.893 100.698 123.631C100.563 123.373 100.398 123.074 100.204 122.732L97.7643 118.434C97.5704 118.093 97.3964 117.796 97.2424 117.543C97.0907 117.294 96.9543 117.082 96.8333 116.906C96.7123 116.731 96.6063 116.586 96.5155 116.473C96.4247 116.36 96.3433 116.268 96.2713 116.197L96.2576 116.173L97.6501 115.383L97.6637 115.407C97.6875 115.505 97.7248 115.622 97.7754 115.758C97.822 115.896 97.8917 116.061 97.9846 116.253C98.0735 116.447 98.1857 116.673 98.3214 116.93C98.4553 117.195 98.6193 117.497 98.8132 117.839L101.253 122.137Z" fill="white"/>
<path d="M96.1679 120.377C96.3691 120.859 96.4656 121.342 96.4575 121.826C96.4511 122.314 96.3555 122.775 96.1706 123.207C95.9815 123.642 95.7093 124.034 95.3542 124.382C94.999 124.731 94.5762 125.007 94.0858 125.212C93.604 125.413 93.1182 125.521 92.6283 125.535C92.1361 125.556 91.6707 125.485 91.2323 125.322C90.7939 125.16 90.397 124.905 90.0416 124.557C89.682 124.212 89.3927 123.777 89.1736 123.252C88.9902 122.813 88.8907 122.359 88.875 121.89C88.8594 121.421 88.9358 120.968 89.1043 120.532C89.2728 120.096 89.5354 119.694 89.892 119.324C90.2461 118.961 90.7046 118.662 91.2674 118.427C91.745 118.228 92.2278 118.119 92.7158 118.1C93.2039 118.082 93.6671 118.154 94.1055 118.316C94.5439 118.478 94.942 118.73 95.2999 119.072C95.6595 119.417 95.9488 119.852 96.1679 120.377ZM91.3153 118.955C91.0125 119.082 90.7603 119.257 90.5586 119.482C90.3526 119.708 90.2051 119.972 90.1161 120.275C90.0271 120.577 89.9991 120.912 90.0321 121.279C90.0651 121.646 90.1671 122.034 90.338 122.443C90.5303 122.904 90.7574 123.31 91.0193 123.661C91.283 124.017 91.5726 124.296 91.888 124.5C92.201 124.71 92.5384 124.834 92.9003 124.874C93.2622 124.913 93.6393 124.85 94.0316 124.687C94.3343 124.56 94.5866 124.385 94.7883 124.16C94.9918 123.94 95.141 123.68 95.2361 123.38C95.3268 123.082 95.3557 122.749 95.3227 122.382C95.2915 122.02 95.1905 121.634 95.0195 121.224C94.8272 120.764 94.5992 120.356 94.3355 120C94.0676 119.646 93.7741 119.363 93.4551 119.151C93.1379 118.943 92.7996 118.816 92.4402 118.771C92.0783 118.732 91.7033 118.793 91.3153 118.955Z" fill="white"/>
<path d="M87.1448 124.688C87.245 125.067 87.339 125.396 87.4268 125.674C87.5112 125.958 87.5895 126.2 87.6616 126.401C87.7293 126.603 87.7948 126.769 87.8582 126.901C87.9171 127.033 87.9724 127.143 88.0239 127.23L88.031 127.257L86.4829 127.665L86.4758 127.639C86.4844 127.526 86.4827 127.393 86.4706 127.238C86.454 127.085 86.4217 126.891 86.3738 126.655C86.245 126.837 86.109 127.019 85.9657 127.2C85.8224 127.381 85.6704 127.548 85.5099 127.7C85.3494 127.852 85.1813 127.985 85.0057 128.098C84.8257 128.213 84.6373 128.296 84.4408 128.348C84.3201 128.38 84.2134 128.401 84.1205 128.411C84.0288 128.426 83.9442 128.431 83.8668 128.428C83.7906 128.429 83.7199 128.424 83.6548 128.412C83.5908 128.405 83.5291 128.398 83.4695 128.389L83.4599 127.023L83.5809 127.019C83.6865 127.202 83.8283 127.332 84.0064 127.409C84.1857 127.491 84.4027 127.498 84.6573 127.431C84.7958 127.394 84.9345 127.331 85.0735 127.242C85.2124 127.153 85.3483 127.043 85.481 126.912C85.615 126.786 85.7448 126.644 85.8705 126.486C85.9974 126.333 86.1181 126.175 86.2325 126.011C86.2072 125.879 86.1745 125.737 86.1344 125.585C86.0943 125.433 86.0518 125.272 86.007 125.103L85.5504 123.374C85.4501 122.994 85.3578 122.662 85.2733 122.379C85.1901 122.099 85.1124 121.86 85.0402 121.659C84.9681 121.458 84.9026 121.291 84.8437 121.159C84.7848 121.026 84.7295 120.916 84.6779 120.83L84.6709 120.803L86.219 120.394L86.226 120.421C86.224 120.522 86.2301 120.644 86.2443 120.789C86.2541 120.934 86.2794 121.112 86.3203 121.321C86.3567 121.531 86.4076 121.778 86.473 122.062C86.5351 122.351 86.6162 122.686 86.7165 123.066L87.1448 124.688Z" fill="white"/>
<path d="M77.677 122.031C78.186 121.967 78.6729 121.988 79.1377 122.094C79.6024 122.199 80.019 122.384 80.3873 122.651C80.7562 122.922 81.0652 123.272 81.3142 123.702C81.5592 124.137 81.7181 124.648 81.791 125.235C81.8554 125.753 81.8278 126.244 81.7082 126.705C81.5892 127.172 81.3963 127.587 81.1295 127.951C80.8627 128.314 80.5367 128.613 80.1513 128.848C79.7614 129.082 79.328 129.229 78.8511 129.288C78.3787 129.347 77.9305 129.319 77.5065 129.204C77.083 129.094 76.7052 128.901 76.3729 128.625C76.0367 128.355 75.7553 128.001 75.5286 127.564C75.298 127.132 75.1396 126.625 75.0535 126.044C75.5728 125.989 76.0919 125.932 76.6106 125.872C77.1294 125.812 77.6685 125.747 78.2279 125.678C78.6269 125.628 79.0164 125.578 79.3964 125.526C79.7719 125.474 80.1104 125.425 80.4119 125.379C80.3251 124.905 80.1982 124.483 80.0311 124.113C79.8595 123.743 79.6511 123.434 79.4059 123.185C79.1568 122.941 78.8718 122.764 78.5509 122.655C78.2254 122.547 77.8701 122.516 77.4849 122.564C77.2189 122.597 76.9727 122.658 76.7463 122.747C76.5158 122.841 76.3111 122.955 76.1321 123.089C75.9532 123.223 75.7972 123.372 75.6641 123.538C75.5316 123.708 75.4234 123.887 75.3396 124.074L75.2519 124.043L75.6088 122.755C75.8405 122.596 76.1226 122.449 76.4551 122.315C76.7882 122.185 77.1955 122.09 77.677 122.031ZM79.1131 126.113C78.6546 126.17 78.196 126.227 77.7374 126.284C77.2748 126.346 76.8564 126.407 76.4821 126.468C76.5729 126.861 76.6953 127.209 76.8492 127.512C77.0032 127.814 77.1832 128.064 77.3894 128.262C77.5956 128.46 77.8276 128.603 78.0855 128.692C78.3433 128.781 78.619 128.807 78.9125 128.771C79.1785 128.738 79.4164 128.648 79.6263 128.501C79.8322 128.359 80.004 128.167 80.1417 127.927C80.2794 127.686 80.3788 127.399 80.4398 127.066C80.5014 126.737 80.516 126.367 80.4837 125.956C80.2762 125.973 80.0578 125.995 79.8285 126.024C79.5992 126.052 79.3608 126.082 79.1131 126.113Z" fill="white"/>
<path d="M68.3152 122.832C68.2527 122.896 68.1777 122.994 68.09 123.124C68.0016 123.259 67.9207 123.433 67.8473 123.646C67.7433 123.956 67.6282 124.305 67.502 124.691C67.3705 125.081 67.2359 125.49 67.0982 125.916C66.9559 126.342 66.8144 126.778 66.6737 127.222C66.5276 127.671 66.3876 128.111 66.2537 128.543C66.1145 128.979 65.9829 129.397 65.8589 129.798C65.7296 130.203 65.6134 130.572 65.5101 130.906C65.4068 131.24 65.3203 131.53 65.2506 131.776C65.1756 132.026 65.1205 132.213 65.0853 132.339L64.2173 132.192L61.2761 123.428L55.6535 130.745L55.0043 130.636L55.2551 122.327C55.2663 122.066 55.269 121.842 55.2634 121.653C55.2577 121.465 55.2478 121.302 55.2337 121.163C55.2188 121.03 55.2027 120.917 55.1854 120.825C55.1629 120.737 55.1402 120.663 55.1176 120.602L55.1222 120.575L56.8445 120.866L56.8399 120.893C56.8086 120.94 56.7743 121.018 56.7368 121.129C56.6948 121.239 56.6603 121.374 56.6334 121.533C56.6234 121.593 56.6156 121.652 56.6102 121.712C56.604 121.777 56.5992 121.846 56.596 121.921L56.3579 128.615L61.6719 121.71L62.1343 121.844L64.9101 130.13C65.252 129.077 65.5596 128.103 65.8327 127.207C65.9491 126.823 66.0654 126.44 66.1817 126.057C66.2972 125.678 66.404 125.323 66.502 124.993C66.5954 124.662 66.6754 124.369 66.7421 124.113C66.808 123.861 66.8513 123.674 66.8721 123.551C66.8982 123.396 66.9168 123.259 66.9277 123.139C66.9386 123.019 66.9464 122.917 66.9511 122.834C66.9536 122.736 66.9542 122.649 66.9529 122.574L68.3198 122.805L68.3152 122.832Z" fill="white"/>
<path d="M53.9447 123.511C53.7497 123.996 53.4794 124.407 53.1337 124.746C52.7863 125.09 52.3948 125.351 51.9594 125.529C51.5197 125.706 51.051 125.793 50.5533 125.792C50.0556 125.791 49.5603 125.692 49.0673 125.493C48.5829 125.298 48.1613 125.034 47.8025 124.7C47.4376 124.369 47.1561 123.992 46.958 123.568C46.7598 123.145 46.6561 122.685 46.6469 122.188C46.6334 121.689 46.7327 121.176 46.9449 120.649C47.1227 120.207 47.3706 119.814 47.6889 119.469C48.0071 119.124 48.3792 118.855 48.8053 118.663C49.2313 118.471 49.7009 118.368 50.2141 118.356C50.7212 118.346 51.2577 118.455 51.8236 118.682C52.3037 118.876 52.724 119.137 53.0846 119.466C53.4451 119.796 53.7245 120.172 53.9226 120.596C54.1208 121.019 54.2275 121.478 54.2427 121.972C54.2562 122.471 54.1569 122.984 53.9447 123.511ZM51.4867 119.092C51.1824 118.97 50.8796 118.918 50.5784 118.936C50.2728 118.952 49.9822 119.037 49.7064 119.19C49.4306 119.343 49.1757 119.562 48.9417 119.846C48.7077 120.131 48.5079 120.479 48.3423 120.89C48.1559 121.353 48.0327 121.802 47.9725 122.236C47.9106 122.674 47.9205 123.076 48.0021 123.443C48.0777 123.812 48.2306 124.138 48.4608 124.42C48.691 124.702 49.0033 124.922 49.3977 125.081C49.702 125.203 50.0048 125.255 50.3061 125.237C50.6056 125.223 50.8945 125.143 51.1728 124.996C51.4469 124.847 51.7009 124.63 51.9349 124.346C52.1672 124.066 52.3662 123.72 52.5318 123.309C52.7182 122.846 52.8423 122.395 52.9041 121.957C52.9617 121.517 52.9514 121.109 52.8733 120.734C52.7935 120.363 52.6414 120.035 52.4172 119.751C52.187 119.469 51.8768 119.249 51.4867 119.092Z" fill="white"/>
<path d="M44.468 120.233C44.2728 120.574 44.1088 120.874 43.9762 121.133C43.8372 121.394 43.7229 121.622 43.6333 121.816C43.5397 122.007 43.4693 122.172 43.4222 122.31C43.3711 122.445 43.3334 122.562 43.3092 122.66L43.2955 122.684L41.906 121.889L41.9198 121.865C42.0047 121.791 42.0971 121.695 42.1969 121.576C42.2928 121.455 42.4064 121.294 42.5379 121.092C42.3183 121.132 42.0939 121.165 41.8646 121.194C41.6353 121.222 41.41 121.234 41.1888 121.23C40.9676 121.226 40.7547 121.203 40.5501 121.16C40.3415 121.115 40.149 121.042 39.9726 120.941C39.8643 120.879 39.7735 120.819 39.7002 120.761C39.6246 120.707 39.5605 120.652 39.5078 120.595C39.4528 120.542 39.4061 120.489 39.3678 120.435C39.3272 120.385 39.2885 120.336 39.2519 120.289L40.2046 119.309L40.293 119.391C40.2401 119.595 40.2499 119.787 40.3226 119.967C40.3929 120.151 40.5423 120.309 40.7709 120.44C40.8952 120.511 41.0381 120.563 41.1997 120.597C41.3613 120.631 41.5353 120.649 41.7216 120.649C41.9055 120.653 42.0975 120.643 42.2976 120.619C42.4954 120.599 42.6926 120.571 42.8892 120.535C42.9638 120.423 43.0402 120.299 43.1182 120.163C43.1963 120.026 43.279 119.882 43.3663 119.73L44.255 118.178C44.4502 117.837 44.6173 117.536 44.7563 117.275C44.893 117.017 45.0061 116.792 45.0957 116.598C45.1853 116.405 45.2557 116.24 45.3068 116.104C45.358 115.968 45.3956 115.852 45.4198 115.754L45.4336 115.729L46.823 116.525L46.8092 116.549C46.7369 116.62 46.6551 116.711 46.5639 116.824C46.4687 116.935 46.3622 117.079 46.2445 117.256C46.1228 117.432 45.9856 117.643 45.8329 117.891C45.6739 118.141 45.4968 118.436 45.3016 118.777L44.468 120.233Z" fill="white"/>
<path d="M39.5834 111.691C39.9904 112.003 40.3226 112.36 40.5799 112.761C40.8372 113.162 41.0036 113.587 41.0793 114.035C41.1521 114.487 41.1264 114.953 41.002 115.434C40.8712 115.916 40.6258 116.392 40.2659 116.861C39.9482 117.276 39.5847 117.605 39.1754 117.851C38.7634 118.1 38.3347 118.26 37.8893 118.332C37.444 118.404 37.0019 118.388 36.5631 118.285C36.1206 118.178 35.7086 117.979 35.3273 117.686C34.9496 117.397 34.65 117.062 34.4285 116.683C34.2042 116.307 34.0703 115.904 34.0268 115.475C33.9768 115.047 34.0246 114.597 34.1701 114.126C34.3091 113.656 34.5516 113.184 34.8977 112.71C35.3065 113.035 35.7166 113.359 36.1282 113.68C36.5398 114.001 36.9692 114.334 37.4166 114.677C37.7357 114.921 38.0488 115.158 38.3559 115.388C38.6595 115.615 38.935 115.818 39.1827 115.996C39.4531 115.598 39.6587 115.208 39.7996 114.827C39.9368 114.443 40.0053 114.076 40.0054 113.727C39.9989 113.378 39.9196 113.053 39.7676 112.75C39.6119 112.444 39.38 112.173 39.072 111.937C38.8593 111.774 38.6411 111.644 38.4176 111.549C38.1875 111.454 37.9617 111.391 37.7402 111.361C37.5187 111.331 37.3025 111.328 37.0915 111.353C36.8777 111.381 36.6752 111.432 36.484 111.507L36.4433 111.424L37.6011 110.757C37.8779 110.806 38.1819 110.899 38.5131 111.037C38.8416 111.178 39.1983 111.396 39.5834 111.691ZM37.7422 115.608C37.3755 115.326 37.0088 115.045 36.6421 114.764C36.2689 114.484 35.9278 114.234 35.6186 114.014C35.407 114.359 35.25 114.692 35.1477 115.016C35.0454 115.339 34.9982 115.644 35.0063 115.929C35.0143 116.215 35.079 116.48 35.2002 116.724C35.3215 116.969 35.4995 117.181 35.7342 117.361C35.9468 117.524 36.1796 117.627 36.4324 117.669C36.6787 117.712 36.9353 117.697 37.2023 117.622C37.4693 117.547 37.7415 117.412 38.019 117.217C38.2937 117.026 38.5635 116.773 38.8284 116.458C38.669 116.324 38.4976 116.187 38.3143 116.046C38.1309 115.906 37.9403 115.759 37.7422 115.608Z" fill="white"/>
<path d="M25.0773 108.706L24.6952 106.854L25.2509 106.768L25.5193 108.623L26.931 107.393L27.29 107.834L25.7931 108.981L27.5664 109.611L27.3697 110.138L25.642 109.399L26.0099 111.245L25.4543 111.331L25.1965 109.467L23.7697 110.701L23.4108 110.26L24.912 109.118L23.1387 108.488L23.3354 107.961L25.0773 108.706Z" fill="white"/>
<path d="M16.6274 100.144C16.3779 99.6225 16.1284 99.1067 15.8788 98.5961C15.6272 98.0812 15.3965 97.6102 15.1868 97.1829C14.9729 96.7576 14.7869 96.3958 14.6287 96.0975C14.4705 95.7993 14.3551 95.601 14.2824 95.5026L15.2605 95.4108C15.2889 95.5663 15.3323 95.7427 15.391 95.9401C15.4418 96.1104 15.5117 96.3152 15.6006 96.5544C15.6833 96.7915 15.7956 97.0579 15.9372 97.3538C15.9851 97.4539 16.0472 97.5728 16.1234 97.7105C16.1934 97.846 16.2635 97.9764 16.3337 98.1016C16.4139 98.2477 16.495 98.3958 16.5772 98.546L19.9907 96.9117C19.781 96.4844 19.5829 96.1027 19.3964 95.7668C19.2099 95.4308 19.0484 95.147 18.9118 94.9152C18.7511 94.6438 18.6022 94.4077 18.4651 94.2069L19.4644 93.9667C19.5646 94.2722 19.6699 94.583 19.7802 94.8991C19.8747 95.1714 19.9844 95.4648 20.1093 95.779C20.2299 96.0952 20.3571 96.3929 20.4908 96.6722L24.4107 94.7954C24.1752 94.3036 23.9379 93.8613 23.6986 93.4687C23.4594 93.076 23.2388 92.7384 23.037 92.456C22.807 92.1255 22.5816 91.8312 22.3607 91.5732L23.4603 91.2696C23.4801 91.3216 23.5119 91.3986 23.5556 91.5007C23.5993 91.6027 23.649 91.7172 23.7047 91.8442C23.7584 91.9671 23.8161 92.0983 23.8778 92.2378C23.9417 92.3712 24.0004 92.4993 24.0541 92.6222C24.112 92.7431 24.1618 92.8524 24.2035 92.9503C24.2474 93.042 24.2794 93.1087 24.2993 93.1503L25.5924 95.8511L25.5674 95.8631C25.4679 95.88 25.3486 95.9089 25.2094 95.95C25.0682 95.9868 24.8978 96.0428 24.6981 96.1179C24.4984 96.193 24.2652 96.2893 23.9987 96.4067C23.7279 96.5261 23.4154 96.6706 23.0612 96.8402L18.9913 98.7888C18.637 98.9585 18.3306 99.1103 18.072 99.2443C17.8092 99.3804 17.586 99.5027 17.4023 99.6111C17.2143 99.7216 17.0618 99.8202 16.9445 99.9071C16.8253 99.9898 16.7279 100.065 16.6524 100.132L16.6274 100.144Z" fill="white"/>
<path d="M18.3985 86.1677L20.879 87.1803C20.9712 87.2161 21.0663 87.2535 21.1642 87.2925C21.2608 87.327 21.3539 87.3577 21.4435 87.3847C21.5318 87.4072 21.6138 87.4243 21.6894 87.436C21.7637 87.4434 21.823 87.4406 21.8674 87.4277L22.1918 88.5461L22.1652 88.5538C22.0824 88.5008 21.9609 88.4302 21.8006 88.342C21.639 88.2493 21.4466 88.1584 21.2235 88.0692L17.9591 86.7427L15.7731 89.6069C15.6557 89.766 15.5598 89.9165 15.4855 90.0584C15.4111 90.2002 15.3684 90.3016 15.3572 90.3626L15.3306 90.3703L14.8015 88.5463C14.8769 88.5244 14.989 88.463 15.1378 88.3621C15.2808 88.2581 15.4417 88.0912 15.6204 87.8613L16.8366 86.2816L14.8243 85.4652C14.7379 85.4325 14.647 85.4011 14.5516 85.3711C14.455 85.3365 14.3632 85.3102 14.2762 85.2922C14.1834 85.271 14.0999 85.2567 14.0256 85.2494C13.9513 85.2421 13.892 85.2449 13.8476 85.2577L13.5232 84.1394L13.5498 84.1316C13.6166 84.1796 13.7102 84.2367 13.8304 84.3028C13.9506 84.369 14.1281 84.4498 14.3627 84.5454L17.2646 85.7172L19.6381 82.6037C19.7941 82.3949 19.9177 82.2075 20.0091 82.0415C20.1005 81.8754 20.1555 81.7584 20.1743 81.6904L20.2009 81.6827L20.7281 83.5001C20.6526 83.5219 20.5412 83.5856 20.3937 83.6909C20.2418 83.7975 20.0796 83.96 19.9072 84.1784L18.3985 86.1677Z" fill="white"/>
<path d="M15.3362 80.332C14.9461 80.3778 14.6073 80.4246 14.3198 80.4723C14.0272 80.5159 13.7764 80.5593 13.5674 80.6025C13.3579 80.641 13.1836 80.6824 13.0446 80.7267C12.905 80.7663 12.7887 80.8056 12.6955 80.8444L12.668 80.8477L12.4813 79.2574L12.5088 79.2542C12.5803 79.269 12.6608 79.2805 12.7501 79.2887C12.8395 79.2968 12.9401 79.3013 13.0518 79.3021C12.864 79.0496 12.6982 78.7667 12.5544 78.4532C12.4054 78.1357 12.3075 77.7773 12.2606 77.378C12.2008 76.8686 12.2336 76.3948 12.359 75.9567C12.4792 75.5146 12.6825 75.1255 12.9687 74.7894C13.2544 74.4488 13.6147 74.1692 14.0497 73.9507C14.4846 73.7321 14.9844 73.5897 15.5489 73.5234C16.0216 73.4679 16.4856 73.4972 16.941 73.6112C17.3959 73.7207 17.8094 73.9141 18.1816 74.1914C18.5533 74.4642 18.867 74.8181 19.1228 75.2534C19.3741 75.6892 19.5347 76.2054 19.6047 76.802C19.6468 77.16 19.6575 77.489 19.6369 77.7892C19.6163 78.0894 19.577 78.3686 19.5189 78.6266L20.5239 78.5086C20.914 78.4628 21.2531 78.4184 21.5412 78.3752C21.8338 78.3316 22.0846 78.2882 22.2936 78.245C22.5025 78.2019 22.6768 78.1605 22.8164 78.1208C22.956 78.0812 23.0723 78.0419 23.1655 78.0031L23.193 77.9999L23.3797 79.5901L23.3522 79.5933C23.2526 79.5771 23.1303 79.5659 22.9853 79.5596C22.8398 79.5488 22.6607 79.5489 22.448 79.5599C22.2347 79.5663 21.9806 79.5822 21.6858 79.6075C21.3951 79.6277 21.0547 79.6607 20.6646 79.7065L15.3362 80.332ZM12.8052 77.5584C12.8236 77.7144 12.8631 77.8726 12.9238 78.033C12.9793 78.1893 13.0533 78.3435 13.1456 78.4955C13.2327 78.6434 13.34 78.7844 13.4674 78.9183C13.5896 79.0482 13.7263 79.1624 13.8775 79.261C14.053 79.2497 14.2511 79.2334 14.472 79.2121C14.6928 79.1909 14.934 79.1649 15.1956 79.1342L18.8029 78.7107C18.861 78.6108 18.9131 78.5 18.9593 78.3783C19.0055 78.2565 19.0455 78.1215 19.0793 77.9733C19.1079 77.8211 19.1255 77.6539 19.132 77.4716C19.138 77.2848 19.1281 77.0813 19.1022 76.861C19.0602 76.503 18.9579 76.187 18.7955 75.9129C18.633 75.6389 18.4186 75.4175 18.1522 75.2487C17.8853 75.0753 17.5712 74.9563 17.21 74.8917C16.8483 74.8225 16.4471 74.8138 16.0065 74.8655C15.5109 74.9237 15.0568 75.0189 14.6442 75.1511C14.2271 75.2838 13.8756 75.46 13.5897 75.6797C13.2986 75.8953 13.0828 76.1579 12.9424 76.4675C12.8019 76.7771 12.7562 77.1407 12.8052 77.5584Z" fill="white"/>
<path d="M11.4377 70.7335C11.0449 70.7317 10.7029 70.737 10.4117 70.7495C10.1159 70.7574 9.86173 70.7701 9.64908 70.7876C9.43645 70.8004 9.25845 70.8204 9.11507 70.8474C8.97172 70.8699 8.85146 70.8947 8.75429 70.922L8.72656 70.9219L8.73404 69.3207L8.76176 69.3209C8.85867 69.349 8.9787 69.375 9.12184 69.3988C9.26498 69.4226 9.44278 69.4442 9.65526 69.4637C9.86773 69.4831 10.1218 69.4982 10.4175 69.5088C10.7086 69.5194 11.0505 69.5256 11.4433 69.5275L16.3853 69.5505C16.7781 69.5524 17.1224 69.5493 17.4182 69.5415C17.7093 69.5336 17.9612 69.5209 18.1739 69.5034C18.3865 69.4859 18.5645 69.466 18.7079 69.4435C18.8513 69.4211 18.9715 69.3962 19.0687 69.369L19.0964 69.3691L19.0889 70.9702L19.0612 70.9701C18.9643 70.9419 18.8443 70.916 18.7011 70.8922C18.558 70.8638 18.3802 70.8422 18.1677 70.8273C17.9552 70.8078 17.7035 70.7928 17.4124 70.7822C17.1167 70.767 16.7725 70.7584 16.3797 70.7566L11.4377 70.7335Z" fill="white"/>
<path d="M15.4948 67.1766C14.9767 67.1118 14.5096 66.9556 14.0934 66.708C13.6727 66.4598 13.3205 66.1481 13.0368 65.7726C12.7537 65.3926 12.5491 64.9619 12.423 64.4805C12.2969 63.999 12.2668 63.4946 12.3327 62.9673C12.3974 62.4492 12.5453 61.974 12.7763 61.5419C13.0033 61.1045 13.2961 60.736 13.6549 60.4362C14.0137 60.1365 14.4321 59.9187 14.9101 59.7828C15.3887 59.6424 15.91 59.6074 16.474 59.6779C16.9463 59.737 17.3899 59.8762 17.8049 60.0957C18.2199 60.3153 18.5746 60.6064 18.8692 60.9692C19.1639 61.332 19.3828 61.7599 19.5261 62.2528C19.6654 62.7406 19.6972 63.2871 19.6215 63.8923C19.5574 64.4059 19.4121 64.879 19.1857 65.3118C18.9593 65.7445 18.6667 66.1108 18.3079 66.4105C17.9491 66.7103 17.5327 66.9307 17.0587 67.0717C16.5801 67.2121 16.0588 67.2471 15.4948 67.1766ZM19.1392 63.6714C19.1799 63.3458 19.153 63.0398 19.0584 62.7532C18.9644 62.462 18.8082 62.2027 18.5898 61.9751C18.3715 61.7476 18.0949 61.557 17.7602 61.4034C17.4255 61.2498 17.038 61.1455 16.5978 61.0905C16.1026 61.0286 15.6375 61.024 15.2025 61.0767C14.7629 61.1289 14.3763 61.2412 14.0427 61.4138C13.7051 61.5811 13.4294 61.8121 13.2156 62.1067C13.0018 62.4013 12.8686 62.7595 12.8158 63.1814C12.7752 63.5069 12.8021 63.813 12.8967 64.0996C12.9867 64.3856 13.1383 64.6444 13.3515 64.8759C13.5653 65.1029 13.8395 65.2932 14.1742 65.4468C14.5044 65.5998 14.8896 65.7038 15.3297 65.7589C15.8249 65.8208 16.2924 65.8256 16.732 65.7735C17.1722 65.7167 17.5636 65.6027 17.9064 65.4313C18.2445 65.2593 18.5225 65.0286 18.7403 64.7392C18.9541 64.4446 19.0871 64.0887 19.1392 63.6714Z" fill="white"/>
<path d="M16.2337 57.206C15.8543 57.1045 15.5221 57.0228 15.2373 56.961C14.9492 56.8935 14.7001 56.8412 14.49 56.8042C14.2811 56.7626 14.1038 56.7368 13.9583 56.7265C13.8139 56.7118 13.6913 56.7053 13.5904 56.707L13.5636 56.6999L13.9773 55.1531L14.0041 55.1603C14.0972 55.2234 14.2139 55.2881 14.354 55.3543C14.4954 55.416 14.6803 55.4846 14.9089 55.5601C14.8146 55.3579 14.7245 55.1496 14.6383 54.9353C14.5521 54.7209 14.4828 54.5062 14.4303 54.2913C14.3777 54.0763 14.3459 53.8645 14.3348 53.6558C14.3248 53.4427 14.3461 53.2379 14.3986 53.0415C14.4309 52.921 14.4656 52.8179 14.5029 52.7322C14.5357 52.6453 14.5728 52.5691 14.6142 52.5036C14.6512 52.437 14.6908 52.3782 14.7331 52.3274C14.771 52.2753 14.8082 52.2255 14.8449 52.1779L16.0361 52.8481L15.9788 52.9547C15.7681 52.9558 15.585 53.0144 15.4295 53.1307C15.2696 53.2458 15.1556 53.4305 15.0875 53.685C15.0505 53.8234 15.0363 53.975 15.0448 54.1399C15.0533 54.3048 15.0813 54.4773 15.1288 54.6575C15.1718 54.8364 15.2304 55.0195 15.3047 55.2068C15.3745 55.3929 15.4522 55.5763 15.5378 55.757C15.6649 55.8006 15.8043 55.8427 15.9561 55.8833C16.1079 55.9239 16.2686 55.9668 16.4382 56.0122L18.1658 56.4743C18.5452 56.5758 18.879 56.6603 19.1671 56.7278C19.4507 56.794 19.6976 56.8457 19.9077 56.8828C20.1178 56.9199 20.295 56.9457 20.4394 56.9604C20.5838 56.9751 20.7064 56.9816 20.8073 56.9799L20.8341 56.9871L20.4204 58.5339L20.3936 58.5267C20.307 58.4748 20.1975 58.4192 20.0651 58.3599C19.9339 58.2961 19.7674 58.2301 19.5656 58.1617C19.365 58.089 19.1253 58.0105 18.8465 57.9263C18.5644 57.8365 18.2336 57.7409 17.8541 57.6394L16.2337 57.206Z" fill="white"/>
<path d="M23.2443 50.3057C23.0463 50.7789 22.7861 51.191 22.4639 51.5421C22.1417 51.8931 21.7735 52.1623 21.3595 52.3497C20.9412 52.5354 20.4836 52.6294 19.9866 52.6318C19.4872 52.6282 18.9647 52.5122 18.4191 52.2839C17.9374 52.0823 17.5258 51.8149 17.1844 51.4817C16.8387 51.1467 16.5743 50.773 16.3911 50.3608C16.208 49.9485 16.1105 49.517 16.0988 49.0663C16.0888 48.6113 16.1766 48.1621 16.3621 47.7188C16.5459 47.2797 16.793 46.9047 17.1034 46.5938C17.4096 46.2811 17.7647 46.049 18.1687 45.8975C18.5703 45.74 19.0172 45.6715 19.5095 45.6922C19.9993 45.7068 20.5175 45.821 21.0642 46.0348C20.8541 46.5129 20.6462 46.9919 20.4403 47.4718C20.2345 47.9517 20.0228 48.4517 19.8051 48.9717C19.6499 49.3426 19.5004 49.7058 19.3566 50.0614C19.2146 50.4128 19.089 50.7309 18.9798 51.0158C19.4338 51.1757 19.8631 51.2752 20.2675 51.3142C20.6738 51.349 21.0458 51.3218 21.3836 51.2328C21.719 51.1377 22.0137 50.978 22.2678 50.7537C22.5238 50.5252 22.7267 50.2319 22.8765 49.8738C22.98 49.6266 23.0495 49.3827 23.085 49.1421C23.1181 48.8954 23.121 48.6612 23.0936 48.4394C23.0662 48.2175 23.0137 48.0077 22.9362 47.8099C22.8544 47.6104 22.753 47.4277 22.6321 47.2619L22.7025 47.2012L23.6427 48.1507C23.6657 48.4308 23.653 48.7486 23.6044 49.104C23.5516 49.4576 23.4316 49.8582 23.2443 50.3057ZM18.988 49.5239C19.1664 49.0977 19.3447 48.6714 19.5231 48.2451C19.699 47.8128 19.8537 47.4192 19.9872 47.0643C19.6003 46.9474 19.2375 46.8808 18.8988 46.8643C18.56 46.8477 18.2536 46.8798 17.9794 46.9604C17.7052 47.041 17.4654 47.1711 17.26 47.3507C17.0547 47.5302 16.8949 47.7564 16.7807 48.0292C16.6773 48.2765 16.6373 48.5277 16.6607 48.783C16.6816 49.0322 16.7623 49.2763 16.9027 49.5154C17.0431 49.7545 17.2428 49.9833 17.502 50.202C17.7569 50.4189 18.0704 50.6152 18.4427 50.791C18.5315 50.6028 18.6205 50.4021 18.7097 50.1889C18.7989 49.9758 18.8916 49.7541 18.988 49.5239Z" fill="white"/>
<path d="M27.1701 41.8481C27.1453 41.7619 27.0981 41.6483 27.0286 41.5073C26.9555 41.3634 26.845 41.2067 26.6972 41.0373C26.4797 40.7925 26.2348 40.5192 25.9625 40.2174C25.6896 39.9091 25.4024 39.589 25.1009 39.2572C24.8024 38.9219 24.4953 38.5824 24.1795 38.2389C23.8631 37.8888 23.5509 37.5482 23.243 37.2171C22.9344 36.8794 22.6371 36.557 22.3511 36.25C22.0646 35.9364 21.8022 35.6517 21.5639 35.3959C21.3256 35.14 21.1171 34.9206 20.9385 34.7377C20.7592 34.5484 20.624 34.4072 20.5329 34.3143L21.0922 33.6345L30.1569 35.4464L26.61 26.9275L27.0284 26.419L34.1097 30.7728C34.33 30.9122 34.5234 31.0263 34.6896 31.1152C34.8558 31.2041 35.0024 31.2768 35.1294 31.3334C35.2528 31.3871 35.3587 31.4293 35.447 31.4601C35.5347 31.4844 35.6103 31.5017 35.6736 31.5119L35.6951 31.5295L34.5853 32.8784L34.5639 32.8608C34.5393 32.8107 34.4883 32.7418 34.4108 32.6541C34.3363 32.5629 34.2366 32.4659 34.1117 32.3631C34.0653 32.325 34.0175 32.2886 33.9681 32.254C33.9152 32.2165 33.8573 32.1778 33.7943 32.1379L28.1071 28.599L31.4505 36.6452L31.1038 36.9793L22.5357 35.2619C23.2787 36.0826 23.9707 36.8344 24.6116 37.5173C24.8862 37.809 25.1608 38.1007 25.4354 38.3925C25.7064 38.6813 25.9608 38.9504 26.1984 39.1997C26.439 39.4455 26.6537 39.661 26.8424 39.8462C27.0275 40.0285 27.1683 40.1592 27.2646 40.2385C27.386 40.3383 27.496 40.4228 27.5946 40.492C27.6933 40.5612 27.7776 40.6186 27.8477 40.6643C27.9315 40.7153 28.0063 40.7589 28.0722 40.7952L27.1915 41.8657L27.1701 41.8481Z" fill="white"/>
<path d="M33.7286 29.0453C33.4045 28.6359 33.1809 28.197 33.0577 27.7288C32.9316 27.2569 32.8991 26.7876 32.9599 26.321C33.0244 25.8515 33.1804 25.4009 33.428 24.9691C33.6756 24.5374 34.0077 24.1566 34.4244 23.8268C34.8338 23.5027 35.2723 23.2675 35.74 23.1212C36.2085 22.9685 36.6757 22.911 37.1417 22.9487C37.6077 22.9865 38.0588 23.1245 38.4949 23.3627C38.9346 23.5981 39.3309 23.9386 39.6837 24.3842C39.9791 24.7574 40.1978 25.1677 40.3398 25.6152C40.4819 26.0626 40.5308 26.519 40.4865 26.9842C40.4423 27.4495 40.2985 27.9081 40.0551 28.3601C39.8125 28.8056 39.4521 29.2176 38.9738 29.5962C38.568 29.9174 38.1327 30.153 37.6679 30.3029C37.2031 30.4527 36.7377 30.5088 36.2717 30.4711C35.8057 30.4333 35.3542 30.2986 34.9174 30.0668C34.4776 29.8315 34.0814 29.4909 33.7286 29.0453ZM38.7848 29.1005C39.042 28.8969 39.2374 28.6597 39.3708 28.389C39.5079 28.1155 39.5783 27.8211 39.5821 27.5057C39.5859 27.1903 39.5223 26.8606 39.3913 26.5164C39.2602 26.1722 39.057 25.8262 38.7817 25.4784C38.472 25.0871 38.1435 24.7577 37.7963 24.4904C37.4462 24.2194 37.0918 24.0285 36.7329 23.9177C36.3749 23.8004 36.0163 23.7718 35.6573 23.832C35.2984 23.8923 34.9522 24.0543 34.6189 24.3182C34.3616 24.5218 34.1663 24.759 34.0328 25.0296C33.8965 25.2967 33.8232 25.5875 33.8129 25.9021C33.8063 26.2138 33.8685 26.5418 33.9995 26.886C34.1276 27.2266 34.3294 27.5707 34.6047 27.9186C34.9145 28.3099 35.2444 28.641 35.5945 28.912C35.9481 29.1801 36.3073 29.3732 36.6718 29.4913C37.0335 29.6057 37.3935 29.6361 37.7517 29.5823C38.1107 29.5221 38.4551 29.3615 38.7848 29.1005Z" fill="white"/>
<path d="M41.2541 22.4488C41.0544 22.1105 40.8746 21.8196 40.7147 21.5759C40.5564 21.3259 40.4153 21.1141 40.2913 20.9405C40.1713 20.7645 40.063 20.6218 39.9663 20.5125C39.8735 20.4009 39.7906 20.3104 39.7174 20.2409L39.7033 20.217L41.0821 19.4031L41.0962 19.427C41.1184 19.5373 41.1563 19.6652 41.21 19.8106C41.2676 19.9537 41.3515 20.1322 41.4617 20.3461C41.5361 20.1359 41.6177 19.9241 41.7064 19.7107C41.7951 19.4974 41.896 19.2956 42.0091 19.1054C42.1222 18.9153 42.2479 18.7418 42.3861 18.5851C42.5283 18.426 42.687 18.2948 42.8621 18.1915C42.9695 18.128 43.0666 18.0788 43.1532 18.0438C43.2375 18.0047 43.3173 17.9764 43.3928 17.9587C43.4658 17.937 43.5353 17.9229 43.6011 17.9162C43.6646 17.9056 43.7261 17.8961 43.7856 17.8878L44.166 19.2006L44.0505 19.2366C43.8994 19.0897 43.7276 19.0032 43.5352 18.9773C43.3405 18.9474 43.1297 18.9994 42.9029 19.1332C42.7795 19.2061 42.6631 19.3043 42.5536 19.4279C42.4442 19.5516 42.3433 19.6943 42.251 19.8561C42.1564 20.0139 42.0699 20.1857 41.9917 20.3713C41.9112 20.553 41.8381 20.7384 41.7726 20.9273C41.8327 21.0474 41.9028 21.1751 41.9826 21.3104C42.0625 21.4457 42.147 21.589 42.2363 21.7402L43.1454 23.2802C43.345 23.6184 43.524 23.9126 43.6823 24.1625C43.8382 24.4085 43.9782 24.6184 44.1022 24.792C44.2261 24.9657 44.3345 25.1083 44.4272 25.2199C44.5199 25.3316 44.6029 25.4221 44.6761 25.4916L44.6902 25.5154L43.3113 26.3294L43.2972 26.3055C43.2718 26.2078 43.2326 26.0915 43.1797 25.9563C43.1307 25.8189 43.0582 25.6551 42.9621 25.465C42.8699 25.2726 42.7539 25.0486 42.6138 24.7932C42.4754 24.5315 42.3064 24.2315 42.1067 23.8933L41.2541 22.4488Z" fill="white"/>
<path d="M51.1149 22.421C50.6421 22.6199 50.1678 22.7317 49.6919 22.7564C49.216 22.7811 48.7647 22.7152 48.338 22.5588C47.9095 22.3982 47.5171 22.1447 47.1608 21.7982C46.807 21.4457 46.5155 20.9969 46.2861 20.4516C46.0837 19.9703 45.9774 19.4912 45.9673 19.0142C45.9553 18.5329 46.0285 18.0811 46.1867 17.6586C46.3448 17.2361 46.5776 16.86 46.8851 16.5302C47.1968 16.1985 47.5741 15.9396 48.0171 15.7532C48.4558 15.5687 48.8948 15.4743 49.3342 15.4699C49.7717 15.4614 50.1877 15.5446 50.5822 15.7195C50.9791 15.8885 51.3459 16.1528 51.6827 16.5124C52.0219 16.866 52.3117 17.3106 52.552 17.8462C52.0671 18.0401 51.5831 18.2362 51.0999 18.4344C50.6168 18.6326 50.1154 18.841 49.5958 19.0596C49.2252 19.2154 48.864 19.3698 48.5123 19.5228C48.1648 19.674 47.8523 19.813 47.5747 19.9397C47.7866 20.372 48.0232 20.7437 48.2844 21.0549C48.5499 21.3643 48.8344 21.6056 49.1378 21.7788C49.4437 21.9459 49.7659 22.0385 50.1044 22.0565C50.4471 22.0728 50.7974 22.0057 51.1552 21.8552C51.4022 21.7513 51.6227 21.6259 51.8166 21.4792C52.0131 21.3264 52.1792 21.1612 52.3151 20.9838C52.451 20.8063 52.5606 20.6198 52.6438 20.4244C52.7253 20.2247 52.7809 20.0234 52.8108 19.8203L52.9036 19.8264L52.9092 21.1625C52.7293 21.3785 52.4976 21.5963 52.2139 21.8159C51.9285 22.0312 51.5622 22.2329 51.1149 22.421ZM48.6258 18.881C49.0518 18.7018 49.4777 18.5227 49.9037 18.3435C50.3321 18.1583 50.7183 17.9859 51.0622 17.8262C50.868 17.4717 50.6558 17.1699 50.4257 16.9208C50.1956 16.6717 49.9545 16.4798 49.7024 16.3453C49.4502 16.2107 49.188 16.1355 48.9157 16.1197C48.6433 16.1039 48.3709 16.1533 48.0983 16.268C47.8512 16.3719 47.6466 16.5232 47.4845 16.7217C47.3248 16.9142 47.2113 17.1449 47.144 17.4138C47.0766 17.6828 47.0588 17.9861 47.0905 18.3236C47.1204 18.657 47.2066 19.0168 47.349 19.403C47.5443 19.3309 47.7484 19.2501 47.9614 19.1605C48.1743 19.0709 48.3958 18.9778 48.6258 18.881Z" fill="white"/>
<path d="M60.9073 11.3143L62.7039 11.9049L62.5019 12.4297L60.7592 11.739L61.1234 13.5757L60.5625 13.6676L60.3123 11.7981L58.8835 13.0227L58.5246 12.5898L60.025 11.4589L58.2409 10.8593L58.4429 10.3345L60.1879 11.0389L59.8283 9.18731L60.3892 9.09539L60.6325 10.966L62.0614 9.74148L62.4203 10.1743L60.9073 11.3143Z" fill="white"/>
</svg>
