<svg width="1920" height="615" viewBox="0 0 1920 615" fill="none" xmlns="http://www.w3.org/2000/svg">
<g clip-path="url(#clip0_784_209)">
<g clip-path="url(#clip1_784_209)">
<path d="M583.545 669.993C570.187 669.993 556.856 668.052 544.079 664.002C528.08 658.93 511.941 650.025 494.853 640.596C459.491 621.084 422.921 600.913 385.338 614.636C375.643 618.178 367.002 624.411 358.645 630.444C350.535 636.295 342.149 642.347 332.702 646.056C282.452 665.789 216.11 640.875 198.901 630.065L196.17 628.35L199.383 628.088C223.521 626.123 241 618.846 257.826 603.755C262.86 599.202 263.793 590.46 259.994 583.42C256.866 577.628 246.054 565.089 213.251 573.734C203.428 576.335 196.241 580.807 187.143 586.468C183.825 588.531 180.395 590.667 176.485 592.93L169.389 595.763L168.916 595.426C161.853 590.373 159.598 585.829 156.48 579.54C155.663 577.893 154.779 576.109 153.723 574.141C144.017 555.958 151.053 532.862 157.189 517.073L157.454 516.68C160.611 513.709 164.228 505.704 162.809 498.401L162.764 498.172L162.818 497.946C163.342 495.774 163.741 493.851 163.94 492.83C165.846 487.942 165.743 483.355 165.634 478.501C165.506 472.759 165.374 466.819 168.506 460.335C180.771 434.712 181.306 414.834 181.696 400.319C181.862 394.164 182.006 388.852 182.99 384.366C184.42 377.435 181.655 374.766 174.261 367.629L172.067 365.504C163.833 357.398 157.244 351.02 151.944 345.886C132.666 327.223 130.19 324.825 127.903 315.94C122.1 293.469 120.927 282.237 120.363 276.838C119.945 272.846 119.86 272.215 118.98 271.931C118.051 273.137 117.984 275.012 117.915 276.986C117.871 278.209 117.827 279.47 117.552 280.595L116.191 286.186L115.451 280.478C115.276 279.116 115.209 277.324 115.145 275.593C115.097 274.329 115.036 272.707 114.923 271.794C113.276 272.255 113.138 273.162 112.12 279.819C111.143 286.201 109.51 296.877 105.433 315.923C103.619 324.42 100.441 327.385 95.6311 331.873C94.3396 333.077 92.913 334.408 91.3383 336.008C83.4746 343.899 77.1027 350.224 71.9445 355.344C50.3662 376.762 50.3662 376.762 50.9684 382.323C51.357 386.052 51.7597 391.437 52.1861 397.14C52.9093 406.823 53.7301 417.802 54.6775 423.896C57.3274 441.102 61.1606 449.415 64.2413 456.094C67.0615 462.21 69.2893 467.042 69.0051 475.855C68.9216 479.126 68.6692 489.1 70.5571 492.991C71.063 495.099 71.588 497.123 72.0871 498.948L72.1375 499.132L72.1206 499.327C71.637 504.687 73.5239 512.886 77.1047 516.551L77.3639 516.989L79.7394 524.807C79.8759 526.253 80.4777 528.104 81.2386 530.443C84.8904 541.662 92.4869 565.006 67.6248 595.974L67.0547 596.683L66.2633 596.234C51.309 587.734 45.7774 584.231 42.1172 581.911C39.7194 580.393 38.2719 579.474 35.5061 578.034C17.1531 568.498 -13.8535 563.781 -25.318 583.148C-32.5452 595.327 -25.7738 603.123 -11.6369 612.477C5.71833 623.922 19.7083 626.42 35.3737 626.649L45.2185 628.343L41.4914 629.725C37.8799 631.065 33.3668 633.318 28.1418 635.925C4.16563 647.895 -35.9634 667.926 -88.2517 650.605C-99.1711 646.984 -110.975 641.078 -123.472 634.822C-156.362 618.52 -193.608 599.894 -226.891 617.812C-234.368 621.87 -240.873 627.718 -247.164 633.377C-250.151 636.062 -253.239 638.837 -256.409 641.408C-299.585 676.39 -368.397 674.693 -409.801 637.62L-408.374 636.023C-367.716 672.426 -300.15 674.095 -257.755 639.738C-254.628 637.207 -251.56 634.449 -248.594 631.78C-242.211 626.041 -235.61 620.106 -227.911 615.925C-193.615 597.315 -155.842 616.224 -122.515 632.905C-110.09 639.124 -98.3537 645 -87.5803 648.568C-36.1334 665.621 3.50369 645.827 27.1875 634.008C30.9244 632.14 34.3004 630.457 37.2737 629.142L35.1753 628.777C19.3015 628.559 4.97394 625.996 -12.8148 614.267C-24.973 606.222 -36.0945 597.111 -27.1589 582.054C-15.6934 562.682 14.1906 564.543 36.4921 576.13C39.3386 577.616 40.8156 578.55 43.2607 580.1C46.8374 582.366 52.2102 585.772 66.5252 593.917C89.9749 564.211 82.7099 541.883 79.2044 531.108C78.3992 528.632 77.7609 526.675 77.6481 525.201L75.3909 517.86C71.438 513.614 69.5164 505.053 69.9722 499.328C69.4802 497.524 68.9676 495.54 68.551 493.697C66.7354 490.018 66.7158 481.706 66.8648 475.793C67.1338 467.48 65.105 463.081 62.2977 456.993C59.1612 450.19 55.2587 441.727 52.5626 424.225C51.6026 418.045 50.7791 407.024 50.0516 397.301C49.6269 391.615 49.2254 386.245 48.8578 382.716C48.1276 375.967 48.1276 375.967 70.4388 353.82C75.5956 348.703 81.9631 342.383 89.8184 334.497C91.414 332.878 92.8616 331.527 94.1723 330.305C99.0044 325.794 101.667 323.312 103.34 315.474C107.405 296.489 109.032 285.851 110.005 279.495C111.303 271.007 111.409 270.311 115.139 269.541L115.415 269.482L115.933 269.516C116.5 269.697 116.797 270.102 116.974 271.068C117.226 270.663 117.533 270.286 117.908 269.946L118.314 269.575L118.852 269.692C121.835 270.337 121.987 271.794 122.492 276.617C123.05 281.963 124.212 293.087 129.977 315.404C132.111 323.703 134.128 325.657 153.43 344.346C158.735 349.482 165.328 355.866 173.564 363.972L175.746 366.085C183.306 373.382 186.756 376.712 185.082 384.813C184.139 389.111 183.998 394.332 183.837 400.375C183.441 415.083 182.898 435.228 170.433 461.264C167.525 467.288 167.652 472.963 167.775 478.454C167.884 483.308 167.996 488.327 165.986 493.427C165.844 494.25 165.46 496.106 164.953 498.225C166.302 505.687 163.015 514.223 159.099 518.069C153.135 533.459 146.364 555.81 155.608 573.127C156.676 575.115 157.57 576.918 158.396 578.585C161.414 584.67 163.433 588.739 169.689 593.337L175.555 591.006C179.294 588.826 182.71 586.702 186.013 584.644C195.264 578.889 202.571 574.344 212.706 571.662C246.973 562.629 258.507 576.161 261.876 582.4C266.131 590.286 265.006 600.151 259.257 605.349C243.064 619.872 225.565 627.521 202.884 629.913C223.404 641.221 284.86 662.528 331.921 644.06C341.117 640.448 349.392 634.477 357.394 628.705C365.869 622.589 374.632 616.263 384.605 612.621C423.096 598.566 460.102 618.974 495.886 638.718C512.877 648.094 528.927 656.951 544.726 661.959C597.784 678.783 660.563 658.634 693.996 614.072L695.707 615.362C669.797 649.897 626.534 669.993 583.545 669.993Z" fill="white" fill-opacity="0.05"/>
<path d="M94.8853 453.167L93.5367 452.422C92.3135 451.459 91.1737 450.406 89.5825 448.388L89.4139 448.081C88.5222 445.563 86.8779 443.302 84.9749 440.681C81.5431 435.955 77.6545 430.601 76.6303 421.663C75.4027 410.14 73.1887 402.492 71.5711 396.906C69.1372 388.501 67.7967 383.87 73.2975 377.235L73.3086 377.221C116.542 326.685 115.822 314.336 115.057 301.261C114.832 297.409 114.6 293.428 115.43 288.432L116.672 280.976L117.55 288.482C118.089 293.093 117.989 312.265 117.984 313.077C117.924 322.255 132.567 340.899 145.484 357.349C151.412 364.894 157.01 372.023 161.367 378.343C166.327 385.439 164.754 391.198 161.991 398.556C159.38 405.432 158.574 412.181 157.864 418.135C157.405 421.982 156.972 425.616 156.111 428.824C155.183 432.288 153.363 435.065 151.058 438.583C149.267 441.318 147.235 444.416 145.06 448.665L144.769 449.02C143.569 449.963 141.02 451.711 140.115 452.266L138.966 452.972L138.627 451.953C135.197 450.7 132.825 448.732 131.571 446.097C128.753 440.179 131.911 431.763 134.965 423.626C135.978 420.926 137.026 418.135 137.826 415.506L138.67 412.734L139.831 415.389C139.998 415.774 140.233 415.824 140.31 415.841C140.608 415.888 140.993 415.763 141.295 415.483C141.77 415.068 141.851 414.906 144.212 409.783L145.728 406.501C146.881 403.961 146.964 401.951 145.967 400.697C145.061 399.558 143.471 399.276 142.637 399.455L141.186 399.754L141.359 398.28C142.947 384.733 142.744 370.14 129.19 364.624C128.784 364.387 128.549 364.258 128.313 364.15L127.696 363.862L127.692 363.181C127.654 357.16 125.401 352.649 121.349 350.483C117.961 348.674 113.844 348.88 110.603 351.021C106.82 353.522 104.932 358.215 105.425 363.89L105.49 364.646L104.799 364.959C89.8299 371.722 91.6786 383.812 93.1627 393.526C93.433 395.287 93.6824 396.929 93.8023 398.391L93.9331 399.974L92.4199 399.505C91.588 399.245 90.4733 399.48 89.5802 400.089C89.0395 400.46 88.1184 401.286 88.0184 402.668C87.9015 404.078 91.0933 412.882 93.8159 415.486C94.3244 415.974 94.5653 415.986 94.5849 415.986C94.5863 415.986 94.8103 415.891 95.0891 415.193L96.2275 412.346L97.108 415.285C97.717 417.317 98.4691 419.511 99.2466 421.775C102.355 430.828 105.877 441.089 102.298 447.317C100.888 449.768 98.4762 451.412 95.1225 452.21L94.8853 453.167ZM91.3697 447.193C92.4943 448.605 93.3651 449.485 94.2193 450.214C97.2344 449.585 99.2713 448.285 100.445 446.244C103.538 440.865 100.184 431.093 97.2233 422.472C96.6786 420.881 96.1433 419.326 95.6628 417.833C95.0151 418.207 94.3879 418.149 94.048 418.065C90.1634 417.147 85.7186 404.513 85.8859 402.5C86.0055 400.848 86.9128 399.318 88.3728 398.318C89.3524 397.648 90.4641 397.283 91.5343 397.255C91.4062 396.191 91.2305 395.05 91.048 393.849C89.642 384.657 87.5284 370.829 103.241 363.32C102.908 357.173 105.138 352.065 109.424 349.231C113.319 346.652 118.278 346.412 122.357 348.589C126.913 351.026 129.611 356.079 129.82 362.516C129.935 362.583 130.049 362.65 130.165 362.725C144.455 368.523 145.139 383.295 143.626 397.286C145.037 397.405 146.608 398.061 147.642 399.36C148.709 400.702 149.583 403.186 147.674 407.393L146.156 410.682C143.586 416.259 143.537 416.365 142.726 417.08C141.925 417.816 140.855 418.154 139.87 417.937C139.689 417.9 139.516 417.845 139.35 417.772C138.627 419.957 137.787 422.199 136.967 424.379C134.072 432.097 131.077 440.078 133.502 445.175C134.551 447.378 136.556 448.969 139.626 450.033C140.662 449.348 142.329 448.19 143.265 447.476C145.452 443.233 147.477 440.14 149.269 437.407C151.468 434.052 153.204 431.4 154.043 428.268C154.865 425.206 155.288 421.65 155.738 417.881C156.463 411.804 157.285 404.915 159.988 397.797C162.676 390.64 163.993 385.838 159.609 379.566C155.286 373.297 149.708 366.193 143.802 358.675C131.383 342.862 118.583 326.563 116.227 316.235C113.326 327.808 103.812 344.86 74.9387 378.611C70.1678 384.367 71.1809 387.865 73.6263 396.309C75.2661 401.97 77.5105 409.725 78.7577 421.426C79.7164 429.798 83.4296 434.909 86.7056 439.42C88.5847 442.007 90.3611 444.452 91.3697 447.193Z" fill="white" fill-opacity="0.05"/>
</g>
<g clip-path="url(#clip2_784_209)">
<path d="M2252.54 669.993C2239.19 669.993 2225.86 668.052 2213.08 664.002C2197.08 658.93 2180.94 650.025 2163.85 640.596C2128.49 621.084 2091.92 600.913 2054.34 614.636C2044.64 618.178 2036 624.412 2027.65 630.444C2019.53 636.295 2011.15 642.347 2001.7 646.056C1951.45 665.789 1885.11 640.875 1867.9 630.065L1865.17 628.35L1868.38 628.088C1892.52 626.123 1910 618.846 1926.83 603.755C1931.86 599.202 1932.79 590.46 1928.99 583.42C1925.87 577.628 1915.05 565.089 1882.25 573.734C1872.43 576.335 1865.24 580.807 1856.14 586.468C1852.83 588.531 1849.4 590.667 1845.49 592.93L1838.39 595.763L1837.92 595.426C1830.85 590.373 1828.6 585.829 1825.48 579.54C1824.66 577.893 1823.78 576.109 1822.72 574.141C1813.02 555.958 1820.05 532.862 1826.19 517.073L1826.45 516.68C1829.61 513.709 1833.23 505.704 1831.81 498.401L1831.76 498.172L1831.82 497.946C1832.34 495.774 1832.74 493.851 1832.94 492.83C1834.85 487.942 1834.74 483.355 1834.63 478.501C1834.51 472.759 1834.37 466.819 1837.51 460.335C1849.77 434.712 1850.31 414.834 1850.7 400.319C1850.86 394.164 1851.01 388.852 1851.99 384.366C1853.42 377.435 1850.65 374.766 1843.26 367.629L1841.07 365.504C1832.83 357.398 1826.24 351.02 1820.94 345.886C1801.67 327.223 1799.19 324.825 1796.9 315.94C1791.1 293.469 1789.93 282.237 1789.36 276.838C1788.94 272.846 1788.86 272.215 1787.98 271.931C1787.05 273.137 1786.98 275.012 1786.91 276.986C1786.87 278.209 1786.83 279.47 1786.55 280.595L1785.19 286.186L1784.45 280.478C1784.28 279.116 1784.21 277.324 1784.14 275.593C1784.1 274.329 1784.04 272.707 1783.92 271.794C1782.28 272.255 1782.14 273.162 1781.12 279.819C1780.14 286.201 1778.51 296.877 1774.43 315.923C1772.62 324.42 1769.44 327.385 1764.63 331.873C1763.34 333.077 1761.91 334.408 1760.34 336.008C1752.47 343.899 1746.1 350.224 1740.94 355.344C1719.37 376.762 1719.37 376.762 1719.97 382.323C1720.36 386.052 1720.76 391.437 1721.19 397.14C1721.91 406.823 1722.73 417.802 1723.68 423.896C1726.33 441.102 1730.16 449.415 1733.24 456.094C1736.06 462.21 1738.29 467.042 1738.01 475.855C1737.92 479.126 1737.67 489.1 1739.56 492.991C1740.06 495.099 1740.59 497.123 1741.09 498.948L1741.14 499.132L1741.12 499.327C1740.64 504.687 1742.52 512.886 1746.1 516.551L1746.36 516.989L1748.74 524.807C1748.88 526.253 1749.48 528.104 1750.24 530.443C1753.89 541.662 1761.49 565.006 1736.62 595.974L1736.05 596.683L1735.26 596.234C1720.31 587.734 1714.78 584.231 1711.12 581.911C1708.72 580.393 1707.27 579.474 1704.51 578.034C1686.15 568.498 1655.15 563.781 1643.68 583.148C1636.45 595.327 1643.23 603.123 1657.36 612.477C1674.72 623.922 1688.71 626.42 1704.37 626.649L1714.22 628.343L1710.49 629.725C1706.88 631.065 1702.37 633.318 1697.14 635.925C1673.17 647.895 1633.04 667.926 1580.75 650.605C1569.83 646.984 1558.02 641.078 1545.53 634.822C1512.64 618.52 1475.39 599.894 1442.11 617.812C1434.63 621.87 1428.13 627.718 1421.84 633.377C1418.85 636.062 1415.76 638.837 1412.59 641.408C1369.42 676.39 1300.6 674.693 1259.2 637.62L1260.63 636.023C1301.28 672.426 1368.85 674.095 1411.25 639.738C1414.37 637.207 1417.44 634.449 1420.41 631.78C1426.79 626.041 1433.39 620.106 1441.09 615.925C1475.39 597.315 1513.16 616.224 1546.48 632.905C1558.91 639.124 1570.65 645 1581.42 648.568C1632.87 665.621 1672.5 645.827 1696.19 634.008C1699.92 632.14 1703.3 630.457 1706.27 629.142L1704.18 628.777C1688.3 628.559 1673.97 625.996 1656.19 614.267C1644.03 606.222 1632.91 597.111 1641.84 582.054C1653.31 562.682 1683.19 564.543 1705.49 576.13C1708.34 577.615 1709.82 578.55 1712.26 580.1C1715.84 582.366 1721.21 585.772 1735.53 593.917C1758.97 564.211 1751.71 541.883 1748.2 531.108C1747.4 528.632 1746.76 526.675 1746.65 525.201L1744.39 517.86C1740.44 513.614 1738.52 505.053 1738.97 499.328C1738.48 497.524 1737.97 495.54 1737.55 493.697C1735.74 490.018 1735.72 481.706 1735.86 475.793C1736.13 467.48 1734.1 463.081 1731.3 456.993C1728.16 450.19 1724.26 441.727 1721.56 424.225C1720.6 418.045 1719.78 407.024 1719.05 397.301C1718.63 391.615 1718.23 386.245 1717.86 382.716C1717.13 375.967 1717.13 375.967 1739.44 353.82C1744.6 348.703 1750.96 342.383 1758.82 334.497C1760.41 332.878 1761.86 331.527 1763.17 330.305C1768 325.794 1770.67 323.312 1772.34 315.474C1776.4 296.489 1778.03 285.851 1779 279.495C1780.3 271.007 1780.41 270.311 1784.14 269.541L1784.41 269.482L1784.93 269.516C1785.5 269.697 1785.8 270.102 1785.97 271.068C1786.23 270.663 1786.53 270.286 1786.91 269.946L1787.31 269.575L1787.85 269.692C1790.84 270.337 1790.99 271.794 1791.49 276.617C1792.05 281.963 1793.21 293.087 1798.98 315.404C1801.11 323.703 1803.13 325.657 1822.43 344.346C1827.73 349.482 1834.33 355.866 1842.56 363.972L1844.75 366.085C1852.31 373.382 1855.76 376.712 1854.08 384.813C1853.14 389.111 1853 394.332 1852.84 400.375C1852.44 415.083 1851.9 435.228 1839.43 461.264C1836.53 467.288 1836.65 472.963 1836.77 478.454C1836.88 483.308 1837 488.327 1834.99 493.427C1834.84 494.25 1834.46 496.106 1833.95 498.225C1835.3 505.687 1832.01 514.223 1828.1 518.069C1822.14 533.459 1815.36 555.81 1824.61 573.127C1825.68 575.115 1826.57 576.918 1827.4 578.585C1830.41 584.67 1832.43 588.739 1838.69 593.337L1844.55 591.006C1848.29 588.826 1851.71 586.702 1855.01 584.645C1864.26 578.889 1871.57 574.344 1881.71 571.662C1915.97 562.629 1927.51 576.161 1930.88 582.4C1935.13 590.286 1934.01 600.151 1928.26 605.349C1912.06 619.872 1894.56 627.521 1871.88 629.913C1892.4 641.221 1953.86 662.528 2000.92 644.06C2010.12 640.448 2018.39 634.477 2026.39 628.705C2034.87 622.589 2043.63 616.263 2053.61 612.621C2092.1 598.566 2129.1 618.974 2164.89 638.718C2181.88 648.094 2197.93 656.951 2213.73 661.959C2266.78 678.783 2329.56 658.634 2363 614.072L2364.71 615.362C2338.8 649.897 2295.53 669.993 2252.54 669.993Z" fill="white" fill-opacity="0.05"/>
<path d="M1763.89 453.167L1762.54 452.422C1761.31 451.459 1760.17 450.406 1758.58 448.388L1758.41 448.081C1757.52 445.563 1755.88 443.302 1753.97 440.681C1750.54 435.955 1746.65 430.601 1745.63 421.663C1744.4 410.14 1742.19 402.492 1740.57 396.906C1738.14 388.501 1736.8 383.87 1742.3 377.235L1742.31 377.221C1785.54 326.685 1784.82 314.336 1784.06 301.261C1783.83 297.409 1783.6 293.428 1784.43 288.432L1785.67 280.976L1786.55 288.482C1787.09 293.093 1786.99 312.265 1786.98 313.077C1786.92 322.255 1801.57 340.899 1814.48 357.349C1820.41 364.894 1826.01 372.023 1830.37 378.343C1835.33 385.439 1833.75 391.198 1830.99 398.556C1828.38 405.432 1827.57 412.181 1826.86 418.135C1826.41 421.982 1825.97 425.616 1825.11 428.824C1824.18 432.288 1822.36 435.065 1820.06 438.583C1818.27 441.318 1816.24 444.416 1814.06 448.665L1813.77 449.02C1812.57 449.963 1810.02 451.711 1809.12 452.266L1807.97 452.972L1807.63 451.953C1804.2 450.7 1801.83 448.732 1800.57 446.097C1797.75 440.179 1800.91 431.763 1803.97 423.626C1804.98 420.926 1806.03 418.135 1806.83 415.506L1807.67 412.734L1808.83 415.389C1809 415.774 1809.23 415.824 1809.31 415.841C1809.61 415.888 1809.99 415.763 1810.3 415.483C1810.77 415.068 1810.85 414.906 1813.21 409.783L1814.73 406.501C1815.88 403.961 1815.96 401.951 1814.97 400.697C1814.06 399.558 1812.47 399.276 1811.64 399.455L1810.19 399.754L1810.36 398.28C1811.95 384.733 1811.74 370.14 1798.19 364.624C1797.78 364.387 1797.55 364.258 1797.31 364.15L1796.7 363.862L1796.69 363.181C1796.65 357.16 1794.4 352.649 1790.35 350.483C1786.96 348.674 1782.84 348.88 1779.6 351.021C1775.82 353.522 1773.93 358.215 1774.42 363.89L1774.49 364.646L1773.8 364.959C1758.83 371.722 1760.68 383.812 1762.16 393.526C1762.43 395.287 1762.68 396.929 1762.8 398.391L1762.93 399.974L1761.42 399.505C1760.59 399.245 1759.47 399.48 1758.58 400.089C1758.04 400.46 1757.12 401.286 1757.02 402.668C1756.9 404.078 1760.09 412.882 1762.82 415.486C1763.32 415.974 1763.57 415.986 1763.58 415.986C1763.59 415.986 1763.81 415.891 1764.09 415.193L1765.23 412.346L1766.11 415.285C1766.72 417.317 1767.47 419.511 1768.25 421.775C1771.36 430.828 1774.88 441.089 1771.3 447.317C1769.89 449.768 1767.48 451.412 1764.12 452.21L1763.89 453.167ZM1760.37 447.193C1761.49 448.605 1762.37 449.485 1763.22 450.214C1766.23 449.585 1768.27 448.285 1769.44 446.244C1772.54 440.865 1769.18 431.093 1766.22 422.472C1765.68 420.881 1765.14 419.326 1764.66 417.833C1764.02 418.207 1763.39 418.149 1763.05 418.065C1759.16 417.147 1754.72 404.513 1754.89 402.5C1755.01 400.848 1755.91 399.318 1757.37 398.318C1758.35 397.648 1759.46 397.283 1760.53 397.255C1760.41 396.191 1760.23 395.05 1760.05 393.849C1758.64 384.657 1756.53 370.829 1772.24 363.32C1771.91 357.173 1774.14 352.065 1778.42 349.231C1782.32 346.652 1787.28 346.412 1791.36 348.589C1795.91 351.026 1798.61 356.079 1798.82 362.516C1798.94 362.583 1799.05 362.65 1799.17 362.725C1813.45 368.523 1814.14 383.295 1812.63 397.286C1814.04 397.405 1815.61 398.061 1816.64 399.36C1817.71 400.702 1818.58 403.186 1816.67 407.393L1815.16 410.682C1812.59 416.259 1812.54 416.365 1811.73 417.08C1810.92 417.816 1809.85 418.154 1808.87 417.937C1808.69 417.9 1808.52 417.845 1808.35 417.772C1807.63 419.957 1806.79 422.199 1805.97 424.379C1803.07 432.097 1800.08 440.078 1802.5 445.175C1803.55 447.378 1805.56 448.969 1808.63 450.033C1809.66 449.348 1811.33 448.19 1812.27 447.476C1814.45 443.233 1816.48 440.14 1818.27 437.407C1820.47 434.052 1822.2 431.4 1823.04 428.268C1823.87 425.206 1824.29 421.65 1824.74 417.881C1825.46 411.804 1826.29 404.915 1828.99 397.797C1831.68 390.64 1832.99 385.838 1828.61 379.566C1824.29 373.297 1818.71 366.193 1812.8 358.675C1800.38 342.862 1787.58 326.563 1785.23 316.235C1782.33 327.808 1772.81 344.86 1743.94 378.611C1739.17 384.367 1740.18 387.865 1742.63 396.309C1744.27 401.97 1746.51 409.725 1747.76 421.426C1748.72 429.798 1752.43 434.909 1755.71 439.42C1757.58 442.007 1759.36 444.452 1760.37 447.193Z" fill="white" fill-opacity="0.05"/>
</g>
</g>
<defs>
<clipPath id="clip0_784_209">
<rect width="1920" height="615" fill="white"/>
</clipPath>
<clipPath id="clip1_784_209">
<rect width="331" height="403" fill="white" transform="translate(-54 240)"/>
</clipPath>
<clipPath id="clip2_784_209">
<rect width="310" height="403" fill="white" transform="translate(1615 240)"/>
</clipPath>
</defs>
</svg>
