<svg width="181" height="51" viewBox="0 0 181 51" fill="none" xmlns="http://www.w3.org/2000/svg">
<path d="M68.8398 30.0742C68.8398 30.849 68.849 31.528 68.8672 32.1113C68.8945 32.6855 68.9219 33.1823 68.9492 33.6016C68.9857 34.0208 69.0267 34.3717 69.0723 34.6543C69.127 34.9368 69.1816 35.1738 69.2363 35.3652V35.4199H65.9551V35.3652C66.0098 35.1738 66.0599 34.9368 66.1055 34.6543C66.1602 34.3717 66.2012 34.0208 66.2285 33.6016C66.265 33.1823 66.2923 32.6855 66.3105 32.1113C66.3379 31.5371 66.3516 30.8581 66.3516 30.0742V21.1738C66.3516 20.3991 66.3379 19.7246 66.3105 19.1504C66.2923 18.5671 66.265 18.0658 66.2285 17.6465C66.2012 17.2272 66.1602 16.8763 66.1055 16.5938C66.0599 16.3021 66.0098 16.0605 65.9551 15.8691V15.8145L66.5293 15.8691C66.7025 15.8874 66.8939 15.901 67.1035 15.9102C67.3223 15.9102 67.5456 15.9102 67.7734 15.9102C68.1289 15.9102 68.6074 15.8691 69.209 15.7871C69.8197 15.696 70.5944 15.6504 71.5332 15.6504C72.4082 15.6504 73.2148 15.7689 73.9531 16.0059C74.7005 16.2428 75.3477 16.5892 75.8945 17.0449C76.4414 17.5007 76.8652 18.0612 77.166 18.7266C77.4759 19.3828 77.6309 20.1302 77.6309 20.9688C77.6309 21.625 77.5443 22.2357 77.3711 22.8008C77.207 23.3568 76.9701 23.8626 76.6602 24.3184C76.3594 24.7741 75.9948 25.1797 75.5664 25.5352C75.138 25.8815 74.6595 26.1732 74.1309 26.4102L78.9297 33.1504C79.1667 33.4876 79.3854 33.7793 79.5859 34.0254C79.7956 34.2715 79.9915 34.4857 80.1738 34.668C80.3652 34.8411 80.5475 34.987 80.7207 35.1055C80.8939 35.2148 81.0716 35.3014 81.2539 35.3652V35.4199H77.3027C77.2754 35.2467 77.1842 35.0189 77.0293 34.7363C76.8835 34.4447 76.7103 34.1576 76.5098 33.875L71.6699 27.0527C71.4603 27.071 71.2507 27.0892 71.041 27.1074C70.8314 27.1165 70.6172 27.1211 70.3984 27.1211C70.1432 27.1211 69.8835 27.112 69.6191 27.0938C69.3639 27.0755 69.1042 27.0436 68.8398 26.998V30.0742ZM68.8398 25.9316C69.0859 25.9863 69.3366 26.0273 69.5918 26.0547C69.847 26.0729 70.0931 26.082 70.3301 26.082C71.0137 26.082 71.638 25.9818 72.2031 25.7812C72.7682 25.5716 73.2467 25.2572 73.6387 24.8379C74.0397 24.4186 74.3496 23.8991 74.5684 23.2793C74.7871 22.6504 74.8965 21.9167 74.8965 21.0781C74.8965 20.3945 74.819 19.7747 74.6641 19.2188C74.5091 18.6628 74.2767 18.1934 73.9668 17.8105C73.666 17.4186 73.2832 17.1178 72.8184 16.9082C72.3535 16.6895 71.8112 16.5801 71.1914 16.5801C70.5625 16.5801 70.0612 16.612 69.6875 16.6758C69.3138 16.7396 69.0312 16.8079 68.8398 16.8809V25.9316ZM88.7734 35.666C87.7617 35.666 86.8138 35.5065 85.9297 35.1875C85.0456 34.8685 84.2754 34.4036 83.6191 33.793C82.9629 33.1732 82.4434 32.4121 82.0605 31.5098C81.6868 30.5983 81.5 29.5592 81.5 28.3926C81.5 27.3626 81.6732 26.4102 82.0195 25.5352C82.3659 24.651 82.8444 23.8854 83.4551 23.2383C84.0658 22.5911 84.7767 22.0853 85.5879 21.7207C86.4082 21.3561 87.2923 21.1738 88.2402 21.1738C89.179 21.1738 90.0495 21.3379 90.8516 21.666C91.6536 21.985 92.3464 22.4544 92.9297 23.0742C93.5221 23.6849 93.987 24.446 94.3242 25.3574C94.6706 26.2598 94.8574 27.2897 94.8848 28.4473C93.8548 28.429 92.8249 28.4154 91.7949 28.4062C90.765 28.3971 89.694 28.3926 88.582 28.3926C87.7891 28.3926 87.0143 28.3971 86.2578 28.4062C85.5104 28.4154 84.8359 28.429 84.2344 28.4473C84.2891 29.3952 84.4349 30.252 84.6719 31.0176C84.918 31.7832 85.2507 32.4395 85.6699 32.9863C86.0983 33.5241 86.6133 33.9388 87.2148 34.2305C87.8255 34.5221 88.5137 34.668 89.2793 34.668C89.8079 34.668 90.3047 34.6087 90.7695 34.4902C91.2435 34.3626 91.6719 34.1895 92.0547 33.9707C92.4375 33.752 92.7793 33.4967 93.0801 33.2051C93.3809 32.9043 93.6361 32.5807 93.8457 32.2344L94.0098 32.3164L92.998 34.75C92.5059 35.0052 91.918 35.224 91.2344 35.4062C90.5508 35.5794 89.7305 35.666 88.7734 35.666ZM86.9551 27.3262C87.8665 27.3262 88.778 27.3262 89.6895 27.3262C90.61 27.3171 91.444 27.2988 92.1914 27.2715C92.1094 26.4785 91.9544 25.7676 91.7266 25.1387C91.4987 24.5098 91.207 23.9766 90.8516 23.5391C90.4961 23.1016 90.0768 22.7643 89.5938 22.5273C89.1107 22.2904 88.5775 22.1719 87.9941 22.1719C87.4655 22.1719 86.9779 22.2904 86.5312 22.5273C86.0938 22.7552 85.7109 23.0879 85.3828 23.5254C85.0547 23.9629 84.7904 24.5007 84.5898 25.1387C84.3893 25.7676 84.2708 26.4876 84.2344 27.2988C84.6445 27.3171 85.0775 27.3262 85.5332 27.3262C85.9889 27.3262 86.4629 27.3262 86.9551 27.3262ZM104.004 24.168L103.812 24.1953C103.749 23.9857 103.644 23.7624 103.498 23.5254C103.361 23.2884 103.179 23.0697 102.951 22.8691C102.732 22.6686 102.464 22.5046 102.145 22.377C101.835 22.2402 101.475 22.1719 101.064 22.1719C100.782 22.1719 100.513 22.2129 100.258 22.2949C100.012 22.377 99.793 22.5 99.6016 22.6641C99.4193 22.819 99.2734 23.015 99.1641 23.252C99.0547 23.4889 99 23.7669 99 24.0859C99 24.5326 99.1367 24.9609 99.4102 25.3711C99.6927 25.7721 100.044 26.1732 100.463 26.5742C100.882 26.9661 101.333 27.3626 101.816 27.7637C102.309 28.1647 102.764 28.584 103.184 29.0215C103.603 29.459 103.949 29.9284 104.223 30.4297C104.505 30.9219 104.646 31.4551 104.646 32.0293C104.646 32.4941 104.564 32.9499 104.4 33.3965C104.236 33.834 103.981 34.2259 103.635 34.5723C103.298 34.9186 102.86 35.2012 102.322 35.4199C101.794 35.6296 101.16 35.7344 100.422 35.7344C99.9844 35.7344 99.5742 35.6934 99.1914 35.6113C98.8177 35.5293 98.4714 35.429 98.1523 35.3105C97.8424 35.1829 97.5599 35.0462 97.3047 34.9004C97.0586 34.7454 96.8398 34.5996 96.6484 34.4629L96.7852 31.8652H97.0039C97.0951 32.2936 97.2318 32.6855 97.4141 33.041C97.5964 33.3965 97.8197 33.7018 98.084 33.957C98.3574 34.2031 98.6673 34.3991 99.0137 34.5449C99.36 34.6816 99.7383 34.75 100.148 34.75C100.823 34.75 101.356 34.5632 101.748 34.1895C102.149 33.8158 102.35 33.3281 102.35 32.7266C102.35 32.2435 102.213 31.8014 101.939 31.4004C101.675 30.9902 101.338 30.5983 100.928 30.2246C100.518 29.8509 100.076 29.4772 99.6016 29.1035C99.1367 28.7298 98.6992 28.3333 98.2891 27.9141C97.8789 27.4857 97.5371 27.0208 97.2637 26.5195C96.9993 26.0091 96.8672 25.4303 96.8672 24.7832C96.8672 24.2546 96.9629 23.7715 97.1543 23.334C97.3548 22.8874 97.6283 22.5091 97.9746 22.1992C98.3301 21.8802 98.7493 21.6341 99.2324 21.4609C99.7155 21.2878 100.244 21.2012 100.818 21.2012C101.575 21.2012 102.204 21.2832 102.705 21.4473C103.215 21.6022 103.603 21.7526 103.867 21.8984L104.004 24.168ZM112.699 34.6133C112.973 34.6133 113.242 34.5632 113.506 34.4629C113.779 34.3626 114.039 34.2259 114.285 34.0527C114.54 33.8796 114.782 33.6836 115.01 33.4648C115.247 33.237 115.465 33 115.666 32.7539L115.803 32.8223L114.914 35.0234C114.805 35.0781 114.668 35.1465 114.504 35.2285C114.349 35.3014 114.158 35.3698 113.93 35.4336C113.711 35.5065 113.451 35.5658 113.15 35.6113C112.85 35.666 112.494 35.6934 112.084 35.6934C110.863 35.6934 109.91 35.3652 109.227 34.709C108.552 34.0436 108.215 33.0091 108.215 31.6055V22.4863L105.918 22.5684V21.3652C106.201 21.3835 106.538 21.3971 106.93 21.4062C107.322 21.4154 107.75 21.4199 108.215 21.4199C108.206 20.7728 108.188 20.2031 108.16 19.7109C108.142 19.2096 108.115 18.7767 108.078 18.4121C108.051 18.0384 108.014 17.724 107.969 17.4688C107.923 17.2135 107.878 16.9993 107.832 16.8262V16.7715H110.99V16.8262C110.936 16.9993 110.885 17.2135 110.84 17.4688C110.794 17.724 110.753 18.0339 110.717 18.3984C110.689 18.763 110.662 19.196 110.635 19.6973C110.617 20.1895 110.603 20.7637 110.594 21.4199C111.168 21.4108 111.729 21.4017 112.275 21.3926C112.831 21.3743 113.333 21.3561 113.779 21.3379C114.235 21.3105 114.618 21.2878 114.928 21.2695C115.247 21.2422 115.456 21.2194 115.557 21.2012L115.311 22.5957C114.846 22.5866 114.358 22.5729 113.848 22.5547C113.41 22.5365 112.909 22.5228 112.344 22.5137C111.779 22.5046 111.195 22.4954 110.594 22.4863V31.8926C110.594 32.4577 110.653 32.918 110.771 33.2734C110.899 33.6198 111.059 33.8932 111.25 34.0938C111.451 34.2943 111.674 34.431 111.92 34.5039C112.175 34.5768 112.435 34.6133 112.699 34.6133ZM118.496 26.7656C118.496 25.9909 118.482 25.3164 118.455 24.7422C118.437 24.1589 118.41 23.6576 118.373 23.2383C118.346 22.819 118.305 22.4681 118.25 22.1855C118.204 21.903 118.154 21.666 118.1 21.4746V21.4199H121.258V21.4746C121.185 21.6842 121.121 21.9395 121.066 22.2402C121.021 22.541 120.984 22.9284 120.957 23.4023C121.294 23.1198 121.645 22.8418 122.01 22.5684C122.374 22.2949 122.748 22.0534 123.131 21.8438C123.514 21.6341 123.901 21.4655 124.293 21.3379C124.694 21.2103 125.095 21.1465 125.496 21.1465C125.742 21.1465 125.956 21.1602 126.139 21.1875C126.321 21.2057 126.485 21.2376 126.631 21.2832C126.777 21.3197 126.909 21.3652 127.027 21.4199C127.146 21.4655 127.26 21.5111 127.369 21.5566L126.699 24.168L126.467 24.1133C126.357 23.7122 126.152 23.3932 125.852 23.1562C125.551 22.9102 125.141 22.7871 124.621 22.7871C124.339 22.7871 124.042 22.8372 123.732 22.9375C123.423 23.0378 123.108 23.179 122.789 23.3613C122.47 23.5345 122.151 23.7396 121.832 23.9766C121.513 24.2044 121.203 24.446 120.902 24.7012C120.884 24.9655 120.875 25.2526 120.875 25.5625C120.875 25.8724 120.875 26.2005 120.875 26.5469V30.0742C120.875 30.849 120.884 31.528 120.902 32.1113C120.921 32.6855 120.948 33.1823 120.984 33.6016C121.021 34.0208 121.062 34.3717 121.107 34.6543C121.153 34.9368 121.203 35.1738 121.258 35.3652V35.4199H118.1V35.3652C118.154 35.1738 118.204 34.9368 118.25 34.6543C118.305 34.3717 118.346 34.0208 118.373 33.6016C118.41 33.1823 118.437 32.6855 118.455 32.1113C118.482 31.528 118.496 30.849 118.496 30.0742V26.7656ZM127.82 31.3867C127.82 30.6667 127.966 30.0423 128.258 29.5137C128.559 28.985 128.955 28.5339 129.447 28.1602C129.939 27.7865 130.5 27.4857 131.129 27.2578C131.758 27.0208 132.41 26.8385 133.084 26.7109C133.758 26.5742 134.424 26.4831 135.08 26.4375C135.736 26.3828 136.338 26.3509 136.885 26.3418V25.6445C136.885 25.043 136.807 24.5234 136.652 24.0859C136.497 23.6484 136.279 23.2884 135.996 23.0059C135.714 22.7142 135.372 22.5 134.971 22.3633C134.579 22.2174 134.146 22.1445 133.672 22.1445C133.344 22.1445 133.02 22.1719 132.701 22.2266C132.382 22.2812 132.049 22.3724 131.703 22.5C131.366 22.6276 131.006 22.8008 130.623 23.0195C130.249 23.2383 129.844 23.5163 129.406 23.8535L129.27 23.7715L130.199 21.8438C130.5 21.707 130.796 21.5977 131.088 21.5156C131.38 21.4245 131.676 21.3516 131.977 21.2969C132.277 21.2422 132.583 21.2057 132.893 21.1875C133.212 21.1602 133.544 21.1465 133.891 21.1465C134.848 21.1465 135.663 21.265 136.338 21.502C137.021 21.7298 137.577 22.0488 138.006 22.459C138.443 22.86 138.762 23.334 138.963 23.8809C139.163 24.4186 139.264 24.9974 139.264 25.6172V30.0742C139.264 30.849 139.273 31.528 139.291 32.1113C139.318 32.6855 139.346 33.1823 139.373 33.6016C139.41 34.0208 139.451 34.3717 139.496 34.6543C139.551 34.9368 139.605 35.1738 139.66 35.3652V35.4199H136.639V35.3652C136.684 35.2194 136.716 35.0553 136.734 34.873C136.762 34.6908 136.785 34.472 136.803 34.2168C136.611 34.3809 136.383 34.5495 136.119 34.7227C135.864 34.8958 135.568 35.0553 135.23 35.2012C134.902 35.3379 134.533 35.4473 134.123 35.5293C133.722 35.6204 133.28 35.666 132.797 35.666C131.211 35.666 129.985 35.2969 129.119 34.5586C128.253 33.8112 127.82 32.7539 127.82 31.3867ZM136.885 27.4082C136.055 27.4173 135.258 27.4674 134.492 27.5586C133.727 27.6406 133.048 27.8184 132.455 28.0918C131.872 28.3652 131.402 28.7572 131.047 29.2676C130.701 29.7689 130.527 30.4388 130.527 31.2773C130.527 32.3529 130.796 33.1732 131.334 33.7383C131.872 34.3034 132.615 34.5859 133.562 34.5859C134 34.5859 134.396 34.5267 134.752 34.4082C135.117 34.2806 135.436 34.1257 135.709 33.9434C135.992 33.752 136.229 33.5469 136.42 33.3281C136.611 33.1003 136.757 32.8815 136.857 32.6719C136.876 32.3255 136.885 31.9427 136.885 31.5234C136.885 31.0951 136.885 30.612 136.885 30.0742V27.4082ZM143.488 26.7656C143.488 25.9909 143.475 25.3164 143.447 24.7422C143.429 24.1589 143.402 23.6576 143.365 23.2383C143.338 22.819 143.297 22.4681 143.242 22.1855C143.197 21.903 143.146 21.666 143.092 21.4746V21.4199H146.25V21.4746C146.195 21.666 146.145 21.903 146.1 22.1855C146.054 22.4681 146.013 22.819 145.977 23.2383C145.94 23.6576 145.913 24.1589 145.895 24.7422C145.876 25.3164 145.867 25.9909 145.867 26.7656V30.0742C145.867 30.849 145.876 31.528 145.895 32.1113C145.913 32.6855 145.94 33.1823 145.977 33.6016C146.013 34.0208 146.054 34.3717 146.1 34.6543C146.145 34.9368 146.195 35.1738 146.25 35.3652V35.4199H143.092V35.3652C143.146 35.1738 143.197 34.9368 143.242 34.6543C143.297 34.3717 143.338 34.0208 143.365 33.6016C143.402 33.1823 143.429 32.6855 143.447 32.1113C143.475 31.528 143.488 30.849 143.488 30.0742V26.7656ZM143.201 17.2773C143.201 17.0768 143.238 16.89 143.311 16.7168C143.393 16.5345 143.497 16.3796 143.625 16.252C143.753 16.1152 143.903 16.0104 144.076 15.9375C144.258 15.8555 144.454 15.8145 144.664 15.8145C144.874 15.8145 145.065 15.8555 145.238 15.9375C145.421 16.0104 145.576 16.1152 145.703 16.252C145.84 16.3796 145.945 16.5345 146.018 16.7168C146.1 16.89 146.141 17.0768 146.141 17.2773C146.141 17.6966 145.999 18.0475 145.717 18.3301C145.434 18.6126 145.083 18.7539 144.664 18.7539C144.454 18.7539 144.258 18.7174 144.076 18.6445C143.903 18.5625 143.753 18.4577 143.625 18.3301C143.497 18.1934 143.393 18.0384 143.311 17.8652C143.238 17.6829 143.201 17.487 143.201 17.2773ZM159.566 26.2051C159.566 25.002 159.325 24.1178 158.842 23.5527C158.359 22.9876 157.712 22.7051 156.9 22.7051C156.609 22.7051 156.281 22.7689 155.916 22.8965C155.551 23.015 155.178 23.179 154.795 23.3887C154.412 23.5892 154.029 23.8262 153.646 24.0996C153.264 24.373 152.904 24.6647 152.566 24.9746L152.539 26.7656V30.0742C152.539 30.849 152.548 31.528 152.566 32.1113C152.585 32.6855 152.612 33.1823 152.648 33.6016C152.685 34.0208 152.726 34.3717 152.771 34.6543C152.817 34.9368 152.867 35.1738 152.922 35.3652V35.4199H149.764V35.3652C149.818 35.1738 149.868 34.9368 149.914 34.6543C149.969 34.3717 150.01 34.0208 150.037 33.6016C150.074 33.1823 150.101 32.6855 150.119 32.1113C150.146 31.528 150.16 30.849 150.16 30.0742V26.7656C150.16 25.9909 150.146 25.3164 150.119 24.7422C150.101 24.1589 150.074 23.6576 150.037 23.2383C150.01 22.819 149.969 22.4681 149.914 22.1855C149.868 21.903 149.818 21.666 149.764 21.4746V21.4199H152.922V21.4746C152.849 21.7025 152.79 21.9941 152.744 22.3496C152.708 22.696 152.667 23.1517 152.621 23.7168C152.995 23.4069 153.396 23.097 153.824 22.7871C154.262 22.4772 154.713 22.2038 155.178 21.9668C155.643 21.7207 156.117 21.5247 156.6 21.3789C157.083 21.224 157.557 21.1465 158.021 21.1465C158.732 21.1465 159.334 21.2695 159.826 21.5156C160.327 21.7617 160.733 22.0853 161.043 22.4863C161.362 22.8874 161.59 23.3477 161.727 23.8672C161.872 24.3776 161.945 24.8971 161.945 25.4258V30.0742C161.945 30.849 161.954 31.528 161.973 32.1113C161.991 32.6855 162.018 33.1823 162.055 33.6016C162.091 34.0208 162.132 34.3717 162.178 34.6543C162.223 34.9368 162.273 35.1738 162.328 35.3652V35.4199H159.17V35.3652C159.225 35.1738 159.275 34.9368 159.32 34.6543C159.375 34.3717 159.416 34.0208 159.443 33.6016C159.48 33.1823 159.507 32.6855 159.525 32.1113C159.553 31.528 159.566 30.849 159.566 30.0742V26.2051ZM171.023 34.6133C171.297 34.6133 171.566 34.5632 171.83 34.4629C172.104 34.3626 172.363 34.2259 172.609 34.0527C172.865 33.8796 173.106 33.6836 173.334 33.4648C173.571 33.237 173.79 33 173.99 32.7539L174.127 32.8223L173.238 35.0234C173.129 35.0781 172.992 35.1465 172.828 35.2285C172.673 35.3014 172.482 35.3698 172.254 35.4336C172.035 35.5065 171.775 35.5658 171.475 35.6113C171.174 35.666 170.818 35.6934 170.408 35.6934C169.187 35.6934 168.234 35.3652 167.551 34.709C166.876 34.0436 166.539 33.0091 166.539 31.6055V22.4863L164.242 22.5684V21.3652C164.525 21.3835 164.862 21.3971 165.254 21.4062C165.646 21.4154 166.074 21.4199 166.539 21.4199C166.53 20.7728 166.512 20.2031 166.484 19.7109C166.466 19.2096 166.439 18.7767 166.402 18.4121C166.375 18.0384 166.339 17.724 166.293 17.4688C166.247 17.2135 166.202 16.9993 166.156 16.8262V16.7715H169.314V16.8262C169.26 16.9993 169.21 17.2135 169.164 17.4688C169.118 17.724 169.077 18.0339 169.041 18.3984C169.014 18.763 168.986 19.196 168.959 19.6973C168.941 20.1895 168.927 20.7637 168.918 21.4199C169.492 21.4108 170.053 21.4017 170.6 21.3926C171.156 21.3743 171.657 21.3561 172.104 21.3379C172.559 21.3105 172.942 21.2878 173.252 21.2695C173.571 21.2422 173.781 21.2194 173.881 21.2012L173.635 22.5957C173.17 22.5866 172.682 22.5729 172.172 22.5547C171.734 22.5365 171.233 22.5228 170.668 22.5137C170.103 22.5046 169.52 22.4954 168.918 22.4863V31.8926C168.918 32.4577 168.977 32.918 169.096 33.2734C169.223 33.6198 169.383 33.8932 169.574 34.0938C169.775 34.2943 169.998 34.431 170.244 34.5039C170.499 34.5768 170.759 34.6133 171.023 34.6133Z" fill="white"/>
<path d="M176.109 34.2168C176.109 34.0163 176.146 33.8294 176.219 33.6562C176.301 33.474 176.406 33.319 176.533 33.1914C176.67 33.0547 176.825 32.9499 176.998 32.877C177.18 32.7949 177.372 32.7539 177.572 32.7539C177.782 32.7539 177.973 32.7949 178.146 32.877C178.329 32.9499 178.484 33.0547 178.611 33.1914C178.748 33.319 178.853 33.474 178.926 33.6562C179.008 33.8294 179.049 34.0163 179.049 34.2168C179.049 34.6361 178.908 34.987 178.625 35.2695C178.342 35.5521 177.992 35.6934 177.572 35.6934C177.372 35.6934 177.18 35.6523 176.998 35.5703C176.825 35.4974 176.67 35.3971 176.533 35.2695C176.406 35.1328 176.301 34.9779 176.219 34.8047C176.146 34.6224 176.109 34.4264 176.109 34.2168Z" fill="#AEA17E"/>
<circle cx="25" cy="25.6514" r="25" fill="#AEA17E"/>
<path d="M18.0613 38.0493C19.4898 38.2854 20.8848 38.1754 22.2577 37.7308C24.1223 37.127 25.7859 36.1556 27.3589 35.0096C28.3594 34.2807 29.3394 33.5208 30.3689 32.8353C32.0965 31.685 34.2507 31.6695 35.7969 32.7512C36.0346 32.9174 36.2514 33.1239 36.4407 33.3438C36.5161 33.4313 36.5546 33.6629 36.4967 33.7275C36.4029 33.8321 36.2037 33.9218 36.07 33.8982C35.1843 33.742 34.2877 33.678 33.4741 34.0893C32.5942 34.5342 31.7583 35.0727 30.9314 35.6133C30.2275 36.0735 29.5634 36.5947 28.8454 37.1152C29.1542 37.283 29.416 37.4252 29.6927 37.5755C30.1404 37.2357 30.5897 36.8563 31.0763 36.5332C32.173 35.8048 33.3573 35.4452 34.6666 35.8679C35.6347 36.1805 36.1976 36.9758 36.1175 37.9195C36.0606 38.5896 35.7064 39.1185 35.182 39.5236C34.2101 40.2744 33.0817 40.5989 31.8775 40.7281C29.7201 40.9595 27.7742 40.375 25.9793 39.2157C25.7682 39.0793 25.6289 39.0933 25.4232 39.1987C23.396 40.2373 21.2692 40.8763 18.9623 40.7764C17.5999 40.7173 16.3152 40.4182 15.2145 39.5604C14.3933 38.9204 14.0486 37.9787 14.3306 37.0925C14.6136 36.2027 15.3041 35.7506 16.1674 35.5884C16.8615 35.458 17.5747 35.4202 18.2814 35.3673C20.2913 35.2168 21.8623 34.2538 23.2127 32.8128C24.5642 31.3708 24.773 29.6957 24.3837 27.8553C24.2879 27.4027 24.237 26.9379 24.2033 26.476C24.1909 26.3054 24.2596 26.1114 24.3451 25.9581C24.3916 25.8747 24.5644 25.7944 24.6572 25.8152C25.3013 25.9595 25.9105 25.8646 26.4663 25.5359C27.9626 24.651 29.1016 23.449 29.5776 21.738C29.9661 20.3416 29.6764 19.0648 28.7109 17.9667C28.4036 17.6172 28.0772 17.2824 27.7393 16.9622C26.7881 16.0608 25.7843 15.2061 25.2163 13.8916C24.6578 15.2752 23.5656 16.123 22.5923 17.0736C22.2513 17.4066 21.9058 17.7421 21.6129 18.116C20.4605 19.5875 20.4792 21.1588 21.2926 22.7664C21.7196 23.6103 22.3395 24.3068 23.0873 24.8815C23.3419 25.0772 23.4285 25.253 23.3164 25.5845C23.073 26.3041 23.222 27.0377 23.3415 27.7635C23.5388 28.9606 23.6472 30.1727 23.1249 31.3038C22.2574 33.1822 20.6927 34.2011 18.7104 34.6039C17.5137 34.8471 16.3531 34.7035 15.2315 34.1764C14.7971 33.9723 14.2993 33.905 13.8335 33.765C13.7024 33.7257 13.4822 33.6571 13.4772 33.589C13.465 33.4254 13.5092 33.2141 13.6131 33.0923C14.4482 32.113 15.7869 31.7963 16.9851 32.2846C17.3816 32.4462 17.7564 32.6623 18.1549 32.818C20.0142 33.5445 21.9258 32.3092 22.1511 30.3261C22.337 28.6895 21.6549 27.3704 20.8405 26.0661C20.2824 25.1722 19.6675 24.3054 19.1969 23.3668C18.0875 21.1542 18.5077 18.8583 20.2918 17.1501C21.0705 16.4047 21.898 15.7096 22.7133 15.0032C23.8441 14.0233 24.4413 12.7719 24.6405 11.3078C24.6633 11.1404 24.6854 10.9489 24.7794 10.8214C24.8834 10.6803 25.07 10.5162 25.2202 10.5166C25.3721 10.5171 25.5754 10.6759 25.6617 10.8214C25.7687 11.0017 25.797 11.2371 25.8275 11.4532C26.0741 13.198 27.0293 14.4815 28.3724 15.5635C29.2088 16.2373 30.0416 16.9546 30.7152 17.7831C32.084 19.4668 32.2031 21.3736 31.2567 23.2953C30.7836 24.256 30.1332 25.1293 29.5664 26.0443C29.354 26.3871 29.0954 26.7158 28.9605 27.0881C28.8419 27.4155 28.7516 27.83 28.8482 28.1449C29.2238 29.3695 28.8718 30.4336 28.2542 31.4585C26.324 34.6611 23.4543 36.6092 19.9247 37.6662C19.6204 37.7573 19.3033 37.8064 18.9911 37.87C18.6818 37.933 18.3713 37.9898 18.0613 38.0493Z" fill="white"/>
<path d="M27.5303 21.0205C27.5205 22.3575 26.5238 23.3575 25.2082 23.3501C23.9131 23.3429 22.9264 22.308 22.9372 20.9683C22.9484 19.5876 23.938 18.6152 25.3198 18.6271C26.5876 18.638 27.5403 19.6696 27.5303 21.0205Z" fill="white"/>
</svg>
