<svg width="240" height="630" viewBox="0 0 240 630" fill="none" xmlns="http://www.w3.org/2000/svg">
<path d="M101.51 107.167H98.9102V113.668H101.51V107.167Z" fill="white"/>
<path d="M101.51 107.167H98.9102V113.668H101.51V107.167Z" fill="white"/>
<path d="M101.51 214.427H98.9102V220.928H101.51V214.427Z" fill="white"/>
<path d="M49.832 162.747H43.332V165.347H49.832V162.747Z" fill="white"/>
<path d="M49.832 162.747H43.332V165.347H49.832V162.747Z" fill="white"/>
<path d="M157.094 162.747H150.594V165.347H157.094V162.747Z" fill="white"/>
<path d="M60.9166 122.932L59.0781 124.771L63.675 129.367L65.5135 127.529L60.9166 122.932Z" fill="white"/>
<path d="M60.9166 122.932L59.0781 124.771L63.675 129.367L65.5135 127.529L60.9166 122.932Z" fill="white"/>
<path d="M136.76 198.783L134.922 200.621L139.519 205.218L141.357 203.379L136.76 198.783Z" fill="white"/>
<path d="M63.6626 198.75L59.0664 203.348L60.9051 205.186L65.5013 200.588L63.6626 198.75Z" fill="white"/>
<path d="M63.6626 198.75L59.0664 203.348L60.9051 205.186L65.5013 200.588L63.6626 198.75Z" fill="white"/>
<path d="M139.506 122.906L134.91 127.504L136.749 129.342L141.345 124.745L139.506 122.906Z" fill="white"/>
<path d="M88.5199 108.362L85.9883 108.954L87.4699 115.284L90.0015 114.692L88.5199 108.362Z" fill="white"/>
<path d="M88.5199 108.362L85.9883 108.954L87.4699 115.284L90.0015 114.692L88.5199 108.362Z" fill="white"/>
<path d="M112.969 212.798L110.438 213.391L111.919 219.721L114.451 219.128L112.969 212.798Z" fill="white"/>
<path d="M50.845 174.261L44.5156 175.744L45.1087 178.275L51.4381 176.793L50.845 174.261Z" fill="white"/>
<path d="M50.845 174.261L44.5156 175.744L45.1087 178.275L51.4381 176.793L50.845 174.261Z" fill="white"/>
<path d="M155.283 149.798L148.953 151.281L149.546 153.813L155.876 152.33L155.283 149.798Z" fill="white"/>
<path d="M52.5741 132.939L51.2031 135.148L56.727 138.576L58.098 136.367L52.5741 132.939Z" fill="white"/>
<path d="M52.5741 132.939L51.2031 135.148L56.727 138.576L58.098 136.367L52.5741 132.939Z" fill="white"/>
<path d="M143.707 189.499L142.336 191.708L147.86 195.136L149.231 192.927L143.707 189.499Z" fill="white"/>
<path d="M72.5263 206.152L69.0977 211.675L71.3066 213.046L74.7352 207.523L72.5263 206.152Z" fill="white"/>
<path d="M72.5263 206.152L69.0977 211.675L71.3066 213.046L74.7352 207.523L72.5263 206.152Z" fill="white"/>
<path d="M129.093 115.033L125.664 120.557L127.873 121.928L131.302 116.405L129.093 115.033Z" fill="white"/>
<path d="M80.4528 110.687L78.0352 111.646L80.4334 117.689L82.851 116.73L80.4528 110.687Z" fill="white"/>
<path d="M80.4528 110.687L78.0352 111.646L80.4334 117.689L82.851 116.73L80.4528 110.687Z" fill="white"/>
<path d="M120.023 210.383L117.605 211.343L120.004 217.385L122.421 216.426L120.023 210.383Z" fill="white"/>
<path d="M52.9177 181.428L46.875 183.826L47.8341 186.243L53.8768 183.845L52.9177 181.428Z" fill="white"/>
<path d="M52.9177 181.428L46.875 183.826L47.8341 186.243L53.8768 183.845L52.9177 181.428Z" fill="white"/>
<path d="M152.617 141.866L146.574 144.265L147.533 146.681L153.576 144.283L152.617 141.866Z" fill="white"/>
<path d="M48.4994 140.286L47.4688 142.673L53.4364 145.249L54.467 142.862L48.4994 140.286Z" fill="white"/>
<path d="M48.4994 140.286L47.4688 142.673L53.4364 145.249L54.467 142.862L48.4994 140.286Z" fill="white"/>
<path d="M146.968 182.797L145.938 185.184L151.905 187.76L152.936 185.373L146.968 182.797Z" fill="white"/>
<path d="M79.0408 209.792L76.4648 215.76L78.8519 216.79L81.4279 210.822L79.0408 209.792Z" fill="white"/>
<path d="M79.0408 209.792L76.4648 215.76L78.8519 216.79L81.4279 210.822L79.0408 209.792Z" fill="white"/>
<path d="M121.561 111.32L118.984 117.288L121.372 118.319L123.949 112.35L121.561 111.32Z" fill="white"/>
<path d="M68.8182 116.607L66.6836 118.092L70.3957 123.429L72.5303 121.945L68.8182 116.607Z" fill="white"/>
<path d="M68.8182 116.607L66.6836 118.092L70.3957 123.429L72.5303 121.945L68.8182 116.607Z" fill="white"/>
<path d="M130.072 204.664L127.938 206.148L131.65 211.486L133.784 210.001L130.072 204.664Z" fill="white"/>
<path d="M58.1179 191.726L52.7812 195.438L54.2661 197.573L59.6028 193.86L58.1179 191.726Z" fill="white"/>
<path d="M58.1179 191.726L52.7812 195.438L54.2661 197.573L59.6028 193.86L58.1179 191.726Z" fill="white"/>
<path d="M146.144 130.51L140.809 134.222L142.293 136.356L147.629 132.645L146.144 130.51Z" fill="white"/>
<path d="M44.4672 152.704L44.0078 155.264L50.4067 156.412L50.8662 153.853L44.4672 152.704Z" fill="white"/>
<path d="M44.4672 152.704L44.0078 155.264L50.4067 156.412L50.8662 153.853L44.4672 152.704Z" fill="white"/>
<path d="M150.034 171.65L149.574 174.209L155.973 175.358L156.433 172.798L150.034 171.65Z" fill="white"/>
<path d="M90.0153 213.381L88.8672 219.78L91.4263 220.239L92.5744 213.84L90.0153 213.381Z" fill="white"/>
<path d="M90.0153 213.381L88.8672 219.78L91.4263 220.239L92.5744 213.84L90.0153 213.381Z" fill="white"/>
<path d="M108.98 107.82L107.832 114.219L110.391 114.678L111.539 108.279L108.98 107.82Z" fill="white"/>
<path d="M171.563 372.196L166.691 367.324L171.563 362.452L176.435 367.324L171.563 372.196Z" fill="white"/>
<path d="M171.6 372.143L166.77 376.973L171.6 381.803L176.43 376.973L171.6 372.143ZM167.13 376.973L171.6 372.503L176.07 376.973L171.6 381.443L167.13 376.973Z" fill="white"/>
<path d="M171.6 353.185L166.77 358.015L171.6 362.845L176.43 358.015L171.6 353.185ZM167.13 358.015L171.6 353.545L176.07 358.015L171.6 362.484L167.13 358.015Z" fill="white"/>
<path d="M171.567 391.591L166.695 386.72L171.567 381.848L176.439 386.72L171.567 391.591Z" fill="white"/>
<path d="M171.6 391.54L166.77 396.369L171.6 401.199L176.43 396.369L171.6 391.54ZM167.13 396.369L171.6 391.9L176.07 396.369L171.6 400.839L167.13 396.369Z" fill="white"/>
<path d="M185.305 391.547L180.434 386.675L185.305 381.803L190.177 386.675L185.305 391.547Z" fill="#1E1E1E"/>
<path d="M185.342 391.494L180.512 396.324L185.342 401.153L190.172 396.324L185.342 391.494ZM180.872 396.324L185.342 391.854L189.812 396.324L185.342 400.793L180.872 396.324Z" fill="#1E1E1E"/>
<path d="M185.342 372.536L180.512 377.366L185.342 382.195L190.172 377.366L185.342 372.536ZM180.872 377.365L185.342 372.895L189.812 377.365L185.342 381.835L180.872 377.365Z" fill="#1E1E1E"/>
<path d="M185.309 410.942L180.438 406.07L185.309 401.199L190.181 406.07L185.309 410.942Z" fill="#1E1E1E"/>
<path d="M185.342 410.89L180.512 415.72L185.342 420.55L190.172 415.72L185.342 410.89ZM180.872 415.72L185.342 411.25L189.812 415.72L185.342 420.19L180.872 415.72Z" fill="#1E1E1E"/>
</svg>
