<svg width="61" height="61" viewBox="0 0 61 61" fill="none" xmlns="http://www.w3.org/2000/svg">
<g clip-path="url(#clip0_260_4543)">
<path d="M15.653 44.0346L12.2931 44.7826C10.5119 45.169 8.91768 46.1556 7.77717 47.5772C6.63666 48.9988 6.01916 50.769 6.02805 52.5916V54.2096C6.02959 55.3057 6.39041 56.3711 7.05526 57.2425C7.7201 58.114 8.65229 58.7435 9.70905 59.0346C12.954 59.9196 19.1131 60.9766 30.0281 60.9766C40.9431 60.9766 47.1021 59.9196 50.3471 59.0346C51.4038 58.7435 52.336 58.114 53.0008 57.2425C53.6657 56.3711 54.0265 55.3057 54.0281 54.2096V52.5916C54.0369 50.769 53.4194 48.9988 52.2789 47.5772C51.1384 46.1556 49.5442 45.169 47.7631 44.7826L44.4031 44.0346L39.8191 41.2856L37.9761 36.9856L38.5761 36.2946L39.0271 36.4156C39.4989 36.5404 39.9849 36.6039 40.4731 36.6046C41.9476 36.6014 43.3607 36.0133 44.4021 34.9694C45.4436 33.9255 46.0283 32.5111 46.0281 31.0366V29.8366C46.8845 29.6154 47.6435 29.1166 48.1864 28.4182C48.7292 27.7198 49.0252 26.8611 49.0281 25.9766V21.9766C49.0247 21.0923 48.7285 20.2342 48.1858 19.5361C47.643 18.8381 46.8842 18.3396 46.0281 18.1186V16.9766C46.0281 12.7331 44.3423 8.66344 41.3418 5.66285C38.3412 2.66227 34.2715 0.976563 30.0281 0.976562C25.7846 0.976563 21.7149 2.66227 18.7143 5.66285C15.7138 8.66344 14.028 12.7331 14.028 16.9766V18.1186C13.1719 18.3396 12.4131 18.8381 11.8703 19.5361C11.3276 20.2342 11.0314 21.0923 11.028 21.9766V25.9766C11.028 27.0374 11.4495 28.0548 12.1996 28.805C12.9498 29.5551 13.9672 29.9766 15.028 29.9766H17.028C17.3695 29.9732 17.7078 29.911 18.0281 29.7926V30.1376C18.0275 31.5652 18.5456 32.9444 19.4861 34.0186L22.0861 36.9836L20.2421 41.2836L15.653 44.0346ZM20.7441 43.3136C22.5528 45.6969 25.0294 47.4884 27.8591 48.4606C26.8948 49.4049 26.0936 50.5024 25.4881 51.7086C22.3401 50.2391 19.5951 48.0287 17.488 45.2666L20.7441 43.3136ZM52.0281 52.5916V54.2096C52.0285 54.8681 51.8126 55.5085 51.4137 56.0324C51.0148 56.5563 50.4549 56.9348 49.8201 57.1096C46.6931 57.9586 40.7211 58.9766 30.0281 58.9766C19.3351 58.9766 13.363 57.9586 10.236 57.1046C9.60201 56.93 9.04271 56.5523 8.64389 56.0294C8.24507 55.5065 8.02874 54.8672 8.02805 54.2096V52.5916C8.02119 51.2245 8.48443 49.8967 9.34011 48.8305C10.1958 47.7644 11.3919 47.0247 12.728 46.7356L15.602 46.0966C16.729 47.6096 20.1461 51.7626 24.9841 53.6606C25.398 53.8197 25.8569 53.8159 26.2681 53.65C26.6794 53.4841 27.0124 53.1684 27.2001 52.7666C27.8561 51.3786 28.8239 50.1609 30.0281 49.2086C31.2326 50.1606 32.201 51.3779 32.8581 52.7656C32.9998 53.0674 33.2244 53.3228 33.5057 53.5018C33.7871 53.6808 34.1136 53.7761 34.4471 53.7766C34.662 53.7768 34.8751 53.7364 35.0751 53.6576C39.9121 51.7576 43.3291 47.6066 44.4561 46.0936L47.3301 46.7326C48.6663 47.0222 49.8624 47.7625 50.7177 48.8292C51.5731 49.8959 52.0357 51.2243 52.0281 52.5916ZM34.5681 51.7086C33.963 50.5021 33.1618 49.4045 32.1971 48.4606C35.0267 47.4884 37.5033 45.6969 39.3121 43.3136L42.5681 45.2666C40.4608 48.0285 37.7159 50.2389 34.5681 51.7086ZM42.6381 33.8616C41.9127 34.4139 41.0019 34.6647 40.0961 34.5616L40.5701 34.0196C41.5104 32.945 42.0285 31.5655 42.0281 30.1376V29.7926C42.3483 29.911 42.6866 29.9732 43.0281 29.9766H44.0281V31.0366C44.03 31.5828 43.9055 32.122 43.6644 32.6121C43.4233 33.1022 43.072 33.5298 42.6381 33.8616ZM40.0281 17.9616C30.8411 17.6856 28.9691 13.6346 28.9571 13.6056C28.8829 13.4198 28.7547 13.2606 28.5891 13.1485C28.4235 13.0364 28.228 12.9765 28.0281 12.9766C25.1185 12.9811 22.3195 14.0915 20.1981 16.0826C21.0931 11.1196 25.3761 6.97656 30.0281 6.97656C32.6793 6.97947 35.2212 8.03398 37.0959 9.90871C38.9706 11.7834 40.0251 14.3253 40.0281 16.9766V17.9616ZM47.0281 21.9766V25.9766C47.0281 26.507 46.8173 27.0157 46.4423 27.3908C46.0672 27.7658 45.5585 27.9766 45.0281 27.9766H43.0281C42.7628 27.9766 42.5085 27.8712 42.3209 27.6837C42.1334 27.4961 42.0281 27.2418 42.0281 26.9766V20.9766C42.0281 20.7113 42.1334 20.457 42.3209 20.2695C42.5085 20.0819 42.7628 19.9766 43.0281 19.9766H45.0281C45.5585 19.9766 46.0672 20.1873 46.4423 20.5623C46.8173 20.9374 47.0281 21.4461 47.0281 21.9766ZM30.0281 2.97656C33.7399 2.98053 37.2985 4.4568 39.9232 7.08145C42.5478 9.7061 44.0241 13.2648 44.0281 16.9766V17.9766H43.0281C42.6866 17.9799 42.3483 18.0421 42.0281 18.1606V16.9766C42.0246 13.795 40.7592 10.7448 38.5095 8.49508C36.2598 6.24539 33.2096 4.98 30.0281 4.97656C23.6351 4.97656 18.0281 11.0516 18.0281 17.9766V18.1606C17.7078 18.0421 17.3695 17.9799 17.028 17.9766H16.028V16.9766C16.032 13.2648 17.5083 9.7061 20.1329 7.08145C22.7576 4.4568 26.3162 2.98053 30.0281 2.97656ZM17.028 27.9766H15.028C14.4976 27.9766 13.9889 27.7658 13.6138 27.3908C13.2388 27.0157 13.028 26.507 13.028 25.9766V21.9766C13.028 21.4461 13.2388 20.9374 13.6138 20.5623C13.9889 20.1873 14.4976 19.9766 15.028 19.9766H17.028C17.2933 19.9766 17.5476 20.0819 17.7352 20.2695C17.9227 20.457 18.0281 20.7113 18.0281 20.9766V26.9766C18.0281 27.2418 17.9227 27.4961 17.7352 27.6837C17.5476 27.8712 17.2933 27.9766 17.028 27.9766ZM20.0281 30.1376V19.2766C20.871 18.0566 21.9749 17.0396 23.2597 16.2991C24.5444 15.5587 25.9779 15.1134 27.4561 14.9956C28.4001 16.4246 31.5081 19.7106 40.0281 19.9546V30.1376C40.0282 31.0811 39.6856 31.9926 39.0641 32.7026L37.8941 34.0396L35.0941 33.2916L35.1241 33.1676C35.1852 32.912 35.1954 32.6469 35.1541 32.3874C35.1128 32.1279 35.0207 31.8791 34.8832 31.6552C34.7456 31.4313 34.5653 31.2367 34.3525 31.0825C34.1397 30.9283 33.8987 30.8175 33.6431 30.7566L30.7261 30.0566C29.9519 29.8712 29.1358 30.0009 28.4573 30.4172C27.7788 30.8336 27.2934 31.5024 27.1081 32.2766C26.9227 33.0507 27.0524 33.8668 27.4687 34.5453C27.8851 35.2238 28.5539 35.7092 29.3281 35.8946L32.2451 36.5946C32.399 36.6315 32.5567 36.6503 32.7151 36.6506C33.1418 36.6508 33.5572 36.5133 33.8995 36.2586C34.2418 36.0038 34.4928 35.6454 34.6151 35.2366L36.4241 35.7206L34.9281 37.4266C34.5024 37.9133 33.9775 38.3035 33.3887 38.5708C32.7999 38.8381 32.1607 38.9765 31.5141 38.9766H28.5421C27.8954 38.9762 27.2564 38.8377 26.6676 38.5704C26.0788 38.3031 25.5539 37.9131 25.1281 37.4266L20.9941 32.7016C20.3718 31.9923 20.0284 31.0811 20.0281 30.1376ZM33.1781 32.7026L32.7141 34.6466L29.7961 33.9466C29.6668 33.9175 29.5446 33.8631 29.4366 33.7864C29.3285 33.7098 29.2368 33.6124 29.1667 33.5C29.0966 33.3876 29.0495 33.2624 29.0282 33.1316C29.0069 33.0009 29.0118 32.8672 29.0426 32.7384C29.0734 32.6095 29.1295 32.4881 29.2077 32.3811C29.2858 32.2741 29.3844 32.1837 29.4978 32.1152C29.6111 32.0466 29.737 32.0013 29.868 31.9818C29.999 31.9623 30.1326 31.969 30.2611 32.0016L33.1781 32.7026ZM23.6201 38.7436C24.2338 39.4452 24.9905 40.0075 25.8394 40.3927C26.6884 40.7778 27.6098 40.9769 28.5421 40.9766H31.5141C32.4462 40.9768 33.3677 40.7777 34.2166 40.3926C35.0656 40.0074 35.8223 39.4452 36.4361 38.7436L36.5161 38.6526L37.8931 41.8676C35.9958 44.4842 33.1918 46.3003 30.0281 46.9616C26.8643 46.3003 24.0603 44.4842 22.1631 41.8676L23.5411 38.6526L23.6201 38.7436Z" fill="#AEA17E"/>
</g>
<defs>
<clipPath id="clip0_260_4543">
<rect width="60" height="60" fill="white" transform="translate(0.0280762 0.976562)"/>
</clipPath>
</defs>
</svg>
