<svg width="80" height="80" viewBox="0 0 80 80" fill="none" xmlns="http://www.w3.org/2000/svg">
<g clip-path="url(#clip0_270_726)">
<path d="M79.8532 50.3114C79.6161 49.7558 79.1204 49.3547 78.5277 49.2384L75.0232 48.5511C74.6291 48.4737 74.2274 48.4643 73.8305 48.5233L72.6463 48.6989C71.7521 48.8318 70.8245 48.7558 69.9645 48.4792C67.4237 47.6622 62.4228 45.8431 57.3549 42.8079C56.1038 40.7205 54.0008 36.0641 53.6716 34.638L53.6165 34.3961C53.2033 32.5767 52.3436 28.7909 49.9134 27.6972C48.4169 27.0241 47.0435 26.8565 45.9399 26.7219C45.2673 26.64 44.6866 26.5691 44.2044 26.4081C43.558 26.1924 42.7192 25.6533 42.819 23.4912C43.1848 23.1054 43.5252 22.6388 43.8326 22.0963C44.7247 20.5216 45.2363 18.4661 45.2363 16.4568C45.2363 12.5482 43.128 9.92212 39.9898 9.92212C36.8517 9.92212 34.7432 12.5482 34.7432 16.4568C34.7432 18.9895 35.688 21.7131 37.1744 23.3375C37.1745 23.3427 37.1735 23.3474 37.1738 23.3526C37.3169 25.6314 36.4557 26.1879 35.7954 26.4083C35.3132 26.5693 34.7325 26.6401 34.0599 26.7221C32.9563 26.8567 31.5829 27.0242 30.0863 27.6975C27.6562 28.7913 26.7965 32.5769 26.3833 34.3963L26.328 34.6382C25.999 36.0644 23.896 40.7207 22.6449 42.808C17.5772 45.8435 12.5761 47.6625 10.0355 48.4792C9.17529 48.7559 8.24802 48.8316 7.3535 48.6991L6.16947 48.5234C5.77202 48.4647 5.37058 48.474 4.97677 48.5511L1.47232 49.2386C0.879436 49.3551 0.383923 49.756 0.146735 50.3116C-0.0906255 50.8671 -0.0376091 51.5024 0.288286 52.0111L1.08353 53.2521C1.83841 54.4304 3.12414 55.1584 4.52267 55.1997C4.52267 55.1997 5.13929 55.2173 5.18121 55.2173C6.19199 55.2173 7.16569 54.858 7.93512 54.1983L8.4639 53.745C8.74942 53.5004 9.0599 53.2944 9.39151 53.1272C9.49564 55.0035 11.0021 56.0566 13.3085 57.6689C13.809 58.0189 14.3763 58.4155 14.9795 58.8542C17.4694 60.665 21.0546 61.6628 24.8505 62.7193C27.0647 63.3356 29.3544 63.9727 31.6213 64.8121C36.0454 66.4502 36.6059 68.1733 36.6418 68.8389C36.6702 69.3514 37.0002 69.8031 37.4847 69.9904C37.6376 70.0488 37.7962 70.0784 37.9559 70.0784C38.6158 70.0784 39.1777 69.5843 39.2631 68.929L39.9804 63.4051C40.0738 62.6814 39.8234 61.9785 39.2933 61.4767C38.7636 60.9757 38.0488 60.7638 37.3327 60.8976L36.6461 61.0249L36.4675 60.9967L39.97 60.0683L43.5204 60.9986L43.3542 61.0247L42.6676 60.8974C41.9507 60.7638 41.2367 60.9753 40.707 61.4766C40.1769 61.9783 39.9264 62.6812 40.0199 63.4054L40.7372 68.9288C40.8224 69.5841 41.3845 70.0782 42.0444 70.0782C42.2042 70.0782 42.3627 70.0486 42.5177 69.9893C43.0001 69.8031 43.3301 69.3512 43.3587 68.8377C43.3944 68.1729 43.9551 66.4499 48.379 64.8118C50.6459 63.9723 52.9356 63.3353 55.1499 62.719C58.9457 61.6625 62.5309 60.6649 65.0208 58.854C65.6241 58.4151 66.1913 58.0186 66.6918 57.6686C68.9979 56.0564 70.5042 55.0035 70.6086 53.1267C70.9402 53.2939 71.2509 53.4999 71.5364 53.7448L72.065 54.1977C72.8346 54.8577 73.8082 55.217 74.8191 55.217C74.861 55.217 75.4777 55.1993 75.4777 55.1993C76.8762 55.1581 78.1619 54.4301 78.9168 53.2518L79.712 52.0109C80.0376 51.5022 80.0906 50.8669 79.8532 50.3114ZM49.2794 49.6997C48.8598 49.008 47.7007 46.7534 48.0065 43.4115C48.024 43.3753 48.0373 43.3379 48.0458 43.2997C48.7957 42.0658 49.2356 40.9192 49.3019 39.0496C50.1978 41.2593 51.3464 43.4184 52.883 45.8196C53.2227 46.3506 53.6997 46.787 54.2624 47.0816C55.2831 47.6161 56.7528 48.2537 58.6477 48.9843C58.4999 48.9964 58.3511 49.0094 58.2011 49.0227C52.9802 49.4885 50.1492 49.6543 49.2794 49.6997ZM46.8701 43.1192C46.5264 43.3852 45.8126 43.7469 44.6483 43.4881C44.3688 43.4257 44.0904 43.6024 44.028 43.8828C43.9658 44.1629 44.1425 44.4406 44.4227 44.5028C44.7843 44.5832 45.1162 44.6174 45.4198 44.6174C46.0348 44.6174 46.5307 44.4762 46.9171 44.2944C46.8665 47.1393 47.7639 49.1378 48.2655 50.0266C43.1576 52.5431 38.8894 52.3988 36.1754 51.816C33.9575 51.3394 32.3956 50.5036 31.704 50.0798C32.1995 49.2175 33.138 47.1906 33.0829 44.2797C33.4736 44.4689 33.9811 44.6175 34.6135 44.6175C34.9168 44.6175 35.2491 44.5834 35.6105 44.503C35.8907 44.4408 36.0674 44.1631 36.0052 43.8829C35.9428 43.6026 35.6655 43.4257 35.385 43.4883C34.107 43.772 33.3689 43.3049 33.0697 43.0404C32.9883 42.9683 32.8014 42.6953 32.7444 42.5993C32.0926 41.5036 31.6754 40.4254 31.7364 38.1067C32.9649 37.2514 33.7548 35.2071 34.0854 32.0196C34.2721 30.2179 34.2619 28.5432 34.2416 27.7469C34.3699 27.7313 34.4965 27.7155 34.6216 27.6992C34.8737 33.6061 37.1262 37.9896 39.9688 37.9896C42.8145 37.9896 45.0669 33.6029 45.3162 27.6913C45.4416 27.7079 45.5691 27.7237 45.6977 27.7394C45.6772 28.5326 45.6663 30.2123 45.8538 32.0194C46.1897 35.2594 47.0008 37.3167 48.2641 38.1464C48.3222 40.5594 47.8577 41.62 47.1499 42.7729C47.122 42.819 46.9396 43.0655 46.8701 43.1192ZM31.9897 43.3587C32.1901 45.4521 31.8051 47.11 31.4425 48.1393C31.179 48.8876 30.8891 49.4205 30.72 49.6997C29.8499 49.6543 27.0189 49.4883 21.7993 49.0227C21.6492 49.0094 21.5002 48.9966 21.3524 48.9843C23.2472 48.2538 24.7169 47.6162 25.7377 47.0816C26.3003 46.787 26.7773 46.3504 27.117 45.8196C28.6536 43.4184 29.8021 41.2593 30.698 39.0496C30.7656 40.9492 31.2178 42.102 31.9897 43.3587ZM39.9898 10.9615C42.5455 10.9615 44.1968 13.1183 44.1968 16.4566C44.1968 20.2818 42.2376 23.7655 40.0863 23.7655C37.8741 23.7655 35.7828 20.2135 35.7828 16.4566C35.7828 13.1183 37.4342 10.9615 39.9898 10.9615ZM36.1244 27.3941C37.4192 26.962 38.1183 25.8974 38.2146 24.2282C38.7914 24.5957 39.4204 24.805 40.0863 24.805C40.6769 24.805 41.2505 24.6376 41.7909 24.3202C41.9074 25.9365 42.6045 26.97 43.8754 27.3941C44.0071 27.4381 44.1432 27.4756 44.2825 27.5094C44.1874 30.0734 43.6864 32.4451 42.8577 34.2261C42.0524 35.9572 40.9995 36.9501 39.9691 36.9501C38.9403 36.9501 37.8883 35.9584 37.083 34.2294C36.2549 32.4513 35.753 30.0841 35.6561 27.5243C35.8169 27.487 35.9735 27.4446 36.1244 27.3941ZM9.49339 51.9489C8.86914 52.1816 8.29636 52.5194 7.78751 52.9555L7.25873 53.4087C6.65406 53.9268 5.88255 54.2002 5.0861 54.1761L4.55333 54.1603C3.49838 54.1291 2.52831 53.5799 1.95882 52.6913L1.16358 51.4501C1.09549 51.3439 1.05581 51.2274 1.04334 51.1084C1.49935 51.3303 2.16915 51.5694 2.94482 51.5694C3.4814 51.5694 4.06822 51.4549 4.6682 51.1411C4.92254 51.0083 5.02112 50.6941 4.88806 50.4398C4.755 50.1855 4.44072 50.0869 4.18672 50.2199C3.21476 50.7274 2.27397 50.5108 1.67797 50.2575L5.17706 49.5709C5.45444 49.5165 5.73702 49.5099 6.017 49.5515L7.20103 49.7272C8.25218 49.8831 9.34231 49.7939 10.3538 49.4687C12.9557 48.6321 18.0962 46.7612 23.2912 43.6324C23.3627 43.5893 23.4228 43.5295 23.4663 43.4583C24.7735 41.3212 26.9824 36.4258 27.341 34.8715L27.3972 34.626C27.7438 33.0998 28.5554 29.5259 30.513 28.645C31.4739 28.2128 32.3738 28.0121 33.2045 27.8845C33.2213 28.6958 33.2224 30.2724 33.0505 31.9239C32.8372 33.9715 32.4188 35.5249 31.8405 36.4683C31.8753 36.098 31.9186 35.704 31.9713 35.2818C32.0049 35.0119 31.8249 34.7617 31.5584 34.7078C31.2918 34.6525 31.0288 34.8145 30.9553 35.0765C29.9641 38.5998 28.5545 41.6451 26.2419 45.2593C25.9995 45.6384 25.6584 45.9499 25.2559 46.1609C23.9071 46.8671 21.7277 47.7672 18.777 48.8358C13.1358 48.6587 10.0154 49.708 9.49339 51.9489ZM36.748 62.0632L37.5224 61.9194C37.9088 61.848 38.2932 61.9617 38.5788 62.2318C38.8648 62.5026 39 62.8815 38.9495 63.2715L38.2323 68.7947C38.2115 68.9533 38.0744 69.0387 37.9559 69.0387C37.9228 69.0387 37.8901 69.0323 37.8575 69.02C37.7553 68.9803 37.6856 68.8867 37.6797 68.7821C37.6751 68.6943 37.6647 68.5991 37.648 68.4988C37.4476 66.6684 37.4659 64.5311 37.8526 64.0893C38.0417 63.8732 38.0197 63.5447 37.8036 63.3559C37.5876 63.1667 37.2591 63.189 37.0702 63.4047C36.899 63.6005 36.4564 64.3154 36.4704 66.4218C35.6371 65.5852 34.2545 64.6787 31.9822 63.8372C29.6748 62.9827 27.3639 62.3397 25.1291 61.7179C22.3849 60.9542 19.7547 60.221 17.6245 59.2009C17.7795 58.7138 18.0808 57.8491 18.5284 56.9224C19.3543 55.212 20.3075 54.0518 21.2949 53.5496C24.0587 54.3214 25.9461 56.3435 26.8907 57.3569C27.0413 57.5184 27.1697 57.6559 27.2761 57.7621C28.0432 58.5295 30.9345 60.045 33.225 61.1812C33.9246 61.5284 34.6708 61.7661 35.443 61.8879L36.5718 62.066C36.6303 62.0746 36.6898 62.0743 36.748 62.0632ZM54.8707 61.7176C52.6359 62.3394 50.325 62.9825 48.0176 63.8368C45.7211 64.6874 44.3343 65.6041 43.5039 66.4478C43.4992 65.519 43.4188 64.4542 43.1612 63.4962C43.0867 63.219 42.8015 63.0558 42.5243 63.1293C42.2471 63.2039 42.0829 63.4891 42.1574 63.7663C42.6208 65.4892 42.4415 67.6946 42.3582 68.4597C42.3376 68.5745 42.3256 68.6821 42.3204 68.7811C42.3145 68.8866 42.2447 68.9803 42.1446 69.0191C42.1101 69.0323 42.0772 69.0387 42.0441 69.0387C41.9256 69.0387 41.7883 68.9533 41.7677 68.7949L41.0504 63.272C41 62.8815 41.1352 62.5026 41.4212 62.2318C41.7067 61.9617 42.0919 61.848 42.4776 61.9194L43.252 62.0632C43.3102 62.0743 43.3695 62.0748 43.428 62.0656L44.5568 61.8875C45.3288 61.7657 46.075 61.528 46.7748 61.1808C49.0653 60.0444 51.9567 58.529 52.7238 57.7618C52.83 57.6556 52.9585 57.518 53.1091 57.3565C54.0398 56.3581 55.8858 54.3802 58.5838 53.5841C60.631 54.6828 61.8658 58.1825 62.2094 59.2778C60.109 60.2574 57.5448 60.9733 54.8707 61.7176ZM66.0958 56.8168C65.5917 57.1693 65.0203 57.5688 64.4088 58.0134C64.0207 58.2956 63.5982 58.5562 63.1507 58.8018C62.7728 57.6286 61.7324 54.8424 59.9686 53.2985C60.5735 53.2266 61.2124 53.2168 61.8864 53.2902C62.1718 53.3204 62.4282 53.1151 62.4592 52.8297C62.4902 52.5442 62.284 52.2878 61.9985 52.2567C56.9533 51.7099 53.7264 55.1697 52.3485 56.6476C52.2078 56.7985 52.0879 56.9274 51.9886 57.0267C51.4829 57.5324 49.361 58.7372 46.3126 60.2496C46.1215 60.3443 45.925 60.4263 45.7263 60.5022L40.1008 59.0283C40.0138 59.0054 39.9227 59.0056 39.8359 59.0288L34.2747 60.5029C34.0757 60.427 33.8787 60.3449 33.687 60.2497C30.6388 58.7374 28.5169 57.5326 28.011 57.0268C27.9117 56.9276 27.7918 56.7987 27.6512 56.6478C26.2734 55.17 23.0472 51.7094 18.0011 52.2569C17.7158 52.2879 17.5096 52.5443 17.5404 52.8299C17.5715 53.1152 17.8298 53.3204 18.1132 53.2904C18.725 53.2239 19.3077 53.2266 19.8626 53.2812C18.1297 54.7835 17.0903 57.487 16.6884 58.7124C16.3006 58.4928 15.9321 58.2616 15.591 58.0135C14.9797 57.5691 14.4081 57.1696 13.904 56.8172C11.2854 54.9866 10.2015 54.2287 10.4631 52.4184L10.466 52.3988C10.4714 52.3619 10.477 52.324 10.4835 52.2859C10.8871 49.9651 15.8798 49.7804 18.8305 49.8781C18.8387 49.8786 18.8468 49.8788 18.8549 49.879C19.7337 49.9074 20.693 49.9679 21.7067 50.0586C27.2835 50.5561 30.1495 50.7129 30.8165 50.7459C31.3084 51.0829 33.1016 52.2096 35.9023 52.821C36.9325 53.0461 38.1718 53.2123 39.5857 53.2123C42.2367 53.2123 45.5007 52.6258 49.1418 50.748C49.7212 50.72 52.5884 50.5677 58.2932 50.0588C59.3064 49.968 60.2656 49.9076 61.1447 49.8792C61.1528 49.879 61.1612 49.8788 61.1693 49.8783C64.1188 49.7807 69.1126 49.9651 69.5161 52.2852C69.5228 52.3245 69.5284 52.3623 69.5338 52.3992L69.5364 52.417C69.7983 54.2284 68.7144 54.986 66.0958 56.8168ZM78.8364 51.4501L78.0412 52.6911C77.4715 53.5799 76.5016 54.1291 75.4466 54.1601L74.9139 54.1759C74.1185 54.2007 73.3459 53.9271 72.7412 53.4084L72.2125 52.9555C71.7034 52.5191 71.1305 52.1812 70.5066 51.9487C69.9854 49.708 66.8661 48.6579 61.2233 48.8358C58.2726 47.7668 56.0932 46.8671 54.7446 46.1609C54.342 45.9499 54.0008 45.6382 53.7584 45.2593C51.4458 41.6453 50.0362 38.5998 49.045 35.0765C48.9714 34.8145 48.7082 34.6525 48.4419 34.7078C48.1753 34.7617 47.9952 35.0119 48.029 35.2818C48.0869 35.7447 48.1333 36.1739 48.1697 36.5748C47.5555 35.6446 47.1113 34.0525 46.8895 31.9239C46.717 30.266 46.7187 28.6839 46.7357 27.8753C47.5831 28.0026 48.5032 28.2024 49.487 28.6449C51.4448 29.5261 52.2563 33.1 52.603 34.6262L52.659 34.8717C53.0176 36.426 55.2264 41.3213 56.5336 43.4584C56.5771 43.5297 56.6373 43.5894 56.7088 43.6326C61.9039 46.7614 67.0444 48.6322 69.6464 49.4689C70.6573 49.7939 71.748 49.8837 72.7989 49.7272L73.9831 49.5515C74.2628 49.5101 74.5455 49.5164 74.8231 49.5711L78.2853 50.2503C77.6901 50.5067 76.7403 50.7326 75.759 50.2198C75.5045 50.0865 75.1906 50.1853 75.0577 50.4396C74.9246 50.694 75.0232 51.0081 75.2775 51.141C75.8777 51.4549 76.4643 51.5693 77.0009 51.5693C77.8095 51.5693 78.5032 51.3096 78.9594 51.08C78.9506 51.2089 78.9099 51.3354 78.8364 51.4501Z" fill="#3D493A"/>
</g>
<defs>
<clipPath id="clip0_270_726">
<rect width="80" height="80" fill="white"/>
</clipPath>
</defs>
</svg>
