<svg width="26" height="26" viewBox="0 0 26 26" fill="none" xmlns="http://www.w3.org/2000/svg">
<g clip-path="url(#clip0_270_23)">
<path d="M20.1204 1.625H14.261C11.4343 1.625 9.13403 3.92524 9.13403 6.75195C9.13403 9.33047 11.0474 11.4705 13.5286 11.8267V14.0762C13.5286 14.3723 13.7066 14.6398 13.9806 14.7528C14.2508 14.8655 14.5677 14.8051 14.7789 14.594L17.4939 11.8789H20.1204C22.9471 11.8789 25.2961 9.57866 25.2961 6.75195C25.2961 3.92524 22.9471 1.625 20.1204 1.625ZM14.261 7.48428C13.8564 7.48428 13.5286 7.15635 13.5286 6.75186C13.5286 6.34736 13.8564 6.01943 14.261 6.01943C14.6655 6.01943 14.9934 6.34736 14.9934 6.75186C14.9934 7.15635 14.6655 7.48428 14.261 7.48428ZM17.1907 7.48428C16.7861 7.48428 16.4583 7.15635 16.4583 6.75186C16.4583 6.34736 16.7861 6.01943 17.1907 6.01943C17.5952 6.01943 17.9231 6.34736 17.9231 6.75186C17.9231 7.15635 17.5952 7.48428 17.1907 7.48428ZM20.1204 7.48428C19.7158 7.48428 19.3879 7.15635 19.3879 6.75186C19.3879 6.34736 19.7158 6.01943 20.1204 6.01943C20.5249 6.01943 20.8528 6.34736 20.8528 6.75186C20.8528 7.15635 20.5249 7.48428 20.1204 7.48428Z" fill="white"/>
<path d="M16.7512 23.5977C17.9628 23.5977 18.9485 22.612 18.9485 21.4004V18.4707C18.9485 18.1553 18.7468 17.8756 18.4478 17.7762L14.0636 16.3113C13.849 16.2391 13.6144 16.272 13.4256 16.3964L11.5616 17.6388C9.5875 16.6976 7.24507 14.3551 6.30376 12.381L7.54614 10.517C7.67129 10.3289 7.70278 10.0936 7.63125 9.879L6.16641 5.49478C6.06704 5.19585 5.78735 4.99414 5.47192 4.99414H2.49341C1.28179 4.99414 0.296143 5.96948 0.296143 7.1811C0.296143 15.6197 8.31265 23.5977 16.7512 23.5977Z" fill="white"/>
</g>
<defs>
<clipPath id="clip0_270_23">
<rect width="25" height="25" fill="white" transform="translate(0.296143 0.111328)"/>
</clipPath>
</defs>
</svg>
