<svg width="50" height="40" viewBox="0 0 50 40" fill="none" xmlns="http://www.w3.org/2000/svg">
<path d="M6.86667 34.2083C4.45 31.55 3 28.65 3 23.8167C3 15.3583 9.04167 7.86667 17.5 4L19.675 7.14167C11.7 11.4917 10.0083 17.05 9.525 20.675C10.7333 19.95 12.425 19.7083 14.1167 19.95C18.4667 20.4333 21.85 23.8167 21.85 28.4083C21.85 30.5833 20.8833 32.7583 19.4333 34.45C17.7417 36.1417 15.8083 36.8667 13.3917 36.8667C10.7333 36.8667 8.31667 35.6583 6.86667 34.2083ZM31.0333 34.2083C28.6167 31.55 27.1667 28.65 27.1667 23.8167C27.1667 15.3583 33.2083 7.86667 41.6667 4L43.8417 7.14167C35.8667 11.4917 34.175 17.05 33.6917 20.675C34.9 19.95 36.5917 19.7083 38.2833 19.95C42.6333 20.4333 46.0167 23.8167 46.0167 28.4083C46.0167 30.5833 45.05 32.7583 43.6 34.45C42.15 36.1417 39.975 36.8667 37.5583 36.8667C34.9 36.8667 32.4833 35.6583 31.0333 34.2083Z" fill="white"/>
</svg>
