<svg width="80" height="80" viewBox="0 0 80 80" fill="none" xmlns="http://www.w3.org/2000/svg">
<path d="M76.9946 45.0863C75.7078 40.3364 72.7674 32.3337 67.5338 32.1062C60.3821 31.7941 56.7835 35.0127 56.2178 42.2183C51.6242 40.2495 47.2112 38.5857 46.1553 38.1915C45.3402 36.8549 40.9149 30.0693 31.004 22.8084L31.8834 21.9162L32.2654 21.7252C34.4947 20.6107 35.4474 17.956 34.4346 15.6821L33.2553 13.0283C32.8164 12.04 32.4704 10.9957 32.2277 9.92629L30.5664 2.53894C30.2587 1.16103 29.058 0.198844 27.6388 0.198844C27.1681 0.20003 26.736 0.454161 26.4828 0.842832C25.9401 0.315588 25.201 0 24.3897 0C23.7519 0.00166099 23.1831 0.465076 23.0374 1.10242L19.8989 14.8286C19.7354 14.7833 19.5676 14.7579 19.3965 14.7579C18.4514 14.7579 17.658 15.4365 17.5104 16.3719L17.1502 18.6531C16.9903 19.6668 17.2987 20.6793 17.9679 21.4241C16.0943 24.4398 12.797 29.7758 9.75452 34.8463C3 46.1026 3 46.8662 3 47.2764C3 48.3838 5.61605 55.2781 10.6087 62.3245C15.1606 68.7487 22.8474 76.8842 33.6174 79.1598C36.2558 79.7172 38.8619 79.9998 41.3636 80C41.364 80 41.3643 80 41.3648 80C49.8695 80 55.9316 76.7433 59.5191 74.0114C63.8351 70.7248 66.4165 66.858 67.3158 64.5455C68.1354 62.4382 68.7518 59.6503 68.8019 56.8159C69.2876 55.9914 71.3434 52.4276 72.2994 49.6094C72.9961 49.4815 73.8468 49.268 74.8358 48.9725C76.5017 48.4745 77.4502 46.7675 76.9946 45.0863ZM27.6749 1.62231C28.4024 1.63536 29.0177 2.13579 29.1771 2.84978L30.8388 10.2397C31.1025 11.401 31.4776 12.5336 31.9541 13.6061L33.1339 16.2606C33.8362 17.8376 33.1751 19.6784 31.6285 20.4517L31.1409 20.6957C31.0709 20.7305 31.0071 20.7768 30.9523 20.8326L29.876 21.9248C29.7146 21.7233 29.5475 21.5233 29.3722 21.3266C31.3431 20.1181 32.1422 17.6316 31.1855 15.4837L30.0062 12.8299C29.5672 11.8416 29.2213 10.7976 28.9783 9.72793L27.4122 2.76317L27.6749 1.62231ZM24.426 1.42394C25.1535 1.43699 25.7688 1.93742 25.928 2.65141L27.59 10.0414C27.8536 11.2026 28.2287 12.3352 28.7052 13.4077L29.885 16.062C30.5873 17.639 29.9263 19.4798 28.3799 20.2531L28.3452 20.2704C26.1046 18.1245 23.3421 16.4945 21.2215 15.4313L24.426 1.42394ZM4.42513 47.2975C4.6916 46.0288 10.4108 36.2869 19.0746 22.3407C20.0318 23.0884 20.8354 23.9934 21.4616 25.037L22.3465 26.5117C22.6896 27.0836 23.2301 27.501 23.8485 27.7091C21.011 38.756 17.1704 45.0434 13.0013 45.4339C12.6098 45.4705 12.3222 45.8176 12.3589 46.2091C12.3936 46.5781 12.7037 46.8545 13.0668 46.8545C13.0891 46.8545 13.1114 46.8536 13.1339 46.8515C13.4317 46.8235 13.7238 46.7736 14.0107 46.7032C15.3473 47.9871 22.4791 54.8202 26.1762 58.0306C25.985 58.89 25.461 61.0287 24.538 63.2959C23.5227 65.79 21.8149 68.9326 19.3607 70.1031C9.45886 61.335 4.55207 48.5646 4.42513 47.2975ZM40.9215 63.8203C39.9159 62.3926 35.9741 57.4312 29.5763 56.9818C28.4931 55.7427 23.0505 49.5245 19.8566 46.0255C23.9522 43.0673 26.9291 32.4901 27.8923 28.6701L40.3112 43.2027C40.3456 43.2431 40.3843 43.2794 40.4268 43.3109L51.5267 51.5919C50.5925 55.2705 48.111 62.7934 43.3117 63.5816L40.9215 63.8203ZM18.4488 45.2085C18.2391 45.3018 18.0872 45.4904 18.0407 45.7151C17.9942 45.9398 18.0592 46.1733 18.2146 46.3418C20.8074 49.1505 25.6029 54.6066 27.6853 56.9832C27.5202 56.9949 27.3555 57.0053 27.1875 57.0231C23.8625 54.1444 17.5792 48.1508 15.4821 46.1415C20.2887 43.6393 23.4123 35.1989 25.2807 27.8588H26.6292C25.4181 32.8484 22.1341 43.5705 18.4488 45.2085ZM20.5239 71.095C25.0524 68.4122 27.0753 60.5536 27.5494 58.4235C34.7132 57.7876 39.0529 63.6013 39.8326 64.7464C39.7446 65.487 39.4392 67.8012 38.7976 70.3437C37.847 74.1106 36.5825 76.7454 35.1299 78.0021C34.7248 77.9297 34.3189 77.8531 33.9117 77.7669C28.7645 76.6795 24.3064 74.1977 20.5239 71.095ZM65.9889 64.0296C64.143 68.776 55.695 78.577 41.3636 78.5765C39.8927 78.5765 38.3823 78.4733 36.8495 78.2709C39.8253 74.7117 40.9412 67.358 41.2098 65.2227L43.4749 64.9963C43.4889 64.9949 43.5029 64.993 43.5167 64.9909C48.769 64.1499 51.4965 57.2274 52.7587 52.5111L57.9808 56.4071L57.7198 60.8438C57.6965 61.2363 57.9962 61.5733 58.3884 61.5963C58.4027 61.5972 58.4169 61.5975 58.4309 61.5975C58.8049 61.5975 59.1186 61.3056 59.1409 60.9274L59.4244 56.1074C59.4387 55.8682 59.3314 55.6381 59.1395 55.495L41.3417 42.2173L28.0683 26.6845C27.9331 26.5262 27.7354 26.4351 27.5271 26.4351H24.7259C24.254 26.4351 23.81 26.1836 23.5673 25.779L22.6825 24.3043C21.9277 23.0464 20.95 21.962 19.7762 21.0812L19.3097 20.7315L19.3095 20.7313C18.7324 20.2987 18.4439 19.5875 18.5563 18.8752L18.9165 16.594C18.9588 16.3261 19.1953 16.1816 19.3963 16.1816C19.4651 16.1816 19.9181 16.3771 20.0923 16.4613C22.275 17.5168 25.3676 19.2708 27.7084 21.6384C28.1628 22.0902 28.5792 22.5626 28.9458 23.0426C28.9897 23.0998 29.0417 23.1501 29.1005 23.1916C35.0255 27.3826 39.0472 31.4909 41.378 34.1995C43.9042 37.1352 45.0431 39.1048 45.054 39.1241C45.1371 39.2695 45.2688 39.381 45.4259 39.4389C45.5331 39.4786 56.2308 43.431 62.6373 46.7736C64.4923 47.7415 66.8054 49.8934 67.2906 54.6493C67.6503 58.1725 66.854 61.8048 65.9889 64.0296ZM74.4279 47.6084C73.2856 47.9498 72.3526 48.1734 71.655 48.273C71.3819 48.3119 71.1557 48.5053 71.0748 48.7692C70.558 50.4563 69.5021 52.5845 68.6671 54.1408C68.2286 50.5894 66.6905 47.2828 63.2957 45.5115C61.6044 44.6291 59.6207 43.7058 57.6102 42.8224C57.6083 42.7626 57.608 42.7063 57.6113 42.6565C58.0377 35.9765 60.9862 33.2468 67.4717 33.5287C68.9675 33.5937 72.756 34.8864 75.6202 45.4588C75.8725 46.3888 75.3488 47.3331 74.4279 47.6084Z" fill="#3D493A"/>
</svg>
