<svg width="80" height="80" viewBox="0 0 80 80" fill="none" xmlns="http://www.w3.org/2000/svg">
<g clip-path="url(#clip0_270_738)">
<path d="M79.993 61.9747C79.9573 61.755 79.7916 61.5789 79.5742 61.53C79.3523 61.48 74.5281 60.4023 71.7245 60.3523C72.1945 59.5251 72.4598 58.6498 72.4598 57.8238C72.4598 55.922 71.0897 53.9507 69.7315 52.8406C68.0487 51.4648 64.9826 50.0401 59.933 51.0652C58.9741 51.2598 58.2827 52.0722 58.2512 53.0407C58.209 54.3419 58.2607 55.6214 58.2954 56.2718L56.1319 56.9082L55.8105 44.3768C55.7837 43.3409 55.9289 42.3087 56.2419 41.3087C56.599 40.1675 57.0711 38.5265 57.2939 37.1906C57.6623 34.9808 58.934 28.069 59.0153 27.6274L59.9373 24.2022C60.2344 23.0987 60.2344 21.9363 59.9372 20.8329L59.786 20.2718C59.5823 19.5157 58.9733 18.9135 58.2009 18.7847C57.8 18.7179 57.4018 18.7756 57.0511 18.9406L51.7833 15.3661C51.0346 14.8582 50.0058 14.8653 49.2481 15.4856C49.0306 15.6636 48.8574 15.889 48.7226 16.1358C47.6287 18.1382 45.6611 21.6498 44.6252 22.9447C43.9648 23.7703 42.8938 24.7257 41.7603 25.7372C40.3443 27.0008 38.8801 28.3073 38.0745 29.5048C36.4826 31.8716 36.3451 33.2214 36.2239 34.4124C36.1745 34.8982 36.1277 35.3569 35.9815 35.8613C35.6781 36.9072 35.1785 37.8654 34.496 38.7093L29.3345 45.0933C29.3345 45.0933 27.5533 47.0722 27.1466 47.4904C25.556 45.4045 19.6273 37.8143 16.6689 36.5961C15.101 35.9504 13.6359 36.3229 12.432 37.6729C11.6495 38.5504 11.1546 39.6699 11.0003 40.9105C9.85916 50.0885 8.74327 56.5235 8.1574 57.3044C7.93932 57.5952 6.79069 58.5556 0.851291 61.1859C0.139742 61.5011 -0.187112 62.2741 0.109003 63.0386C0.317266 63.5761 0.852565 63.9164 1.42897 63.9164H1.43515L10.5556 63.8798C11.4634 63.9164 12.2228 63.2401 12.2926 62.334L12.4491 60.2988C12.5358 59.1729 12.831 58.0829 13.3265 57.0594C14.3969 54.8487 16.0319 51.2236 16.7031 48.4342C18.5485 52.7835 20.8803 55.8989 21.4895 56.6769C21.3836 57.4777 21.4364 58.254 21.7065 58.9745C23.61 64.0503 26.7735 64.7012 29.3171 64.7012C30.8048 64.7012 33.2786 64.4124 35.4615 64.1576C37.2931 63.9439 39.0232 63.7418 39.8703 63.7418C40.6022 63.7418 42.2921 63.929 44.081 64.127C46.6233 64.4086 49.4596 64.7227 51.2554 64.7227C51.5283 64.7227 51.7774 64.7154 51.9975 64.6998C54.1818 64.5439 55.0462 63.7698 55.3703 63.312L59.8804 62.6183C60.4834 63.0255 62.3894 64.1258 65.3902 64.1258C65.7038 64.1258 66.0117 64.1014 66.3142 64.0594C67.3522 64.4884 69.0725 64.9986 71.3818 64.9986C75.6031 64.9986 79.5697 62.6299 79.7365 62.5291C79.9273 62.414 80.0288 62.1945 79.993 61.9747ZM42.4867 26.5515C43.6556 25.5086 44.7594 24.5235 45.4772 23.6262C46.5709 22.2589 48.5915 18.6528 49.6986 16.6247C49.8514 16.3448 50.1155 16.1573 50.4349 16.1049C50.7016 16.0611 50.9746 16.1362 51.1983 16.2879L56.2086 19.6874L54.9532 21.3859C54.1298 21.3686 51.8073 21.4204 49.9704 22.4223C48.7241 23.1022 46.7655 26.5803 44.5583 30.9829C43.3316 29.6293 41.4744 28.862 40.3745 28.5021C41.0185 27.8624 41.7588 27.2012 42.4867 26.5515ZM49.5204 51.063C48.4092 50.9685 45.9499 51.0456 44.3744 53.2533C42.7527 53.2955 38.0625 53.6226 36.0975 53.763C37.2958 50.7795 41.3427 40.6739 41.9116 38.8468C42.2283 38.2528 42.7361 37.2013 43.3744 35.8793C45.2074 32.0829 49.0218 24.1835 50.4931 23.381C51.8818 22.6234 53.6696 22.4916 54.5854 22.4785C54.4137 23.7211 54.1427 26.4862 54.8337 28.129C54.6289 28.8653 54.2328 30.2249 53.7802 31.7783C52.6774 35.5632 51.3051 40.2738 51.0401 41.5992C50.8422 42.5883 50.1525 46.9767 49.5204 51.063ZM12.3443 56.5841C11.789 57.7311 11.4581 58.9528 11.361 60.2155L11.2046 62.2505C11.1799 62.5684 10.9079 62.8052 10.5934 62.7892C10.5838 62.7889 10.5745 62.7889 10.5645 62.7887L1.43115 62.8252C1.43043 62.8252 1.4297 62.8252 1.42915 62.8252C1.18451 62.8252 1.11849 62.6397 1.10121 62.5601C1.08411 62.4802 1.06865 62.2834 1.29346 62.1839C8.1343 59.1545 8.80893 58.2549 9.03083 57.9594C9.66472 57.1141 10.4448 52.7775 11.1118 48.2572C11.9814 48.8711 13.4764 49.7249 15.0639 49.7249C15.1103 49.7249 15.1568 49.7222 15.2032 49.7207C14.3815 52.2533 13.0529 55.1204 12.3443 56.5841ZM16.9754 46.1286C16.8866 45.8783 16.6298 45.729 16.3686 45.7733C16.1069 45.8185 15.9155 46.0455 15.9155 46.311C15.9155 46.9378 15.7711 47.7279 15.5381 48.5961C13.783 48.8686 11.9156 47.5255 11.2904 47.0238C11.5944 44.8894 11.8678 42.7807 12.0837 41.0451C12.2103 40.0255 12.6124 39.1106 13.2468 38.3994C14.139 37.3992 15.1228 37.1396 16.2535 37.6053C18.9958 38.7344 25.0272 46.5098 26.3874 48.2956C24.784 50.047 22.6667 52.7019 21.8158 55.2869C20.7125 53.7561 18.4778 50.3629 16.9754 46.1286ZM22.7283 58.5916C21.9246 56.448 23.6605 53.472 25.2582 51.353C26.4778 49.7356 27.8085 48.3604 28.5422 47.6393C28.8882 47.2994 30.5909 45.2753 30.5909 45.2753L35.3447 39.3956C36.1188 38.4381 36.6858 37.3513 37.0295 36.1654C37.2034 35.5659 37.2574 35.0357 37.3096 34.5232C37.4231 33.4076 37.5406 32.2541 38.9801 30.1142C39.1371 29.8808 39.3273 29.6387 39.5405 29.391C40.3958 29.6307 42.8325 30.4325 44.0263 32.0526C43.4913 33.1344 42.9444 34.26 42.3916 35.4048C41.7417 36.7509 41.2283 37.8143 40.9249 38.3774C40.9074 38.4099 40.8932 38.444 40.8829 38.4792C40.3841 40.1419 35.9906 51.1018 34.9698 53.6422C34.8405 53.9642 34.6357 54.5517 34.6357 54.5517L33.7255 57.433C33.6348 57.7204 33.7941 58.027 34.0815 58.1178C34.1362 58.1351 34.1915 58.1432 34.2459 58.1432C34.4775 58.1432 34.6926 57.9945 34.7659 57.7618L35.6737 54.8876C35.9146 54.8703 36.2625 54.8454 36.6829 54.8156C36.4326 56.4089 35.4649 60.6695 32.0718 63.4344C31.007 63.5381 30.0332 63.6103 29.3169 63.6103C26.8727 63.6101 24.3824 63.0022 22.7283 58.5916ZM39.8705 62.6508C38.9599 62.6508 37.1991 62.8563 35.3351 63.0739C34.8614 63.1292 34.374 63.1859 33.8865 63.241C36.8486 60.1333 37.6181 56.1061 37.8002 54.7374C40.2384 54.5686 43.7174 54.3399 44.6672 54.3399C44.8535 54.3399 45.027 54.2448 45.1272 54.0879C46.3712 52.1384 48.412 52.0556 49.3545 52.1358C49.1688 53.3401 48.9927 54.4875 48.8412 55.4771C48.1224 55.894 46.1214 57.2291 45.6118 59.4276C45.3238 60.6706 45.5621 61.96 46.3173 63.2727C45.5963 63.1972 44.8784 63.1177 44.2012 63.0428C42.3027 62.8325 40.6628 62.6508 39.8705 62.6508ZM51.92 63.6116C50.9888 63.6778 49.4105 63.5721 47.7086 63.4118C46.7551 62.099 46.4059 60.8443 46.6738 59.6798C46.9585 58.4421 47.8847 57.5121 48.6168 56.9466C48.4667 57.9292 48.3678 58.5807 48.3494 58.7013C48.3041 58.9992 48.5089 59.2775 48.807 59.3228C49.1035 59.3683 49.3832 59.1635 49.4283 58.8653C49.5304 58.1962 51.6812 43.9588 52.1101 41.8131C52.366 40.5337 53.789 35.6496 54.8279 32.0835C55.3246 30.379 55.7535 28.907 55.9394 28.2251C55.9745 28.0965 55.9622 27.961 55.9023 27.8418C55.2059 26.4546 55.5291 23.3865 55.7361 22.1634L57.0846 20.3391C57.1155 20.2971 57.1488 20.2554 57.1852 20.218C57.5975 19.7934 57.9646 19.8505 58.0413 19.8651C58.3745 19.928 58.6261 20.161 58.7143 20.4886L58.8838 21.1178C59.1303 22.0341 59.1303 23.0025 58.8838 23.9189L58.0084 27.1707C58.0084 27.1707 57.9489 27.3938 57.9462 27.4084C57.9327 27.4813 56.5977 34.7307 56.2177 37.0114C56.0051 38.2859 55.5473 39.8747 55.2004 40.9831C54.8517 42.0977 54.6898 43.2491 54.7195 44.4052L55.0585 57.6281C55.016 58.9868 54.5523 62.6217 52.9344 63.4719C52.6483 63.5339 52.3135 63.5835 51.92 63.6116ZM60.3586 61.6191C60.2395 61.5238 60.0863 61.4829 59.9348 61.5058L55.2375 62.2285C55.8883 60.6921 56.0766 58.873 56.13 58.0461L59.0203 57.1961C59.2663 57.1238 59.4288 56.8897 59.4106 56.6339C59.4093 56.6161 59.2849 54.837 59.3418 53.076C59.3569 52.6153 59.6892 52.2282 60.15 52.1347C64.78 51.1951 67.5405 52.4592 69.0409 53.6857C70.6488 55 71.3685 56.7112 71.3685 57.824C71.3685 60.1695 68.61 63.0348 65.3904 63.0348C62.1919 63.0346 60.3751 61.6321 60.3586 61.6191ZM71.3822 63.9075C70.1131 63.9075 69.0432 63.742 68.184 63.5257C69.2711 63.0461 70.2152 62.315 70.9383 61.4676C70.9878 61.4631 71.0378 61.4565 71.0869 61.4536C72.7549 61.3474 75.9525 61.9096 77.8392 62.2829C76.3736 62.9646 73.8922 63.9075 71.3822 63.9075Z" fill="#3D493A"/>
</g>
<defs>
<clipPath id="clip0_270_738">
<rect width="80" height="80" fill="white"/>
</clipPath>
</defs>
</svg>
