<svg width="40" height="40" viewBox="0 0 40 40" fill="none" xmlns="http://www.w3.org/2000/svg">
<g clip-path="url(#clip0_167_449)">
<path d="M34.322 0.339731C31.2476 -1.07265 27.4103 2.24254 25.3965 4.34425C25.1871 4.5626 25.0328 4.82064 24.9411 5.10089L24.5895 5.13207C24.1182 4.09507 22.3487 0.459376 20.5933 0.198689C17.712 -0.22858 15.3575 0.22906 14.9918 0.306714C14.4208 0.285661 9.32513 0.128053 7.21123 1.12904C7.19604 1.13629 7.18143 1.14445 7.16751 1.15377C6.60898 1.52617 6.49037 2.30788 6.81513 3.47706C7.01036 4.17974 7.30464 4.80396 7.3739 4.94639C7.45201 5.21294 8.00629 7.0267 9.25761 9.28718C5.64711 12.1216 1.68308 16.1246 2.17006 22.0905C2.24863 23.053 2.6958 23.853 3.49903 24.4682C5.04141 25.6496 7.7104 25.9856 10.2505 25.9856C13.2066 25.9856 15.9861 25.5303 16.6088 25.4212C16.7585 25.6779 16.9108 25.9194 17.0645 26.1482C16.8275 26.9966 16.0623 29.7375 15.5907 31.4355C15.3205 32.4082 14.1249 34.521 12.2243 37.3844C11.933 37.8232 11.9015 38.3655 12.14 38.835C12.3787 39.3049 12.8357 39.5997 13.3624 39.6234L21.7044 39.9991C21.719 39.9997 21.7334 40 21.7479 40C22.1518 40 22.498 39.7452 22.6172 39.3547C22.6273 39.3217 22.6348 39.2887 22.6411 39.2556L23.1953 39.0868C23.5334 38.9838 23.7677 38.7018 23.8068 38.3506C23.8461 37.9994 23.6797 37.6726 23.3727 37.4976L18.1795 34.5389C19.0502 33.2507 20.2094 31.6221 21.1274 30.6428C26.7883 24.8843 26.609 22.3221 26.3512 21.5741C26.8746 20.7919 27.4018 20.0278 27.7898 19.5847C29.3378 17.8159 28.0594 12.5576 27.7931 11.5412C27.9438 11.3463 28.2853 10.9418 28.8181 10.517C30.3448 11.1616 32.702 11.5827 35.5663 10.2031C37.005 9.51093 37.8879 7.8687 37.8703 5.91712C37.8533 4.00085 36.912 1.52939 34.322 0.339731ZM9.60607 9.89115C10.6103 11.5921 11.7674 13.0903 13.0534 14.3435C13.3563 14.6387 13.7182 14.8162 14.109 14.8754C13.9145 15.2112 13.8216 15.6061 13.8589 16.0107C13.8835 16.2775 13.9129 16.5426 13.9444 16.8054C13.8134 16.8068 13.4571 16.8142 13.4571 16.8142C12.7429 16.8336 12.0368 16.6264 11.4165 16.2154C8.77972 14.4687 6.3927 14.2149 5.23571 14.2135C6.49048 12.5183 8.0775 11.0969 9.60607 9.89115ZM2.85813 22.0344C2.63103 19.253 3.44346 16.9101 4.74172 14.9224C5.01218 14.9016 5.6578 14.8774 6.53443 15.0111C7.60927 15.1749 9.26267 15.6167 11.0352 16.791C11.6604 17.2051 12.3602 17.4447 13.0796 17.495C12.1581 19.6931 8.04816 24.173 7.19316 25.0915C5.88731 24.8954 4.72009 24.534 3.9187 23.9201C3.26791 23.4217 2.92094 22.8048 2.85813 22.0344ZM8.03758 25.1948C8.58771 24.5953 9.52197 23.5582 10.4775 22.4121C12.3361 20.1823 13.4553 18.5329 13.8147 17.4979C13.8885 17.4969 13.9618 17.4958 14.0352 17.4952C14.4601 20.459 15.2861 22.9209 16.2552 24.7799C15.105 24.9652 11.3059 25.5087 8.03758 25.1948ZM23.0309 38.0973C23.124 38.1504 23.1247 38.2386 23.1208 38.274C23.1169 38.3095 23.0965 38.3953 22.994 38.4265L22.5017 38.5764C22.4301 38.472 22.3354 38.3809 22.2198 38.3104C22.2083 38.3034 22.1967 38.2971 22.1846 38.2916L17.6818 36.215C17.5624 36.16 17.4767 36.06 17.4404 35.9337C17.4041 35.8076 17.4236 35.6779 17.4952 35.5682C17.5862 35.4289 17.6874 35.2753 17.7943 35.114L23.0309 38.0973ZM20.6295 30.1649C19.3983 31.4781 17.7754 33.8774 16.9176 35.1907C16.7371 35.4669 16.6859 35.8072 16.7771 36.1243C16.8685 36.4419 17.0929 36.7033 17.393 36.8417L21.8741 38.9084C21.9913 38.9889 21.9715 39.1054 21.9569 39.1531C21.9419 39.2023 21.8947 39.3171 21.7355 39.3094L13.3935 38.9337C13.1186 38.9214 12.8801 38.7676 12.7555 38.5223C12.6312 38.2775 12.6476 37.9948 12.7994 37.766C14.1717 35.6986 15.8852 32.9541 16.2558 31.6201C16.6536 30.188 17.2601 28.0144 17.5824 26.8597C18.0816 27.489 18.5873 27.9717 19.0711 28.2951C19.518 28.5939 19.9414 28.7468 20.3146 28.7468C20.4248 28.7468 20.5306 28.7334 20.6314 28.7066C21.7764 28.4015 23.4079 26.036 25.5876 22.7275C25.6408 22.6466 25.6926 22.5682 25.7453 22.4883C25.6415 23.5734 24.7991 25.9235 20.6295 30.1649ZM35.267 9.58134C32.5171 10.9058 30.2897 10.4319 28.907 9.80234C28.7936 9.75068 28.6614 9.76805 28.5617 9.84295C27.6245 10.5463 27.1497 11.2498 27.1299 11.2794C27.0743 11.3629 27.0576 11.4665 27.0844 11.5633C27.5403 13.2062 28.4626 17.7682 27.2705 19.1302C26.8301 19.6331 26.2415 20.4942 25.671 21.3501C25.4585 21.6692 25.2376 22.0045 25.0114 22.3479C23.5014 24.6397 21.4334 27.7787 20.4539 28.0397C20.216 28.1031 19.8521 27.9869 19.4549 27.7214C16.9138 26.0226 15.1968 21.0262 14.6767 17.1026C14.6261 16.7253 14.5822 16.3365 14.5463 15.9472C14.499 15.4332 14.7798 14.9438 15.2455 14.7275C16.1686 14.3598 19.7365 12.5936 20.963 11.9839C20.9451 12.4079 20.6384 12.7808 20.43 12.9866C20.2483 13.166 20.0167 13.3275 19.7417 13.4669L16.9506 14.881C16.8336 14.9404 16.7603 15.0608 16.7615 15.1921C16.762 15.2471 16.7759 16.5468 16.9667 17.3612C17.3368 18.932 18.0679 21.1576 19.4502 22.8412C19.8851 23.3684 20.3576 23.8088 20.8546 24.15C20.9142 24.191 20.9823 24.2106 21.0496 24.2106C21.171 24.2106 21.29 24.1468 21.3539 24.0289C21.4403 23.8694 21.3761 23.6717 21.2271 23.5683C20.8442 23.3029 20.4758 22.9691 20.1295 22.5745C20.9759 20.952 21.8619 19.6431 22.4726 18.8126C22.4795 18.8049 22.4859 18.7968 22.4921 18.7886C22.9648 18.1488 23.2796 17.786 23.2827 17.7824C23.4077 17.6387 23.3927 17.4206 23.249 17.2955C23.1053 17.1704 22.8872 17.1854 22.7622 17.3291C22.7505 17.3426 22.5057 17.6246 22.1187 18.1356C21.0296 17.5591 19.5092 17.1661 17.5911 16.9648C17.4982 16.4259 17.4668 15.74 17.4566 15.3987L20.0538 14.0828C20.3927 13.9111 20.6825 13.7076 20.915 13.478C21.531 12.8697 21.7732 12.1842 21.6005 11.5379C21.5887 11.4932 21.5722 11.4499 21.5531 11.4078C21.5186 11.3318 21.4723 11.2269 21.3938 11.1411C20.8819 10.5806 20.0949 10.3572 19.3651 10.6051L15.3779 11.9628C14.9247 11.3272 13.5368 9.32629 12.7529 7.6064L16.9515 4.71112L19.4642 4.2628C19.6285 4.23347 19.7594 4.09576 19.7618 3.92895C19.7651 3.70427 19.5655 3.54298 19.3559 3.58106L12.1011 4.8754L11.9872 3.7909C11.9677 3.60499 11.8111 3.45302 11.6244 3.4628C11.4254 3.47326 11.2781 3.64778 11.2987 3.84347L11.5235 5.98499C11.7554 8.19439 14.8382 12.3987 14.9694 12.5766C15.0586 12.6977 15.2161 12.7471 15.3584 12.6985L19.5872 11.2585C19.9417 11.1381 20.321 11.1895 20.6235 11.3816C19.3722 12.0034 15.8382 13.7514 14.979 14.0907C14.4303 14.3073 13.9175 14.2216 13.5354 13.8491C12.2091 12.5566 11.0207 10.9944 10.0033 9.20584C8.61498 6.76602 8.03482 4.74759 8.02918 4.72746C8.02331 4.70675 8.01537 4.6865 8.00583 4.66718C7.52196 3.69737 7.04407 2.1107 7.53277 1.74072C9.59215 0.788513 14.9542 0.995935 15.0084 0.998121C15.0383 0.999156 15.0693 0.99651 15.0991 0.989722C15.1233 0.984315 17.5479 0.444765 20.4921 0.881352C21.1128 0.973501 21.9446 1.82976 22.8345 3.29219C23.5477 4.46447 24.0529 5.6233 24.058 5.6348C24.1171 5.77113 24.2563 5.85373 24.405 5.8413L24.8473 5.80219C24.8802 6.53167 25.3132 7.19892 25.9975 7.51184L27.9496 8.40422C28.1431 8.49246 28.3762 8.3872 28.4294 8.16908C28.4689 8.00687 28.3765 7.8404 28.2247 7.77103L26.2845 6.88405C25.7508 6.63993 25.4507 6.06426 25.5543 5.48398C25.5985 5.2371 25.7162 5.00816 25.8948 4.82191C27.7818 2.85249 31.349 -0.266429 34.0339 0.966944C36.3306 2.02177 37.1652 4.21886 37.1804 5.92333C37.1953 7.60456 36.4622 9.00624 35.267 9.58134ZM19.6625 21.9806C18.6556 20.5726 18.0672 18.8442 17.7575 17.6772C19.4217 17.8694 20.745 18.2118 21.7032 18.698C21.1325 19.4957 20.3899 20.6223 19.6625 21.9806ZM12.2099 5.91286L12.1732 5.56348L15.311 5.00368L12.4817 6.95469C12.3401 6.57286 12.2419 6.21795 12.2099 5.91286Z" fill="white"/>
</g>
<defs>
<clipPath id="clip0_167_449">
<rect width="40" height="40" fill="white"/>
</clipPath>
</defs>
</svg>
