<svg width="81" height="80" viewBox="0 0 81 80" fill="none" xmlns="http://www.w3.org/2000/svg">
<g clip-path="url(#clip0_775_24)">
<path d="M75.3318 43.2419C73.5559 39.2723 67.9344 39.0163 65.5989 39.0904C64.6684 39.1199 63.8974 39.8089 63.7662 40.7285L63.624 41.7237L62.4054 41.5087C62.3011 39.9468 61.8633 34.3876 60.7831 31.9135C60.4273 31.0988 60.1803 30.2395 60.0491 29.3597C59.7389 27.28 59.2856 24.8274 59.1781 24.2517C59.367 23.6088 60.0955 20.7445 59.4072 16.8434C58.7495 13.117 59.2761 10.8561 59.3757 10.481L60.459 8.74775C60.7598 8.26662 60.9265 7.73753 60.9702 7.20451C61.0023 6.8152 61.0813 6.43084 61.2421 6.07498C61.4445 5.62696 61.7311 5.18423 62.0516 5.11067C62.205 5.07534 62.3441 4.98334 62.3952 4.83434C62.5534 4.37369 62.1719 4.02483 61.7951 4.11904C61.2349 4.25917 60.8243 4.71897 60.5355 5.20863C60.3237 4.834 60.0402 4.49282 59.6859 4.20933L59.464 4.03183L60.0299 1.0882C60.0769 0.843961 59.9545 0.58829 59.7234 0.496296C59.4135 0.373239 59.0876 0.564907 59.0283 0.874171L58.4476 3.89375L58.079 4.07808L57.6198 0.447824C57.5842 0.167064 57.3256 -0.0324553 57.0476 0.00406916C56.7668 0.0393989 56.5681 0.295582 56.6036 0.576343L57.1078 4.56348L56.798 4.71846L55.234 1.03955C55.137 0.811703 54.8942 0.668166 54.6521 0.720392C54.3263 0.79054 54.1604 1.13189 54.284 1.42272L55.8802 5.17757L55.2775 5.47898L53.2731 2.91783C53.0783 2.66916 52.7 2.64902 52.4808 2.90008C52.318 3.0868 52.3258 3.36893 52.4786 3.56401L54.6649 6.35762L55.4924 9.43148C55.3565 10.6706 54.1691 21.7131 54.7426 24.1478C54.4815 29.4269 54.5875 33.0299 55.0575 34.8706C53.5035 36.1585 46.9733 39.0997 44.4123 40.1987C43.5497 40.4107 33.2164 43.037 29.34 48.0389C25.74 52.6841 23.0692 56.7388 22.6979 57.3072C22.3374 57.6004 20.3726 59.1662 18.746 59.8168C16.7568 60.6125 11.1013 65.9795 8.9725 69.9061C6.88839 71.9002 5.44141 74.9591 5.44141 76.4839C5.44141 77.659 6.89539 78.8129 8.55281 78.9534C9.00135 78.9913 9.43896 78.8396 9.75249 78.5368C10.0694 78.2306 10.2381 77.7926 10.2152 77.3352L10.0776 74.5834C10.0484 74.0007 10.2514 73.4304 10.6419 72.9968L10.6835 72.9506C11.592 71.941 12.636 71.0564 13.7862 70.3213C16.1076 68.838 19.0258 66.8459 20.0043 65.6266C21.9505 64.8906 28.6737 60.4497 32.7279 56.7755C35.1305 54.5981 37.5082 54.9916 39.0798 55.7049C40.4494 56.3265 41.9807 56.8238 43.6311 57.1835C46.5359 57.8163 50.7679 58.597 54.6446 58.7784C54.9462 59.5845 55.7615 61.7057 56.5002 63.1064C56.5229 63.3307 56.549 63.5418 56.578 63.7377C56.6555 64.2603 56.6504 64.7703 56.5625 65.2538C56.0471 68.0925 56.4546 74.5892 56.6538 77.2507C56.7279 78.2442 57.462 79.078 58.4386 79.2785L61.0618 79.8167C61.657 79.9387 62.2629 80.0001 62.8705 80.0001C63.0879 80.0001 63.3059 79.9923 63.5233 79.9764C64.3212 79.9187 65.4779 79.7911 66.4584 79.5108C66.6032 79.4695 66.7221 79.3666 66.7842 79.2297C66.8462 79.0927 66.8448 78.9353 66.7805 78.7994C66.2231 77.6228 64.7508 76.8452 63.2566 76.3412C63.3209 76.3532 63.3858 76.3655 63.4525 76.3788C64.5426 76.5967 65.8027 76.6674 66.9781 76.6674C67.7219 76.6674 68.4319 76.639 69.0431 76.602C69.5246 76.5728 69.9463 76.2292 70.024 75.7531C70.102 75.275 69.8392 74.8184 69.3877 74.645C66.2821 73.4522 64.0362 72.165 63.0634 71.0206C61.6114 69.3125 61.3667 63.2469 61.3994 59.9579C61.4051 59.3862 61.4964 58.8195 61.6713 58.2753C62.4264 55.9327 63.3518 49.7251 63.6129 47.9114C64.4282 48.0616 65.0295 48.491 65.7092 48.9762C66.6102 49.6196 67.6219 50.3385 69.2758 50.4739C68.9964 51.336 68.7438 52.5245 68.7438 54.0094C68.7438 57.5183 70.7111 60.8149 70.7951 60.9535C70.8888 61.1086 71.0559 61.2008 71.2331 61.2008C71.2604 61.2008 71.2878 61.1986 71.3151 61.1943C71.5215 61.1607 71.6867 61.0052 71.7326 60.8014C71.7779 60.6009 72.8369 55.8655 72.6981 53.7034C72.6263 52.5889 72.2243 51.3179 71.8267 50.2981C73.4281 49.9613 74.7001 49.2122 75.3866 48.1532C76.2279 46.8554 76.2093 45.2033 75.3318 43.2419ZM55.2749 35.9755C55.3152 36.3684 55.3232 36.8076 55.2309 37.131C55.1532 37.4029 55.3108 37.6864 55.5825 37.764C55.6294 37.7775 55.6769 37.7838 55.7235 37.7838C55.9462 37.7838 56.1512 37.6372 56.2155 37.4123C56.4265 36.6738 56.2949 35.717 56.2002 35.2218C56.1688 35.058 56.0344 34.5676 55.9914 34.3685C55.6955 32.9962 55.4693 30.1243 55.7694 24.1218C55.7723 24.067 55.766 24.0121 55.7515 23.9592C55.2577 22.1816 56.1396 12.8815 56.521 9.44803C56.5282 9.38454 56.5233 9.32019 56.5065 9.25841L55.7356 6.39465L58.8388 4.84305L59.0462 5.00894C60.0122 5.78176 60.2462 7.15569 59.5905 8.20483L58.4686 9.99982C58.4457 10.0363 58.4276 10.0758 58.4147 10.1171C58.3822 10.2195 57.6316 12.6746 58.3986 17.0214C59.1185 21.1012 58.175 24.0315 58.1658 24.0599C58.1382 24.1426 58.1322 24.2312 58.1484 24.3169C58.1537 24.3451 58.6867 27.1689 59.0361 29.5105C59.1805 30.4795 59.4524 31.4259 59.8444 32.3231C60.6031 34.0606 61.0354 37.6058 61.2455 39.8811C59.0013 40.3271 57.2438 40.1028 56.017 39.2126C54.8602 38.3728 54.4728 37.1279 54.3512 36.5558C54.6994 36.3517 55.0107 36.1568 55.2749 35.9755ZM44.6956 41.1837C44.7235 41.177 44.7508 41.168 44.7772 41.1566C45.4983 40.8475 50.2777 38.785 53.4228 37.0784C53.6361 37.8676 54.1558 39.1204 55.4019 40.0311C56.4011 40.7614 57.6613 41.1275 59.167 41.1275C59.8403 41.1275 60.5636 41.053 61.3337 40.9063C61.3481 41.0895 61.3604 41.2535 61.3704 41.3945C60.4706 41.3745 58.7907 41.4901 57.7168 42.4986C57.0064 43.1654 56.684 44.0888 56.7586 45.2432C56.9651 48.4435 57.1636 50.4462 58.178 51.2702C58.4876 51.5216 58.8559 51.6481 59.2766 51.6481C59.3824 51.6481 59.4918 51.6401 59.6041 51.6241C60.5918 51.4831 61.5355 50.8147 62.2354 50.1778C62.1849 50.4993 62.1311 50.8369 62.0746 51.1846C60.4443 51.4235 57.6291 52.6758 56.6236 53.1405L55.8721 52.389C55.7283 52.2451 55.5129 52.2001 55.3236 52.2743C55.2978 52.2844 52.7109 53.2637 50.5838 51.2484C50.3783 51.0535 50.054 51.0627 49.8599 51.268C49.737 51.3977 49.6957 51.5749 49.7335 51.7367C46.7866 52.0077 44.44 52.8031 42.8262 53.3511C42.64 53.4144 42.4622 53.4749 42.2931 53.5312C41.8858 53.667 41.4402 53.6604 41.0382 53.5126C35.7543 51.5674 34.9996 46.2783 34.8929 44.9423C39.3332 42.502 44.62 41.2019 44.6956 41.1837ZM13.2351 69.4582C12.0073 70.243 10.8928 71.1875 9.92265 72.2651L9.88101 72.3114C9.30549 72.9508 9.01227 73.7761 9.05528 74.6353L9.19284 77.3861C9.20104 77.5506 9.14727 77.6977 9.04128 77.8C8.93888 77.8988 8.79585 77.9461 8.63952 77.9328C7.39922 77.8276 6.4658 76.9812 6.4658 76.4837C6.4658 75.337 7.73955 72.4722 9.73576 70.5936C9.77638 70.5553 9.81052 70.5108 9.83663 70.4616C11.1177 68.0597 13.8507 65.0685 16.0982 63.0342C16.4074 63.8778 17.0442 65.1789 18.2014 65.955C17.1367 66.8481 15.4257 68.0585 13.2351 69.4582ZM56.4074 60.4512C55.8952 59.2232 55.4948 58.1242 55.4881 58.1063C55.4171 57.9105 55.2345 57.7774 55.0263 57.7694C51.1332 57.6226 46.7996 56.8255 43.8494 56.1828C42.2695 55.8385 40.8073 55.3639 39.5034 54.7722C37.9879 54.0845 35.0033 53.3317 32.0406 56.0164C28.1098 59.5787 21.0831 64.2293 19.5402 64.7041C19.4328 64.737 19.3395 64.8044 19.2741 64.8959C19.2021 64.9966 19.1053 65.1103 18.986 65.2356C17.7319 64.5435 17.135 62.9599 16.9345 62.302C17.8703 61.5128 18.6593 60.9545 19.127 60.7676C21.0652 59.9923 23.3171 58.1254 23.412 58.0462C23.4516 58.0133 23.486 57.9744 23.514 57.931C23.5417 57.8883 26.3133 53.6167 30.1499 48.6661C31.0737 47.4739 32.4226 46.4161 33.9312 45.498C34.2077 47.5 35.421 52.5361 40.6841 54.4736C41.0077 54.5928 41.3496 54.6523 41.6918 54.6523C42.0044 54.6523 42.3173 54.6025 42.6165 54.5028C42.7873 54.446 42.967 54.3849 43.1551 54.3209C44.9947 53.6962 47.5044 52.8459 50.772 52.6909C52.6631 53.8973 54.6085 53.5457 55.3683 53.3339L57.2879 55.2535C56.6999 56.6907 56.4492 58.6504 56.4074 60.4512ZM62.2832 71.6835C63.6578 73.3006 66.6596 74.6898 68.9665 75.5803C67.4514 75.6718 65.3207 75.7077 63.6534 75.3742C62.9666 75.2369 60.9214 74.8922 59.8526 75.3981C59.996 73.9156 60.3597 70.1461 60.7019 66.5636C60.9693 68.7001 61.4454 70.6978 62.2832 71.6835ZM60.6969 57.961C60.4952 58.5869 60.3616 59.2483 60.2996 59.9267C59.933 63.9376 58.782 75.8331 58.7704 75.9528C58.7434 76.2323 58.9465 76.4813 59.2257 76.5112C60.6178 76.66 64.1294 77.3228 65.4673 78.6957C64.753 78.838 64.0091 78.9143 63.4498 78.9548C62.7188 79.008 61.9845 78.9601 61.268 78.8131L58.6449 78.275C58.1145 78.1661 57.7159 77.7134 57.6753 77.1739C57.4792 74.5519 57.0761 68.1589 57.5707 65.4364C57.6784 64.8427 57.6854 64.2206 57.5915 63.5872C57.5613 63.3841 57.5343 63.1636 57.5113 62.9292C57.5104 62.9128 57.5089 62.8966 57.5067 62.8804C57.2983 60.6956 57.4222 57.3285 58.3601 55.3591C58.4532 55.1633 58.4131 54.9302 58.2597 54.7769L57.3966 53.9138C58.6309 53.3586 60.6403 52.5242 61.8966 52.2554C61.5274 54.4337 61.0834 56.7622 60.6969 57.961ZM71.6765 53.7686C71.7613 55.0889 71.3349 57.5808 71.0279 59.1558C70.4754 57.9324 69.768 55.9807 69.768 54.0091C69.768 52.4617 70.0643 51.2755 70.3548 50.4846C70.5009 50.4775 70.6454 50.4677 70.7879 50.4546C71.1829 51.4331 71.6077 52.7015 71.6765 53.7686ZM74.5278 47.5958C73.63 48.9808 71.516 49.4742 69.8373 49.4742C68.1691 49.4742 67.2635 48.8274 66.3046 48.1428C65.4496 47.5321 64.5655 46.9006 63.2006 46.8356C62.9406 46.8226 62.7058 47.0141 62.6691 47.2765C62.6665 47.2947 62.6065 47.724 62.5054 48.4056C61.9961 49.0446 60.6642 50.4382 59.459 50.6104C59.1015 50.6613 58.9248 50.558 58.8233 50.4756C58.0832 49.8743 57.9223 47.379 57.7803 45.1773C57.7257 44.3321 57.9334 43.7008 58.4154 43.2472C59.5143 42.2125 61.6776 42.4306 61.8446 42.4494L63.9669 42.8239C64.104 42.8479 64.2441 42.8157 64.3564 42.7343C64.4687 42.6529 64.5431 42.5295 64.5627 42.3921L64.7798 40.8732C64.8406 40.4469 65.1988 40.1276 65.6313 40.1139C67.7619 40.046 72.8746 40.2566 74.397 43.66C75.1236 45.2842 75.1676 46.6083 74.5278 47.5958Z" fill="white"/>
</g>
<defs>
<clipPath id="clip0_775_24">
<rect width="80" height="80" fill="white" transform="translate(0.722656)"/>
</clipPath>
</defs>
</svg>
