<svg width="80" height="80" viewBox="0 0 80 80" fill="none" xmlns="http://www.w3.org/2000/svg">
<path d="M75.4166 46.1263C75.8066 45.2584 75.9831 44.2969 75.9275 43.3453L75.8266 41.6297C75.7306 40 74.8628 38.4869 73.5047 37.5819C72.1825 36.7003 70.531 36.3834 68.9744 36.715C68.8416 36.7431 68.6941 36.7756 68.5328 36.8122C62.9763 38.0694 57.6603 40.2412 52.7338 43.2669L50.8853 44.4022L50.4447 35.4187C50.3519 33.7934 49.8553 32.1987 49.0085 30.8075L46.6125 26.8713C46.1381 26.0925 45.7906 25.2472 45.5794 24.3597C44.7756 20.9841 42.2228 18.2319 38.9172 17.1769L32.7735 15.2163C31.7869 14.9016 30.7285 14.7991 29.6922 14.9131C26.4938 11.8081 22.8994 8.42469 22.25 7.9375C22.161 7.87063 13.2294 1.25 11.5625 1.25H8.7322C7.62877 1.25 6.6422 1.98938 6.33252 3.04844C5.71814 5.15 4.68752 9.05125 4.68752 11.5625C4.68752 14.6834 4.42502 21.7844 4.38158 22.9409L3.31189 24.7237C2.76845 25.6297 2.57002 26.7016 2.75377 27.7419L3.22002 30.3831C3.39095 31.3516 3.89002 32.2447 4.62502 32.8984L5.18501 33.3962C5.60627 33.7706 6.13627 33.9716 6.69377 33.9716C6.75158 33.9716 6.81002 33.9694 6.86814 33.965C6.9772 33.9569 7.08314 33.9388 7.18783 33.9159V68.2519C7.18783 70.3097 7.67439 72.3703 8.59439 74.2109C9.41595 75.8541 11.0678 76.8747 12.9047 76.8747H13.2516C14.6866 76.8747 16.1041 76.6447 17.4935 76.1803C18.006 75.9816 30.0706 71.295 32.7113 69.6781L44.0206 62.7541L51.236 60.1888C54.9444 58.87 58.2828 56.615 60.891 53.6672L62.3856 51.9775C60.7697 57.5809 59.8819 66.185 59.7681 67.3337L56.3438 74.7531C56.1119 75.2553 56.0219 75.8116 56.0828 76.3613C56.2538 77.9013 57.5513 79.0625 59.1006 79.0625H74.1513C75.001 79.0625 75.6925 78.3712 75.6925 77.5212C75.6925 76.8787 75.2888 76.2981 74.6875 76.0766C70.4506 74.5128 65.6325 71.8444 65.9978 69.4697C66.411 66.7841 71.1341 55.6503 75.4166 46.1263ZM37.6375 42.1888C37.6203 42.0156 37.5991 41.8428 37.5691 41.67L37.3772 40.5675C37.2925 40.0803 37.1831 39.6009 37.0553 39.1284C38.5175 38.7409 42.1175 37.7825 43.2278 37.4478C44.3378 37.1125 47.6153 35.4234 49.1028 34.6434C49.1466 34.9225 49.1806 35.2031 49.1966 35.485L49.4956 41.5844L47.4025 40.9184C44.8206 40.0981 42.0388 40.2575 39.5806 41.3634L37.6375 42.1888ZM8.4472 33.1519C8.85939 32.6575 9.04345 32.0087 8.9522 31.3719L8.72908 29.8091L8.79564 29.8853C9.09752 30.2303 9.54877 30.4019 10.0035 30.3434C10.0597 30.3363 10.115 30.3256 10.1691 30.3119L10.6975 32.3378C11.0994 33.8781 11.801 35.2938 12.7831 36.5459L14.5113 38.7491C14.5228 38.7638 14.535 38.7781 14.5478 38.7919C15.0141 39.2869 15.0025 40.0513 14.5216 40.5322L12.9047 42.1491C12.6269 42.4269 12.495 42.8247 12.5563 43.24L15.2213 57.2325C15.2413 57.3713 15.2581 57.5106 15.2719 57.65C15.31 58.0422 15.3119 58.4797 15.2785 59.0266L15.0131 63.3356L8.43752 66.3213V33.1625C8.44064 33.1588 8.44408 33.1556 8.4472 33.1519ZM16.5163 57.5294C16.501 57.37 16.4816 57.2112 16.4541 57.0256L13.7888 43.0328L15.4056 41.4159C16.3603 40.4613 16.3903 38.9478 15.4791 37.9569L13.7669 35.7747C12.891 34.6584 12.2653 33.3959 11.9069 32.0225L11.176 29.22C11.2106 29.0244 11.2078 28.8231 11.156 28.6281L11.0385 28.1872C11.8378 28.8106 12.7025 29.2969 13.59 29.62C13.1622 31.8587 14.3022 34.1266 16.3731 34.9641C16.9516 35.1978 17.5572 35.3147 18.1628 35.3147C18.7944 35.3147 19.426 35.1875 20.0253 34.9331C21.1988 34.4353 22.1081 33.5106 22.5856 32.3291C23.1888 30.8381 23.136 29.2612 22.4763 28.0566C23.0528 27.6313 23.5641 27.1478 23.9816 26.6147C23.99 26.6041 23.9978 26.5931 24.0063 26.5825C24.5894 27.5847 25.4022 28.4578 26.4072 29.1038L30.7488 31.8947C31.2344 32.2069 31.6875 32.5722 32.096 32.9806C34.2288 35.1131 35.6291 37.8109 36.1456 40.7825L36.3375 41.885C36.4778 42.6928 36.4481 43.5059 36.2494 44.3016C36.1447 44.7197 35.9906 45.1191 35.7991 45.5003C34.6703 46.0366 33.0003 47.0537 31.1206 48.9338C29.87 50.1844 28.9463 51.8438 28.3763 53.865C27.7219 56.1847 26.2619 58.1878 24.2656 59.5053L16.1725 64.8469L16.5263 59.1041C16.5638 58.4891 16.5606 57.9887 16.5163 57.5294ZM23.1016 21.3981L23.0385 21.9019C23.0347 21.9316 23.0341 21.9613 23.0306 21.9909C16.6478 21.6197 11.52 18.0316 10.0672 16.9125C11.2869 15.1334 12.8463 13.0988 12.8641 13.0756C12.8875 13.0453 12.9078 13.0128 12.9253 12.9788L13.5619 11.7291L23.2953 20.4387C23.2119 20.7572 23.1419 21.0775 23.1016 21.3981ZM11.8372 12.3606C11.6785 12.5681 11.0403 13.4059 10.3003 14.4219C10.4731 13.7653 10.6638 13.1953 10.8716 12.7797C11.296 11.9303 11.7738 11.1616 12.2131 10.5228L12.5981 10.8672L11.8372 12.3606ZM9.58408 18.1219C11.4441 19.5194 16.5531 22.8834 22.9991 23.2406C23.04 23.9463 23.1806 24.6375 23.4131 25.2962C23.2735 25.485 23.1341 25.6691 22.9978 25.8431C21.1778 28.1675 17.1169 29.4312 14.3063 28.5497C12.8956 28.1069 11.5247 27.1591 10.4231 25.8781L9.97939 24.2138C9.96845 24.1728 9.95345 24.1331 9.93439 24.0953L9.07595 22.3787C9.12564 21.8294 9.29689 20.0509 9.58408 18.1219ZM21.4269 31.8597C21.0744 32.7319 20.4031 33.4147 19.5372 33.7816C18.6713 34.1494 17.7141 34.1572 16.8419 33.8041C15.3556 33.2031 14.5303 31.5788 14.8 29.9481C15.2794 30.0341 15.7747 30.0809 16.281 30.0809C18.021 30.0809 19.8616 29.5884 21.415 28.7303C21.8603 29.5997 21.8766 30.7481 21.4269 31.8597ZM32.3931 16.4066L38.5372 18.3672C41.4278 19.2897 43.6603 21.6966 44.3631 24.6488C44.6047 25.6641 45.0025 26.6303 45.5447 27.5209L47.9406 31.4572C48.3088 32.0619 48.6006 32.7106 48.8119 33.3838C47.1594 34.2547 43.8519 35.9528 42.8666 36.2506C41.776 36.5797 38.0978 37.5588 36.681 37.9341C35.8994 35.7491 34.6472 33.7628 32.98 32.0959C32.5088 31.6247 31.9856 31.2028 31.425 30.8422L27.0835 28.0513C25.085 26.7672 23.9844 24.4137 24.2791 22.0566L24.3422 21.5528C24.3463 21.5216 24.3541 21.49 24.3585 21.4587L27.8566 25.1628C28.8578 26.2228 30.3613 26.6772 31.7819 26.3497L32.1394 26.2669C33.4322 25.9684 34.5085 25.0594 35.0185 23.835C35.6431 22.3356 35.3275 20.6038 34.2147 19.4228C33.4947 18.6584 32.3028 17.4656 30.9422 16.1316C31.436 16.1659 31.9244 16.2569 32.3931 16.4066ZM6.77439 32.7184C6.49377 32.7397 6.2247 32.6481 6.01502 32.4619L5.45502 31.9641C4.92939 31.4969 4.57283 30.8584 4.45064 30.1659L3.98439 27.5247C3.85314 26.7809 3.9947 26.0147 4.38314 25.3672L5.53564 23.4466C5.5897 23.3562 5.62033 23.2541 5.62439 23.1491C5.62752 23.0675 5.93752 14.9725 5.93752 11.5625C5.93752 9.20687 6.93658 5.43656 7.5322 3.39937C7.6872 2.87 8.18033 2.5 8.7322 2.5L11.5513 2.49969C12.5725 2.60063 19.0691 7.11438 21.5 8.9375C22.375 9.59406 30.6913 17.5059 33.305 20.28C34.08 21.1028 34.3 22.3097 33.8647 23.3544C33.5091 24.2075 32.7591 24.8416 31.8581 25.0494L31.501 25.1319C30.5122 25.3606 29.4631 25.0438 28.7656 24.305L24.8294 20.1372C24.8172 20.1244 24.8047 20.1122 24.7916 20.1006L12.9553 9.50937C13.385 8.9575 13.6813 8.63563 13.6881 8.62813L12.7716 7.77812C12.701 7.85406 11.0288 9.67 9.75345 12.2206C8.46439 14.7987 7.84064 22.1369 7.8147 22.4484C7.80533 22.5625 7.8272 22.6772 7.87845 22.78L8.78752 24.5978L9.94814 28.95C9.95595 28.9791 9.95283 29.01 9.93908 29.0369C9.91502 29.0853 9.87439 29.1 9.84502 29.1038C9.81439 29.1088 9.77252 29.1038 9.73658 29.0625L8.28283 27.4012C8.10064 27.1931 7.80283 27.1294 7.55189 27.245C7.30033 27.3603 7.1547 27.6275 7.19377 27.9016L7.7147 31.5494C7.75595 31.8366 7.67283 32.1291 7.48689 32.3522C7.3072 32.5675 7.05439 32.6978 6.77439 32.7184ZM59.9547 52.8394C57.4866 55.6294 54.3269 57.7634 50.8175 59.0112L43.5406 61.5984C43.4997 61.6131 43.4606 61.6316 43.4235 61.6544L32.0585 68.6125C29.5128 70.1712 17.1656 74.9672 17.0697 75.0053C15.8366 75.4166 14.5519 75.625 13.2516 75.625H12.9047C11.5441 75.625 10.3206 74.8691 9.71252 73.6522C8.87845 71.9841 8.43752 70.1169 8.43752 68.2522V67.6944L14.926 64.7481L14.8669 65.7078L12.4681 67.2909L13.1566 68.3341L24.9538 60.5478C27.2003 59.0653 28.8431 56.8122 29.5791 54.2038C30.0906 52.3906 30.9066 50.9147 32.0044 49.8169C32.7691 49.0522 33.4916 48.4444 34.15 47.9588L33.3981 49.0238C33.3166 49.1394 33.2328 49.2734 33.1488 49.4225C32.1703 51.1656 32.005 53.2881 32.696 55.2456L32.8481 55.6766L34.0266 55.2603L33.8744 54.8294C33.3035 53.2116 33.4363 51.4637 34.2385 50.0347C34.3013 49.9228 34.3622 49.825 34.4191 49.7444L36.376 46.9725C36.8831 46.2537 37.2485 45.4569 37.4619 44.6037C37.5497 44.2528 37.6094 43.8991 37.6428 43.5441L40.081 42.5078C42.2697 41.5225 44.735 41.3806 47.0228 42.1091L49.5603 42.9166L49.6697 45.1478L44.6725 48.2172L45.3269 49.2822L53.3875 44.3312C58.1972 41.3775 63.3853 39.2575 68.8072 38.0306C68.9622 37.9959 69.1047 37.9644 69.2335 37.9369C70.4631 37.6763 71.7666 37.925 72.811 38.6213C73.8447 39.3103 74.5053 40.4622 74.5781 41.7022L74.6791 43.4178C74.7231 44.1691 74.5838 44.9281 74.276 45.6128C74.0103 46.2034 73.6675 46.9691 73.2706 47.8613L64.5506 49.6122C64.7666 49.1644 64.9894 48.7978 65.2191 48.5425C67.9794 45.4753 68.9372 44.5128 68.9466 44.5037L68.0625 43.62C68.0238 43.6587 67.0813 44.6047 64.2897 47.7063C64.0628 47.9581 63.8447 48.2872 63.6344 48.6781L59.9547 52.8394ZM74.2547 77.2491C74.3669 77.2906 74.4425 77.3997 74.4425 77.5212C74.4425 77.6819 74.3119 77.8125 74.1513 77.8125H59.1006C58.1891 77.8125 57.426 77.1291 57.325 76.2234C57.2891 75.9 57.3422 75.5728 57.4785 75.2772L60.9472 67.7619C60.9766 67.6981 60.995 67.6297 61.0019 67.56C61.346 63.9809 62.4397 55.4847 63.991 51.0003L72.6503 49.2616C69.8081 55.6953 65.2028 66.4125 64.7619 69.28C64.1756 73.0944 71.205 76.1241 74.2547 77.2491Z" fill="#3D493A"/>
</svg>
