<svg width="80" height="80" viewBox="0 0 80 80" fill="none" xmlns="http://www.w3.org/2000/svg">
<g clip-path="url(#clip0_272_1258)">
<path d="M73.1021 48.8675C73.0958 48.6525 73.0385 46.8435 73.0385 46.8435C72.8649 40.9257 72.7011 35.336 71.0351 29.3619C69.0658 22.2792 65.2745 15.759 59.1081 8.84757C54.3092 3.36322 45.006 3.43052 36.5378 4.21908C31.9578 4.64395 28.7272 4.56804 26.8236 4.42959C25.2084 4.31198 23.7858 3.26759 23.1991 1.76887C22.9027 1.01204 22.2934 0.424014 21.5268 0.155949C20.7609 -0.111664 19.9182 -0.0323544 19.2151 0.374616C17.3042 1.48064 14.5861 3.40083 12.4892 6.26775C9.96082 9.72428 8.9656 13.6621 9.53142 17.9713C9.95334 21.1913 11.4385 25.3108 16.1164 26.6505C20.3515 27.8632 25.4341 26.2492 27.6908 24.8418C27.8326 25.5023 27.9978 26.1724 28.1902 26.8531C29.1312 30.8283 28.6665 38.4628 28.5974 39.5027C28.2292 40.3431 26.1755 45.3625 25.7273 53.6446C25.6738 54.6306 25.1538 55.5612 24.3362 56.1338C23.8676 56.4624 23.4414 56.7676 23.0707 57.0373C21.925 57.8705 21.2735 59.2131 21.3279 60.6289L21.378 61.9304L8.95812 68.2231C8.48159 68.4644 8.22961 68.979 8.33067 69.5033C8.43196 70.0277 8.85751 70.4115 9.38934 70.458L16.0708 71.0444C14.1139 72.339 11.2529 74.0081 8.00958 75.1842C7.23938 75.4638 6.79207 76.1977 6.89699 77.0108C7.00145 77.8202 7.6178 78.4143 8.42902 78.4891C12.7419 78.8965 18.8575 79.3155 23.5026 78.9964C24.5136 78.9269 25.5646 78.9146 26.7143 78.9586C28.9355 79.044 31.5685 79.1861 34.3564 79.3366C40.0916 79.6461 46.6407 79.9996 52.2143 79.9996C56.2421 79.9996 59.7607 79.8149 62.0942 79.2958C62.2436 79.2625 62.3775 79.18 62.474 79.0612C64.6892 76.3371 73.5445 62.4009 73.1021 48.8675ZM71.6814 46.9428L56.0434 46.7459C52.6562 41.2373 54.0638 36.3228 55.0033 33.0512C55.0754 32.7999 55.142 32.5651 55.2048 32.3385C56.0259 31.8189 60.0326 29.6962 69.8496 30.1967C71.2626 35.505 71.4892 40.572 71.6497 45.8791C71.6599 46.2129 71.6814 46.9428 71.6814 46.9428ZM39.0483 68.4558C38.3014 68.7637 37.6948 69.0748 37.1326 69.3638C35.3573 70.2758 33.8239 71.0635 28.7923 71.2103C28.0248 71.2341 27.3051 70.8004 26.9489 70.1095C26.7996 69.8194 26.6538 69.56 26.5125 69.3295C32.1677 68.2847 36.4837 67.989 39.0483 68.4558ZM41.2214 67.7207C38.9155 66.5734 34.2716 66.5972 27.3923 67.79C27.9638 66.9951 28.3549 66.0711 28.5244 65.0727L28.744 63.7797C30.9728 63.7534 33.7439 63.2642 36.9978 62.3172C42.7362 60.649 46.7631 61.1022 49.1303 61.7763C51.0766 62.3304 52.2479 63.1187 52.6986 63.4656C52.6714 64.9406 52.7419 66.4005 52.9519 67.7998C50.7351 66.8252 47.6726 66.2029 43.7819 67.0783C42.8538 67.2879 42.0149 67.4991 41.2214 67.7207ZM52.7643 61.8591C50.6712 60.5672 45.5027 58.4288 36.6178 61.0116C33.6018 61.8894 31.0353 62.3605 28.9753 62.4163L29.9255 56.82L36.5118 39.8557C36.7431 39.2591 36.8344 38.6103 36.7753 37.9795C36.7334 37.5338 36.6661 36.977 36.5881 36.3323C36.2201 33.2909 35.6226 28.3538 36.3543 24.368C41.0668 23.741 47.4084 23.5909 51.0596 26.3824C51.0671 26.3881 51.0748 26.3937 51.0827 26.3992C53.2723 27.9323 54.6557 29.1324 53.958 31.7439C53.8812 32.032 53.7919 32.3431 53.6963 32.6757C52.7444 35.9906 51.1579 41.5137 54.9609 47.5854C54.8325 48.7515 54.5413 50.2606 54.2075 51.9907C53.6557 54.8531 52.9818 58.3497 52.7643 61.8591ZM23.8703 58.137C24.2351 57.8716 24.6548 57.5709 25.1164 57.2473C26.2729 56.4368 27.0087 55.1178 27.0846 53.7183C27.5519 45.0901 29.8607 40.0062 29.8838 39.9563C29.9184 39.8818 29.9393 39.8015 29.9452 39.7197C29.971 39.3649 30.569 30.9749 29.5094 26.5245C29.5072 26.5152 29.5047 26.5059 29.5024 26.4966C27.2169 18.4309 29.0311 13.0156 31.4908 10.637C32.5574 9.60577 33.4731 9.41157 33.9351 9.55932C34.2918 9.67375 34.6752 9.47683 34.7896 9.11904C34.9041 8.76146 34.7069 8.37874 34.3493 8.26453C33.2392 7.90945 31.8167 8.43063 30.5457 9.65993C29.0492 11.1068 27.9439 13.3369 27.4329 15.9392C26.9867 18.2117 26.9833 20.7064 27.4161 23.3856C26.151 24.4092 20.9128 26.6104 16.4907 25.3437C13.3043 24.4312 11.4163 21.8915 10.8794 17.7948C10.3769 13.9685 10.8804 6.76989 19.896 1.55157C20.2554 1.34332 20.6864 1.30276 21.0777 1.43963C21.4695 1.57672 21.7811 1.87741 21.9327 2.26467C22.7092 4.24831 24.5902 5.63056 26.7245 5.786C28.6794 5.92831 31.9907 6.00671 36.6634 5.57323C44.7896 4.81616 53.689 4.71986 58.0891 9.74807C63.849 16.2041 67.4798 22.2887 69.4591 28.8163C61.6503 28.4759 57.4109 29.7802 55.4905 30.656C55.5723 27.8927 53.474 26.4139 51.874 25.2938C47.9887 22.3326 41.5896 22.3555 36.6856 22.9556C37.3459 20.6866 38.5736 18.9029 40.7267 18.2568C41.0863 18.149 41.2903 17.7701 41.1824 17.4105C41.0746 17.0509 40.6964 16.8469 40.3361 16.9546C33.135 19.115 34.5555 30.8543 35.2385 36.4959C35.3153 37.1309 35.3817 37.6792 35.4218 38.1066C35.4615 38.5283 35.4001 38.9631 35.2446 39.3638L28.6334 56.3922C28.6169 56.435 28.6046 56.4792 28.5969 56.5243L27.1841 64.8447C26.919 66.4071 25.9704 67.7413 24.5818 68.5052L24.0922 68.7744C24.031 68.8077 23.9784 68.7916 23.9453 68.7721C23.912 68.7524 23.8724 68.7143 23.8724 68.6443V65.4837C23.8724 64.9798 23.6467 64.5103 23.2535 64.1957C22.9732 63.9714 22.8049 63.6374 22.791 63.2789L22.687 60.5767C22.6496 59.6151 23.0922 58.7028 23.8703 58.137ZM21.4403 63.423C21.4933 64.1409 21.8391 64.8055 22.4035 65.2576C22.4727 65.3129 22.5121 65.3953 22.5121 65.4839V66.7826C21.7219 66.7765 21.0057 67.0787 20.4084 67.6788C19.8292 68.2577 18.8897 69.0359 17.8118 69.8326L10.1215 69.1578L21.4403 63.423ZM61.5658 78.0189C56.0729 79.1476 44.0869 78.5004 34.4293 77.9792C31.6363 77.8286 28.9978 77.6862 26.7665 77.6004C25.5675 77.5546 24.4692 77.5673 23.4092 77.6403C18.8568 77.953 12.82 77.5385 8.55523 77.1356C8.3164 77.1136 8.25862 76.9392 8.2457 76.8372C8.23482 76.7533 8.23528 76.549 8.47343 76.4626C12.8352 74.881 16.5242 72.4457 18.3615 71.1133C18.3798 71.1024 20.7079 69.3023 21.3712 68.6393C21.7047 68.3046 22.0816 68.1422 22.5125 68.1453V68.6448C22.5125 69.1834 22.7894 69.6688 23.2533 69.9429C23.4921 70.0843 23.7561 70.1548 24.0203 70.1548C24.2694 70.1548 24.5186 70.092 24.7475 69.9663L25.1583 69.7404C25.3097 69.957 25.5032 70.2715 25.7407 70.7326C26.3205 71.8575 27.4889 72.5713 28.737 72.5713C28.7687 72.5713 29.1741 72.559 29.3397 72.5524C34.2848 72.3564 35.9718 71.4897 37.7542 70.5738C38.7177 70.0787 39.7138 69.567 41.3286 69.1027C42.1738 68.8607 43.0745 68.6325 44.0811 68.4052C51.9111 66.6434 56.0019 71.5085 56.183 71.7299C56.4191 72.0215 56.8469 72.0673 57.1385 71.831C57.4306 71.5951 57.4762 71.167 57.2403 70.8749C57.1564 70.7714 56.2244 69.6466 54.4679 68.5852C54.4615 68.5417 54.4534 68.495 54.4432 68.4447C53.4049 63.2907 54.6441 56.9081 55.5431 52.249C55.8487 50.6642 56.1177 49.2647 56.2668 48.1089L71.7237 48.3035C71.7305 48.5047 71.7373 48.7062 71.7435 48.9103C72.1629 61.7469 63.9351 74.9782 61.5658 78.0189Z" fill="#3D493A"/>
</g>
<defs>
<clipPath id="clip0_272_1258">
<rect width="80" height="80" fill="white"/>
</clipPath>
</defs>
</svg>
