<svg width="60" height="61" viewBox="0 0 60 61" fill="none" xmlns="http://www.w3.org/2000/svg">
<path d="M58.4855 51.4899L54.3792 50.4814C54.3588 50.4765 54.338 50.4727 54.3171 50.4706L50.6904 50.0848L48.0816 44.9464C48.0734 44.93 48.064 44.9138 48.0537 44.8986L43.1564 37.5528L41.6883 28.827C41.247 25.9039 39.8285 23.1675 37.6943 21.1222L37.6141 21.0453C37.1995 20.6478 36.6825 20.3921 36.1259 20.2981C35.0409 20.0654 33.8135 20.0175 32.6213 19.9733C32.4031 19.965 32.1874 19.9566 31.9734 19.9475V19.1848C32.3782 19.1654 32.7825 19.0878 33.1643 18.9174C34.6929 18.2356 35.5092 16.1881 35.7368 15.5314L36.8552 14.9893C37.0699 14.8852 37.1723 14.6368 37.0931 14.4118L36.4563 12.6024C36.4781 12.1224 36.559 9.9713 36.3326 8.66208C36.1148 7.40255 35.1122 6.0795 33.9487 5.5163C32.1448 4.64255 29.8767 4.56192 28.1709 5.31052C26.0667 6.23396 24.9438 8.12583 24.6255 10.1431C23.269 10.3425 22.2225 11.5116 22.2225 12.9221C22.2225 14.4729 23.4841 15.7346 25.035 15.7346C25.2778 15.7346 25.5155 15.7004 25.7473 15.6394C26.1291 16.2556 26.5917 16.8008 27.1134 17.2597V20.0082H26.284C26.2631 20.0082 26.2437 20.0143 26.2233 20.0171L26.2226 20.0122L24.6577 20.2184C24.6483 20.2196 24.6391 20.2212 24.6302 20.2229C23.7415 20.3942 22.6948 20.918 21.5189 21.78C19.8129 23.0304 18.3391 24.6209 17.1387 26.5074L14.4396 30.7489L9.76758 33.2293C9.75141 33.2379 9.73594 33.2473 9.72071 33.2579L6.29625 35.626C4.42758 36.9183 2.79399 38.4992 1.44117 40.3247C0.664455 41.3731 0.414611 42.7477 0.772502 44.0018C0.901408 44.453 1.10274 44.8768 1.3711 45.2614L2.99531 47.5878C3.09352 47.7284 3.21563 47.8477 3.35391 47.9424L3.525 48.169C4.4693 49.9273 6.17086 51.1838 7.61696 51.9961L5.70281 52.1853C5.10328 52.2741 4.59844 52.6578 4.35235 53.2116C4.04906 53.8941 4.21078 54.6961 4.75453 55.208L5.27016 55.6932C5.4668 55.8783 5.7075 56.0175 5.96602 56.0961L7.58086 56.5854C7.8743 56.6743 8.17406 56.7186 8.4736 56.7186C8.82 56.7186 9.1657 56.6593 9.49969 56.5409L14.7103 54.6943C15.1362 54.5433 15.5004 54.2475 15.7357 53.8613L16.0441 53.3548C16.2408 53.0323 16.3366 52.6688 16.3305 52.3004L19.2148 54.0221C21.6129 55.4536 24.2363 56.3358 27.0115 56.6443L27.1317 56.6576C27.4106 56.6886 27.6912 56.704 27.9717 56.704C28.9116 56.704 29.8509 56.5313 30.7287 56.1938C33.2166 55.2368 35.0013 53.1029 35.5034 50.4851C35.7778 49.055 35.8802 47.5918 35.8083 46.1358L35.3588 37.062L36.0766 30.2834C36.1709 30.4339 36.2466 30.5963 36.2955 30.7662L38.9578 40.0055C38.974 40.0615 39.0005 40.1138 39.0356 40.1602L49.4365 53.7804C49.5253 53.8967 49.6631 53.9647 49.8091 53.9647H58.1852C58.8773 53.9647 59.4403 53.4015 59.4403 52.7093C59.4415 52.1295 59.0484 51.6282 58.4855 51.4899ZM28.0514 17.9593C28.3723 18.1618 28.7142 18.3509 29.0637 18.5133C29.5458 18.7374 30.2595 19.0137 31.0366 19.133V21.1158C31.0366 21.9387 30.3673 22.6083 29.5441 22.6083C28.721 22.6083 28.0514 21.9387 28.0514 21.1158V17.9593ZM28.5483 6.16903C29.2116 5.87794 29.9761 5.73403 30.7596 5.73403C31.7072 5.73403 32.6829 5.9445 33.5409 6.36005C33.892 6.52997 34.2326 6.80442 34.5267 7.13208C32.6775 7.79466 27.634 9.66146 25.4754 11.0572C25.5638 9.05067 26.5113 7.06294 28.5483 6.16903ZM25.0352 14.7971C24.0014 14.7971 23.1602 13.9559 23.1602 12.9221C23.1602 12.0626 23.7431 11.3377 24.5337 11.1176C24.5091 11.8908 24.596 12.6629 24.7859 13.3873C24.9129 13.8715 25.0854 14.3351 25.29 14.7779C25.2061 14.7891 25.1213 14.7971 25.0352 14.7971ZM25.6929 13.1494C25.6106 12.8356 25.5506 12.5117 25.5127 12.1829C26.8336 11.0108 32.5181 8.84044 35.0871 7.92731C35.2451 8.22239 35.3585 8.52825 35.4094 8.82169C35.6419 10.1668 35.5174 12.6223 35.5163 12.6469C35.513 12.7081 35.5216 12.769 35.542 12.8269L36.0703 14.3279L35.1495 14.7741C35.0309 14.8315 34.942 14.9361 34.9045 15.0624C34.7088 15.7205 33.9464 17.5418 32.783 18.0608C31.9814 18.4179 30.7702 18.2729 29.4586 17.6633C28.878 17.3933 28.3172 17.0471 27.8794 16.6883C26.8458 15.8408 26.0693 14.584 25.6929 13.1494ZM27.1139 20.9457V21.1158C27.1139 22.4558 28.204 23.5458 29.5441 23.5458C30.8841 23.5458 31.9741 22.4558 31.9741 21.1158V20.8857C32.1764 20.8943 32.3808 20.9021 32.5868 20.9098C32.9831 20.9246 33.3832 20.9403 33.7791 20.9623C33.5911 21.1275 33.4216 21.3169 33.2798 21.5318C32.0719 23.3633 32.231 25.8012 33.6673 27.4599L35.2409 29.2777L34.4234 36.9987C34.4208 37.0229 34.4201 37.047 34.4215 37.0714L34.6167 41.0117C33.5105 41.0872 32.0358 41.0689 30.6176 40.6819C28.3997 40.0772 25.8105 38.9562 25.0003 38.5953C24.908 36.8558 24.3851 35.1664 23.4656 33.679C22.6905 32.4251 22.4463 30.8848 22.7955 29.4528C22.9359 28.8772 23.1663 28.3308 23.4799 27.829C23.4909 27.811 23.501 27.7925 23.5097 27.7733L26.587 20.9457H27.1139ZM6.22383 39.8159L10.3024 38.7239C10.5401 38.6604 10.7754 38.5875 11.01 38.5128C10.8244 39.2035 10.8668 39.9385 11.1391 40.6034L11.4457 41.352L9.41531 40.6566C8.39672 40.3079 7.31742 40.2207 6.26227 40.3934L6.22383 39.8159ZM12.6239 41.7558L12.1584 40.6189C12.81 40.8905 13.7667 41.2707 14.9503 41.6883C15.1772 42.0481 15.4573 42.4414 15.7964 42.8424L12.6239 41.7558ZM17.9065 43.5652C15.7702 41.9318 15.015 39.7486 15.0075 39.7266L14.5631 39.8752L14.1183 40.0231C14.1263 40.0472 14.1797 40.2036 14.288 40.4501C13.0978 40.005 12.2318 39.635 11.8355 39.4601C11.8238 39.1784 11.862 38.8946 11.9527 38.6232C11.9951 38.4959 12.1741 38.2599 12.2927 38.1036C12.3183 38.07 12.3382 38.0424 12.3612 38.0112C13.0369 37.7267 13.6955 37.3993 14.3283 37.0247C14.6278 37.0376 14.9201 37.0997 15.1983 37.216L20.8076 39.5583C21.3309 39.7768 22.2799 40.2861 22.5579 40.4368C22.6434 40.4834 22.7276 40.5324 22.8101 40.584L24.0825 41.3787V45.0343L19.4135 44.0815L17.9065 43.5652ZM24.0823 40.2732L23.3063 39.7885C23.2076 39.7268 23.1073 39.6683 23.0046 39.6127C22.6352 39.4125 21.717 38.9222 21.1685 38.6932L15.5595 36.3511C15.5177 36.3338 15.4748 36.3211 15.4327 36.3052C15.8339 36.0214 16.2258 35.724 16.5998 35.4043L21.7071 30.5843C21.6743 31.839 22.0036 33.0959 22.669 34.1722C23.5938 35.6682 24.0827 37.3887 24.0827 39.1477V40.2732H24.0823ZM2.14078 44.7242C1.93195 44.4251 1.77516 44.0954 1.67508 43.744C1.39641 42.7679 1.5907 41.6982 2.19539 40.8825C3.4868 39.1397 5.04633 37.6306 6.83039 36.3966L10.2323 34.044L14.9892 31.5186C15.0607 31.4806 15.1212 31.4246 15.165 31.3561L17.9306 27.0104C19.0683 25.2225 20.4623 23.7172 22.0741 22.5359C23.1312 21.7611 24.0469 21.2935 24.7955 21.1456L25.5117 21.0511L22.668 27.3596C22.3359 27.897 22.0891 28.4787 21.9255 29.0886L15.9731 34.7068C14.2695 36.1625 12.2248 37.2385 10.0598 37.8181L5.60906 39.0097C5.39274 39.0675 5.24766 39.2703 5.26242 39.4936L5.52516 43.4332L4.21102 42.9814C4.04274 42.9237 3.85688 42.9659 3.73031 43.0904C3.60352 43.2148 3.55805 43.4002 3.61289 43.569L4.60477 46.6334C4.64977 46.7729 4.62891 46.9226 4.54688 47.044C4.46485 47.1657 4.33406 47.2414 4.18781 47.2522C4.02211 47.2629 3.85992 47.187 3.765 47.0506L2.14078 44.7242ZM15.2445 52.8666L14.936 53.3731C14.8125 53.5756 14.6215 53.7307 14.3981 53.81L9.1875 55.6568C8.75485 55.8101 8.2936 55.8209 7.85391 55.6878L6.23906 55.1984C6.11813 55.1618 6.00563 55.0967 5.91375 55.0102L5.39813 54.5248C5.14406 54.2855 5.0686 53.9107 5.21016 53.5918C5.32524 53.333 5.56125 53.1537 5.8186 53.115L9.91711 52.7103C10.3528 52.6674 10.7815 52.5675 11.1916 52.4136L13.9973 51.3598C14.2941 51.2485 14.6198 51.2778 14.8913 51.44C15.1301 51.5825 15.2984 51.8098 15.3652 52.0796C15.432 52.3498 15.3891 52.6292 15.2445 52.8666ZM10.8621 51.5358C10.5284 51.6612 10.1794 51.7423 9.825 51.7775L9.36141 51.8232C8.53734 51.4566 7.38164 50.8561 6.3286 50.0072C7.16485 50.1558 8.14219 50.3011 8.76399 50.3011C9.81281 50.3011 11.359 49.8404 11.9149 49.6632L13.4339 50.57L10.8621 51.5358ZM34.5839 50.3079C34.1433 52.6055 32.5767 54.4784 30.3933 55.3182C29.3932 55.7028 28.302 55.8443 27.2365 55.7253L27.1163 55.7119C24.4748 55.4185 21.9785 54.5789 19.6962 53.2168L15.3724 50.6358C15.3722 50.6356 15.372 50.6356 15.3717 50.6354C15.3715 50.6351 15.3713 50.6351 15.371 50.6349L10.2281 47.5648L9.74766 48.3699L10.8164 49.0079C10.1747 49.1806 9.35602 49.3639 8.76375 49.3639C7.77985 49.3639 5.67727 48.9347 5.09508 48.8119C4.91203 48.593 4.74117 48.3636 4.58695 48.1229C4.88508 48.0272 5.14453 47.8353 5.3243 47.5681C5.56828 47.2062 5.6311 46.7602 5.49656 46.3451L4.79367 44.1734L5.535 44.4282C5.76258 44.5067 6.01242 44.4659 6.20344 44.3197C6.39445 44.1734 6.49899 43.943 6.48281 43.7032L6.32485 41.3321C7.25555 41.164 8.2111 41.2355 9.1118 41.5439L19.1379 44.9782C19.1569 44.9848 19.1763 44.99 19.196 44.9939L23.9341 45.9607C24.918 46.1614 25.8607 46.5129 26.7363 47.0054L27.9947 47.7132L28.4543 46.8961L27.1959 46.1883C26.5052 45.8 25.7761 45.4929 25.0198 45.2684V39.6291C26.1129 40.1054 28.357 41.0372 30.3713 41.5866C31.4791 41.8887 32.6098 41.9846 33.5981 41.9846C33.9785 41.9846 34.3348 41.9696 34.6636 41.9475L34.8734 46.182C34.9413 47.5627 34.8441 48.9509 34.5839 50.3079ZM58.1864 53.0267H50.0421L39.8353 39.6608L37.1974 30.5063C37.0847 30.1137 36.8834 29.7429 36.6159 29.4338L34.376 26.8463C33.2138 25.5036 33.0848 23.5306 34.0627 22.0479C34.4156 21.5126 35.0091 21.1932 35.6501 21.1932C35.7492 21.1932 35.8467 21.2028 35.943 21.2178C36.0361 21.2379 36.1294 21.2579 36.2189 21.2811C36.4957 21.3678 36.7514 21.5164 36.9659 21.7219L37.046 21.7988C39.0316 23.7017 40.3512 26.2472 40.7627 28.9744L42.2487 37.8068C42.2597 37.872 42.2843 37.9341 42.3211 37.989L47.2584 45.3952L49.9697 50.7359C50.0416 50.8775 50.1802 50.9731 50.3379 50.9897L54.1863 51.3992L58.2619 52.4002C58.4041 52.4351 58.5038 52.5622 58.5038 52.7089C58.504 52.8842 58.3615 53.0267 58.1864 53.0267Z" fill="#1E1E1E"/>
</svg>
