<svg width="80" height="80" viewBox="0 0 80 80" fill="none" xmlns="http://www.w3.org/2000/svg">
<g clip-path="url(#clip0_99_381)">
<path d="M78.2966 61.5424C72.5022 49.2684 68.9851 36.8879 67.7413 32.1332C67.5165 31.2739 67.1359 30.4616 66.6285 29.7339L66.6223 26.8634C66.6191 25.4374 65.9267 24.0934 64.7702 23.268C64.127 22.809 63.487 22.3311 62.8673 21.8458C54.1813 9.19208 48.9024 5.96718 48.6813 5.83588C48.6186 5.7987 48.55 5.77227 48.4785 5.75809C48.2979 5.72112 47.3376 5.61905 46.0201 7.09386C43.3483 9.78647 37.9919 21.2145 37.5436 24.0541C37.2215 26.0945 34.0761 30.7558 32.8104 32.5301C32.7749 32.54 32.7408 32.5495 32.7051 32.5596C29.5988 33.4331 25.6669 35.4742 24.8086 38.3507C24.3713 39.8163 24.75 41.2885 25.9338 42.7294C25.9596 44.7704 26.3122 49.1136 27.4941 53.7753C27.3171 54.0379 27.1495 54.2876 26.9937 54.5204C26.4072 55.3965 25.5872 56.1119 24.6215 56.5889C23.5906 57.0984 22.704 57.6907 21.9858 58.3489C21.4357 58.8532 20.5845 59.7711 19.5985 60.8339C19.2113 61.2515 18.7978 61.6971 18.3691 62.1542C17.62 62.1497 15.545 62.1729 13.3456 62.5038C9.53187 63.0776 7.31718 64.2821 6.76276 66.0842C6.24078 67.7801 6.26077 69.0897 6.82228 69.9763C6.8485 70.0178 6.87643 70.0552 6.90394 70.0932C4.86589 70.7815 2.67871 71.389 0.818812 71.8156C0.305217 71.9334 -0.0375374 72.4003 0.00329232 72.9255C0.0443369 73.4514 0.456072 73.8599 0.982131 73.8964C3.38249 74.0649 7.14097 74.1861 7.23101 74.1861C8.92845 74.1861 10.604 73.7576 12.0934 72.9401C12.1394 72.915 12.1879 72.8881 12.2346 72.8623C13.68 73.3774 15.1885 73.6418 16.7256 73.6418C16.7439 73.6418 47.7308 73.5175 47.7308 73.5175C48.3609 73.515 48.916 73.1578 49.1794 72.5856C49.1837 72.5763 49.1861 72.5666 49.19 72.5574C61.2115 74.0428 68.4665 74.2607 72.5517 74.2607C73.572 74.2607 74.3952 74.2469 75.0453 74.2364C75.1192 74.2351 75.1908 74.234 75.2595 74.2329C75.9412 74.222 76.6133 74.035 77.1852 73.6637C78.3587 72.9017 79.1744 71.8504 79.616 70.5273C80.923 66.6126 78.4904 61.9069 78.2966 61.5424ZM73.5814 53.9247C71.6745 53.7289 69.5223 54.5932 68.3127 55.1842C68.0737 51.7409 66.5336 44.5594 66.4601 44.2184C66.4195 44.0295 66.2959 43.8687 66.124 43.7804L63.0351 42.1964C62.5318 41.9386 62.1998 41.4417 62.1594 40.8639C62.1298 40.4384 62.2869 40.0204 62.558 39.6912L63.4389 38.6221C64.4027 37.4514 64.6919 35.8936 64.2125 34.4547L63.9241 33.5902C63.7288 33.0046 63.6798 32.3803 63.7812 31.7713L64.2478 28.9721L64.9734 29.7339C65.7019 30.4987 66.2276 31.441 66.4938 32.4592C67.4686 36.1857 69.8307 44.5628 73.5814 53.9247ZM26.4354 66.8419C25.7376 66.4931 24.748 66.1622 23.4847 65.8536C24.7347 64.9468 25.9271 64.015 26.9943 63.0823L30.8574 62.2969C31.2954 63.0149 31.7572 63.6688 32.2403 64.2516C33.3491 65.5815 35.3261 67.7812 36.1638 68.7085C33.9414 68.5316 28.7659 68.009 26.4354 66.8419ZM29.9848 60.7134C30.0527 60.849 30.1204 60.985 30.1895 61.1169L29.2206 61.314C29.5165 61.1171 29.7696 60.9151 29.9848 60.7134ZM32.9537 63.0772C32.2007 62.1046 31.5032 60.9343 30.8733 59.5908C31.0309 59.3041 31.1203 59.0567 31.1695 58.882C32.1345 58.0205 36.9978 53.6455 40.562 49.8224C40.3929 50.172 40.256 50.4683 40.1612 50.7058C39.8812 51.4055 39.9322 52.1604 40.3082 52.8885C40.6793 53.6071 41.3732 54.3018 42.3057 54.9291C41.2138 56.536 37.6433 61.3421 32.9537 63.0772ZM41.4538 52.2969C41.249 51.8999 41.2176 51.5361 41.3586 51.1844C41.5211 50.7776 41.8464 50.1264 42.2586 49.3017C42.842 48.1346 43.5679 46.6826 44.2498 45.0896C44.2648 45.0567 44.3276 44.9058 44.3433 44.8639C44.5769 44.3114 44.8188 43.7789 45.0528 43.2638C45.6784 41.887 46.2453 40.6361 46.5017 39.3723C47.0713 40.1051 47.8355 40.8465 48.8423 41.4031C50.2449 42.1784 51.8359 42.4322 53.589 42.1681C53.0847 43.3631 52.5466 45.2185 52.5466 47.7044C52.5466 52.267 55.1051 56.5522 55.2141 56.7325C55.3321 56.9276 55.5424 57.0436 55.7655 57.0436C55.7999 57.0436 55.8345 57.0408 55.8691 57.0352C56.1289 56.9931 56.3369 56.7974 56.3945 56.5406C56.4531 56.2795 57.831 50.117 57.651 47.3081C57.5199 45.2741 56.5344 42.8265 55.9509 41.5335C58.3799 40.6092 60.053 39.1151 60.9242 37.0848C62.1667 34.188 61.4051 31.0269 60.829 29.7601C60.0685 28.0868 55.6993 23.233 50.365 22.2176C49.6167 22.0749 48.8438 22.3077 48.2986 22.8395C47.8695 23.2579 47.4311 23.6999 46.9667 24.1676C46.2158 24.9242 45.4203 25.7253 44.5867 26.5037L44.5743 25.8235C44.5629 25.251 44.6544 24.6867 44.847 24.145C46.6886 18.9313 48.4568 15.0004 49.5181 13.7104C54.1637 17.816 57.7103 22.0766 58.3472 22.8556L58.5799 24.1667C58.7145 24.9317 59.0832 25.6181 59.6456 26.1512L62.8963 29.2403L62.5099 31.559C62.3739 32.3754 62.4396 33.2126 62.7014 33.9976L62.9898 34.8624C63.3261 35.8708 63.1198 36.9814 62.4439 37.8021L61.53 38.9114C60.9261 39.6448 60.7177 40.6155 60.9747 41.5408C61.1978 42.3436 61.7778 43.0004 62.5194 43.3805L65.2631 44.7874C65.6012 46.3924 67.1716 53.9982 67.0491 56.209C66.9369 58.2266 67.2616 61.2727 68.4242 64.027L53.4068 60.5625C52.9598 59.5574 51.3752 56.6628 47.6442 55.7611C44.6364 55.035 42.1486 53.6425 41.4538 52.2969ZM38.7565 35.0386C34.9746 35.4533 33.728 34.754 33.3214 34.2929C33.1662 34.1169 33.1029 33.9392 33.0788 33.7935C33.5896 33.6499 34.0617 33.5199 34.502 33.3987C37.6702 32.5265 39.2604 32.0885 41.9769 30.278C44.1683 28.8174 46.1411 26.8299 47.8817 25.0766C48.3424 24.6124 48.7776 24.174 49.1994 23.7625C49.4429 23.525 49.7865 23.4208 50.1207 23.4844C55.0488 24.4205 59.0561 28.9758 59.6555 30.2944C60.0535 31.1688 60.8441 34.0024 59.7395 36.577C58.9743 38.361 57.4339 39.6644 55.1621 40.4509C52.9757 41.2069 51.066 41.1512 49.485 40.2852C47.8443 39.3863 46.9553 37.8633 46.5582 36.9924C46.5055 36.877 46.2655 36.3054 46.1815 36.1062C46.1696 36.078 46.1574 36.0509 46.1436 36.0236C45.7506 35.2354 45.1753 34.5609 44.4557 34.072C43.4656 33.3991 42.4458 33.1684 41.4214 33.3878C40.5055 33.5835 39.6141 34.1369 38.7565 35.0386ZM54.9085 42.3662C55.4438 43.5963 56.2557 45.7044 56.3642 47.3913C56.4759 49.1295 55.9069 52.4284 55.5063 54.4754C54.7824 52.8857 53.836 50.3091 53.836 47.7046C53.836 45.1867 54.4261 43.4033 54.9085 42.3662ZM38.8173 24.2548C39.2284 21.6518 44.4355 10.5016 46.9454 7.99169C46.9544 7.98288 46.963 7.97363 46.9714 7.96418C47.5772 7.28254 47.9988 7.09816 48.1813 7.04809C49.124 7.68998 54.1645 11.4285 61.8599 22.6564C61.8968 22.7104 61.9419 22.7585 61.9933 22.7989C62.6528 23.3168 63.3351 23.8278 64.021 24.3173C64.8402 24.9018 65.3306 25.8547 65.333 26.866L65.336 28.2449L65.0708 27.9667C64.7151 27.5932 64.1674 27.4825 63.6856 27.7036C63.5689 27.7571 63.4662 27.8313 63.3757 27.9177L60.5329 25.2162C60.1721 24.8741 59.9359 24.434 59.8495 23.9423L59.5874 22.4662C59.5685 22.3603 59.5233 22.2606 59.4561 22.1764C59.4157 22.1259 55.3469 17.0602 49.92 12.3486C49.695 12.1531 49.3651 12.1376 49.1227 12.3108C48.3921 12.8328 46.7069 15.0084 43.6311 23.7143C43.3866 24.4022 43.2701 25.1206 43.2849 25.8484L43.3178 27.6361C42.6523 28.2015 41.9663 28.7349 41.2615 29.2046C38.9112 30.7712 37.5099 31.2268 34.8416 31.9667C36.1537 30.0206 38.49 26.3266 38.8173 24.2548ZM27.2217 42.4911C27.2217 42.3353 27.1654 42.1848 27.0631 42.0675C26.0655 40.9228 25.7228 39.7961 26.0443 38.719C26.6195 36.791 29.2064 35.1441 31.8481 34.1885C31.9237 34.4878 32.0677 34.8063 32.32 35.1052C33.0766 36.0017 34.5424 36.4524 36.6911 36.4524C36.9967 36.4524 37.3195 36.441 37.6526 36.4227C37.5153 36.6228 37.3788 36.8301 37.2438 37.0493C36.3428 38.5115 35.6485 40.1762 35.1804 41.9975C34.9337 42.958 34.3385 44.7631 33.125 46.0632C32.0421 47.2237 30.089 49.9751 28.4747 52.3323C27.6164 48.5448 27.2217 44.6853 27.2217 42.4911ZM7.89481 69.2586C7.57226 68.714 7.60793 67.7212 7.99517 66.4626C8.68326 64.2266 13.9771 63.5747 17.1255 63.4608C16.7426 63.8568 16.3552 64.2511 15.9677 64.6341C15.0557 64.535 14.4779 64.4875 14.4512 64.4854C14.0973 64.4568 13.7852 64.7205 13.7562 65.0757C13.7274 65.4305 13.9915 65.7416 14.3466 65.7704C14.3498 65.7707 14.4912 65.7823 14.7398 65.8057C13.8807 66.5939 13.0557 67.2755 12.3336 67.735C11.3473 68.3627 9.8974 69.008 8.2655 69.6121C8.16214 69.5616 8.01386 69.4599 7.89481 69.2586ZM6.99549 72.8931C5.91199 72.8641 4.36283 72.8095 2.60608 72.708C6.40088 71.738 10.7593 70.2651 13.0256 68.823C15.2745 67.3918 18.3199 64.1082 20.5439 61.7102C21.5104 60.6678 22.3455 59.7678 22.857 59.2989C23.4851 58.7228 24.2712 58.2 25.1926 57.7444C26.3602 57.1674 27.3534 56.3003 28.0649 55.237C29.7103 52.7782 32.678 48.4311 34.0669 46.9428C35.405 45.5092 36.0899 43.6367 36.4285 42.3183C36.8643 40.6221 37.5075 39.0771 38.3407 37.7256C39.4373 35.9469 40.5955 34.8828 41.6906 34.6483C42.3654 34.5048 43.0326 34.664 43.7304 35.1381C44.5051 35.6643 45.064 36.4814 45.3041 37.4389C45.3225 37.5124 45.3365 37.5709 45.3408 37.5997C45.4755 39.2152 44.7355 40.8441 43.8782 42.7305C43.6386 43.2582 43.0522 44.609 43.0447 44.6269C41.7336 47.4201 33.362 55.2121 30.159 58.0545C30.0396 58.1604 29.9652 58.2954 29.9476 58.454C29.9398 58.5058 29.7355 59.7309 27.7331 60.6758C27.6661 60.7073 27.6048 60.7505 27.5524 60.803C25.9448 62.4104 23.8313 64.0595 21.5992 65.6123C21.5713 65.6286 21.5453 65.6469 21.5199 65.6671C17.9312 68.1573 14.0483 70.3954 11.4724 71.8089C10.105 72.5602 8.55754 72.9343 6.99549 72.8931ZM16.7748 72.3518C16.7585 72.3518 16.7422 72.3518 16.7256 72.3518C15.7324 72.3518 14.7525 72.2284 13.7966 71.9894C16.1961 70.629 19.2076 68.8273 22.0664 66.8557C23.7574 67.2068 25.0192 67.5839 25.8203 67.9767C25.1028 68.8726 24.0017 70.5273 23.911 72.323L16.7748 72.3518ZM48.0083 72.0457C47.9831 72.1001 47.9053 72.2269 47.7257 72.2278L25.2023 72.318C25.3128 70.6977 26.5265 69.1221 27.0755 68.4869C30.7042 69.7045 36.8512 70.0537 37.1424 70.0696C37.2862 70.0782 37.4246 70.0384 37.5417 69.9578C38.4986 69.3031 40.1591 68.5628 40.6587 68.9377C40.7509 69.0067 40.8599 69.0501 40.9742 69.0628C41.8193 69.1576 43.4515 69.0304 44.6714 68.907C45.1985 68.8546 45.7143 69.063 46.056 69.466L47.9627 71.7127C48.079 71.8498 48.0332 71.9912 48.0083 72.0457ZM78.3933 70.1184C78.0914 71.0233 77.5617 71.769 76.813 72.3462C76.3054 72.7375 75.6751 72.9363 75.0343 72.9466C75.0311 72.9466 75.0279 72.9466 75.0246 72.9468C71.786 73.0001 64.2284 73.1234 49.1861 71.2573C49.1251 71.1232 49.0453 70.9956 48.9459 70.8785L47.0391 68.6317C46.4228 67.9054 45.491 67.5268 44.542 67.6245C43.0326 67.7767 41.8804 67.8356 41.2621 67.7943C40.5925 67.4101 39.6395 67.4825 38.4249 68.0105C38.1305 68.1386 37.8552 68.2787 37.6173 68.4089C37.5838 68.3661 35.3089 65.851 33.8215 64.1218C38.7642 62.1009 42.3411 57.2057 43.4207 55.5873C44.5358 56.1666 45.8684 56.659 47.341 57.0146C51.0851 57.9193 52.2784 61.1896 52.3266 61.3264C52.3992 61.5364 52.5745 61.6939 52.7907 61.7436L69.1619 65.5205C69.2047 65.5951 69.2442 65.6714 69.2885 65.7449L71.0076 68.6102C71.2124 68.9519 71.6839 69.0351 71.9957 68.7547C72.2276 68.546 72.2605 68.1925 72.0999 67.925L70.3941 65.0815C68.7577 62.3543 68.2598 58.908 68.3232 56.6261C69.6007 55.9234 72.3896 54.7292 74.1653 55.3608C75.0797 57.5815 76.0699 59.8458 77.1377 62.1072C77.1424 62.1175 77.1478 62.1276 77.1529 62.1377C77.9867 63.686 79.3189 67.346 78.3933 70.1184Z" fill="#3D493A"/>
</g>
<defs>
<clipPath id="clip0_99_381">
<rect width="80" height="80" fill="white"/>
</clipPath>
</defs>
</svg>
