<svg width="60" height="61" viewBox="0 0 60 61" fill="none" xmlns="http://www.w3.org/2000/svg">
<g clip-path="url(#clip0_250_268)">
<path d="M50.3946 50.7625C51.4038 50.5202 52.26 49.81 52.6847 48.8629L53.0452 48.0592C53.5706 46.8874 53.3726 45.4978 52.5405 44.5192C52.2136 44.1349 51.7964 43.8246 51.334 43.6218L50.0236 43.0476C48.3743 42.3248 46.6516 41.8467 44.8828 41.6135L43.144 31.4219C43.1372 31.3776 43.1316 31.3331 43.1271 31.2885L42.9298 29.3151C42.6898 26.9144 42.2248 24.5226 41.5477 22.206L41.2945 21.34C41.0974 20.6653 40.725 20.0519 40.2176 19.5656C39.552 18.9281 38.6688 18.5976 37.7677 18.6313L34.0205 16.908C34.1088 16.7781 34.1958 16.6453 34.2806 16.506C35.2763 14.8689 35.8559 12.8193 35.8312 11.0226C35.8069 9.24744 35.1921 7.58338 34.1004 6.33697C33.9429 6.1572 33.7777 5.9908 33.6063 5.83494C33.6438 5.66431 33.678 5.47869 33.6755 5.28369C33.6473 3.24439 31.9664 1.60306 29.9257 1.63611C27.8864 1.66447 26.2502 3.34658 26.2781 5.38564C26.2812 5.59588 26.3243 5.77095 26.3695 5.92775C26.2003 6.09041 26.037 6.26361 25.8825 6.45041C24.8257 7.72635 24.2569 9.40658 24.2812 11.182C24.3061 12.9785 24.942 15.0117 25.9823 16.6206C26.0423 16.7132 26.1035 16.8023 26.1649 16.8906L22.1674 18.6313C21.2646 18.5964 20.3794 18.9267 19.7126 19.5653C19.2052 20.0517 18.8327 20.665 18.6356 21.3396L18.3823 22.2058C17.7052 24.5224 17.2402 26.9142 17.0002 29.3149L16.803 31.2876C16.7984 31.3324 16.7927 31.3771 16.7869 31.4156L15.1847 40.9506C13.672 41.0838 12.1875 41.527 10.8495 42.2728C10.0151 42.7375 9.41016 43.5374 9.19008 44.4672C8.89102 45.7303 9.34734 47.0765 10.3528 47.8975C11.3205 48.6874 12.402 49.3038 13.5565 49.7301L13.3545 55.7641C13.3542 55.7742 13.3542 55.7842 13.3545 55.7943C13.3566 55.8635 13.3348 55.9129 13.3247 55.9246L12.0152 57.4364C11.7295 57.7663 11.6196 58.2632 11.7281 58.7329C11.8219 59.1391 12.0638 59.4522 12.3912 59.5919L13.7245 60.1605C13.8405 60.2097 13.9643 60.2346 14.0831 60.2346C14.1227 60.2346 14.1616 60.2317 14.1998 60.2263L17.3381 59.8528C17.6529 59.8068 17.9302 59.5982 18.0989 59.2811C18.3023 58.8984 18.3272 58.4247 18.1704 58.0185L18.9614 57.8964C19.3134 57.8428 19.5937 57.5493 19.6589 57.1668C19.7468 56.6503 19.4587 56.159 19.0167 56.0716L17.0177 55.676C17.013 55.6628 17.0084 55.6453 17.0062 55.6232L17.862 52.116C19.1609 52.8163 20.5671 53.4431 21.5958 53.5485C23.8362 53.7794 29.153 52.5246 30.0705 52.3021C30.9152 52.5635 35.5676 53.9732 37.6233 53.9732C38.6025 53.9732 40.579 53.4752 42.5116 52.9082L43.2973 55.631C43.2949 55.6495 43.2909 55.6647 43.2867 55.676L41.288 56.0716C40.8459 56.159 40.5577 56.6503 40.6455 57.1668C40.7107 57.5496 40.991 57.8428 41.3426 57.8964L42.1338 58.0185C41.977 58.4245 42.0019 58.8984 42.2053 59.2811C42.3741 59.5985 42.6513 59.8068 42.9785 59.8544L46.0931 60.2247C46.1355 60.2308 46.1782 60.2338 46.2206 60.2338C46.343 60.2338 46.4651 60.209 46.5804 60.1603L47.913 59.5919C48.2405 59.4522 48.4823 59.1391 48.5761 58.7329C48.6846 58.2632 48.5747 57.7663 48.2887 57.4364L46.9795 55.9249C46.9692 55.9129 46.9472 55.8635 46.9495 55.7943C46.95 55.7774 46.9495 55.7601 46.9484 55.743L46.6226 51.6049C47.0862 51.4485 47.4005 51.3393 47.5022 51.3039C48.4741 51.1703 49.4402 50.9917 50.3946 50.7625ZM17.512 49.5262C16.8129 47.5378 16.9753 45.3527 17.9737 43.4852L18.0452 43.3516C21.8332 42.9154 32.9257 44.2469 33.0441 44.2614C33.1767 44.2776 33.3108 44.2359 33.4113 44.1471C33.5116 44.058 33.5691 43.9303 33.5691 43.7962V42.9796C33.5691 42.7202 33.6844 42.4767 33.8855 42.3124C34.0509 42.1769 34.2584 42.1078 34.4733 42.1185L37.2584 42.2545C37.3835 42.2587 37.5045 42.2167 37.5966 42.1328L40.8108 39.2109C40.9268 39.1054 41.0749 39.0517 41.2331 39.0592L42.2152 39.1059C42.3131 39.1106 42.4095 39.1401 42.4931 39.191C42.6534 39.2892 42.7549 39.4525 42.7716 39.6396C42.7882 39.8266 42.717 40.0054 42.5763 40.1299L40.4672 41.9995C40.257 42.186 40.023 42.3461 39.7727 42.4753L35.0564 44.9071C35.048 44.9113 35.04 44.9158 35.032 44.9207L33.1395 46.0446C31.0268 47.2989 28.7337 48.1792 26.3243 48.6614L24.3023 49.0656C22.0652 49.5131 19.7859 49.6673 17.512 49.5262ZM18.2852 41.1208C18.2252 40.6549 18.4788 40.1924 18.9216 40.0045C19.1309 39.9152 19.3673 39.896 19.5891 39.9499L19.9875 40.0467C20.7916 40.2419 21.487 40.7285 21.9462 41.4171L22.0976 41.6444C22.1681 41.7501 22.2785 41.8228 22.4037 41.8455L23.6201 42.0667C24.0234 42.1401 24.4041 42.299 24.7395 42.5254C23.6756 42.4516 22.6137 42.3921 21.623 42.359L19.1796 41.3411C19.163 41.3343 19.1461 41.3282 19.129 41.3235C18.8503 41.2431 18.5684 41.1778 18.2852 41.1208ZM22.1006 34.7817L22.2846 35.2492C22.7524 36.4373 22.8945 37.732 22.6955 38.9931L22.4524 40.5344C22.1496 40.1713 21.7901 39.865 21.3891 39.6238L22.1006 34.7817ZM23.5591 39.535H37.0538L37.3495 41.0906L37.1098 41.3085L34.519 41.182C34.0725 41.1606 33.6373 41.3041 33.2918 41.587C32.8723 41.9301 32.6316 42.4378 32.6316 42.9796V43.2691C31.5466 43.1435 28.9732 42.8578 26.1923 42.6344C25.6085 41.8586 24.747 41.3186 23.7879 41.1442L23.3189 41.0589L23.5591 39.535ZM37.8984 38.9578C37.7055 37.9429 37.7388 36.8915 37.992 35.8912L38.5901 39.963L38.1633 40.3509L37.8984 38.9578ZM33.6178 46.8506L35.4984 45.7338L36.4671 45.2343L37.1679 45.1455C39.4263 44.8584 41.7457 44.9847 43.9662 45.505C43.3087 47.1456 43.3298 49.0108 44.0358 50.6381C43.8497 50.6418 43.6636 50.6465 43.4777 50.6467L40.1412 50.6498C40.132 50.6498 40.1231 50.6498 40.1142 50.6498C37.9774 50.6498 35.8376 50.4105 33.7542 49.9387L29.1241 48.8899C30.6881 48.3768 32.1928 47.6967 33.6178 46.8506ZM50.9573 44.4806C51.2902 44.6264 51.5909 44.8499 51.8262 45.1267C52.4252 45.8313 52.568 46.8316 52.1897 47.6756L51.8292 48.4792C51.5224 49.1631 50.9044 49.6757 50.1755 49.8513C48.4941 50.2549 46.7756 50.5049 45.0487 50.601L44.9737 50.4435C44.2718 48.9686 44.2434 47.2394 44.88 45.7441C45.1327 45.8167 45.3844 45.8927 45.6338 45.9759L46.9418 46.4118L47.2383 45.5224L45.9302 45.0864C43.6181 44.316 41.1537 43.9734 38.7145 44.0758L40.2021 43.3087C40.5218 43.1439 40.8204 42.9395 41.089 42.7012L41.4837 42.3513L42.9035 42.392C45.2381 42.4591 47.5069 42.9686 49.6467 43.9063L50.9573 44.4806ZM42.9307 41.455L42.5086 41.4428L43.1981 40.8318C43.4344 40.6223 43.5938 40.3537 43.6662 40.0588L43.9137 41.5099C43.5874 41.4836 43.2598 41.4644 42.9307 41.455ZM39.5681 20.2424C39.9572 20.6153 40.2427 21.0857 40.3938 21.603L40.6472 22.4692C41.3081 24.73 41.7619 27.0649 41.9963 29.4084L42.1936 31.3816C42.1997 31.443 42.2077 31.5037 42.218 31.5721L43.4604 38.8549C43.339 38.6704 43.178 38.5115 42.9816 38.3913C42.7638 38.2586 42.5142 38.1817 42.2595 38.1696L41.2777 38.1229C40.8724 38.1042 40.4815 38.2436 40.1798 38.5176L39.4256 39.2031L38.295 31.5065C38.0313 29.7124 37.5684 27.9442 36.9188 26.2513L35.6198 22.8663C35.407 22.3117 35.4047 21.6998 35.6133 21.1434C35.9009 20.3765 36.5494 19.81 37.3481 19.6281C38.1469 19.4453 38.9768 19.6757 39.5681 20.2424ZM29.9377 2.57314C31.4227 2.5483 32.6445 3.70939 32.7291 5.17424C31.8855 4.65908 30.9398 4.39213 29.9632 4.40431C28.984 4.41791 28.0472 4.71064 27.2194 5.24877C27.2644 3.78299 28.4571 2.59377 29.9377 2.57314ZM26.6037 7.04806C27.5006 5.96525 28.6983 5.35939 29.9761 5.34181C29.9953 5.34158 30.0143 5.34135 30.0335 5.34135C31.29 5.34135 32.4816 5.91275 33.3942 6.95455C34.2827 7.96892 34.8002 9.31189 34.8776 10.7587C33.7416 9.9072 31.5795 8.46369 29.9759 8.46369C28.3842 8.46369 26.3278 9.87416 25.2302 10.7266C25.2989 9.34025 25.7761 8.04697 26.6037 7.04806ZM25.267 11.9006C26.2352 11.0795 28.5164 9.40119 29.9756 9.40119C31.4381 9.40119 33.8276 11.0941 34.8476 11.9214C34.7098 13.3134 34.2253 14.7904 33.4786 16.0185C32.5383 17.5647 31.3275 18.4607 30.1568 18.4767C28.9877 18.4989 27.7514 17.6308 26.7687 16.1109C25.9598 14.8598 25.4227 13.3326 25.267 11.9006ZM31.7859 19.0005C31.564 19.7135 30.8981 20.2324 30.113 20.2324C29.3262 20.2324 28.6591 19.7109 28.4388 18.9956C28.9852 19.2712 29.5509 19.4146 30.1223 19.4146C30.138 19.4146 30.154 19.4146 30.1697 19.4144C30.7212 19.4067 31.264 19.2646 31.7859 19.0005ZM27.424 18.3105V18.4806C27.424 19.9633 28.6303 21.1699 30.1132 21.1699C31.5961 21.1699 32.8024 19.9635 32.8024 18.4806V18.306C33.0192 18.1169 33.2304 17.9053 33.4345 17.6704L36.3401 19.0066C35.6084 19.3846 35.033 20.0217 34.736 20.8136C34.447 21.5847 34.4501 22.4327 34.7452 23.2014L36.0441 26.5865C36.6689 28.2149 37.1145 29.9158 37.3678 31.642L37.6772 33.7481L37.2157 35.1949C36.8662 36.291 36.7584 37.4566 36.8955 38.5968H23.688C23.7996 37.3448 23.6189 36.0792 23.1567 34.9054L22.3741 32.9172L22.5614 31.642C22.815 29.9158 23.2605 28.2149 23.8854 26.5865L25.1843 23.2014C25.4794 22.4327 25.4824 21.5847 25.1934 20.8136C24.9002 20.0317 24.3349 19.4022 23.6166 19.0225L26.7612 17.6524C26.9761 17.8954 27.1969 18.1162 27.424 18.3105ZM17.7124 31.5649C17.7218 31.5042 17.7295 31.4435 17.7359 31.382L17.9332 29.4086C18.1676 27.0651 18.6213 24.7303 19.2823 22.4695L19.5356 21.603C19.6868 21.086 19.9723 20.6156 20.3613 20.2427C20.9527 19.676 21.7835 19.4458 22.5811 19.6281C23.3798 19.8098 24.0284 20.3763 24.3159 21.1434C24.5245 21.6998 24.5222 22.3115 24.3094 22.8663L23.0105 26.2513C22.361 27.9442 21.8979 29.7124 21.6342 31.5065L20.501 39.2214C20.4047 39.1905 20.3079 39.16 20.2087 39.1359L19.8105 39.0391C19.3948 38.9378 18.9487 38.9746 18.5548 39.1417C17.8076 39.4593 17.3419 40.1931 17.3363 40.9738C16.9395 40.9303 16.5413 40.9085 16.1428 40.9087L17.7124 31.5649ZM10.1025 44.6835C10.2621 44.0092 10.7009 43.4289 11.306 43.0919C12.7873 42.2664 14.4642 41.8427 16.1459 41.8427C17.0541 41.8427 17.9637 41.9662 18.8445 42.217L19.1477 42.3433C18.3609 42.3677 17.7016 42.4281 17.2366 42.5353L13.0559 43.4999L13.2666 44.4135L16.8874 43.578C16.0587 45.4281 15.9232 47.5047 16.5009 49.4439L16.4341 49.4374C14.4152 49.2374 12.5173 48.4539 10.9458 47.1712C10.2164 46.5763 9.88547 45.5997 10.1025 44.6835ZM16.0812 55.4592C16.0737 55.4899 16.0692 55.5213 16.068 55.5527C16.0491 56.0655 16.3465 56.4993 16.7745 56.5835L18.7362 56.9718V56.9828L17.4338 57.1832C17.2873 57.2064 17.1478 57.3074 17.0791 57.4392C17.0063 57.5788 17.0037 57.7467 17.0719 57.8871L17.2793 58.3183C17.3477 58.4606 17.3517 58.6502 17.2894 58.8013C17.2526 58.8906 17.2097 58.9223 17.2146 58.9235L14.0913 59.298L12.7587 58.7296C12.7277 58.7163 12.6708 58.6502 12.6413 58.522C12.6007 58.3471 12.6347 58.1531 12.7237 58.0502L14.0334 56.5382C14.2031 56.3421 14.2969 56.0674 14.292 55.7821L14.4841 50.0435C14.8092 50.2675 15.8055 50.9409 17.0128 51.6407L16.0812 55.4592ZM30.2259 51.3689C30.1439 51.3433 30.056 51.3405 29.9726 51.3611C29.9126 51.3759 23.9341 52.8466 21.6909 52.6162C20.396 52.4833 18.2986 51.3381 16.7794 50.4098C17.5664 50.4782 18.3544 50.5146 19.1421 50.5146C20.9341 50.5143 22.7229 50.3374 24.4859 49.9846L26.5076 49.5803C26.7485 49.5321 26.9871 49.4767 27.2257 49.421L33.5466 50.8528C35.6981 51.3403 37.9073 51.5873 40.1137 51.5873H40.1416L43.4782 51.5842C43.5373 51.5842 43.5963 51.5819 43.6554 51.5814C41.4108 52.2815 38.7356 53.0355 37.6226 53.0355C35.5488 53.0357 30.2789 51.3855 30.2259 51.3689ZM46.0118 55.7943C46.0097 56.0751 46.1032 56.3451 46.2705 56.5387L47.5798 58.0504C47.6688 58.1531 47.7028 58.3474 47.6623 58.5222C47.6327 58.6504 47.5758 58.7165 47.5448 58.7299L46.2148 59.2956L43.1025 58.9258C43.0938 58.9225 43.0509 58.8911 43.0141 58.8018C42.9518 58.6506 42.9558 58.4613 43.0242 58.3188L43.2309 57.8887C43.2996 57.7471 43.297 57.5791 43.2241 57.4394C43.1552 57.3074 43.0151 57.2062 42.8679 57.1835L41.5666 56.9831C41.5666 56.9793 41.5666 56.9758 41.5666 56.9725L43.5284 56.5839C43.957 56.4998 44.2545 56.066 44.2355 55.5531C44.2341 55.5152 44.228 55.4772 44.2174 55.4406L43.4091 52.6399C44.2453 52.3846 45.0396 52.1296 45.7057 51.9107L46.0118 55.7943Z" fill="#3D493A"/>
</g>
<defs>
<clipPath id="clip0_250_268">
<rect width="60" height="60" fill="white" transform="translate(0 0.770996)"/>
</clipPath>
</defs>
</svg>
