<svg width="61" height="61" viewBox="0 0 61 61" fill="none" xmlns="http://www.w3.org/2000/svg">
<g clip-path="url(#clip0_260_4549)">
<path d="M10.158 48.7976C10.3862 48.5445 10.7218 48.2594 11.1657 47.9422C11.6088 47.6255 12.0908 47.309 12.6105 46.9916C13.1298 46.675 13.656 46.3642 14.1884 46.0601C14.7209 45.7559 15.177 45.4898 15.5572 45.2617C16.1145 44.9325 16.6599 44.5714 17.1922 44.1782C17.7246 43.7854 18.2056 43.3292 18.637 42.8094C19.0678 42.2902 19.4165 41.701 19.6826 41.0414C19.9488 40.3825 20.0817 39.6345 20.0817 38.7981C20.0817 36.7704 19.3529 35.161 17.8956 33.9692C16.4376 32.7781 14.3405 32.1821 11.603 32.1821C10.4873 32.1821 9.41677 32.2838 8.39009 32.4863C7.36352 32.6896 6.41887 32.9617 5.55742 33.3039C4.69527 33.6462 3.92242 34.0328 3.23804 34.4635C2.55366 34.8948 2.00839 35.338 1.60315 35.7942L5.48137 40.2808C6.21625 39.4443 6.97669 38.7665 7.76267 38.2466C8.54818 37.7275 9.47361 37.4672 10.5383 37.4672C11.4758 37.4672 12.1982 37.6828 12.7055 38.1136C13.2123 38.545 13.466 39.1152 13.466 39.8245C13.466 40.1797 13.3644 40.4898 13.1619 40.7561C12.9587 41.0222 12.623 41.3204 12.1542 41.6495C11.6848 41.9793 11.0514 42.3594 10.253 42.7902C9.45463 43.2216 8.45947 43.7663 7.26825 44.4251C6.15262 45.059 5.22766 45.7054 4.49265 46.3641C3.75718 47.0236 3.17429 47.7394 2.74374 48.5125C2.31249 49.2859 2.00839 50.1415 1.8312 51.079C1.65354 52.0171 1.56506 53.0818 1.56506 54.2729H20.5001V48.7976H10.158Z" fill="#AEA17E"/>
<path d="M39.3583 48.4176V32.5625H35.2139L22.8188 48.4556V53.8928H33.2748V59.1018H39.3583V53.8928H42.7042V48.4176H39.3583ZM33.9972 48.4177H28.8263L33.9972 41.6878V48.4177Z" fill="#AEA17E"/>
<path d="M5.10263 55.6621V57.6977H3.00802V55.6621H1.79407V60.9173H3.00802V58.7634H5.10263V60.9173H6.31659V55.6621H5.10263Z" fill="#AEA17E"/>
<path d="M13.1702 57.3277C13.0471 57.0071 12.872 56.7208 12.645 56.4692C12.4179 56.2175 12.1441 56.0154 11.8234 55.8623C11.5025 55.7093 11.1473 55.6328 10.7575 55.6328C10.3775 55.6328 10.0271 55.7057 9.7064 55.8511C9.38554 55.9968 9.10804 56.1917 8.87355 56.4358C8.63917 56.68 8.45648 56.9627 8.32581 57.2834C8.19491 57.6043 8.12964 57.9373 8.12964 58.2827C8.12964 58.6231 8.19257 58.9538 8.31843 59.2744C8.44429 59.5953 8.62054 59.8803 8.84753 60.1293C9.07453 60.3785 9.34839 60.5797 9.66914 60.7325C9.98988 60.8854 10.3451 60.9619 10.7351 60.9619C11.115 60.9619 11.4653 60.888 11.7861 60.7397C12.1069 60.5919 12.3832 60.3956 12.6151 60.1515C12.8472 59.9072 13.0283 59.6246 13.1591 59.3038C13.2899 58.9831 13.3553 58.6501 13.3553 58.3046C13.3553 57.9742 13.2935 57.6484 13.1702 57.3277ZM12.0343 58.8637C11.9775 59.0538 11.8924 59.2239 11.7789 59.3744C11.6654 59.525 11.5222 59.6471 11.3497 59.741C11.1769 59.8346 10.9746 59.8816 10.7427 59.8816C10.5206 59.8816 10.3233 59.8372 10.1505 59.7485C9.97769 59.6596 9.83343 59.541 9.71754 59.3931C9.60164 59.2452 9.5141 59.0761 9.4548 58.8862C9.3955 58.6962 9.36597 58.5002 9.36597 58.2978C9.36597 58.1004 9.39433 57.9067 9.45117 57.7166C9.508 57.5268 9.59414 57.3577 9.71015 57.2097C9.82617 57.0617 9.96914 56.942 10.1394 56.8507C10.3097 56.7595 10.5108 56.7138 10.7426 56.7138C10.9647 56.7138 11.1607 56.757 11.331 56.8434C11.5011 56.9297 11.6455 57.0459 11.7639 57.1912C11.8822 57.3368 11.9712 57.5047 12.0304 57.6945C12.0895 57.8845 12.1192 58.0807 12.1192 58.2829C12.1195 58.4801 12.0911 58.6738 12.0343 58.8637Z" fill="#AEA17E"/>
<path d="M18.5445 55.6622V58.3489H18.5442C18.5442 58.5414 18.5256 58.7301 18.4886 58.9151C18.4516 59.1002 18.3887 59.2642 18.2999 59.4073C18.2111 59.5504 18.0951 59.6652 17.952 59.7515C17.809 59.838 17.6337 59.8811 17.4265 59.8811C17.2192 59.8811 17.0453 59.8392 16.9047 59.7553C16.764 59.6715 16.6492 59.5578 16.5605 59.4147C16.4717 59.2719 16.4075 59.1088 16.368 58.9263C16.3284 58.7437 16.3088 58.5514 16.3088 58.3489V55.6621H15.095V58.3489C15.095 58.6943 15.1381 59.0249 15.2245 59.3406C15.3108 59.6566 15.4467 59.934 15.6317 60.1735C15.8167 60.413 16.0573 60.604 16.3533 60.747C16.6495 60.8901 17.0071 60.9617 17.4267 60.9617C17.8312 60.9617 18.1803 60.894 18.4741 60.7581C18.7675 60.6224 19.0094 60.4361 19.1994 60.1994C19.3893 59.9624 19.5299 59.6862 19.6214 59.3704C19.7126 59.0547 19.7583 58.7142 19.7583 58.349V55.6622H18.5445Z" fill="#AEA17E"/>
<path d="M25.0354 58.9634C25.1685 58.8894 25.2881 58.7994 25.3944 58.6932C25.5005 58.587 25.5905 58.4674 25.6645 58.3342C25.7385 58.201 25.7953 58.0591 25.8348 57.9085C25.8742 57.758 25.894 57.6013 25.894 57.4386C25.894 57.2213 25.8507 57.0067 25.7644 56.7945C25.678 56.5824 25.5584 56.3924 25.4054 56.2247C25.2524 56.057 25.0711 55.9212 24.8614 55.8175C24.6517 55.714 24.4235 55.6621 24.1768 55.6621H21.8082V60.9174H23.0221V59.2224H23.814L24.8207 60.9174H26.1899L25.0354 58.9634ZM24.5025 57.9604C24.3989 58.0962 24.2754 58.164 24.1324 58.164H23.0222V56.7281H24.0955C24.2334 56.7281 24.362 56.7923 24.4803 56.9206C24.5987 57.0489 24.658 57.2216 24.658 57.4388C24.6579 57.6508 24.6061 57.8248 24.5025 57.9604Z" fill="#AEA17E"/>
<path d="M31.6047 58.7485C31.5281 58.5761 31.4197 58.4293 31.279 58.3083C31.1383 58.1874 30.9668 58.0861 30.7646 58.0048C30.5621 57.9234 30.3353 57.8482 30.0836 57.779C29.9009 57.7298 29.7406 57.6853 29.6025 57.6458C29.4644 57.6065 29.3497 57.5632 29.2584 57.5162C29.167 57.4694 29.0979 57.4163 29.0511 57.3571C29.0039 57.2979 28.9806 57.224 28.9806 57.135C28.9806 56.8439 29.1978 56.6983 29.632 56.6983C29.7897 56.6983 29.9478 56.7205 30.1057 56.7649C30.2635 56.8094 30.4091 56.8613 30.5425 56.9203C30.6756 56.9795 30.7866 57.0365 30.8756 57.0906C30.9643 57.145 31.0162 57.182 31.0309 57.2017L31.5639 56.1951C31.4456 56.126 31.3159 56.0571 31.1753 55.9878C31.0347 55.9187 30.8829 55.857 30.72 55.8027C30.5573 55.7485 30.387 55.7042 30.2093 55.6696C30.0317 55.6351 29.8516 55.6177 29.6691 55.6177C29.4074 55.6177 29.1596 55.6548 28.9253 55.7288C28.6909 55.8027 28.4848 55.9126 28.3074 56.0581C28.1297 56.2037 27.9891 56.3827 27.8854 56.5948C27.7818 56.8071 27.73 57.0514 27.73 57.3277C27.73 57.5251 27.7582 57.6978 27.8151 57.8458C27.8719 57.9938 27.958 58.1246 28.0741 58.2381C28.1901 58.3517 28.3368 58.4516 28.5146 58.5379C28.6922 58.6244 28.902 58.7044 29.1438 58.7786C29.3263 58.8328 29.4953 58.8821 29.6507 58.9265C29.8062 58.9709 29.9406 59.0191 30.0541 59.0709C30.1674 59.1227 30.2565 59.1807 30.3206 59.2448C30.3845 59.3089 30.4169 59.3903 30.4169 59.489C30.4169 59.7505 30.2022 59.8813 29.7729 59.8813C29.5704 59.8813 29.3706 59.8541 29.1733 59.7999C28.9759 59.7456 28.7969 59.6839 28.6366 59.6148C28.4761 59.5458 28.3416 59.4768 28.2332 59.4074C28.1247 59.3385 28.0605 59.2915 28.0407 59.2668L27.5077 60.3252C27.6606 60.4287 27.8271 60.5201 28.0073 60.599C28.1874 60.678 28.3738 60.7458 28.5661 60.8025C28.7586 60.8593 28.9558 60.9025 29.1583 60.932C29.3607 60.9617 29.5579 60.9764 29.7504 60.9764C30.0022 60.9764 30.2464 60.948 30.4833 60.8913C30.7202 60.8345 30.9298 60.7432 31.1125 60.6175C31.2951 60.4916 31.4418 60.3264 31.5529 60.1216C31.664 59.9168 31.7194 59.6663 31.7194 59.3703C31.7193 59.1285 31.6812 58.9213 31.6047 58.7485Z" fill="#AEA17E"/>
<path d="M34.1026 29.3178C33.7723 28.0075 32.7389 26.974 31.4286 26.6438V10.4761H29.6273V26.6439C28.0287 27.0469 26.8417 28.4965 26.8417 30.2185C26.8417 32.2512 28.4954 33.9048 30.5279 33.9048C32.25 33.9048 33.6995 32.7176 34.1025 31.1191H44.8198V29.3178H34.1026ZM30.5281 32.1035C29.4887 32.1035 28.6431 31.2578 28.6431 30.2185C28.6431 29.1792 29.4887 28.3335 30.5281 28.3335C31.5674 28.3335 32.413 29.1792 32.413 30.2185C32.413 31.2578 31.5674 32.1035 30.5281 32.1035Z" fill="#AEA17E"/>
<path d="M56.491 43.6856C58.6362 39.5582 59.7702 34.9013 59.7702 30.2186C59.7702 22.4078 56.7285 15.0644 51.2055 9.54113C45.6822 4.01829 38.3388 0.976562 30.528 0.976562C22.7172 0.976562 15.3738 4.01829 9.85057 9.54124C4.32762 15.0644 1.28589 22.4079 1.28589 30.2187V31.1194H6.78904V29.3181H3.10172C3.24539 24.8836 4.44739 20.7125 6.46114 17.0477L9.63073 18.9201L10.5469 17.3693L7.37884 15.4977C9.55057 12.0944 12.4523 9.20081 15.8608 7.03659L17.7245 10.208L19.2775 9.29538L17.4126 6.12182C21.0639 4.12657 25.2154 2.93712 29.6274 2.79415V6.47971H31.4287V2.79415C35.8629 2.93794 40.0344 4.13806 43.6991 6.1517L41.8266 9.3214L43.3773 10.2376L45.2485 7.0701C48.6516 9.24183 51.5457 12.1431 53.7099 15.5515L50.5383 17.4151L51.451 18.9681L54.6257 17.1027C56.6211 20.754 57.8094 24.9061 57.9525 29.3181H54.267V31.1194H57.9527C57.8088 35.4517 56.6317 39.6515 54.5887 43.3861L51.4252 41.5173L50.509 43.0681L53.6715 44.9363C52.209 47.2398 50.4012 49.3325 48.2933 51.1284L48.5368 48.9328L46.7465 48.7342L46.1629 53.9952L51.4239 54.5788L51.6226 52.7885L49.4101 52.543C52.3134 50.0812 54.7404 47.0543 56.491 43.6856Z" fill="#AEA17E"/>
</g>
<defs>
<clipPath id="clip0_260_4549">
<rect width="60" height="60" fill="white" transform="translate(0.528076 0.976562)"/>
</clipPath>
</defs>
</svg>
