<svg width="50" height="50" viewBox="0 0 50 50" fill="none" xmlns="http://www.w3.org/2000/svg">
<circle cx="25" cy="25" r="25" fill="#AEA17E"/>
<path d="M18.0613 37.3979C19.4898 37.634 20.8848 37.524 22.2577 37.0794C24.1223 36.4757 25.7859 35.5043 27.3589 34.3582C28.3594 33.6293 29.3394 32.8695 30.3689 32.184C32.0965 31.0336 34.2507 31.0182 35.7969 32.0998C36.0346 32.266 36.2514 32.4725 36.4407 32.6924C36.5161 32.7799 36.5546 33.0116 36.4967 33.0761C36.4029 33.1807 36.2037 33.2704 36.07 33.2469C35.1843 33.0907 34.2877 33.0266 33.4741 33.438C32.5942 33.8828 31.7583 34.4213 30.9314 34.9619C30.2275 35.4221 29.5634 35.9433 28.8454 36.4639C29.1542 36.6316 29.416 36.7739 29.6927 36.9242C30.1404 36.5843 30.5897 36.205 31.0763 35.8818C32.173 35.1534 33.3573 34.7938 34.6666 35.2166C35.6347 35.5292 36.1976 36.3244 36.1175 37.2682C36.0606 37.9382 35.7064 38.4671 35.182 38.8722C34.2101 39.623 33.0817 39.9475 31.8775 40.0767C29.7201 40.3081 27.7742 39.7237 25.9793 38.5643C25.7682 38.428 25.6289 38.4419 25.4232 38.5473C23.396 39.586 21.2692 40.2249 18.9623 40.125C17.5999 40.066 16.3152 39.7668 15.2145 38.909C14.3933 38.269 14.0486 37.3274 14.3306 36.4411C14.6136 35.5513 15.3041 35.0992 16.1674 34.937C16.8615 34.8067 17.5747 34.7689 18.2814 34.716C20.2913 34.5655 21.8623 33.6024 23.2127 32.1615C24.5642 30.7194 24.773 29.0443 24.3837 27.204C24.2879 26.7513 24.237 26.2866 24.2033 25.8246C24.1909 25.654 24.2596 25.46 24.3451 25.3067C24.3916 25.2234 24.5644 25.143 24.6572 25.1638C25.3013 25.3082 25.9105 25.2132 26.4663 24.8845C27.9626 23.9997 29.1016 22.7977 29.5776 21.0867C29.9661 19.6902 29.6764 18.4135 28.7109 17.3153C28.4036 16.9658 28.0772 16.6311 27.7393 16.3109C26.7881 15.4095 25.7843 14.5547 25.2163 13.2402C24.6578 14.6238 23.5656 15.4716 22.5923 16.4222C22.2513 16.7552 21.9058 17.0907 21.6129 17.4647C20.4605 18.9361 20.4792 20.5075 21.2926 22.1151C21.7196 22.9589 22.3395 23.6554 23.0873 24.2302C23.3419 24.4258 23.4285 24.6016 23.3164 24.9331C23.073 25.6528 23.222 26.3863 23.3415 27.1121C23.5388 28.3093 23.6472 29.5213 23.1249 30.6524C22.2574 32.5309 20.6927 33.5498 18.7104 33.9526C17.5137 34.1957 16.3531 34.0521 15.2315 33.5251C14.7971 33.3209 14.2993 33.2536 13.8335 33.1137C13.7024 33.0743 13.4822 33.0057 13.4772 32.9376C13.465 32.774 13.5092 32.5627 13.6131 32.4409C14.4482 31.4616 15.7869 31.1449 16.9851 31.6332C17.3816 31.7949 17.7564 32.011 18.1549 32.1667C20.0142 32.8931 21.9258 31.6578 22.1511 29.6747C22.337 28.0381 21.6549 26.719 20.8405 25.4147C20.2824 24.5208 19.6675 23.654 19.1969 22.7155C18.0875 20.5029 18.5077 18.2069 20.2918 16.4988C21.0705 15.7533 21.898 15.0583 22.7133 14.3518C23.8441 13.3719 24.4413 12.1205 24.6405 10.6565C24.6633 10.489 24.6854 10.2976 24.7794 10.17C24.8834 10.029 25.07 9.86478 25.2202 9.86524C25.3721 9.8657 25.5754 10.0245 25.6617 10.17C25.7687 10.3504 25.797 10.5857 25.8275 10.8018C26.0741 12.5466 27.0293 13.8301 28.3724 14.9121C29.2088 15.5859 30.0416 16.3032 30.7152 17.1317C32.084 18.8154 32.2031 20.7222 31.2567 22.6439C30.7836 23.6047 30.1332 24.478 29.5664 25.3929C29.354 25.7358 29.0954 26.0644 28.9605 26.4367C28.8419 26.7641 28.7516 27.1787 28.8482 27.4935C29.2238 28.7182 28.8718 29.7822 28.2542 30.8071C26.324 34.0097 23.4543 35.9578 19.9247 37.0149C19.6204 37.106 19.3033 37.155 18.9911 37.2186C18.6818 37.2816 18.3713 37.3384 18.0613 37.3979Z" fill="white"/>
<path d="M27.5303 20.3686C27.5205 21.7057 26.5238 22.7056 25.2082 22.6983C23.9131 22.6911 22.9264 21.6562 22.9372 20.3164C22.9484 18.9357 23.938 17.9633 25.3198 17.9752C26.5876 17.9861 27.5403 19.0177 27.5303 20.3686Z" fill="white"/>
</svg>
