<svg width="181" height="50" viewBox="0 0 181 50" fill="none" xmlns="http://www.w3.org/2000/svg">
<path d="M68.8398 29.4233C68.8398 30.1981 68.849 30.8771 68.8672 31.4604C68.8945 32.0347 68.9219 32.5314 68.9492 32.9507C68.9857 33.37 69.0267 33.7209 69.0723 34.0034C69.127 34.286 69.1816 34.5229 69.2363 34.7144V34.769H65.9551V34.7144C66.0098 34.5229 66.0599 34.286 66.1055 34.0034C66.1602 33.7209 66.2012 33.37 66.2285 32.9507C66.265 32.5314 66.2923 32.0347 66.3105 31.4604C66.3379 30.8862 66.3516 30.2072 66.3516 29.4233V20.5229C66.3516 19.7482 66.3379 19.0737 66.3105 18.4995C66.2923 17.9162 66.265 17.4149 66.2285 16.9956C66.2012 16.5763 66.1602 16.2254 66.1055 15.9429C66.0599 15.6512 66.0098 15.4097 65.9551 15.2183V15.1636L66.5293 15.2183C66.7025 15.2365 66.8939 15.2502 67.1035 15.2593C67.3223 15.2593 67.5456 15.2593 67.7734 15.2593C68.1289 15.2593 68.6074 15.2183 69.209 15.1362C69.8197 15.0451 70.5944 14.9995 71.5332 14.9995C72.4082 14.9995 73.2148 15.118 73.9531 15.355C74.7005 15.592 75.3477 15.9383 75.8945 16.394C76.4414 16.8498 76.8652 17.4103 77.166 18.0757C77.4759 18.7319 77.6309 19.4793 77.6309 20.3179C77.6309 20.9741 77.5443 21.5848 77.3711 22.1499C77.207 22.7059 76.9701 23.2118 76.6602 23.6675C76.3594 24.1232 75.9948 24.5288 75.5664 24.8843C75.138 25.2306 74.6595 25.5223 74.1309 25.7593L78.9297 32.4995C79.1667 32.8368 79.3854 33.1284 79.5859 33.3745C79.7956 33.6206 79.9915 33.8348 80.1738 34.0171C80.3652 34.1903 80.5475 34.3361 80.7207 34.4546C80.8939 34.564 81.0716 34.6506 81.2539 34.7144V34.769H77.3027C77.2754 34.5959 77.1842 34.368 77.0293 34.0854C76.8835 33.7938 76.7103 33.5067 76.5098 33.2241L71.6699 26.4019C71.4603 26.4201 71.2507 26.4383 71.041 26.4565C70.8314 26.4657 70.6172 26.4702 70.3984 26.4702C70.1432 26.4702 69.8835 26.4611 69.6191 26.4429C69.3639 26.4246 69.1042 26.3927 68.8398 26.3472V29.4233ZM68.8398 25.2808C69.0859 25.3354 69.3366 25.3765 69.5918 25.4038C69.847 25.422 70.0931 25.4312 70.3301 25.4312C71.0137 25.4312 71.638 25.3309 72.2031 25.1304C72.7682 24.9207 73.2467 24.6063 73.6387 24.187C74.0397 23.7677 74.3496 23.2482 74.5684 22.6284C74.7871 21.9995 74.8965 21.2658 74.8965 20.4272C74.8965 19.7437 74.819 19.1239 74.6641 18.5679C74.5091 18.0119 74.2767 17.5425 73.9668 17.1597C73.666 16.7677 73.2832 16.467 72.8184 16.2573C72.3535 16.0386 71.8112 15.9292 71.1914 15.9292C70.5625 15.9292 70.0612 15.9611 69.6875 16.0249C69.3138 16.0887 69.0312 16.1571 68.8398 16.23V25.2808ZM88.7734 35.0151C87.7617 35.0151 86.8138 34.8556 85.9297 34.5366C85.0456 34.2176 84.2754 33.7528 83.6191 33.1421C82.9629 32.5223 82.4434 31.7612 82.0605 30.8589C81.6868 29.9474 81.5 28.9084 81.5 27.7417C81.5 26.7118 81.6732 25.7593 82.0195 24.8843C82.3659 24.0002 82.8444 23.2345 83.4551 22.5874C84.0658 21.9403 84.7767 21.4344 85.5879 21.0698C86.4082 20.7052 87.2923 20.5229 88.2402 20.5229C89.179 20.5229 90.0495 20.687 90.8516 21.0151C91.6536 21.3341 92.3464 21.8035 92.9297 22.4233C93.5221 23.034 93.987 23.7951 94.3242 24.7065C94.6706 25.6089 94.8574 26.6388 94.8848 27.7964C93.8548 27.7782 92.8249 27.7645 91.7949 27.7554C90.765 27.7463 89.694 27.7417 88.582 27.7417C87.7891 27.7417 87.0143 27.7463 86.2578 27.7554C85.5104 27.7645 84.8359 27.7782 84.2344 27.7964C84.2891 28.7443 84.4349 29.6011 84.6719 30.3667C84.918 31.1323 85.2507 31.7886 85.6699 32.3354C86.0983 32.8732 86.6133 33.2879 87.2148 33.5796C87.8255 33.8713 88.5137 34.0171 89.2793 34.0171C89.8079 34.0171 90.3047 33.9578 90.7695 33.8394C91.2435 33.7118 91.6719 33.5386 92.0547 33.3198C92.4375 33.1011 92.7793 32.8459 93.0801 32.5542C93.3809 32.2534 93.6361 31.9299 93.8457 31.5835L94.0098 31.6655L92.998 34.0991C92.5059 34.3543 91.918 34.5731 91.2344 34.7554C90.5508 34.9285 89.7305 35.0151 88.7734 35.0151ZM86.9551 26.6753C87.8665 26.6753 88.778 26.6753 89.6895 26.6753C90.61 26.6662 91.444 26.6479 92.1914 26.6206C92.1094 25.8276 91.9544 25.1167 91.7266 24.4878C91.4987 23.8589 91.207 23.3257 90.8516 22.8882C90.4961 22.4507 90.0768 22.1134 89.5938 21.8765C89.1107 21.6395 88.5775 21.521 87.9941 21.521C87.4655 21.521 86.9779 21.6395 86.5312 21.8765C86.0938 22.1043 85.7109 22.437 85.3828 22.8745C85.0547 23.312 84.7904 23.8498 84.5898 24.4878C84.3893 25.1167 84.2708 25.8368 84.2344 26.6479C84.6445 26.6662 85.0775 26.6753 85.5332 26.6753C85.9889 26.6753 86.4629 26.6753 86.9551 26.6753ZM104.004 23.5171L103.812 23.5444C103.749 23.3348 103.644 23.1115 103.498 22.8745C103.361 22.6375 103.179 22.4188 102.951 22.2183C102.732 22.0177 102.464 21.8537 102.145 21.7261C101.835 21.5894 101.475 21.521 101.064 21.521C100.782 21.521 100.513 21.562 100.258 21.644C100.012 21.7261 99.793 21.8491 99.6016 22.0132C99.4193 22.1681 99.2734 22.3641 99.1641 22.6011C99.0547 22.8381 99 23.116 99 23.4351C99 23.8817 99.1367 24.3101 99.4102 24.7202C99.6927 25.1213 100.044 25.5223 100.463 25.9233C100.882 26.3153 101.333 26.7118 101.816 27.1128C102.309 27.5138 102.764 27.9331 103.184 28.3706C103.603 28.8081 103.949 29.2775 104.223 29.7788C104.505 30.271 104.646 30.8042 104.646 31.3784C104.646 31.8433 104.564 32.299 104.4 32.7456C104.236 33.1831 103.981 33.575 103.635 33.9214C103.298 34.2677 102.86 34.5503 102.322 34.769C101.794 34.9787 101.16 35.0835 100.422 35.0835C99.9844 35.0835 99.5742 35.0425 99.1914 34.9604C98.8177 34.8784 98.4714 34.7782 98.1523 34.6597C97.8424 34.5321 97.5599 34.3953 97.3047 34.2495C97.0586 34.0946 96.8398 33.9487 96.6484 33.812L96.7852 31.2144H97.0039C97.0951 31.6427 97.2318 32.0347 97.4141 32.3901C97.5964 32.7456 97.8197 33.0509 98.084 33.3062C98.3574 33.5522 98.6673 33.7482 99.0137 33.894C99.36 34.0308 99.7383 34.0991 100.148 34.0991C100.823 34.0991 101.356 33.9123 101.748 33.5386C102.149 33.1649 102.35 32.6772 102.35 32.0757C102.35 31.5926 102.213 31.1506 101.939 30.7495C101.675 30.3394 101.338 29.9474 100.928 29.5737C100.518 29.2 100.076 28.8263 99.6016 28.4526C99.1367 28.0789 98.6992 27.6825 98.2891 27.2632C97.8789 26.8348 97.5371 26.37 97.2637 25.8687C96.9993 25.3582 96.8672 24.7795 96.8672 24.1323C96.8672 23.6037 96.9629 23.1206 97.1543 22.6831C97.3548 22.2365 97.6283 21.8582 97.9746 21.5483C98.3301 21.2293 98.7493 20.9832 99.2324 20.8101C99.7155 20.6369 100.244 20.5503 100.818 20.5503C101.575 20.5503 102.204 20.6323 102.705 20.7964C103.215 20.9513 103.603 21.1017 103.867 21.2476L104.004 23.5171ZM112.699 33.9624C112.973 33.9624 113.242 33.9123 113.506 33.812C113.779 33.7118 114.039 33.575 114.285 33.4019C114.54 33.2287 114.782 33.0327 115.01 32.814C115.247 32.5861 115.465 32.3491 115.666 32.103L115.803 32.1714L114.914 34.3726C114.805 34.4272 114.668 34.4956 114.504 34.5776C114.349 34.6506 114.158 34.7189 113.93 34.7827C113.711 34.8556 113.451 34.9149 113.15 34.9604C112.85 35.0151 112.494 35.0425 112.084 35.0425C110.863 35.0425 109.91 34.7144 109.227 34.0581C108.552 33.3927 108.215 32.3582 108.215 30.9546V21.8354L105.918 21.9175V20.7144C106.201 20.7326 106.538 20.7463 106.93 20.7554C107.322 20.7645 107.75 20.769 108.215 20.769C108.206 20.1219 108.188 19.5522 108.16 19.0601C108.142 18.5588 108.115 18.1258 108.078 17.7612C108.051 17.3875 108.014 17.0731 107.969 16.8179C107.923 16.5627 107.878 16.3485 107.832 16.1753V16.1206H110.99V16.1753C110.936 16.3485 110.885 16.5627 110.84 16.8179C110.794 17.0731 110.753 17.383 110.717 17.7476C110.689 18.1121 110.662 18.5451 110.635 19.0464C110.617 19.5386 110.603 20.1128 110.594 20.769C111.168 20.7599 111.729 20.7508 112.275 20.7417C112.831 20.7235 113.333 20.7052 113.779 20.687C114.235 20.6597 114.618 20.6369 114.928 20.6187C115.247 20.5913 115.456 20.5685 115.557 20.5503L115.311 21.9448C114.846 21.9357 114.358 21.922 113.848 21.9038C113.41 21.8856 112.909 21.8719 112.344 21.8628C111.779 21.8537 111.195 21.8446 110.594 21.8354V31.2417C110.594 31.8068 110.653 32.2671 110.771 32.6226C110.899 32.9689 111.059 33.2424 111.25 33.4429C111.451 33.6434 111.674 33.7801 111.92 33.853C112.175 33.9259 112.435 33.9624 112.699 33.9624ZM118.496 26.1147C118.496 25.34 118.482 24.6655 118.455 24.0913C118.437 23.508 118.41 23.0067 118.373 22.5874C118.346 22.1681 118.305 21.8172 118.25 21.5347C118.204 21.2521 118.154 21.0151 118.1 20.8237V20.769H121.258V20.8237C121.185 21.0334 121.121 21.2886 121.066 21.5894C121.021 21.8901 120.984 22.2775 120.957 22.7515C121.294 22.4689 121.645 22.1909 122.01 21.9175C122.374 21.644 122.748 21.4025 123.131 21.1929C123.514 20.9832 123.901 20.8146 124.293 20.687C124.694 20.5594 125.095 20.4956 125.496 20.4956C125.742 20.4956 125.956 20.5093 126.139 20.5366C126.321 20.5549 126.485 20.5868 126.631 20.6323C126.777 20.6688 126.909 20.7144 127.027 20.769C127.146 20.8146 127.26 20.8602 127.369 20.9058L126.699 23.5171L126.467 23.4624C126.357 23.0614 126.152 22.7424 125.852 22.5054C125.551 22.2593 125.141 22.1362 124.621 22.1362C124.339 22.1362 124.042 22.1864 123.732 22.2866C123.423 22.3869 123.108 22.5282 122.789 22.7104C122.47 22.8836 122.151 23.0887 121.832 23.3257C121.513 23.5535 121.203 23.7951 120.902 24.0503C120.884 24.3146 120.875 24.6017 120.875 24.9116C120.875 25.2215 120.875 25.5496 120.875 25.896V29.4233C120.875 30.1981 120.884 30.8771 120.902 31.4604C120.921 32.0347 120.948 32.5314 120.984 32.9507C121.021 33.37 121.062 33.7209 121.107 34.0034C121.153 34.286 121.203 34.5229 121.258 34.7144V34.769H118.1V34.7144C118.154 34.5229 118.204 34.286 118.25 34.0034C118.305 33.7209 118.346 33.37 118.373 32.9507C118.41 32.5314 118.437 32.0347 118.455 31.4604C118.482 30.8771 118.496 30.1981 118.496 29.4233V26.1147ZM127.82 30.7358C127.82 30.0158 127.966 29.3914 128.258 28.8628C128.559 28.3341 128.955 27.883 129.447 27.5093C129.939 27.1356 130.5 26.8348 131.129 26.6069C131.758 26.37 132.41 26.1877 133.084 26.0601C133.758 25.9233 134.424 25.8322 135.08 25.7866C135.736 25.7319 136.338 25.7 136.885 25.6909V24.9937C136.885 24.3921 136.807 23.8726 136.652 23.4351C136.497 22.9976 136.279 22.6375 135.996 22.355C135.714 22.0633 135.372 21.8491 134.971 21.7124C134.579 21.5666 134.146 21.4937 133.672 21.4937C133.344 21.4937 133.02 21.521 132.701 21.5757C132.382 21.6304 132.049 21.7215 131.703 21.8491C131.366 21.9767 131.006 22.1499 130.623 22.3687C130.249 22.5874 129.844 22.8654 129.406 23.2026L129.27 23.1206L130.199 21.1929C130.5 21.0562 130.796 20.9468 131.088 20.8647C131.38 20.7736 131.676 20.7007 131.977 20.646C132.277 20.5913 132.583 20.5549 132.893 20.5366C133.212 20.5093 133.544 20.4956 133.891 20.4956C134.848 20.4956 135.663 20.6141 136.338 20.8511C137.021 21.0789 137.577 21.3979 138.006 21.8081C138.443 22.2091 138.762 22.6831 138.963 23.23C139.163 23.7677 139.264 24.3465 139.264 24.9663V29.4233C139.264 30.1981 139.273 30.8771 139.291 31.4604C139.318 32.0347 139.346 32.5314 139.373 32.9507C139.41 33.37 139.451 33.7209 139.496 34.0034C139.551 34.286 139.605 34.5229 139.66 34.7144V34.769H136.639V34.7144C136.684 34.5685 136.716 34.4045 136.734 34.2222C136.762 34.0399 136.785 33.8211 136.803 33.5659C136.611 33.73 136.383 33.8986 136.119 34.0718C135.864 34.245 135.568 34.4045 135.23 34.5503C134.902 34.687 134.533 34.7964 134.123 34.8784C133.722 34.9696 133.28 35.0151 132.797 35.0151C131.211 35.0151 129.985 34.646 129.119 33.9077C128.253 33.1603 127.82 32.103 127.82 30.7358ZM136.885 26.7573C136.055 26.7664 135.258 26.8166 134.492 26.9077C133.727 26.9897 133.048 27.1675 132.455 27.4409C131.872 27.7144 131.402 28.1063 131.047 28.6167C130.701 29.118 130.527 29.7879 130.527 30.6265C130.527 31.702 130.796 32.5223 131.334 33.0874C131.872 33.6525 132.615 33.9351 133.562 33.9351C134 33.9351 134.396 33.8758 134.752 33.7573C135.117 33.6297 135.436 33.4748 135.709 33.2925C135.992 33.1011 136.229 32.896 136.42 32.6772C136.611 32.4494 136.757 32.2306 136.857 32.021C136.876 31.6746 136.885 31.2918 136.885 30.8726C136.885 30.4442 136.885 29.9611 136.885 29.4233V26.7573ZM143.488 26.1147C143.488 25.34 143.475 24.6655 143.447 24.0913C143.429 23.508 143.402 23.0067 143.365 22.5874C143.338 22.1681 143.297 21.8172 143.242 21.5347C143.197 21.2521 143.146 21.0151 143.092 20.8237V20.769H146.25V20.8237C146.195 21.0151 146.145 21.2521 146.1 21.5347C146.054 21.8172 146.013 22.1681 145.977 22.5874C145.94 23.0067 145.913 23.508 145.895 24.0913C145.876 24.6655 145.867 25.34 145.867 26.1147V29.4233C145.867 30.1981 145.876 30.8771 145.895 31.4604C145.913 32.0347 145.94 32.5314 145.977 32.9507C146.013 33.37 146.054 33.7209 146.1 34.0034C146.145 34.286 146.195 34.5229 146.25 34.7144V34.769H143.092V34.7144C143.146 34.5229 143.197 34.286 143.242 34.0034C143.297 33.7209 143.338 33.37 143.365 32.9507C143.402 32.5314 143.429 32.0347 143.447 31.4604C143.475 30.8771 143.488 30.1981 143.488 29.4233V26.1147ZM143.201 16.6265C143.201 16.4259 143.238 16.2391 143.311 16.0659C143.393 15.8836 143.497 15.7287 143.625 15.6011C143.753 15.4644 143.903 15.3595 144.076 15.2866C144.258 15.2046 144.454 15.1636 144.664 15.1636C144.874 15.1636 145.065 15.2046 145.238 15.2866C145.421 15.3595 145.576 15.4644 145.703 15.6011C145.84 15.7287 145.945 15.8836 146.018 16.0659C146.1 16.2391 146.141 16.4259 146.141 16.6265C146.141 17.0457 145.999 17.3966 145.717 17.6792C145.434 17.9618 145.083 18.103 144.664 18.103C144.454 18.103 144.258 18.0666 144.076 17.9937C143.903 17.9116 143.753 17.8068 143.625 17.6792C143.497 17.5425 143.393 17.3875 143.311 17.2144C143.238 17.0321 143.201 16.8361 143.201 16.6265ZM159.566 25.5542C159.566 24.3511 159.325 23.467 158.842 22.9019C158.359 22.3368 157.712 22.0542 156.9 22.0542C156.609 22.0542 156.281 22.118 155.916 22.2456C155.551 22.3641 155.178 22.5282 154.795 22.7378C154.412 22.9383 154.029 23.1753 153.646 23.4487C153.264 23.7222 152.904 24.0138 152.566 24.3237L152.539 26.1147V29.4233C152.539 30.1981 152.548 30.8771 152.566 31.4604C152.585 32.0347 152.612 32.5314 152.648 32.9507C152.685 33.37 152.726 33.7209 152.771 34.0034C152.817 34.286 152.867 34.5229 152.922 34.7144V34.769H149.764V34.7144C149.818 34.5229 149.868 34.286 149.914 34.0034C149.969 33.7209 150.01 33.37 150.037 32.9507C150.074 32.5314 150.101 32.0347 150.119 31.4604C150.146 30.8771 150.16 30.1981 150.16 29.4233V26.1147C150.16 25.34 150.146 24.6655 150.119 24.0913C150.101 23.508 150.074 23.0067 150.037 22.5874C150.01 22.1681 149.969 21.8172 149.914 21.5347C149.868 21.2521 149.818 21.0151 149.764 20.8237V20.769H152.922V20.8237C152.849 21.0516 152.79 21.3433 152.744 21.6987C152.708 22.0451 152.667 22.5008 152.621 23.0659C152.995 22.756 153.396 22.4461 153.824 22.1362C154.262 21.8263 154.713 21.5529 155.178 21.3159C155.643 21.0698 156.117 20.8739 156.6 20.728C157.083 20.5731 157.557 20.4956 158.021 20.4956C158.732 20.4956 159.334 20.6187 159.826 20.8647C160.327 21.1108 160.733 21.4344 161.043 21.8354C161.362 22.2365 161.59 22.6968 161.727 23.2163C161.872 23.7267 161.945 24.2463 161.945 24.7749V29.4233C161.945 30.1981 161.954 30.8771 161.973 31.4604C161.991 32.0347 162.018 32.5314 162.055 32.9507C162.091 33.37 162.132 33.7209 162.178 34.0034C162.223 34.286 162.273 34.5229 162.328 34.7144V34.769H159.17V34.7144C159.225 34.5229 159.275 34.286 159.32 34.0034C159.375 33.7209 159.416 33.37 159.443 32.9507C159.48 32.5314 159.507 32.0347 159.525 31.4604C159.553 30.8771 159.566 30.1981 159.566 29.4233V25.5542ZM171.023 33.9624C171.297 33.9624 171.566 33.9123 171.83 33.812C172.104 33.7118 172.363 33.575 172.609 33.4019C172.865 33.2287 173.106 33.0327 173.334 32.814C173.571 32.5861 173.79 32.3491 173.99 32.103L174.127 32.1714L173.238 34.3726C173.129 34.4272 172.992 34.4956 172.828 34.5776C172.673 34.6506 172.482 34.7189 172.254 34.7827C172.035 34.8556 171.775 34.9149 171.475 34.9604C171.174 35.0151 170.818 35.0425 170.408 35.0425C169.187 35.0425 168.234 34.7144 167.551 34.0581C166.876 33.3927 166.539 32.3582 166.539 30.9546V21.8354L164.242 21.9175V20.7144C164.525 20.7326 164.862 20.7463 165.254 20.7554C165.646 20.7645 166.074 20.769 166.539 20.769C166.53 20.1219 166.512 19.5522 166.484 19.0601C166.466 18.5588 166.439 18.1258 166.402 17.7612C166.375 17.3875 166.339 17.0731 166.293 16.8179C166.247 16.5627 166.202 16.3485 166.156 16.1753V16.1206H169.314V16.1753C169.26 16.3485 169.21 16.5627 169.164 16.8179C169.118 17.0731 169.077 17.383 169.041 17.7476C169.014 18.1121 168.986 18.5451 168.959 19.0464C168.941 19.5386 168.927 20.1128 168.918 20.769C169.492 20.7599 170.053 20.7508 170.6 20.7417C171.156 20.7235 171.657 20.7052 172.104 20.687C172.559 20.6597 172.942 20.6369 173.252 20.6187C173.571 20.5913 173.781 20.5685 173.881 20.5503L173.635 21.9448C173.17 21.9357 172.682 21.922 172.172 21.9038C171.734 21.8856 171.233 21.8719 170.668 21.8628C170.103 21.8537 169.52 21.8446 168.918 21.8354V31.2417C168.918 31.8068 168.977 32.2671 169.096 32.6226C169.223 32.9689 169.383 33.2424 169.574 33.4429C169.775 33.6434 169.998 33.7801 170.244 33.853C170.499 33.9259 170.759 33.9624 171.023 33.9624Z" fill="white"/>
<path d="M176.109 33.5659C176.109 33.3654 176.146 33.1785 176.219 33.0054C176.301 32.8231 176.406 32.6681 176.533 32.5405C176.67 32.4038 176.825 32.299 176.998 32.2261C177.18 32.144 177.372 32.103 177.572 32.103C177.782 32.103 177.973 32.144 178.146 32.2261C178.329 32.299 178.484 32.4038 178.611 32.5405C178.748 32.6681 178.853 32.8231 178.926 33.0054C179.008 33.1785 179.049 33.3654 179.049 33.5659C179.049 33.9852 178.908 34.3361 178.625 34.6187C178.342 34.9012 177.992 35.0425 177.572 35.0425C177.372 35.0425 177.18 35.0015 176.998 34.9194C176.825 34.8465 176.67 34.7463 176.533 34.6187C176.406 34.4819 176.301 34.327 176.219 34.1538C176.146 33.9715 176.109 33.7756 176.109 33.5659Z" fill="#AEA17E"/>
<circle cx="25" cy="25" r="25" fill="#AEA17E"/>
<path d="M18.0613 37.3979C19.4898 37.634 20.8848 37.524 22.2577 37.0794C24.1223 36.4757 25.7859 35.5043 27.3589 34.3582C28.3594 33.6293 29.3394 32.8695 30.3689 32.184C32.0965 31.0336 34.2507 31.0182 35.7969 32.0998C36.0346 32.266 36.2514 32.4725 36.4407 32.6924C36.5161 32.7799 36.5546 33.0116 36.4967 33.0761C36.4029 33.1807 36.2037 33.2704 36.07 33.2469C35.1843 33.0907 34.2877 33.0266 33.4741 33.438C32.5942 33.8828 31.7583 34.4213 30.9314 34.9619C30.2275 35.4221 29.5634 35.9433 28.8454 36.4639C29.1542 36.6316 29.416 36.7739 29.6927 36.9242C30.1404 36.5843 30.5897 36.205 31.0763 35.8818C32.173 35.1534 33.3573 34.7938 34.6666 35.2166C35.6347 35.5292 36.1976 36.3244 36.1175 37.2682C36.0606 37.9382 35.7064 38.4671 35.182 38.8722C34.2101 39.623 33.0817 39.9475 31.8775 40.0767C29.7201 40.3081 27.7742 39.7237 25.9793 38.5643C25.7682 38.428 25.6289 38.4419 25.4232 38.5473C23.396 39.586 21.2692 40.2249 18.9623 40.125C17.5999 40.066 16.3152 39.7668 15.2145 38.909C14.3933 38.269 14.0486 37.3274 14.3306 36.4411C14.6136 35.5513 15.3041 35.0992 16.1674 34.937C16.8615 34.8067 17.5747 34.7689 18.2814 34.716C20.2913 34.5655 21.8623 33.6024 23.2127 32.1615C24.5642 30.7194 24.773 29.0443 24.3837 27.204C24.2879 26.7513 24.237 26.2866 24.2033 25.8246C24.1909 25.654 24.2596 25.46 24.3451 25.3067C24.3916 25.2234 24.5644 25.143 24.6572 25.1638C25.3013 25.3082 25.9105 25.2132 26.4663 24.8845C27.9626 23.9997 29.1016 22.7977 29.5776 21.0867C29.9661 19.6902 29.6764 18.4135 28.7109 17.3153C28.4036 16.9658 28.0772 16.6311 27.7393 16.3109C26.7881 15.4095 25.7843 14.5547 25.2163 13.2402C24.6578 14.6238 23.5656 15.4716 22.5923 16.4222C22.2513 16.7552 21.9058 17.0907 21.6129 17.4647C20.4605 18.9361 20.4792 20.5075 21.2926 22.1151C21.7196 22.9589 22.3395 23.6554 23.0873 24.2302C23.3419 24.4258 23.4285 24.6016 23.3164 24.9331C23.073 25.6528 23.222 26.3863 23.3415 27.1121C23.5388 28.3093 23.6472 29.5213 23.1249 30.6524C22.2574 32.5309 20.6927 33.5498 18.7104 33.9526C17.5137 34.1957 16.3531 34.0521 15.2315 33.5251C14.7971 33.3209 14.2993 33.2536 13.8335 33.1137C13.7024 33.0743 13.4822 33.0057 13.4772 32.9376C13.465 32.774 13.5092 32.5627 13.6131 32.4409C14.4482 31.4616 15.7869 31.1449 16.9851 31.6332C17.3816 31.7949 17.7564 32.011 18.1549 32.1667C20.0142 32.8931 21.9258 31.6578 22.1511 29.6747C22.337 28.0381 21.6549 26.719 20.8405 25.4147C20.2824 24.5208 19.6675 23.654 19.1969 22.7155C18.0875 20.5029 18.5077 18.2069 20.2918 16.4988C21.0705 15.7533 21.898 15.0583 22.7133 14.3518C23.8441 13.3719 24.4413 12.1205 24.6405 10.6565C24.6633 10.489 24.6854 10.2976 24.7794 10.17C24.8834 10.029 25.07 9.86478 25.2202 9.86524C25.3721 9.8657 25.5754 10.0245 25.6617 10.17C25.7687 10.3504 25.797 10.5857 25.8275 10.8018C26.0741 12.5466 27.0293 13.8301 28.3724 14.9121C29.2088 15.5859 30.0416 16.3032 30.7152 17.1317C32.084 18.8154 32.2031 20.7222 31.2567 22.6439C30.7836 23.6047 30.1332 24.478 29.5664 25.3929C29.354 25.7358 29.0954 26.0644 28.9605 26.4367C28.8419 26.7641 28.7516 27.1787 28.8482 27.4935C29.2238 28.7182 28.8718 29.7822 28.2542 30.8071C26.324 34.0097 23.4543 35.9578 19.9247 37.0149C19.6204 37.106 19.3033 37.155 18.9911 37.2186C18.6818 37.2816 18.3713 37.3384 18.0613 37.3979Z" fill="white"/>
<path d="M27.5303 20.3686C27.5205 21.7057 26.5238 22.7056 25.2082 22.6983C23.9131 22.6911 22.9264 21.6562 22.9372 20.3164C22.9484 18.9357 23.938 17.9633 25.3198 17.9752C26.5876 17.9861 27.5403 19.0177 27.5303 20.3686Z" fill="white"/>
</svg>
