<svg width="264" height="381" viewBox="0 0 264 381" fill="none" xmlns="http://www.w3.org/2000/svg">
<path fill-rule="evenodd" clip-rule="evenodd" d="M106.686 72.8721C108.096 79.0024 109.715 85.0871 111.141 91.2149C112.643 97.6678 113.555 105.518 117.039 111.274C119.025 114.555 122.41 116.74 125.262 119.132C126.771 120.398 129.332 122.083 131.91 123.132C133.701 123.862 135.504 124.277 136.99 124.093C139.363 123.798 142.625 122.197 145.867 120.019C150.664 116.796 155.425 112.33 157.211 109.232C160.231 103.993 162.445 92.8631 163.643 86.9248C164.402 83.1605 165.92 79.5739 166.554 75.7993C166.618 75.4232 166.364 75.0663 165.988 75.0034C165.612 74.9401 165.255 75.1939 165.191 75.57C164.559 79.3299 163.044 82.9017 162.288 86.6513C161.113 92.4762 158.976 103.402 156.013 108.542C154.299 111.516 149.703 115.777 145.096 118.872C142.067 120.907 139.038 122.446 136.82 122.721C135.534 122.88 133.981 122.483 132.431 121.852C129.996 120.86 127.576 119.269 126.151 118.073C123.411 115.775 120.129 113.71 118.221 110.558C114.809 104.921 113.959 97.221 112.488 90.9017C111.061 84.7748 109.443 78.6911 108.033 72.5623C107.947 72.1906 107.576 71.9579 107.204 72.0438C106.833 72.1293 106.6 72.5004 106.686 72.8721Z" fill="#3D493A" fill-opacity="0.1"/>
<path fill-rule="evenodd" clip-rule="evenodd" d="M165.176 84.7608C165.766 83.3089 167.25 81.9912 168.754 81.5375C169.43 81.3337 170.112 81.3057 170.699 81.5738C171.289 81.8429 171.761 82.408 172.066 83.3153C173.808 88.4946 170.488 93.7918 167.291 97.5374C166.563 98.3897 165.015 99.8818 163.456 100.939C162.512 101.58 161.579 102.081 160.844 102.081C160.462 102.081 160.152 102.391 160.152 102.772C160.152 103.154 160.462 103.463 160.844 103.463C161.57 103.463 162.461 103.144 163.382 102.617C165.315 101.509 167.43 99.5042 168.343 98.4344C171.827 94.3519 175.275 88.5206 173.377 82.8749C172.92 81.5174 172.155 80.7186 171.273 80.3164C170.391 79.9138 169.37 79.9084 168.356 80.2143C166.479 80.7799 164.632 82.4291 163.896 84.2403C163.752 84.5938 163.923 84.9974 164.276 85.1408C164.63 85.2846 165.033 85.1143 165.176 84.7608Z" fill="#3D493A" fill-opacity="0.1"/>
<path fill-rule="evenodd" clip-rule="evenodd" d="M163.858 94.6846C163.871 94.7249 163.868 94.7666 163.872 94.8143C163.877 94.881 163.882 94.9527 163.889 95.0318C164 96.2425 163.41 97.4528 162.717 98.4126C162.493 98.7219 162.563 99.1545 162.872 99.3774C163.182 99.6008 163.614 99.5311 163.837 99.2217C164.718 98.0022 165.406 96.4438 165.265 94.9051C165.213 94.3351 165.203 94.0405 164.779 93.6207C164.721 93.5628 164.639 93.5019 164.533 93.4518C165.115 91.6337 166.039 89.5441 167.357 87.9377C168.28 86.8118 169.397 85.9232 170.743 85.5893C171.113 85.498 171.339 85.1229 171.247 84.7522C171.155 84.382 170.781 84.1562 170.41 84.248C168.781 84.6516 167.407 85.6978 166.288 87.0608C164.697 89.0011 163.623 91.5856 163.015 93.6924C162.946 93.9339 162.984 94.1706 163.185 94.3837C163.247 94.4495 163.351 94.5324 163.506 94.5894C163.576 94.6154 163.746 94.6581 163.858 94.6846Z" fill="#3D493A" fill-opacity="0.1"/>
<path fill-rule="evenodd" clip-rule="evenodd" d="M110.218 85.4556C109.594 83.2079 108.232 81.0634 106.685 79.8909C105.521 79.0091 104.247 78.6664 103.062 79.0651C101.87 79.4652 100.698 80.6637 99.878 83.1029C98.7571 86.4366 99.7307 91.4421 101.941 95.8314C104.158 100.234 107.608 103.985 111.249 104.887C111.619 104.979 111.994 104.752 112.086 104.382C112.177 104.012 111.952 103.637 111.581 103.545C108.262 102.723 105.196 99.2231 103.175 95.2094C101.147 91.1814 100.159 86.6031 101.188 83.5433C101.814 81.6825 102.593 80.6804 103.502 80.375C104.277 80.1148 105.09 80.4168 105.851 80.9927C107.19 82.0075 108.346 83.8791 108.886 85.8248C108.988 86.1926 109.369 86.4081 109.736 86.3065C110.104 86.2044 110.32 85.8234 110.218 85.4556Z" fill="#3D493A" fill-opacity="0.1"/>
<path fill-rule="evenodd" clip-rule="evenodd" d="M104.231 85.9887C104.283 86.0692 104.342 86.1654 104.383 86.243C104.528 86.5155 104.668 86.7978 104.794 86.9809C105.989 88.7234 107.016 90.0505 107.872 92.0301C108.534 93.5634 108.447 93.5556 109.191 95.0305C109.351 95.3472 109.545 95.7115 109.728 96.0488C108.955 96.3944 108.649 97.2492 108.763 98.2964C108.849 99.0781 109.162 99.9633 109.519 100.633C109.791 101.145 110.102 101.534 110.351 101.72C110.657 101.948 111.09 101.884 111.318 101.579C111.546 101.273 111.483 100.84 111.177 100.611C111.038 100.507 110.891 100.269 110.738 99.9829C110.458 99.4556 110.205 98.7609 110.137 98.1457C110.113 97.9238 110.111 97.7142 110.156 97.5359C110.18 97.4417 110.218 97.3572 110.297 97.313C110.363 97.3503 110.487 97.4186 110.551 97.4466C110.69 97.508 110.826 97.5374 110.958 97.5374C110.968 97.5374 111.929 97.1702 111.543 96.4754C111.428 96.2677 110.82 95.1901 110.426 94.4079C109.7 92.9699 109.786 92.9768 109.14 91.4817C108.246 89.4128 107.183 88.0199 105.934 86.1988C105.806 86.0128 105.667 85.702 105.516 85.4339C105.366 85.1648 105.199 84.9311 105.04 84.7907C104.794 84.5732 104.528 84.502 104.279 84.5325C104.099 84.5541 103.908 84.6287 103.728 84.8074C103.457 85.076 103.455 85.5139 103.724 85.7849C103.863 85.9254 104.047 85.9936 104.231 85.9887Z" fill="#3D493A" fill-opacity="0.1"/>
<path fill-rule="evenodd" clip-rule="evenodd" d="M108.094 70.898C111.223 67.9581 115.324 63.1956 117.204 59.3243C118.677 56.291 119.557 52.9706 120.895 49.8759C121.046 49.5259 120.884 49.1188 120.534 48.9671C120.184 48.8159 119.777 48.9774 119.626 49.3275C118.296 52.4035 117.424 55.7053 115.96 58.7203C114.144 62.4601 110.17 67.0507 107.147 69.8905C106.87 70.1517 106.856 70.5897 107.117 70.8676C107.378 71.1455 107.816 71.1592 108.094 70.898Z" fill="#3D493A" fill-opacity="0.1"/>
<path fill-rule="evenodd" clip-rule="evenodd" d="M121.734 47.6665C121.701 48.1781 121.915 48.8095 122.305 49.462C123.023 50.6644 124.339 52.0082 124.82 52.723C128.995 58.9319 133.819 61.8021 140.756 64.7495C141.639 65.1246 142.695 65.294 143.555 65.7201C143.896 65.8895 144.311 65.7496 144.481 65.4079C144.651 65.0661 144.511 64.6508 144.168 64.4814C143.286 64.044 142.204 63.8623 141.297 63.4769C134.633 60.6459 129.978 57.9161 125.966 51.9517C125.557 51.3419 124.535 50.2736 123.801 49.2278C123.421 48.6848 123.086 48.1732 123.113 47.7558C123.138 47.3753 122.849 47.0459 122.468 47.0214C122.088 46.9968 121.759 47.2855 121.734 47.6665Z" fill="#3D493A" fill-opacity="0.1"/>
<path fill-rule="evenodd" clip-rule="evenodd" d="M142.316 61.9332C143.559 63.9722 146.292 66.0289 149.505 67.9398C154.157 70.7069 159.813 73.206 163.062 75.0472C163.394 75.2352 163.816 75.1183 164.004 74.7864C164.192 74.4545 164.075 74.0323 163.743 73.8443C160.5 72.007 154.855 69.5138 150.211 66.7516C147.226 64.9762 144.651 63.1081 143.496 61.2134C143.298 60.8879 142.872 60.7848 142.546 60.9832C142.22 61.182 142.117 61.6077 142.316 61.9332Z" fill="#3D493A" fill-opacity="0.1"/>
<path fill-rule="evenodd" clip-rule="evenodd" d="M112.003 70.9647C111.682 71.2318 111.412 71.5347 111.234 71.8798L111.148 71.9579C110.868 72.2166 110.85 72.6541 111.109 72.9345C111.368 73.2148 111.805 73.2325 112.086 72.9732C113.878 71.3182 118.051 70.0642 120.467 69.722C121.74 69.5418 123.102 69.6219 124.346 69.2924C124.632 69.2168 125.228 68.989 125.488 68.6782C125.732 68.388 125.816 68.0463 125.659 67.657C125.453 67.1478 124.964 66.787 124.337 66.5866C123.674 66.3745 122.852 66.3343 122.392 66.2832C119.378 65.9513 116.887 67.4665 114.382 68.8461C113.5 69.3322 112.835 70.0407 112.165 70.7786C112.11 70.8395 112.056 70.9013 112.003 70.9647Z" fill="#3D493A" fill-opacity="0.1"/>
<path fill-rule="evenodd" clip-rule="evenodd" d="M156.107 66.9936C154.251 66.5429 152.38 66.4177 149.825 66.8399C148.307 67.0903 147.066 67.4247 145.904 68.4803C145.664 68.6993 145.154 69.4205 145.113 69.9704C145.081 70.4103 145.241 70.7844 145.661 71.0196C146.074 71.2504 146.655 71.2562 147.267 71.0923C147.887 70.9253 148.554 70.591 148.952 70.4879C151.027 69.9512 153.173 69.8206 155.313 69.8206C156.726 69.8206 158.119 69.829 159.519 70.0425C159.789 70.0838 161.54 70.3941 161.858 70.3469C162.148 70.3037 162.294 70.1447 162.365 70.0431C162.484 69.8732 162.525 69.6817 162.471 69.4662C162.362 69.0341 162.032 68.6349 161.543 68.3222C160.715 67.7929 159.398 67.4836 158.803 67.3903C157.893 67.2479 156.998 67.106 156.107 66.9936Z" fill="#3D493A" fill-opacity="0.1"/>
<path fill-rule="evenodd" clip-rule="evenodd" d="M114.536 83.9181C115.076 84.3148 115.495 84.8504 116.072 85.2024C117.864 86.2978 121.367 86.3307 123.267 85.577C124.232 85.1946 125.057 84.3148 125.852 83.6844C126.151 83.4472 126.201 83.0122 125.964 82.7132C125.727 82.4142 125.292 82.3641 124.993 82.6013C124.297 83.1531 123.602 83.9573 122.758 84.2922C121.183 84.9167 118.278 84.9304 116.792 84.0231C116.249 83.6912 115.862 83.1772 115.354 82.8035C115.046 82.5782 114.613 82.6445 114.388 82.9518C114.162 83.2597 114.229 83.6927 114.536 83.9181Z" fill="#3D493A" fill-opacity="0.1"/>
<path fill-rule="evenodd" clip-rule="evenodd" d="M146.232 82.0325C146.862 82.6163 147.405 83.1991 148.173 83.613C148.719 83.907 149.281 84.3077 149.844 84.5561C152.486 85.7197 154.93 84.6906 157.265 83.4288C157.6 83.2472 157.725 82.8274 157.543 82.492C157.362 82.1567 156.942 82.0315 156.607 82.2127C154.648 83.2722 152.618 84.2679 150.402 83.2909C149.87 83.0567 149.344 82.6737 148.829 82.3963C148.168 82.0399 147.714 81.5219 147.173 81.0191C146.893 80.7599 146.456 80.7761 146.196 81.0555C145.937 81.3353 145.953 81.7728 146.232 82.0325Z" fill="#3D493A" fill-opacity="0.1"/>
<path fill-rule="evenodd" clip-rule="evenodd" d="M133.094 94.6579C134.694 95.9261 137.336 95.8839 139.142 95.2328C139.501 95.1032 139.687 94.707 139.558 94.3481C139.428 93.9892 139.032 93.8031 138.673 93.9322C137.266 94.4394 135.199 94.5632 133.953 93.5748C133.654 93.3377 133.219 93.3878 132.981 93.6868C132.744 93.9858 132.795 94.4208 133.094 94.6579Z" fill="#3D493A" fill-opacity="0.1"/>
<path fill-rule="evenodd" clip-rule="evenodd" d="M128.278 102.745C132.904 106.046 138.724 105.507 143.473 102.761C143.803 102.57 143.916 102.147 143.725 101.817C143.534 101.487 143.111 101.374 142.78 101.565C138.499 104.041 133.251 104.596 129.081 101.62C128.771 101.399 128.338 101.471 128.117 101.781C127.895 102.092 127.967 102.524 128.278 102.745Z" fill="#3D493A" fill-opacity="0.1"/>
<path fill-rule="evenodd" clip-rule="evenodd" d="M119.222 32.1687C113.724 33.4472 109.968 37.0643 106.473 41.2312C98.3069 50.9677 95.3772 67.0373 100.679 78.8629C100.835 79.211 101.244 79.3666 101.592 79.211C101.94 79.0549 102.096 78.6454 101.94 78.2973C96.8428 66.9273 99.6806 51.4807 107.532 42.1193C110.832 38.1851 114.345 34.7223 119.536 33.515C119.907 33.4286 120.139 33.0569 120.052 32.6852C119.966 32.3136 119.594 32.0823 119.222 32.1687Z" fill="#3D493A" fill-opacity="0.1"/>
<path fill-rule="evenodd" clip-rule="evenodd" d="M123.782 31.3315C124.317 30.7482 125.851 30.0059 127.434 29.4084C129.009 28.8138 130.641 28.3548 131.432 28.4657C131.809 28.5187 132.159 28.2551 132.212 27.8775C132.265 27.4994 132.001 27.1499 131.624 27.0969C130.702 26.9677 128.782 27.4224 126.946 28.1151C125.118 28.805 123.381 29.7241 122.764 30.3972C122.506 30.678 122.525 31.1155 122.806 31.3737C123.087 31.6315 123.524 31.6124 123.782 31.3315Z" fill="#3D493A" fill-opacity="0.1"/>
<path fill-rule="evenodd" clip-rule="evenodd" d="M137.411 27.2189C144.949 26.2684 153.979 28.11 159.757 33.1504C168.521 40.7963 172.512 55.2364 172.512 66.4954C172.512 69.78 172.595 73.6794 171.595 76.8525C171.305 77.7741 170.612 78.4428 170.233 79.3187C170.082 79.6688 170.243 80.0758 170.593 80.2275C170.943 80.3787 171.351 80.2172 171.502 79.8671C171.9 78.9475 172.609 78.2356 172.913 77.2679C173.954 73.9671 173.894 69.9126 173.894 66.4954C173.894 54.876 169.709 39.9995 160.665 32.1085C154.606 26.8217 145.144 24.8504 137.238 25.8471C136.859 25.8947 136.591 26.2409 136.638 26.6194C136.686 26.998 137.032 27.2665 137.411 27.2189Z" fill="#3D493A" fill-opacity="0.1"/>
<path fill-rule="evenodd" clip-rule="evenodd" d="M121.153 29.936C120.563 29.8309 119.936 29.4701 119.341 29.0149C118.379 28.278 117.511 27.2803 117.04 26.5031C113.688 20.9629 112.288 15.6079 117.342 10.3466C117.606 10.0716 117.597 9.63368 117.322 9.36954C117.047 9.10539 116.609 9.11374 116.345 9.38918C110.766 15.1964 112.157 21.1034 115.858 27.219C116.781 28.7444 119.032 30.9621 120.911 31.297C121.286 31.3638 121.646 31.1134 121.713 30.7378C121.779 30.3622 121.529 30.0033 121.153 29.936Z" fill="#3D493A" fill-opacity="0.1"/>
<path fill-rule="evenodd" clip-rule="evenodd" d="M118.129 13.8819C117.587 11.7938 118.377 10.0263 119.67 8.55043C121.063 6.96065 123.033 5.70032 124.736 4.74095C132.423 0.41055 140.688 1.46908 146.962 7.68974C151.09 11.782 150.601 16.1193 149.085 21.1272C148.513 23.0195 147.889 24.2822 146.122 25.2833C145.791 25.4714 145.674 25.8936 145.862 26.2255C146.05 26.5574 146.472 26.6743 146.804 26.4862C148.926 25.2838 149.721 23.8001 150.409 21.5274C152.082 15.997 152.494 11.2277 147.935 6.70779C141.194 0.0251256 132.316 -1.1154 124.058 3.53659C122.23 4.56665 120.126 5.93303 118.631 7.63917C117.036 9.45872 116.123 11.6549 116.791 14.229C116.887 14.5982 117.265 14.8202 117.634 14.7244C118.003 14.6287 118.225 14.2511 118.129 13.8819Z" fill="#3D493A" fill-opacity="0.1"/>
<path fill-rule="evenodd" clip-rule="evenodd" d="M121.608 116.585C121.619 116.659 121.661 116.947 121.672 117.138C121.692 117.48 121.702 117.813 121.728 117.967C122.055 119.911 122.217 122.001 122.217 123.971C122.217 131.233 122.487 139.214 118.282 145.468C118.069 145.784 118.153 146.214 118.469 146.426C118.786 146.64 119.216 146.555 119.429 146.239C123.788 139.756 123.599 131.5 123.599 123.971C123.599 121.926 123.43 119.756 123.09 117.737C123.055 117.522 123.062 116.915 122.999 116.497C122.945 116.133 122.811 115.86 122.686 115.731C122.423 115.455 121.985 115.445 121.709 115.709C121.465 115.942 121.43 116.312 121.608 116.585Z" fill="#3D493A" fill-opacity="0.1"/>
<path fill-rule="evenodd" clip-rule="evenodd" d="M154.304 111.383C152.202 123.681 152.098 136.78 157.318 148.423C157.474 148.771 157.883 148.927 158.231 148.771C158.579 148.615 158.735 148.205 158.579 147.858C153.472 136.466 153.609 123.648 155.666 111.617C155.731 111.24 155.477 110.883 155.101 110.819C154.726 110.754 154.368 111.007 154.304 111.383Z" fill="#3D493A" fill-opacity="0.1"/>
<path fill-rule="evenodd" clip-rule="evenodd" d="M119.497 149.081C126.585 156.243 139.611 157.101 148.785 154.069C151.677 153.113 154.863 152.098 157.088 149.893C157.359 149.624 157.36 149.186 157.092 148.915C156.823 148.644 156.385 148.642 156.114 148.911C154.04 150.967 151.047 151.865 148.351 152.756C139.626 155.64 127.221 154.92 120.479 148.109C120.211 147.838 119.773 147.836 119.501 148.104C119.23 148.372 119.229 148.81 119.497 149.081Z" fill="#3D493A" fill-opacity="0.1"/>
<path fill-rule="evenodd" clip-rule="evenodd" d="M117.509 145.715C115.545 146.249 113.678 147.564 111.844 148.433C109.764 149.419 107.492 149.727 105.369 150.569C102.919 151.54 100.532 152.568 98.0206 153.398C96.0189 154.059 93.6166 154.549 91.3217 155.262C88.9135 156.011 86.6261 157.012 84.9774 158.646C83.418 160.192 82.441 161.934 81.3122 163.772C79.3208 167.015 76.9317 170.092 75.1235 173.454C73.4517 176.561 71.9042 179.75 70.1759 182.834C69.3521 184.305 64.6564 191.505 62.7332 195.1C62.1897 196.116 61.8711 196.889 61.8367 197.23C61.6826 198.759 62.2776 200.079 63.235 201.236C64.5184 202.786 66.4764 204.034 67.8163 205.153C71.4343 208.173 77.9888 212.639 84.3759 214.706C88.7829 216.132 93.1133 216.399 96.4181 214.434C96.746 214.239 96.854 213.814 96.6591 213.486C96.4637 213.158 96.0395 213.05 95.7116 213.245C92.7176 215.027 88.7937 214.682 84.8016 213.391C78.5898 211.381 72.2209 207.029 68.702 204.091C67.6214 203.189 66.119 202.208 64.9304 201.037C63.8816 200.005 63.0647 198.826 63.2119 197.369C63.2257 197.231 63.3327 196.998 63.4815 196.68C63.7682 196.068 64.2253 195.232 64.7782 194.275C66.9767 190.469 70.661 184.796 71.3818 183.51C73.1139 180.419 74.6654 177.223 76.3406 174.109C78.1366 170.77 80.5124 167.716 82.4906 164.495C83.5599 162.753 84.4726 161.093 85.9505 159.627C87.4489 158.142 89.5434 157.263 91.7327 156.582C94.0354 155.866 96.4461 155.374 98.4541 154.71C100.991 153.872 103.404 152.835 105.878 151.854C108.03 151.001 110.329 150.681 112.436 149.682C114.199 148.846 115.983 147.562 117.872 147.049C118.24 146.949 118.457 146.569 118.357 146.2C118.257 145.833 117.877 145.615 117.509 145.715Z" fill="#3D493A" fill-opacity="0.1"/>
<path fill-rule="evenodd" clip-rule="evenodd" d="M97.5052 187.765C97.0815 188.911 96.9686 190.219 96.9185 191.545C96.8723 192.764 96.8792 193.998 96.6853 195.113C95.2718 203.239 94.5451 211.641 96.9651 219.639C98.8647 225.916 102.278 231.708 103.11 238.305C103.158 238.684 103.504 238.952 103.882 238.905C104.261 238.857 104.53 238.511 104.482 238.132C103.64 231.458 100.21 225.59 98.2883 219.239C95.9307 211.448 96.6706 203.265 98.0468 195.35C98.251 194.177 98.2515 192.879 98.2996 191.597C98.3443 190.422 98.4263 189.26 98.8019 188.244C98.9339 187.886 98.7508 187.488 98.3934 187.356C98.0355 187.224 97.6373 187.407 97.5052 187.765Z" fill="#3D493A" fill-opacity="0.1"/>
<path fill-rule="evenodd" clip-rule="evenodd" d="M178.016 183.915C177.455 187.777 178.733 191.926 179.37 195.719C180.054 199.783 180.142 204.034 179.554 208.115C178.817 213.228 176.652 218.51 174.697 223.265C173.297 226.675 171.581 230.263 171.115 233.959C171.067 234.337 171.336 234.683 171.714 234.731C172.093 234.779 172.439 234.51 172.487 234.132C172.937 230.555 174.62 227.09 175.976 223.791C177.972 218.933 180.169 213.534 180.922 208.312C181.53 204.091 181.44 199.694 180.734 195.49C180.119 191.833 178.843 187.837 179.384 184.113C179.439 183.736 179.178 183.385 178.8 183.33C178.423 183.275 178.071 183.537 178.016 183.915Z" fill="#3D493A" fill-opacity="0.1"/>
<path fill-rule="evenodd" clip-rule="evenodd" d="M180.758 211.968C182.848 213.058 186.141 212.683 188.386 212.405C193.77 211.737 201.243 208.905 205.543 205.495C207.35 204.062 208.528 202.018 210.313 200.642C210.615 200.409 210.671 199.975 210.438 199.672C210.205 199.37 209.771 199.314 209.469 199.547C207.679 200.927 206.496 202.975 204.684 204.412C200.558 207.685 193.383 210.393 188.216 211.033C186.211 211.281 183.264 211.716 181.398 210.742C181.06 210.566 180.642 210.697 180.465 211.035C180.289 211.374 180.42 211.791 180.758 211.968Z" fill="#3D493A" fill-opacity="0.1"/>
<path fill-rule="evenodd" clip-rule="evenodd" d="M159.654 149.305C161.033 149.647 162.209 150.314 163.541 150.771C166.752 151.873 170.082 152.684 173.394 153.381C175.464 153.816 177.744 153.911 179.971 154.189C182.074 154.452 184.132 154.877 185.883 155.993C189.172 158.09 190.625 161.318 192.687 164.462C195.23 168.34 196.949 172.67 199.105 176.767C200.523 179.461 202.139 182.032 203.433 184.796C204.203 186.439 206.694 190.077 208.566 193.454C209.738 195.569 210.689 197.562 210.689 198.833C210.689 199.215 210.998 199.524 211.38 199.524C211.761 199.524 212.071 199.215 212.071 198.833C212.071 197.749 211.514 196.186 210.659 194.461C208.804 190.718 205.577 186.115 204.685 184.21C203.382 181.426 201.756 178.836 200.328 176.123C198.152 171.988 196.41 167.62 193.843 163.704C191.672 160.393 190.09 157.036 186.626 154.828C184.703 153.602 182.453 153.106 180.142 152.817C177.954 152.544 175.713 152.456 173.679 152.028C170.422 151.343 167.147 150.547 163.989 149.464C162.619 148.994 161.405 148.315 159.986 147.964C159.616 147.872 159.241 148.098 159.149 148.468C159.058 148.838 159.283 149.213 159.654 149.305Z" fill="#3D493A" fill-opacity="0.1"/>
<path fill-rule="evenodd" clip-rule="evenodd" d="M131.429 234.088C133.748 223.347 134.35 212.157 137.485 201.59C137.773 200.619 138.776 196.675 139.887 194.292C140.105 193.823 140.325 193.42 140.546 193.124C140.617 193.029 140.687 192.947 140.756 192.882C140.793 192.848 140.817 192.81 140.852 192.803C140.946 192.785 140.999 192.845 141.04 192.921C141.136 193.101 141.191 193.338 141.229 193.601C141.418 194.883 141.16 196.681 141.16 197.181C141.16 202.775 140.765 208.387 140.947 213.985C141.237 222.885 143.612 231.693 143.922 240.597C143.967 241.894 144.232 243.396 144.408 244.891C144.572 246.278 144.664 247.657 144.368 248.83C144.274 249.2 144.499 249.576 144.869 249.669C145.239 249.762 145.615 249.538 145.708 249.168C146.041 247.846 145.965 246.292 145.781 244.729C145.61 243.274 145.348 241.812 145.303 240.549C144.994 231.646 142.619 222.839 142.329 213.939C142.147 208.357 142.542 202.76 142.542 197.181C142.542 196.551 142.876 194.012 142.432 192.676C142.258 192.157 141.972 191.783 141.606 191.584C141.325 191.432 140.989 191.367 140.583 191.447C140.275 191.509 139.938 191.709 139.62 192.072C139.294 192.444 138.956 193.016 138.634 193.707C137.493 196.154 136.455 200.201 136.16 201.197C133.015 211.797 132.404 223.022 130.078 233.796C129.998 234.169 130.235 234.537 130.608 234.617C130.981 234.698 131.349 234.461 131.429 234.088Z" fill="#3D493A" fill-opacity="0.1"/>
<path fill-rule="evenodd" clip-rule="evenodd" d="M140.835 195.647C139.299 196.549 138.572 197.837 138.2 199.319C137.863 200.657 137.833 202.162 137.693 203.646C137.22 208.644 136.98 213.651 136.349 218.65C136.302 219.028 136.57 219.375 136.949 219.422C137.327 219.47 137.673 219.202 137.721 218.823C138.353 213.809 138.595 208.789 139.069 203.776C139.202 202.363 139.22 200.93 139.54 199.656C139.824 198.525 140.362 197.528 141.535 196.839C141.864 196.646 141.974 196.223 141.781 195.894C141.588 195.565 141.164 195.454 140.835 195.647Z" fill="#3D493A" fill-opacity="0.1"/>
<path fill-rule="evenodd" clip-rule="evenodd" d="M141.84 196.805C141.985 197.084 142.209 197.322 142.487 197.575C142.918 197.967 143.515 198.442 143.879 199.631C145.211 203.97 145.881 211.304 146.475 216.015C146.522 216.393 146.868 216.662 147.247 216.614C147.625 216.566 147.894 216.22 147.846 215.842C147.243 211.064 146.552 203.627 145.201 199.225C144.791 197.892 144.167 197.239 143.642 196.757C143.404 196.538 143.18 196.385 143.066 196.166C142.889 195.828 142.471 195.697 142.133 195.873C141.795 196.049 141.664 196.467 141.84 196.805Z" fill="#3D493A" fill-opacity="0.1"/>
<path fill-rule="evenodd" clip-rule="evenodd" d="M157.429 232.653C157.202 232.193 156.946 231.13 156.883 230.944C156.119 228.67 155.501 226.392 154.838 224.092C153.356 218.949 151.691 213.872 150.236 208.719C149.312 205.449 148.569 202.23 147.386 199.046C146.912 197.77 146.414 195.289 145.386 193.681C144.55 192.372 143.393 191.593 141.771 191.995C141.401 192.086 141.175 192.462 141.266 192.832C141.358 193.202 141.733 193.428 142.103 193.336C143.072 193.096 143.722 193.644 144.222 194.425C145.197 195.951 145.64 198.317 146.09 199.528C147.26 202.677 147.992 205.861 148.905 209.094C150.362 214.25 152.027 219.329 153.51 224.475C154.179 226.794 154.802 229.092 155.573 231.385C155.645 231.599 155.966 232.845 156.225 233.336C156.458 233.776 156.815 233.891 157.007 233.891C157.389 233.891 157.698 233.582 157.698 233.201C157.698 232.978 157.593 232.78 157.429 232.653Z" fill="#3D493A" fill-opacity="0.1"/>
<path fill-rule="evenodd" clip-rule="evenodd" d="M157.8 234.541C158.144 235.106 159.015 235.583 160.178 235.882C162.415 236.457 165.794 236.554 167.069 236.681C176.618 237.627 187.046 236.092 196.598 235.231C196.978 235.197 197.259 234.861 197.225 234.481C197.19 234.101 196.854 233.82 196.474 233.855C187.007 234.708 176.671 236.244 167.205 235.305C165.969 235.183 162.692 235.101 160.522 234.543C160.105 234.436 159.731 234.312 159.432 234.161C159.231 234.059 159.064 233.959 158.981 233.822C158.782 233.496 158.357 233.393 158.031 233.591C157.705 233.789 157.602 234.214 157.8 234.541Z" fill="#3D493A" fill-opacity="0.1"/>
<path fill-rule="evenodd" clip-rule="evenodd" d="M190.38 232.986C190.224 232.652 188.757 229.509 188.528 229.026C186.039 223.782 184.098 218.377 182.791 212.705C182.705 212.333 182.334 212.101 181.962 212.187C181.59 212.272 181.358 212.644 181.443 213.015C182.773 218.785 184.747 224.284 187.279 229.619C187.504 230.091 188.526 232.528 189.061 233.484C189.232 233.79 189.397 233.984 189.489 234.056C189.66 234.19 189.826 234.219 189.952 234.219C190.333 234.219 190.642 233.909 190.642 233.528C190.642 233.308 190.54 233.112 190.38 232.986ZM189.999 232.838L190.017 232.84L190.014 232.839L189.999 232.838ZM189.985 232.837C189.974 232.837 189.962 232.836 189.952 232.836L189.985 232.837Z" fill="#3D493A" fill-opacity="0.1"/>
<path fill-rule="evenodd" clip-rule="evenodd" d="M207.566 203.293C209.835 210.238 212.265 217.19 213.963 224.299C214.67 227.258 214.994 230.345 215.875 233.257C217.887 239.905 219.868 246.739 219.868 253.721C219.868 254.102 220.178 254.412 220.559 254.412C220.941 254.412 221.25 254.102 221.25 253.721C221.25 246.604 219.249 239.633 217.198 232.856C216.325 229.97 216.008 226.91 215.307 223.978C213.6 216.832 211.161 209.844 208.88 202.864C208.761 202.501 208.37 202.303 208.008 202.421C207.645 202.54 207.447 202.931 207.566 203.293Z" fill="#3D493A" fill-opacity="0.1"/>
<path fill-rule="evenodd" clip-rule="evenodd" d="M145.826 249.964C148.828 251.453 151.13 251.393 153.835 249.381C154.142 249.153 154.206 248.72 153.978 248.414C153.75 248.108 153.317 248.044 153.011 248.272C150.792 249.921 148.902 249.946 146.44 248.726C146.098 248.556 145.683 248.696 145.513 249.038C145.344 249.38 145.484 249.795 145.826 249.964Z" fill="#3D493A" fill-opacity="0.1"/>
<path fill-rule="evenodd" clip-rule="evenodd" d="M155.061 249.895C157.248 250.173 158.927 251.263 160.975 251.88C166.466 253.537 171.947 255.475 177.442 257.032C184.145 258.93 190.989 259.758 197.849 260.891C207.65 262.511 214.968 263.541 220.681 255.611C220.904 255.301 220.834 254.869 220.525 254.646C220.215 254.423 219.783 254.493 219.56 254.803C214.197 262.246 207.274 261.048 198.074 259.528C191.265 258.403 184.471 257.587 177.818 255.702C172.331 254.148 166.858 252.212 161.375 250.557C159.252 249.917 157.502 248.812 155.235 248.524C154.857 248.476 154.511 248.744 154.463 249.122C154.414 249.501 154.683 249.847 155.061 249.895Z" fill="#3D493A" fill-opacity="0.1"/>
<path fill-rule="evenodd" clip-rule="evenodd" d="M168.638 254.822C170.065 259.621 172.577 263.886 174.171 268.626C174.292 268.987 174.685 269.182 175.047 269.061C175.408 268.939 175.603 268.547 175.481 268.185C173.893 263.461 171.385 259.211 169.963 254.428C169.854 254.062 169.469 253.854 169.104 253.963C168.738 254.071 168.529 254.457 168.638 254.822Z" fill="#3D493A" fill-opacity="0.1"/>
<path fill-rule="evenodd" clip-rule="evenodd" d="M63.5603 267.347C74.3004 269.359 85.7573 264.808 95.9259 261.783C108.912 257.921 122.186 255.388 134.903 251.186C135.601 250.955 136.381 251.07 137.155 251.163C138.137 251.282 139.111 251.377 139.968 251.094C141.766 250.5 143.616 250.002 145.262 249.023C145.59 248.828 145.698 248.404 145.503 248.076C145.308 247.748 144.883 247.64 144.556 247.835C142.996 248.763 141.238 249.219 139.534 249.782C138.86 250.005 138.093 249.884 137.321 249.791C136.341 249.673 135.354 249.58 134.469 249.873C121.765 254.071 108.505 256.6 95.5317 260.458C85.5629 263.423 74.3441 267.961 63.8147 265.988C63.4396 265.918 63.0782 266.165 63.008 266.54C62.9378 266.915 63.1852 267.277 63.5603 267.347Z" fill="#3D493A" fill-opacity="0.1"/>
<path fill-rule="evenodd" clip-rule="evenodd" d="M96.6159 239.721C96.3189 239.64 95.7008 239.536 94.87 239.446C91.2162 239.052 82.9973 238.559 82.5662 238.613C79.5138 238.991 76.4791 239.544 73.4989 240.312C73.1297 240.407 72.9073 240.785 73.0025 241.154C73.0973 241.523 73.4748 241.746 73.844 241.651C76.7663 240.898 79.7426 240.356 82.7361 239.985C83.1564 239.933 91.1617 240.436 94.7218 240.82C95.442 240.898 96.1535 241.023 96.1952 241.03C96.257 241.056 96.3616 241.088 96.5128 241.1C96.7284 241.116 97.2449 241.109 97.9593 241.082C101.346 240.952 109.427 240.401 110.056 240.353C114.836 239.989 119.954 239.09 124.69 238.151C126.294 237.833 127.955 237.068 129.528 237.068C129.91 237.068 130.22 236.758 130.22 236.377C130.22 235.995 129.91 235.686 129.528 235.686C127.87 235.686 126.112 236.459 124.421 236.795C119.738 237.723 114.677 238.615 109.951 238.975C109.324 239.023 101.279 239.572 97.9067 239.7C97.2513 239.725 96.669 239.722 96.6159 239.721Z" fill="#3D493A" fill-opacity="0.1"/>
<path fill-rule="evenodd" clip-rule="evenodd" d="M91.373 215.804C90.7097 219.386 89.3679 222.856 88.4139 226.369C87.3868 230.151 86.8399 234.08 85.8805 237.885C85.7872 238.255 86.0116 238.631 86.3818 238.724C86.7515 238.818 87.1276 238.593 87.2209 238.224C88.1783 234.426 88.7228 230.505 89.7479 226.731C90.7117 223.182 92.0619 219.675 92.7321 216.055C92.8018 215.68 92.5533 215.319 92.1782 215.25C91.8031 215.181 91.4423 215.429 91.373 215.804Z" fill="#3D493A" fill-opacity="0.1"/>
<path fill-rule="evenodd" clip-rule="evenodd" d="M68.5941 205.199C68.8361 205.081 68.9977 204.827 68.983 204.541C68.9633 204.16 68.6378 203.867 68.2568 203.887C67.9632 203.902 67.5994 204.099 67.3475 204.582C66.9243 205.393 66.6292 207.409 66.5222 207.742C65.2903 211.581 64.1439 215.471 63.1094 219.367C60.1896 230.368 57.8516 241.756 57.8516 253.191C57.8516 257.215 57.9714 263.125 60.522 266.496C60.7518 266.8 61.1858 266.861 61.4897 266.63C61.7941 266.4 61.854 265.967 61.6242 265.662C59.2376 262.508 59.2337 256.956 59.2337 253.191C59.2337 241.875 61.556 230.608 64.4454 219.721C65.474 215.848 66.6135 211.981 67.8385 208.165C67.9166 207.921 68.0904 206.754 68.3457 205.851C68.4124 205.615 68.5416 205.316 68.5941 205.199Z" fill="#3D493A" fill-opacity="0.1"/>
<path fill-rule="evenodd" clip-rule="evenodd" d="M100.881 270.553C100.914 270.429 101.205 269.333 101.61 268.373C102.884 265.354 105.285 260.756 105.713 259.351C105.824 258.987 105.619 258.6 105.254 258.489C104.889 258.377 104.502 258.584 104.391 258.948C103.906 260.536 100.862 266.25 99.8586 269.046C99.6573 269.606 99.5351 270.066 99.5046 270.379C99.4816 270.618 99.5076 270.807 99.5537 270.944C100.111 272.602 101.866 274.047 104.222 275.204C109.331 277.714 117.255 279.017 119.913 279.347C137.798 281.563 159.668 282.113 174.319 270.008C174.613 269.765 174.655 269.329 174.412 269.035C174.169 268.741 173.733 268.7 173.439 268.943C159.076 280.809 137.616 280.148 120.083 277.975C117.5 277.655 109.796 276.402 104.831 273.963C102.893 273.011 101.365 271.911 100.881 270.553Z" fill="#3D493A" fill-opacity="0.1"/>
<path fill-rule="evenodd" clip-rule="evenodd" d="M100.742 272.38C99.4052 274.504 97.8051 276.383 96.5491 278.586C93.4997 283.935 91.2024 289.636 88.7795 295.241C88.6282 295.591 88.7893 295.998 89.1393 296.15C89.4899 296.301 89.8969 296.14 90.0481 295.79C92.451 290.231 94.7262 284.575 97.7501 279.27C98.9957 277.086 100.585 275.224 101.912 273.116C102.115 272.793 102.018 272.366 101.695 272.163C101.372 271.96 100.945 272.057 100.742 272.38Z" fill="#3D493A" fill-opacity="0.1"/>
<path fill-rule="evenodd" clip-rule="evenodd" d="M174.108 270.897C175.761 272.929 176.758 275.23 178.249 277.318C182.285 282.967 185.148 289.484 188.266 295.667C188.438 296.007 188.854 296.144 189.194 295.973C189.535 295.801 189.672 295.385 189.5 295.044C186.35 288.799 183.451 282.22 179.374 276.514C177.865 274.403 176.852 272.079 175.18 270.025C174.94 269.729 174.504 269.684 174.208 269.925C173.912 270.166 173.867 270.601 174.108 270.897Z" fill="#3D493A" fill-opacity="0.1"/>
<path fill-rule="evenodd" clip-rule="evenodd" d="M103.471 315.271C105.476 315.597 107.329 316.402 109.353 316.718C121.834 318.672 134.428 319.465 147.098 317.934C173.219 314.776 196.122 305.211 222.84 312.079C223.21 312.174 223.587 311.951 223.682 311.581C223.777 311.212 223.554 310.835 223.185 310.74C196.289 303.827 173.226 313.382 146.932 316.561C134.39 318.078 121.922 317.287 109.567 315.353C107.545 315.036 105.695 314.233 103.693 313.907C103.316 313.846 102.961 314.102 102.9 314.478C102.839 314.855 103.095 315.21 103.471 315.271Z" fill="#3D493A" fill-opacity="0.1"/>
<path fill-rule="evenodd" clip-rule="evenodd" d="M191.826 297.323C196.009 297.23 200.437 298.474 204.6 299.007C221.445 301.162 239.48 304.11 252.908 315.321C258.62 320.09 261.48 325.613 261.624 331.301C261.767 337.005 259.186 342.851 254.112 348.241C251.686 350.817 248.738 353.429 245.346 354.691C233.666 359.033 226.619 358.833 214.367 358.496C209.768 358.369 205.107 358.48 200.535 357.876C193.633 356.963 186.881 355.372 179.939 354.562C179.56 354.518 179.217 354.79 179.173 355.169C179.128 355.547 179.4 355.891 179.779 355.935C186.715 356.744 193.459 358.334 200.353 359.246C204.973 359.857 209.682 359.75 214.329 359.878C226.787 360.221 233.95 360.402 245.827 355.986C249.416 354.652 252.552 351.914 255.118 349.188C260.481 343.492 263.157 337.293 263.005 331.266C262.853 325.222 259.863 319.327 253.794 314.26C240.162 302.879 221.876 299.823 204.775 297.635C200.546 297.095 196.045 295.847 191.795 295.941C191.414 295.949 191.111 296.266 191.12 296.647C191.128 297.028 191.445 297.331 191.826 297.323Z" fill="#3D493A" fill-opacity="0.1"/>
<path fill-rule="evenodd" clip-rule="evenodd" d="M89.0016 329.812C102.591 332.351 115.343 337.817 128.456 342.033C140.974 346.058 153.669 349.633 166.304 353.316C169.577 354.271 173.13 354.116 176.46 354.85C176.833 354.932 177.202 354.696 177.284 354.323C177.366 353.951 177.131 353.582 176.758 353.5C173.457 352.772 169.935 352.935 166.691 351.99C154.068 348.309 141.385 344.738 128.88 340.717C115.711 336.483 102.903 331.003 89.2554 328.453C88.8808 328.383 88.5195 328.631 88.4493 329.006C88.3795 329.38 88.627 329.742 89.0016 329.812Z" fill="#3D493A" fill-opacity="0.1"/>
<path fill-rule="evenodd" clip-rule="evenodd" d="M84.7575 327.091C78.4455 325.498 72.1871 323.651 65.8535 322.174C61.9002 321.252 57.8099 320.796 53.8349 319.934C51.0997 319.341 48.4426 318.627 45.6833 318.138C38.4816 316.863 31.5712 315.105 24.4584 313.93C23.2452 313.73 21.7517 313.663 20.3814 313.347C19.1839 313.07 18.0738 312.61 17.4434 311.569C16.9686 310.784 16.9833 309.982 17.3147 309.197C17.6982 308.288 18.4695 307.408 19.4264 306.575C22.4798 303.916 27.4151 301.8 29.0574 301.311C33.8616 299.882 39.0944 300.177 44.0135 299.635C46.8454 299.323 49.7544 299.913 52.5589 299.357C55.9353 298.688 59.5229 299.27 62.8438 298.172C65.1637 297.405 67.7619 296.289 69.9978 295.081C71.3922 294.326 72.4399 293.574 73.4626 292.976C74.8673 292.155 76.2209 291.651 78.5221 291.936C80.2749 292.153 81.5902 293.159 82.7426 294.384C84.0014 295.722 85.0683 297.321 86.2182 298.604C90.5751 303.463 95.0248 308.231 99.6085 312.776C99.8796 313.044 100.317 313.042 100.586 312.771C100.855 312.5 100.853 312.062 100.582 311.794C96.017 307.269 91.5865 302.52 87.2473 297.681C86.0905 296.391 85.0158 294.783 83.7491 293.436C82.3758 291.977 80.7816 290.823 78.692 290.564C75.9966 290.23 74.4102 290.82 72.7645 291.783C71.7536 292.374 70.7191 293.119 69.3404 293.864C67.1742 295.036 64.6575 296.117 62.4098 296.859C59.1434 297.939 55.6113 297.343 52.2903 298.001C49.5247 298.55 46.6549 297.953 43.8622 298.261C38.8621 298.812 33.5464 298.534 28.6631 299.986C26.6354 300.589 19.8727 303.554 17.054 307.025C15.6773 308.719 15.2021 310.535 16.2611 312.284C16.9318 313.393 17.9825 314.051 19.1966 314.451C20.8129 314.985 22.7307 315.046 24.2331 315.294C31.3404 316.468 38.246 318.226 45.4427 319.499C48.1843 319.985 50.8243 320.695 53.5423 321.284C57.5099 322.145 61.5933 322.599 65.5393 323.52C71.865 324.995 78.1151 326.84 84.4197 328.431C84.7894 328.524 85.1655 328.299 85.2588 327.93C85.3521 327.56 85.1277 327.184 84.7575 327.091Z" fill="#3D493A" fill-opacity="0.1"/>
<path fill-rule="evenodd" clip-rule="evenodd" d="M127.467 318.738C127.478 319.331 127.185 319.985 126.853 320.615C126.461 321.357 125.995 322.064 125.708 322.618C124.481 324.987 123.004 328.282 122.393 331.477C121.969 333.702 121.968 335.879 122.701 337.695C122.844 338.049 123.247 338.22 123.6 338.078C123.954 337.935 124.126 337.532 123.983 337.178C123.342 335.59 123.38 333.683 123.752 331.737C124.336 328.676 125.76 325.522 126.935 323.254C127.282 322.583 127.888 321.692 128.314 320.783C128.642 320.08 128.861 319.365 128.849 318.712C128.842 318.331 128.527 318.027 128.145 318.034C127.764 318.041 127.46 318.356 127.467 318.738Z" fill="#3D493A" fill-opacity="0.1"/>
<path fill-rule="evenodd" clip-rule="evenodd" d="M31.0222 316.378C30.433 315.946 29.5513 315.84 28.4392 316.123C27.0949 316.466 25.3397 317.374 23.3856 318.646C16.0131 323.45 5.66433 333.469 3.90222 336.09C2.17349 338.66 0.282754 343.228 0.81939 346.42C1.43802 350.099 4.57141 354.179 8.70788 357.811C14.8107 363.168 23.0586 367.573 28.1583 368.416C48.1695 371.722 68.3584 372.708 88.7294 373.339C96.5134 373.58 104.394 374.383 112.19 373.928C123.961 373.242 144.124 370.446 155.369 371.403C177.425 373.279 195.29 373.874 217.498 378.632C225.391 380.323 237.52 382.197 245.157 378.743C250.364 376.388 254.182 372.893 256.229 370.208C257.154 368.994 257.723 367.928 257.928 367.187C259.178 362.679 256.388 357.694 250.541 354.064C250.217 353.863 249.79 353.963 249.589 354.287C249.388 354.611 249.487 355.037 249.811 355.239C255.023 358.473 257.71 362.801 256.596 366.818C256.36 367.671 255.526 368.999 254.2 370.497C252.122 372.845 248.839 375.561 244.588 377.484C237.188 380.83 225.436 378.919 217.788 377.281C195.518 372.509 177.604 371.907 155.486 370.025C144.19 369.065 123.934 371.859 112.11 372.548C104.355 373 96.5153 372.198 88.7722 371.957C68.463 371.329 48.3345 370.349 28.3837 367.052C23.4587 366.238 15.5138 361.946 9.62011 356.772C5.75859 353.382 2.76022 349.625 2.18283 346.191C1.69677 343.301 3.4844 339.188 5.04913 336.862C6.77442 334.295 16.9224 324.507 24.1402 319.805C25.9382 318.634 27.5436 317.778 28.7804 317.463C29.3907 317.308 29.8812 317.255 30.2042 317.492C30.5121 317.718 30.9446 317.651 31.1705 317.344C31.3963 317.036 31.3296 316.603 31.0222 316.378Z" fill="#3D493A" fill-opacity="0.1"/>
<path fill-rule="evenodd" clip-rule="evenodd" d="M145.003 348.398C145.065 348.031 144.824 347.679 144.456 347.606C144.082 347.532 143.718 347.775 143.643 348.149C143.584 348.448 143.676 348.937 143.869 349.472C144.055 349.989 144.338 350.582 144.361 350.987C144.508 353.609 144.138 358.271 143.1 362.295C142.432 364.89 141.502 367.222 140.212 368.5C139.941 368.769 139.939 369.207 140.208 369.478C140.477 369.749 140.914 369.75 141.185 369.482C142.613 368.067 143.698 365.512 144.439 362.64C145.515 358.466 145.893 353.63 145.741 350.909C145.717 350.476 145.494 349.865 145.276 349.29C145.188 349.06 145.104 348.835 145.049 348.637C145.026 348.551 145.006 348.417 145.003 348.398Z" fill="#3D493A" fill-opacity="0.1"/>
</svg>
