<svg width="338" height="276" viewBox="0 0 338 276" fill="none" xmlns="http://www.w3.org/2000/svg">
<path fill-rule="evenodd" clip-rule="evenodd" d="M38.365 41.0231C37.5532 41.036 36.8462 41.4317 36.1783 41.8994C35.3919 42.4506 34.6595 43.1083 33.9266 43.558C27.1465 47.7193 22.5825 53.7056 17.3226 59.4415C16.3457 60.507 15.2457 61.7292 13.98 62.5539C12.5986 63.4543 11.0281 63.898 9.21596 63.2993C8.33039 63.0064 7.47114 62.1716 6.59157 61.5152C5.97444 61.0545 5.35174 60.655 4.63268 61.0111C4.41267 61.1204 4.25587 61.3464 4.12026 61.6227C3.93762 61.994 3.81172 62.4543 3.72547 62.9524C3.45149 64.5345 3.58247 66.4915 3.89888 67.4329C4.24158 68.4522 4.88866 69.6223 4.99059 70.7348C5.37434 74.9196 3.65258 78.9748 2.62587 82.9741C1.66697 86.7087 1.3464 90.4004 4.39193 94.1166C6.54312 96.7415 9.92122 98.9416 13.1014 101.183C16.426 103.527 19.5315 105.925 20.9843 108.806C21.1458 109.127 21.0171 109.517 20.697 109.679C20.3773 109.84 19.9867 109.711 19.8253 109.391C18.455 106.675 15.4878 104.454 12.3533 102.244C9.0739 99.9332 5.6059 97.6464 3.38737 94.9394C0.0258978 90.8377 0.309533 86.7738 1.36806 82.6508C2.35879 78.793 4.06768 74.8905 3.69777 70.8538C3.60414 69.8368 2.9815 68.7783 2.66832 67.8466C2.24491 66.5883 2.08714 63.7467 2.648 61.851C2.93304 60.8879 3.41964 60.1634 4.05568 59.8479C5.04549 59.3571 5.95369 59.573 6.81943 60.1002C7.34523 60.4203 7.85534 60.8621 8.36224 61.2689C8.78196 61.6066 9.19337 61.9243 9.6237 62.0664C11.0125 62.5253 12.2121 62.1563 13.2711 61.4659C14.4463 60.7002 15.4583 59.5536 16.3655 58.5638C21.7075 52.7384 26.3614 46.6773 33.2472 42.4515C33.9598 42.0138 34.6692 41.3713 35.4334 40.8358C36.3171 40.2173 37.271 39.7418 38.3443 39.7247C38.7027 39.7187 38.9983 40.0051 39.0038 40.3635C39.0098 40.7214 38.7234 41.0171 38.365 41.0231Z" fill="#3D493A" fill-opacity="0.1"/>
<path fill-rule="evenodd" clip-rule="evenodd" d="M8.98145 78.8301C9.65347 81.7511 12.4462 82.0689 15.0227 81.4305C15.3705 81.3443 15.7228 81.5564 15.8091 81.9042C15.8949 82.252 15.6827 82.6044 15.335 82.6906C12.039 83.5075 8.57556 82.858 7.71582 79.1216C7.63556 78.772 7.85374 78.4233 8.20289 78.343C8.55251 78.2628 8.9012 78.4809 8.98145 78.8301Z" fill="#3D493A" fill-opacity="0.1"/>
<path fill-rule="evenodd" clip-rule="evenodd" d="M15.314 80.3968C15.8398 81.7026 16.1009 83.006 15.642 84.3704C15.5276 84.7098 15.1595 84.8929 14.8196 84.779C14.4801 84.6646 14.297 84.2961 14.4109 83.9566C14.7665 82.899 14.517 81.8935 14.1093 80.8816C13.9755 80.5495 14.137 80.1708 14.4691 80.0371C14.8016 79.9033 15.1802 80.0643 15.314 80.3968Z" fill="#3D493A" fill-opacity="0.1"/>
<path fill-rule="evenodd" clip-rule="evenodd" d="M36.1147 63.3625C36.129 63.4561 36.1428 63.5512 36.1557 63.6471C36.1751 63.7882 36.1475 63.9243 36.0847 64.041C36.0594 64.2319 35.9989 64.3666 35.9542 64.4358C35.7591 64.7388 35.4938 64.7887 35.2411 64.7324C35.1285 64.7075 34.9081 64.6397 34.7503 64.327C34.6466 64.1208 34.5912 63.7896 34.6037 63.399C34.6111 63.1702 34.6406 62.9114 34.6719 62.6596C34.1281 60.0043 33.0304 58.0334 31.2427 55.5515C30.9765 55.1821 29.9554 54.077 29.6818 53.2112C29.4789 52.5696 29.5965 52.0171 30.0942 51.6467C31.0342 50.948 32.0946 51.3082 33.0452 52.4599C34.7056 54.4713 36.1359 58.9882 36.2056 60.0882C36.2655 61.0425 36.2083 62.0157 36.1285 62.9626C36.1202 63.0609 36.1174 63.2062 36.1147 63.3625Z" fill="#3D493A" fill-opacity="0.1"/>
<path fill-rule="evenodd" clip-rule="evenodd" d="M27.8912 68.4416C26.3649 68.4172 25.0048 68.4006 23.8886 68.1515C23.0515 67.9652 22.3407 67.6492 21.7738 67.1409C20.8587 66.3199 20.2872 64.9713 20.2872 62.6826C20.2872 62.3243 20.5779 62.0337 20.9362 62.0337C21.2946 62.0337 21.5856 62.3243 21.5856 62.6826C21.5856 64.4593 21.9306 65.5372 22.6409 66.1742C23.1617 66.6409 23.86 66.8563 24.6838 66.9777C25.6228 67.1165 26.7131 67.1243 27.9119 67.1432C28.2698 67.1488 28.5562 67.4444 28.5507 67.8028C28.5447 68.1612 28.2491 68.4471 27.8912 68.4416Z" fill="#3D493A" fill-opacity="0.1"/>
<path fill-rule="evenodd" clip-rule="evenodd" d="M39.457 41.7596C39.4759 43.2577 39.1886 44.7498 39.3103 46.2571C39.6277 50.1909 41.206 54.2396 42.7452 57.8465C43.9799 60.7393 46.2515 64.1539 48.0046 67.4987C49.2181 69.8141 50.183 72.1004 50.4441 74.1682C50.4888 74.5233 50.2365 74.8485 49.8809 74.8932C49.5253 74.938 49.2006 74.6861 49.1554 74.3305C48.8492 71.9012 47.4774 69.1615 45.9466 66.4347C44.359 63.6064 42.5925 60.797 41.551 58.3561C39.9589 54.6252 38.3446 50.4312 38.0162 46.3618C37.8921 44.8245 38.178 43.3033 38.1587 41.7762C38.1541 41.4178 38.441 41.1231 38.7993 41.1185C39.1577 41.1139 39.4524 41.4012 39.457 41.7596Z" fill="#3D493A" fill-opacity="0.1"/>
<path fill-rule="evenodd" clip-rule="evenodd" d="M49.0656 77.4139C49.7113 75.3711 50.369 73.3283 51.5221 71.4995C53.5021 68.3585 55.9365 66.9199 58.061 67.139C60.2025 67.3599 62.1826 69.257 63.1553 73.1143C63.7245 75.3716 63.974 77.9559 63.6244 80.2685C63.1664 83.2951 61.2057 87.7013 58.3566 90.3344C56.3544 92.1849 53.9242 93.1683 51.2777 92.3708C50.935 92.2675 50.7403 91.9049 50.8436 91.5618C50.9469 91.2186 51.3095 91.024 51.6526 91.1273C53.8366 91.7855 55.8227 90.9082 57.4753 89.3806C60.1089 86.9467 61.9169 82.8722 62.3403 80.0743C62.665 77.9268 62.4247 75.5279 61.8962 73.4316C61.1056 70.2957 59.6689 68.6103 57.9277 68.4309C56.1695 68.2492 54.2591 69.5923 52.6203 72.1918C51.5272 73.9261 50.916 75.8683 50.304 77.8055C50.196 78.1468 49.8307 78.3368 49.489 78.2289C49.1477 78.1205 48.9576 77.7557 49.0656 77.4139Z" fill="#3D493A" fill-opacity="0.1"/>
<path fill-rule="evenodd" clip-rule="evenodd" d="M52.6783 83.1554C52.9099 83.0743 53.1497 83.048 53.39 83.089C53.6608 83.1356 53.9435 83.2652 54.2184 83.5383C54.7271 84.0424 54.9504 84.8943 54.9186 85.8361C54.8775 87.0704 54.4273 88.4481 53.9873 89.1256C53.7922 89.4259 53.39 89.5117 53.0893 89.3166C52.7886 89.1215 52.7033 88.7188 52.8984 88.4186C53.2489 87.8789 53.5879 86.7757 53.6211 85.7928C53.6391 85.2559 53.5944 84.7476 53.3042 84.4603C53.1276 84.285 52.9624 84.4427 52.813 84.5733C52.5649 84.7905 52.3495 85.0705 52.1821 85.2642C52.1101 85.3472 51.9731 85.4907 51.8721 85.552C51.7494 85.6272 51.6281 85.6558 51.5257 85.6604C51.2688 85.6715 51.0349 85.5815 50.8841 85.2817C50.8325 85.1798 50.7882 85.0294 50.7956 84.8297C50.8021 84.6526 50.8574 84.3796 50.9625 84.0433C51.4418 82.5106 52.992 79.2875 53.2222 78.7857C53.5284 78.1169 54.6501 75.5077 55.8558 74.1711C56.5592 73.3907 57.3405 73.047 58.0162 73.2527C58.3589 73.3565 58.5526 73.7195 58.4484 74.0627C58.3446 74.4054 57.9816 74.5991 57.6384 74.4949C57.5005 74.4529 57.3718 74.5516 57.2261 74.6595C56.9373 74.8744 56.6528 75.2121 56.377 75.6004C55.443 76.9131 54.6483 78.7903 54.4024 79.3267C54.2313 79.6994 53.3139 81.6052 52.6783 83.1554Z" fill="#3D493A" fill-opacity="0.1"/>
<path fill-rule="evenodd" clip-rule="evenodd" d="M51.6981 94.3796C52.3803 94.8962 52.8729 95.3247 53.699 95.5978C54.0389 95.7098 54.2239 96.0774 54.1118 96.4178C53.9992 96.7582 53.6316 96.9432 53.2912 96.8306C52.3157 96.5082 51.7198 96.0253 50.9141 95.4142C50.6281 95.1979 50.5723 94.7906 50.7886 94.5046C51.0049 94.2191 51.4126 94.1629 51.6981 94.3796Z" fill="#3D493A" fill-opacity="0.1"/>
<path fill-rule="evenodd" clip-rule="evenodd" d="M51.9707 98.0856C52.3748 98.4246 52.3245 98.3766 52.7636 98.6667C53.0625 98.8641 53.1446 99.2672 52.9472 99.5661C52.7493 99.865 52.3462 99.9476 52.0473 99.7497C51.5427 99.4162 51.6013 99.4706 51.1364 99.0804C50.8615 98.8503 50.8255 98.4402 51.0561 98.1658C51.2863 97.8914 51.6958 97.8554 51.9707 98.0856Z" fill="#3D493A" fill-opacity="0.1"/>
<path fill-rule="evenodd" clip-rule="evenodd" d="M88.2171 76.4921C89.247 82.1662 88.201 89.7775 85.4063 96.1886C83.5268 100.499 80.8572 104.263 77.5229 106.563C73.775 109.148 67.1567 111.256 61.484 110.751C57.5792 110.403 54.1264 108.825 52.2566 105.427C52.0836 105.113 52.1985 104.717 52.5121 104.545C52.8262 104.372 53.2215 104.487 53.394 104.801C55.0498 107.81 58.1414 109.149 61.5993 109.457C66.9704 109.936 73.2372 107.942 76.7859 105.494C79.9375 103.32 82.4392 99.7447 84.2159 95.6697C86.9044 89.5021 87.9302 82.1828 86.9395 76.7241C86.8754 76.3713 87.1097 76.0332 87.4625 75.9691C87.8149 75.9049 88.1534 76.1393 88.2171 76.4921Z" fill="#3D493A" fill-opacity="0.1"/>
<path fill-rule="evenodd" clip-rule="evenodd" d="M84.2216 71.437C83.9813 71.5467 83.6875 71.502 83.491 71.3032C83.2387 71.0491 83.2406 70.6376 83.4947 70.3854C83.8328 70.0505 84.3545 69.9975 84.9319 70.3282C85.6321 70.729 86.5015 71.7686 86.7067 72.0748C86.906 72.3728 86.8262 72.7764 86.5287 72.9756C86.2312 73.1754 85.8272 73.0956 85.6279 72.7976C85.5357 72.6597 85.2718 72.3331 84.9619 72.0186C84.747 71.8004 84.3646 71.5338 84.2216 71.437Z" fill="#3D493A" fill-opacity="0.1"/>
<path fill-rule="evenodd" clip-rule="evenodd" d="M84.1791 74.3172C84.1606 74.2181 84.1288 74.0889 84.0799 73.9769C83.9365 73.6485 84.0868 73.2652 84.4152 73.1217C84.7436 72.9783 85.1264 73.1286 85.2699 73.457C85.7643 74.5885 85.3797 75.2831 84.8898 75.5308C84.4558 75.7498 83.668 75.6885 82.8595 74.9999C82.5865 74.7679 82.5537 74.3578 82.7862 74.0848C83.0182 73.8122 83.4282 73.779 83.7013 74.0114C83.8655 74.1517 84.0227 74.2536 84.1671 74.3126L84.1791 74.3172Z" fill="#3D493A" fill-opacity="0.1"/>
<path fill-rule="evenodd" clip-rule="evenodd" d="M84.6446 59.9046C83.0349 47.6478 75.0246 34.2937 61.7038 32.2301C59.8288 31.9395 57.852 32.1425 55.961 31.9861C53.0335 31.744 45.936 31.8791 43.2807 33.094C38.9631 35.0695 38.9631 36.5989 36.0011 39.5351C35.7469 39.7874 35.3355 39.7856 35.0832 39.531C34.8309 39.2768 34.8327 38.8654 35.0869 38.6131C38.1864 35.5404 38.2224 33.9805 42.7406 31.9128C45.532 30.6356 52.9897 30.4378 56.0679 30.6919C57.9894 30.8506 59.9972 30.6518 61.9026 30.947C75.7986 33.0995 84.253 46.9495 85.9319 59.7353C85.9785 60.0905 85.7281 60.417 85.3729 60.4636C85.0173 60.5102 84.6912 60.2597 84.6446 59.9046Z" fill="#3D493A" fill-opacity="0.1"/>
<path fill-rule="evenodd" clip-rule="evenodd" d="M84.2908 55.4914C84.7184 52.8117 85.3646 50.1476 87.3442 48.1039C89.6107 45.764 92.7102 45.0726 95.8646 45.4771C100.473 46.0684 105.181 49.0208 107.395 52.3551C107.594 52.6535 107.513 53.0571 107.214 53.2554C106.915 53.4533 106.512 53.3721 106.314 53.0737C104.277 50.0074 99.9373 47.3087 95.6995 46.7654C92.956 46.4134 90.2481 46.9729 88.2773 49.0074C86.4904 50.8519 85.9591 53.2771 85.5731 55.6958C85.5168 56.0495 85.1838 56.2912 84.8296 56.2349C84.4758 56.1782 84.2345 55.8452 84.2908 55.4914Z" fill="#3D493A" fill-opacity="0.1"/>
<path fill-rule="evenodd" clip-rule="evenodd" d="M99.506 50.8123C101.145 50.417 101.653 51.0332 103.012 51.9211C106.895 54.4569 109.758 56.5246 111.244 61.0798C114.298 70.4368 110.474 79.5485 101.855 83.8204C99.3751 85.0496 95.2894 85.8143 92.588 84.6682C91.3943 84.1617 90.5124 83.3094 89.4636 82.6162C89.1647 82.4183 89.0822 82.0156 89.2796 81.7163C89.4774 81.4174 89.8806 81.3353 90.1794 81.5327C91.1623 82.1826 91.9769 82.9985 93.0954 83.4731C95.4822 84.4855 99.0868 83.7434 101.278 82.6572C109.302 78.68 112.853 70.1937 110.01 61.4824C108.627 57.2451 105.914 55.3674 102.302 53.0086C101.947 52.7766 101.66 52.5599 101.395 52.3795C100.933 52.0654 100.556 51.8948 99.81 52.0746C99.4618 52.1586 99.1108 51.9437 99.0268 51.5954C98.9429 51.2472 99.1573 50.8962 99.506 50.8123Z" fill="#3D493A" fill-opacity="0.1"/>
<path fill-rule="evenodd" clip-rule="evenodd" d="M93.9742 78.9228C91.4554 78.7655 89.7797 77.4524 88.5934 75.6577C87.4809 73.9751 86.8126 71.8548 86.2623 69.9449C86.1632 69.6003 86.362 69.2406 86.7065 69.1409C87.0506 69.0418 87.4108 69.241 87.51 69.5851C88.0257 71.3738 88.6349 73.3658 89.6764 74.9419C90.6445 76.4063 91.9996 77.4985 94.0549 77.6267C94.4128 77.6489 94.6849 77.9574 94.6628 78.3149C94.6402 78.6728 94.3316 78.9449 93.9742 78.9228Z" fill="#3D493A" fill-opacity="0.1"/>
<path fill-rule="evenodd" clip-rule="evenodd" d="M53.0145 107.33C52.4647 111.098 52.5796 115.076 53.8019 118.713C53.9163 119.052 53.7331 119.421 53.3937 119.535C53.0537 119.649 52.6852 119.466 52.5713 119.127C51.284 115.298 51.1507 111.109 51.7295 107.143C51.7817 106.788 52.1115 106.542 52.4657 106.594C52.8204 106.646 53.0662 106.976 53.0145 107.33Z" fill="#3D493A" fill-opacity="0.1"/>
<path fill-rule="evenodd" clip-rule="evenodd" d="M21.6933 110.669C23.9127 118.927 25.7784 127.168 27.3194 135.57C27.9683 139.109 29.1602 142.644 29.1602 146.284C29.1602 146.642 28.8696 146.933 28.5112 146.933C28.1528 146.933 27.8618 146.642 27.8618 146.284C27.8618 142.722 26.6773 139.267 26.0422 135.804C24.5077 127.437 22.6494 119.23 20.4392 111.007C20.346 110.661 20.5517 110.304 20.8976 110.211C21.2436 110.118 21.6001 110.323 21.6933 110.669Z" fill="#3D493A" fill-opacity="0.1"/>
<path fill-rule="evenodd" clip-rule="evenodd" d="M52.785 122.19C52.1227 122.908 51.2302 123.268 50.3193 123.616C49.5961 123.891 48.8572 124.154 48.3106 124.748C41.2893 132.373 39.3101 138.635 37.0787 148.592C37.0002 148.942 36.6525 149.162 36.3029 149.084C35.9532 149.005 35.7328 148.658 35.8112 148.308C38.1003 138.097 40.1551 131.688 47.3554 123.868C48.0426 123.122 48.9471 122.749 49.8567 122.402C50.578 122.127 51.3059 121.878 51.8308 121.309C52.0738 121.046 52.4848 121.03 52.7482 121.272C53.0115 121.515 53.0281 121.926 52.785 122.19Z" fill="#3D493A" fill-opacity="0.1"/>
<path fill-rule="evenodd" clip-rule="evenodd" d="M36.2329 146.094C35.2888 146.57 32.3041 147.999 30.111 148.212C28.9486 148.324 27.9879 148.076 27.4575 147.416C27.2329 147.136 27.2776 146.727 27.5571 146.503C27.8362 146.279 28.2453 146.323 28.4699 146.602C28.6429 146.818 28.9284 146.896 29.2595 146.928C29.7263 146.973 30.2761 146.904 30.8531 146.777C32.7423 146.362 34.893 145.315 35.6485 144.935C35.9686 144.773 36.3593 144.902 36.5203 145.222C36.6817 145.542 36.5526 145.933 36.2329 146.094Z" fill="#3D493A" fill-opacity="0.1"/>
<path fill-rule="evenodd" clip-rule="evenodd" d="M28.3017 148.292C26.9632 154.012 28.4198 160.026 27.7732 165.797C27.3687 169.406 26.681 173.175 25.8166 176.605C25.5823 177.534 25.6464 178.573 25.6829 179.606C25.7244 180.782 25.7318 181.949 25.3863 182.976C23.5382 188.473 25.2272 193.905 28.4484 198.919C33.4099 206.641 42.0013 213.374 47.5033 217.866C52.7776 222.172 58.2187 226.214 63.6968 230.215C70.7214 235.347 76.8849 241.636 83.5534 247.146C86.7677 249.802 90.4419 251.867 93.6645 254.423C93.945 254.645 93.9925 255.054 93.7697 255.335C93.5469 255.615 93.1383 255.662 92.8574 255.44C89.6283 252.879 85.9477 250.808 82.7264 248.147C76.0773 242.654 69.9345 236.38 62.9307 231.264C57.4342 227.249 51.9745 223.193 46.6819 218.872C41.0968 214.312 32.3925 207.46 27.3562 199.621C23.9122 194.26 22.1793 188.439 24.1557 182.562C24.4537 181.676 24.4209 180.666 24.385 179.652C24.3444 178.493 24.2945 177.329 24.5574 176.287C25.4084 172.913 26.0846 169.204 26.4826 165.653C27.1348 159.832 25.687 153.766 27.0371 147.996C27.1187 147.647 27.4683 147.43 27.8175 147.512C28.1662 147.594 28.3834 147.943 28.3017 148.292Z" fill="#3D493A" fill-opacity="0.1"/>
<path fill-rule="evenodd" clip-rule="evenodd" d="M88.2357 150.672C91.6866 160.212 92.7834 170.376 96.5005 179.852C97.7979 183.16 98.1365 187.428 100.05 190.464C102.99 195.127 107.987 198.532 113.181 200.512C114.019 200.832 115.266 200.91 116.358 201.155C117.237 201.353 118.022 201.66 118.536 202.169C119.3 202.927 119.749 204.552 119.896 206.562C120.208 210.862 119.322 216.988 118.847 218.871C117.73 223.302 116.828 227.85 114.927 232.039C113.004 236.275 108.964 242.805 104.273 247.789C101.084 251.176 97.5853 253.841 94.2497 254.668C93.9019 254.754 93.5495 254.542 93.4633 254.194C93.377 253.846 93.5897 253.494 93.9374 253.407C97.072 252.631 100.331 250.083 103.327 246.899C107.914 242.026 111.865 235.643 113.744 231.502C115.614 227.385 116.489 222.909 117.588 218.554C118.047 216.734 118.903 210.813 118.6 206.656C118.526 205.634 118.384 204.722 118.137 204.018C118 203.627 117.838 203.306 117.622 203.092C117.155 202.629 116.353 202.461 115.528 202.313C114.52 202.131 113.468 202.012 112.718 201.725C107.267 199.647 102.037 196.051 98.9515 191.156C96.9963 188.055 96.6172 183.705 95.2916 180.326C91.5704 170.839 90.4694 160.664 87.0143 151.114C86.8925 150.777 87.0669 150.404 87.404 150.282C87.7412 150.161 88.1134 150.335 88.2357 150.672Z" fill="#3D493A" fill-opacity="0.1"/>
<path fill-rule="evenodd" clip-rule="evenodd" d="M102.788 139.442C96.7776 143.826 90.1621 147.423 83.8312 151.285C78.9343 154.273 74.471 158.529 70.4365 162.528C70.1819 162.78 69.7705 162.779 69.5182 162.524C69.266 162.27 69.2678 161.858 69.5224 161.606C73.6264 157.538 78.1738 153.216 83.1546 150.177C89.4555 146.333 96.041 142.756 102.023 138.393C102.312 138.181 102.719 138.245 102.93 138.535C103.141 138.824 103.078 139.231 102.788 139.442Z" fill="#3D493A" fill-opacity="0.1"/>
<path fill-rule="evenodd" clip-rule="evenodd" d="M102.453 137.338C102.099 134.715 100.423 126.259 98.507 120.486C97.722 118.121 96.925 116.213 96.1363 115.431C96.0404 115.337 95.8596 115.301 95.6372 115.257C95.2909 115.188 94.8615 115.155 94.3818 115.145C91.946 115.092 88.3129 115.619 87.0297 115.619C83.7757 115.619 80.6568 116.38 77.4158 116.648C70.1292 117.25 62.535 117.274 56.0293 120.499C55.7078 120.658 55.318 120.526 55.1589 120.205C54.9998 119.884 55.1312 119.495 55.4523 119.335C62.1037 116.038 69.8594 115.969 77.3087 115.354C80.5858 115.083 83.7397 114.321 87.0297 114.321C88.3179 114.321 91.9644 113.794 94.4099 113.846C95.0985 113.861 95.6995 113.923 96.1478 114.043C96.5532 114.151 96.8563 114.317 97.0505 114.509C97.924 115.375 98.87 117.458 99.7394 120.077C101.683 125.931 103.38 134.505 103.74 137.164C103.788 137.519 103.539 137.846 103.183 137.894C102.829 137.942 102.501 137.693 102.453 137.338Z" fill="#3D493A" fill-opacity="0.1"/>
<path fill-rule="evenodd" clip-rule="evenodd" d="M91.2125 107.574C91.1498 107.544 91.0593 107.554 90.9583 107.552C90.6811 107.547 90.3458 107.603 89.9745 107.69C87.9414 108.172 85.0107 109.596 84.0015 109.739C81.4274 110.103 78.8496 109.933 76.2741 110.155C72.6086 110.471 68.9676 111.963 65.2796 112.42C63.4222 112.65 60.1544 112.63 57.5346 113.332C55.9867 113.748 54.6565 114.393 54.1593 115.625C54.0251 115.958 53.6464 116.119 53.3143 115.985C52.9817 115.85 52.8208 115.472 52.955 115.14C53.5929 113.559 55.2132 112.611 57.1979 112.078C59.8781 111.359 63.2198 111.367 65.1196 111.131C68.8238 110.672 72.4813 109.179 76.1624 108.861C78.7144 108.641 81.2687 108.814 83.8198 108.453C84.8101 108.313 87.6799 106.9 89.6752 106.427C90.2789 106.284 90.8153 106.223 91.2277 106.27C91.6322 106.314 91.9454 106.46 92.164 106.677C92.3356 106.847 92.4836 107.172 92.5454 107.591C92.628 108.151 92.5842 108.948 92.6534 109.268C92.9559 110.667 93.6169 112.471 93.4499 113.886C93.4075 114.241 93.0846 114.496 92.7286 114.454C92.3729 114.412 92.1183 114.089 92.1603 113.733C92.3121 112.446 91.6594 110.816 91.3841 109.542C91.32 109.245 91.3343 108.569 91.2858 108C91.2729 107.853 91.2296 107.649 91.2125 107.574Z" fill="#3D493A" fill-opacity="0.1"/>
<path fill-rule="evenodd" clip-rule="evenodd" d="M119.696 204.918C121.91 205.265 124.803 205.343 126.886 206.032C127.227 206.144 127.412 206.512 127.299 206.852C127.187 207.192 126.819 207.377 126.479 207.265C124.456 206.596 121.645 206.538 119.495 206.2C119.14 206.145 118.898 205.812 118.954 205.458C119.009 205.104 119.342 204.862 119.696 204.918Z" fill="#3D493A" fill-opacity="0.1"/>
<path fill-rule="evenodd" clip-rule="evenodd" d="M124.94 268.146C118.739 266.765 113.102 263.896 107.279 261.534C103.459 259.984 99.6653 258.429 96.3407 255.957C96.0534 255.743 95.9934 255.336 96.2074 255.049C96.421 254.761 96.8282 254.701 97.1156 254.915C100.351 257.321 104.05 258.822 107.767 260.33C113.524 262.665 119.092 265.513 125.222 266.878C125.572 266.956 125.793 267.303 125.715 267.653C125.637 268.003 125.29 268.223 124.94 268.146Z" fill="#3D493A" fill-opacity="0.1"/>
<path fill-rule="evenodd" clip-rule="evenodd" d="M261.382 81.0278C261.403 81.0522 261.438 81.091 261.468 81.1159C261.616 81.239 261.825 81.352 262.081 81.4659C263.256 81.9894 265.274 82.4419 267.509 82.97C271.014 83.7979 275.026 84.8076 277.356 86.4293C279.137 87.6695 280.004 89.2534 279.318 91.2967C279.049 92.0941 278.34 92.595 277.449 92.8271C276.328 93.1186 274.927 92.9806 274.166 92.7293C268.885 90.984 262.836 91.1076 256.944 90.8548C250.867 90.5933 244.956 89.93 240.151 86.6276C239.855 86.4247 239.78 86.0202 239.983 85.725C240.187 85.4298 240.591 85.3546 240.886 85.5575C245.493 88.7235 251.173 89.3069 257 89.5574C263.013 89.8157 269.183 89.7151 274.573 91.4964C275.164 91.6915 276.252 91.7967 277.122 91.5702C277.56 91.4567 277.955 91.2741 278.087 90.8829C278.571 89.4444 277.869 88.3678 276.614 87.4952C274.392 85.9482 270.553 85.0234 267.21 84.2338C264.459 83.5835 262.027 83.0115 260.947 82.3363C260.165 81.8474 259.936 81.2505 260.136 80.6551C260.561 79.3918 261.644 78.6672 263.18 78.3563C265.149 77.9583 267.922 78.2493 270.699 78.6266C273.351 78.9863 276.008 79.4204 277.909 79.3088C278.471 79.2755 278.961 79.1962 279.349 79.0371C279.635 78.9199 279.859 78.7636 279.98 78.5242C280.876 76.7457 279.555 75.511 277.674 74.577C274.389 72.946 269.276 72.3063 267.767 72.3063C267.409 72.3063 267.118 72.0157 267.118 71.6573C267.118 71.299 267.409 71.0079 267.767 71.0079C269.364 71.0079 274.775 71.6878 278.251 73.4137C280.879 74.7186 282.392 76.6248 281.139 79.109C280.678 80.0218 279.564 80.5126 277.985 80.6048C276.018 80.7206 273.268 80.2856 270.525 79.913C267.906 79.5578 265.294 79.2534 263.437 79.6293C262.439 79.8309 261.674 80.2206 261.382 81.0278Z" fill="#3D493A" fill-opacity="0.1"/>
<path fill-rule="evenodd" clip-rule="evenodd" d="M278.487 72.7578C278.467 72.0673 278.2 71.6047 277.854 71.1499C277.569 70.7768 277.235 70.4106 276.905 69.9738C274.322 66.5597 271.401 66.3577 267.166 66.3577C266.808 66.3577 266.517 66.0667 266.517 65.7083C266.517 65.3499 266.808 65.0593 267.166 65.0593C271.869 65.0593 275.072 65.3979 277.94 69.1901C278.855 70.3986 279.739 71.1508 279.785 72.72C279.795 73.0779 279.513 73.3772 279.155 73.3878C278.797 73.398 278.498 73.1157 278.487 72.7578Z" fill="#3D493A" fill-opacity="0.1"/>
<path fill-rule="evenodd" clip-rule="evenodd" d="M275.217 66.092C275.549 65.4975 275.675 64.9574 275.618 64.4625C275.532 63.707 275.034 63.0802 274.358 62.5396C272.395 60.9701 268.946 60.1657 267.321 59.9355C266.966 59.8852 266.719 59.5564 266.769 59.2017C266.819 58.847 267.148 58.5998 267.503 58.65C269.277 58.901 273.028 59.8128 275.169 61.5254C276.135 62.2984 276.784 63.2347 276.908 64.3149C276.991 65.0441 276.841 65.849 276.35 66.7262C276.175 67.039 275.779 67.1506 275.467 66.9758C275.153 66.801 275.042 66.4052 275.217 66.092Z" fill="#3D493A" fill-opacity="0.1"/>
<path fill-rule="evenodd" clip-rule="evenodd" d="M272.483 60.5636C272.715 58.9927 271.745 58.0684 270.407 57.4997C268.07 56.5066 264.649 56.5408 263.067 56.6713C255.918 57.2621 247.291 62.5774 240.821 65.5712C237.858 66.9416 234.785 67.7372 231.966 69.4138C231.659 69.5969 231.26 69.4954 231.077 69.1878C230.894 68.8797 230.995 68.4807 231.303 68.2976C234.161 66.5979 237.272 65.782 240.276 64.3928C246.868 61.3427 255.677 55.979 262.961 55.3775C264.675 55.2359 268.381 55.2281 270.915 56.3046C272.825 57.1164 274.099 58.5098 273.768 60.7532C273.716 61.1074 273.385 61.3528 273.031 61.3007C272.676 61.2481 272.431 60.9179 272.483 60.5636Z" fill="#3D493A" fill-opacity="0.1"/>
<path fill-rule="evenodd" clip-rule="evenodd" d="M238.514 86.9646C237.407 86.8217 236.132 87.1874 234.838 87.7206C232.73 88.5896 230.589 89.9221 228.996 90.6241C221.057 94.1221 212.817 96.8955 204.778 100.083C190.45 105.765 176.358 112.187 161.929 117.636C152.08 121.356 141.911 124.312 131.953 127.716C127.38 129.279 122.619 131.105 118.171 132.995C114.365 134.612 109.434 137.72 105.138 137.72C104.78 137.72 104.489 137.429 104.489 137.07C104.489 136.712 104.78 136.421 105.138 136.421C107.163 136.421 109.332 135.667 111.446 134.735C113.649 133.764 115.793 132.594 117.663 131.8C122.14 129.898 126.93 128.061 131.532 126.487C141.478 123.088 151.634 120.136 161.47 116.421C175.893 110.974 189.978 104.556 204.299 98.876C212.323 95.6944 220.548 92.9275 228.473 89.4355C230.073 88.7307 232.226 87.3936 234.343 86.52C235.866 85.8923 237.377 85.5085 238.68 85.6769C239.035 85.7225 239.287 86.0486 239.241 86.4038C239.195 86.7594 238.869 87.0103 238.514 86.9646Z" fill="#3D493A" fill-opacity="0.1"/>
<path fill-rule="evenodd" clip-rule="evenodd" d="M229.827 70.1999C226.787 70.4015 223.375 72.2566 220.429 73.1043C211.285 75.7366 202.067 78.343 193.134 81.6058C178.214 87.0552 163.081 92.1048 148.206 97.6991C132.425 103.633 116.732 109.762 100.732 115.049C100.392 115.162 100.024 114.977 99.9122 114.637C99.7997 114.297 99.9846 113.929 100.325 113.816C116.308 108.534 131.985 102.412 147.749 96.4833C162.628 90.8881 177.764 85.8371 192.689 80.3858C201.65 77.1129 210.897 74.4972 220.07 71.8567C223.098 70.9849 226.616 69.1119 229.742 68.9043C230.099 68.8803 230.409 69.1515 230.432 69.509C230.456 69.8664 230.185 70.1759 229.827 70.1999Z" fill="#3D493A" fill-opacity="0.1"/>
<path fill-rule="evenodd" clip-rule="evenodd" d="M220.226 67.2854C218.458 68.2397 216.181 68.4805 214.256 69.0533C207.406 71.0901 200.516 73.2478 193.745 75.4857C187.374 77.5907 181.03 79.8983 174.694 82.1274C162.526 86.4082 149.923 89.4818 137.714 93.656C128.053 96.9584 118.24 99.8347 108.6 103.208C107.038 103.754 101.22 106.081 97.2394 107.428C95.4392 108.037 93.9891 108.436 93.4075 108.436C93.0491 108.436 92.7581 108.145 92.7581 107.787C92.7581 107.429 93.0491 107.138 93.4075 107.138C93.9278 107.138 95.2137 106.743 96.8234 106.198C100.8 104.852 106.611 102.528 108.171 101.982C117.814 98.6082 127.63 95.7311 137.294 92.4272C149.499 88.2545 162.098 85.1817 174.263 80.9024C180.607 78.6705 186.959 76.3606 193.338 74.2523C200.121 72.0107 207.024 69.8494 213.886 67.8084C215.729 67.2605 217.917 67.0562 219.609 66.1429C219.924 65.9727 220.318 66.0903 220.488 66.4058C220.659 66.7209 220.541 67.1152 220.226 67.2854Z" fill="#3D493A" fill-opacity="0.1"/>
<path fill-rule="evenodd" clip-rule="evenodd" d="M257.035 90.324C258.564 93.5734 259.139 97.6004 260.186 101.026C262.64 109.056 264.731 117.422 267.699 125.269C272.302 137.438 276.611 149.687 281.346 161.814C284.274 169.312 288.879 176.816 291.804 184.066C291.938 184.399 291.777 184.777 291.445 184.911C291.113 185.046 290.734 184.885 290.6 184.552C287.673 177.298 283.066 169.789 280.137 162.286C275.4 150.155 271.089 137.902 266.484 125.729C263.506 117.855 261.406 109.462 258.944 101.406C257.914 98.0367 257.364 94.0724 255.86 90.877C255.707 90.5528 255.847 90.1658 256.171 90.0131C256.495 89.8604 256.882 89.9997 257.035 90.324Z" fill="#3D493A" fill-opacity="0.1"/>
<path fill-rule="evenodd" clip-rule="evenodd" d="M239.913 86.2495C245.2 107.48 250.01 128.558 257.498 149.181C260.375 157.102 262.86 164.86 266.653 172.382C266.814 172.701 266.686 173.092 266.366 173.253C266.046 173.415 265.655 173.286 265.493 172.966C261.677 165.399 259.172 157.594 256.278 149.624C248.774 128.958 243.951 107.837 238.653 86.5631C238.567 86.2153 238.779 85.8625 239.127 85.7762C239.474 85.6895 239.827 85.9017 239.913 86.2495Z" fill="#3D493A" fill-opacity="0.1"/>
<path fill-rule="evenodd" clip-rule="evenodd" d="M279.372 79.6841C282.674 84.2863 284.886 90.1596 287.445 95.2328C290.781 101.846 294.341 108.375 298.017 114.806C302.777 123.133 308.08 131.148 313.061 139.326C315.906 143.997 318.201 149.037 320.976 153.753C327.373 164.624 334.391 175.455 337.754 187.678C337.849 188.024 337.646 188.382 337.3 188.477C336.955 188.572 336.597 188.368 336.502 188.023C333.17 175.909 326.195 165.185 319.857 154.411C317.085 149.701 314.794 144.667 311.953 140.002C306.964 131.813 301.656 123.788 296.89 115.45C293.203 109 289.631 102.451 286.285 95.8171C283.756 90.8026 281.581 84.9901 278.317 80.441C278.108 80.15 278.175 79.7441 278.466 79.5351C278.757 79.3262 279.163 79.3931 279.372 79.6841Z" fill="#3D493A" fill-opacity="0.1"/>
<path fill-rule="evenodd" clip-rule="evenodd" d="M294.786 114.041C291.271 113.926 284.602 115.944 279.334 118.857C275.905 120.752 273.051 123.007 272.165 125.35C272.038 125.684 271.663 125.854 271.328 125.727C270.993 125.6 270.824 125.225 270.951 124.89C271.919 122.332 274.961 119.79 278.706 117.72C284.198 114.684 291.164 112.623 294.829 112.744C295.187 112.755 295.468 113.055 295.457 113.414C295.445 113.772 295.144 114.053 294.786 114.041Z" fill="#3D493A" fill-opacity="0.1"/>
<path fill-rule="evenodd" clip-rule="evenodd" d="M265.351 125.621C264.932 125.384 264.403 125.285 263.81 125.277C262.803 125.262 261.625 125.515 260.427 125.928C258.581 126.566 256.69 127.591 255.283 128.684C254.402 129.369 253.711 130.072 253.382 130.724C253.221 131.044 252.83 131.173 252.51 131.011C252.19 130.85 252.062 130.459 252.222 130.139C253.178 128.245 256.642 125.862 260.003 124.701C262.336 123.896 264.609 123.708 265.991 124.492C266.303 124.668 266.412 125.065 266.236 125.377C266.059 125.689 265.663 125.798 265.351 125.621Z" fill="#3D493A" fill-opacity="0.1"/>
<path fill-rule="evenodd" clip-rule="evenodd" d="M265.949 173.919C257.3 177.348 248.344 180.195 239.581 183.38C237.487 184.142 235.286 184.55 233.234 185.445C226.702 188.295 220.045 190.554 213.304 192.878C208.887 194.401 204.36 196.259 199.642 196.619C194.577 197.006 190.628 195.037 185.917 193.703C182.108 192.624 177.989 192.196 174.025 192.009C157.372 191.223 143.126 197.962 129.721 206.822C129.422 207.019 129.019 206.937 128.821 206.638C128.624 206.339 128.706 205.936 129.005 205.739C142.641 196.726 157.146 189.912 174.085 190.712C178.148 190.903 182.368 191.348 186.271 192.454C190.83 193.745 194.641 195.698 199.544 195.324C204.151 194.973 208.567 193.138 212.88 191.651C219.588 189.338 226.214 187.09 232.716 184.255C234.792 183.349 237.017 182.931 239.138 182.16C247.889 178.978 256.833 176.137 265.471 172.711C265.804 172.58 266.181 172.743 266.314 173.076C266.446 173.409 266.282 173.787 265.949 173.919Z" fill="#3D493A" fill-opacity="0.1"/>
<path fill-rule="evenodd" clip-rule="evenodd" d="M291.49 184.771C291.36 185.387 290.851 186.084 289.975 186.786C288.859 187.679 287.12 188.642 285.02 189.613C277.055 193.292 263.801 197.155 260.527 198.237C248.944 202.064 237.484 206.301 225.853 209.942C220.002 211.774 213.549 215.162 207.19 214.261C205.97 214.088 203.713 212.861 201.206 211.334C197.637 209.16 193.51 206.394 191.24 205.643C181.985 202.585 172.245 202.861 162.606 202.861C162.248 202.861 161.957 202.571 161.957 202.212C161.957 201.854 162.248 201.563 162.606 201.563C172.383 201.563 182.26 201.308 191.647 204.41C193.975 205.18 198.221 207.996 201.881 210.225C204.193 211.633 206.247 212.816 207.372 212.975C213.543 213.849 219.787 210.481 225.465 208.703C237.09 205.064 248.543 200.829 260.119 197.004C263.375 195.928 276.555 192.093 284.475 188.434C286.46 187.517 288.108 186.617 289.164 185.772C289.737 185.313 290.134 184.907 290.219 184.503C290.293 184.153 290.638 183.928 290.989 184.002C291.339 184.075 291.564 184.42 291.49 184.771Z" fill="#3D493A" fill-opacity="0.1"/>
<path fill-rule="evenodd" clip-rule="evenodd" d="M337.366 189.244C337.633 190.137 337.553 191.328 337.294 192.572C336.942 194.274 336.274 196.088 335.956 197.27C333.87 205.027 328.895 211.738 322.608 217.567C313.276 226.218 301.05 232.923 291.264 238.259C285.152 241.592 279.163 245.778 272.844 248.65C237.743 264.599 199.627 277.846 160.47 275.073C149.323 274.284 136.956 273.989 126.759 268.934C126.438 268.775 126.306 268.385 126.465 268.064C126.624 267.743 127.014 267.611 127.335 267.771C137.384 272.751 149.577 273 160.562 273.778C199.503 276.535 237.4 263.329 272.307 247.467C278.597 244.609 284.558 240.437 290.642 237.119C300.345 231.829 312.473 225.191 321.725 216.615C327.827 210.959 332.678 204.46 334.702 196.933C335.015 195.769 335.676 193.984 336.023 192.309C336.232 191.301 336.338 190.34 336.122 189.617C336.019 189.274 336.215 188.912 336.558 188.809C336.901 188.706 337.263 188.901 337.366 189.244Z" fill="#3D493A" fill-opacity="0.1"/>
<path fill-rule="evenodd" clip-rule="evenodd" d="M265.765 55.4814C262.985 45.319 263.003 28.0011 264.912 17.2797C265.398 14.5469 266.759 12.2799 267.859 9.88244C268.492 8.50197 269.291 5.91353 268.987 3.95836C268.818 2.8657 268.263 1.99212 266.978 1.83299C266.242 1.74167 265.507 1.99489 264.781 2.44736C263.967 2.95517 263.173 3.71344 262.414 4.59578C260.027 7.3701 258.006 11.3598 256.959 13.2287C254.374 17.8415 250.472 21.184 248.291 26.0487C246.34 30.4004 246.437 35.1151 245.195 39.6315C243.829 44.5963 241.043 48.2552 238.143 52.3607C237.077 53.8717 235.595 56.5487 235.109 59.0896C234.84 60.4964 234.868 61.8612 235.537 62.9155C235.967 63.5945 236.668 64.1304 237.701 64.4717C238.041 64.5838 238.226 64.9514 238.114 65.2918C238.001 65.6322 237.634 65.8172 237.293 65.7046C234.558 64.8006 233.623 62.809 233.655 60.512C233.698 57.3563 235.699 53.5714 237.083 51.6121C239.893 47.6321 242.619 44.0995 243.942 39.287C245.203 34.707 245.127 29.9309 247.106 25.5173C249.303 20.6163 253.222 17.241 255.826 12.594C256.9 10.6776 258.982 6.59384 261.429 3.74895C263.205 1.68447 265.208 0.305384 267.137 0.544303C269.11 0.788757 270.01 2.08251 270.271 3.75864C270.612 5.95642 269.75 8.87234 269.039 10.4235C267.985 12.7227 266.656 14.8868 266.19 17.5071C264.31 28.0684 264.279 45.1285 267.018 55.1391C267.112 55.4846 266.908 55.8421 266.562 55.9366C266.217 56.0312 265.859 55.8273 265.765 55.4814Z" fill="#3D493A" fill-opacity="0.1"/>
<path fill-rule="evenodd" clip-rule="evenodd" d="M243.182 37.0828C240.804 29.2262 239.31 20.7132 240.067 12.4534C240.18 11.2215 240.337 7.71885 239.882 5.32873C239.791 4.85366 239.677 4.42564 239.529 4.07649C239.418 3.81451 239.299 3.60003 239.135 3.47827C238.919 3.31776 238.677 3.35143 238.42 3.47412C237.989 3.68075 237.543 4.10094 237.08 4.64243C234.631 7.51176 232.042 13.6494 231.439 14.8449C230.049 17.6022 229.642 20.6754 229.372 23.7822C229.091 27.0122 228.959 30.2796 228.128 33.2984C227.343 36.1516 225.885 38.7571 224.384 41.3419C222.933 43.8399 221.441 46.3186 220.537 49.0076C220.09 50.3368 219.304 53.1259 219.043 55.5603C218.943 56.4911 218.918 57.3679 219.031 58.0786C219.094 58.4721 219.194 58.8088 219.368 59.0528C219.576 59.3447 219.507 59.7506 219.216 59.9586C218.924 60.1662 218.518 60.0979 218.31 59.806C217.829 59.1303 217.627 58.0044 217.663 56.6774C217.74 53.9142 218.761 50.2146 219.306 48.5938C220.238 45.8227 221.766 43.2638 223.261 40.6897C224.706 38.2018 226.121 35.7 226.876 32.9539C227.686 30.0089 227.805 26.8204 228.078 23.6697C228.363 20.3968 228.815 17.1649 230.28 14.2601C230.899 13.0327 233.578 6.74473 236.093 3.79929C236.695 3.09453 237.298 2.57194 237.86 2.30304C238.597 1.9502 239.289 1.97511 239.91 2.43634C240.483 2.86298 240.919 3.83573 241.157 5.08521C241.636 7.59709 241.479 11.2773 241.36 12.572C240.618 20.6661 242.094 29.0075 244.425 36.7065C244.529 37.0492 244.335 37.4122 243.992 37.5159C243.649 37.6197 243.286 37.4255 243.182 37.0828Z" fill="#3D493A" fill-opacity="0.1"/>
<path fill-rule="evenodd" clip-rule="evenodd" d="M229.247 69.3909C227.369 68.4661 224.556 67.1599 222.338 65.4773C220.77 64.2878 219.504 62.9036 218.983 61.3544C218.869 61.0144 219.052 60.6459 219.391 60.532C219.731 60.4176 220.1 60.6007 220.214 60.9406C220.66 62.2676 221.78 63.4244 223.123 64.4432C225.271 66.0728 228.002 67.3301 229.821 68.2263C230.143 68.3845 230.275 68.7738 230.117 69.0952C229.958 69.4167 229.569 69.5496 229.247 69.3909Z" fill="#3D493A" fill-opacity="0.1"/>
</svg>
