<svg width="433" height="418" viewBox="0 0 433 418" fill="none" xmlns="http://www.w3.org/2000/svg">
<path fill-rule="evenodd" clip-rule="evenodd" d="M243.835 89.653C243.894 89.7087 244 89.8146 244.073 89.9052C244.345 90.2486 244.653 90.7363 245.018 91.2777C246.246 93.0989 248.082 95.426 251.058 95.694C256.88 96.2186 262.587 95.0531 268.443 96.3433C269.226 96.5157 270.777 96.7063 272.063 97.1068C272.748 97.3201 273.37 97.5556 273.621 97.9605C273.824 98.2852 274.252 98.3847 274.577 98.1827C274.902 97.9802 275.001 97.5521 274.799 97.2275C274.495 96.7398 273.907 96.3285 273.155 96.0236C271.734 95.4467 269.693 95.1984 268.741 94.989C262.827 93.6861 257.063 94.8427 251.182 94.3127C249.762 94.1846 248.676 93.457 247.813 92.587C246.875 91.6422 246.19 90.5269 245.643 89.7171C245.237 89.1171 244.876 88.6678 244.567 88.4619C244.291 88.2781 244.021 88.2229 243.767 88.2589C241.693 88.5525 240.821 90.018 240.205 91.7116C239.945 92.4264 239.729 93.1792 239.445 93.8575C239.203 94.4329 238.918 94.9551 238.468 95.3122C235.968 97.2955 232.877 98.7103 229.986 100.34C226.959 102.048 224.152 103.991 222.362 106.949C220.921 109.33 221.202 111.983 221.83 114.67C222.398 117.099 223.257 119.553 223.029 121.816C222.912 122.968 221.986 124.613 220.714 126.451C217.572 130.986 212.255 136.534 210.15 138.62C209.879 138.89 209.877 139.329 210.146 139.601C210.416 139.872 210.855 139.874 211.127 139.605C213.264 137.486 218.663 131.848 221.854 127.24C223.295 125.158 224.277 123.26 224.408 121.955C224.651 119.55 223.784 116.936 223.181 114.354C222.637 112.029 222.302 109.728 223.548 107.668C225.214 104.915 227.851 103.137 230.668 101.549C233.621 99.8822 236.774 98.4256 239.33 96.3984C239.957 95.9014 240.387 95.1959 240.723 94.394C241.017 93.6954 241.241 92.9215 241.509 92.1856C241.935 91.0117 242.45 89.9077 243.835 89.653Z" fill="#3D493A" fill-opacity="0.1"/>
<path fill-rule="evenodd" clip-rule="evenodd" d="M263.512 99.9742C264.146 103.075 262.415 106.366 260.697 108.798C260.477 109.111 260.551 109.544 260.864 109.765C261.176 109.985 261.609 109.911 261.83 109.598C263.751 106.878 265.579 103.164 264.871 99.6969C264.794 99.3215 264.427 99.0796 264.052 99.156C263.678 99.2328 263.435 99.5993 263.512 99.9742Z" fill="#3D493A" fill-opacity="0.1"/>
<path fill-rule="evenodd" clip-rule="evenodd" d="M264.69 100.221C264.721 100.272 264.798 100.411 264.829 100.515C265.051 101.262 264.962 102.402 264.87 102.769C264.439 104.475 263.195 105.802 262.26 107.259C261.994 107.673 261.622 108.007 261.241 108.326C261.127 108.355 261.019 108.415 260.93 108.504C260.885 108.548 260.526 108.845 260.383 109.013C260.199 109.23 260.164 109.445 260.164 109.551C260.164 109.72 260.219 109.848 260.288 109.948C260.381 110.082 260.511 110.182 260.693 110.227C260.774 110.247 260.977 110.293 261.227 110.145C261.336 110.08 261.896 109.585 261.961 109.531C262.507 109.08 263.045 108.602 263.427 108.008C264.442 106.427 265.747 104.959 266.214 103.108C266.337 102.622 266.453 101.111 266.158 100.12C265.99 99.5535 265.678 99.1412 265.284 98.9535C264.976 98.8072 264.601 98.7663 264.143 98.9397C263.785 99.0752 263.604 99.4762 263.74 99.8338C263.875 100.192 264.276 100.372 264.634 100.237C264.65 100.23 264.673 100.225 264.69 100.221Z" fill="#3D493A" fill-opacity="0.1"/>
<path fill-rule="evenodd" clip-rule="evenodd" d="M264.367 100.565C264.38 100.636 264.439 100.966 264.438 101.22C264.432 102.375 264.076 104.084 263.863 104.472C263.679 104.807 263.801 105.229 264.137 105.414C264.472 105.598 264.894 105.476 265.078 105.14C265.336 104.673 265.817 102.62 265.824 101.227C265.827 100.735 265.766 100.315 265.652 100.036C265.564 99.8199 265.441 99.6593 265.305 99.5475C265.009 99.3051 264.572 99.3485 264.329 99.644C264.104 99.9189 264.125 100.316 264.367 100.565Z" fill="#3D493A" fill-opacity="0.1"/>
<path fill-rule="evenodd" clip-rule="evenodd" d="M257.203 98.9794C254.384 100.372 253.763 103.431 254.269 106.193C254.338 106.57 254.7 106.819 255.077 106.75C255.453 106.681 255.703 106.319 255.634 105.943C255.236 103.772 255.601 101.317 257.817 100.223C258.16 100.053 258.302 99.6371 258.132 99.2942C257.963 98.9508 257.546 98.81 257.203 98.9794Z" fill="#3D493A" fill-opacity="0.1"/>
<path fill-rule="evenodd" clip-rule="evenodd" d="M232.869 101.806C232.432 103.498 232.46 104.622 232.801 105.481C233.298 106.736 234.516 107.468 236.304 108.576C236.629 108.778 237.057 108.677 237.258 108.352C237.46 108.027 237.359 107.598 237.034 107.397C236.246 106.909 235.573 106.517 235.042 106.107C234.604 105.769 234.271 105.427 234.09 104.97C233.829 104.311 233.876 103.451 234.212 102.153C234.308 101.782 234.084 101.404 233.714 101.308C233.343 101.212 232.965 101.435 232.869 101.806Z" fill="#3D493A" fill-opacity="0.1"/>
<path fill-rule="evenodd" clip-rule="evenodd" d="M273.733 98.076C269.938 102.353 266.365 106.832 263.608 111.842C262.749 113.403 261.387 115.18 261.088 116.958C261.024 117.335 261.279 117.694 261.657 117.757C262.034 117.82 262.392 117.565 262.455 117.188C262.73 115.554 264.034 113.945 264.823 112.511C267.53 107.591 271.044 103.197 274.77 98.9962C275.024 98.71 274.998 98.2716 274.712 98.0174C274.425 97.7637 273.987 97.7898 273.733 98.076Z" fill="#3D493A" fill-opacity="0.1"/>
<path fill-rule="evenodd" clip-rule="evenodd" d="M258.151 120.494C258.233 120.377 258.423 120.309 258.621 120.223C259.124 120.003 259.728 119.83 260.073 119.674C263.081 118.319 265.929 119.042 267.717 121.7C268.034 122.173 268.356 122.651 268.417 123.251C268.623 125.293 266.97 127.133 265.403 128.213C262.385 130.295 258.441 130.825 254.945 129.786C254.415 129.628 253.257 129.263 252.311 128.785C251.808 128.531 251.348 128.278 251.191 127.968C251.019 127.626 250.602 127.488 250.26 127.661C249.918 127.833 249.781 128.25 249.953 128.592C250.153 128.988 250.59 129.392 251.169 129.74C252.26 130.395 253.872 130.913 254.55 131.115C258.441 132.273 262.831 131.673 266.19 129.355C268.137 128.013 270.052 125.648 269.796 123.111C269.712 122.274 269.311 121.586 268.867 120.926C266.675 117.666 263.191 116.748 259.504 118.409C259.095 118.594 258.33 118.804 257.787 119.083C257.444 119.26 257.174 119.473 257.018 119.693C256.797 120.005 256.872 120.438 257.184 120.659C257.497 120.88 257.93 120.806 258.151 120.494Z" fill="#3D493A" fill-opacity="0.1"/>
<path fill-rule="evenodd" clip-rule="evenodd" d="M257.734 124.784C257.563 125.493 256.97 126.004 256.429 126.487C256.242 126.654 255.631 126.921 255.083 127.053C254.954 127.084 254.776 127.099 254.655 127.105C254.576 126.828 254.327 126.618 254.022 126.602C253.64 126.583 253.314 126.878 253.295 127.26C253.278 127.589 253.371 127.838 253.514 128.029C253.708 128.288 254.022 128.463 254.442 128.499C254.897 128.539 255.531 128.4 256.097 128.188C256.663 127.977 257.156 127.697 257.353 127.521C258.197 126.768 259.02 125.893 259.151 124.722C259.163 124.616 259.155 124.506 259.124 124.397L259.19 124.368C259.638 124.184 260.136 124.023 260.258 123.972C261.086 123.624 262.149 123.257 263.144 123.223C263.964 123.195 264.742 123.4 265.193 124.184C265.384 124.515 265.809 124.629 266.14 124.438C266.472 124.247 266.586 123.823 266.395 123.491C265.659 122.214 264.433 121.791 263.096 121.837C261.934 121.877 260.689 122.287 259.721 122.693C259.531 122.772 258.471 123.116 257.999 123.407C257.704 123.589 257.552 123.813 257.499 123.969C257.457 124.095 257.445 124.237 257.489 124.393C257.511 124.473 257.555 124.576 257.64 124.681C257.658 124.704 257.695 124.744 257.734 124.784Z" fill="#3D493A" fill-opacity="0.1"/>
<path fill-rule="evenodd" clip-rule="evenodd" d="M248.072 128.762C247.518 129.487 246.96 130.604 246.784 131.686C246.652 132.503 246.739 133.299 247.126 133.939C247.324 134.267 247.751 134.372 248.078 134.174C248.406 133.975 248.511 133.548 248.312 133.221C248.088 132.849 248.077 132.382 248.153 131.908C248.292 131.055 248.736 130.176 249.174 129.605C249.406 129.301 249.348 128.865 249.044 128.632C248.74 128.4 248.305 128.458 248.072 128.762Z" fill="#3D493A" fill-opacity="0.1"/>
<path fill-rule="evenodd" clip-rule="evenodd" d="M245.144 133.419C245.083 133.888 244.684 135.69 244.684 136.306C244.684 136.689 244.994 137 245.377 137C245.759 137 246.07 136.689 246.07 136.306C246.07 135.714 246.476 133.97 246.524 133.56C246.533 133.483 246.523 133.3 246.515 133.178C246.641 132.997 246.679 132.759 246.596 132.538C246.461 132.179 246.061 131.997 245.703 132.132C245.405 132.244 245.223 132.466 245.151 132.776C245.11 132.953 245.138 133.352 245.144 133.419Z" fill="#3D493A" fill-opacity="0.1"/>
<path fill-rule="evenodd" clip-rule="evenodd" d="M242.826 137.084C242.102 137.842 241.514 138.901 241.245 139.914C240.879 141.294 240.41 142.957 240.653 144.397C240.865 145.662 241.873 146.755 243.216 147.627C245 148.786 247.358 149.583 248.642 150.078C248.999 150.216 249.401 150.037 249.538 149.681C249.676 149.323 249.498 148.921 249.141 148.784C247.919 148.313 245.67 147.567 243.971 146.464C242.99 145.826 242.176 145.092 242.02 144.167C241.809 142.913 242.267 141.472 242.586 140.27C242.797 139.473 243.259 138.639 243.829 138.042C244.093 137.766 244.083 137.326 243.806 137.062C243.529 136.798 243.09 136.807 242.826 137.084Z" fill="#3D493A" fill-opacity="0.1"/>
<path fill-rule="evenodd" clip-rule="evenodd" d="M253.141 151.592C259.487 154.34 267.542 152.928 273.336 149.418C275.218 148.278 277.472 147.093 278.743 145.228C278.959 144.912 278.877 144.48 278.561 144.264C278.245 144.049 277.813 144.13 277.598 144.447C276.434 146.153 274.339 147.19 272.618 148.232C267.187 151.523 259.641 152.896 253.692 150.319C253.341 150.167 252.932 150.328 252.78 150.68C252.628 151.031 252.789 151.439 253.141 151.592Z" fill="#3D493A" fill-opacity="0.1"/>
<path fill-rule="evenodd" clip-rule="evenodd" d="M273.096 96.5587C277.555 96.5306 278.468 98.5513 281.33 101.388C287.094 107.103 290.423 115.666 289.94 123.808C289.688 128.061 287.518 130.474 285.976 134.145C285.828 134.498 285.994 134.905 286.347 135.053C286.7 135.201 287.107 135.035 287.255 134.682C288.861 130.858 291.062 128.321 291.325 123.891C291.831 115.36 288.344 106.39 282.306 100.404C279.128 97.2528 278.038 95.1409 273.088 95.172C272.705 95.1744 272.396 95.4868 272.398 95.8695C272.401 96.2523 272.713 96.5612 273.096 96.5587Z" fill="#3D493A" fill-opacity="0.1"/>
<path fill-rule="evenodd" clip-rule="evenodd" d="M290.283 132.979C291.664 131.734 293.426 131.554 295.144 131.988C297.86 132.675 300.485 134.866 301.52 137.135C303.415 141.291 302.487 145.711 300.114 149.476C299.249 150.848 298.182 152.477 296.692 153.271C295.266 154.032 293.572 154.241 292.013 154.589C291.64 154.673 291.404 155.044 291.488 155.417C291.572 155.791 291.943 156.026 292.316 155.943C293.994 155.567 295.809 155.314 297.345 154.495C299.041 153.591 300.302 151.778 301.287 150.215C303.912 146.052 304.878 141.156 302.782 136.56C301.596 133.958 298.598 131.43 295.483 130.644C293.314 130.095 291.098 130.376 289.354 131.95C289.069 132.206 289.047 132.645 289.303 132.929C289.56 133.213 289.999 133.236 290.283 132.979Z" fill="#3D493A" fill-opacity="0.1"/>
<path fill-rule="evenodd" clip-rule="evenodd" d="M275.056 147.875C274.267 150.711 275.877 153.426 277.928 155.233C278.767 155.973 279.625 156.821 280.618 157.367C281.855 158.048 283.913 158.487 285.973 158.587C288.048 158.687 290.118 158.438 291.358 157.823C291.701 157.653 291.842 157.237 291.672 156.894C291.502 156.551 291.086 156.411 290.743 156.581C289.661 157.117 287.85 157.289 286.04 157.201C284.214 157.113 282.383 156.756 281.287 156.152C280.381 155.654 279.609 154.867 278.845 154.193C277.175 152.721 275.75 150.556 276.392 148.247C276.495 147.878 276.278 147.495 275.91 147.392C275.541 147.29 275.159 147.506 275.056 147.875Z" fill="#3D493A" fill-opacity="0.1"/>
<path fill-rule="evenodd" clip-rule="evenodd" d="M279.682 142.5C278.814 145.721 278.917 148.973 282.306 150.737C282.646 150.914 283.065 150.782 283.242 150.442C283.418 150.102 283.286 149.684 282.947 149.507C280.233 148.095 280.326 145.439 281.021 142.861C281.121 142.491 280.901 142.111 280.532 142.011C280.162 141.912 279.781 142.131 279.682 142.5Z" fill="#3D493A" fill-opacity="0.1"/>
<path fill-rule="evenodd" clip-rule="evenodd" d="M240.586 143.766C239.87 144.039 239.079 144.712 238.32 145.612C236.711 147.52 235.178 150.449 234.582 151.927C234.439 152.282 234.611 152.686 234.965 152.83C235.32 152.973 235.725 152.801 235.868 152.446C236.35 151.252 237.48 149.052 238.748 147.315C239.524 146.251 240.329 145.347 241.08 145.062C241.437 144.925 241.617 144.524 241.481 144.167C241.345 143.809 240.944 143.629 240.586 143.766Z" fill="#3D493A" fill-opacity="0.1"/>
<path fill-rule="evenodd" clip-rule="evenodd" d="M209.969 141.574C211.719 152.647 224.568 157 234.339 154.094C234.706 153.985 234.915 153.598 234.806 153.231C234.697 152.865 234.311 152.656 233.944 152.765C224.914 155.451 212.957 151.59 211.339 141.357C211.28 140.979 210.924 140.72 210.546 140.78C210.168 140.84 209.91 141.195 209.969 141.574Z" fill="#3D493A" fill-opacity="0.1"/>
<path fill-rule="evenodd" clip-rule="evenodd" d="M191.157 142.036C189.416 143.745 187.045 144.586 184.924 145.687C178.964 148.783 169.309 154.662 165.92 160.541C163.526 164.694 163.274 168.476 163.696 172.296C164.102 175.967 165.151 179.672 165.411 183.801C165.817 190.237 164.453 196.848 163.003 203.073C161.956 207.575 161.275 211.885 160.004 216.297C159.898 216.665 160.11 217.05 160.478 217.155C160.846 217.261 161.23 217.049 161.336 216.681C162.615 212.246 163.301 207.913 164.355 203.388C165.833 197.033 167.209 190.283 166.795 183.714C166.533 179.561 165.483 175.835 165.075 172.143C164.683 168.599 164.9 165.087 167.122 161.234C170.401 155.543 179.794 149.914 185.563 146.919C187.804 145.755 190.289 144.831 192.128 143.026C192.401 142.758 192.406 142.319 192.138 142.046C191.87 141.773 191.43 141.768 191.157 142.036Z" fill="#3D493A" fill-opacity="0.1"/>
<path fill-rule="evenodd" clip-rule="evenodd" d="M230.232 189.972C226.02 193.318 219.233 198.343 214.475 203.987C211.208 207.863 208.906 212.041 208.906 216.167C208.906 216.55 209.217 216.86 209.6 216.86C209.983 216.86 210.293 216.55 210.293 216.167C210.293 212.333 212.5 208.482 215.536 204.881C220.232 199.31 226.938 194.36 231.095 191.058C231.395 190.82 231.444 190.383 231.207 190.084C230.969 189.784 230.532 189.734 230.232 189.972Z" fill="#3D493A" fill-opacity="0.1"/>
<path fill-rule="evenodd" clip-rule="evenodd" d="M160.706 218.002C160.777 218.412 161.181 219.081 161.79 219.798C163.009 221.235 165.003 223.002 165.503 223.341C167.529 224.715 170.247 225.73 172.598 226.386C180.953 228.715 190.676 226.84 198.626 224.043C202.355 222.731 206.682 221.276 209.536 218.445C209.808 218.176 209.81 217.736 209.541 217.465C209.271 217.193 208.832 217.191 208.56 217.461C205.846 220.151 201.71 221.488 198.166 222.735C190.469 225.443 181.06 227.306 172.971 225.05C170.756 224.432 168.19 223.488 166.282 222.194C165.818 221.879 163.977 220.232 162.847 218.901C162.448 218.431 162.119 218.034 162.072 217.764C162.007 217.387 161.648 217.134 161.27 217.2C160.893 217.265 160.64 217.624 160.706 218.002Z" fill="#3D493A" fill-opacity="0.1"/>
<path fill-rule="evenodd" clip-rule="evenodd" d="M237.104 156.768C239.04 159.069 246.9 163.899 249.794 165.813C250.613 166.354 251.241 167.296 251.832 168.292C252.494 169.406 253.1 170.591 253.779 171.489C256.734 175.395 260.439 182.248 262.722 186.585C264.327 189.636 266.088 192.667 267.946 195.562C268.224 195.995 268.719 196.476 269.122 196.995C269.387 197.336 269.643 197.684 269.577 198.077C269.499 198.54 269.022 199.2 268.407 199.958C266.763 201.985 264.051 204.488 263.107 205.424C261.626 206.892 258.833 209.171 256.068 210.761C254.309 211.772 252.572 212.518 251.215 212.518C250.833 212.518 250.522 212.829 250.522 213.211C250.522 213.594 250.833 213.904 251.215 213.904C252.759 213.904 254.757 213.114 256.759 211.964C259.636 210.309 262.543 207.936 264.083 206.408C265.046 205.454 267.808 202.898 269.484 200.831C270.293 199.834 270.842 198.917 270.945 198.307C271.052 197.672 270.843 197.061 270.469 196.494C270.061 195.875 269.434 195.313 269.113 194.813C267.276 191.951 265.536 188.955 263.949 185.939C261.637 181.546 257.878 174.608 254.885 170.652C254.096 169.609 253.417 168.162 252.614 166.918C252.016 165.994 251.35 165.179 250.559 164.656C247.738 162.791 240.052 158.118 238.165 155.875C237.919 155.583 237.481 155.545 237.188 155.791C236.896 156.038 236.858 156.476 237.104 156.768Z" fill="#3D493A" fill-opacity="0.1"/>
<path fill-rule="evenodd" clip-rule="evenodd" d="M231.776 192.775C235.785 196.68 239.194 201.238 243.002 205.357C244.14 206.588 245.822 208.012 247.183 209.542C248.026 210.49 248.746 211.475 249.087 212.488C249.209 212.851 249.603 213.046 249.965 212.925C250.328 212.803 250.523 212.409 250.402 212.046C250.007 210.874 249.195 209.718 248.219 208.621C246.852 207.083 245.164 205.652 244.02 204.415C240.196 200.279 236.77 195.703 232.743 191.782C232.469 191.515 232.03 191.52 231.763 191.794C231.496 192.069 231.502 192.508 231.776 192.775Z" fill="#3D493A" fill-opacity="0.1"/>
<path fill-rule="evenodd" clip-rule="evenodd" d="M210.761 218.259C210.715 218.126 210.629 218.005 210.505 217.918C210.192 217.697 209.759 217.772 209.538 218.084C209.455 218.202 209.286 218.562 209.581 219.003C210.002 219.633 212.6 222.126 212.939 222.496C215.045 224.793 217.419 226.725 219.626 228.914C230.622 239.815 239.66 253.538 252.837 262.246C265.103 270.353 276.739 279.694 289.183 287.405C292.073 289.195 295.517 290.045 298.421 291.877C318.354 304.452 338.759 315.907 358.157 329.369C370.419 337.879 383.035 346.849 394.888 355.988C400.941 360.656 405.958 366.564 412.094 371.127C412.402 371.355 412.836 371.291 413.065 370.984C413.293 370.677 413.229 370.242 412.922 370.014C406.792 365.455 401.781 359.553 395.734 354.89C383.864 345.736 371.229 336.753 358.947 328.23C339.533 314.756 319.111 303.29 299.162 290.704C296.254 288.87 292.806 288.018 289.913 286.226C277.481 278.522 265.857 269.189 253.601 261.089C240.501 252.431 231.535 238.767 220.603 227.928C218.411 225.755 216.052 223.839 213.962 221.559C213.655 221.225 211.054 218.56 210.761 218.259ZM210.703 218.835L210.694 218.851L210.697 218.846L210.703 218.835ZM210.725 218.796L210.713 218.817L210.72 218.805L210.725 218.796ZM210.74 218.762L210.731 218.782L210.741 218.762L210.746 218.747L210.74 218.762ZM210.761 218.711L210.756 218.723L210.759 218.716L210.761 218.711Z" fill="#3D493A" fill-opacity="0.1"/>
<path fill-rule="evenodd" clip-rule="evenodd" d="M185.068 276.016C185.483 276.594 186.301 277.325 187.468 278.163C190.021 279.993 194.316 282.419 199.536 285.121C216.821 294.067 244.304 306.087 251.849 309.608C271.819 318.925 291.418 328.584 312.091 336.269C329.681 342.808 347.406 355.111 364.728 362.471C377.088 367.722 390.144 374.807 401.376 382.231C401.695 382.442 402.126 382.354 402.337 382.035C402.548 381.715 402.46 381.285 402.141 381.074C390.841 373.605 377.705 366.478 365.27 361.194C347.93 353.826 330.183 341.516 312.575 334.969C291.936 327.296 272.372 317.652 252.436 308.351C244.897 304.834 217.441 292.827 200.174 283.889C195.757 281.603 192.01 279.52 189.442 277.833C187.819 276.767 186.68 275.883 186.194 275.207C185.971 274.896 185.537 274.825 185.226 275.048C184.915 275.272 184.844 275.706 185.068 276.016Z" fill="#3D493A" fill-opacity="0.1"/>
<path fill-rule="evenodd" clip-rule="evenodd" d="M378.187 366.811C383.595 362.633 387.415 356.228 387.415 349.366C387.415 348.984 387.104 348.673 386.721 348.673C386.338 348.673 386.027 348.984 386.027 349.366C386.027 355.802 382.412 361.794 377.34 365.713C377.037 365.947 376.981 366.383 377.215 366.686C377.449 366.989 377.885 367.045 378.187 366.811Z" fill="#3D493A" fill-opacity="0.1"/>
<path fill-rule="evenodd" clip-rule="evenodd" d="M402.104 383.509C405.957 388.357 405.87 393.81 405.922 398.932C405.979 404.404 406.208 409.511 410.747 413.319C411.314 413.795 411.987 414.094 412.679 414.367C413.259 414.595 413.854 414.802 414.38 415.137C417.497 417.123 420.167 418.124 422.605 417.927C425.086 417.727 427.368 416.31 429.642 413.304C431.857 410.376 432.946 407.291 432.946 403.573C432.946 403.191 432.636 402.88 432.253 402.88C431.87 402.88 431.559 403.191 431.559 403.573C431.559 406.972 430.561 409.79 428.536 412.467C426.568 415.07 424.641 416.371 422.493 416.545C420.302 416.722 417.926 415.752 415.125 413.967C414.525 413.584 413.849 413.337 413.186 413.076C412.635 412.859 412.091 412.636 411.638 412.256C407.444 408.738 407.362 403.975 407.31 398.917C407.254 393.507 407.26 387.768 403.189 382.646C402.951 382.346 402.515 382.296 402.215 382.534C401.916 382.773 401.865 383.209 402.104 383.509Z" fill="#3D493A" fill-opacity="0.1"/>
<path fill-rule="evenodd" clip-rule="evenodd" d="M413.093 372.107C413.718 373.594 415.666 375.346 416.661 376.728C419.624 380.84 421.964 385.416 424.323 389.88C426.506 394.012 430.02 397.85 431.185 402.468C431.278 402.84 431.656 403.065 432.027 402.971C432.398 402.878 432.623 402.5 432.53 402.129C431.338 397.405 427.782 393.458 425.549 389.232C423.161 384.712 420.787 380.081 417.787 375.917C416.844 374.609 414.964 372.978 414.372 371.569C414.223 371.217 413.817 371.051 413.464 371.199C413.111 371.347 412.945 371.754 413.093 372.107Z" fill="#3D493A" fill-opacity="0.1"/>
<path fill-rule="evenodd" clip-rule="evenodd" d="M254.219 213.763C262.988 225.347 270.086 237.534 278.217 249.386C284.063 257.911 291.205 265.711 297.506 273.91C299.223 276.145 307.656 286.537 312.561 293.952C313.802 295.829 314.816 297.511 315.427 298.814C315.784 299.577 316.009 300.183 316.009 300.6C316.009 300.983 316.319 301.294 316.702 301.294C317.085 301.294 317.395 300.983 317.395 300.6C317.395 300.05 317.154 299.232 316.683 298.226C316.049 296.876 315.003 295.131 313.717 293.187C308.794 285.743 300.33 275.308 298.606 273.065C292.32 264.886 285.193 257.106 279.36 248.602C271.218 236.731 264.107 224.528 255.325 212.926C255.094 212.621 254.658 212.561 254.353 212.792C254.048 213.023 253.988 213.458 254.219 213.763Z" fill="#3D493A" fill-opacity="0.1"/>
<path fill-rule="evenodd" clip-rule="evenodd" d="M268.591 200.561C269.113 203.197 271.188 207.261 274.028 211.861C280.54 222.406 291.057 235.859 295.338 241.26C299.495 246.505 302.502 253.02 305.683 258.876C308.792 264.6 312.642 269.958 315.785 275.671C317.822 279.374 319.399 283.53 321.889 286.987C324.23 290.236 327.719 292.377 330.699 294.962C336.399 299.907 342.041 305.017 346.272 311.309C346.789 312.076 349.468 315.741 350.204 318.281C350.312 318.652 350.377 318.993 350.37 319.29C350.365 319.539 350.317 319.75 350.113 319.851C349.77 320.021 349.63 320.438 349.8 320.781C349.97 321.124 350.387 321.264 350.729 321.094C351.727 320.6 351.977 319.414 351.536 317.895C350.761 315.22 347.967 311.343 347.423 310.535C343.124 304.141 337.4 298.939 331.608 293.915C328.708 291.399 325.293 289.338 323.015 286.177C320.556 282.765 319.01 278.657 317 275.002C313.858 269.292 310.009 263.936 306.901 258.214C303.684 252.29 300.63 245.705 296.425 240.399C292.163 235.021 281.691 221.63 275.208 211.132C272.479 206.713 270.453 202.824 269.952 200.292C269.878 199.916 269.512 199.672 269.137 199.746C268.761 199.821 268.517 200.186 268.591 200.561Z" fill="#3D493A" fill-opacity="0.1"/>
<path fill-rule="evenodd" clip-rule="evenodd" d="M333.572 309.419C333.564 309.418 333.556 309.417 333.548 309.417C333.167 309.376 332.826 309.652 332.785 310.033C332.745 310.413 333.021 310.755 333.401 310.795C333.409 310.796 333.417 310.797 333.426 310.798C333.806 310.838 334.148 310.562 334.188 310.182C334.229 309.801 333.953 309.459 333.572 309.419Z" fill="#3D493A" fill-opacity="0.1"/>
<path fill-rule="evenodd" clip-rule="evenodd" d="M332.831 310.468C333.843 311.189 334.635 312.453 335.524 313.333C335.796 313.603 336.235 313.601 336.505 313.329C336.774 313.058 336.772 312.618 336.5 312.349C335.561 311.417 334.705 310.099 333.634 309.338C333.322 309.117 332.889 309.189 332.667 309.502C332.445 309.814 332.519 310.247 332.831 310.468Z" fill="#3D493A" fill-opacity="0.1"/>
<path fill-rule="evenodd" clip-rule="evenodd" d="M336.516 308.865C339.406 311.488 341.276 315.037 343.759 317.992C344.005 318.285 344.443 318.322 344.736 318.076C345.029 317.83 345.067 317.392 344.821 317.099C342.298 314.098 340.384 310.503 337.448 307.839C337.165 307.581 336.726 307.603 336.469 307.886C336.212 308.169 336.233 308.608 336.516 308.865Z" fill="#3D493A" fill-opacity="0.1"/>
<path fill-rule="evenodd" clip-rule="evenodd" d="M340.03 307.882C341.321 309.598 342.923 311.063 344.164 312.806C346.043 315.445 347.441 318.803 349.758 321.101C350.03 321.371 350.47 321.369 350.739 321.098C351.009 320.826 351.007 320.386 350.735 320.117C348.472 317.873 347.129 314.578 345.294 312.001C344.047 310.249 342.437 308.774 341.138 307.048C340.908 306.742 340.473 306.681 340.167 306.911C339.861 307.141 339.8 307.576 340.03 307.882Z" fill="#3D493A" fill-opacity="0.1"/>
<path fill-rule="evenodd" clip-rule="evenodd" d="M69.8419 289.758C73.0045 289.344 76.2617 289.713 79.445 289.615C86.2613 289.404 93.2708 288.982 100.046 288.275C107 287.55 113.818 285.912 120.733 284.933C132.236 283.303 144.212 282.592 155.817 282.044C162.438 281.731 169.611 281.551 176.034 280.136C178.381 279.619 183.563 278.037 185.655 278.037C186.037 278.037 186.348 277.726 186.348 277.343C186.348 276.96 186.037 276.65 185.655 276.65C183.499 276.65 178.153 278.249 175.736 278.782C169.387 280.18 162.295 280.35 155.751 280.659C144.104 281.208 132.084 281.924 120.539 283.559C113.64 284.536 106.838 286.172 99.9014 286.896C93.1604 287.6 86.185 288.018 79.4021 288.229C76.1735 288.329 72.8695 287.963 69.6621 288.383C69.2828 288.433 69.0148 288.781 69.0645 289.16C69.1143 289.54 69.4626 289.807 69.8419 289.758Z" fill="#3D493A" fill-opacity="0.1"/>
<path fill-rule="evenodd" clip-rule="evenodd" d="M69.4592 289.495C69.7272 290.186 69.7533 291.442 69.7119 292.828C69.6444 295.075 69.3538 297.644 69.3006 298.969C68.9001 308.89 67.5503 318.779 66.7198 328.664C66.0143 337.052 65.5607 345.556 65.2577 353.969C64.902 363.846 63.8601 373.739 64.3597 383.643C64.7124 390.631 66.268 397.676 66.268 404.649C66.268 405.032 66.5784 405.343 66.9612 405.343C67.3439 405.343 67.6548 405.032 67.6548 404.649C67.6548 397.653 66.0986 390.584 65.7449 383.573C65.2473 373.709 66.2892 363.856 66.6439 354.019C66.9459 345.628 67.3981 337.147 68.1016 328.78C68.9341 318.875 70.2853 308.965 70.6863 299.025C70.7489 297.469 71.1346 294.211 71.1115 291.751C71.1006 290.599 70.9913 289.61 70.7523 288.994C70.6139 288.637 70.2119 288.46 69.8548 288.598C69.4981 288.736 69.3208 289.138 69.4592 289.495Z" fill="#3D493A" fill-opacity="0.1"/>
<path fill-rule="evenodd" clip-rule="evenodd" d="M43.7064 262.043C48.0251 259.212 52.7735 258.398 57.4839 256.602C80.8374 247.697 106.707 243.628 131.226 239.576C133.958 239.125 145.135 236.272 152.433 235.155C154.265 234.874 155.847 234.703 156.974 234.715C157.562 234.722 158 234.745 158.224 234.893C158.543 235.104 158.974 235.016 159.185 234.697C159.396 234.378 159.308 233.947 158.989 233.736C158.701 233.546 158.222 233.402 157.571 233.353C156.378 233.261 154.48 233.438 152.224 233.784C144.92 234.902 133.734 237.756 131 238.208C106.391 242.274 80.429 246.369 56.9898 255.306C52.1848 257.138 47.3517 257.995 42.9463 260.883C42.6261 261.093 42.5364 261.523 42.7462 261.843C42.9561 262.163 43.3867 262.253 43.7064 262.043Z" fill="#3D493A" fill-opacity="0.1"/>
<path fill-rule="evenodd" clip-rule="evenodd" d="M162.538 220.129C160.468 225.231 158.109 232.083 158.109 237.708C158.109 238.091 158.42 238.401 158.802 238.401C159.185 238.401 159.496 238.091 159.496 237.708C159.496 232.247 161.814 225.603 163.823 220.65C163.967 220.296 163.796 219.891 163.441 219.747C163.086 219.603 162.681 219.775 162.538 220.129Z" fill="#3D493A" fill-opacity="0.1"/>
<path fill-rule="evenodd" clip-rule="evenodd" d="M41.5641 262.094C40.8981 263.827 39.9375 265.052 38.9508 266.336C37.3582 268.407 35.6917 270.614 34.8665 274.978C33.6148 281.597 34.8261 288.35 35.1779 294.972C36.0104 310.653 39.4523 326.075 40.5011 341.676C40.9809 348.807 42.7809 356.197 43.7647 363.537C44.7302 370.742 44.9085 377.901 42.1632 384.706C42.0198 385.06 42.1917 385.465 42.5464 385.608C42.9016 385.751 43.306 385.579 43.4489 385.224C46.2864 378.193 46.1366 370.798 45.1391 363.353C44.1597 356.043 42.3627 348.684 41.8848 341.583C40.8361 325.988 37.3946 310.573 36.5626 294.899C36.2168 288.386 34.998 281.745 36.2291 275.236C36.9991 271.166 38.5646 269.113 40.0503 267.181C41.1159 265.795 42.1395 264.463 42.8587 262.592C42.9957 262.234 42.8174 261.833 42.4602 261.696C42.1026 261.559 41.7011 261.737 41.5641 262.094Z" fill="#3D493A" fill-opacity="0.1"/>
<path fill-rule="evenodd" clip-rule="evenodd" d="M41.1261 385.874C39.4901 387.555 38.2941 389.827 36.431 391.278C30.7639 395.692 20.5874 399.779 13.7696 400.78C11.7799 401.072 6.86952 401.957 3.82564 403.635C2.35025 404.448 1.31032 405.473 1.0384 406.641C0.863518 407.394 1.12559 408.195 1.6458 408.929C2.28817 409.836 3.31577 410.647 3.97588 411.097C7.39612 413.428 12.5499 414.622 16.6159 414.94C29.1132 415.918 42.3 414.808 54.5312 412.299C56.6308 411.868 59.184 411.665 61.5185 411.066C64.0235 410.423 66.2728 409.323 67.5836 407.158C67.7817 406.83 67.6767 406.403 67.3491 406.205C67.022 406.007 66.5949 406.112 66.3969 406.439C65.2762 408.291 63.3161 409.173 61.1742 409.722C58.8618 410.315 56.3322 410.513 54.2524 410.94C42.1458 413.423 29.0939 414.526 16.7243 413.557C12.8775 413.256 7.99268 412.156 4.75668 409.951C4.19903 409.57 3.32069 408.895 2.77734 408.128C2.5064 407.745 2.29802 407.348 2.38916 406.956C2.51379 406.422 2.90838 405.961 3.44287 405.536C4.07145 405.038 4.89214 404.606 5.79905 404.228C8.65279 403.036 12.34 402.392 13.9711 402.153C20.985 401.122 31.4531 396.914 37.2832 392.372C39.1951 390.883 40.4409 388.566 42.1197 386.841C42.3867 386.566 42.3808 386.127 42.1064 385.86C41.832 385.593 41.3926 385.599 41.1261 385.874Z" fill="#3D493A" fill-opacity="0.1"/>
<path fill-rule="evenodd" clip-rule="evenodd" d="M44.1423 351.533C51.3917 352.32 58.3859 352.934 64.5254 348.369C64.8328 348.141 64.8963 347.706 64.6682 347.399C64.4397 347.092 64.0052 347.028 63.6978 347.256C57.8578 351.599 51.1878 350.903 44.2921 350.154C43.9113 350.113 43.5689 350.388 43.5276 350.768C43.4862 351.149 43.7616 351.491 44.1423 351.533Z" fill="#3D493A" fill-opacity="0.1"/>
<path fill-rule="evenodd" clip-rule="evenodd" d="M180.517 148.536C181.623 142.125 183.842 135.764 185.189 129.356C185.637 127.226 185.907 124.733 186.443 122.337C186.953 120.053 187.702 117.853 189.141 116.189C189.397 115.892 190.012 115.611 190.757 115.312C192.775 114.503 195.721 113.773 196.727 113.513C198.438 113.071 200.233 112.864 201.994 112.718C203.895 112.561 205.362 112.586 206.492 112.799C207.496 112.989 208.21 113.321 208.702 113.827C209.297 114.44 209.559 115.288 209.69 116.342C209.914 118.158 209.729 120.532 209.729 123.424C209.729 128.141 210.094 132.839 210.094 137.536C210.094 137.918 210.404 138.229 210.787 138.229C211.169 138.229 211.48 137.918 211.48 137.536C211.48 132.839 211.115 128.141 211.115 123.424C211.115 120.462 211.296 118.031 211.066 116.171C210.893 114.774 210.486 113.673 209.697 112.861C208.452 111.58 206.152 110.983 201.88 111.336C200.041 111.488 198.166 111.708 196.38 112.17C195.346 112.438 192.316 113.192 190.241 114.025C189.232 114.43 188.439 114.881 188.091 115.282C186.508 117.114 185.651 119.52 185.089 122.034C184.552 124.436 184.28 126.935 183.832 129.071C182.481 135.495 180.259 141.873 179.151 148.301C179.086 148.678 179.339 149.037 179.716 149.102C180.094 149.167 180.452 148.913 180.517 148.536Z" fill="#3D493A" fill-opacity="0.1"/>
<path fill-rule="evenodd" clip-rule="evenodd" d="M217.754 74.1644C217.719 77.0699 216.281 80.4044 215.566 83.1626C213.802 89.9597 212.587 96.849 210.969 103.664C210.361 106.231 209.008 109.149 209.008 111.792C209.008 112.175 209.319 112.486 209.701 112.486C210.084 112.486 210.395 112.175 210.395 111.792C210.395 109.25 211.733 106.453 212.319 103.985C213.934 97.1785 215.147 90.2986 216.908 83.5108C217.649 80.6532 219.105 77.191 219.14 74.1811C219.145 73.7984 218.838 73.4841 218.455 73.4792C218.073 73.4747 217.758 73.7816 217.754 74.1644Z" fill="#3D493A" fill-opacity="0.1"/>
<path fill-rule="evenodd" clip-rule="evenodd" d="M249.364 30.4875C248.596 32.1511 247.268 33.4102 246.156 34.8437C243.451 38.3295 240.808 41.9862 238.3 45.5779C235.247 49.9488 232.531 54.5691 229.367 58.8465C225.763 63.7185 221.656 68.3427 218.309 73.3186C218.096 73.6364 218.18 74.0674 218.498 74.2812C218.816 74.4945 219.247 74.4102 219.46 74.0925C222.795 69.1333 226.89 64.5264 230.482 59.6711C233.653 55.3839 236.377 50.7533 239.437 46.3715C241.932 42.799 244.561 39.1615 247.252 35.694C248.428 34.1772 249.811 32.8289 250.623 31.0688C250.784 30.721 250.632 30.3087 250.284 30.1486C249.937 29.988 249.524 30.1402 249.364 30.4875Z" fill="#3D493A" fill-opacity="0.1"/>
<path fill-rule="evenodd" clip-rule="evenodd" d="M241.561 23.9191C238.018 27.2714 234.365 30.5404 230.858 33.8922C226.172 38.371 222.066 43.4972 217.19 47.7943C212.703 51.7486 205.189 59.2506 201.965 64.2226C195.184 74.6804 193.207 88.484 191.177 100.558C190.573 104.15 190.039 107.919 189.073 111.434C188.85 112.242 188.43 113.05 188.43 113.894C188.43 114.276 188.741 114.587 189.123 114.587C189.506 114.587 189.816 114.276 189.816 113.894C189.816 113.172 190.219 112.493 190.41 111.801C191.389 108.242 191.933 104.425 192.545 100.788C194.545 88.8929 196.448 75.2804 203.129 64.9773C206.298 60.0891 213.696 52.7225 218.107 48.8352C222.997 44.5258 227.116 39.3863 231.816 34.8946C235.322 31.5448 238.973 28.2773 242.514 24.9265C242.792 24.664 242.804 24.2245 242.541 23.9467C242.278 23.6684 241.839 23.6561 241.561 23.9191Z" fill="#3D493A" fill-opacity="0.1"/>
<path fill-rule="evenodd" clip-rule="evenodd" d="M267.445 1.49564C267.441 1.54391 267.433 1.60154 267.421 1.64982C267.299 2.1316 266.872 2.51092 266.419 2.86511C265.832 3.32275 265.172 3.71685 264.716 4.08385C262.192 6.11688 259.149 7.85729 257.138 10.4214C256.902 10.7228 256.954 11.1588 257.255 11.3953C257.556 11.6312 257.993 11.5785 258.229 11.2775C260.177 8.79475 263.142 7.13265 265.586 5.16366C266.137 4.71981 266.985 4.23556 267.645 3.64935C268.189 3.16511 268.609 2.61042 268.765 1.98873C268.939 1.30055 268.788 0.858672 268.559 0.576895C268.312 0.272457 267.918 0.102007 267.435 0.0921547C266.84 0.0793467 266.074 0.325667 265.631 0.501532C263.306 1.42371 260.946 2.96904 258.963 4.46266C255.156 7.33117 250.657 10.0618 247.754 13.8992C246.744 15.2342 245.709 16.7865 244.957 18.2776C244.121 19.9363 243.592 21.9092 242.436 23.3831C242.2 23.6846 242.254 24.1206 242.555 24.357C242.856 24.593 243.292 24.5398 243.528 24.2388C244.739 22.6939 245.319 20.6397 246.195 18.9023C246.911 17.483 247.899 16.0067 248.86 14.7362C251.687 10.9987 256.089 8.3642 259.798 5.57007C261.685 4.14789 263.928 2.66856 266.142 1.79071C266.343 1.7114 266.63 1.60794 266.925 1.54045C267.081 1.50498 267.317 1.49711 267.445 1.49564Z" fill="#3D493A" fill-opacity="0.1"/>
<path fill-rule="evenodd" clip-rule="evenodd" d="M271.367 4.35301C271.344 4.41607 271.189 4.84513 271.011 5.13971C270.263 6.3752 268.78 7.98557 268.358 8.37868C264.548 11.9191 261.442 15.9251 258.115 19.8828C257.869 20.1759 257.907 20.6133 258.2 20.8596C258.493 21.1059 258.931 21.068 259.177 20.7749C262.467 16.8616 265.535 12.896 269.302 9.39446C269.764 8.96539 271.381 7.20674 272.197 5.85746C272.438 5.45942 272.612 5.08947 272.693 4.7875C272.781 4.4599 272.769 4.17862 272.695 3.96137C272.573 3.5993 272.179 3.40473 271.816 3.52788C271.472 3.64463 271.279 4.0067 271.367 4.35301Z" fill="#3D493A" fill-opacity="0.1"/>
<path fill-rule="evenodd" clip-rule="evenodd" d="M261.985 18.0423C262.156 17.8817 262.601 17.6728 263.15 17.4575C264.061 17.0999 265.252 16.7639 266.161 16.7679C266.478 16.7693 266.757 16.7728 266.903 16.9344C266.944 16.9797 266.945 17.0467 266.941 17.128C266.934 17.2679 266.892 17.4285 266.822 17.6157C266.658 18.0472 266.137 18.4531 265.55 18.8664C264.462 19.63 263.102 20.3285 262.417 20.8379C260.683 22.128 259.291 23.9138 257.83 25.5995C256.473 27.166 255.058 28.6473 253.169 29.4503C252.704 29.6478 251.961 30.0508 251.262 30.2493C250.963 30.3346 250.678 30.4134 250.466 30.3084C250.123 30.1385 249.707 30.2789 249.537 30.6218C249.367 30.9646 249.507 31.3809 249.85 31.5508C250.326 31.7868 250.97 31.7745 251.642 31.5833C252.399 31.3681 253.207 30.9405 253.711 30.7267C255.795 29.8409 257.381 28.236 258.878 26.5079C260.273 24.8985 261.589 23.1822 263.245 21.9512C263.923 21.4467 265.27 20.7571 266.347 20.0009C267.202 19.4004 267.882 18.7344 268.119 18.1063C268.501 17.095 268.315 16.4265 267.931 16.0033C267.571 15.6058 266.947 15.3841 266.167 15.3807C264.929 15.3757 263.238 15.8846 262.147 16.3748C261.619 16.6117 261.223 16.8556 261.036 17.0309C260.757 17.293 260.743 17.7319 261.005 18.0112C261.267 18.29 261.706 18.3043 261.985 18.0423Z" fill="#3D493A" fill-opacity="0.1"/>
</svg>
